<?xml version="1.0" encoding="UTF-8"?>
<svg id="Layer_11"
  xmlns="http://www.w3.org/2000/svg"
  xmlns:xlink="http://www.w3.org/1999/xlink" viewBox="0 0 800 1080">
  <defs>
    <style>.cls-1,.cls-2,.cls-3,.cls-4,.cls-5,.cls-6,.cls-7,.cls-8,.cls-9,.cls-10,.cls-11,.cls-12,.cls-13,.cls-14,.cls-15,.cls-16,.cls-17,.cls-18,.cls-19,.cls-20,.cls-21,.cls-22,.cls-23,.cls-24,.cls-25,.cls-26,.cls-27,.cls-28,.cls-29,.cls-30,.cls-31,.cls-32{stroke-width:0px;}.cls-1,.cls-33,.cls-34,.cls-35,.cls-36,.cls-37,.cls-38,.cls-39,.cls-40{fill:none;}.cls-2{fill:url(#radial-gradient);}.cls-33{stroke:#a2248e;stroke-width:.26px;}.cls-41{clip-path:url(#clippath-1);}.cls-42{clip-path:url(#clippath-3);}.cls-43{clip-path:url(#clippath-2);}.cls-34,.cls-35,.cls-36,.cls-44,.cls-45,.cls-46,.cls-47,.cls-38,.cls-48,.cls-39,.cls-40{stroke-miterlimit:10;}.cls-34,.cls-35,.cls-46,.cls-38{stroke-width:.35px;}.cls-34,.cls-46,.cls-37,.cls-47,.cls-38,.cls-48,.cls-39{stroke:#fff;}.cls-35,.cls-36,.cls-40{stroke:#000;}.cls-36,.cls-45,.cls-47,.cls-40{stroke-width:.5px;}.cls-36,.cls-46,.cls-47,.cls-38{stroke-linecap:round;}.cls-44{stroke:#0078d4;}.cls-44,.cls-27{fill:#fff;}.cls-45{stroke:#bbbaba;}.cls-46{opacity:.5;}.cls-3{fill:#eee;fill-rule:evenodd;}.cls-37{stroke-width:.14px;}.cls-5{fill:#f8be16;}.cls-6{fill:#60b7e3;}.cls-7{fill:#7a7b80;}.cls-8{fill:#38a5dd;}.cls-9{fill:#3c3c3c;}.cls-10{fill:#2d71b6;}.cls-11{fill:#1a1a1a;}.cls-12{fill:#3f3f3f;}.cls-13{fill:#1a73e5;}.cls-14{fill:#074a84;}.cls-15{fill:#229042;}.cls-16{fill:#238cd5;}.cls-17{fill:#1e1e1e;}.cls-18{fill:#1f3540;}.cls-19{fill:#e03b2e;}.cls-20{fill:#dd9c01;}.cls-21{fill:#bbbaba;}.cls-22{fill:#00a49a;}.cls-23{fill:#a2248e;}.cls-24{fill:#86c8ec;}.cls-25{fill:#7fb702;}.cls-26{fill:#ef5022;}.cls-28{fill:#fbb603;}.cls-29{fill:#ffc83d;}.cls-30{fill:#ec7313;}.cls-31{fill:#01a1ec;}.cls-32{fill:#036ebc;}.cls-48{fill:#5b5b5b;stroke-width:.18px;}.cls-39{stroke-width:.25px;}</style>
    <radialGradient id="radial-gradient" cx="6558.47" cy="1028.57" fx="6558.47" fy="1028.57" r=".82" gradientTransform="translate(21367.37 -54860.43) rotate(92.29) scale(8.57 18.25) skewX(.3)" gradientUnits="userSpaceOnUse">
      <stop offset="0" stop-color="#35bbeb"/>
      <stop offset=".11" stop-color="#34bbe7"/>
      <stop offset=".23" stop-color="#2fbcd9"/>
      <stop offset=".31" stop-color="#2bbdcc"/>
      <stop offset=".67" stop-color="#36c152"/>
    </radialGradient>
    <clipPath id="clippath-1">
      <rect class="cls-1" x="179.92" y="320.1" width="22.66" height="32.05"/>
    </clipPath>
    <clipPath id="clippath-2">
      <rect class="cls-1" x="179.92" y="320.1" width="22.66" height="32.05"/>
    </clipPath>
    <clipPath id="clippath-3">
      <rect class="cls-1" x="179.92" y="320.1" width="22.66" height="32.05"/>
    </clipPath>
  </defs>
  <path class="cls-4" d="m652.96,266.11H150.14c-11.16,0-20.28,9.7-20.28,20.77v319.8c0,11.07,9.11,14.11,20.28,14.11h502.83c11.16,0,20.84-3.03,20.84-14.11v-319.8c0-11.07-9.67-20.77-20.84-20.77Z"/>
  <path class="cls-4" d="m652.96,620.79H150.14c-10.14,0-18.2-4.05-18.2-14.11v-319.8c0-10.05,8.07-18.71,18.2-18.71h502.83c10.14,0,18.76,8.66,18.76,18.71v319.8c0,10.05-8.63,14.11-18.76,14.11Z"/>
  <path class="cls-17" d="m652.96,618.73H150.14c-9.54,0-18.2-2.59-18.2-12.05v-319.8c0-9.46,8.66-16.65,18.2-16.65h502.83c9.54,0,16.69,7.19,16.69,16.65v319.8c0,9.46-7.15,12.05-16.69,12.05Z"/>
  <path class="cls-11" d="m686.32,640.78c-1.44-3.18-16.85-4.4-24.25-4.4H143.61c-7.4,0-25.18,3.04-26.85,6.23l-81.52,156.51h0c0,14.92,0,37.03,27,37.03l667.79.84c27.07,0,27.07-22.09,27.07-37.03v-1l-70.77-158.18Z"/>
  <path class="cls-9" d="m678.05,622.72c-1.44-3.18-8.58-5.73-15.98-5.73H143.61c-7.4,0-14.73,2.55-16.4,5.73l-90.98,173.57c-3.83,7.3,3.67,13.33,16.82,13.33h685.51c13.14,0,21.08-6.03,17.79-13.33l-78.3-173.57Z"/>
  <path class="cls-12" d="m656.99,617.39l-8.73.09c-10.39.1-484.34.06-490.89,0l-8.72-.09-4.36-.04c-.74-.02-1.43-.01-2.12,0-.69.03-2.32-.06-4.41.15,2-.62,3.81-.78,4.6-.83.78-.02,1.58-.05,2.29-.05l4.4-.05,8.79-.09c11.72-.1,23.42-.2,35.12-.27,11.69-.09,23.37-.13,35.05-.2l35.01-.12,17.49-.04h17.48s34.96.05,34.96.05l69.91.2h.01l69.93-.2,34.96-.06h17.48s17.49.05,17.49.05l35,.12c11.67.07,23.35.11,35.04.2,11.68.07,23.38.17,35.09.27l8.79.09s6.42.44,7.2.46c.79.05-6.86.36-6.86.36Z"/>
  <path class="cls-21" d="m659.51,629.43c-5.21,0-10.18-1.83-11.07-4.06-.88-2.21,2.6-4,7.74-4s10.1,1.79,11.05,4c.96,2.23-2.5,4.06-7.72,4.06Z"/>
  <path class="cls-4" d="m659.34,629.01c-4.67,0-9.13-1.64-9.92-3.64-.79-1.99,2.33-3.59,6.94-3.59s9.06,1.6,9.91,3.59c.86,2-2.25,3.64-6.92,3.64Z"/>
  <path class="cls-45" d="m542.9,740.89c-.81-4.65-8.7-8.37-17.62-8.37h-245.47c-8.92,0-17.04,3.72-18.14,8.37l-10.47,44.27c-1.68,7.08,7.43,12.92,20.38,12.92h257.91c12.94,0,22.41-5.84,21.17-12.92l-7.75-44.27Z"/>
  <path class="cls-3" d="m167.77,642.92h17.23c1.4.01,2.29.66,1.98,1.46l-3.78,9.74c-.32.83-1.75,1.5-3.19,1.5h-17.59c-1.43,0-2.31-.69-1.96-1.51l4.14-9.74c.34-.8,1.76-1.45,3.16-1.45h0Z"/>
  <path class="cls-3" d="m193.51,642.82h17.22c1.4.01,2.32.66,2.04,1.46l-3.37,9.73c-.29.83-1.69,1.5-3.12,1.5h-17.58c-1.43,0-2.34-.69-2.02-1.51l3.73-9.73c.31-.8,1.7-1.45,3.1-1.45h0Z"/>
  <path class="cls-3" d="m219.1,642.78h17.21c1.4.01,2.35.66,2.1,1.46l-2.96,9.73c-.25.83-1.63,1.5-3.05,1.5h-17.58c-1.43,0-2.37-.69-2.09-1.51l3.32-9.73c.27-.8,1.64-1.45,3.04-1.45h0Z"/>
  <path class="cls-3" d="m244.75,642.98h17.21c1.4.01,2.37.66,2.17,1.46l-2.55,9.73c-.22.83-1.56,1.5-2.99,1.5h-17.57c-1.43,0-2.4-.69-2.15-1.51l2.9-9.73c.24-.8,1.58-1.45,2.98-1.45h0Z"/>
  <path class="cls-3" d="m270.45,642.88h17.2c1.4.01,2.4.66,2.23,1.46l-2.13,9.73c-.18.82-1.5,1.5-2.93,1.5h-17.56c-1.43,0-2.42-.69-2.21-1.51l2.49-9.73c.2-.8,1.52-1.45,2.92-1.45h0Z"/>
  <path class="cls-3" d="m296,642.84h17.19c1.4.01,2.43.66,2.29,1.46l-1.72,9.72c-.15.82-1.43,1.5-2.86,1.5h-17.55c-1.43,0-2.45-.69-2.28-1.51l2.08-9.73c.17-.8,1.45-1.45,2.85-1.45h0Z"/>
  <path class="cls-3" d="m321.96,642.93h17.19c1.4.01,2.45.66,2.35,1.46l-1.3,9.73c-.11.82-1.37,1.5-2.8,1.5h-17.55c-1.43,0-2.48-.69-2.34-1.51l1.66-9.73c.14-.8,1.39-1.45,2.79-1.45h0Z"/>
  <path class="cls-3" d="m347.6,642.83h17.18c1.4.01,2.48.66,2.41,1.46l-.89,9.72c-.08.82-1.3,1.5-2.73,1.5h-17.54c-1.43,0-2.51-.69-2.4-1.51l1.25-9.72c.1-.8,1.33-1.45,2.73-1.44h0Z"/>
  <path class="cls-3" d="m373.12,642.78h17.17c1.4.01,2.51.66,2.47,1.46l-.48,9.72c-.04.82-1.24,1.5-2.67,1.5h-17.53c-1.43,0-2.53-.69-2.46-1.51l.84-9.72c.07-.8,1.27-1.45,2.66-1.44h0Z"/>
  <path class="cls-3" d="m398.78,642.97h17.17c1.4.01,2.53.66,2.53,1.46l-.07,9.72c0,.82-1.18,1.5-2.6,1.5h-17.53c-1.43,0-2.56-.69-2.53-1.51l.43-9.72c.04-.8,1.21-1.45,2.6-1.44h0Z"/>
  <path class="cls-3" d="m424.38,642.87h17.16c1.4.01,2.56.66,2.59,1.46l.34,9.72c.03.82-1.11,1.5-2.54,1.5h-17.52c-1.42,0-2.59-.69-2.59-1.51l.02-9.72c0-.8,1.14-1.44,2.54-1.44h0Z"/>
  <path class="cls-3" d="m449.86,642.83h17.15c1.39.01,2.59.66,2.65,1.46l.75,9.71c.06.82-1.05,1.5-2.47,1.5h-17.51c-1.42,0-2.62-.69-2.65-1.51l-.39-9.71c-.03-.8,1.08-1.44,2.48-1.44h0Z"/>
  <path class="cls-3" d="m475.49,642.91h17.15c1.39.01,2.61.66,2.71,1.46l1.16,9.71c.1.82-.99,1.5-2.41,1.5h-17.51c-1.42,0-2.64-.69-2.71-1.51l-.8-9.71c-.07-.8,1.02-1.44,2.42-1.44h0Z"/>
  <path class="cls-3" d="m501.05,642.94l30.56.02c1.39,0,2.65.65,2.8,1.45l1.78,9.71c.15.82-.89,1.5-2.31,1.5l-31.19-.02c-1.42,0-2.67-.68-2.78-1.5l-1.21-9.71c-.1-.8.96-1.44,2.35-1.44h0Z"/>
  <path class="cls-3" d="m200.94,657.66h17.64c1.43,0,2.39.69,2.11,1.53l-3.32,10.22c-.28.87-1.71,1.58-3.18,1.58h-18.02c-1.47,0-2.41-.72-2.09-1.59l3.7-10.22c.3-.84,1.72-1.52,3.16-1.52h0Z"/>
  <path class="cls-3" d="m332.21,657.56h17.6c1.43,0,2.52.69,2.43,1.53l-1.16,10.21c-.1.87-1.37,1.58-2.84,1.57h-17.98c-1.46,0-2.55-.72-2.42-1.58l1.54-10.21c.13-.84,1.4-1.52,2.83-1.52h0Z"/>
  <path class="cls-3" d="m358.78,657.64h17.6c1.43,0,2.55.69,2.49,1.53l-.72,10.21c-.06.87-1.31,1.58-2.77,1.57h-17.97c-1.46,0-2.58-.72-2.49-1.58l1.1-10.21c.09-.84,1.33-1.52,2.77-1.52h0Z"/>
  <path class="cls-3" d="m437.43,657.69h17.58c1.43,0,2.64.69,2.68,1.53l.57,10.2c.05.87-1.11,1.57-2.57,1.57h-17.95c-1.46,0-2.67-.72-2.68-1.58l-.2-10.2c-.02-.84,1.14-1.52,2.57-1.52h0Z"/>
  <path class="cls-3" d="m463.63,657.58h17.57c1.43,0,2.66.69,2.75,1.53l1,10.19c.08.86-1.04,1.57-2.5,1.57h-17.94c-1.46,0-2.7-.72-2.75-1.58l-.63-10.2c-.05-.83,1.08-1.52,2.5-1.51h0Z"/>
  <path class="cls-3" d="m489.7,657.53h17.56c1.43,0,2.69.69,2.81,1.53l1.43,10.19c.12.86-.97,1.57-2.43,1.57h-17.93c-1.46,0-2.72-.72-2.81-1.58l-1.06-10.19c-.09-.83,1.01-1.52,2.44-1.51h0Z"/>
  <path class="cls-3" d="m255.91,672.4h18.04c1.47,0,2.5.72,2.3,1.6l-2.47,10.71c-.21.91-1.61,1.65-3.11,1.65h-18.44c-1.5,0-2.53-.75-2.29-1.66l2.86-10.71c.23-.88,1.63-1.59,3.09-1.59h0Z"/>
  <path class="cls-3" d="m282.82,672.62h18.04c1.47,0,2.53.72,2.37,1.6l-2.01,10.72c-.17.91-1.54,1.65-3.04,1.65h-18.44c-1.5,0-2.56-.75-2.36-1.66l2.41-10.72c.2-.88,1.56-1.59,3.03-1.59h0Z"/>
  <path class="cls-3" d="m309.74,672.51h18.03c1.47,0,2.56.72,2.43,1.6l-1.56,10.71c-.13.91-1.47,1.65-2.97,1.65h-18.43c-1.5,0-2.59-.75-2.42-1.66l1.95-10.71c.16-.88,1.49-1.59,2.96-1.59h0Z"/>
  <path class="cls-3" d="m390.61,672.42h18.01c1.46,0,2.65.72,2.63,1.6l-.2,10.7c-.02.91-1.25,1.65-2.75,1.65h-18.4c-1.5,0-2.68-.75-2.63-1.66l.59-10.7c.05-.88,1.29-1.59,2.75-1.59h0Z"/>
  <path class="cls-3" d="m417.35,672.37h18c1.46,0,2.68.72,2.7,1.6l.25,10.7c.02.91-1.18,1.65-2.68,1.65h-18.39c-1.5,0-2.71-.75-2.7-1.66l.14-10.7c.01-.88,1.22-1.59,2.68-1.59h0Z"/>
  <path class="cls-3" d="m444.26,672.57h18c1.46,0,2.71.72,2.77,1.6l.71,10.7c.06.91-1.11,1.65-2.61,1.65h-18.39c-1.5,0-2.74-.75-2.77-1.66l-.32-10.7c-.03-.88,1.15-1.59,2.61-1.59h0Z"/>
  <path class="cls-3" d="m497.79,672.4h38.95c1.46.02,2.79.73,2.95,1.6l1.96,10.69c.17.91-.92,1.65-2.41,1.65h-39.81c-1.49-.01-2.8-.76-2.9-1.66l-1.22-10.69c-.1-.88,1.02-1.59,2.48-1.59h0Z"/>
  <path class="cls-3" d="m516.62,657.6h17.55c1.43,0,2.72.69,2.87,1.53l1.87,10.19c.16.86-.9,1.57-2.36,1.57h-17.93c-1.46,0-2.76-.72-2.88-1.58l-1.5-10.19c-.12-.84.95-1.52,2.37-1.51h0Z"/>
  <path class="cls-3" d="m210.56,688.82h18.52c1.51,0,2.52.76,2.25,1.68l-3.31,11.28c-.28.96-1.77,1.74-3.31,1.74h-18.94c-1.54,0-2.54-.79-2.23-1.75l3.73-11.28c.3-.92,1.79-1.68,3.29-1.68h0Z"/>
  <path class="cls-3" d="m238.21,688.7h18.51c1.51,0,2.55.76,2.32,1.68l-2.83,11.28c-.24.96-1.7,1.74-3.24,1.74h-18.93c-1.54,0-2.57-.79-2.3-1.75l3.25-11.28c.27-.92,1.71-1.68,3.22-1.67h0Z"/>
  <path class="cls-3" d="m265.72,688.64h18.5c1.5,0,2.58.76,2.39,1.68l-2.35,11.27c-.2.96-1.62,1.74-3.16,1.74h-18.92c-1.54,0-2.61-.79-2.37-1.75l2.77-11.27c.23-.92,1.64-1.67,3.15-1.67h0Z"/>
  <path class="cls-3" d="m293.31,688.86h18.5c1.5,0,2.61.76,2.46,1.68l-1.88,11.28c-.16.96-1.55,1.74-3.09,1.74h-18.92c-1.54,0-2.64-.79-2.44-1.75l2.29-11.28c.19-.92,1.57-1.68,3.08-1.67h0Z"/>
  <path class="cls-3" d="m320.91,688.74h18.49c1.5,0,2.64.76,2.53,1.68l-1.4,11.27c-.12.96-1.47,1.74-3.01,1.74h-18.91c-1.54,0-2.67-.79-2.52-1.75l1.81-11.27c.15-.92,1.5-1.67,3-1.67h0Z"/>
  <path class="cls-3" d="m376.28,688.76h18.47c1.5,0,2.7.76,2.67,1.68l-.44,11.27c-.04.96-1.32,1.74-2.86,1.74h-18.89c-1.54,0-2.73-.79-2.66-1.74l.85-11.27c.07-.92,1.36-1.67,2.86-1.67h0Z"/>
  <path class="cls-3" d="m403.83,688.64h18.46c1.5,0,2.73.76,2.74,1.68l.04,11.26c0,.96-1.25,1.74-2.79,1.74h-18.88c-1.54,0-2.77-.79-2.73-1.74l.38-11.26c.03-.92,1.28-1.67,2.79-1.67h0Z"/>
  <path class="cls-3" d="m431.24,688.58h18.45c1.5,0,2.76.76,2.8,1.68l.51,11.25c.04.96-1.18,1.74-2.71,1.74h-18.87c-1.54,0-2.8-.79-2.81-1.74l-.1-11.26c0-.92,1.21-1.67,2.72-1.67h0Z"/>
  <path class="cls-3" d="m459.25,688.77h18.45c1.5,0,2.79.76,2.88,1.68l.99,11.26c.08.96-1.1,1.74-2.64,1.74h-18.87c-1.53,0-2.83-.79-2.88-1.74l-.58-11.26c-.05-.92,1.14-1.67,2.64-1.67h0Z"/>
  <path class="cls-3" d="m487.05,688.65h52.5c1.5.01,2.86.77,3.03,1.69l2.06,11.25c.17.95-.93,1.74-2.47,1.74h-53.68c-1.53,0-2.86-.79-2.95-1.75l-1.06-11.25c-.09-.92,1.07-1.67,2.57-1.67h0Z"/>
  <path class="cls-3" d="m161.27,657.55l30.7.02c1.44,0,2.36.68,2.05,1.52l-3.76,10.22c-.32.87-1.78,1.58-3.25,1.58h-31.36c-1.47-.01-2.36-.73-1.99-1.59l4.36-10.22c.36-.84,1.82-1.52,3.26-1.52h0Z"/>
  <path class="cls-3" d="m155.03,672.83h38.41c1.47.01,2.42.73,2.1,1.61l-3.83,10.73c-.33.91-1.82,1.66-3.32,1.66h-39.25c-1.5-.01-2.42-.76-2.03-1.67l4.57-10.74c.37-.88,1.88-1.6,3.35-1.6h0Z"/>
  <path class="cls-3" d="m147.9,688.77h53.27c1.51.01,2.49.77,2.18,1.69l-3.79,11.28c-.32.96-1.85,1.74-3.39,1.74h-54.47c-1.54,0-2.47-.8-2.06-1.75l4.81-11.29c.39-.92,1.95-1.68,3.46-1.68h0Z"/>
  <path class="cls-3" d="m219.74,705.81h31.83c1.75,0,2.95.9,2.67,2l-3.39,13.47c-.29,1.15-1.99,2.09-3.78,2.09h-32.67c-1.79,0-2.97-.94-2.61-2.09l4.16-13.48c.34-1.1,2.05-2,3.79-2h0Z"/>
  <path class="cls-3" d="m183.75,705.94h25.74c1.75,0,2.9.9,2.55,2l-4.24,13.48c-.36,1.15-2.12,2.09-3.92,2.09h-26.42c-1.79,0-2.92-.94-2.5-2.09l4.89-13.48c.4-1.1,2.15-2,3.9-2h0Z"/>
  <path class="cls-3" d="m496.79,716.01h19.21c1.56,0,2.96.82,3.1,1.82l.5,3.53c.14,1.01-1.03,1.84-2.61,1.84h-19.42c-1.58,0-2.96-.83-3.06-1.84l-.37-3.53c-.1-1,1.09-1.82,2.65-1.82h0Z"/>
  <path class="cls-3" d="m495.88,707.65h18.98c1.54,0,2.92.8,3.06,1.77l.49,3.44c.14.99-1.02,1.8-2.58,1.8h-19.17c-1.56,0-2.92-.81-3.02-1.8l-.36-3.44c-.1-.98,1.08-1.77,2.62-1.77h0Z"/>
  <path class="cls-3" d="m466.93,707.65h18.98c1.54,0,2.88.8,2.98,1.77l1.17,11.93c.1,1.01-1.11,1.84-2.69,1.84h-19.42c-1.58,0-2.92-.83-2.98-1.84l-.73-11.93c-.06-.98,1.15-1.77,2.7-1.77h0Z"/>
  <path class="cls-3" d="m437.96,707.65h18.99c1.54,0,2.85.8,2.91,1.77l.66,11.93c.06,1.01-1.19,1.84-2.77,1.84h-19.43c-1.58,0-2.89-.83-2.91-1.84l-.22-11.93c-.02-.98,1.23-1.77,2.78-1.77h0Z"/>
  <path class="cls-3" d="m523.97,707.63h18.97c1.54,0,2.95.8,3.13,1.77l2.19,11.92c.19,1.01-.95,1.84-2.53,1.84h-19.41c-1.58,0-2.99-.83-3.14-1.84l-1.75-11.92c-.14-.98,1-1.77,2.55-1.77h0Z"/>
  <path class="cls-3" d="m140.73,705.73h32.63c1.75,0,2.85.9,2.44,2l-4.97,13.48c-.42,1.15-2.24,2.09-4.03,2.09h-33.49c-1.8,0-2.86-.94-2.37-2.09l5.76-13.48c.47-1.1,2.28-2,4.03-2h0Z"/>
  <path class="cls-3" d="m536.38,628.95h16.74c1.36.01,2.61.63,2.78,1.39l2.08,9.26c.18.78-.82,1.43-2.2,1.43h-17.08c-1.39-.01-2.65-.66-2.79-1.44l-1.74-9.26c-.14-.76.85-1.38,2.22-1.38h0Z"/>
  <path class="cls-3" d="m539.07,642.94h17.13c1.39.01,2.68.66,2.86,1.46l2.18,9.71c.18.82-.83,1.5-2.25,1.5h-17.49c-1.42,0-2.71-.69-2.87-1.51l-1.82-9.71c-.15-.8.87-1.44,2.26-1.44h0Z"/>
  <path class="cls-3" d="m561.51,629.15h16.73c1.36.01,2.64.63,2.84,1.39l2.47,9.26c.21.79-.75,1.43-2.14,1.43h-17.08c-1.39-.01-2.67-.66-2.85-1.44l-2.13-9.27c-.17-.76.8-1.38,2.16-1.38h0Z"/>
  <path class="cls-3" d="m564.88,642.96h17.12c1.39.01,2.71.66,2.92,1.46l2.59,9.71c.22.82-.76,1.5-2.18,1.5h-17.48c-1.42,0-2.74-.68-2.93-1.51l-2.24-9.71c-.18-.8.81-1.44,2.2-1.44h0Z"/>
  <path class="cls-3" d="m586.57,629.09h16.73c1.36.01,2.66.63,2.9,1.39l2.86,9.26c.24.78-.69,1.43-2.08,1.43h-17.07c-1.39-.01-2.7-.66-2.91-1.44l-2.52-9.26c-.21-.76.74-1.38,2.1-1.38h0Z"/>
  <path class="cls-3" d="m590.41,642.97h17.12c1.39.01,2.73.66,2.98,1.46l3,9.7c.25.82-.7,1.5-2.12,1.5h-17.48c-1.42,0-2.77-.68-2.99-1.51l-2.64-9.71c-.22-.8.75-1.44,2.14-1.44h0Z"/>
  <path class="cls-3" d="m611.42,629.59h16.73c1.36.01,2.69.63,2.96,1.39l3.25,9.27c.28.79-.63,1.43-2.02,1.43h-17.07c-1.39-.01-2.73-.66-2.97-1.44l-2.91-9.28c-.24-.76.68-1.38,2.04-1.38h0Z"/>
  <path class="cls-3" d="m541.98,657.61h17.55c1.43,0,2.75.69,2.93,1.53l2.29,10.19c.19.86-.84,1.57-2.3,1.57h-17.92c-1.46,0-2.78-.72-2.95-1.58l-1.91-10.19c-.16-.83.88-1.51,2.31-1.51h0Z"/>
  <path class="cls-3" d="m568.42,657.62h17.54c1.43,0,2.77.69,3,1.52l2.72,10.19c.23.86-.77,1.57-2.23,1.57h-17.91c-1.46,0-2.81-.72-3.01-1.58l-2.35-10.19c-.19-.83.82-1.51,2.24-1.51h0Z"/>
  <path class="cls-3" d="m594.57,657.63h17.53c1.42,0,2.8.69,3.06,1.52l3.15,10.19c.27.86-.7,1.57-2.16,1.57h-17.91c-1.46,0-2.84-.72-3.08-1.58l-2.78-10.19c-.23-.83.75-1.51,2.18-1.51h0Z"/>
  <path class="cls-3" d="m544.94,672.41h17.96c1.46,0,2.82.72,3.01,1.6l2.4,10.69c.2.91-.85,1.65-2.34,1.65h-18.36c-1.49,0-2.85-.75-3.03-1.66l-2.01-10.69c-.16-.88.9-1.59,2.36-1.59h0Z"/>
  <path class="cls-3" d="m548.04,688.57h18.42c1.5,0,2.89.76,3.1,1.68l2.53,11.24c.21.96-.86,1.74-2.39,1.74h-18.83c-1.53,0-2.93-.79-3.11-1.74l-2.11-11.24c-.17-.92.91-1.67,2.41-1.67h0Z"/>
  <path class="cls-3" d="m571.91,672.63h17.96c1.46,0,2.85.72,3.08,1.6l2.86,10.69c.24.91-.78,1.65-2.27,1.65h-18.36c-1.49,0-2.89-.75-3.1-1.66l-2.46-10.69c-.2-.88.83-1.59,2.29-1.59h0Z"/>
  <path class="cls-3" d="m575.8,688.57h18.41c1.5,0,2.92.76,3.17,1.68l3,11.24c.26.96-.79,1.74-2.32,1.74h-18.83c-1.53,0-2.96-.79-3.19-1.74l-2.59-11.24c-.21-.92.84-1.67,2.34-1.67h0Z"/>
  <path class="cls-3" d="m598.81,672.56h17.95c1.46,0,2.88.72,3.15,1.6l3.31,10.69c.28.91-.71,1.65-2.2,1.65h-18.35c-1.49,0-2.92-.75-3.16-1.66l-2.92-10.69c-.24-.87.76-1.59,2.22-1.59h0Z"/>
  <path class="cls-3" d="m603.25,688.58h18.41c1.5,0,2.95.76,3.24,1.68l3.48,11.24c.3.95-.71,1.74-2.24,1.74h-18.82c-1.53,0-3-.79-3.26-1.74l-3.07-11.24c-.25-.92.77-1.67,2.27-1.67h0Z"/>
  <path class="cls-3" d="m607.97,705.44h18.78c1.56,0,3.09.81,3.4,1.79l4.27,13.81c.32,1.03-.73,1.88-2.34,1.88h-19.27c-1.61,0-3.15-.85-3.43-1.88l-3.77-13.81c-.27-.99.79-1.79,2.36-1.79h0Z"/>
  <path class="cls-3" d="m615.81,643.34h17.12c1.39.01,2.76.66,3.04,1.46l3.41,9.71c.29.82-.64,1.5-2.06,1.5h-17.48c-1.42,0-2.8-.69-3.06-1.51l-3.05-9.72c-.25-.8.69-1.44,2.08-1.44h0Z"/>
  <path class="cls-3" d="m620.44,657.9h17.53c1.42,0,2.83.69,3.12,1.53l3.58,10.19c.3.86-.64,1.57-2.09,1.57h-17.91c-1.46,0-2.87-.72-3.14-1.58l-3.2-10.19c-.26-.83.69-1.52,2.12-1.51h0Z"/>
  <path class="cls-3" d="m625.28,672.86h17.95c1.46,0,2.91.72,3.21,1.6l3.75,10.69c.32.91-.64,1.65-2.13,1.65h-18.35c-1.49,0-2.95-.75-3.23-1.66l-3.36-10.7c-.28-.88.69-1.59,2.16-1.59h0Z"/>
  <path class="cls-3" d="m551.51,705.81h46.9c1.7,0,3.33.88,3.61,1.96l3.52,13.16c.3,1.12-.88,2.04-2.63,2.04h-48.1c-1.75,0-3.35-.92-3.56-2.04l-2.47-13.16c-.2-1.07,1.03-1.95,2.73-1.95h0Z"/>
  <path class="cls-3" d="m630.5,689.08h18.31c1.53,0,3.04.77,3.37,1.71l10.81,30.79c.36,1.03-.65,1.88-2.26,1.88h-19.27c-1.61,0-3.19-.85-3.51-1.88l-9.68-30.79c-.29-.94.71-1.7,2.24-1.7h0Z"/>
  <path class="cls-3" d="m202.6,629.26h15.5c2.09.01,3.48.96,3.08,2.13l-1.14,3.36c-.4,1.18-2.46,2.15-4.58,2.15h-15.7c-2.12-.01-3.48-.98-3.04-2.17l1.27-3.36c.44-1.17,2.51-2.12,4.6-2.11h0Z"/>
  <path class="cls-3" d="m230.82,629.28h15.5c2.09.01,3.52.96,3.18,2.13l-.98,3.36c-.35,1.18-2.36,2.15-4.48,2.15h-15.7c-2.12-.01-3.53-.98-3.14-2.17l1.11-3.36c.39-1.17,2.41-2.11,4.5-2.11h0Z"/>
  <path class="cls-3" d="m259.05,629.23h15.49c2.09.01,3.57.96,3.28,2.13l-.82,3.36c-.29,1.18-2.26,2.15-4.37,2.15h-15.69c-2.12-.01-3.57-.98-3.24-2.17l.95-3.36c.33-1.17,2.31-2.11,4.4-2.11h0Z"/>
  <path class="cls-3" d="m287.25,629.25h15.48c2.09.01,3.61.96,3.38,2.13l-.66,3.36c-.23,1.18-2.15,2.15-4.27,2.15h-15.68c-2.12-.01-3.62-.98-3.34-2.17l.79-3.36c.27-1.16,2.21-2.11,4.3-2.11h0Z"/>
  <path class="cls-3" d="m315.44,629.27h15.48c2.09.01,3.65.96,3.48,2.13l-.5,3.36c-.18,1.18-2.05,2.15-4.16,2.15h-15.68c-2.11-.01-3.66-.98-3.44-2.17l.63-3.36c.22-1.16,2.1-2.11,4.19-2.11h0Z"/>
  <path class="cls-3" d="m343.6,629.4h15.47c2.09.01,3.7.96,3.58,2.13l-.34,3.36c-.12,1.18-1.95,2.15-4.06,2.15h-15.67c-2.11-.01-3.71-.98-3.54-2.17l.47-3.36c.16-1.16,2-2.11,4.09-2.11h0Z"/>
  <path class="cls-3" d="m371.77,629.42h15.47c2.09.01,3.74.96,3.68,2.13l-.18,3.36c-.06,1.18-1.84,2.15-3.96,2.15h-15.67c-2.11-.01-3.75-.98-3.64-2.17l.31-3.36c.11-1.16,1.9-2.11,3.99-2.11h0Z"/>
  <path class="cls-3" d="m399.93,629.44h15.46c2.09.01,3.78.96,3.78,2.13l-.02,3.36c0,1.18-1.74,2.15-3.85,2.15h-15.66c-2.11-.01-3.8-.98-3.74-2.17l.15-3.36c.05-1.16,1.8-2.11,3.89-2.11h0Z"/>
  <path class="cls-3" d="m428.08,629.48h15.45c2.08.01,3.83.96,3.88,2.13l.14,3.36c.05,1.18-1.64,2.15-3.75,2.15h-15.65c-2.11-.01-3.84-.98-3.84-2.17v-3.36c-.01-1.16,1.69-2.11,3.78-2.11h0Z"/>
  <path class="cls-3" d="m456.21,629.5h15.45c2.08.01,3.87.96,3.98,2.13l.3,3.36c.1,1.18-1.54,2.15-3.65,2.15h-15.65c-2.11-.01-3.89-.98-3.95-2.17l-.17-3.36c-.06-1.16,1.6-2.11,3.68-2.11h0Z"/>
  <path class="cls-3" d="m484.33,629.52h15.44c2.08.01,3.92.96,4.07,2.13l.46,3.36c.16,1.18-1.43,2.15-3.54,2.15h-15.64c-2.11-.01-3.93-.98-4.05-2.16l-.33-3.36c-.11-1.16,1.5-2.11,3.58-2.11h0Z"/>
  <path class="cls-3" d="m512.44,629.54h15.43c2.08.01,3.96.96,4.17,2.13l.62,3.36c.22,1.18-1.33,2.15-3.44,2.15h-15.63c-2.11-.01-3.97-.98-4.15-2.16l-.49-3.36c-.17-1.16,1.4-2.11,3.48-2.11h0Z"/>
  <path class="cls-3" d="m174.36,629.24h15.51c2.09.01,3.43.96,2.98,2.13l-1.3,3.36c-.46,1.18-2.57,2.15-4.69,2.15h-15.71c-2.12-.01-3.44-.98-2.93-2.17l1.43-3.36c.5-1.17,2.61-2.12,4.71-2.11h0Z"/>
  <path class="cls-3" d="m279.75,657.72h17.62c1.43,0,2.47.69,2.3,1.53l-2.02,10.22c-.17.87-1.51,1.58-2.97,1.58h-18c-1.46,0-2.49-.72-2.29-1.59l2.4-10.22c.2-.84,1.53-1.52,2.96-1.52h0Z"/>
  <path class="cls-3" d="m202.12,672.58h18.06c1.47,0,2.45.72,2.17,1.6l-3.38,10.72c-.29.91-1.75,1.66-3.25,1.66h-18.46c-1.5,0-2.47-.75-2.15-1.66l3.77-10.72c.31-.88,1.76-1.59,3.23-1.59h0Z"/>
  <path class="cls-3" d="m262.32,705.91l163.81.02c1.74,0,3.18.9,3.19,1.99l.13,13.46c.01,1.15-1.44,2.09-3.23,2.09h-168.12c-1.79,0-3.03-.94-2.75-2.09l3.3-13.48c.27-1.1,1.92-1.99,3.66-1.99h0Z"/>
  <path class="cls-3" d="m253.48,657.51h17.62c1.43,0,2.44.69,2.24,1.53l-2.46,10.21c-.21.87-1.58,1.58-3.04,1.58h-18c-1.46,0-2.46-.72-2.22-1.59l2.83-10.21c.23-.84,1.59-1.52,3.03-1.52h0Z"/>
  <path class="cls-3" d="m306.05,657.61h17.61c1.43,0,2.5.69,2.37,1.53l-1.59,10.21c-.13.87-1.44,1.58-2.91,1.58h-17.99c-1.46,0-2.52-.72-2.36-1.58l1.97-10.21c.16-.84,1.46-1.52,2.9-1.52h0Z"/>
  <path class="cls-3" d="m229.09,672.46h18.05c1.47,0,2.47.72,2.23,1.6l-2.92,10.72c-.25.91-1.68,1.65-3.18,1.65h-18.45c-1.5,0-2.5-.75-2.22-1.66l3.32-10.72c.27-.88,1.69-1.59,3.16-1.59h0Z"/>
  <path class="cls-3" d="m227.28,657.55h17.63c1.43,0,2.41.69,2.18,1.53l-2.89,10.21c-.25.87-1.64,1.58-3.11,1.58h-18.01c-1.46,0-2.44-.72-2.16-1.59l3.27-10.22c.27-.84,1.66-1.52,3.09-1.52h0Z"/>
  <path class="cls-3" d="m471.09,672.46h17.98c1.46,0,2.74.72,2.83,1.6l1.16,10.69c.1.91-1.04,1.65-2.54,1.65h-18.38c-1.5,0-2.77-.75-2.84-1.66l-.77-10.7c-.06-.88,1.08-1.59,2.55-1.59h0Z"/>
  <path class="cls-3" d="m348.38,688.68h18.48c1.5,0,2.67.76,2.6,1.68l-.92,11.26c-.08.96-1.4,1.74-2.94,1.74h-18.9c-1.54,0-2.7-.79-2.59-1.74l1.34-11.27c.11-.92,1.43-1.67,2.93-1.67h0Z"/>
  <path class="cls-3" d="m411.14,657.49h17.58c1.43,0,2.61.69,2.62,1.53l.14,10.2c.01.86-1.17,1.57-2.63,1.57h-17.96c-1.46,0-2.64-.72-2.62-1.58l.24-10.2c.02-.84,1.2-1.52,2.63-1.52h0Z"/>
  <path class="cls-3" d="m363.74,672.54h18.02c1.47,0,2.62.72,2.57,1.6l-.65,10.71c-.06.91-1.33,1.65-2.82,1.65h-18.41c-1.5,0-2.65-.75-2.56-1.66l1.04-10.71c.09-.88,1.35-1.59,2.82-1.59h0Z"/>
  <path class="cls-3" d="m385.03,657.54h17.59c1.43,0,2.58.69,2.56,1.53l-.29,10.2c-.02.87-1.24,1.57-2.7,1.57h-17.96c-1.46,0-2.61-.72-2.55-1.58l.67-10.2c.05-.84,1.27-1.52,2.7-1.52h0Z"/>
  <path class="cls-3" d="m336.53,672.45h18.02c1.47,0,2.59.72,2.5,1.6l-1.11,10.71c-.09.91-1.4,1.65-2.89,1.65h-18.42c-1.5,0-2.62-.75-2.49-1.66l1.5-10.71c.12-.88,1.42-1.59,2.89-1.59h0Z"/>
  <rect class="cls-27" x="148.93" y="288.5" width="505.8" height="315.74"/>
  <path class="cls-4" d="m654.11,289.12v314.5H149.55v-314.5h504.56m1.24-1.24H148.31v316.98h507.04v-316.98h0Z"/>
  <path class="cls-27" d="m403.84,280.9c0,1.11-.9,2.01-2.01,2.01s-2.01-.9-2.01-2.01.9-2.01,2.01-2.01,2.01.9,2.01,2.01Z"/>
  <line class="cls-47" x1="400.88" y1="774.12" x2="400.88" y2="798.08"/>
  <rect class="cls-7" x="149.52" y="288.59" width="504.62" height="315.09"/>
  <rect class="cls-18" x="149.52" y="590.32" width="504.62" height="13.37"/>
  <rect class="cls-44" x="165.85" y="590.32" width="97.14" height="13.37"/>
  <path class="cls-27" d="m504.92,598.81h-2.28c0-.28.07-.52.2-.72.13-.21.31-.39.53-.54.11-.08.22-.16.34-.23.12-.08.23-.16.32-.24.1-.08.18-.18.24-.28.06-.1.1-.21.1-.34,0-.06,0-.12-.02-.19-.01-.07-.04-.13-.08-.19-.04-.06-.1-.11-.17-.15-.07-.04-.17-.06-.29-.06-.11,0-.2.02-.27.06s-.13.1-.17.18c-.04.08-.07.16-.1.26-.02.1-.03.21-.04.33h-.54c0-.18.02-.35.07-.51s.12-.29.22-.41c.1-.11.22-.2.36-.27.14-.07.31-.1.49-.1.2,0,.37.03.51.1.14.07.25.15.33.25s.14.21.18.33c.03.12.05.23.05.34,0,.13-.02.25-.06.36-.04.11-.1.21-.17.3-.07.09-.15.17-.24.25s-.18.15-.28.21c-.1.07-.19.13-.29.19s-.18.12-.26.18c-.08.06-.15.12-.21.19-.06.06-.1.13-.12.21h1.62v.49Z"/>
  <path class="cls-27" d="m506.2,596.86c.09,0,.18,0,.27-.02.09-.02.17-.04.24-.08.07-.04.13-.09.17-.16.04-.07.06-.16.06-.26,0-.14-.05-.26-.15-.34-.1-.09-.22-.13-.37-.13-.1,0-.18.02-.25.06s-.13.09-.17.15c-.05.07-.08.14-.1.22-.02.08-.03.17-.03.25h-.54c0-.16.04-.31.09-.45.05-.14.13-.26.22-.36.09-.1.21-.18.34-.24.13-.06.28-.09.45-.09.13,0,.26.02.38.06s.24.09.34.17c.1.07.18.17.24.28.06.11.09.24.09.39,0,.17-.04.31-.11.44-.08.12-.2.22-.36.27h0c.19.05.34.14.45.29.11.15.16.33.16.55,0,.16-.03.3-.1.43-.06.13-.15.23-.26.32s-.23.15-.38.2c-.14.05-.29.07-.45.07-.19,0-.36-.03-.51-.08-.14-.06-.27-.13-.36-.24-.1-.1-.17-.22-.22-.37s-.08-.3-.08-.48h.54c0,.2.04.37.15.51s.27.2.48.2c.18,0,.33-.05.45-.15.12-.1.18-.25.18-.44,0-.13-.03-.23-.08-.31s-.12-.13-.2-.17c-.08-.04-.18-.06-.28-.07-.1,0-.21-.01-.32,0v-.4Z"/>
  <path class="cls-27" d="m508,596.13c0-.1.02-.19.06-.28s.09-.16.15-.23c.06-.06.14-.11.23-.15.09-.04.18-.06.28-.06s.19.02.28.06c.09.04.16.09.23.15s.11.14.15.23.06.18.06.28-.02.19-.06.28c-.04.09-.09.16-.15.23s-.14.11-.23.15c-.09.04-.18.06-.28.06s-.19-.02-.28-.06c-.09-.04-.16-.09-.23-.15-.06-.06-.11-.14-.15-.23-.04-.09-.06-.18-.06-.28Zm.27,0c0,.06.01.12.04.18.02.05.06.1.1.14.04.04.09.07.14.1.05.02.11.04.18.04s.12-.01.17-.04.1-.06.14-.1c.04-.04.07-.09.1-.14.02-.05.04-.11.04-.18,0-.06-.01-.12-.04-.17-.02-.06-.06-.1-.1-.14-.04-.04-.09-.07-.14-.09-.06-.02-.11-.04-.17-.04s-.12.01-.18.04c-.05.02-.1.05-.14.09-.04.04-.07.09-.1.14-.02.06-.04.11-.04.17Z"/>
  <path class="cls-27" d="m512.32,596.5c-.03-.1-.06-.19-.1-.27-.04-.08-.1-.15-.17-.21-.07-.06-.15-.11-.25-.14-.09-.03-.2-.05-.33-.05-.18,0-.34.04-.47.11-.13.07-.24.17-.32.29s-.14.26-.18.42-.06.31-.06.48.02.32.06.48.1.29.18.42.19.22.32.29c.13.07.29.11.47.11.13,0,.25-.02.35-.07s.19-.11.26-.19c.07-.08.13-.18.17-.28.04-.11.07-.22.08-.35h.58c-.01.2-.06.39-.13.56-.07.17-.18.31-.3.44-.13.12-.28.22-.45.28-.17.07-.36.1-.57.1-.25,0-.48-.05-.68-.14s-.37-.22-.51-.38c-.14-.16-.25-.35-.32-.57-.07-.22-.11-.45-.11-.69s.04-.47.11-.69c.07-.22.18-.4.32-.57s.31-.29.51-.39c.2-.09.43-.14.68-.14.19,0,.37.03.54.08.17.05.32.13.45.23.13.1.23.22.31.36.08.14.13.31.15.49h-.6Z"/>
  <path class="cls-27" d="m517.82,597.68c0,.13.02.24.07.33s.11.17.19.23c.08.06.17.1.27.13.1.03.21.04.34.04.13,0,.24-.02.33-.05.09-.03.17-.07.22-.12s.1-.1.12-.16c.03-.06.04-.12.04-.19,0-.13-.03-.23-.09-.29-.06-.06-.12-.11-.19-.13-.12-.04-.26-.09-.42-.13-.16-.04-.36-.09-.59-.16-.15-.04-.27-.09-.36-.15-.1-.06-.17-.13-.23-.21s-.1-.16-.12-.24-.04-.17-.04-.26c0-.17.04-.32.11-.45.07-.12.17-.23.28-.31.12-.08.25-.14.4-.18.15-.04.3-.06.45-.06.18,0,.35.02.5.07s.29.12.41.21.21.21.28.34c.07.14.1.29.1.47h-.6c-.02-.22-.09-.37-.22-.46-.13-.09-.3-.14-.51-.14-.07,0-.14,0-.21.02-.07.01-.14.04-.2.07-.06.03-.11.08-.15.14-.04.06-.06.13-.06.21,0,.12.04.21.11.28s.17.12.29.15c.01,0,.06.02.15.04.09.02.19.05.29.08s.21.06.32.08c.1.03.18.05.22.06.11.04.21.08.29.14.08.06.15.13.21.21.06.08.1.16.12.25s.04.18.04.27c0,.19-.04.35-.12.49-.08.13-.18.25-.31.33-.13.09-.27.15-.43.19-.16.04-.33.06-.5.06-.19,0-.38-.02-.55-.07s-.32-.12-.45-.22c-.13-.1-.23-.22-.3-.38s-.12-.34-.12-.54h.6Z"/>
  <path class="cls-27" d="m522.6,598.81h-.53v-.34h0c-.07.12-.17.22-.3.3-.13.07-.27.11-.4.11-.32,0-.56-.08-.7-.24-.14-.16-.22-.4-.22-.73v-1.56h.54v1.51c0,.22.04.37.12.46s.2.13.35.13c.11,0,.21-.02.29-.05s.14-.08.19-.14c.05-.06.08-.13.1-.21.02-.08.03-.17.03-.27v-1.43h.54v2.46Z"/>
  <path class="cls-27" d="m523.17,596.35h.51v.36h0c.08-.13.19-.23.32-.31.13-.08.28-.12.44-.12.27,0,.48.07.64.21.16.14.23.35.23.63v1.69h-.54v-1.55c0-.19-.05-.33-.12-.42s-.2-.13-.36-.13c-.09,0-.17.02-.25.05-.07.03-.13.08-.19.14-.05.06-.09.13-.12.21-.03.08-.04.16-.04.25v1.45h-.54v-2.46Z"/>
  <path class="cls-27" d="m525.91,596.35h.51v.36h0c.08-.13.19-.23.32-.31.13-.08.28-.12.44-.12.27,0,.48.07.64.21.16.14.23.35.23.63v1.69h-.54v-1.55c0-.19-.05-.33-.12-.42s-.2-.13-.36-.13c-.09,0-.17.02-.25.05-.07.03-.13.08-.19.14-.05.06-.09.13-.12.21-.03.08-.04.16-.04.25v1.45h-.54v-2.46Z"/>
  <path class="cls-27" d="m528.37,596.35h.6l.64,1.84h0l.62-1.84h.57l-.96,2.6c-.04.11-.09.22-.13.32-.04.1-.1.19-.16.27-.06.08-.14.14-.23.19-.09.05-.21.07-.35.07-.13,0-.25,0-.38-.03v-.46s.09.01.13.02c.04,0,.08.01.13.01.06,0,.12,0,.16-.02.04-.02.08-.04.1-.07s.05-.07.07-.11c.02-.04.04-.09.05-.14l.06-.19-.93-2.45Z"/>
  <path class="cls-27" d="m601.62,595.81h1.97v.41h-1.49v.72h1.38v.39h-1.38v.8h1.52v.42h-2v-2.74Z"/>
  <path class="cls-27" d="m604.02,595.81h.51l1.25,2.02h0v-2.02h.46v2.74h-.51l-1.25-2.02h-.01v2.02h-.46v-2.74Z"/>
  <path class="cls-27" d="m609.21,598.55h-.31l-.07-.32c-.13.15-.26.25-.38.3-.13.06-.28.08-.44.08-.21,0-.39-.04-.55-.11-.16-.08-.3-.18-.41-.31-.11-.13-.2-.28-.26-.46-.06-.17-.09-.36-.09-.56s.03-.38.09-.55c.06-.17.15-.33.26-.46s.25-.23.41-.31c.16-.08.35-.12.55-.12.15,0,.29.02.42.06.13.04.25.1.36.18.1.08.19.18.26.29.07.12.11.25.13.41h-.47c-.01-.09-.04-.17-.08-.24-.04-.07-.1-.12-.16-.17-.06-.05-.14-.08-.22-.1-.08-.02-.16-.03-.25-.03-.15,0-.27.03-.38.09-.11.06-.19.14-.26.24s-.12.21-.15.34c-.03.13-.05.25-.05.38s.02.26.05.38c.03.13.08.24.15.34.07.1.15.18.26.24.11.06.23.09.38.09.12,0,.23-.01.33-.05.09-.04.17-.08.24-.15s.11-.14.15-.24.05-.2.05-.32h-.73v-.36h1.17v1.44Z"/>
  <path class="cls-27" d="m615.86,593.36c.09,0,.18,0,.27-.02.09-.02.17-.04.24-.08.07-.04.13-.08.18-.14s.08-.12.1-.21h.36v2.69h-.48v-1.9h-.66v-.35Z"/>
  <path class="cls-27" d="m618.86,592.86c.19,0,.35.04.47.13.12.09.22.2.28.34.07.14.11.29.14.45.02.16.04.32.04.48s-.01.31-.04.48c-.02.16-.07.31-.14.45-.07.14-.16.25-.28.34-.12.09-.28.13-.47.13s-.35-.04-.47-.13c-.12-.09-.22-.2-.28-.34-.07-.14-.11-.29-.14-.45-.02-.16-.04-.32-.04-.48s.01-.31.04-.48c.02-.16.07-.31.14-.45.07-.14.16-.25.28-.34.12-.09.28-.13.47-.13Zm0,2.43c.09,0,.17-.03.24-.08.06-.05.11-.13.15-.22s.06-.2.08-.33c.02-.13.02-.26.02-.4s0-.27-.02-.4-.04-.23-.08-.33-.09-.17-.15-.22c-.06-.06-.14-.08-.24-.08s-.18.03-.24.08c-.06.05-.11.13-.15.22s-.06.2-.08.33c-.01.12-.02.26-.02.4s0,.27.02.4c.02.12.04.23.08.33s.09.17.15.22c.06.05.14.08.24.08Z"/>
  <path class="cls-27" d="m620.19,593.66h.53v.52h-.53v-.52Zm0,1.42h.53v.52h-.53v-.52Z"/>
  <path class="cls-27" d="m623,594.97h-.34v.64h-.42v-.64h-1.15v-.43l1.15-1.62h.42v1.7h.34v.35Zm-1.57-.35h.81v-1.18h0l-.81,1.18Z"/>
  <path class="cls-27" d="m623.27,592.92h1.84v.36c-.14.16-.27.32-.38.49-.12.17-.22.35-.3.54s-.16.39-.21.6c-.05.21-.09.44-.11.68h-.48c.02-.21.05-.42.11-.63s.13-.41.22-.6.2-.38.32-.56c.12-.18.25-.35.39-.5h-1.39v-.39Z"/>
  <path class="cls-27" d="m627.36,592.86h.51l1.06,2.74h-.51l-.26-.73h-1.09l-.26.73h-.5l1.05-2.74Zm-.17,1.65h.84l-.41-1.18h-.01l-.41,1.18Z"/>
  <path class="cls-27" d="m629.18,592.86h.68l.76,2.15h0l.74-2.15h.67v2.74h-.46v-2.12h0l-.76,2.12h-.4l-.76-2.12h0v2.12h-.46v-2.74Z"/>
  <path class="cls-27" d="m613.95,599.47c.09,0,.18,0,.27-.02.09-.02.17-.04.24-.08.07-.04.13-.08.18-.14s.08-.12.1-.21h.36v2.69h-.48v-1.9h-.66v-.35Z"/>
  <path class="cls-27" d="m616.95,598.98c.19,0,.35.04.47.13.12.09.22.2.28.34.07.14.11.29.14.45.02.16.04.32.04.48s-.01.31-.04.48c-.02.16-.07.31-.14.45-.07.14-.16.25-.28.34-.12.09-.28.13-.47.13s-.35-.04-.47-.13c-.12-.09-.22-.2-.28-.34-.07-.14-.11-.29-.14-.45-.02-.16-.04-.32-.04-.48s.01-.31.04-.48c.02-.16.07-.31.14-.45.07-.14.16-.25.28-.34.12-.09.28-.13.47-.13Zm0,2.43c.09,0,.17-.03.24-.08.06-.05.11-.13.15-.22s.06-.2.08-.33c.02-.13.02-.26.02-.4s0-.27-.02-.4-.04-.23-.08-.33-.09-.17-.15-.22c-.06-.06-.14-.08-.24-.08s-.18.03-.24.08c-.06.05-.11.13-.15.22s-.06.2-.08.33c-.01.12-.02.26-.02.4s0,.27.02.4c.02.12.04.23.08.33s.09.17.15.22c.06.05.14.08.24.08Z"/>
  <path class="cls-27" d="m619.03,598.91h.42l-1.1,2.87h-.42l1.1-2.87Z"/>
  <path class="cls-27" d="m619.57,599.47c.09,0,.18,0,.27-.02.09-.02.17-.04.24-.08.07-.04.13-.08.18-.14s.08-.12.1-.21h.36v2.69h-.48v-1.9h-.66v-.35Z"/>
  <path class="cls-27" d="m622.57,598.98c.19,0,.35.04.47.13.12.09.22.2.28.34.07.14.11.29.14.45.02.16.04.32.04.48s-.01.31-.04.48c-.02.16-.07.31-.14.45-.07.14-.16.25-.28.34-.12.09-.28.13-.47.13s-.35-.04-.47-.13c-.12-.09-.22-.2-.28-.34-.07-.14-.11-.29-.14-.45-.02-.16-.04-.32-.04-.48s.01-.31.04-.48c.02-.16.07-.31.14-.45.07-.14.16-.25.28-.34.12-.09.28-.13.47-.13Zm0,2.43c.09,0,.17-.03.24-.08.06-.05.11-.13.15-.22s.06-.2.08-.33c.02-.13.02-.26.02-.4s0-.27-.02-.4-.04-.23-.08-.33-.09-.17-.15-.22c-.06-.06-.14-.08-.24-.08s-.18.03-.24.08c-.06.05-.11.13-.15.22s-.06.2-.08.33c-.01.12-.02.26-.02.4s0,.27.02.4c.02.12.04.23.08.33s.09.17.15.22c.06.05.14.08.24.08Z"/>
  <path class="cls-27" d="m624.65,598.91h.42l-1.1,2.87h-.42l1.1-2.87Z"/>
  <path class="cls-27" d="m626.97,601.72h-1.84c0-.22.06-.42.16-.58.11-.17.25-.31.43-.43.09-.06.18-.13.27-.19.09-.06.18-.12.26-.19.08-.07.14-.14.2-.22.05-.08.08-.17.08-.28,0-.05,0-.1-.02-.16-.01-.05-.03-.11-.07-.15-.03-.05-.08-.09-.14-.12-.06-.03-.14-.05-.23-.05-.09,0-.16.02-.22.05-.06.04-.1.08-.14.14-.04.06-.06.13-.08.21s-.03.17-.03.26h-.44c0-.15.02-.29.06-.41.04-.13.1-.24.18-.33.08-.09.18-.16.29-.22s.25-.08.4-.08c.16,0,.3.03.41.08.11.05.2.12.27.2.07.08.12.17.14.27.03.1.04.19.04.27,0,.11-.02.21-.05.29s-.08.17-.13.24c-.06.07-.12.14-.19.2-.07.06-.15.12-.22.17-.08.05-.15.1-.23.15-.08.05-.15.1-.21.15-.07.05-.12.1-.17.15s-.08.11-.1.17h1.31v.39Z"/>
  <path class="cls-27" d="m628.19,598.98c.19,0,.35.04.47.13.12.09.22.2.28.34.07.14.11.29.14.45.02.16.04.32.04.48s-.01.31-.04.48c-.02.16-.07.31-.14.45-.07.14-.16.25-.28.34-.12.09-.28.13-.47.13s-.35-.04-.47-.13c-.12-.09-.22-.2-.28-.34-.07-.14-.11-.29-.14-.45-.02-.16-.04-.32-.04-.48s.01-.31.04-.48c.02-.16.07-.31.14-.45.07-.14.16-.25.28-.34.12-.09.28-.13.47-.13Zm0,2.43c.09,0,.17-.03.24-.08.06-.05.11-.13.15-.22s.06-.2.08-.33c.02-.13.02-.26.02-.4s0-.27-.02-.4-.04-.23-.08-.33-.09-.17-.15-.22c-.06-.06-.14-.08-.24-.08s-.18.03-.24.08c-.06.05-.11.13-.15.22s-.06.2-.08.33c-.01.12-.02.26-.02.4s0,.27.02.4c.02.12.04.23.08.33s.09.17.15.22c.06.05.14.08.24.08Z"/>
  <path class="cls-27" d="m631.24,601.72h-1.84c0-.22.06-.42.16-.58.11-.17.25-.31.43-.43.09-.06.18-.13.27-.19.09-.06.18-.12.26-.19.08-.07.14-.14.2-.22.05-.08.08-.17.08-.28,0-.05,0-.1-.02-.16-.01-.05-.03-.11-.07-.15-.03-.05-.08-.09-.14-.12-.06-.03-.14-.05-.23-.05-.09,0-.16.02-.22.05-.06.04-.1.08-.14.14-.04.06-.06.13-.08.21s-.03.17-.03.26h-.44c0-.15.02-.29.06-.41.04-.13.1-.24.18-.33.08-.09.18-.16.29-.22s.25-.08.4-.08c.16,0,.3.03.41.08.11.05.2.12.27.2.07.08.12.17.14.27.03.1.04.19.04.27,0,.11-.02.21-.05.29s-.08.17-.13.24c-.06.07-.12.14-.19.2-.07.06-.15.12-.22.17-.08.05-.15.1-.23.15-.08.05-.15.1-.21.15-.07.05-.12.1-.17.15s-.08.11-.1.17h1.31v.39Z"/>
  <path class="cls-27" d="m632.27,600.14c.07,0,.14,0,.22-.02.07-.01.14-.04.19-.07.06-.03.1-.08.14-.13.03-.06.05-.13.05-.21,0-.12-.04-.21-.12-.28-.08-.07-.18-.1-.3-.1-.08,0-.14.02-.2.05-.06.03-.1.07-.14.12s-.06.11-.08.18c-.02.07-.03.13-.02.2h-.44c0-.13.03-.25.07-.36.04-.11.1-.21.18-.29.08-.08.17-.15.27-.19.11-.05.23-.07.36-.07.11,0,.21.01.31.05.1.03.19.08.27.13.08.06.15.13.19.22.05.09.07.2.07.31,0,.14-.03.25-.09.36-.06.1-.16.17-.29.22h0c.15.04.27.11.36.24.08.12.13.27.13.44,0,.13-.03.24-.08.34-.05.1-.12.19-.21.26s-.19.12-.3.16-.24.06-.37.06c-.16,0-.29-.02-.41-.07-.12-.04-.21-.11-.29-.19-.08-.08-.14-.18-.18-.3s-.06-.24-.07-.38h.44c0,.16.04.3.12.41.09.11.21.16.39.16.15,0,.27-.04.37-.12s.15-.2.15-.36c0-.1-.02-.19-.06-.25-.04-.06-.09-.11-.16-.14s-.14-.05-.22-.06-.17,0-.26,0v-.33Z"/>
  <circle class="cls-30" cx="496.32" cy="595.95" r="2.3"/>
  <path class="cls-27" d="m499.05,598.62c0,1.14-.93,2.06-2.07,2.06h-5.69c-.86,0-1.56-.7-1.56-1.56s.7-1.56,1.56-1.56c.11,0,.2,0,.3.04.13-1.42,1.33-2.53,2.78-2.53,1.08,0,2.01.6,2.47,1.49.04,0,.09,0,.13,0,1.14,0,2.07.93,2.07,2.07Z"/>
  <path class="cls-4" d="m180.55,595.97h-1.18v-.42h2.83v.42h-1.18v3.33h-.47v-3.33Z"/>
  <path class="cls-4" d="m182.13,600.2s-.08,0-.11-.01v-.37s.04,0,.07.01c.02,0,.05,0,.08,0,.14,0,.26-.03.34-.08.09-.05.16-.15.21-.3l.05-.15-1-2.7h.48l.78,2.35-.1-.1h.14l-.1.1.78-2.35h.48l-1.05,2.87c-.06.17-.14.31-.22.42-.08.11-.18.19-.29.24-.11.05-.25.08-.41.08-.04,0-.09,0-.13,0Z"/>
  <path class="cls-4" d="m184.59,596.6h.45v.46h.01c.06-.11.13-.2.21-.27s.18-.13.29-.17c.11-.04.23-.06.36-.06.23,0,.43.06.6.17s.31.28.4.49c.1.21.14.46.14.74h0c0,.29-.05.53-.14.74-.1.21-.23.37-.4.49s-.37.17-.6.17c-.13,0-.25-.02-.36-.06-.11-.04-.21-.1-.29-.17-.09-.08-.16-.16-.21-.27h-.01v1.36h-.45v-3.61Zm1.64,2.23c.12-.08.21-.2.27-.35.06-.15.09-.33.09-.53h0c0-.21-.03-.39-.09-.54-.06-.15-.15-.27-.27-.35-.12-.08-.25-.12-.41-.12s-.29.04-.4.12c-.12.08-.21.2-.28.35-.07.15-.1.33-.1.53h0c0,.2.03.38.1.53.07.15.16.27.28.35.12.08.25.12.4.12s.3-.04.41-.12Z"/>
  <path class="cls-4" d="m187.96,599.18c-.19-.11-.33-.28-.43-.48-.1-.21-.15-.45-.15-.74h0c0-.28.05-.53.15-.74.1-.21.24-.38.42-.5.18-.12.4-.18.64-.18s.46.06.64.17c.18.11.31.27.41.48s.14.44.14.71v.17h-2.18v-.35h1.95l-.23.33v-.17c0-.21-.03-.38-.09-.52-.06-.14-.15-.24-.26-.3-.11-.07-.24-.1-.38-.1s-.27.04-.39.11-.2.17-.27.31-.1.31-.1.51v.17c0,.19.03.35.1.49.06.14.16.24.28.31.12.07.26.11.42.11.11,0,.22-.02.31-.05.09-.03.17-.08.23-.14.06-.06.1-.13.13-.21v-.02h.45v.03c-.03.11-.07.21-.13.31-.06.1-.14.18-.24.26-.1.07-.21.13-.34.17-.13.04-.26.06-.41.06-.26,0-.48-.06-.67-.17Z"/>
  <path class="cls-4" d="m191.35,595.55h.45v1.48h.01c.07-.15.18-.27.32-.36.14-.08.32-.13.52-.13s.36.05.51.14.26.22.34.39.12.36.12.57v1.65h-.45v-1.58c0-.24-.06-.43-.18-.57-.12-.14-.28-.21-.49-.21-.14,0-.26.03-.36.1-.1.07-.19.16-.24.27-.06.12-.09.25-.09.41v1.58h-.45v-3.75Z"/>
  <path class="cls-4" d="m194.64,599.18c-.19-.11-.33-.28-.43-.48-.1-.21-.15-.45-.15-.74h0c0-.28.05-.53.15-.74.1-.21.24-.38.42-.5.18-.12.4-.18.64-.18s.46.06.64.17c.18.11.31.27.41.48s.14.44.14.71v.17h-2.18v-.35h1.95l-.23.33v-.17c0-.21-.03-.38-.09-.52-.06-.14-.15-.24-.26-.3-.11-.07-.24-.1-.38-.1s-.27.04-.39.11-.2.17-.27.31-.1.31-.1.51v.17c0,.19.03.35.1.49.06.14.16.24.28.31.12.07.26.11.42.11.11,0,.22-.02.31-.05.09-.03.17-.08.23-.14.06-.06.1-.13.13-.21v-.02h.45v.03c-.03.11-.07.21-.13.31-.06.1-.14.18-.24.26-.1.07-.21.13-.34.17-.13.04-.26.06-.41.06-.26,0-.48-.06-.67-.17Z"/>
  <path class="cls-4" d="m196.92,596.6h.45v.46h.01c.04-.16.12-.28.23-.37s.24-.14.39-.14c.04,0,.08,0,.11,0,.03,0,.06,0,.07.01v.44s-.05-.01-.09-.02c-.04,0-.09,0-.15,0-.12,0-.22.03-.31.08s-.16.13-.2.22c-.05.1-.07.21-.07.35v1.67h-.45v-2.7Z"/>
  <path class="cls-4" d="m198.87,599.18c-.19-.11-.33-.28-.43-.48-.1-.21-.15-.45-.15-.74h0c0-.28.05-.53.15-.74.1-.21.24-.38.42-.5.18-.12.4-.18.64-.18s.46.06.64.17c.18.11.31.27.41.48s.14.44.14.71v.17h-2.18v-.35h1.95l-.23.33v-.17c0-.21-.03-.38-.09-.52-.06-.14-.15-.24-.26-.3-.11-.07-.24-.1-.38-.1s-.27.04-.39.11-.2.17-.27.31-.1.31-.1.51v.17c0,.19.03.35.1.49.06.14.16.24.28.31.12.07.26.11.42.11.11,0,.22-.02.31-.05.09-.03.17-.08.23-.14.06-.06.1-.13.13-.21v-.02h.45v.03c-.03.11-.07.21-.13.31-.06.1-.14.18-.24.26-.1.07-.21.13-.34.17-.13.04-.26.06-.41.06-.26,0-.48-.06-.67-.17Z"/>
  <path class="cls-4" d="m202.57,599.18c-.12-.12-.18-.31-.18-.56v-1.64h-.4v-.37h.4v-.73h.47v.73h.51v.37h-.51v1.64c0,.14.03.24.09.29.06.05.15.08.28.08.03,0,.05,0,.08,0,.02,0,.05,0,.07,0v.37s-.06,0-.11.01c-.04,0-.09,0-.13,0-.25,0-.43-.06-.56-.18Z"/>
  <path class="cls-4" d="m204.23,599.18c-.19-.11-.33-.28-.44-.49-.1-.21-.16-.46-.16-.74h0c0-.29.05-.54.16-.75.1-.21.25-.37.44-.48.19-.11.41-.17.65-.17s.47.06.66.17c.19.11.33.27.44.48.1.21.16.46.16.74h0c0,.29-.05.54-.16.75s-.25.37-.44.49-.41.17-.65.17-.47-.06-.66-.17Zm1.07-.35c.12-.08.21-.19.27-.34.06-.15.1-.33.1-.54h0c0-.22-.03-.4-.1-.55-.06-.15-.16-.26-.28-.34s-.26-.12-.42-.12-.29.04-.41.12c-.12.08-.21.19-.28.34-.07.15-.1.33-.1.54h0c0,.22.03.4.1.55.07.15.16.26.28.34.12.08.26.12.42.12s.3-.04.41-.12Z"/>
  <path class="cls-4" d="m208.09,599.25c-.15-.07-.28-.16-.37-.28-.09-.12-.14-.26-.16-.42v-.02s.45,0,.45,0v.03c.03.13.1.24.2.32.1.08.24.11.43.11.12,0,.23-.02.31-.05.09-.03.15-.08.2-.14.05-.06.07-.13.07-.21h0c0-.1-.03-.18-.09-.24-.06-.06-.17-.11-.32-.15l-.43-.1c-.25-.06-.44-.15-.57-.27-.12-.12-.19-.28-.19-.47h0c0-.16.04-.3.13-.42.08-.12.2-.21.35-.28.15-.07.32-.1.52-.1s.37.04.52.1c.15.07.26.17.35.29s.13.26.14.41v.03s-.43,0-.43,0v-.02c-.02-.13-.08-.24-.18-.32-.1-.08-.23-.12-.4-.12-.11,0-.2.02-.28.05-.08.03-.14.08-.18.14-.04.06-.06.13-.06.21h0c0,.09.03.17.1.24.07.06.17.11.32.15l.43.1c.27.07.47.16.58.27.11.12.17.27.17.46h0c0,.16-.05.3-.14.42s-.22.22-.37.28c-.16.07-.34.1-.54.1-.21,0-.39-.03-.55-.1Z"/>
  <path class="cls-4" d="m210.6,599.18c-.19-.11-.33-.28-.43-.48-.1-.21-.15-.45-.15-.74h0c0-.28.05-.53.15-.74.1-.21.24-.38.42-.5.18-.12.4-.18.64-.18s.46.06.64.17c.18.11.31.27.41.48s.14.44.14.71v.17h-2.18v-.35h1.95l-.23.33v-.17c0-.21-.03-.38-.09-.52-.06-.14-.15-.24-.26-.3-.11-.07-.24-.1-.38-.1s-.27.04-.39.11-.2.17-.27.31-.1.31-.1.51v.17c0,.19.03.35.1.49.06.14.16.24.28.31.12.07.26.11.42.11.11,0,.22-.02.31-.05.09-.03.17-.08.23-.14.06-.06.1-.13.13-.21v-.02h.45v.03c-.03.11-.07.21-.13.31-.06.1-.14.18-.24.26-.1.07-.21.13-.34.17-.13.04-.26.06-.41.06-.26,0-.48-.06-.67-.17Z"/>
  <path class="cls-4" d="m213.2,599.25c-.13-.07-.24-.16-.32-.29s-.11-.27-.11-.43h0c0-.24.09-.42.26-.56s.41-.22.72-.23l1-.06v.35l-.95.06c-.18,0-.32.05-.42.13s-.15.18-.15.3h0c0,.13.05.24.15.31s.23.11.39.11c.14,0,.27-.03.38-.09s.2-.14.27-.25c.07-.1.1-.22.1-.35v-.8c0-.17-.05-.29-.15-.39-.1-.09-.25-.14-.44-.14-.17,0-.31.04-.42.11s-.17.17-.2.29v.02h-.44v-.03c.02-.15.07-.28.15-.41s.21-.22.36-.29c.15-.07.34-.11.55-.11s.4.04.55.11c.16.07.27.18.36.31.08.13.13.29.13.47v1.87h-.45v-.44h-.01c-.05.1-.12.18-.21.26-.09.07-.18.13-.29.17-.11.04-.22.06-.34.06-.18,0-.33-.03-.47-.1Z"/>
  <path class="cls-4" d="m215.55,596.6h.45v.46h.01c.04-.16.12-.28.23-.37s.24-.14.39-.14c.04,0,.08,0,.11,0,.03,0,.06,0,.07.01v.44s-.05-.01-.09-.02c-.04,0-.09,0-.15,0-.12,0-.22.03-.31.08s-.16.13-.2.22c-.05.1-.07.21-.07.35v1.67h-.45v-2.7Z"/>
  <path class="cls-4" d="m217.52,599.18c-.19-.12-.33-.28-.44-.49-.1-.21-.15-.46-.15-.74h0c0-.29.05-.53.16-.74.1-.21.25-.37.44-.49s.4-.17.65-.17c.23,0,.42.04.58.13.16.09.29.2.38.34.09.14.15.29.17.44v.02s-.44,0-.44,0v-.02c-.04-.14-.11-.25-.22-.36-.11-.1-.27-.15-.47-.15-.16,0-.29.04-.41.12-.12.08-.21.2-.28.35s-.1.33-.1.53h0c0,.21.03.39.1.54.07.15.16.26.28.34.12.08.26.12.41.12.19,0,.34-.05.45-.14.11-.09.19-.22.23-.37v-.02h.45v.02c-.03.17-.09.33-.19.46-.1.14-.23.25-.39.33-.16.08-.34.12-.55.12-.25,0-.48-.06-.66-.17Z"/>
  <path class="cls-4" d="m219.75,595.55h.45v1.48h.01c.07-.15.18-.27.32-.36.14-.08.32-.13.52-.13s.36.05.51.14.26.22.34.39.12.36.12.57v1.65h-.45v-1.58c0-.24-.06-.43-.18-.57-.12-.14-.28-.21-.49-.21-.14,0-.26.03-.36.1-.1.07-.19.16-.24.27-.06.12-.09.25-.09.41v1.58h-.45v-3.75Z"/>
  <circle class="cls-40" cx="173.56" cy="596.23" r="2.12"/>
  <line class="cls-36" x1="169.9" y1="599.3" x2="171.98" y2="597.63"/>
  <path class="cls-20" d="m285.3,593.65h1.06c.62,0,1.11.5,1.11,1.11v1.54h-3.28v-1.54c0-.62.5-1.11,1.11-1.11Z"/>
  <path class="cls-29" d="m284.19,594.59h6.74c.28,0,.5.22.5.5v4.18c0,.31-.25.57-.57.57h-6.1c-.31,0-.57-.25-.57-.57v-4.68h0Z"/>
  <path class="cls-15" d="m336.42,598.12l-1.96-3.39c-.4.69-.61,1.47-.61,2.26s.21,1.57.61,2.26.97,1.26,1.66,1.65,1.47.61,2.26.61l1.96-3.39h0c-.2.34-.48.63-.83.83-.7.4-1.56.4-2.26,0-.34-.2-.63-.48-.83-.83h0Z"/>
  <path class="cls-5" d="m340.34,598.12l-1.96,3.39c.79,0,1.57-.21,2.26-.61s1.26-.97,1.65-1.65c.4-.69.61-1.47.61-2.26,0-.79-.21-1.57-.61-2.26h-3.92c.4,0,.79.1,1.13.3.34.2.63.48.83.83.4.7.4,1.56,0,2.26h0Z"/>
  <path class="cls-13" d="m338.38,598.78c.99,0,1.79-.8,1.79-1.79s-.8-1.79-1.79-1.79-1.79.8-1.79,1.79.8,1.79,1.79,1.79Z"/>
  <path class="cls-19" d="m338.38,594.73h3.92c-.4-.69-.97-1.26-1.65-1.66-.69-.4-1.47-.61-2.26-.61-.79,0-1.57.21-2.26.61-.69.4-1.26.97-1.65,1.66l1.96,3.39h0c-.4-.7-.4-1.56,0-2.26.2-.34.48-.63.83-.83s.73-.3,1.13-.3h0Z"/>
  <path class="cls-32" d="m286.48,597.85h2.64c.53,0,.96.43.96.96v1.03h-4.56v-1.03c0-.53.43-.96.96-.96Z"/>
  <path class="cls-14" d="m357.19,599.1c-.12.06-.24.12-.37.16-.4.15-.82.23-1.25.23-1.65,0-3.08-1.13-3.08-2.59,0-.4.22-.76.57-.95-1.49.06-1.87,1.62-1.87,2.53,0,2.57,2.37,2.83,2.88,2.83.28,0,.69-.08.94-.16l.05-.02c.96-.33,1.78-.98,2.32-1.84.04-.06.02-.15-.04-.19-.04-.03-.1-.03-.14,0h0Z"/>
  <path class="cls-16" d="m352.82,600.87c-.31-.19-.58-.45-.79-.74-.92-1.25-.64-3.01.61-3.93.13-.1.27-.18.42-.25.11-.05.29-.14.54-.14.35,0,.68.17.89.45.14.19.22.42.22.65,0,0,.85-2.77-2.79-2.77-1.53,0-2.79,1.45-2.79,2.72,0,.67.14,1.34.42,1.95.96,2.05,3.3,3.05,5.45,2.34-.73.23-1.53.13-2.19-.28h0Z"/>
  <path class="cls-22" d="m354.44,597.65s-.11.09-.11.2c0,.09.06.18.16.25.5.35,1.45.3,1.45.3.37,0,.74-.1,1.05-.29.66-.38,1.06-1.08,1.06-1.84,0-.78-.28-1.3-.39-1.53-.74-1.44-2.33-2.27-4.06-2.27-2.44,0-4.42,1.96-4.46,4.4.02-1.27,1.28-2.3,2.79-2.3.12,0,.82.01,1.46.35.57.3.87.66,1.07,1.02.22.37.25.84.25,1.03s-.1.46-.27.69Z"/>
  <path class="cls-2" d="m365.11,598.52s-.11.09-.11.2c0,.09.06.18.16.25.5.35,1.45.3,1.45.3.37,0,.74-.1,1.05-.29.66-.38,1.06-1.08,1.06-1.84,0-.78-.28-1.3-.39-1.53-.74-1.44-2.33-2.27-4.06-2.27-2.44,0-4.42,1.96-4.46,4.4.02-1.27,1.28-2.3,2.79-2.3.12,0,.82.01,1.46.35.57.3.87.66,1.07,1.02.22.37.25.84.25,1.03s-.1.46-.27.69Z"/>
  <polygon class="cls-27" points="154.9 595.06 157.11 594.65 157.11 596.8 154.9 596.8 154.9 595.06"/>
  <polygon class="cls-27" points="157.11 596.95 154.9 596.95 154.9 599 157.11 599.31 157.11 596.95"/>
  <polygon class="cls-27" points="157.25 596.95 157.25 599.36 160.3 599.68 160.3 596.95 157.25 596.95"/>
  <polygon class="cls-27" points="157.25 594.65 157.25 596.8 160.3 596.8 160.3 594.22 157.25 594.65"/>
  <rect class="cls-34" x="268.12" y="595.93" width="3.35" height="1.98"/>
  <polyline class="cls-34" points="271.47 594.45 271.47 595.28 268.12 595.28 268.12 594.44"/>
  <polyline class="cls-34" points="268.12 599.39 268.12 598.56 271.47 598.56 271.47 599.4"/>
  <circle class="cls-27" cx="272.81" cy="596.3" r=".51"/>
  <line class="cls-34" x1="272.81" y1="597.31" x2="272.81" y2="599.49"/>
  <line class="cls-34" x1="272.81" y1="594.44" x2="272.81" y2="595.28"/>
  <path class="cls-27" d="m300.24,595.66l3.86-1.89c.16-.08.35-.08.51,0l3.71,1.89h-8.08Z"/>
  <path class="cls-27" d="m308.31,600.2h-8.08v-4.54l6.6,3.6-1.68-1.68c-.1-.1-.08-.28.05-.34l3.09-1.58v4.54Z"/>
  <path class="cls-39" d="m320.68,592.92h0c.79,0,1.44.64,1.44,1.44v.99h-2.88v-.99c0-.79.64-1.44,1.44-1.44Z"/>
  <path class="cls-39" d="m321.26,593.36h0c.79,0,1.44.64,1.44,1.44v.99h-2.88v-.99c0-.79.64-1.44,1.44-1.44Z"/>
  <path class="cls-27" d="m316.71,594.95h7.91v4.98c0,.31-.25.55-.55.55h-6.81c-.31,0-.55-.25-.55-.55v-4.98h0Z"/>
  <rect class="cls-26" x="319.07" y="596.1" width="1.52" height="1.52"/>
  <rect class="cls-25" x="320.72" y="596.1" width="1.52" height="1.52"/>
  <rect class="cls-31" x="319.07" y="597.79" width="1.52" height="1.52"/>
  <rect class="cls-28" x="320.72" y="597.79" width="1.52" height="1.52"/>
  <polyline class="cls-38" points="537.94 597.98 540.09 595.93 542.1 597.98"/>
  <rect class="cls-38" x="549.37" y="595.8" width="2.33" height="2.18" rx=".45" ry=".45"/>
  <path class="cls-38" d="m552.16,596.53s.47-.32.53-.37.14-.04.14.06v1.52c0,.09-.07.13-.14.08-.09-.06-.53-.38-.53-.38v-.9Z"/>
  <path class="cls-38" d="m549.49,595.07c.35-.29.83-.47,1.34-.47s.97.17,1.33.46"/>
  <path class="cls-38" d="m552.16,598.95c-.35.29-.83.47-1.34.47s-.97-.17-1.33-.46"/>
  <rect class="cls-38" x="559.15" y="595.8" width="4.68" height="2.72"/>
  <rect class="cls-27" x="559.57" y="596.22" width="3.84" height="1.89"/>
  <rect class="cls-38" x="563.82" y="596.77" width=".32" height=".79" transform="translate(1127.96 1194.32) rotate(180)"/>
  <circle class="cls-27" cx="574.27" cy="598.84" r=".49"/>
  <path class="cls-38" d="m570.9,599.25c-.06-.22-.08-.45-.08-.68,0-1.8,1.45-3.25,3.25-3.25.19,0,.37.02.55.05"/>
  <path class="cls-38" d="m571.99,599.25c-.07-.22-.11-.44-.11-.68,0-1.21.98-2.19,2.19-2.19.19,0,.37.02.55.08"/>
  <path class="cls-38" d="m573.17,599.25c-.14-.19-.23-.42-.23-.68,0-.62.5-1.13,1.13-1.13.2,0,.39.05.55.15"/>
  <path class="cls-38" d="m584.47,594.84c.16.1.3.23.43.37,1.01,1.1.93,2.79-.16,3.79-.12.11-.24.19-.36.28"/>
  <path class="cls-38" d="m583.81,595.45c.17.09.31.21.45.35.68.74.63,1.88-.11,2.56-.12.11-.24.19-.38.26"/>
  <path class="cls-38" d="m583.09,596.11c.19.04.37.13.52.29.35.38.33.97-.06,1.32-.12.11-.27.19-.42.22"/>
  <polygon class="cls-38" points="580.62 596.14 580.62 597.82 581.39 597.82 582.35 598.84 582.3 595.23 581.49 596.16 580.62 596.14"/>
  <circle class="cls-10" cx="595.48" cy="598.4" r="1.11"/>
  <polyline class="cls-38" points="596.48 597.29 596.48 594.35 591.35 595.1 591.35 598.84 593.91 599.25"/>
  <polyline class="cls-38" points="594.75 595.78 594.75 596.65 593.91 596.65"/>
  <polyline class="cls-38" points="593.57 597.29 592.72 597.29 592.72 598.17"/>
  <path class="cls-38" d="m594.62,596.54c-.08-.42-.44-.74-.87-.74-.49,0-.89.42-.89.93"/>
  <path class="cls-38" d="m592.96,597.55c.15.4.56.66.98.59"/>
  <polygon class="cls-27" points="640.34 594.28 640.34 598.57 642.08 598.57 642.87 599.84 643.99 598.55 645.75 598.55 645.75 594.28 640.34 594.28"/>
  <line class="cls-35" x1="641.32" y1="595.41" x2="644.69" y2="595.41"/>
  <line class="cls-35" x1="641.32" y1="596.5" x2="644.69" y2="596.5"/>
  <line class="cls-35" x1="641.32" y1="597.6" x2="644.69" y2="597.6"/>
  <circle class="cls-46" cx="645.22" cy="599.29" r="2.67"/>
  <path class="cls-27" d="m646.29,600.66h-1.94c0-.24.06-.44.17-.62.11-.18.26-.33.46-.46.09-.07.19-.13.29-.2s.19-.13.28-.21c.08-.07.15-.15.21-.24.05-.09.08-.18.08-.29,0-.05,0-.11-.02-.17-.01-.06-.04-.11-.07-.16s-.08-.09-.15-.13c-.06-.03-.14-.05-.24-.05-.09,0-.17.02-.23.05-.06.04-.11.09-.15.15-.04.06-.06.14-.08.23s-.03.18-.03.28h-.46c0-.16.02-.3.06-.44.04-.13.11-.25.19-.35s.19-.17.31-.23c.12-.06.26-.08.42-.08.17,0,.32.03.43.09.12.06.21.13.28.21.07.09.12.18.15.28.03.1.04.2.04.29,0,.11-.02.22-.05.31-.04.09-.08.18-.14.25s-.13.15-.2.21c-.08.06-.16.13-.24.18s-.16.11-.24.16c-.08.05-.16.1-.23.15-.07.05-.13.1-.18.16s-.09.12-.11.18h1.39v.42Z"/>
  <path class="cls-9" d="m295.57,479.75l-2.06,13.05,3.16-1.49s.04-.01.06-.02c.2-.05.41.07.46.27l1.27,4.71,2.91-.79-1.27-4.71s0-.04-.01-.06c-.02-.21.13-.39.34-.41l3.47-.28-8.32-10.27h0Z"/>
  <path class="cls-27" d="m305,490.31c0-.07-.04-.14-.08-.2l-9.3-11.51c-.09-.11-.23-.16-.36-.13h0c-.15.03-.27.16-.29.32l-2.31,14.6c-.04.2.1.4.31.43.08.01.16,0,.23-.04l3.38-1.6,1.24,4.63c.05.2.25.32.45.27,0,0,0,0,.01,0l3.62-.97c.2-.06.31-.26.26-.46l-1.24-4.64,3.74-.3c.21-.02.36-.2.34-.41Zm-4.59,0c-.21.02-.36.2-.34.41,0,.02,0,.04.01.06l1.27,4.71-2.91.79-1.27-4.71c-.05-.2-.26-.32-.46-.27-.02,0-.04.01-.06.02l-3.16,1.49,2.06-13.05h0s8.32,10.27,8.32,10.27l-3.47.28Z"/>
  <rect class="cls-8" x="179.92" y="320.1" width="22.66" height="32.05"/>
  <g class="cls-41">
    <path class="cls-24" d="m192.18,325.19c0-1.14-.92-2.06-2.06-2.06h-11.49c-1.14,0-2.06.92-2.06,2.06s.92,2.06,2.06,2.06h11.49c1.14,0,2.06-.92,2.06-2.06"/>
    <path class="cls-33" d="m191.76,324.77c0-1.14-.92-2.06-2.06-2.06h-11.49c-1.14,0-2.06.92-2.06,2.06s.92,2.06,2.06,2.06h11.49c1.14,0,2.06-.92,2.06-2.06Z"/>
  </g>
  <rect class="cls-33" x="181.57" y="322.7" width="4.75" height="4.13"/>
  <g class="cls-43">
    <path class="cls-23" d="m187.47,323.92c.1,0,.19-.08.19-.19s-.08-.19-.19-.19-.19.08-.19.19.08.19.19.19"/>
    <path class="cls-23" d="m187.47,324.95c.1,0,.19-.08.19-.19s-.08-.19-.19-.19-.19.08-.19.19.08.19.19.19"/>
    <path class="cls-23" d="m187.47,325.99c.1,0,.19-.08.19-.19s-.08-.19-.19-.19-.19.08-.19.19.08.19.19.19"/>
    <path class="cls-23" d="m188.66,323.92c.1,0,.19-.08.19-.19s-.08-.19-.19-.19-.19.08-.19.19.08.19.19.19"/>
    <path class="cls-23" d="m188.66,324.95c.1,0,.19-.08.19-.19s-.08-.19-.19-.19-.19.08-.19.19.08.19.19.19"/>
    <path class="cls-23" d="m188.66,325.99c.1,0,.19-.08.19-.19s-.08-.19-.19-.19-.19.08-.19.19.08.19.19.19"/>
    <path class="cls-23" d="m189.85,323.92c.1,0,.19-.08.19-.19s-.08-.19-.19-.19-.19.08-.19.19.08.19.19.19"/>
    <path class="cls-23" d="m189.85,324.95c.1,0,.19-.08.19-.19s-.08-.19-.19-.19-.19.08-.19.19.08.19.19.19"/>
    <path class="cls-23" d="m189.85,325.99c.1,0,.19-.08.19-.19s-.08-.19-.19-.19-.19.08-.19.19.08.19.19.19"/>
    <path class="cls-23" d="m180.43,323.92c.1,0,.19-.08.19-.19s-.08-.19-.19-.19-.19.08-.19.19.08.19.19.19"/>
    <path class="cls-23" d="m180.43,324.95c.1,0,.19-.08.19-.19s-.08-.19-.19-.19-.19.08-.19.19.08.19.19.19"/>
    <path class="cls-23" d="m180.43,325.99c.1,0,.19-.08.19-.19s-.08-.19-.19-.19-.19.08-.19.19.08.19.19.19"/>
    <path class="cls-24" d="m209.09,348.36c0-1.14-.92-2.06-2.06-2.06h-11.49c-1.14,0-2.06.92-2.06,2.06s.92,2.06,2.06,2.06h11.49c1.14,0,2.06-.92,2.06-2.06"/>
    <path class="cls-33" d="m208.66,347.94c0-1.14-.92-2.06-2.06-2.06h-11.49c-1.14,0-2.06.92-2.06,2.06s.92,2.06,2.06,2.06h11.49c1.14,0,2.06-.92,2.06-2.06Z"/>
    <rect class="cls-33" x="198.48" y="345.87" width="4.75" height="4.13"/>
    <path class="cls-23" d="m194.95,347.09c.1,0,.19-.08.19-.19s-.08-.19-.19-.19-.19.08-.19.19.08.19.19.19"/>
    <path class="cls-23" d="m194.95,348.13c.1,0,.19-.08.19-.19s-.08-.19-.19-.19-.19.08-.19.19.08.19.19.19"/>
    <path class="cls-23" d="m194.95,349.16c.1,0,.19-.08.19-.19s-.08-.19-.19-.19-.19.08-.19.19.08.19.19.19"/>
    <path class="cls-23" d="m196.15,347.09c.1,0,.19-.08.19-.19s-.08-.19-.19-.19-.19.08-.19.19.08.19.19.19"/>
    <path class="cls-23" d="m196.15,348.13c.1,0,.19-.08.19-.19s-.08-.19-.19-.19-.19.08-.19.19.08.19.19.19"/>
    <path class="cls-23" d="m196.15,349.16c.1,0,.19-.08.19-.19s-.08-.19-.19-.19-.19.08-.19.19.08.19.19.19"/>
    <path class="cls-23" d="m197.34,347.09c.1,0,.19-.08.19-.19s-.08-.19-.19-.19-.19.08-.19.19.08.19.19.19"/>
    <path class="cls-23" d="m197.34,348.13c.1,0,.19-.08.19-.19s-.08-.19-.19-.19-.19.08-.19.19.08.19.19.19"/>
    <path class="cls-23" d="m197.34,349.16c.1,0,.19-.08.19-.19s-.08-.19-.19-.19-.19.08-.19.19.08.19.19.19"/>
  </g>
  <path class="cls-27" d="m186.33,340.59h.31c.14,0,.24.02.3.07.06.05.1.12.1.21,0,.06-.02.12-.06.16-.04.04-.1.07-.17.08h0c.09.02.15.05.2.09.04.04.06.1.06.18,0,.1-.03.18-.1.24-.07.06-.16.08-.29.08h-.34v-1.11Zm.08.5h.25c.1,0,.18-.02.23-.05.05-.03.07-.09.07-.16s-.03-.13-.08-.16c-.05-.03-.13-.05-.24-.05h-.22v.43Zm0,.07v.48h.26c.21,0,.31-.08.31-.25,0-.15-.11-.23-.33-.23h-.25Zm1.22.56c-.12,0-.21-.04-.28-.11-.07-.07-.1-.18-.1-.31s.03-.24.1-.32c.07-.08.15-.12.26-.12.1,0,.17.03.23.1.06.07.08.16.08.28v.06h-.6c0,.11.03.2.08.26.05.06.13.09.22.09.05,0,.09,0,.12,0,.04,0,.08-.02.14-.04v.07s-.09.03-.13.04-.08.01-.13.01Zm-.02-.79c-.08,0-.14.03-.19.08-.05.05-.08.13-.08.23h.51c0-.1-.02-.17-.06-.23-.04-.05-.1-.08-.17-.08Zm1.45.78l-.02-.13h0c-.04.05-.08.09-.13.11-.04.02-.1.03-.16.03-.08,0-.14-.02-.19-.06-.05-.04-.07-.1-.07-.17,0-.08.03-.14.1-.19.07-.04.16-.07.29-.07h.16v-.06c0-.08-.02-.14-.05-.18-.03-.04-.08-.06-.15-.06-.08,0-.16.02-.24.06l-.03-.07c.09-.04.18-.06.27-.06s.16.02.2.07.07.12.07.22v.55h-.06Zm-.3-.05c.09,0,.16-.03.21-.08.05-.05.08-.12.08-.21v-.08h-.14c-.12.01-.2.03-.25.06-.05.03-.07.08-.07.14,0,.05.02.09.05.12.03.03.08.04.13.04Zm1.34-.71h-.2v.76h-.08v-.76h-.15v-.04l.15-.03v-.06c0-.1.02-.18.06-.22.04-.05.1-.07.18-.07.05,0,.09,0,.14.02l-.02.07s-.08-.02-.12-.02c-.06,0-.1.02-.13.05-.02.03-.04.09-.04.17v.08h.2v.07Zm.24.76h-.08v-1.19h.08v1.19Zm.34-.83v.54c0,.08.02.14.05.18.04.04.09.06.16.06.1,0,.17-.02.22-.07.05-.05.07-.13.07-.24v-.46h.07v.83h-.06v-.11h-.02c-.05.09-.15.13-.29.13-.19,0-.28-.1-.28-.3v-.54h.07Zm1.57.07h-.2v.76h-.08v-.76h-.15v-.04l.15-.03v-.06c0-.1.02-.18.06-.22.04-.05.1-.07.18-.07.05,0,.09,0,.14.02l-.02.07s-.08-.02-.12-.02c-.06,0-.1.02-.13.05-.02.03-.04.09-.04.17v.08h.2v.07Zm.2-.22s-.05-.02-.05-.07.02-.07.05-.07c.02,0,.03,0,.04.02,0,.01.01.03.01.05s0,.04-.01.05c0,.01-.02.02-.04.02h0Zm.04.98h-.08v-.83h.08v.83Zm.92-.83v.05h-.17c.05.07.07.13.07.2,0,.08-.03.14-.08.19-.05.05-.12.07-.21.07-.04,0-.06,0-.08,0-.03.02-.05.03-.07.06-.02.02-.02.04-.02.07,0,.03.01.05.03.06.02.01.05.02.1.02h.14c.09,0,.16.02.21.05.05.04.07.09.07.16,0,.09-.04.15-.11.2-.07.05-.17.07-.3.07-.1,0-.18-.02-.24-.06-.06-.04-.09-.1-.09-.17,0-.06.02-.1.05-.14.04-.04.08-.06.14-.08-.02-.01-.04-.03-.06-.05-.01-.02-.02-.04-.02-.07,0-.06.04-.1.11-.15-.05-.02-.09-.05-.11-.09-.03-.04-.04-.09-.04-.15,0-.08.03-.15.08-.2.05-.05.12-.08.21-.08.05,0,.1,0,.13.02h.27Zm-.44.79c-.15,0-.23.06-.23.18s.08.17.25.17c.22,0,.33-.07.33-.21,0-.05-.02-.09-.05-.11-.03-.02-.09-.03-.17-.03h-.14Zm-.16-.53c0,.06.02.11.06.15.04.04.09.05.16.05.07,0,.12-.02.16-.05.04-.04.06-.09.06-.15,0-.07-.02-.12-.06-.16-.04-.04-.09-.05-.16-.05s-.12.02-.16.06-.06.09-.06.16Zm1.36.57v-.54c0-.08-.02-.14-.05-.18-.04-.04-.09-.06-.16-.06-.1,0-.17.03-.22.08-.05.05-.07.13-.07.24v.46h-.08v-1.19h.08v.48s0,0,0,0c.03-.05.07-.09.12-.11.05-.02.11-.03.18-.03.19,0,.28.1.28.3v.54h-.07Zm.56-.05s.09,0,.13-.01v.06s-.08.02-.13.02c-.07,0-.13-.02-.16-.06-.03-.04-.05-.1-.05-.18v-.54h-.12v-.04l.12-.03.04-.19h.04v.2h.24v.07h-.24v.52c0,.06.01.11.03.14.02.03.06.05.11.05Zm.64.07c-.12,0-.21-.04-.28-.11-.07-.07-.1-.18-.1-.31s.03-.24.1-.32c.07-.08.15-.12.26-.12.1,0,.17.03.23.1.06.07.08.16.08.28v.06h-.6c0,.11.03.2.08.26.05.06.13.09.22.09.05,0,.09,0,.12,0,.04,0,.08-.02.14-.04v.07s-.09.03-.13.04-.08.01-.13.01Zm-.02-.79c-.08,0-.14.03-.19.08-.05.05-.08.13-.08.23h.51c0-.1-.02-.17-.06-.23-.04-.05-.1-.08-.17-.08Zm.87-.07s.07,0,.11.01v.07s-.08-.01-.12-.01c-.07,0-.13.03-.17.09-.05.06-.07.14-.07.23v.46h-.08v-.83h.06v.15h.01c.03-.06.07-.1.11-.13.04-.02.09-.04.14-.04Z"/>
  <path class="cls-27" d="m186.77,343.58l-.18-.55s-.03-.09-.04-.17h0l-.02.06-.03.11-.18.55h-.07l-.24-.83h.08l.13.48c.03.12.05.21.06.26h0c.03-.12.05-.2.07-.24l.17-.51h.07l.16.5c.04.12.06.2.07.24h0s.02-.12.06-.27l.13-.48h.08l-.22.83h-.08Z"/>
  <path class="cls-27" d="m187.23,342.52s.02-.07.05-.07c.02,0,.03,0,.04.02,0,.01.01.03.01.05s0,.04-.01.05c0,.01-.02.02-.04.02-.03,0-.05-.02-.05-.07Zm.09,1.06h-.08v-.83h.08v.83Z"/>
  <path class="cls-27" d="m187.81,343.52s.09,0,.13-.01v.06s-.08.02-.13.02c-.07,0-.13-.02-.16-.06-.03-.04-.05-.1-.05-.18v-.54h-.12v-.04l.12-.03.04-.19h.04v.2h.24v.07h-.24v.52c0,.06.01.11.03.14.02.03.06.05.11.05Z"/>
  <path class="cls-27" d="m188.69,343.58v-.54c0-.08-.02-.14-.05-.18-.04-.04-.09-.06-.16-.06-.1,0-.17.03-.22.08-.05.05-.07.13-.07.24v.46h-.08v-1.19h.08v.48s0,0,0,0c.03-.05.07-.09.12-.11.05-.02.11-.03.18-.03.19,0,.28.1.28.3v.54h-.07Z"/>
  <path class="cls-27" d="m189.92,343.58l-.27-.87h0c0,.18.01.3.01.36v.52h-.21v-1.11h.32l.26.85h0l.28-.85h.32v1.11h-.22v-.53s0-.05,0-.09c0-.03,0-.12.01-.26h0l-.29.87h-.22Z"/>
  <path class="cls-27" d="m191.28,343.59c-.14,0-.24-.04-.32-.11-.08-.08-.12-.18-.12-.32s.04-.25.11-.33c.07-.08.17-.12.3-.12s.21.03.28.1.1.16.1.28v.11h-.55c0,.07.02.12.06.15.04.04.09.06.15.06.05,0,.1,0,.15-.02s.09-.03.14-.05v.18s-.08.04-.13.05c-.05,0-.1.01-.17.01Zm-.03-.72s-.09.02-.12.05c-.03.03-.04.08-.05.13h.33c0-.06-.02-.1-.04-.13-.03-.03-.07-.05-.12-.05Z"/>
  <path class="cls-27" d="m192.09,343.59c-.1,0-.18-.04-.24-.12-.06-.08-.09-.19-.09-.32s.03-.25.09-.33c.06-.08.14-.12.24-.12.11,0,.19.04.25.13h0c-.01-.06-.02-.12-.02-.17v-.27h.23v1.19h-.18l-.04-.11h0c-.05.08-.13.13-.24.13Zm.08-.19c.06,0,.1-.02.13-.05.03-.03.04-.09.05-.18v-.03c0-.09-.01-.16-.04-.2-.03-.04-.07-.06-.14-.06-.05,0-.09.02-.12.07-.03.04-.04.11-.04.19s.01.15.04.19c.03.04.07.06.12.06Z"/>
  <path class="cls-27" d="m192.8,342.5c0-.08.04-.11.13-.11s.13.04.13.11c0,.04-.01.06-.03.08-.02.02-.05.03-.09.03-.08,0-.13-.04-.13-.11Zm.24,1.07h-.23v-.85h.23v.85Z"/>
  <path class="cls-27" d="m193.63,343.59c-.27,0-.4-.15-.4-.44,0-.14.04-.26.11-.33.07-.08.18-.11.31-.11.1,0,.19.02.27.06l-.07.18s-.07-.03-.1-.04c-.03,0-.06-.01-.09-.01-.12,0-.18.09-.18.26s.06.25.18.25c.04,0,.09,0,.12-.02s.08-.03.11-.06v.2s-.08.04-.11.05-.09.01-.15.01Z"/>
  <path class="cls-27" d="m194.63,343.58l-.04-.12h0s-.08.08-.12.1c-.04.02-.1.03-.16.03-.08,0-.15-.02-.19-.07-.05-.05-.07-.11-.07-.2s.03-.16.09-.2c.06-.04.16-.07.29-.07h.15v-.04c0-.09-.04-.13-.13-.13-.07,0-.15.02-.24.06l-.08-.16c.1-.05.21-.08.33-.08s.2.02.26.07c.06.05.09.13.09.23v.57h-.16Zm-.07-.39h-.09c-.07,0-.12.02-.15.04-.03.02-.05.06-.05.1,0,.07.04.1.11.1.05,0,.1-.02.13-.05.03-.03.05-.07.05-.12v-.07Z"/>
  <path class="cls-27" d="m195.5,342.71s.06,0,.08,0l-.02.22s-.04,0-.07,0c-.07,0-.13.02-.17.06-.04.04-.06.09-.06.16v.43h-.23v-.85h.18l.03.14h.01s.06-.09.11-.12c.04-.03.09-.04.15-.04Z"/>
  <path class="cls-27" d="m196.12,343.59c-.14,0-.24-.04-.32-.11-.08-.08-.12-.18-.12-.32s.04-.25.11-.33c.07-.08.17-.12.3-.12s.21.03.28.1.1.16.1.28v.11h-.55c0,.07.02.12.06.15.04.04.09.06.15.06.05,0,.1,0,.15-.02s.09-.03.14-.05v.18s-.08.04-.13.05c-.05,0-.1.01-.17.01Zm-.03-.72s-.09.02-.12.05c-.03.03-.04.08-.05.13h.33c0-.06-.02-.1-.04-.13-.03-.03-.07-.05-.12-.05Z"/>
  <rect class="cls-23" x="184.44" y="329.33" width="13.55" height="3.9"/>
  <path class="cls-27" d="m186.44,332.34l.29-.06v-1.94l-.29-.06v-.33h2.15v.74h-.42l-.02-.32h-.88v.75h.95v.42h-.95v.74l.29.06v.33h-1.12v-.33Z"/>
  <path class="cls-27" d="m190.01,329.95c.31,0,.55.07.72.21.17.14.26.33.26.58,0,.14-.04.25-.11.36-.07.1-.18.18-.32.24.16.05.27.13.34.24.07.11.11.25.11.41v.14c0,.06.01.11.04.14.02.03.06.05.12.06h.07v.34h-.28c-.18,0-.3-.05-.37-.14-.07-.1-.11-.22-.11-.37v-.15c0-.13-.04-.23-.11-.31-.07-.07-.17-.11-.3-.12h-.44v.71l.29.06v.33h-1.12v-.33l.29-.06v-1.94l-.29-.06v-.33h1.22Zm-.38,1.19h.38c.15,0,.26-.03.34-.1.08-.06.11-.16.11-.28s-.04-.22-.11-.29c-.07-.07-.19-.11-.33-.11h-.38v.78Z"/>
  <path class="cls-27" d="m193.16,331.47h-.92v.77h.87l.02-.32h.41v.74h-2.14v-.33l.29-.06v-1.94l-.29-.06v-.33h2.14v.74h-.42l-.02-.32h-.87v.68h.92v.42Z"/>
  <path class="cls-27" d="m195.59,331.47h-.92v.77h.87l.02-.32h.41v.74h-2.14v-.33l.29-.06v-1.94l-.29-.06v-.33h2.14v.74h-.42l-.02-.32h-.87v.68h.92v.42Z"/>
  <path class="cls-27" d="m181.99,336.37l.29-.06v-1.94l-.29-.06v-.33h2.15v.74h-.42l-.02-.32h-.88v.75h.95v.42h-.95v.74l.29.06v.33h-1.12v-.33Z"/>
  <path class="cls-27" d="m184.34,336.7v-.33l.29-.06v-1.94l-.29-.06v-.33h1.12v.33l-.29.06v1.91h.76l.03-.34h.41v.76h-2.04Z"/>
  <path class="cls-27" d="m187.52,333.99v.33l-.29.06v1.41c0,.18.05.31.14.4.1.09.23.13.4.13s.3-.04.4-.13c.1-.09.15-.22.15-.4v-1.41l-.29-.06v-.33h1.12v.33l-.29.06v1.41c0,.3-.1.54-.3.7-.2.16-.46.25-.79.25s-.58-.08-.78-.25c-.2-.16-.3-.4-.3-.7v-1.41l-.29-.06v-.33h1.12Z"/>
  <path class="cls-27" d="m192.3,334.85h-.41l-.07-.37s-.12-.06-.21-.08c-.09-.02-.19-.03-.29-.03-.15,0-.26.03-.34.09-.08.06-.12.14-.12.24,0,.09.04.17.13.23.08.06.23.12.44.19.3.08.53.19.68.33.15.14.23.32.23.54s-.09.41-.28.55c-.18.13-.43.2-.73.2-.21,0-.41-.03-.58-.1s-.32-.16-.43-.28v-.57h.42l.06.38c.05.04.13.08.22.11.09.03.2.04.31.04.15,0,.26-.03.34-.09.08-.06.12-.14.12-.24s-.04-.19-.11-.25-.2-.12-.39-.18c-.32-.09-.56-.2-.73-.33-.16-.13-.25-.3-.25-.52s.09-.4.28-.54.42-.21.7-.21c.21,0,.4.03.57.09s.31.15.43.25v.55Z"/>
  <path class="cls-27" d="m192.55,334.32v-.33h1.12v.33l-.29.06v.78h1.1v-.78l-.29-.06v-.33h1.12v.33l-.29.06v1.94l.29.06v.33h-1.12v-.33l.29-.06v-.74h-1.1v.74l.29.06v.33h-1.12v-.33l.29-.06v-1.94l-.29-.06Z"/>
  <path class="cls-27" d="m198,335.36c0,.4-.11.72-.34.98-.23.26-.52.39-.89.39s-.66-.13-.89-.39c-.22-.26-.34-.59-.34-.98v-.04c0-.39.11-.72.34-.98.22-.26.52-.39.88-.39s.66.13.89.39c.23.26.34.59.34.98v.04Zm-.54-.04c0-.28-.06-.51-.17-.68-.12-.17-.29-.26-.52-.26s-.4.09-.51.26c-.11.17-.17.4-.17.68v.04c0,.29.06.51.17.69.11.17.28.26.51.26s.4-.09.52-.26c.12-.17.17-.4.17-.69v-.04Z"/>
  <path class="cls-27" d="m200.56,333.99v.72h-.42l-.02-.3h-.5v1.91l.29.06v.33h-1.12v-.33l.29-.06v-1.91h-.5l-.02.3h-.41v-.72h2.41Z"/>
  <line class="cls-37" x1="189.1" y1="338.67" x2="193.41" y2="338.67"/>
  <g class="cls-42">
    <path class="cls-6" d="m183.97,345.31c-.59-.59-1.55-.59-2.14,0-.59-.59-1.55-.59-2.14,0-.59.59-.59,1.55,0,2.14l2.14,2.14,2.14-2.14c.59-.59.59-1.55,0-2.14"/>
    <path class="cls-24" d="m185.64,349.08c-.29-.29-.76-.29-1.04,0-.29-.29-.76-.29-1.04,0-.29.29-.29.76,0,1.04l1.04,1.04,1.04-1.04c.29-.29.29-.76,0-1.04"/>
    <path class="cls-24" d="m183.2,343.09c-.19-.19-.49-.19-.67,0-.19-.19-.49-.19-.67,0-.19.19-.19.49,0,.67l.67.67.67-.67c.19-.19.19-.49,0-.67"/>
    <path class="cls-6" d="m198.22,321.69c-.46-.46-1.2-.46-1.65,0-.46-.46-1.2-.46-1.65,0s-.46,1.2,0,1.65l1.65,1.65,1.65-1.65c.46-.46.46-1.2,0-1.65"/>
    <path class="cls-24" d="m201.37,322.82c-.3-.3-.79-.3-1.1,0-.3-.3-.79-.3-1.1,0-.3.3-.3.79,0,1.1l1.1,1.1,1.1-1.1c.3-.3.3-.79,0-1.1"/>
    <path class="cls-6" d="m200.3,326.04c-.19-.19-.5-.19-.69,0-.19-.19-.5-.19-.69,0-.19.19-.19.5,0,.69l.69.69.69-.69c.19-.19.19-.5,0-.69"/>
  </g>
  <path class="cls-48" d="m187.65,345.02c.23,0,.42.03.58.1.16.07.29.15.39.26.1.11.17.23.22.37.05.14.07.28.07.43s-.02.29-.07.43c-.05.14-.12.27-.22.37-.1.11-.23.2-.39.26-.16.07-.35.1-.58.1h-.84v1.3h-.8v-3.64h1.64Zm-.22,1.71c.09,0,.18,0,.27-.02.08-.01.16-.04.22-.08.06-.04.12-.09.16-.17.04-.07.06-.16.06-.28s-.02-.21-.06-.28c-.04-.07-.09-.13-.16-.17-.06-.04-.14-.07-.22-.08-.08-.01-.17-.02-.27-.02h-.62v1.09h.62Z"/>
  <path class="cls-48" d="m191.18,345.02c.23,0,.45.04.65.11.2.07.38.19.52.34.15.15.26.34.35.56.08.22.12.49.12.79,0,.26-.03.51-.1.73s-.17.42-.31.58c-.14.16-.31.29-.51.38-.21.09-.45.14-.73.14h-1.57v-3.64h1.57Zm-.06,2.97c.12,0,.23-.02.34-.06.11-.04.21-.1.29-.19.08-.09.15-.2.2-.34.05-.14.08-.31.08-.51,0-.18-.02-.35-.05-.5-.04-.15-.09-.27-.18-.38-.08-.11-.19-.19-.32-.24-.13-.06-.3-.08-.5-.08h-.57v2.29h.71Z"/>
  <path class="cls-48" d="m196.15,345.02v.67h-1.76v.84h1.52v.62h-1.52v1.5h-.8v-3.64h2.56Z"/>
  <path class="cls-27" d="m181.37,355.04l1.26,3.37,1.27-3.37h.73v4.01h-.51v-3.34h-.01l-1.25,3.34h-.46l-1.25-3.34h-.01v3.34h-.51v-4.01h.73Z"/>
  <path class="cls-27" d="m187.5,358.86c-.22.17-.49.25-.82.25-.23,0-.43-.04-.6-.11-.17-.07-.31-.18-.43-.31s-.2-.3-.26-.48c-.06-.19-.09-.39-.1-.61,0-.22.03-.42.1-.61.07-.18.16-.34.28-.48s.27-.24.43-.31c.17-.07.35-.11.55-.11.26,0,.47.05.64.16.17.11.31.24.41.41.1.16.17.34.21.54.04.19.06.38.05.56h-2.17c0,.13.01.25.04.36s.09.22.16.3c.07.09.17.16.29.21.12.05.25.08.41.08.2,0,.37-.05.5-.14.13-.09.21-.24.26-.43h.47c-.06.33-.2.57-.42.74Zm-.11-1.86c-.04-.1-.1-.19-.17-.26s-.16-.13-.26-.17-.21-.06-.33-.06-.23.02-.33.06-.18.1-.26.18c-.07.08-.13.16-.17.26-.04.1-.07.21-.07.32h1.67c0-.11-.03-.22-.08-.32Z"/>
  <path class="cls-27" d="m190.58,359.05v-.39h-.01c-.08.16-.2.28-.37.35s-.35.11-.56.11c-.22,0-.42-.04-.59-.12-.17-.08-.31-.19-.42-.33s-.19-.3-.25-.48-.08-.38-.08-.58.03-.4.08-.58c.05-.18.14-.34.25-.48s.25-.25.42-.33.36-.12.58-.12c.08,0,.16,0,.24.02.09.02.17.04.26.08.09.04.17.08.24.14s.14.13.19.22h.01v-1.49h.48v4.01h-.48Zm-1.72-1.03c.04.13.09.24.16.35.07.1.17.18.28.24.11.06.25.09.4.09.16,0,.3-.03.41-.1s.2-.15.27-.25c.07-.1.12-.22.15-.35.03-.13.05-.26.05-.4,0-.14-.02-.28-.05-.41-.03-.13-.09-.25-.16-.35-.07-.1-.17-.18-.28-.24-.12-.06-.26-.09-.42-.09s-.3.03-.41.1-.2.15-.27.25c-.07.1-.12.22-.15.36s-.04.27-.04.42c0,.13.02.27.05.4Z"/>
  <path class="cls-27" d="m191.82,355.62v-.58h.48v.58h-.48Zm.48.52v2.9h-.48v-2.9h.48Z"/>
  <path class="cls-27" d="m194.77,356.65c-.12-.1-.28-.15-.48-.15-.17,0-.32.03-.43.1s-.21.15-.28.25c-.07.1-.12.23-.15.36-.03.14-.04.28-.04.42,0,.13.02.27.05.39s.08.24.15.34.16.18.26.24c.11.06.24.09.39.09.24,0,.42-.06.55-.19.13-.12.21-.3.24-.52h.49c-.05.36-.19.64-.4.83-.22.19-.51.29-.88.29-.22,0-.42-.04-.59-.11s-.31-.17-.43-.3-.2-.29-.26-.47-.09-.38-.09-.6.03-.42.08-.61.14-.35.26-.49c.11-.14.26-.25.43-.33.17-.08.37-.12.6-.12.17,0,.32.02.46.06.14.04.27.1.38.18.11.08.2.19.27.31s.12.27.13.45h-.49c-.04-.18-.12-.33-.24-.43Z"/>
  <path class="cls-27" d="m198.62,359.03c-.08.05-.2.07-.34.07-.12,0-.22-.03-.29-.1-.07-.07-.11-.18-.11-.34-.13.16-.28.27-.46.34-.17.07-.36.1-.56.1-.13,0-.26-.02-.37-.04-.12-.03-.22-.08-.31-.14s-.15-.15-.21-.25c-.05-.1-.08-.23-.08-.37,0-.16.03-.3.08-.4.06-.1.13-.19.22-.26s.2-.12.31-.15c.12-.03.24-.06.36-.08.13-.03.26-.05.37-.06.12-.01.22-.03.31-.06s.16-.06.21-.11c.05-.05.08-.11.08-.2,0-.1-.02-.19-.06-.25-.04-.06-.09-.11-.15-.15-.06-.03-.13-.06-.21-.07s-.15-.02-.23-.02c-.2,0-.37.04-.51.12-.13.08-.21.22-.22.44h-.48c0-.18.04-.33.11-.46s.16-.22.27-.3.24-.13.38-.17.3-.05.46-.05c.13,0,.26,0,.39.03.13.02.25.06.35.12.1.06.19.14.25.24.06.1.1.24.1.41v1.49c0,.11,0,.19.02.25s.06.08.13.08c.04,0,.09,0,.15-.02v.37Zm-.78-1.49c-.06.04-.14.08-.24.1-.1.02-.2.04-.31.05-.11.01-.21.03-.32.04-.11.02-.21.04-.29.08s-.16.09-.21.16-.08.16-.08.28c0,.08.02.14.05.2.03.05.07.1.12.13.05.03.11.06.18.07.07.02.14.02.21.02.16,0,.29-.02.4-.06.11-.04.2-.1.28-.16.07-.06.12-.14.16-.21.03-.08.05-.15.05-.22v-.49Z"/>
  <path class="cls-27" d="m199.5,356.14v.61h.01c.12-.24.26-.41.43-.52s.38-.16.64-.16v.51c-.19,0-.35.03-.49.08s-.24.13-.33.23-.14.22-.18.37-.06.31-.06.5v1.29h-.48v-2.9h.45Z"/>
  <path class="cls-27" d="m202.89,358.86c-.22.17-.49.25-.82.25-.23,0-.43-.04-.6-.11-.17-.07-.31-.18-.43-.31s-.2-.3-.26-.48c-.06-.19-.09-.39-.1-.61,0-.22.03-.42.1-.61.07-.18.16-.34.28-.48s.27-.24.43-.31c.17-.07.35-.11.55-.11.26,0,.47.05.64.16.17.11.31.24.41.41.1.16.17.34.21.54.04.19.06.38.05.56h-2.17c0,.13.01.25.04.36s.09.22.16.3c.07.09.17.16.29.21.12.05.25.08.41.08.2,0,.37-.05.5-.14.13-.09.21-.24.26-.43h.47c-.06.33-.2.57-.42.74Zm-.11-1.86c-.04-.1-.1-.19-.17-.26s-.16-.13-.26-.17-.21-.06-.33-.06-.23.02-.33.06-.18.1-.26.18c-.07.08-.13.16-.17.26-.04.1-.07.21-.07.32h1.67c0-.11-.03-.22-.08-.32Z"/>
  <path class="cls-27" d="m177.13,361.77c.4,0,.71.1.92.31.21.21.31.5.31.87s-.1.67-.31.88c-.21.21-.51.31-.92.31h-1.22v1.64h-.53v-4.01h1.76Zm-.18,1.92c.3,0,.52-.06.67-.19.14-.13.21-.31.21-.55s-.07-.42-.21-.55c-.14-.13-.36-.19-.67-.19h-1.04v1.47h1.04Z"/>
  <path class="cls-27" d="m181.51,365.77c-.08.05-.2.07-.34.07-.12,0-.22-.03-.29-.1-.07-.07-.11-.18-.11-.34-.13.16-.28.27-.46.34-.17.07-.36.1-.56.1-.13,0-.26-.02-.37-.04-.12-.03-.22-.08-.31-.14s-.15-.15-.21-.25c-.05-.1-.08-.23-.08-.37,0-.16.03-.3.08-.4.06-.1.13-.19.22-.26s.2-.12.31-.15c.12-.03.24-.06.36-.08.13-.03.26-.05.37-.06.12-.01.22-.03.31-.06s.16-.06.21-.11c.05-.05.08-.11.08-.2,0-.1-.02-.19-.06-.25-.04-.06-.09-.11-.15-.15-.06-.03-.13-.06-.21-.07s-.15-.02-.23-.02c-.2,0-.37.04-.51.12-.13.08-.21.22-.22.44h-.48c0-.18.04-.33.11-.46s.16-.22.27-.3.24-.13.38-.17.3-.05.46-.05c.13,0,.26,0,.39.03.13.02.25.06.35.12.1.06.19.14.25.24.06.1.1.24.1.41v1.49c0,.11,0,.19.02.25s.06.08.13.08c.04,0,.09,0,.15-.02v.37Zm-.78-1.49c-.06.04-.14.08-.24.1-.1.02-.2.04-.31.05-.11.01-.21.03-.32.04-.11.02-.21.04-.29.08s-.16.09-.21.16-.08.16-.08.28c0,.08.02.14.05.2.03.05.07.1.12.13.05.03.11.06.18.07.07.02.14.02.21.02.16,0,.29-.02.4-.06.11-.04.2-.1.28-.16.07-.06.12-.14.16-.21.03-.08.05-.15.05-.22v-.49Z"/>
  <path class="cls-27" d="m182.4,362.88v.43h.01c.22-.33.53-.49.94-.49.18,0,.34.04.49.11s.25.2.31.38c.1-.16.23-.28.38-.37.16-.09.33-.13.52-.13.15,0,.28.02.4.05s.22.08.3.15c.08.07.15.15.2.26.05.11.07.24.07.38v2.13h-.48v-1.9c0-.09,0-.17-.02-.25-.02-.08-.04-.15-.08-.21-.04-.06-.1-.1-.17-.14-.07-.03-.17-.05-.28-.05-.24,0-.42.07-.56.2s-.2.31-.2.54v1.81h-.48v-1.9c0-.09,0-.18-.02-.26-.02-.08-.05-.15-.09-.21-.04-.06-.1-.1-.17-.13s-.16-.05-.27-.05c-.14,0-.26.03-.36.08-.1.06-.18.12-.24.2-.06.08-.11.16-.13.24-.03.08-.04.15-.04.21v1.81h-.48v-2.9h.45Z"/>
  <path class="cls-27" d="m187.24,362.88v.39h.01c.08-.16.2-.28.37-.35.17-.07.35-.11.56-.11.22,0,.42.04.59.12.17.08.31.19.42.33.11.14.19.3.25.49.06.18.08.38.08.58s-.03.4-.08.58c-.05.18-.14.34-.25.48s-.25.24-.42.32-.36.12-.58.12c-.07,0-.15,0-.24-.02-.09-.02-.17-.04-.26-.07-.09-.03-.17-.08-.24-.14s-.14-.13-.19-.22h-.01v1.49h-.48v-4.01h.48Zm1.72,1.03c-.04-.13-.09-.24-.16-.35-.07-.1-.17-.18-.28-.24-.11-.06-.25-.09-.4-.09-.16,0-.3.03-.41.1s-.2.15-.27.25c-.07.1-.12.22-.15.35-.03.13-.05.26-.05.4,0,.14.02.28.05.41.03.13.09.25.16.35.07.1.17.18.28.24.12.06.26.09.42.09s.3-.03.41-.1c.11-.06.2-.15.27-.25.07-.1.12-.22.15-.36s.04-.27.04-.42c0-.13-.02-.27-.05-.4Z"/>
  <path class="cls-27" d="m190.55,361.77v1.53h.01c.04-.09.09-.17.16-.23.07-.06.14-.11.23-.15.08-.04.17-.07.26-.09.09-.02.18-.03.27-.03.19,0,.35.03.48.08s.23.13.31.22c.08.09.13.21.17.33.03.13.05.27.05.43v1.91h-.48v-1.97c0-.18-.05-.32-.16-.43s-.25-.16-.43-.16c-.15,0-.27.02-.38.07-.11.04-.2.11-.27.19-.07.08-.12.18-.16.29s-.05.23-.05.36v1.64h-.48v-4.01h.48Z"/>
  <path class="cls-27" d="m193.7,361.77v4.01h-.48v-4.01h.48Z"/>
  <path class="cls-27" d="m196.5,365.6c-.22.17-.49.25-.82.25-.23,0-.43-.04-.6-.11-.17-.07-.31-.18-.43-.31s-.2-.3-.26-.48c-.06-.19-.09-.39-.1-.61,0-.22.03-.42.1-.61.07-.18.16-.34.28-.48s.27-.24.43-.31c.17-.07.35-.11.55-.11.26,0,.47.05.64.16.17.11.31.24.41.41.1.16.17.34.21.54.04.19.06.38.05.56h-2.17c0,.13.01.25.04.36s.09.22.16.3c.07.09.17.16.29.21.12.05.25.08.41.08.2,0,.37-.05.5-.14.13-.09.21-.24.26-.43h.47c-.06.33-.2.57-.42.74Zm-.11-1.86c-.04-.1-.1-.19-.17-.26s-.16-.13-.26-.17-.21-.06-.33-.06-.23.02-.33.06-.18.1-.26.18c-.07.08-.13.16-.17.26-.04.1-.07.21-.07.32h1.67c0-.11-.03-.22-.08-.32Z"/>
  <path class="cls-27" d="m198.7,362.88v.42h-.58v1.8c0,.06,0,.1.01.13s.03.06.05.08c.03.02.06.03.11.04.05,0,.11,0,.18,0h.22v.42h-.37c-.12,0-.23,0-.32-.03-.09-.02-.16-.05-.21-.09s-.09-.11-.12-.19c-.03-.08-.04-.19-.04-.33v-1.85h-.49v-.42h.49v-.87h.48v.87h.58Z"/>
  <path class="cls-27" d="m199.95,365.16v.62h-.62v-.62h.62Z"/>
  <path class="cls-27" d="m201.28,362.88v.39h.01c.08-.16.2-.28.37-.35.17-.07.35-.11.56-.11.22,0,.42.04.59.12.17.08.31.19.42.33.11.14.19.3.25.49.06.18.08.38.08.58s-.03.4-.08.58c-.05.18-.14.34-.25.48s-.25.24-.42.32-.36.12-.58.12c-.07,0-.15,0-.24-.02-.09-.02-.17-.04-.26-.07-.09-.03-.17-.08-.24-.14s-.14-.13-.19-.22h-.01v1.49h-.48v-4.01h.48Zm1.72,1.03c-.04-.13-.09-.24-.16-.35-.07-.1-.17-.18-.28-.24-.11-.06-.25-.09-.4-.09-.16,0-.3.03-.41.1s-.2.15-.27.25c-.07.1-.12.22-.15.35-.03.13-.05.26-.05.4,0,.14.02.28.05.41.03.13.09.25.16.35.07.1.17.18.28.24.12.06.26.09.42.09s.3-.03.41-.1c.11-.06.2-.15.27-.25.07-.1.12-.22.15-.36s.04-.27.04-.42c0-.13-.02-.27-.05-.4Z"/>
  <path class="cls-27" d="m206.23,365.78v-.39h-.01c-.08.16-.2.28-.37.35s-.35.11-.56.11c-.22,0-.42-.04-.59-.12-.17-.08-.31-.19-.42-.33s-.19-.3-.25-.48-.08-.38-.08-.58.03-.4.08-.58c.05-.18.14-.34.25-.48s.25-.25.42-.33.36-.12.58-.12c.08,0,.16,0,.24.02.09.02.17.04.26.08.09.04.17.08.24.14s.14.13.19.22h.01v-1.49h.48v4.01h-.48Zm-1.72-1.03c.04.13.09.24.16.35.07.1.17.18.28.24.11.06.25.09.4.09.16,0,.3-.03.41-.1s.2-.15.27-.25c.07-.1.12-.22.15-.35.03-.13.05-.26.05-.4,0-.14-.02-.28-.05-.41-.03-.13-.09-.25-.16-.35-.07-.1-.17-.18-.28-.24-.12-.06-.26-.09-.42-.09s-.3.03-.41.1-.2.15-.27.25c-.07.1-.12.22-.15.36s-.04.27-.04.42c0,.13.02.27.05.4Z"/>
  <path class="cls-27" d="m207.15,363.3v-.42h.49v-.43c0-.24.07-.41.2-.54s.34-.18.6-.18c.04,0,.1,0,.15.01.06,0,.11.02.15.03v.42s-.09-.02-.13-.03c-.05,0-.09,0-.13,0-.12,0-.21.02-.27.07-.06.04-.1.13-.1.26v.4h.56v.42h-.56v2.48h-.48v-2.48h-.49Z"/>
</svg>