<?xml version="1.0" encoding="UTF-8"?><svg xmlns="http://www.w3.org/2000/svg" xmlns:xlink="http://www.w3.org/1999/xlink" viewBox="0 0 800 1080"><defs><style>.cls-1{clip-path:url(#clippath);}.cls-2,.cls-3,.cls-4,.cls-5,.cls-6,.cls-7,.cls-8,.cls-9,.cls-10,.cls-11,.cls-12,.cls-13,.cls-14,.cls-15,.cls-16,.cls-17,.cls-18,.cls-19,.cls-20,.cls-21,.cls-22,.cls-23,.cls-24,.cls-25,.cls-26,.cls-27,.cls-28,.cls-29,.cls-30,.cls-31,.cls-32,.cls-33,.cls-34{stroke-width:0px;}.cls-2,.cls-35,.cls-36,.cls-37,.cls-38,.cls-39,.cls-40,.cls-41,.cls-42{fill:none;}.cls-3{fill:url(#radial-gradient);}.cls-35{stroke:#a2248e;stroke-width:.26px;}.cls-43{clip-path:url(#clippath-1);}.cls-44{clip-path:url(#clippath-2);}.cls-36,.cls-37,.cls-38,.cls-45,.cls-46,.cls-40,.cls-47,.cls-41,.cls-42{stroke-miterlimit:10;}.cls-36,.cls-37,.cls-46,.cls-40{stroke-width:.35px;}.cls-36,.cls-46,.cls-39,.cls-40,.cls-47,.cls-41{stroke:#fff;}.cls-37,.cls-38,.cls-42{stroke:#000;}.cls-48{filter:url(#drop-shadow-1);}.cls-38,.cls-46,.cls-40{stroke-linecap:round;}.cls-38,.cls-42{stroke-width:.5px;}.cls-45{stroke:#0078d4;}.cls-45,.cls-4,.cls-29{fill:#fff;}.cls-46{opacity:.5;}.cls-4{fill-rule:evenodd;}.cls-39{stroke-width:.14px;}.cls-6{fill:#f8be16;}.cls-7{fill:#60b7e3;}.cls-8{fill:#7a7b80;}.cls-9{fill:#38a5dd;}.cls-10{fill:#3c3c3c;}.cls-11{fill:#2d71b6;}.cls-12{fill:#1a1a1a;}.cls-13{fill:#1a73e5;}.cls-14{fill:#074a84;}.cls-15{fill:#229042;}.cls-16{fill:#238cd5;}.cls-17{fill:#1e1e1e;}.cls-18{fill:#1f3540;}.cls-19{fill:#e03b2e;}.cls-20{fill:#dd9c01;}.cls-21{fill:#bbbaba;}.cls-22{fill:#333;}.cls-23{fill:#00a49a;}.cls-24{fill:#a2248e;}.cls-25{fill:#86c8ec;}.cls-26{fill:#7d7d7d;}.cls-27{fill:#7fb702;}.cls-28{fill:#ef5022;}.cls-30{fill:#fbb603;}.cls-31{fill:#ffc83d;}.cls-32{fill:#ec7313;}.cls-33{fill:#01a1ec;}.cls-34{fill:#036ebc;}.cls-47{fill:#5b5b5b;stroke-width:.18px;}.cls-41{stroke-width:.25px;}</style><radialGradient id="radial-gradient" cx="4302.34" cy="887.5" fx="4302.34" fy="887.5" r="1.41" gradientTransform="translate(18329.91 -35486.67) rotate(92.29) scale(8.57 18.25) skewX(.3)" gradientUnits="userSpaceOnUse"><stop offset="0" stop-color="#35bbeb"/><stop offset=".11" stop-color="#34bbe7"/><stop offset=".23" stop-color="#2fbcd9"/><stop offset=".31" stop-color="#2bbdcc"/><stop offset=".67" stop-color="#36c152"/></radialGradient><clipPath id="clippath"><polygon class="cls-2" points="702.34 331.23 704.38 331.96 710.87 278.13 708.8 277.58 702.34 331.23"/></clipPath><clipPath id="clippath-1"><polygon class="cls-2" points="702.34 331.23 704.38 331.96 710.87 278.13 708.8 277.58 702.34 331.23"/></clipPath><clipPath id="clippath-2"><polygon class="cls-2" points="702.34 331.23 704.38 331.96 710.87 278.13 708.8 277.58 702.34 331.23"/></clipPath><filter id="drop-shadow-1" filterUnits="userSpaceOnUse"><feOffset dx="1" dy="1"/><feGaussianBlur result="blur" stdDeviation="1"/><feFlood flood-color="#000" flood-opacity=".75"/><feComposite in2="blur" operator="in"/><feComposite in="SourceGraphic"/></filter></defs><g id="Layer_14"><path class="cls-26" d="m691.24,836.83c23.29-18.57,20.06-157.83,83.23-605.44.78-5.54-3.51-13.25-10.03-14.49s-119.19,594.94-119.19,594.94"/><path class="cls-17" d="m691.24,836.83l-.21-1.23-44.12-63.8c-.77-1.06.55-.31-1.23-1.77,0,0,61.39-514.68,66.09-555.39.26-2.3,1.62-3.3,4.58-2.74,2.95.56,48.08,5.01,48.08,5.01,2.03.35,1.96,1.28,1.78,3.36l-71.03,601.68c-.91,8.01-2.93,13.34-3.95,14.89Z"/><polygon class="cls-29" points="650.02 739.81 712.8 224.6 762.6 232.56 694.22 791.33 650.02 739.81"/><path class="cls-5" d="m713.19,225.13l48.89,7.81-68.2,557.29-43.39-50.58,62.7-514.53m-.8-1.06l-62.86,515.88,45.01,52.47,68.56-560.24-50.71-8.1h0Z"/></g><g id="Layer_15"><path class="cls-12" d="m691.8,821.02l-.51,26.1c-.19,6.18-5.26,11.08-11.44,11.08H51.27c-32.93,0-24.99-37.89-24.99-37.89l7.42-2.03,611.56-6.43,46.55,9.17"/><path class="cls-10" d="m26.28,820.31c0,1.52,12.98,2.93,34.69,2.93h611.02c14.25,0,19.59-2.13,19.8-2.23l-43.34-66.97c-.14-.21-1.05-.4-2.56-.57-3.97-.46-12.1-.77-21.27-.77H163.35c-16.77,0-31.61.79-33.17,1.78l-103.9,65.82Z"/><path class="cls-4" d="m511.48,815.3l-.05-5.64c0-.26-2.93-.47-6.52-.47h-42.98c-3.58,0-6.55.21-6.6.47l-1.02,5.64c-.05.27,2.91.49,6.57.49h43.95c3.66,0,6.66-.22,6.65-.49h0Z"/><path class="cls-4" d="m446.08,815.26l1.43-6.86c.05-.26-2.82-.47-6.39-.47h-42.8c-3.57,0-6.57.21-6.67.47l-2.74,6.86c-.11.27,2.8.49,6.46.49h43.94c3.66,0,6.71-.22,6.76-.49h0Z"/><path class="cls-4" d="m381.1,815.34l3.91-9.21c.11-.25-2.7-.46-6.24-.46h-42.47c-3.54,0-6.56.21-6.72.46l-5.66,9.21c-.17.27,2.7.49,6.36.49h43.95c3.66,0,6.75-.22,6.87-.49h0Z"/><path class="cls-4" d="m327.56,795.58l14.35-22.23c.15-.22-2.64-.41-6.19-.41h-42.61c-3.55,0-6.61.18-6.81.41l-19.12,22.23c-.23.27,2.75.48,6.62.48h46.42c3.87,0,7.17-.22,7.34-.48h0Z"/><path class="cls-4" d="m348.56,762.35l2.46-3.81c.13-.2-2.5-.36-5.85-.36h-40.17c-3.35,0-6.23.16-6.4.36l-3.28,3.81c-.18.21,2.47.38,5.88.38h40.92c3.41,0,6.31-.17,6.44-.38h0Z"/><path class="cls-4" d="m323.6,802.2l3.21-4.98c.17-.27-2.86-.49-6.74-.49h-46.53c-3.88,0-7.24.22-7.47.49l-4.28,4.98c-.24.28,2.8.51,6.76.51h47.51c3.96,0,7.35-.23,7.53-.51h0Z"/><path class="cls-4" d="m319.37,808.03l2.71-4.2c.18-.28-2.92-.51-6.88-.51h-47.62c-3.97,0-7.41.23-7.66.51l-3.61,4.2c-.25.29,2.85.53,6.89.53h48.48c4.04,0,7.5-.24,7.68-.53h0Z"/><path class="cls-4" d="m343.05,771.97l2.64-4.1c.14-.22-2.59-.39-6.07-.39h-41.71c-3.48,0-6.47.18-6.65.39l-3.52,4.1c-.19.22,2.55.41,6.09.41h42.51c3.54,0,6.56-.18,6.7-.41h0Z"/><path class="cls-4" d="m345.97,766.61l1.95-3.02c.13-.21-2.55-.38-5.97-.38h-41c-3.42,0-6.36.17-6.54.38l-2.6,3.02c-.18.21,2.5.39,5.97.39h41.63c3.47,0,6.42-.17,6.56-.39h0Z"/><path class="cls-4" d="m315.42,815.34l3.58-5.57c.19-.29-2.97-.53-7.02-.53h-48.59c-4.05,0-7.57.24-7.82.53l-4.78,5.57c-.26.3,2.91.55,7.05.55h49.69c4.14,0,7.69-.25,7.88-.55h0Z"/><path class="cls-4" d="m577.13,815.24l-.74-3.27c-.06-.26-3.06-.48-6.67-.48h-43.32c-3.61,0-6.56.21-6.55.48l.12,3.27c0,.27,3.01.49,6.68.49h43.94c3.66,0,6.61-.22,6.55-.49h0Z"/><path class="cls-4" d="m576.56,810.39l-.72-3.16c-.06-.25-3.01-.46-6.56-.46h-42.63c-3.56,0-6.45.21-6.44.46l.12,3.16c.01.26,2.97.47,6.57.47h43.23c3.6,0,6.5-.21,6.44-.47h0Z"/><path class="cls-4" d="m575.74,805.72l-.7-3.06c-.06-.25-2.96-.45-6.46-.45h-41.96c-3.5,0-6.35.2-6.34.45l.12,3.06c0,.25,2.92.46,6.46.46h42.54c3.55,0,6.4-.21,6.34-.46h0Z"/><path class="cls-4" d="m573.87,801.16l-.67-2.97c-.05-.24-2.91-.43-6.36-.43h-41.31c-3.44,0-6.25.2-6.24.43l.11,2.97c0,.24,2.87.44,6.36.44h41.88c3.49,0,6.3-.2,6.24-.44h0Z"/><path class="cls-4" d="m573.37,796.76l-.66-2.88c-.05-.23-2.87-.42-6.26-.42h-40.69c-3.39,0-6.16.19-6.15.42l.11,2.88c0,.24,2.83.43,6.27.43h41.23c3.44,0,6.2-.19,6.15-.43h0Z"/><path class="cls-4" d="m572.65,792.5l-.64-2.79c-.05-.22-2.83-.41-6.17-.41h-40.08c-3.34,0-6.07.18-6.06.41l.11,2.79c0,.23,2.78.42,6.17.42h40.61c3.38,0,6.11-.19,6.06-.42h0Z"/><path class="cls-4" d="m571.39,788.3l-.62-2.71c-.05-.22-2.78-.4-6.07-.4h-39.48c-3.29,0-5.98.18-5.97.4l.1,2.71c0,.22,2.74.41,6.08.41h40c3.33,0,6.02-.18,5.97-.41h0Z"/><path class="cls-4" d="m570.95,784.28l-.61-2.63c-.05-.21-2.74-.38-5.98-.38h-38.91c-3.24,0-5.89.17-5.88.38l.11,2.63c0,.22,2.7.39,5.99.39h39.41c3.28,0,5.93-.18,5.88-.39h0Z"/><path class="cls-4" d="m570.29,780.39l-.59-2.56c-.05-.21-2.7-.37-5.9-.37h-38.36c-3.2,0-5.8.17-5.8.37l.1,2.56c0,.21,2.66.38,5.9.38h38.84c3.24,0,5.84-.17,5.8-.38h0Z"/><path class="cls-4" d="m568.71,776.58l-.57-2.48c-.05-.2-2.66-.36-5.81-.36h-37.81c-3.15,0-5.73.16-5.72.36l.09,2.48c0,.2,2.62.37,5.82.37h38.28c3.19,0,5.76-.17,5.72-.37h0Z"/><path class="cls-4" d="m568.33,772.9l-.56-2.42c-.04-.19-2.62-.35-5.73-.35h-37.29c-3.11,0-5.64.16-5.64.35l.1,2.42c0,.2,2.59.36,5.73.36h37.74c3.15,0,5.68-.16,5.64-.36h0Z"/><path class="cls-4" d="m567.73,769.32l-.54-2.35c-.04-.19-2.59-.34-5.65-.34h-36.77c-3.07,0-5.57.15-5.56.34l.1,2.35c0,.19,2.55.35,5.65.35h37.22c3.1,0,5.6-.16,5.56-.35h0Z"/><path class="cls-4" d="m566.7,765.83l-.53-2.29c-.04-.18-2.55-.33-5.57-.33h-36.28c-3.02,0-5.49.15-5.48.33l.09,2.29c0,.19,2.52.34,5.58.34h36.71c3.06,0,5.53-.15,5.48-.34h0Z"/><path class="cls-4" d="m565.86,762.44l-.9-3.94c-.04-.18-2.5-.32-5.46-.32h-35.54c-2.96,0-5.38.14-5.38.32l.16,3.94c0,.18,2.48.33,5.5.33h36.21c3.02,0,5.45-.15,5.41-.33h0Z"/><path class="cls-4" d="m511.01,808.04l-.02-3.11c0-.25-2.89-.45-6.41-.45h-42.3c-3.53,0-6.45.2-6.49.45l-.57,3.11c-.05.26,2.84.47,6.41.47h42.89c3.57,0,6.5-.21,6.49-.47h0Z"/><path class="cls-4" d="m511.49,803.43l-.03-3.02c0-.24-2.84-.44-6.31-.44h-41.64c-3.47,0-6.35.2-6.39.44l-.55,3.02c-.04.25,2.8.45,6.31.45h42.21c3.52,0,6.39-.2,6.39-.45h0Z"/><path class="cls-4" d="m511.7,798.97l-.03-2.93c0-.24-2.8-.43-6.22-.43h-41c-3.42,0-6.25.19-6.29.43l-.53,2.93c-.04.24,2.76.44,6.22.44h41.55c3.46,0,6.29-.2,6.29-.44h0Z"/><path class="cls-4" d="m510.85,794.62l-.02-2.84c0-.23-2.76-.41-6.12-.41h-40.38c-3.37,0-6.15.19-6.19.41l-.52,2.84c-.04.23,2.71.42,6.12.42h40.92c3.41,0,6.2-.19,6.2-.42h0Z"/><path class="cls-4" d="m511.31,790.41l-.02-2.75c0-.22-2.72-.4-6.03-.4h-39.78c-3.32,0-6.06.18-6.1.4l-.5,2.75c-.04.23,2.67.41,6.03.41h40.3c3.36,0,6.1-.19,6.1-.41h0Z"/><path class="cls-4" d="m511.51,786.34l-.03-2.67c0-.22-2.68-.39-5.94-.39h-39.2c-3.26,0-5.97.18-6.01.39l-.48,2.67c-.04.22,2.64.4,5.94.4h39.71c3.31,0,6.01-.18,6.01-.4h0Z"/><path class="cls-4" d="m511.19,782.33l-.02-2.59c0-.21-2.64-.38-5.86-.38h-38.63c-3.22,0-5.88.17-5.92.38l-.47,2.59c-.04.21,2.6.39,5.86.39h39.12c3.26,0,5.93-.17,5.93-.39h0Z"/><path class="cls-4" d="m511.62,778.48l-.03-2.52c0-.2-2.6-.37-5.77-.37h-38.08c-3.17,0-5.8.17-5.84.37l-.45,2.52c-.04.21,2.56.38,5.77.38h38.56c3.21,0,5.84-.17,5.84-.38h0Z"/><path class="cls-4" d="m511.81,774.75l-.03-2.45c0-.2-2.56-.36-5.7-.36h-37.55c-3.13,0-5.72.16-5.75.36l-.44,2.45c-.04.2,2.53.37,5.69.37h38.01c3.17,0,5.76-.16,5.76-.37h0Z"/><path class="cls-4" d="m511.08,771.1l-.02-2.38c0-.19-2.53-.35-5.61-.35h-37.03c-3.09,0-5.64.16-5.67.35l-.43,2.38c-.04.2,2.49.36,5.61.36h37.48c3.12,0,5.68-.16,5.68-.36h0Z"/><path class="cls-4" d="m511.5,767.57l-.02-2.32c0-.19-2.49-.34-5.54-.34h-36.52c-3.04,0-5.56.15-5.6.34l-.42,2.32c-.03.19,2.46.35,5.54.35h36.96c3.08,0,5.6-.16,5.6-.35h0Z"/><path class="cls-4" d="m511.69,764.14l-.03-2.26c0-.18-2.46-.33-5.46-.33h-36.04c-3,0-5.49.15-5.52.33l-.4,2.26c-.03.19,2.43.34,5.46.34h36.46c3.04,0,5.52-.15,5.52-.34h0Z"/><path class="cls-4" d="m448.93,806.91l.63-3.09c.05-.25-2.78-.45-6.29-.45h-42.13c-3.51,0-6.46.2-6.56.45l-1.22,3.09c-.1.25,2.73.46,6.29.46h42.72c3.56,0,6.52-.21,6.57-.46h0Z"/><path class="cls-4" d="m450.38,802.33l.61-2.99c.05-.24-2.74-.44-6.2-.44h-41.48c-3.46,0-6.36.2-6.46.44l-1.18,2.99c-.1.25,2.69.45,6.19.45h42.05c3.5,0,6.41-.2,6.46-.45h0Z"/><path class="cls-4" d="m451.53,797.91l.59-2.9c.05-.23-2.7-.42-6.11-.42h-40.85c-3.4,0-6.26.19-6.36.42l-1.14,2.9c-.09.24,2.65.43,6.1.43h41.4c3.45,0,6.32-.2,6.36-.43h0Z"/><path class="cls-4" d="m451.6,793.59l.58-2.82c.05-.23-2.66-.41-6.01-.41h-40.24c-3.35,0-6.17.19-6.26.41l-1.11,2.82c-.09.23,2.61.42,6.01.42h40.77c3.4,0,6.22-.19,6.26-.42h0Z"/><path class="cls-4" d="m452.94,789.41l.56-2.73c.04-.22-2.62-.4-5.92-.4h-39.64c-3.3,0-6.08.18-6.17.4l-1.08,2.73c-.09.22,2.58.41,5.93.41h40.16c3.35,0,6.12-.18,6.17-.41h0Z"/><path class="cls-4" d="m454.01,785.37l.54-2.65c.04-.21-2.59-.39-5.84-.39h-39.07c-3.26,0-5.99.17-6.07.39l-1.04,2.65c-.09.22,2.54.4,5.84.4h39.57c3.3,0,6.03-.18,6.08-.4h0Z"/><path class="cls-4" d="m454.53,781.39l.53-2.58c.04-.21-2.55-.38-5.76-.38h-38.5c-3.21,0-5.9.17-5.98.38l-1.01,2.58c-.08.21,2.51.39,5.75.39h38.98c3.25,0,5.94-.17,5.98-.39h0Z"/><path class="cls-4" d="m455.78,777.56l.51-2.5c.04-.2-2.51-.37-5.68-.37h-37.95c-3.16,0-5.81.16-5.89.37l-.98,2.5c-.08.21,2.47.37,5.67.37h38.43c3.2,0,5.86-.17,5.9-.37h0Z"/><path class="cls-4" d="m456.75,773.86l.49-2.43c.04-.2-2.48-.36-5.6-.36h-37.42c-3.12,0-5.73.16-5.81.36l-.95,2.43c-.08.2,2.44.36,5.6.36h37.88c3.16,0,5.77-.16,5.81-.36h0Z"/><path class="cls-4" d="m456.8,770.24l.48-2.37c.04-.19-2.45-.35-5.52-.35h-36.9c-3.08,0-5.66.16-5.73.35l-.93,2.37c-.08.19,2.41.35,5.52.35h37.35c3.11,0,5.69-.16,5.73-.35h0Z"/><path class="cls-4" d="m457.96,766.73l.47-2.3c.04-.19-2.41-.34-5.45-.34h-36.4c-3.03,0-5.58.15-5.65.34l-.9,2.3c-.07.19,2.38.34,5.45.34h36.84c3.07,0,5.61-.15,5.65-.34h0Z"/><path class="cls-4" d="m458.86,763.32l.97-4.81c.04-.18-2.36-.32-5.32-.32h-35.54c-2.96,0-5.44.14-5.51.32l-1.88,4.81c-.07.18,2.35.33,5.38.33h36.34c3.03,0,5.54-.15,5.57-.33h0Z"/><path class="cls-4" d="m511.46,760.7l-.02-2.19c0-.18-2.43-.32-5.39-.32h-35.54c-2.96,0-5.41.14-5.44.32l-.39,2.19c-.03.18,2.39.33,5.39.33h35.96c3,0,5.45-.15,5.45-.33h0Z"/><path class="cls-4" d="m385.55,804.56l1.29-3.04c.1-.24-2.66-.44-6.14-.44h-41.8c-3.48,0-6.46.2-6.61.44l-1.87,3.04c-.15.25,2.61.46,6.14.46h42.38c3.53,0,6.51-.2,6.61-.46h0Z"/><path class="cls-4" d="m387.98,800.05l1.25-2.95c.1-.24-2.62-.43-6.05-.43h-41.16c-3.43,0-6.35.19-6.5.43l-1.81,2.95c-.15.24,2.57.44,6.05.44h41.72c3.48,0,6.4-.2,6.51-.44h0Z"/><path class="cls-4" d="m390.07,795.69l1.21-2.86c.1-.23-2.59-.42-5.97-.42h-40.53c-3.38,0-6.26.19-6.4.42l-1.75,2.86c-.14.24,2.54.43,5.96.43h41.08c3.42,0,6.31-.19,6.4-.43h0Z"/><path class="cls-4" d="m391.06,791.44l1.18-2.77c.09-.22-2.55-.41-5.88-.41h-39.93c-3.33,0-6.16.18-6.3.41l-1.71,2.77c-.14.23,2.5.41,5.87.41h40.46c3.37,0,6.21-.19,6.31-.41h0Z"/><path class="cls-4" d="m393.3,787.33l1.14-2.69c.09-.22-2.52-.39-5.79-.39h-39.35c-3.28,0-6.07.18-6.2.39l-1.65,2.69c-.14.22,2.47.4,5.79.4h39.85c3.32,0,6.12-.18,6.21-.4h0Z"/><path class="cls-4" d="m395.22,783.35l1.11-2.61c.09-.21-2.48-.38-5.71-.38h-38.78c-3.23,0-5.98.17-6.11.38l-1.6,2.61c-.13.21,2.44.39,5.71.39h39.27c3.27,0,6.02-.18,6.12-.39h0Z"/><path class="cls-4" d="m396.61,779.42l1.08-2.54c.09-.2-2.45-.37-5.63-.37h-38.22c-3.19,0-5.89.17-6.02.37l-1.56,2.54c-.13.21,2.4.38,5.63.38h38.7c3.23,0,5.94-.17,6.02-.38h0Z"/><path class="cls-4" d="m398.66,775.66l1.04-2.47c.08-.2-2.42-.36-5.56-.36h-37.68c-3.14,0-5.81.16-5.93.36l-1.51,2.47c-.12.2,2.37.37,5.55.37h38.15c3.18,0,5.85-.17,5.94-.37h0Z"/><path class="cls-4" d="m400.43,772.01l1.01-2.4c.08-.19-2.39-.35-5.48-.35h-37.16c-3.1,0-5.73.16-5.84.35l-1.47,2.4c-.12.2,2.34.36,5.48.36h37.61c3.13,0,5.77-.16,5.85-.36h0Z"/><path class="cls-4" d="m401.33,768.38l.99-2.33c.08-.19-2.35-.34-5.41-.34h-36.64c-3.05,0-5.65.15-5.76.34l-1.43,2.33c-.12.19,2.32.35,5.41.35h37.08c3.09,0,5.69-.16,5.77-.35h0Z"/><path class="cls-4" d="m403.25,764.89l2.68-6.35c.07-.18-2.29-.32-5.25-.32h-35.55c-2.96,0-5.47.14-5.58.32l-3.89,6.35c-.11.19,2.29.34,5.33.34h36.57c3.05,0,5.61-.15,5.68-.34h0Z"/><path class="cls-4" d="m623.63,809.64l-1.28-2.9c-.17-.39-4.74-.7-10.15-.7h-15.5c-5.41,0-9.74.32-9.62.7l.93,2.9c.13.4,4.72.72,10.22.72h15.73c5.49,0,9.84-.32,9.67-.72h0Z"/><path class="cls-4" d="m621.32,804.4l-1.23-2.8c-.16-.37-4.65-.68-9.97-.68h-15.23c-5.32,0-9.57.3-9.45.68l.9,2.8c.12.38,4.63.69,10.03.69h15.45c5.4,0,9.67-.31,9.5-.69h0Z"/><path class="cls-4" d="m619.39,799.35l-1.2-2.7c-.16-.36-4.56-.66-9.79-.66h-14.97c-5.23,0-9.41.29-9.29.66l.87,2.7c.12.37,4.55.67,9.85.67h15.18c5.3,0,9.5-.3,9.34-.67h0Z"/><path class="cls-4" d="m617.24,794.46l-1.15-2.61c-.15-.35-4.48-.63-9.62-.63h-14.71c-5.14,0-9.25.28-9.14.63l.84,2.61c.11.36,4.47.65,9.68.65h14.92c5.21,0,9.34-.29,9.18-.65h0Z"/><path class="cls-4" d="m615.15,789.74l-1.12-2.52c-.15-.34-4.4-.61-9.45-.61h-14.47c-5.05,0-9.1.28-8.99.61l.81,2.52c.11.34,4.39.63,9.51.63h14.67c5.12,0,9.18-.28,9.03-.63h0Z"/><path class="cls-4" d="m612.65,785.18l-1.08-2.44c-.14-.33-4.32-.59-9.29-.59h-14.23c-4.97,0-8.95.27-8.85.59l.78,2.44c.11.33,4.31.61,9.35.61h14.42c5.04,0,9.03-.27,8.89-.61h0Z"/><path class="cls-4" d="m610.71,780.77l-1.04-2.36c-.14-.32-4.25-.57-9.14-.57h-14c-4.89,0-8.81.26-8.71.57l.76,2.36c.1.32,4.24.59,9.19.59h14.19c4.95,0,8.89-.26,8.75-.59h0Z"/><path class="cls-4" d="m608.83,776.49l-1.01-2.29c-.13-.31-4.18-.56-8.99-.56h-13.78c-4.81,0-8.67.25-8.57.56l.73,2.29c.1.31,4.17.57,9.04.57h13.96c4.87,0,8.75-.26,8.61-.57h0Z"/><path class="cls-4" d="m606.9,772.36l-.98-2.22c-.13-.3-4.11-.54-8.85-.54h-13.56c-4.73,0-8.53.24-8.44.54l.71,2.22c.1.3,4.1.55,8.9.55h13.74c4.8,0,8.61-.25,8.48-.55h0Z"/><path class="cls-4" d="m605.14,768.35l-.95-2.15c-.13-.29-4.04-.52-8.71-.52h-13.35c-4.66,0-8.4.23-8.31.52l.69,2.15c.09.29,4.04.53,8.76.53h13.52c4.72,0,8.48-.24,8.35-.53h0Z"/><path class="cls-4" d="m603.43,764.46l-.92-2.08c-.12-.28-3.98-.51-8.57-.51h-13.15c-4.59,0-8.28.23-8.19.51l.67,2.08c.09.28,3.97.52,8.62.52h13.32c4.65,0,8.35-.23,8.23-.52h0Z"/><path class="cls-4" d="m601.79,760.69l-.89-2.02c-.12-.27-3.92-.49-8.44-.49h-12.96c-4.52,0-8.15.22-8.07.49l.65,2.02c.09.28,3.91.5,8.49.5h13.12c4.58,0,8.23-.23,8.11-.5h0Z"/><path class="cls-4" d="m626.02,815.08l-1.33-3.01c-.18-.4-4.83-.73-10.34-.73h-15.78c-5.51,0-9.91.33-9.79.73l.96,3.01c.13.41,4.81.75,10.41.75h16.02c5.6,0,10.02-.34,9.84-.75h0Z"/><path class="cls-29" d="m167.55,769.11h67.57c14.02,0,24.74.71,23.88,1.59l-25.23,25.86c-1.05,1.08-14.64,1.96-30.28,1.96h-75.37c-20.51,0-35.49-1.15-33.42-2.56l36.45-24.76c1.7-1.16,18.03-2.09,36.41-2.09Zm-.15.11,36.23,29.16"/><path class="cls-5" d="m257.2,770.7l-25.42,25.86c-.98,1-13.61,1.82-28.15,1.82h-75.34c-19.4,0-33.58-1.09-31.64-2.42l36.28-24.76c1.6-1.1,17.06-1.98,34.47-1.98h67.59c13.05,0,23.01.66,22.21,1.48Z"/><path class="cls-21" d="m654.43,806.92c-8.96.35-16.05,2.44-15.84,4.68.21,2.25,7.7,3.8,16.74,3.45,9.03-.35,16.12-2.47,15.83-4.71-.29-2.24-7.78-3.76-16.73-3.41Z"/><path class="cls-5" d="m640.53,811.52c.19,1.98,6.8,3.34,14.75,3.04,7.95-.31,14.21-2.18,13.96-4.15-.25-1.97-6.86-3.32-14.75-3.01-7.89.31-14.14,2.15-13.96,4.12Z"/><path class="cls-22" d="m645.9,753.47c3.07,6.19,13.09,23.7,17.56,29.95,0,0,28.09,37.71,28.34,37.59l-43.34-66.97c-.14-.21-1.05-.4-2.56-.57Z"/><rect class="cls-10" x="590.97" y="831.97" width="10.35" height="19.82" rx="1.34" ry="1.34" transform="translate(-245.73 1438.02) rotate(-90)"/><rect class="cls-10" x="560.92" y="831.97" width="10.35" height="19.82" rx="1.34" ry="1.34" transform="translate(-275.78 1407.97) rotate(-90)"/><rect class="cls-10" x="525.47" y="823.17" width="3.5" height="37.41" rx="1.34" ry="1.34" transform="translate(-314.66 1369.1) rotate(-90)"/><path class="cls-10" d="m668.06,841.88h0c0,3.34-2.71,6.05-6.05,6.05h0c-3.34,0-6.05-2.71-6.05-6.05h0c0-3.34,2.71-6.05,6.05-6.05h0c3.34,0,6.05,2.71,6.05,6.05Z"/></g><g id="Layer_11"><polygon class="cls-8" points="693.91 790.11 650.36 739.69 712.4 224.08 762.37 232.91 693.91 790.11"/><polygon class="cls-18" points="650.36 739.69 693.91 790.11 696.74 767.1 652.92 718.35 650.36 739.69"/><polygon class="cls-45" points="659.57 750.36 651.66 741.2 654.24 719.81 662.19 728.66 659.57 750.36"/><path class="cls-29" d="m681.32,766.17l-.2-.23c.06-.46.11-.86.17-1.2.05-.33.11-.62.16-.85.03-.12.05-.24.08-.35.03-.11.05-.24.08-.37.03-.13.05-.28.08-.44.03-.16.05-.35.08-.57.01-.1.03-.21.04-.33.01-.12.02-.23.03-.33,0-.1.01-.19.01-.27,0-.07,0-.12-.01-.13,0-.01-.02.02-.04.08s-.03.16-.05.28c-.02.12-.04.27-.06.44-.02.17-.05.35-.07.55l-.05-.05c.04-.31.07-.59.11-.85s.07-.48.1-.66c.03-.18.06-.32.09-.42.03-.1.05-.13.06-.11.02.02.03.09.03.22,0,.13,0,.28-.02.46s-.03.37-.05.58c-.02.2-.04.4-.07.58-.03.23-.05.43-.08.6-.03.18-.05.34-.08.48-.02.15-.05.28-.07.4s-.05.23-.07.33c-.02.1-.04.2-.06.29s-.04.18-.06.28c-.02.09-.04.19-.06.3-.02.1-.04.21-.05.34l.14.17-.1.82Z"/><path class="cls-29" d="m681.83,763.02s.02.01.03,0c.01-.02.02-.06.04-.12.01-.06.03-.15.05-.26.02-.11.04-.25.06-.43.03-.24.05-.44.06-.59,0-.15,0-.24,0-.25,0,0-.02.01-.03.07s-.03.14-.05.24c-.02.11-.04.22-.05.36-.02.13-.04.27-.05.42l-.05-.05c.03-.27.07-.52.1-.75.03-.23.06-.42.09-.58.03-.16.06-.28.08-.37.02-.08.04-.12.06-.1.01.01.02.06.02.13s0,.18,0,.32c0,.13-.02.3-.04.49-.02.2-.04.42-.07.66-.03.28-.07.53-.1.73-.03.2-.06.34-.09.42v.02c0,.08,0,.26-.02.52-.02.26-.05.58-.1.94-.03.27-.06.5-.1.71-.03.21-.06.38-.09.51s-.05.24-.08.3c-.02.07-.04.09-.05.07-.02-.02-.03-.08-.03-.19,0-.11,0-.25.02-.43.01-.18.03-.4.06-.64s.06-.52.09-.81l.05.06c-.04.34-.07.63-.09.87s-.02.37,0,.39c.02.02.04-.05.07-.21.03-.16.07-.4.11-.72.03-.22.05-.4.06-.53s.02-.24.02-.31c0-.08,0-.13,0-.15,0-.03-.02-.04-.03-.05l.08-.68Z"/><path class="cls-29" d="m682.14,761.97c.02-.16.04-.32.06-.46s.04-.27.06-.37c.02-.1.04-.18.05-.23.02-.06.03-.08.04-.07s.01.05.01.12c0,.07,0,.17-.01.28s-.02.25-.03.4-.03.31-.05.47-.04.32-.06.46c-.02.14-.04.27-.06.37s-.04.18-.05.23c-.02.06-.03.08-.04.07s-.01-.05-.01-.13c0-.07,0-.17.01-.28,0-.11.02-.25.03-.4.01-.15.03-.31.05-.47Zm.02.03c-.01.11-.02.21-.03.3,0,.09-.02.17-.02.24,0,.07,0,.13,0,.18,0,.04,0,.07,0,.08s.01,0,.02-.04.02-.08.03-.15c.01-.06.02-.14.04-.23.01-.09.03-.19.04-.29.01-.1.02-.2.03-.3,0-.1.02-.18.02-.25,0-.07,0-.13,0-.17,0-.05,0-.07,0-.08s-.01,0-.02.04c0,.03-.02.08-.03.15-.01.06-.02.14-.04.23-.01.09-.03.19-.04.29Z"/><path class="cls-29" d="m682.45,763.02c.02-.17.03-.33.05-.47.01-.14.02-.27.03-.38,0-.11,0-.19,0-.26,0-.07,0-.11-.02-.12-.02-.02-.04.03-.06.14-.03.11-.06.26-.09.46s-.07.43-.1.68-.07.52-.1.79-.06.54-.09.81-.05.51-.07.72-.03.39-.03.52c0,.14,0,.22.02.23.01.01.03-.01.05-.08s.04-.16.06-.29c.02-.13.05-.28.07-.46.03-.18.05-.37.08-.58l.05.06c-.04.34-.09.65-.13.92-.04.28-.08.51-.12.7-.04.19-.07.34-.1.43-.03.1-.05.13-.07.11-.02-.03-.03-.13-.03-.31s.01-.41.03-.7c.02-.29.05-.62.09-.99.04-.37.08-.76.13-1.17s.1-.79.15-1.14c.05-.36.1-.66.15-.92s.09-.46.13-.6c.04-.14.07-.2.09-.17.02.02.03.08.03.19,0,.11,0,.25,0,.43,0,.18-.02.4-.05.64-.02.25-.05.53-.09.84l-.05-.06Z"/><path class="cls-29" d="m682.7,765.58c-.03.22-.05.41-.06.57s-.02.29-.03.4c0,.11,0,.19,0,.24,0,.06.01.09.02.1.01.01.02,0,.04-.04.01-.04.03-.1.04-.17s.03-.16.04-.26c.02-.1.03-.21.04-.31.03-.22.04-.38.05-.49,0-.11.01-.19,0-.24,0-.09,0-.17-.01-.26,0-.08-.01-.19-.02-.32,0-.08,0-.18,0-.29,0-.12.01-.24.02-.37s.02-.27.04-.42.03-.3.05-.44c.04-.29.07-.54.1-.74.03-.2.06-.37.09-.5.03-.13.05-.22.07-.27.02-.05.04-.07.05-.05.02.02.03.07.03.17s0,.22,0,.39-.02.37-.04.6c-.02.24-.05.5-.09.8l-.05-.06c.04-.37.07-.64.08-.81,0-.17,0-.26-.02-.28,0,0-.01,0-.02.01,0,.02-.02.05-.03.1-.01.05-.03.12-.04.21-.02.09-.03.21-.05.36-.02.2-.04.37-.05.49s0,.22,0,.29c0,0,0,.03,0,.08,0,.05,0,.1.01.16s0,.12.01.17c0,.05,0,.1,0,.12,0,.07,0,.16,0,.27,0,.11-.01.23-.02.37-.01.14-.02.28-.04.43s-.03.3-.05.45c-.04.32-.08.59-.11.81-.03.22-.07.39-.1.53-.03.13-.05.22-.08.27-.02.05-.04.07-.06.05-.02-.02-.03-.08-.03-.18s0-.24,0-.42c0-.18.03-.4.05-.67s.06-.58.1-.93l.05.06Z"/><path class="cls-29" d="m682.9,767.98l-.05-.05.07-.58h0c-.03.2-.06.36-.09.47-.03.11-.05.16-.06.15-.03-.03-.03-.19-.01-.48.02-.28.06-.7.13-1.25l.32-2.64.05.06-.31,2.55c-.04.36-.07.63-.08.78s0,.24,0,.26c.01.01.02,0,.04-.06s.03-.12.05-.22c.02-.09.03-.21.05-.35.02-.14.04-.29.06-.45l.29-2.41.05.06-.51,4.15Z"/><path class="cls-29" d="m683.46,763.88l.05.05-.07.61v.02c.03-.22.07-.39.09-.51.03-.12.05-.17.06-.15.02.03.03.17.01.42-.01.25-.05.61-.11,1.08l-.35,2.85-.05-.06.32-2.61c.04-.33.06-.57.08-.72s0-.24,0-.26c0,0-.02.01-.03.06-.01.05-.03.12-.05.22-.02.09-.03.21-.05.34-.02.13-.04.27-.06.42l-.3,2.45-.05-.06.51-4.15Z"/><path class="cls-29" d="m683.7,764.16l.05.05-.07.61v.02c.03-.22.07-.39.09-.51.03-.12.05-.17.06-.15.02.03.03.17.01.42-.01.25-.05.61-.11,1.08l-.35,2.85-.05-.06.32-2.61c.04-.33.06-.57.08-.72s0-.24,0-.26c0,0-.02.01-.03.06-.01.05-.03.12-.05.22-.02.09-.03.21-.05.34-.02.13-.04.27-.06.42l-.3,2.45-.05-.06.51-4.16Z"/><path class="cls-29" d="m683.92,764.41l.05.06-.32,3.17h0s.44-3.04.44-3.04l.05.06-.62,4.29c-.03.18-.05.36-.08.52-.02.17-.05.31-.07.44-.02.12-.04.22-.06.29-.02.07-.03.09-.05.08-.01-.01-.02-.04-.03-.09l.09-.77s0,.03,0,.05c0,.02,0,.03,0,.03,0,0,.01,0,.02-.02,0-.02.01-.06.02-.11s.02-.11.03-.17c.01-.07.02-.15.03-.24l.04-.32.42-4.24Z"/><path class="cls-29" d="m690.7,771.04l.18.21-.09.71-.14-.16-.15,1.23.13.14-.08.67-.13-.14-.17,1.37.14.16-.09.71-.18-.21.57-4.68Z"/><path class="cls-29" d="m690.92,771.29l.05.05-.31,3.58h0s.42-3.45.42-3.45l.04.05-.57,4.68-.05-.05.31-3.57h0s-.42,3.44-.42,3.44l-.04-.05.57-4.68Z"/><path class="cls-29" d="m690.83,776.51l-.03-.03.06-.56c-.04.24-.08.4-.1.48-.02.08-.04.12-.06.1-.02-.02-.03-.11-.03-.25,0-.15,0-.34.03-.57.02-.23.04-.5.07-.81.03-.3.07-.62.11-.96s.08-.64.12-.94c.04-.29.08-.54.12-.75s.07-.37.1-.49c.03-.11.06-.16.07-.14.01.02.02.06.03.15,0,.08,0,.2,0,.34,0,.14-.02.32-.04.53-.02.21-.04.45-.07.71l-.04-.05c.02-.15.03-.29.04-.41.01-.12.02-.22.02-.31,0-.09,0-.15,0-.2,0-.05,0-.08-.02-.08-.01-.02-.03.02-.05.11-.02.09-.05.22-.07.38s-.05.35-.08.56c-.03.21-.06.43-.08.65s-.05.44-.08.66c-.02.22-.04.42-.06.59-.01.17-.02.32-.03.43,0,.11,0,.18.02.19.01.02.02,0,.04-.05.02-.05.03-.13.05-.23s.04-.24.06-.39.05-.34.07-.53l-.07-.08.08-.62.11.12-.3,2.47Z"/><path class="cls-29" d="m692.53,768.33s.02,0,.03-.01c.01-.02.02-.05.04-.11.01-.05.03-.13.05-.22s.03-.21.05-.34l.03.04-.56,4.6-.04-.05.4-3.25-.06-.07.07-.59Z"/><path class="cls-29" d="m692.91,767.79s.02.11.02.27c0,.16-.02.37-.04.61-.02.24-.05.51-.08.79-.03.28-.06.56-.1.82s-.07.53-.1.81c-.04.28-.07.53-.11.76-.04.23-.07.41-.1.55-.03.14-.05.2-.07.18s-.02-.11-.02-.28c0-.16.02-.37.04-.61.02-.24.05-.5.08-.79.03-.28.06-.56.1-.82s.07-.53.1-.81c.04-.28.07-.53.11-.76.04-.23.07-.41.1-.55.03-.14.05-.2.07-.18Zm-.51,4.16s.02-.03.04-.12c.02-.09.04-.21.06-.37s.05-.34.08-.55c.03-.21.06-.44.09-.68s.06-.47.08-.68.05-.4.06-.57.03-.3.03-.4c0-.1,0-.16,0-.17s-.02.03-.04.12c-.02.09-.04.21-.06.37s-.05.34-.08.55c-.03.21-.06.44-.09.68s-.06.47-.08.69c-.02.22-.05.41-.06.57s-.03.3-.03.4c0,.1,0,.16,0,.17Z"/><path class="cls-29" d="m692.87,769.29l.05.06-.11.89-.05-.06.11-.89Zm-.3,2.44l.05.06-.11.89-.05-.06.11-.89Z"/><path class="cls-29" d="m692.86,771.82l-.03-.04-.13,1.09-.04-.04.13-1.09-.11-.12.09-.74.45-2.65.04.04-.36,2.92.03.04-.07.59Zm-.07-.76l.08.09.25-2.03h0s-.32,1.94-.32,1.94Z"/><path class="cls-29" d="m693.31,768.34l.17.19-.08.62c-.05.26-.09.53-.14.81-.05.28-.09.58-.14.9s-.1.66-.15,1.01c-.05.36-.1.75-.15,1.16l-.04-.05c.05-.36.09-.72.14-1.07s.1-.69.15-1.01.1-.63.15-.93c.05-.3.1-.57.14-.82l-.13-.15.08-.67Z"/><path class="cls-29" d="m693.7,768.67l.05.05-.48,4.81-.05-.05.13-1.27-.1-.11-.18,1.22-.05-.05.67-4.59Zm-.36,2.81l.08.09.21-2.07h0s-.29,1.98-.29,1.98Z"/><path class="cls-29" d="m693.87,768.86l.06.07-.38,3.76h0s.52-3.61.52-3.61l.06.07-.58,4.71-.04-.05.45-3.63h0s-.52,3.55-.52,3.55l-.04-.04.37-3.71h0s-.45,3.63-.45,3.63l-.04-.05.58-4.7Z"/><path class="cls-29" d="m691.07,778.59s.02,0,.03-.01c.01-.02.02-.05.04-.11.01-.05.03-.13.05-.22s.03-.21.05-.34l.03.04-.56,4.6-.04-.05.4-3.24-.06-.07.07-.59Z"/><path class="cls-29" d="m691.45,778.06s.02.11.02.28c0,.16-.02.37-.04.61-.02.24-.05.5-.08.79-.03.28-.06.56-.1.82s-.07.53-.1.81c-.04.28-.07.53-.11.76-.04.23-.07.41-.1.55-.03.14-.05.2-.07.18s-.02-.11-.02-.28c0-.16.02-.37.04-.61.02-.24.05-.5.08-.79.03-.28.06-.56.1-.82s.07-.53.1-.81c.04-.28.07-.53.11-.76.04-.23.07-.41.1-.55.03-.14.05-.2.07-.18Zm-.51,4.16s.02-.03.04-.12c.02-.09.04-.21.06-.36s.05-.34.08-.55c.03-.21.06-.44.09-.68s.06-.47.08-.68.05-.4.06-.57.03-.3.03-.4c0-.1,0-.16,0-.17s-.02.03-.04.12c-.02.09-.04.21-.06.37s-.05.34-.08.55c-.03.21-.06.44-.09.68s-.06.47-.08.69c-.02.22-.05.41-.06.57s-.03.3-.03.4c0,.1,0,.16,0,.17Z"/><path class="cls-29" d="m691.66,778.16l.04.04-.7,4.8-.04-.04.7-4.8Z"/><path class="cls-29" d="m691.59,779.19s.02,0,.03-.01c.01-.02.02-.05.04-.11.01-.05.03-.13.05-.22s.03-.21.05-.34l.03.04-.56,4.6-.04-.05.4-3.25-.06-.07.07-.59Z"/><path class="cls-29" d="m691.97,778.65s.02.11.02.28c0,.17-.02.37-.04.61-.02.24-.05.51-.08.79-.03.28-.06.56-.1.82s-.07.53-.1.81c-.04.28-.07.53-.11.76-.04.23-.07.41-.1.55-.03.14-.05.2-.07.18s-.02-.11-.02-.28c0-.16.02-.37.04-.61.02-.24.05-.5.08-.79.03-.28.06-.56.1-.82s.07-.53.1-.81c.04-.28.07-.53.11-.76.04-.23.07-.41.1-.55.03-.14.05-.2.07-.18Zm-.51,4.16s.02-.03.04-.12c.02-.09.04-.21.06-.37s.05-.34.08-.55c.03-.21.06-.44.09-.68s.06-.47.08-.68.05-.4.06-.57.03-.3.03-.4c0-.1,0-.16,0-.17s-.02.03-.04.12c-.02.09-.04.21-.06.37s-.05.34-.08.55c-.03.21-.06.44-.09.68s-.06.47-.08.69c-.02.22-.05.41-.06.57s-.03.3-.03.4c0,.1,0,.16,0,.17Z"/><path class="cls-29" d="m692.18,778.76l.04.04-.71,4.8-.04-.04.71-4.8Z"/><path class="cls-29" d="m691.81,783.81l-.17-.2c.05-.38.09-.71.14-.98.04-.27.09-.51.13-.7.02-.1.04-.2.06-.29.02-.09.04-.19.06-.3.02-.11.04-.23.07-.36.02-.13.04-.29.07-.47.01-.08.02-.17.03-.27.01-.09.02-.18.03-.27,0-.08.01-.16.01-.22,0-.06,0-.1-.01-.11,0,0-.02.01-.03.07-.01.05-.03.13-.04.23-.02.1-.03.22-.05.36s-.04.29-.06.45l-.04-.05c.03-.25.06-.49.09-.7.03-.21.06-.39.09-.54.03-.15.05-.26.07-.34s.04-.11.05-.09c.02.02.02.08.02.18,0,.1,0,.23-.02.38-.01.15-.03.31-.04.47-.02.17-.04.33-.05.47-.02.18-.04.35-.07.5s-.04.28-.06.4c-.02.12-.04.23-.06.32-.02.1-.04.19-.06.27-.02.08-.04.16-.05.24-.02.08-.03.15-.05.23-.02.08-.03.16-.05.24s-.03.18-.04.28l.12.14-.08.67Z"/><path class="cls-29" d="m692.49,779.24s.02.11.02.28c0,.17-.02.37-.04.61-.02.24-.05.51-.08.79-.03.28-.06.56-.1.82s-.07.53-.1.81c-.04.28-.07.53-.11.76-.04.23-.07.41-.1.55-.03.14-.05.2-.07.18s-.02-.11-.02-.28c0-.16.02-.37.04-.61.02-.24.05-.5.08-.79.03-.28.06-.56.1-.82s.07-.53.1-.81c.04-.28.07-.53.11-.76.04-.23.07-.41.1-.55.03-.14.05-.2.07-.18Zm-.51,4.17s.02-.03.04-.12c.02-.09.04-.21.06-.37s.05-.34.08-.55c.03-.21.06-.44.09-.68s.06-.47.08-.68.05-.4.06-.57.03-.3.03-.4c0-.1,0-.16,0-.17s-.02.03-.04.12c-.02.09-.04.21-.06.37s-.05.34-.08.55c-.03.21-.06.44-.09.68s-.06.47-.08.69c-.02.22-.05.41-.06.57s-.03.3-.03.4c0,.1,0,.16,0,.17Z"/><path class="cls-29" d="m692.2,784.27l-.17-.2c.05-.38.09-.71.14-.98.04-.27.09-.51.13-.7.02-.1.04-.2.06-.29.02-.09.04-.19.06-.3.02-.11.04-.23.07-.36.02-.13.04-.29.07-.47.01-.08.02-.17.03-.27.01-.1.02-.18.03-.27,0-.08.01-.16.01-.22,0-.06,0-.1-.01-.11,0,0-.02.01-.03.07-.01.05-.03.13-.04.23-.02.1-.03.22-.05.36s-.04.29-.06.45l-.04-.05c.03-.25.06-.49.09-.7.03-.21.06-.39.09-.55.03-.15.05-.26.07-.34s.04-.11.05-.09c.02.02.02.08.02.18,0,.1,0,.23-.02.38-.01.15-.03.31-.04.47-.02.17-.04.33-.05.47-.02.18-.04.35-.07.5s-.04.28-.06.4c-.02.12-.04.23-.06.32-.02.1-.04.19-.06.27-.02.08-.04.16-.05.24-.02.08-.03.15-.05.23-.02.08-.03.16-.05.24s-.03.18-.04.28l.12.14-.08.67Z"/><path class="cls-29" d="m692.63,781.68s.01.01.02,0c0-.01.02-.05.03-.1.01-.05.03-.12.04-.21.02-.09.03-.21.05-.35.02-.2.04-.36.05-.49,0-.13,0-.2,0-.21,0,0-.02.01-.03.06-.01.05-.02.11-.04.2s-.03.18-.04.29c-.02.11-.03.23-.04.34l-.04-.05c.03-.22.06-.43.08-.61.03-.19.05-.35.08-.48.02-.13.05-.23.07-.3.02-.07.04-.09.05-.08,0,.01.02.05.02.11,0,.06,0,.15,0,.26,0,.11-.01.24-.03.41-.01.16-.03.34-.06.55-.03.23-.06.43-.08.6-.03.17-.05.28-.07.35h0c0,.08,0,.23-.01.44-.02.22-.04.48-.08.78-.03.22-.05.41-.08.58-.03.17-.05.31-.07.42s-.04.19-.06.25-.03.07-.05.06c-.01-.02-.02-.07-.02-.16,0-.09,0-.21.01-.36.01-.15.03-.32.05-.53s.05-.42.07-.66l.04.05c-.03.28-.06.52-.07.71-.02.2-.01.3,0,.32.01.02.03-.04.06-.18s.06-.33.09-.59c.02-.18.04-.33.05-.44,0-.11.01-.19.01-.26s0-.1,0-.13-.01-.03-.02-.04l.07-.56Z"/><path class="cls-32" d="m681.34,760.71c-.26,2.14-.56,3.77-.68,3.64s0-1.97.27-4.1.56-3.77.68-3.64,0,1.97-.27,4.1Z"/><path class="cls-29" d="m680.83,765.25c-.23,1.92-.5,3.36-.61,3.25l-.51-.58c-.08-.09,0-1.33.18-2.77.18-1.45.38-2.55.46-2.47,0,.01.02.04.02.09.3-2.38.64-4.11.77-3.96.1.11.06,1.21-.09,2.76,0-.01,0,0,.01,0,.1.12,0,1.77-.24,3.68Z"/><path class="cls-5" d="m654.34,730.21l-.1-.11.08-.67.23.26-.08.68-.1-.11-.64,5.33-.04-.04.64-5.33Z"/><path class="cls-5" d="m653.65,737.13s0-.02,0-.03l.07-.59s0,.01,0,.02c0,0,0,.01,0,.02.01.01.03-.02.04-.09.02-.07.04-.23.08-.47l.03-.24.44-4.43.04.04-.39,3.85v-.18s.02.01.02.01l-.03.16.52-3.7.04.04-.64,4.51c-.04.27-.07.49-.1.65-.03.17-.05.29-.07.36-.02.07-.04.1-.05.09,0,0,0-.01,0-.02Z"/><path class="cls-5" d="m654.54,731.58l.04.04-.09.73h0c.03-.16.05-.3.07-.42s.04-.2.06-.25c.02-.06.03-.08.04-.07.02.02.02.13.02.33s-.03.47-.06.82c-.03.35-.08.75-.13,1.2h0c-.05.46-.11.85-.15,1.18-.05.33-.09.57-.13.74s-.06.24-.08.22c-.01-.01-.02-.06-.02-.13,0-.08,0-.18,0-.31,0-.13.02-.28.03-.45h0s-.26,2.18-.26,2.18l-.04-.04.7-5.79Zm-.3,3.73c.03-.12.05-.3.09-.53.03-.24.07-.52.11-.84h0c.04-.34.07-.63.1-.87.02-.25.04-.44.05-.58,0-.14,0-.22-.01-.23s-.03.04-.06.16c-.03.12-.06.3-.09.54-.03.23-.07.51-.11.84h0c-.04.33-.07.61-.09.86-.02.25-.04.44-.05.59,0,.14,0,.22,0,.24s.03-.04.06-.16Z"/><path class="cls-5" d="m654.31,736.03c0-.2.03-.47.06-.82.03-.34.08-.74.13-1.2h0c.05-.45.11-.84.15-1.17.05-.33.09-.58.13-.76.04-.17.07-.25.09-.23s.03.13.02.33c0,.2-.03.47-.06.8s-.07.72-.13,1.16l-.03.27-.18-.2.07-.57.16.18-.08.5.03-.28c.04-.34.07-.62.09-.84.02-.23.03-.4.04-.51,0-.12,0-.18-.01-.2s-.03.03-.05.13-.05.26-.08.48-.07.48-.11.81l-.03.28c-.04.31-.07.57-.09.79-.02.22-.03.4-.04.52,0,.13,0,.2.01.21,0,.01.02,0,.04-.06.01-.05.03-.12.05-.21.02-.09.03-.2.05-.32v-.04s.04.04.04.04v.04c-.03.18-.05.34-.08.49-.02.15-.05.28-.07.39-.02.11-.04.19-.06.24-.02.05-.03.07-.04.06-.02-.02-.03-.14-.02-.34Z"/><path class="cls-5" d="m655.29,730.52l.04.04-.29,2.37h0c.04-.24.07-.42.1-.54.03-.12.05-.17.07-.16s.02.11.01.27-.02.38-.05.65-.06.58-.1.93l-.32,2.66-.04-.04.31-2.53c.05-.39.08-.7.1-.94.02-.23.02-.36,0-.37-.01-.01-.03.03-.05.12-.02.1-.05.24-.07.42-.03.18-.06.4-.09.64l-.31,2.53-.04-.04.73-6.02Z"/><path class="cls-5" d="m654.86,736.65c0-.2.03-.47.06-.82.03-.34.08-.74.13-1.2h0c.05-.45.11-.84.15-1.17.05-.33.09-.58.13-.76.04-.17.07-.25.09-.23s.03.13.02.33c0,.2-.03.47-.06.8s-.07.72-.13,1.16l-.03.27-.18-.2.07-.57.16.18-.08.5.03-.28c.04-.34.07-.62.09-.84.02-.23.03-.4.04-.51,0-.12,0-.18-.01-.2s-.03.03-.05.13-.05.26-.08.48-.07.48-.11.81l-.03.28c-.04.31-.07.57-.09.79-.02.22-.03.4-.04.52,0,.13,0,.2.01.21,0,.01.02,0,.04-.06.01-.05.03-.12.05-.21.02-.09.03-.2.05-.32v-.04s.04.04.04.04v.04c-.03.18-.05.34-.08.49-.02.15-.05.28-.07.39-.02.11-.04.19-.06.24-.02.05-.03.07-.04.06-.02-.02-.03-.14-.02-.34Z"/><path class="cls-5" d="m655.54,732.71l.04.04-.09.73h0c.03-.25.06-.44.09-.57s.05-.2.06-.19c0,0,0,.01,0,.02,0,.01,0,.02,0,.03l-.09.71s0-.02,0-.04c0-.01,0-.02-.01-.03,0-.01-.02.02-.04.1s-.04.19-.06.34c-.02.15-.05.34-.07.56l-.32,2.68-.04-.04.52-4.34Z"/><path class="cls-5" d="m655.2,737.05c0-.2.03-.47.06-.82.03-.35.08-.74.13-1.2h0c.05-.45.11-.84.15-1.17.05-.33.09-.59.13-.76.04-.17.07-.25.09-.23s.03.13.02.33c0,.2-.03.47-.06.8s-.07.72-.13,1.16l-.03.27-.18-.2.07-.57.16.18-.08.5.03-.28c.04-.34.07-.62.09-.84.02-.23.03-.4.04-.51,0-.12,0-.18-.01-.2s-.03.03-.05.13-.05.26-.08.48-.07.48-.11.81l-.03.28c-.04.31-.07.57-.09.79-.02.22-.03.4-.04.52,0,.13,0,.2.01.21,0,.01.02,0,.04-.06.01-.05.03-.12.05-.21.02-.09.03-.2.05-.32v-.04s.04.04.04.04v.04c-.03.18-.05.34-.08.49-.02.15-.05.28-.07.39-.02.11-.04.19-.06.24-.02.05-.03.07-.05.06-.02-.02-.03-.14-.02-.34Z"/><path class="cls-5" d="m655.5,737.38c.01-.2.04-.51.09-.92l.32-2.64-.03-.04.07-.6.03.04.14-1.17.04.04-.14,1.17.04.05-.07.6-.04-.05-.32,2.63c-.03.23-.04.39-.05.48,0,.09,0,.14,0,.15,0,0,0,0,0,0,0,0,0,0,0,0l-.07.59s0,0-.01,0c0,0,0,0-.01,0-.02-.02-.02-.13-.01-.34Z"/><path class="cls-5" d="m655.63,737.54c0-.2.03-.48.06-.82.03-.35.08-.75.13-1.21h0c.06-.47.11-.87.16-1.19.05-.33.09-.57.13-.74.04-.16.07-.24.09-.21s.03.13.02.33c0,.2-.03.47-.06.82-.03.34-.08.75-.13,1.21h0c-.06.47-.11.87-.16,1.19s-.09.58-.13.74-.07.24-.09.21-.03-.13-.02-.34Zm.15-.46c.02-.12.05-.29.09-.53.03-.24.07-.52.11-.86h0c.04-.35.07-.64.1-.89.02-.24.04-.44.04-.57s0-.21-.01-.23-.03.04-.06.15c-.03.12-.05.29-.09.52-.03.23-.07.52-.11.86h0c-.04.35-.07.64-.1.89-.02.25-.04.44-.04.58,0,.14,0,.21.01.23s.03-.04.06-.15Z"/><path class="cls-5" d="m655.94,738.01c0-.12,0-.28.03-.49.02-.2.04-.44.07-.7v-.04s.04.04.04.04v.04c-.03.22-.04.4-.05.53,0,.13,0,.21.01.22.01.01.02,0,.04-.05.01-.04.03-.11.04-.2.02-.09.03-.2.05-.33h0c.02-.16.03-.29.04-.39,0-.1,0-.19,0-.26v-.21c-.02-.12-.02-.28,0-.49.01-.21.04-.47.08-.78h0c.03-.25.06-.47.09-.66.03-.19.06-.32.08-.42.03-.09.05-.13.06-.11s.02.09.02.22c0,.13-.01.29-.03.49s-.04.42-.07.67v.06s-.04-.04-.04-.04v-.03c.03-.21.04-.39.05-.53,0-.14,0-.21,0-.23,0-.01-.02,0-.03.05-.01.05-.03.11-.04.21-.02.09-.03.2-.05.33h0c-.02.15-.03.28-.04.39,0,.11,0,.2,0,.27v.21c.02.13.02.29,0,.49-.01.2-.04.45-.08.76h0c-.03.26-.06.48-.09.66s-.06.33-.09.42c-.03.1-.05.13-.06.11-.02-.02-.03-.09-.02-.21Z"/><path class="cls-5" d="m656.15,738.13c0-.2.03-.48.06-.82.03-.35.08-.74.13-1.2h0c.05-.45.11-.84.16-1.18.05-.33.09-.59.13-.76.04-.18.07-.25.09-.23s.03.13.02.33c0,.2-.03.47-.06.81s-.07.72-.13,1.16l-.03.27-.18-.2.07-.57.16.18-.08.51.03-.28c.04-.34.07-.62.09-.85.02-.23.03-.4.04-.51,0-.12,0-.18-.01-.2s-.03.03-.05.13-.05.26-.08.48-.07.48-.11.81l-.03.28c-.04.31-.07.57-.09.8-.02.22-.03.4-.04.53,0,.13,0,.2.01.21,0,.01.02,0,.04-.06.01-.05.03-.12.05-.21.02-.09.03-.2.05-.32v-.04s.04.04.04.04v.04c-.03.18-.05.34-.08.49-.02.15-.05.28-.07.39-.02.11-.04.19-.06.25-.02.05-.03.07-.05.06-.02-.02-.03-.14-.02-.34Z"/><path class="cls-5" d="m656.35,738.49c0-.12.01-.28.03-.49s.04-.44.07-.7h0c.04-.38.09-.67.13-.87s.08-.31.1-.31h.09s-.07.56-.07.56h-.09s-.04.06-.06.17-.05.27-.07.48h0c-.03.22-.04.39-.05.52s0,.21,0,.22c.01.01.03-.02.05-.11s.04-.21.07-.37c.03-.16.05-.35.08-.56l.15-1.28c.03-.27.05-.48.06-.64,0-.16,0-.25,0-.27-.01-.02-.03.03-.06.14s-.05.26-.07.46v.04s-.04-.04-.04-.04v-.05c.04-.24.07-.45.1-.64s.06-.33.09-.43c.03-.1.05-.14.07-.12s.03.09.02.23c0,.13-.01.31-.03.53-.02.22-.05.48-.08.77l-.36,3.01-.04-.04.09-.71h0c-.02.15-.05.29-.07.39-.02.11-.04.19-.06.25-.02.05-.03.08-.04.07-.01-.02-.02-.08-.02-.21Z"/><path class="cls-5" d="m657.06,734.44l.04.04-.09.74h0c.03-.25.06-.44.09-.58s.05-.2.06-.19c0,0,0,.01,0,.02,0,.01,0,.02,0,.03l-.09.71s0-.02,0-.04c0-.01,0-.02-.01-.03,0-.01-.02.02-.04.1s-.04.19-.06.34c-.02.15-.05.34-.07.56l-.32,2.69-.04-.04.53-4.35Z"/><path class="cls-5" d="m656.72,738.78c0-.2.03-.48.06-.83.03-.35.08-.75.13-1.21h0c.06-.46.11-.85.16-1.18.05-.33.09-.58.13-.74s.07-.24.09-.21c.02.02.03.11.02.26,0,.16-.02.35-.03.58-.02.23-.04.47-.07.72v.03s-.04-.04-.04-.04v-.03c.03-.22.04-.42.06-.59.01-.17,0-.27,0-.29-.01-.01-.03.04-.06.16-.03.12-.06.3-.09.53s-.07.52-.11.85h0c-.04.34-.07.63-.1.88-.02.25-.04.44-.04.58,0,.14,0,.22.01.23.02.02.04-.05.06-.19.03-.14.06-.33.09-.57v-.03s.04.04.04.04v.03c-.04.27-.07.52-.11.73-.04.21-.07.38-.1.49-.03.11-.05.16-.07.14-.02-.02-.03-.14-.02-.34Z"/><path class="cls-5" d="m657.61,733.14l.04.04-.29,2.38h0c.04-.24.07-.42.1-.54.03-.12.05-.18.07-.16s.02.11.01.27-.02.38-.05.65-.06.58-.1.94l-.32,2.67-.04-.04.31-2.54c.05-.39.08-.71.1-.94.02-.23.02-.36,0-.38-.01-.01-.03.03-.05.13-.02.1-.05.24-.07.42-.03.18-.06.4-.09.65l-.31,2.54-.04-.04.73-6.04Z"/><path class="cls-42" d="m653.31,733.36c-.09-.11.01-1.71.24-3.58.23-1.87.48-3.3.58-3.2s-.01,1.71-.24,3.58-.48,3.3-.58,3.2Z"/><line class="cls-38" x1="652.83" y1="734.56" x2="653.32" y2="732.07"/><path class="cls-20" d="m663.06,740.68l-.27-.31.3-2.51c.12-1,.26-1.77.31-1.71l.09.1c.05.06,0,.92-.13,1.92l-.3,2.51Z"/><path class="cls-31" d="m663.12,737.59l.56.63s0,.41-.06.86l-.82,6.81c-.06.51-.13.9-.16.87l-.51-.58s0-.47.06-.98l.92-7.61Z"/><path class="cls-15" d="m666.81,748.32l.51-5.75c-.17,1.09-.34,2.35-.5,3.65s-.3,2.6-.4,3.77-.17,2.16-.19,2.87,0,1.14.07,1.21l.84-5.37h0c-.09.54-.17.99-.23,1.28-.14.6-.21.51-.19-.22.01-.36.04-.85.09-1.44h0Z"/><path class="cls-6" d="m667.14,748.7l-.84,5.37c.07.08.17-.19.31-.77s.3-1.47.47-2.56c.17-1.09.34-2.35.5-3.65.16-1.3.3-2.6.4-3.77l-.33-.37h0s.05.25.04.61c-.01.36-.04.85-.09,1.44-.1,1.19-.28,2.6-.45,3.71h0Z"/><path class="cls-13" d="m666.85,749.59c.08.1.31-1.14.51-2.76s.29-3.02.2-3.11-.31,1.14-.51,2.77-.29,3.01-.2,3.11Z"/><path class="cls-19" d="m667.65,742.95l.33.37c.1-1.17.17-2.16.19-2.88.02-.72,0-1.13-.07-1.21-.07-.08-.18.19-.31.78-.14.59-.3,1.47-.47,2.56l-.51,5.75h0c.1-1.19.28-2.6.45-3.71.09-.55.17-.99.23-1.28s.12-.43.16-.39h0Z"/><path class="cls-34" d="m662.89,743.36l-.22-.25c-.04-.05-.17.61-.27,1.48l-.2,1.67.38.44.2-1.67c.1-.87.15-1.61.11-1.66Z"/><path class="cls-14" d="m668.38,751.95c-.02.09-.04.17-.06.23-.06.21-.12.29-.15.25-.14-.16-.04-2.16.25-4.56.08-.65.17-1.23.24-1.51-.14-.04-.48,2.48-.66,3.97-.51,4.23-.36,4.89-.32,4.94.02.03.07-.06.11-.17v-.02c.15-.45.35-1.44.57-2.8.02-.1.03-.25.03-.32,0-.05,0-.06-.01-.02h0Z"/><path class="cls-16" d="m667.66,754.44c.01-.35.04-.79.08-1.3.17-2.15.55-5.02.84-6.4.03-.14.06-.27.09-.37.02-.07.05-.21.07-.18.03.04.02.35-.01.83-.03.32-.06.7-.11,1.09,0-.01.63-4.48.32-4.83-.13-.15-.53,2.12-.78,4.21-.13,1.11-.26,2.22-.35,3.25-.33,3.46-.33,5.34,0,4.37-.11.31-.16.06-.13-.67h0Z"/><path class="cls-23" d="m668.44,749.3c0,.06-.03.13-.05.31-.02.15-.03.3-.04.43-.03.62.06.64.06.64.03.03.08-.1.15-.38.13-.57.31-1.68.46-2.93.16-1.28.24-2.17.27-2.56.23-2.45.26-3.97.11-4.13-.21-.23-.77,2.8-1.26,6.8.26-2.09.57-3.66.7-3.51.01.01.07.1.05.72-.01.55-.06,1.17-.11,1.78-.06.63-.15,1.41-.18,1.72s-.1.75-.16,1.11Z"/><path class="cls-3" d="m669.17,751.76c0,.06-.03.13-.05.31-.02.15-.03.3-.04.43-.03.62.06.64.06.64.03.03.08-.1.15-.38.13-.57.31-1.68.46-2.93.16-1.29.24-2.17.27-2.56.23-2.45.26-3.97.11-4.14-.21-.23-.77,2.8-1.26,6.81.26-2.09.57-3.66.7-3.52.01.01.07.1.05.72-.01.55-.06,1.17-.11,1.78-.06.63-.15,1.41-.18,1.72s-.1.76-.16,1.12Z"/><polygon class="cls-29" points="652.44 726.41 652.7 725.96 652.29 729.38 652.11 729.18 652.44 726.41"/><polygon class="cls-29" points="652.26 729.64 652.08 729.43 651.69 732.7 651.8 733.41 652.26 729.64"/><polygon class="cls-29" points="652.27 729.65 651.81 733.49 651.99 734.28 652.51 729.93 652.27 729.65"/><polygon class="cls-29" points="652.71 725.97 652.3 729.4 652.54 729.67 653.04 725.55 652.71 725.97"/><polygon class="cls-36" points="661.41 741.79 661.13 741.47 661.52 738.25 661.8 738.57 661.41 741.79"/><polyline class="cls-36" points="662.09 736.16 661.92 737.51 661.65 737.2 661.81 735.83"/><polyline class="cls-36" points="660.84 743.87 661 742.52 661.28 742.84 661.11 744.21"/><path class="cls-29" d="m661.88,739.34c-.06.46-.12.81-.14.78s0-.42.06-.88.12-.81.14-.78,0,.42-.06.88Z"/><line class="cls-36" x1="661.64" y1="740.94" x2="661.21" y2="744.48"/><line class="cls-36" x1="662.2" y1="736.27" x2="662.04" y2="737.64"/><path class="cls-29" d="m664.25,740.85l.7-2.72c.03-.11.05-.09.04.06l-.06,3.43-.68-.77Z"/><path class="cls-29" d="m664.03,749.02l-.68-.78.9-7.4-.16,6.51.19-2.9c.01-.18.05-.46.07-.56l.57-2.29-.9,7.41Z"/><path class="cls-41" d="m666.51,738.3h0c-.07-.08-.25.92-.41,2.22l-.2,1.62.24.27.2-1.62c.16-1.3.23-2.42.16-2.49Z"/><path class="cls-41" d="m666.47,739.08h0c-.07-.08-.25.92-.41,2.22l-.2,1.62.24.27.2-1.62c.16-1.3.23-2.42.16-2.49Z"/><path class="cls-29" d="m665.3,751l-.57-.66s0-.46.06-.96l.99-8.14.67.75-.99,8.15c-.06.5-.13.88-.16.85Z"/><polygon class="cls-28" points="665.57 745.98 665.45 745.84 665.75 743.36 665.87 743.5 665.57 745.98"/><polygon class="cls-27" points="665.71 746.14 665.58 746 665.89 743.52 666.01 743.66 665.71 746.14"/><polygon class="cls-33" points="665.24 748.74 665.11 748.6 665.41 746.12 665.54 746.26 665.24 748.74"/><polygon class="cls-30" points="665.38 748.9 665.25 748.76 665.55 746.28 665.68 746.42 665.38 748.9"/><polyline class="cls-40" points="684.45 768.14 685.07 764.89 684.82 768.57"/><path class="cls-40" d="m685.65,769.51l-.13-.15s0-.39.05-.81l.26-2.16c.05-.42.11-.74.13-.72l.13.15s0,.39-.05.81l-.26,2.16c-.05.42-.11.74-.13.72Z"/><path class="cls-40" d="m686.03,767.15s.11-.49.13-.58.02-.05,0,.12l-.31,2.57c-.02.15-.03.21-.03.12,0-.12.03-.69.03-.69l.19-1.53Z"/><path class="cls-40" d="m686.09,764.41c.09-.46.17-.71.22-.66s.05.39.03.91"/><path class="cls-40" d="m685.53,771.24c-.09.46-.17.71-.22.66s-.05-.39-.03-.91"/><polygon class="cls-40" points="686.26 771.24 686.68 771.73 687.24 767.12 686.82 766.64 686.26 771.24"/><polygon class="cls-29" points="686.38 770.59 686.73 770.99 687.12 767.77 686.77 767.38 686.38 770.59"/><polygon class="cls-40" points="686.91 770.12 686.88 770.09 687.04 768.75 687.07 768.79 686.91 770.12"/><path class="cls-29" d="m687.61,773.4c-.06.46-.12.81-.15.78s0-.42.06-.88.12-.81.15-.78,0,.42-.06.88Z"/><path class="cls-40" d="m687.17,773.7c.04-.38.09-.77.13-1.16.37-3.06.81-5.37.97-5.19.02.02.03.07.04.14"/><path class="cls-40" d="m687.27,773.82c.04-.38.08-.76.13-1.17.25-2.06.55-3.62.66-3.5.02.02.03.07.03.19"/><path class="cls-40" d="m687.38,773.94c.03-.34.07-.74.12-1.18.13-1.05.28-1.87.34-1.8.02.02.03.13.02.31"/><path class="cls-40" d="m689.33,767.61c0,.19-.02.42-.04.67-.14,1.97-.5,4.85-.81,6.44-.03.17-.06.31-.09.43"/><path class="cls-40" d="m689.14,768.58c0,.18-.01.38-.03.65-.09,1.32-.33,3.27-.54,4.34-.03.17-.06.31-.09.4"/><path class="cls-40" d="m688.94,769.63c0,.08,0,.26-.01.54-.05.68-.17,1.68-.28,2.24-.03.18-.06.29-.08.32"/><polygon class="cls-40" points="688.71 769.42 688.36 772.27 688.43 772.35 688.3 774.19 689.05 768.04 688.78 769.54 688.71 769.42"/><path class="cls-11" d="m689.7,774.93c-.13,1.05-.28,1.84-.33,1.78s0-.96.13-2.01.28-1.84.33-1.78,0,.96-.13,2.01Z"/><polyline class="cls-40" points="689.92 773.02 690.53 768.02 689.91 768.76 689.13 775.13 689.27 776.11"/><polyline class="cls-40" points="690.08 770.27 689.9 771.75 689.82 771.66"/><polyline class="cls-40" points="689.65 772.72 689.58 772.63 689.39 774.14"/><path class="cls-40" d="m689.91,771.56c.08-.73.11-1.31.08-1.35-.05-.05-.17.62-.28,1.49"/><path class="cls-40" d="m689.54,773.11c-.07.7-.09,1.18-.03,1.1"/><polygon class="cls-29" points="694.61 772.47 693.71 779.83 693.87 780.02 693.68 782.29 694.05 780.19 694.22 780.37 695.12 773.04 694.61 772.47"/><line class="cls-37" x1="694.47" y1="774.5" x2="694.78" y2="774.86"/><line class="cls-37" x1="694.24" y1="776.39" x2="694.55" y2="776.75"/><line class="cls-37" x1="694" y1="778.28" x2="694.32" y2="778.64"/><path class="cls-46" d="m694.26,781.87c-.31,2.53-.67,4.45-.81,4.3s0-2.34.31-4.86.67-4.45.81-4.3,0,2.33-.31,4.87Z"/><path class="cls-29" d="m693.82,784.06l-.18-.21c.05-.4.1-.75.15-1.04.05-.29.09-.54.14-.74.02-.11.05-.21.07-.31s.05-.21.07-.32c.02-.12.05-.25.07-.39.02-.14.05-.31.07-.5.01-.09.02-.18.03-.29.01-.1.02-.2.03-.29s.01-.17.01-.23c0-.07,0-.1-.01-.11,0,0-.02.01-.03.07-.01.06-.03.14-.05.24-.02.11-.04.23-.06.38s-.04.31-.06.48l-.04-.05c.03-.27.07-.52.1-.74.03-.23.06-.42.09-.58s.05-.28.08-.36c.02-.08.04-.12.06-.1.02.02.02.08.02.19,0,.11,0,.24-.02.4-.01.16-.03.33-.05.5-.02.18-.04.35-.06.5-.02.2-.05.37-.07.53-.02.15-.05.29-.07.42s-.04.24-.06.35c-.02.1-.04.2-.06.29s-.04.17-.06.25c-.02.08-.04.16-.05.24-.02.08-.03.17-.05.26s-.03.19-.05.29l.13.15-.09.71Z"/><path class="cls-10" d="m686.96,549.52l-2.8,21.54.58-2.25s0-.02,0-.03c.03-.07.02.14-.01.47l-.84,7.91.41-1.1.84-7.92s0-.07.01-.1c.04-.34.09-.64.11-.65l.36-.23,1.34-17.64h0Z"/><path class="cls-29" d="m685.66,567.72c.01-.12.03-.24.03-.34l1.5-19.76c.01-.18.01-.28,0-.24h0s-.06.25-.09.51l-3.14,24.09c-.04.34-.07.67-.06.74,0,.03.01.01.03-.04l.62-2.41-.82,7.77c-.04.34-.04.55-.02.49,0,0,0,0,0,0l.51-1.36c.03-.08.08-.41.11-.74l.82-7.8.39-.25s.07-.31.11-.65Zm-.4-.32s-.07.31-.11.65c0,.03,0,.07-.01.1l-.84,7.92-.41,1.1.84-7.91c.04-.34.04-.55.01-.47,0,0,0,.02,0,.03l-.58,2.25,2.8-21.54h0s-1.34,17.64-1.34,17.64l-.36.23Z"/><polygon class="cls-9" points="702.34 331.23 704.38 331.96 710.87 278.13 708.8 277.58 702.34 331.23"/><g class="cls-1"><path class="cls-25" d="m708.89,286.43c.23-1.91.33-3.49.23-3.52l-1.05-.29c-.1-.03-.37,1.5-.6,3.41-.23,1.91-.33,3.48-.23,3.51l1.04.3c.1.03.37-1.5.61-3.41"/><path class="cls-35" d="m708.94,285.71c.23-1.91.33-3.49.23-3.52l-1.05-.29c-.1-.03-.37,1.5-.6,3.41-.23,1.91-.33,3.48-.23,3.51l1.04.3c.1.03.37-1.5.61-3.41Z"/></g><polygon class="cls-35" points="707.59 288.91 708.02 289.04 708.86 282.11 708.43 281.99 707.59 288.91"/><g class="cls-43"><path class="cls-24" d="m708.72,284.19s.03-.14.06-.31.03-.32.02-.32-.03.14-.06.31-.03.32-.02.32"/><path class="cls-24" d="m708.51,285.92s.03-.14.06-.31.03-.32.02-.32-.03.14-.06.31-.03.32-.02.32"/><path class="cls-24" d="m708.3,287.65s.03-.14.06-.31.03-.32.02-.32-.03.14-.06.31-.03.32-.02.32"/><path class="cls-24" d="m708.83,284.22s.03-.14.06-.31.03-.32.02-.32-.03.14-.06.31-.03.32-.02.32"/><path class="cls-24" d="m708.62,285.95s.03-.14.06-.31.03-.32.02-.32-.03.14-.06.31-.03.32-.02.32"/><path class="cls-24" d="m708.41,287.68s.03-.14.06-.31.03-.32.02-.32-.03.14-.06.31-.03.32-.02.32"/><path class="cls-24" d="m708.93,284.25s.03-.14.06-.31.03-.32.02-.32-.03.14-.06.31-.03.32-.02.32"/><path class="cls-24" d="m708.73,285.98s.03-.14.06-.31.03-.32.02-.32-.03.14-.06.31-.03.32-.02.32"/><path class="cls-24" d="m708.52,287.71s.03-.14.06-.31.03-.32.02-.32-.03.14-.06.31-.03.32-.02.32"/><path class="cls-24" d="m708.08,284.01s.03-.14.06-.31.03-.32.02-.32-.03.14-.06.31-.03.32-.02.32"/><path class="cls-24" d="m707.87,285.74s.03-.14.06-.31.03-.32.02-.32-.03.14-.06.31-.03.32-.02.32"/><path class="cls-24" d="m707.66,287.47s.03-.14.06-.31.03-.32.02-.32-.03.14-.06.31-.03.32-.02.32"/><path class="cls-25" d="m705.74,325.82c.23-1.91.33-3.49.23-3.53l-1.04-.36c-.1-.04-.37,1.48-.6,3.39s-.33,3.48-.23,3.52l1.04.37c.1.04.37-1.48.6-3.39"/><path class="cls-35" d="m705.79,325.1c.23-1.91.33-3.49.23-3.53l-1.04-.36c-.1-.04-.37,1.48-.6,3.39-.23,1.91-.33,3.48-.23,3.52l1.04.37c.1.04.37-1.48.6-3.39Z"/><polygon class="cls-35" points="704.45 328.23 704.88 328.38 705.71 321.47 705.28 321.32 704.45 328.23"/><path class="cls-24" d="m704.71,323.25s.03-.14.06-.31.03-.32.02-.32-.03.14-.06.31-.03.32-.02.32"/><path class="cls-24" d="m704.51,324.98s.03-.14.06-.31.03-.32.02-.32-.03.14-.06.31-.03.32-.02.32"/><path class="cls-24" d="m704.3,326.71s.03-.14.06-.31.03-.32.02-.32-.03.14-.06.31-.03.32-.02.32"/><path class="cls-24" d="m704.82,323.29s.03-.14.06-.31.03-.32.02-.32-.03.14-.06.31-.03.32-.02.32"/><path class="cls-24" d="m704.61,325.02s.03-.14.06-.31.03-.32.02-.32-.03.14-.06.31-.03.32-.02.32"/><path class="cls-24" d="m704.4,326.75s.03-.14.06-.31.03-.32.02-.32-.03.14-.06.31-.03.32-.02.32"/><path class="cls-24" d="m704.93,323.33s.03-.14.06-.31.03-.32.02-.32-.03.14-.06.31-.03.32-.02.32"/><path class="cls-24" d="m704.72,325.06s.03-.14.06-.31.03-.32.02-.32-.03.14-.06.31-.03.32-.02.32"/><path class="cls-24" d="m704.51,326.79s.03-.14.06-.31.03-.32.02-.32-.03.14-.06.31-.03.32-.02.32"/></g><path class="cls-29" d="m705.25,312.1h.03s.02.06.01.14c0,.08-.01.2-.03.36-.01.11-.03.2-.04.27-.01.07-.02.12-.03.13h0s0,.08,0,.15c0,.07-.02.17-.03.3-.02.17-.04.3-.06.39-.02.09-.03.13-.04.13h-.03s.22-1.88.22-1.88Zm-.09.83h.02s.02-.02.03-.07c.01-.06.02-.15.04-.27s.02-.22.03-.27c0-.06,0-.09-.01-.09h-.02s-.09.71-.09.71Zm-.01.11l-.1.81h.02s.04-.12.08-.4c.03-.26.04-.39.02-.39h-.02Zm0,.98s-.01-.07,0-.19c0-.13.03-.3.05-.52s.05-.4.07-.53c.02-.13.04-.2.05-.19,0,0,0,.06,0,.18,0,.12-.02.27-.05.47v.1s-.07-.02-.07-.02c-.02.19-.04.34-.05.44,0,.1,0,.15,0,.16,0,0,0,0,.01-.01,0,0,.01-.03.02-.07v.11s-.03.05-.03.07,0,.02-.01.01Zm.16-1.33s-.02.04-.03.13c-.01.09-.03.21-.05.38l.05.02c.02-.16.03-.29.04-.38,0-.09,0-.14,0-.14Zm-.03,1.35l.02-.22h0c-.01.09-.03.15-.03.19,0,.04-.02.05-.02.05,0,0,0-.04,0-.11,0-.07.01-.17.03-.29.02-.14.03-.24.05-.31.02-.07.03-.11.04-.11h.02s.01-.09.01-.09c.02-.13.03-.23.03-.3,0-.07,0-.1,0-.11,0,0-.02.03-.03.1v-.11c.03-.07.04-.1.05-.1s0,.04,0,.12-.02.2-.04.37l-.11.92h0Zm-.02-.1s.02-.04.03-.12c.01-.08.03-.2.05-.35l.02-.14h-.01s-.02.04-.03.09c-.01.05-.02.13-.04.24-.01.09-.02.15-.02.2,0,.05,0,.07,0,.08Zm.26-1.15h-.02s-.15,1.27-.15,1.27h0s.15-1.28.15-1.28h-.01s0-.08,0-.08l.02-.04v-.11c.03-.17.05-.29.06-.37.01-.08.02-.12.03-.11,0,0,0,.01,0,.04v.11s-.02-.03-.02-.04c0,0-.01.03-.02.08,0,.06-.02.15-.04.28l-.02.13h.02s-.01.12-.01.12Zm-.13,1.28h0s.24-1.99.24-1.99h0s-.24,1.99-.24,1.99Zm.2-1.38l-.11.9c-.02.14-.03.24-.03.31,0,.06,0,.1,0,.1,0,0,.02-.04.03-.12.01-.08.03-.22.06-.41l.09-.77h0s-.17,1.39-.17,1.39h0s.02-.19.02-.19h0c-.02.14-.04.21-.05.21-.02,0,0-.18.04-.52l.11-.91h0Zm.13.16h-.02s-.15,1.27-.15,1.27h0s.15-1.28.15-1.28h-.01s0-.08,0-.08l.02-.04v-.11c.03-.17.05-.29.06-.37.01-.08.02-.12.03-.11,0,0,0,.01,0,.04v.11s-.02-.03-.02-.04c0,0-.01.03-.02.08,0,.06-.02.15-.04.28l-.02.13h.02s-.01.12-.01.12Zm.06-.37s0-.04.01-.13.02-.12.02-.12c0,0,0,.01,0,.03,0,.02,0,.05,0,.09s0,.07-.01.09c0,.02,0,.03,0,.03h0Zm-.2,1.65h0s.17-1.39.17-1.39h0s-.17,1.39-.17,1.39Zm.25-1.36v.09s-.03.01-.03.01c0,.1-.02.2-.03.32-.02.13-.03.24-.05.32-.01.08-.03.12-.03.12,0,0,0,0,0-.01,0,.03-.01.06-.02.09,0,.04-.01.07-.02.11,0,.04,0,.08,0,.1,0,.02,0,.03,0,.03h.01s.01.04,0,.1c0,.06-.01.15-.03.27-.02.15-.03.26-.05.34-.02.08-.03.11-.04.11,0,0-.01-.04,0-.11,0-.07.01-.16.03-.28.01-.1.02-.17.03-.24.01-.06.02-.1.03-.12,0-.02,0-.04,0-.08,0-.03,0-.07.01-.11.01-.09.02-.17.04-.24,0-.03,0-.09,0-.16,0-.07.01-.15.03-.25.02-.14.03-.25.05-.33.01-.08.03-.12.03-.12,0,0,0,.01,0,.03h.02Zm-.2,1.31s-.03.09-.06.29-.03.29-.01.29c.02,0,.04-.11.07-.34.01-.08.02-.14.02-.18,0-.04,0-.06,0-.06h-.01Zm.09-.9c-.01.11-.02.19-.02.25,0,.06,0,.09,0,.09,0,0,.01-.03.03-.08.01-.06.02-.14.04-.25.01-.12.02-.21.03-.27,0-.06,0-.09,0-.09s-.01.03-.03.09-.02.15-.04.26Zm0,1l.11-.9c.02-.14.03-.24.03-.31,0-.06,0-.1,0-.1,0,0-.02.04-.03.12-.01.08-.03.22-.06.41l-.09.77h0s.24-1.99.24-1.99h0s-.08.63-.08.63l-.02.18h0c.01-.08.02-.14.03-.18,0-.04.02-.05.02-.05.02,0,0,.18-.04.52l-.11.91h0Zm.06-.07s0,0,.01-.02v.1s-.02.03-.03.03c0,0,0-.04,0-.1,0-.07.02-.17.03-.31l.11-.9h-.01s0-.08,0-.08l.02-.05.04-.31h0s-.04.34-.04.34h.02s-.01.12-.01.12h-.02s-.11.87-.11.87c-.01.11-.02.19-.03.24,0,.05,0,.08,0,.08Zm.04.13s-.01-.07,0-.19c0-.13.03-.3.05-.53s.05-.4.07-.53c.02-.13.04-.2.05-.19,0,0,0,.06,0,.18,0,.12-.02.27-.05.47v.1s-.07-.02-.07-.02c-.02.19-.04.34-.05.44,0,.1,0,.15,0,.16,0,0,0,0,.01-.01,0,0,.01-.03.02-.07v.11s-.03.05-.03.07,0,.02-.01.01Zm.16-1.33s-.02.04-.03.13c-.02.09-.03.21-.05.38l.05.02c.02-.16.03-.29.04-.38,0-.09,0-.14,0-.14Zm.09-.09s0,0,0,.02l-.02.12s0-.02,0-.02c0,0-.02.05-.03.15-.02.1-.03.23-.05.38l-.09.77h0s.17-1.39.17-1.39h0s-.03.25-.03.25h0c.02-.1.03-.17.04-.21,0-.04.02-.06.02-.06Z"/><path class="cls-29" d="m704.68,317.11l.1-.93c0-.06.02-.16.03-.28h0s-.01.09-.01.09l-.03.18-.13.92h0s.15-1.4.15-1.4h0s-.08.81-.08.81c-.02.2-.04.35-.05.44h0c.03-.2.04-.33.05-.39l.12-.84h0s-.09.85-.09.85c-.02.2-.03.33-.04.4h0c0-.05.03-.2.06-.44l.11-.79h0s-.19,1.38-.19,1.38h0Z"/><path class="cls-29" d="m704.94,315.35c0-.08.02-.12.02-.12,0,0,0,.01,0,.03,0,.02,0,.05,0,.09s0,.07-.01.09c0,.02,0,.03,0,.03,0,0,0-.04.01-.13Zm-.21,1.77h0s.17-1.39.17-1.39h0s-.17,1.39-.17,1.39Z"/><path class="cls-29" d="m704.79,317.05s0,0,.01-.02v.1s-.02.03-.03.03c0,0,0-.04,0-.1,0-.07.02-.17.03-.31l.11-.9h-.01s0-.08,0-.08l.02-.05.04-.31h0s-.04.34-.04.34h.02s-.01.12-.01.12h-.02s-.11.87-.11.87c-.01.11-.02.19-.03.24,0,.05,0,.08,0,.08Z"/><path class="cls-29" d="m704.86,317.17l.11-.9c.02-.14.03-.24.03-.31,0-.06,0-.1,0-.1,0,0-.02.04-.03.12-.01.08-.03.22-.06.41l-.09.77h0s.24-1.99.24-1.99h0s-.08.63-.08.63l-.02.18h0c.01-.08.02-.14.03-.18,0-.04.02-.05.02-.05.02,0,0,.18-.04.52l-.11.91h0Z"/><path class="cls-29" d="m704.97,317.21l.15-1.47h0c-.04.3-.06.5-.07.6l-.1.87h-.02s.22-1.87.22-1.87h.03s-.15,1.44-.15,1.44h0s.2-1.42.2-1.42h.03s-.22,1.88-.22,1.88h-.02s.11-.89.11-.89c0-.04.01-.09.02-.14,0-.05.02-.2.05-.43h0s-.2,1.45-.2,1.45h-.02Z"/><path class="cls-29" d="m705.09,317.27s-.01-.07,0-.2c0-.13.03-.31.05-.54s.05-.42.08-.55c.02-.13.04-.19.05-.19s.01.06,0,.18-.02.28-.05.48l-.02.19-.05-.02c-.01.11-.02.2-.03.26,0,.06,0,.1,0,.1,0,0,.01,0,.02-.02s.01-.04.02-.08l-.04.3s-.01.06-.02.07c0,.02-.01.02-.02.02Zm.14-1.2s-.01.02-.02.08c0,.05-.02.13-.03.22h.03c.01-.09.02-.16.02-.21,0-.05,0-.08,0-.08Z"/><path class="cls-29" d="m705.16,317.3s0-.07,0-.2c.01-.13.03-.31.06-.54s.05-.42.07-.54c.02-.13.04-.19.05-.19,0,0,0,.08,0,.22h0c.01-.11.02-.2.03-.28l.06-.46h.02s-.24,1.99-.24,1.99h-.02s.02-.19.02-.19h0c-.02.14-.04.21-.05.2Zm.04-.31s.01-.03.02-.08c0-.06.02-.15.04-.29v-.04c.02-.15.04-.26.04-.33,0-.07,0-.1,0-.1,0,0-.01.03-.02.11-.01.07-.03.18-.04.32s-.03.25-.03.32c0,.07,0,.11,0,.11Z"/><path class="cls-29" d="m705.45,315.5c.02-.13.03-.19.03-.19s0,.07-.01.19c0,.06-.01.11-.02.14,0,.03-.01.05-.01.05,0,0,0-.07.01-.2Zm-.19,1.8h-.02s.17-1.43.17-1.43h.02s-.17,1.43-.17,1.43Z"/><path class="cls-29" d="m705.3,317.34s0-.26.05-.74c.03-.24.05-.43.08-.55.02-.13.04-.19.05-.18,0,0,.01.04.01.11l-.04.3s0-.05,0-.06c0-.02,0-.03,0-.03-.01,0-.03.14-.07.43s-.05.42-.03.42c0,0,0,0,.01-.03s.01-.05.02-.09l-.04.33s-.02.07-.02.08-.01.02-.02.02Z"/><path class="cls-29" d="m705.39,317.35l.02-.2h0c-.01.08-.02.14-.03.17,0,.03-.01.04-.02.04,0,0,0-.04,0-.12,0-.08.02-.19.03-.34s.03-.26.05-.33c.01-.07.03-.11.04-.11h.01s0-.07,0-.07c.02-.14.02-.22.01-.22,0,0-.02.03-.03.1l.02-.27c.02-.08.03-.12.05-.12s.01.05,0,.13c0,.09-.02.21-.04.38l-.11.95h-.01Zm.07-.66h0s-.01.02-.02.06c0,.04-.02.09-.03.17-.01.11-.02.17,0,.17,0,0,.01-.02.02-.07,0-.05.02-.12.03-.21v-.12Z"/><path class="cls-29" d="m705.65,315.92s0,0,0,.01l-.05.36s0-.01,0-.01c0,0-.02.03-.03.09-.01.06-.02.15-.04.27l-.09.73h-.02s.17-1.43.17-1.43h.02s-.03.25-.03.25h0c.01-.08.02-.14.03-.19,0-.05.02-.07.02-.07Z"/><path class="cls-29" d="m705.53,317.42s-.01-.07,0-.2c0-.13.03-.31.05-.54s.05-.42.08-.55c.02-.13.04-.19.05-.19s.01.06,0,.18-.02.28-.05.48l-.02.19-.05-.02c-.01.11-.02.2-.03.26,0,.06,0,.1,0,.1,0,0,.01,0,.02-.02s.01-.04.02-.08l-.04.3s-.01.06-.02.07c0,.02-.01.02-.02.02Zm.14-1.2s-.01.02-.02.08c0,.05-.02.13-.03.22h.03c.01-.09.02-.16.02-.21,0-.05,0-.08,0-.08Z"/><polygon class="cls-24" points="706.56 299.71 707.79 300.09 708.58 293.54 707.35 293.18 706.56 299.71"/><path class="cls-29" d="m706.92,298.27l.04-.09.39-3.26v-.1s.05-.55.05-.55l.2.06-.15,1.24h-.04s.06-.55.06-.55l-.08-.02-.15,1.25.09.03-.08.7-.09-.03-.15,1.25.02.1-.07.55-.1-.03.07-.55Z"/><path class="cls-29" d="m707.73,294.38s.04.13.02.37c-.01.24-.04.57-.09.99-.03.23-.05.43-.08.59-.03.17-.05.3-.08.4,0,.08,0,.22-.02.4-.02.19-.04.42-.07.69l-.03.23c-.01.1-.02.18-.02.23,0,.06,0,.09,0,.1v.02s-.06.55-.06.55h-.03s-.02-.1,0-.26c.01-.16.03-.37.06-.62l.03-.26c.03-.22.04-.39.05-.52,0-.13,0-.2,0-.21h-.04s-.14,1.19-.14,1.19l.02.1-.07.55-.1-.03.07-.55.04-.09.39-3.26v-.1s.05-.55.05-.55h.03s.08.03.08.03Zm-.28,1.99h.03s.03-.04.05-.14c.02-.11.04-.26.07-.46s.04-.37.05-.49c0-.12,0-.19,0-.19h-.03s-.16,1.29-.16,1.29Z"/><path class="cls-29" d="m707.71,297.01l-.08-.03-.16,1.3.08.02.07-.54h.04s-.15,1.25-.15,1.25l-.19-.06.07-.55.04-.09.39-3.26v-.1s.05-.55.05-.55h.03s.17.06.17.06l-.15,1.25h-.04s.06-.55.06-.55l-.08-.02-.14,1.14.08.02-.08.7Z"/><path class="cls-29" d="m707.93,297.08l-.08-.03-.16,1.3.08.02.07-.54h.04s-.15,1.25-.15,1.25l-.19-.06.07-.55.04-.09.39-3.26v-.1s.05-.55.05-.55h.03s.17.06.17.06l-.15,1.25h-.04s.06-.56.06-.56l-.08-.02-.14,1.14.08.03-.08.7Z"/><path class="cls-29" d="m705.7,304.91l.04-.09.39-3.25v-.1s.05-.55.05-.55l.2.06-.15,1.24h-.04s.06-.55.06-.55l-.08-.02-.15,1.25.09.03-.08.7-.09-.03-.15,1.25v.1s-.05.54-.05.54l-.1-.03.07-.54Z"/><path class="cls-29" d="m705.85,305.52l.07-.54.04-.09.39-3.25v-.1s.05-.55.05-.55h.03s.05.02.05.02h.03s-.07.56-.07.56l-.04.09-.39,3.2.07.02.07-.57h.04s-.15,1.28-.15,1.28l-.18-.06Z"/><path class="cls-29" d="m706.69,301.08l-.07.55-.04.09-.29,2.37c-.04.3-.06.52-.07.68,0,.15,0,.23,0,.23s.04-.07.06-.21c.03-.14.06-.37.09-.67l.29-2.37v-.1s.05-.55.05-.55l.1.03-.07.55-.04.09-.29,2.37c-.06.51-.12.9-.17,1.17-.05.27-.09.4-.12.39s-.04-.15-.02-.44c.02-.28.05-.68.11-1.19l.29-2.37v-.1s.05-.55.05-.55h.03s.05.02.05.02h.03Z"/><path class="cls-29" d="m706.95,302.66h-.04s.07-.64.07-.64c0-.05,0-.1,0-.14,0-.04-.01-.06-.02-.06-.01,0-.03.05-.05.15-.02.1-.04.24-.06.4-.02.15-.03.28-.03.38,0,.1,0,.21,0,.33.01.15,0,.34,0,.57-.01.23-.04.54-.09.91s-.09.69-.14.91c-.04.22-.08.32-.11.32-.02,0-.03-.07-.03-.19s0-.28.02-.49l.11-.95h.04s-.07.66-.07.66c0,.08,0,.14,0,.19,0,.05,0,.08.02.08.01,0,.03-.04.05-.14.02-.1.04-.23.06-.41s.03-.32.04-.42,0-.21,0-.31c-.01-.16-.01-.36,0-.58.01-.22.04-.51.08-.89s.09-.67.13-.89.08-.34.11-.34c.02,0,.03.06.03.17s0,.26-.01.44l-.11.93Z"/><path class="cls-29" d="m707.08,301.77l.07-.55.1.03-.07.55-.04.09-.16,1.31.1.03.16-1.31-.02-.1.07-.55h.03s.05.02.05.02h.03s-.07.56-.07.56l-.04.09-.39,3.26.02.1-.07.55-.1-.03.07-.55.04-.09.15-1.25-.1-.03-.15,1.25.02.1-.07.55-.1-.03.07-.55.04-.09.39-3.26v-.1Z"/><path class="cls-29" d="m707.36,303.68c-.08.67-.16,1.21-.23,1.64-.07.43-.13.64-.16.63s-.03-.24,0-.68c.03-.44.09-.99.17-1.66v-.07c.09-.66.16-1.21.24-1.64.07-.43.13-.64.16-.63s.03.24,0,.68c-.03.44-.09,1-.17,1.66v.07Zm-.04-.09c.06-.47.1-.85.12-1.15.02-.3.03-.45,0-.45s-.05.13-.1.42c-.05.29-.1.67-.15,1.14v.07c-.07.48-.11.87-.13,1.16-.02.3-.03.45,0,.45s.05-.13.1-.42c.05-.29.1-.67.16-1.15v-.07Z"/><path class="cls-29" d="m707.87,301.44l-.15,1.21h-.04s.06-.52.06-.52h-.05s-.39,3.19-.39,3.19l.02.1-.07.55-.1-.03.07-.55.04-.09.39-3.2h-.05s-.06.49-.06.49h-.04s.15-1.22.15-1.22l.22.07Z"/><line class="cls-39" x1="705.88" y1="308.96" x2="706.28" y2="309.08"/><g class="cls-44"><path class="cls-7" d="m704.08,319.92c.07-1.01-.02-1.04-.19-.07.07-1.01-.02-1.04-.19-.07-.17.97-.37,2.57-.43,3.58l-.24,3.64.62-3.51c.17-.97.37-2.57.43-3.58"/><path class="cls-25" d="m703.47,326.29c.03-.49-.01-.51-.09-.03.03-.49-.01-.51-.09-.03-.08.47-.18,1.25-.21,1.75l-.12,1.78.3-1.71c.08-.47.18-1.25.21-1.75"/><path class="cls-25" d="m704.46,316.19c.02-.32,0-.32-.06-.02.02-.32,0-.32-.06-.02-.05.3-.11.81-.14,1.12l-.07,1.14.2-1.1c.05-.3.11-.81.14-1.12"/><path class="cls-7" d="m710.15,280.7c.05-.78-.02-.8-.15-.04.05-.78-.02-.8-.15-.04s-.28,2-.33,2.78l-.18,2.82.49-2.74c.13-.76.28-2,.34-2.78"/><path class="cls-25" d="m710.21,282.69c.03-.52-.01-.53-.1-.03.03-.52-.01-.53-.1-.03-.09.5-.19,1.33-.22,1.85l-.12,1.87.32-1.82c.09-.5.19-1.33.22-1.85"/><path class="cls-7" d="m709.46,288.07c.02-.32,0-.33-.06-.02.02-.32,0-.33-.06-.02-.06.31-.12.83-.14,1.15l-.08,1.17.2-1.14c.06-.31.12-.83.14-1.15"/></g><path class="cls-47" d="m704.47,319.55s.03.07.03.18c0,.12,0,.27-.02.45-.01.19-.03.39-.06.63-.02.23-.05.48-.08.73s-.06.48-.09.72c-.03.23-.06.44-.1.62-.03.18-.06.32-.09.43-.03.11-.05.16-.07.15l-.08-.03-.26,2.18-.07-.03.73-6.09.15.05Zm-.36,2.86s.02,0,.03-.03c.01-.02.02-.06.04-.13.01-.06.03-.15.05-.27.02-.12.04-.27.06-.47s.04-.35.05-.47c.01-.12.02-.21.02-.28,0-.07,0-.11,0-.14,0-.03-.01-.04-.02-.04l-.06-.02-.22,1.82.06.02Z"/><path class="cls-47" d="m704.79,319.66s.03.08.04.21c0,.13,0,.32-.02.58-.02.25-.04.57-.08.95-.04.38-.09.82-.15,1.33-.05.44-.11.85-.16,1.23s-.1.69-.15.96c-.05.27-.09.48-.12.63-.04.15-.07.22-.09.21l-.14-.05.73-6.09.14.05Zm-.6,4.96s.02-.02.04-.08c.02-.06.04-.16.06-.3.03-.14.05-.33.09-.56.03-.23.07-.51.11-.85.04-.31.07-.58.1-.83.03-.25.05-.46.06-.64.01-.18.02-.32.02-.42,0-.1-.01-.15-.03-.16l-.05-.02-.46,3.84.06.02Z"/><path class="cls-47" d="m705.24,319.81l-.14,1.13-.16-.05-.17,1.41.14.05-.13,1.04-.14-.05-.3,2.52-.07-.03.73-6.09.23.08Z"/><g class="cls-48"><path class="cls-29" d="m701.89,336.09l-.56,5.66.79-5.58.07.02-.81,6.69-.05-.02.67-5.57h0s-.78,5.52-.78,5.52l-.04-.02.56-5.61h0s-.67,5.56-.67,5.56l-.05-.02.81-6.69.07.02Z"/><path class="cls-29" d="m701.67,342.68c-.05.27-.09.4-.12.39-.02,0-.03-.08-.03-.21,0-.13,0-.31.02-.54s.04-.5.07-.81c.03-.31.07-.66.11-1.02.04-.37.09-.71.13-1.01.04-.3.08-.57.12-.79s.07-.39.1-.51c.03-.12.05-.18.07-.17.02,0,.03.1.03.29,0,.18-.02.41-.05.69-.02.28-.05.58-.09.91-.04.33-.07.64-.11.93l-.2-.07c-.03.21-.05.41-.07.61s-.04.36-.05.51c-.01.15-.02.27-.02.36,0,.09,0,.14.02.15.02,0,.04-.06.07-.22.03-.15.07-.39.11-.7l.04.02c-.07.54-.13.95-.19,1.21Zm.36-3.12c.02-.17.03-.32.04-.44s.01-.22.01-.3,0-.12-.02-.12-.03.03-.04.1-.04.16-.06.29c-.02.12-.04.27-.07.43-.02.16-.05.34-.07.53l.15.06c.02-.19.04-.37.06-.54Z"/><path class="cls-29" d="m701.91,343.09l.08-.66h0c-.04.27-.07.46-.1.57s-.05.17-.07.16c-.02,0-.03-.08-.03-.23,0-.14.01-.33.03-.57s.04-.51.07-.81.07-.63.11-.98.08-.67.12-.97c.04-.3.08-.57.12-.79s.07-.4.1-.53.06-.19.08-.18c0,0,.01.02.02.05,0,.03,0,.07,0,.14,0,.06,0,.14,0,.24s-.01.22-.03.37h0s.3-2.5.3-2.5l.04.02-.81,6.7-.04-.02Zm.05-1.78c-.02.22-.04.41-.05.58-.01.17-.02.31-.02.41,0,.1,0,.16.02.16.01,0,.03-.04.06-.14s.05-.24.08-.41c.03-.17.06-.36.08-.58.03-.22.06-.44.08-.66.03-.24.05-.47.08-.69.02-.22.04-.42.06-.59.01-.17.02-.31.02-.42,0-.11,0-.16-.02-.17s-.03.04-.06.15-.05.24-.08.41c-.03.17-.06.37-.09.6s-.06.45-.09.69c-.03.23-.05.45-.07.66Z"/><path class="cls-29" d="m702.71,337.41l.12-.98.04.02-.12.98-.04-.02Zm-.06.89l-.58,4.85-.04-.02.58-4.85.04.02Z"/><path class="cls-29" d="m702.77,339.23c0-.17,0-.26-.01-.27-.02,0-.03.04-.06.15s-.05.24-.08.41c-.03.17-.06.37-.09.6-.03.23-.06.46-.09.71-.03.23-.05.44-.07.66s-.04.41-.06.57-.02.3-.02.41c0,.1,0,.16.02.16.02,0,.05-.09.09-.29.04-.2.08-.49.13-.86l.04.02c-.08.6-.15,1.06-.2,1.38-.06.32-.1.47-.14.46-.02,0-.03-.07-.03-.2s0-.3.02-.52.04-.49.07-.79.07-.64.11-1,.09-.7.13-1.02.08-.59.12-.82c.04-.23.07-.41.11-.54.03-.13.06-.19.08-.18.01,0,.02.04.03.11,0,.07,0,.18,0,.32,0,.14-.02.32-.04.53s-.04.46-.08.75l-.04-.02c.03-.31.06-.55.06-.72Z"/><path class="cls-29" d="m702.64,343.35c-.02.08-.03.12-.05.11-.01,0-.01-.07,0-.18,0-.12.03-.31.06-.57-.04.26-.08.44-.11.55-.03.11-.05.16-.07.15-.01,0-.02-.03-.02-.09,0-.05,0-.14,0-.25s.02-.25.03-.42c.02-.17.04-.38.07-.63.03-.28.06-.5.09-.67.03-.17.05-.31.07-.42s.04-.19.06-.24c.02-.05.03-.09.05-.13.02-.04.03-.07.05-.09.01-.02.03-.05.04-.08s.03-.09.04-.17c.01-.08.03-.19.05-.34.02-.18.04-.32.05-.43,0-.11.01-.19.02-.25,0-.06,0-.1,0-.12s-.01-.03-.02-.04c-.02,0-.04.05-.07.18-.03.12-.06.36-.11.72l-.04-.02c.04-.3.07-.55.1-.76s.06-.37.08-.49.05-.21.07-.26.04-.07.05-.07c.01,0,.02.02.03.06,0,.04.01.1,0,.2,0,.1-.01.24-.03.42-.02.18-.04.41-.07.69l-.3,2.49c-.02.19-.04.33-.05.41s-.01.13,0,.14c0,0,0,0,.02-.03l-.07.62Zm.23-2.52c-.01.07-.03.13-.04.16-.01.03-.03.06-.04.07-.01.02-.02.04-.04.06-.01.02-.03.07-.04.13s-.03.15-.05.26-.04.27-.06.47c-.02.13-.03.24-.04.33,0,.09-.01.17-.02.22,0,.06,0,.1,0,.13,0,.03,0,.04.01.04.01,0,.03-.03.05-.09.02-.07.04-.15.06-.26.02-.11.04-.22.06-.35.02-.13.03-.25.05-.36l.1-.81Z"/><path class="cls-29" d="m703.3,338.54l-.12,1.02h0c.06-.39.11-.68.14-.86s.07-.26.09-.24l-.1.85s-.04.03-.06.12-.05.21-.08.37-.06.37-.09.61-.07.52-.11.83l-.26,2.16-.04-.02.59-4.86.04.02Z"/><path class="cls-29" d="m703.06,343.21c-.05.27-.09.4-.12.39-.02,0-.03-.08-.03-.21,0-.13,0-.31.02-.54s.04-.5.07-.82c.03-.31.07-.66.11-1.03.04-.37.09-.71.13-1.01.04-.3.08-.57.12-.79s.07-.39.1-.51c.03-.12.05-.18.07-.17.02,0,.03.11.03.29,0,.18-.02.42-.05.7-.02.28-.05.58-.09.91-.04.33-.07.64-.11.93l-.2-.07c-.03.21-.05.42-.07.61s-.04.36-.05.51c-.01.15-.02.27-.02.36,0,.09,0,.14.02.15.02,0,.04-.06.07-.22.03-.15.07-.39.11-.71l.04.02c-.07.54-.13.95-.19,1.22Zm.37-3.12c.02-.17.03-.32.04-.44s.01-.22.01-.3,0-.12-.02-.12-.03.03-.04.1-.04.16-.06.29c-.02.12-.04.27-.07.43-.02.16-.05.34-.07.53l.15.06c.02-.19.04-.37.06-.54Z"/><path class="cls-29" d="m700.16,347.18s.04.2.02.55c-.02.35-.07.84-.15,1.47s-.14,1.11-.2,1.45c-.06.34-.11.5-.14.48l-.11-.04-.33,2.73-.05-.02.8-6.68.16.06Zm-.4,3.19s.06-.08.1-.29c.04-.21.08-.51.13-.91s.08-.71.09-.92c.01-.21,0-.33-.02-.34l-.09-.04-.3,2.45.09.04Z"/><path class="cls-29" d="m699.75,354c-.02.08-.03.11-.05.11-.01,0-.01-.07,0-.18,0-.12.03-.31.06-.57-.04.26-.08.44-.11.55-.03.11-.05.16-.07.15-.01,0-.02-.03-.02-.09,0-.05,0-.14,0-.25s.02-.25.03-.42c.02-.17.04-.38.07-.62.03-.27.06-.5.09-.67.03-.17.05-.31.07-.42s.04-.18.06-.24c.02-.05.03-.09.05-.13.02-.04.03-.07.05-.09.01-.02.03-.05.04-.08s.03-.09.04-.17c.01-.08.03-.19.05-.34.02-.17.04-.32.05-.42,0-.11.01-.19.02-.25,0-.06,0-.1,0-.12s-.01-.03-.02-.04c-.02,0-.04.05-.07.17-.03.12-.06.36-.11.72l-.04-.02c.04-.3.07-.55.1-.75s.06-.37.08-.49.05-.21.07-.26.04-.07.05-.07c.01,0,.02.02.03.06,0,.04.01.1,0,.2,0,.1-.01.24-.03.41-.02.18-.04.4-.07.68l-.3,2.48c-.02.19-.04.32-.05.41s-.01.13,0,.14c0,0,0,0,.02-.03l-.07.62Zm.23-2.51c-.01.07-.03.12-.04.16-.01.03-.03.05-.04.07-.01.02-.02.04-.04.06-.01.02-.03.07-.04.12s-.03.14-.05.26-.04.27-.06.47c-.02.13-.03.24-.04.33,0,.09-.01.17-.02.22,0,.06,0,.1,0,.13,0,.03,0,.04.01.05.01,0,.03-.03.05-.09.02-.07.04-.15.06-.26.02-.11.04-.22.06-.35.02-.13.03-.25.05-.36l.1-.81Z"/><path class="cls-29" d="m700.41,349.21l-.09.71h0c.09-.54.15-.8.18-.79.02,0,.02.07.02.2s-.02.35-.05.65c.04-.26.08-.46.11-.6.03-.14.06-.2.07-.2.01,0,.02.04.03.09s0,.14,0,.26c0,.12-.02.26-.03.44-.02.18-.04.39-.07.64l-.43,3.55-.04-.02.38-3.17c.02-.15.03-.29.05-.42.01-.13.03-.25.03-.34,0-.1.01-.18.01-.24,0-.06,0-.09-.02-.09-.02,0-.05.1-.09.32s-.08.52-.13.89l-.36,3.01-.04-.02.38-3.17c.02-.16.04-.3.05-.43.01-.13.03-.25.03-.34,0-.1.01-.18.01-.23s0-.09-.01-.09c-.01,0-.03.04-.05.13-.02.09-.04.2-.06.33-.02.13-.04.26-.06.4-.02.14-.03.26-.05.35l-.36,3.01-.04-.02.58-4.84.04.02Z"/><path class="cls-29" d="m700.84,349.38l-.08.66h0c.04-.27.07-.46.1-.57.03-.12.05-.17.07-.16.02,0,.03.08.03.23,0,.14-.01.33-.03.57-.02.24-.04.51-.08.82-.03.31-.07.63-.11.98s-.08.67-.12.97c-.04.3-.08.57-.12.79s-.07.4-.1.52-.06.18-.08.18c0,0-.01-.02-.02-.05,0-.03,0-.07,0-.13,0-.06,0-.14,0-.24s.01-.22.03-.37h0s-.3,2.49-.3,2.49l-.04-.02.81-6.69.04.02Zm-.05,1.78c.02-.22.04-.41.05-.58.01-.17.02-.31.02-.41,0-.1,0-.16-.02-.16-.01,0-.03.04-.06.15s-.05.24-.07.41c-.03.17-.06.36-.08.58-.03.22-.06.44-.08.66-.03.24-.05.47-.08.69-.02.22-.04.42-.06.59-.01.17-.02.31-.02.42,0,.11,0,.16.02.17s.03-.04.06-.14c.02-.1.05-.24.07-.41.03-.17.06-.37.09-.59s.06-.45.09-.69c.03-.22.05-.45.07-.66Z"/><path class="cls-29" d="m701.36,347.65l-.31,2.56h0c.02-.15.04-.27.06-.37.02-.1.04-.18.05-.24.02-.06.03-.11.04-.14.01-.03.02-.04.03-.04.02,0,.03.06.03.15s0,.22-.02.38c-.01.16-.03.35-.05.56-.02.22-.05.46-.08.72l-.38,3.19-.04-.02.4-3.28c.04-.3.06-.54.07-.72s0-.27,0-.28c-.01,0-.03.03-.05.1-.02.07-.04.17-.06.31-.02.13-.05.29-.07.48s-.05.38-.08.6l-.33,2.74-.04-.02.81-6.69.04.02Z"/><path class="cls-29" d="m701.64,347.76l-.81,6.69-.04-.02.81-6.69.04.02Z"/><path class="cls-29" d="m701.12,354.25c-.05.27-.09.4-.12.38-.02,0-.03-.08-.03-.21,0-.13,0-.31.02-.54s.04-.5.07-.82c.03-.31.07-.66.11-1.02.04-.37.09-.71.13-1.01.04-.3.08-.57.12-.79s.07-.39.1-.51c.03-.12.05-.18.07-.17.02,0,.03.11.03.29,0,.18-.02.42-.05.69-.02.28-.05.58-.09.91-.04.33-.07.64-.11.93l-.2-.08c-.03.21-.05.41-.07.61s-.04.36-.05.51c-.01.15-.02.27-.02.36,0,.09,0,.14.02.15.02,0,.04-.06.07-.22.03-.15.07-.39.11-.7l.04.02c-.07.54-.13.95-.19,1.21Zm.36-3.12c.02-.17.03-.32.04-.44s.01-.22.01-.3,0-.12-.02-.12-.03.03-.04.1-.04.16-.06.29c-.02.12-.04.27-.07.43-.02.16-.05.34-.07.53l.15.06c.02-.19.04-.37.06-.54Z"/><path class="cls-29" d="m701.87,349.78l-.08.7-.05-.02-.36,3.01c-.01.09-.02.17-.03.23s0,.1-.01.13c0,.03,0,.05,0,.07,0,.01,0,.02.01.02h.02s-.08.71-.08.71h-.03s-.02-.04-.02-.07c0-.03,0-.09,0-.16s.01-.18.03-.32c.01-.14.03-.32.06-.55l.37-3.09-.04-.02.08-.7.04.02.18-1.45.04.02-.18,1.45.05.02Z"/><path class="cls-29" d="m701.52,353.64l-.13,1.04-.06-.02.13-1.04.06.02Z"/><path class="cls-29" d="m702.1,349.88l-.08.66h0c.04-.27.07-.46.1-.57.03-.12.05-.17.07-.16.02,0,.03.08.03.23,0,.14-.01.33-.03.57-.02.24-.04.51-.08.82-.03.31-.07.64-.11.98s-.08.67-.13.97c-.04.3-.08.57-.12.79s-.07.4-.1.52-.06.18-.08.18c0,0-.01-.02-.02-.05,0-.03,0-.07,0-.13,0-.06,0-.14,0-.24s.01-.22.03-.37h0s-.3,2.5-.3,2.5l-.04-.02.81-6.7.04.02Zm-.05,1.78c.02-.22.04-.41.05-.58.01-.17.02-.31.02-.41,0-.1,0-.16-.02-.17-.01,0-.03.04-.06.15s-.05.24-.08.41c-.03.17-.06.36-.08.58-.03.22-.06.44-.08.66-.03.24-.05.47-.08.69-.02.22-.04.42-.06.59-.01.17-.02.31-.02.42,0,.11,0,.16.02.17s.03-.04.06-.14c.02-.1.05-.24.07-.41.03-.17.06-.37.09-.6s.06-.45.09-.69c.03-.23.05-.45.08-.66Z"/><path class="cls-29" d="m701.96,354.91l.08-.66h0c-.04.27-.07.46-.1.57s-.05.17-.07.16c-.02,0-.03-.08-.03-.23,0-.14.01-.33.03-.57s.04-.51.07-.82.07-.64.11-.98.08-.67.13-.97c.04-.31.08-.57.12-.79s.07-.4.1-.53.06-.19.08-.18c0,0,.01.02.02.05,0,.03,0,.07,0,.14,0,.06,0,.14,0,.24s-.01.22-.03.37h0s.3-2.5.3-2.5l.04.02-.81,6.71-.04-.02Zm.05-1.78c-.02.22-.04.41-.05.58-.01.17-.02.31-.02.41,0,.1,0,.16.02.16.01,0,.03-.04.06-.14s.05-.24.08-.41c.03-.17.06-.36.08-.58.03-.22.06-.44.08-.66.03-.24.05-.47.08-.69.02-.22.04-.42.06-.59.01-.17.02-.31.02-.42,0-.11,0-.16-.02-.17s-.03.04-.06.15-.05.24-.08.41c-.03.17-.06.37-.09.6s-.06.45-.09.69c-.03.23-.05.45-.08.66Z"/><path class="cls-29" d="m702.54,350.79l.09-.71.04.02.09-.72c.05-.39.09-.69.13-.89s.07-.29.09-.28c0,0,0,0,.01.02,0,.02,0,.04,0,.06l-.08.7s0-.04,0-.06c0-.01,0-.02-.01-.02-.01,0-.02.03-.04.1-.01.07-.04.22-.06.43l-.08.68.05.02-.09.71-.05-.02-.5,4.15-.04-.02.5-4.15-.04-.02Z"/></g></g></svg>