<?xml version="1.0" encoding="UTF-8"?><svg xmlns="http://www.w3.org/2000/svg" xmlns:xlink="http://www.w3.org/1999/xlink" viewBox="0 0 800 1080"><defs><style>.cls-1{clip-path:url(#clippath);}.cls-2,.cls-3,.cls-4,.cls-5,.cls-6,.cls-7,.cls-8,.cls-9,.cls-10,.cls-11,.cls-12,.cls-13,.cls-14,.cls-15,.cls-16,.cls-17,.cls-18,.cls-19,.cls-20,.cls-21,.cls-22,.cls-23,.cls-24,.cls-25,.cls-26,.cls-27,.cls-28,.cls-29,.cls-30,.cls-31,.cls-32,.cls-33,.cls-34{stroke-width:0px;}.cls-2,.cls-35,.cls-36,.cls-37,.cls-38,.cls-39,.cls-40,.cls-41,.cls-42{fill:none;}.cls-3{fill:url(#linear-gradient);}.cls-4{fill:url(#radial-gradient);}.cls-35{stroke:#a2248e;stroke-width:.26px;}.cls-43{clip-path:url(#clippath-1);}.cls-44{clip-path:url(#clippath-2);}.cls-36,.cls-37,.cls-38,.cls-45,.cls-46,.cls-40,.cls-47,.cls-41,.cls-42{stroke-miterlimit:10;}.cls-36,.cls-37,.cls-46,.cls-40{stroke-width:.35px;}.cls-36,.cls-46,.cls-39,.cls-40,.cls-47,.cls-41{stroke:#fff;}.cls-37,.cls-38,.cls-42{stroke:#000;}.cls-48{filter:url(#drop-shadow-1);}.cls-38,.cls-46,.cls-40{stroke-linecap:round;}.cls-38,.cls-42{stroke-width:.5px;}.cls-45{stroke:#0078d4;}.cls-45,.cls-6,.cls-29{fill:#fff;}.cls-5{fill:url(#radial-gradient-2);}.cls-46{opacity:.5;}.cls-6{fill-rule:evenodd;}.cls-39{stroke-width:.14px;}.cls-8{fill:#f8be16;}.cls-9{fill:#60b7e3;}.cls-10{fill:#7a7b80;}.cls-11{fill:#38a5dd;}.cls-12{fill:#3c3c3c;}.cls-13{fill:#2d71b6;}.cls-14{fill:#1a1a1a;}.cls-15{fill:#1a73e5;}.cls-16{fill:#074a84;}.cls-17{fill:#229042;}.cls-18{fill:#238cd5;}.cls-19{fill:#1e1e1e;}.cls-20{fill:#1f3540;}.cls-21{fill:#e03b2e;}.cls-22{fill:#dd9c01;}.cls-23{fill:#333;}.cls-24{fill:#00a49a;}.cls-25{fill:#a2248e;}.cls-26{fill:#86c8ec;}.cls-27{fill:#7fb702;}.cls-28{fill:#ef5022;}.cls-30{fill:#fbb603;}.cls-31{fill:#ffc83d;}.cls-32{fill:#ec7313;}.cls-33{fill:#01a1ec;}.cls-34{fill:#036ebc;}.cls-47{fill:#5b5b5b;stroke-width:.18px;}.cls-41{stroke-width:.25px;}</style><linearGradient id="linear-gradient" x1="-3172.99" y1="-1771.38" x2="-3172.99" y2="-1808.31" gradientTransform="translate(1976.05 -2418.16) rotate(-90)" gradientUnits="userSpaceOnUse"><stop offset="0" stop-color="#abafb3"/><stop offset=".05" stop-color="#a6aaaf"/><stop offset=".3" stop-color="#939aa1"/><stop offset=".56" stop-color="#889198"/><stop offset=".84" stop-color="#858e96"/></linearGradient><radialGradient id="radial-gradient" cx="-32144.82" cy="-2126.57" fx="-32144.82" fy="-2126.57" r="9.57" gradientTransform="translate(3860.93 -2507.29) rotate(-90) scale(.1 1.74) skewX(-.02)" gradientUnits="userSpaceOnUse"><stop offset=".3" stop-color="#cccbcd"/><stop offset=".47" stop-color="#c4c3c5"/><stop offset=".73" stop-color="#aeaeb2"/><stop offset=".96" stop-color="#96989c"/></radialGradient><radialGradient id="radial-gradient-2" cx="5357.37" cy="974.6" fx="5357.37" fy="974.6" r="1.34" gradientTransform="translate(19735.8 -44453.84) rotate(92.29) scale(8.57 18.25) skewX(.3)" gradientUnits="userSpaceOnUse"><stop offset="0" stop-color="#35bbeb"/><stop offset=".11" stop-color="#34bbe7"/><stop offset=".23" stop-color="#2fbcd9"/><stop offset=".31" stop-color="#2bbdcc"/><stop offset=".67" stop-color="#36c152"/></radialGradient><clipPath id="clippath"><polygon class="cls-2" points="56.07 347.19 58.43 346.36 51.29 288.54 48.89 289.15 56.07 347.19"/></clipPath><clipPath id="clippath-1"><polygon class="cls-2" points="56.07 347.19 58.43 346.36 51.29 288.54 48.89 289.15 56.07 347.19"/></clipPath><clipPath id="clippath-2"><polygon class="cls-2" points="56.07 347.19 58.43 346.36 51.29 288.54 48.89 289.15 56.07 347.19"/></clipPath><filter id="drop-shadow-1" filterUnits="userSpaceOnUse"><feOffset dx="1" dy="1"/><feGaussianBlur result="blur" stdDeviation="1"/><feFlood flood-color="#000" flood-opacity=".75"/><feComposite in2="blur" operator="in"/><feComposite in="SourceGraphic"/></filter></defs><g id="Layer_14"><path class="cls-7" d="m110.34,836.83c-23.29-18.57-20.06-157.83-83.23-605.44-.78-5.54,3.51-13.25,10.03-14.49,6.52-1.23,119.19,594.94,119.19,594.94"/><path class="cls-19" d="m110.34,836.83l.21-1.23,44.12-63.8c.77-1.06-.55-.31,1.23-1.77,0,0-61.39-514.68-66.09-555.39-.26-2.3-1.62-3.3-4.58-2.74-2.95.56-48.08,5.01-48.08,5.01-2.03.35-1.96,1.28-1.78,3.36l71.03,601.68c.91,8.01,2.93,13.34,3.95,14.89Z"/><polygon class="cls-29" points="38.99 232.56 88.78 224.6 151.56 739.81 107.36 791.33 38.99 232.56"/><path class="cls-7" d="m88.39,225.13l62.7,514.53-43.39,50.58L39.5,232.94l48.89-7.81m.8-1.06l-50.71,8.1,68.56,560.24,45.01-52.47L89.18,224.08h0Z"/></g><g id="Layer_15"><path class="cls-14" d="m109.78,821.02l.51,26.1c.19,6.18,5.26,11.08,11.44,11.08h628.59c32.93,0,24.99-37.89,24.99-37.89l-7.42-2.03-611.56-6.43-46.55,9.17"/><path class="cls-12" d="m775.3,820.31c0,1.52-12.98,2.93-34.69,2.93H129.58c-14.25,0-19.59-2.13-19.8-2.23l43.34-66.97c.14-.21,1.05-.4,2.56-.57,3.97-.46,12.1-.77,21.27-.77h461.28c16.77,0,31.61.79,33.17,1.78l103.9,65.82Z"/><path class="cls-6" d="m290.1,815.3l.05-5.64c0-.26,2.93-.47,6.52-.47h42.98c3.58,0,6.55.21,6.6.47l1.02,5.64c.05.27-2.91.49-6.57.49h-43.95c-3.66,0-6.66-.22-6.65-.49h0Z"/><path class="cls-6" d="m355.5,815.26l-1.43-6.86c-.05-.26,2.82-.47,6.39-.47h42.8c3.57,0,6.57.21,6.67.47l2.74,6.86c.11.27-2.8.49-6.46.49h-43.94c-3.66,0-6.71-.22-6.76-.49h0Z"/><path class="cls-6" d="m420.48,815.34l-3.91-9.21c-.11-.25,2.7-.46,6.24-.46h42.47c3.54,0,6.56.21,6.72.46l5.66,9.21c.17.27-2.7.49-6.36.49h-43.95c-3.66,0-6.75-.22-6.87-.49h0Z"/><path class="cls-6" d="m474.02,795.58l-14.35-22.23c-.15-.22,2.64-.41,6.19-.41h42.61c3.55,0,6.61.18,6.81.41l19.12,22.23c.23.27-2.75.48-6.62.48h-46.42c-3.87,0-7.17-.22-7.34-.48h0Z"/><path class="cls-6" d="m453.02,762.35l-2.46-3.81c-.13-.2,2.5-.36,5.85-.36h40.17c3.35,0,6.23.16,6.4.36l3.28,3.81c.18.21-2.47.38-5.88.38h-40.92c-3.41,0-6.31-.17-6.44-.38h0Z"/><path class="cls-6" d="m477.98,802.2l-3.21-4.98c-.17-.27,2.86-.49,6.74-.49h46.53c3.88,0,7.24.22,7.47.49l4.28,4.98c.24.28-2.8.51-6.76.51h-47.51c-3.96,0-7.35-.23-7.53-.51h0Z"/><path class="cls-6" d="m482.21,808.03l-2.71-4.2c-.18-.28,2.92-.51,6.88-.51h47.62c3.97,0,7.41.23,7.66.51l3.61,4.2c.25.29-2.85.53-6.89.53h-48.48c-4.04,0-7.5-.24-7.68-.53h0Z"/><path class="cls-6" d="m458.53,771.97l-2.64-4.1c-.14-.22,2.59-.39,6.07-.39h41.71c3.48,0,6.47.18,6.65.39l3.52,4.1c.19.22-2.55.41-6.09.41h-42.51c-3.54,0-6.56-.18-6.7-.41h0Z"/><path class="cls-6" d="m455.61,766.61l-1.95-3.02c-.13-.21,2.55-.38,5.97-.38h41c3.42,0,6.36.17,6.54.38l2.6,3.02c.18.21-2.5.39-5.97.39h-41.63c-3.47,0-6.42-.17-6.56-.39h0Z"/><path class="cls-6" d="m486.16,815.34l-3.58-5.57c-.19-.29,2.97-.53,7.02-.53h48.59c4.05,0,7.57.24,7.82.53l4.78,5.57c.26.3-2.91.55-7.05.55h-49.69c-4.14,0-7.69-.25-7.88-.55h0Z"/><path class="cls-6" d="m224.45,815.24l.74-3.27c.06-.26,3.06-.48,6.67-.48h43.32c3.61,0,6.56.21,6.55.48l-.12,3.27c0,.27-3.01.49-6.68.49h-43.94c-3.66,0-6.61-.22-6.55-.49h0Z"/><path class="cls-6" d="m225.02,810.39l.72-3.16c.06-.25,3.01-.46,6.56-.46h42.63c3.56,0,6.45.21,6.44.46l-.12,3.16c-.01.26-2.97.47-6.57.47h-43.23c-3.6,0-6.5-.21-6.44-.47h0Z"/><path class="cls-6" d="m225.84,805.72l.7-3.06c.06-.25,2.96-.45,6.46-.45h41.96c3.5,0,6.35.2,6.34.45l-.12,3.06c0,.25-2.92.46-6.46.46h-42.54c-3.55,0-6.4-.21-6.34-.46h0Z"/><path class="cls-6" d="m227.71,801.16l.67-2.97c.05-.24,2.91-.43,6.36-.43h41.31c3.44,0,6.25.2,6.24.43l-.11,2.97c0,.24-2.87.44-6.36.44h-41.88c-3.49,0-6.3-.2-6.24-.44h0Z"/><path class="cls-6" d="m228.21,796.76l.66-2.88c.05-.23,2.87-.42,6.26-.42h40.69c3.39,0,6.16.19,6.15.42l-.11,2.88c0,.24-2.83.43-6.27.43h-41.23c-3.44,0-6.2-.19-6.15-.43h0Z"/><path class="cls-6" d="m228.93,792.5l.64-2.79c.05-.22,2.83-.41,6.17-.41h40.08c3.34,0,6.07.18,6.06.41l-.11,2.79c0,.23-2.78.42-6.17.42h-40.61c-3.38,0-6.11-.19-6.06-.42h0Z"/><path class="cls-6" d="m230.19,788.3l.62-2.71c.05-.22,2.78-.4,6.07-.4h39.48c3.29,0,5.98.18,5.97.4l-.1,2.71c0,.22-2.74.41-6.08.41h-40c-3.33,0-6.02-.18-5.97-.41h0Z"/><path class="cls-6" d="m230.63,784.28l.61-2.63c.05-.21,2.74-.38,5.98-.38h38.91c3.24,0,5.89.17,5.88.38l-.11,2.63c0,.22-2.7.39-5.99.39h-39.41c-3.28,0-5.93-.18-5.88-.39h0Z"/><path class="cls-6" d="m231.29,780.39l.59-2.56c.05-.21,2.7-.37,5.9-.37h38.36c3.2,0,5.8.17,5.8.37l-.1,2.56c0,.21-2.66.38-5.9.38h-38.84c-3.24,0-5.84-.17-5.8-.38h0Z"/><path class="cls-6" d="m232.87,776.58l.57-2.48c.05-.2,2.66-.36,5.81-.36h37.81c3.15,0,5.73.16,5.72.36l-.09,2.48c0,.2-2.62.37-5.82.37h-38.28c-3.19,0-5.76-.17-5.72-.37h0Z"/><path class="cls-6" d="m233.25,772.9l.56-2.42c.04-.19,2.62-.35,5.73-.35h37.29c3.11,0,5.64.16,5.64.35l-.1,2.42c0,.2-2.59.36-5.73.36h-37.74c-3.15,0-5.68-.16-5.64-.36h0Z"/><path class="cls-6" d="m233.85,769.32l.54-2.35c.04-.19,2.59-.34,5.65-.34h36.77c3.07,0,5.57.15,5.56.34l-.1,2.35c0,.19-2.55.35-5.65.35h-37.22c-3.1,0-5.6-.16-5.56-.35h0Z"/><path class="cls-6" d="m234.88,765.83l.53-2.29c.04-.18,2.55-.33,5.57-.33h36.28c3.02,0,5.49.15,5.48.33l-.09,2.29c0,.19-2.52.34-5.58.34h-36.71c-3.06,0-5.53-.15-5.48-.34h0Z"/><path class="cls-6" d="m235.72,762.44l.9-3.94c.04-.18,2.5-.32,5.46-.32h35.54c2.96,0,5.38.14,5.38.32l-.16,3.94c0,.18-2.48.33-5.5.33h-36.21c-3.02,0-5.45-.15-5.41-.33h0Z"/><path class="cls-6" d="m290.57,808.04l.02-3.11c0-.25,2.89-.45,6.41-.45h42.3c3.53,0,6.45.2,6.49.45l.57,3.11c.05.26-2.84.47-6.41.47h-42.89c-3.57,0-6.5-.21-6.49-.47h0Z"/><path class="cls-6" d="m290.09,803.43l.03-3.02c0-.24,2.84-.44,6.31-.44h41.64c3.47,0,6.35.2,6.39.44l.55,3.02c.04.25-2.8.45-6.31.45h-42.21c-3.52,0-6.39-.2-6.39-.45h0Z"/><path class="cls-6" d="m289.88,798.97l.03-2.93c0-.24,2.8-.43,6.22-.43h41c3.42,0,6.25.19,6.29.43l.53,2.93c.04.24-2.76.44-6.22.44h-41.55c-3.46,0-6.29-.2-6.29-.44h0Z"/><path class="cls-6" d="m290.73,794.62l.02-2.84c0-.23,2.76-.41,6.12-.41h40.38c3.37,0,6.15.19,6.19.41l.52,2.84c.04.23-2.71.42-6.12.42h-40.92c-3.41,0-6.2-.19-6.2-.42h0Z"/><path class="cls-6" d="m290.28,790.41l.02-2.75c0-.22,2.72-.4,6.03-.4h39.78c3.32,0,6.06.18,6.1.4l.5,2.75c.04.23-2.67.41-6.03.41h-40.3c-3.36,0-6.1-.19-6.1-.41h0Z"/><path class="cls-6" d="m290.07,786.34l.03-2.67c0-.22,2.68-.39,5.94-.39h39.2c3.26,0,5.97.18,6.01.39l.48,2.67c.04.22-2.64.4-5.94.4h-39.71c-3.31,0-6.01-.18-6.01-.4h0Z"/><path class="cls-6" d="m290.39,782.33l.02-2.59c0-.21,2.64-.38,5.86-.38h38.63c3.22,0,5.88.17,5.92.38l.47,2.59c.04.21-2.6.39-5.86.39h-39.12c-3.26,0-5.93-.17-5.93-.39h0Z"/><path class="cls-6" d="m289.96,778.48l.03-2.52c0-.2,2.6-.37,5.77-.37h38.08c3.17,0,5.8.17,5.84.37l.45,2.52c.04.21-2.56.38-5.77.38h-38.56c-3.21,0-5.84-.17-5.84-.38h0Z"/><path class="cls-6" d="m289.77,774.75l.03-2.45c0-.2,2.56-.36,5.7-.36h37.55c3.13,0,5.72.16,5.75.36l.44,2.45c.04.2-2.53.37-5.69.37h-38.01c-3.17,0-5.76-.16-5.76-.37h0Z"/><path class="cls-6" d="m290.5,771.1l.02-2.38c0-.19,2.53-.35,5.61-.35h37.03c3.09,0,5.64.16,5.67.35l.43,2.38c.04.2-2.49.36-5.61.36h-37.48c-3.12,0-5.68-.16-5.68-.36h0Z"/><path class="cls-6" d="m290.08,767.57l.02-2.32c0-.19,2.49-.34,5.54-.34h36.52c3.04,0,5.56.15,5.6.34l.42,2.32c.03.19-2.46.35-5.54.35h-36.96c-3.08,0-5.6-.16-5.6-.35h0Z"/><path class="cls-6" d="m289.89,764.14l.03-2.26c0-.18,2.46-.33,5.46-.33h36.04c3,0,5.49.15,5.52.33l.4,2.26c.03.19-2.43.34-5.46.34h-36.46c-3.04,0-5.52-.15-5.52-.34h0Z"/><path class="cls-6" d="m352.65,806.91l-.63-3.09c-.05-.25,2.78-.45,6.29-.45h42.13c3.51,0,6.46.2,6.56.45l1.22,3.09c.1.25-2.73.46-6.29.46h-42.72c-3.56,0-6.52-.21-6.57-.46h0Z"/><path class="cls-6" d="m351.2,802.33l-.61-2.99c-.05-.24,2.74-.44,6.2-.44h41.48c3.46,0,6.36.2,6.46.44l1.18,2.99c.1.25-2.69.45-6.19.45h-42.05c-3.5,0-6.41-.2-6.46-.45h0Z"/><path class="cls-6" d="m350.05,797.91l-.59-2.9c-.05-.23,2.7-.42,6.11-.42h40.85c3.4,0,6.26.19,6.36.42l1.14,2.9c.09.24-2.65.43-6.1.43h-41.4c-3.45,0-6.32-.2-6.36-.43h0Z"/><path class="cls-6" d="m349.98,793.59l-.58-2.82c-.05-.23,2.66-.41,6.01-.41h40.24c3.35,0,6.17.19,6.26.41l1.11,2.82c.09.23-2.61.42-6.01.42h-40.77c-3.4,0-6.22-.19-6.26-.42h0Z"/><path class="cls-6" d="m348.64,789.41l-.56-2.73c-.04-.22,2.62-.4,5.92-.4h39.64c3.3,0,6.08.18,6.17.4l1.08,2.73c.09.22-2.58.41-5.93.41h-40.16c-3.35,0-6.12-.18-6.17-.41h0Z"/><path class="cls-6" d="m347.57,785.37l-.54-2.65c-.04-.21,2.59-.39,5.84-.39h39.07c3.26,0,5.99.17,6.07.39l1.04,2.65c.09.22-2.54.4-5.84.4h-39.57c-3.3,0-6.03-.18-6.08-.4h0Z"/><path class="cls-6" d="m347.05,781.39l-.53-2.58c-.04-.21,2.55-.38,5.76-.38h38.5c3.21,0,5.9.17,5.98.38l1.01,2.58c.08.21-2.51.39-5.75.39h-38.98c-3.25,0-5.94-.17-5.98-.39h0Z"/><path class="cls-6" d="m345.8,777.56l-.51-2.5c-.04-.2,2.51-.37,5.68-.37h37.95c3.16,0,5.81.16,5.89.37l.98,2.5c.08.21-2.47.37-5.67.37h-38.43c-3.2,0-5.86-.17-5.9-.37h0Z"/><path class="cls-6" d="m344.83,773.86l-.49-2.43c-.04-.2,2.48-.36,5.6-.36h37.42c3.12,0,5.73.16,5.81.36l.95,2.43c.08.2-2.44.36-5.6.36h-37.88c-3.16,0-5.77-.16-5.81-.36h0Z"/><path class="cls-6" d="m344.78,770.24l-.48-2.37c-.04-.19,2.45-.35,5.52-.35h36.9c3.08,0,5.66.16,5.73.35l.93,2.37c.08.19-2.41.35-5.52.35h-37.35c-3.11,0-5.69-.16-5.73-.35h0Z"/><path class="cls-6" d="m343.62,766.73l-.47-2.3c-.04-.19,2.41-.34,5.45-.34h36.4c3.03,0,5.58.15,5.65.34l.9,2.3c.07.19-2.38.34-5.45.34h-36.84c-3.07,0-5.61-.15-5.65-.34h0Z"/><path class="cls-6" d="m342.72,763.32l-.97-4.81c-.04-.18,2.36-.32,5.32-.32h35.54c2.96,0,5.44.14,5.51.32l1.88,4.81c.07.18-2.35.33-5.38.33h-36.34c-3.03,0-5.54-.15-5.57-.33h0Z"/><path class="cls-6" d="m290.12,760.7l.02-2.19c0-.18,2.43-.32,5.39-.32h35.54c2.96,0,5.41.14,5.44.32l.39,2.19c.03.18-2.39.33-5.39.33h-35.96c-3,0-5.45-.15-5.45-.33h0Z"/><path class="cls-6" d="m416.03,804.56l-1.29-3.04c-.1-.24,2.66-.44,6.14-.44h41.8c3.48,0,6.46.2,6.61.44l1.87,3.04c.15.25-2.61.46-6.14.46h-42.38c-3.53,0-6.51-.2-6.61-.46h0Z"/><path class="cls-6" d="m413.6,800.05l-1.25-2.95c-.1-.24,2.62-.43,6.05-.43h41.16c3.43,0,6.35.19,6.5.43l1.81,2.95c.15.24-2.57.44-6.05.44h-41.72c-3.48,0-6.4-.2-6.51-.44h0Z"/><path class="cls-6" d="m411.51,795.69l-1.21-2.86c-.1-.23,2.59-.42,5.97-.42h40.53c3.38,0,6.26.19,6.4.42l1.75,2.86c.14.24-2.54.43-5.96.43h-41.08c-3.42,0-6.31-.19-6.4-.43h0Z"/><path class="cls-6" d="m410.52,791.44l-1.18-2.77c-.09-.22,2.55-.41,5.88-.41h39.93c3.33,0,6.16.18,6.3.41l1.71,2.77c.14.23-2.5.41-5.87.41h-40.46c-3.37,0-6.21-.19-6.31-.41h0Z"/><path class="cls-6" d="m408.28,787.33l-1.14-2.69c-.09-.22,2.52-.39,5.79-.39h39.35c3.28,0,6.07.18,6.2.39l1.65,2.69c.14.22-2.47.4-5.79.4h-39.85c-3.32,0-6.12-.18-6.21-.4h0Z"/><path class="cls-6" d="m406.36,783.35l-1.11-2.61c-.09-.21,2.48-.38,5.71-.38h38.78c3.23,0,5.98.17,6.11.38l1.6,2.61c.13.21-2.44.39-5.71.39h-39.27c-3.27,0-6.02-.18-6.12-.39h0Z"/><path class="cls-6" d="m404.98,779.42l-1.08-2.54c-.09-.2,2.45-.37,5.63-.37h38.22c3.19,0,5.89.17,6.02.37l1.56,2.54c.13.21-2.4.38-5.63.38h-38.7c-3.23,0-5.94-.17-6.02-.38h0Z"/><path class="cls-6" d="m402.92,775.66l-1.04-2.47c-.08-.2,2.42-.36,5.56-.36h37.68c3.14,0,5.81.16,5.93.36l1.51,2.47c.12.2-2.37.37-5.55.37h-38.15c-3.18,0-5.85-.17-5.94-.37h0Z"/><path class="cls-6" d="m401.15,772.01l-1.01-2.4c-.08-.19,2.39-.35,5.48-.35h37.16c3.1,0,5.73.16,5.84.35l1.47,2.4c.12.2-2.34.36-5.48.36h-37.61c-3.13,0-5.77-.16-5.85-.36h0Z"/><path class="cls-6" d="m400.25,768.38l-.99-2.33c-.08-.19,2.35-.34,5.41-.34h36.64c3.05,0,5.65.15,5.76.34l1.43,2.33c.12.19-2.32.35-5.41.35h-37.08c-3.09,0-5.69-.16-5.77-.35h0Z"/><path class="cls-6" d="m398.33,764.89l-2.68-6.35c-.07-.18,2.29-.32,5.25-.32h35.55c2.96,0,5.47.14,5.58.32l3.89,6.35c.11.19-2.29.34-5.33.34h-36.57c-3.05,0-5.61-.15-5.68-.34h0Z"/><path class="cls-6" d="m177.95,809.64l1.28-2.9c.17-.39,4.74-.7,10.15-.7h15.5c5.41,0,9.74.32,9.62.7l-.93,2.9c-.13.4-4.72.72-10.22.72h-15.73c-5.49,0-9.84-.32-9.67-.72h0Z"/><path class="cls-6" d="m180.26,804.4l1.23-2.8c.16-.37,4.65-.68,9.97-.68h15.23c5.32,0,9.57.3,9.45.68l-.9,2.8c-.12.38-4.63.69-10.03.69h-15.45c-5.4,0-9.67-.31-9.5-.69h0Z"/><path class="cls-6" d="m182.19,799.35l1.2-2.7c.16-.36,4.56-.66,9.79-.66h14.97c5.23,0,9.41.29,9.29.66l-.87,2.7c-.12.37-4.55.67-9.85.67h-15.18c-5.3,0-9.5-.3-9.34-.67h0Z"/><path class="cls-6" d="m184.34,794.46l1.15-2.61c.15-.35,4.48-.63,9.62-.63h14.71c5.14,0,9.25.28,9.14.63l-.84,2.61c-.11.36-4.47.65-9.68.65h-14.92c-5.21,0-9.34-.29-9.18-.65h0Z"/><path class="cls-6" d="m186.43,789.74l1.12-2.52c.15-.34,4.4-.61,9.45-.61h14.47c5.05,0,9.1.28,8.99.61l-.81,2.52c-.11.34-4.39.63-9.51.63h-14.67c-5.12,0-9.18-.28-9.03-.63h0Z"/><path class="cls-6" d="m188.93,785.18l1.08-2.44c.14-.33,4.32-.59,9.29-.59h14.23c4.97,0,8.95.27,8.85.59l-.78,2.44c-.11.33-4.31.61-9.35.61h-14.42c-5.04,0-9.03-.27-8.89-.61h0Z"/><path class="cls-6" d="m190.87,780.77l1.04-2.36c.14-.32,4.25-.57,9.14-.57h14c4.89,0,8.81.26,8.71.57l-.76,2.36c-.1.32-4.24.59-9.19.59h-14.19c-4.95,0-8.89-.26-8.75-.59h0Z"/><path class="cls-6" d="m192.75,776.49l1.01-2.29c.13-.31,4.18-.56,8.99-.56h13.78c4.81,0,8.67.25,8.57.56l-.73,2.29c-.1.31-4.17.57-9.04.57h-13.96c-4.87,0-8.75-.26-8.61-.57h0Z"/><path class="cls-6" d="m194.68,772.36l.98-2.22c.13-.3,4.11-.54,8.85-.54h13.56c4.73,0,8.53.24,8.44.54l-.71,2.22c-.1.3-4.1.55-8.9.55h-13.74c-4.8,0-8.61-.25-8.48-.55h0Z"/><path class="cls-6" d="m196.44,768.35l.95-2.15c.13-.29,4.04-.52,8.71-.52h13.35c4.66,0,8.4.23,8.31.52l-.69,2.15c-.09.29-4.04.53-8.76.53h-13.52c-4.72,0-8.48-.24-8.35-.53h0Z"/><path class="cls-6" d="m198.15,764.46l.92-2.08c.12-.28,3.98-.51,8.57-.51h13.15c4.59,0,8.28.23,8.19.51l-.67,2.08c-.09.28-3.97.52-8.62.52h-13.32c-4.65,0-8.35-.23-8.23-.52h0Z"/><path class="cls-6" d="m199.79,760.69l.89-2.02c.12-.27,3.92-.49,8.44-.49h12.96c4.52,0,8.15.22,8.07.49l-.65,2.02c-.09.28-3.91.5-8.49.5h-13.12c-4.58,0-8.23-.23-8.11-.5h0Z"/><path class="cls-6" d="m175.56,815.08l1.33-3.01c.18-.4,4.83-.73,10.34-.73h15.78c5.51,0,9.91.33,9.79.73l-.96,3.01c-.13.41-4.81.75-10.41.75h-16.02c-5.6,0-10.02-.34-9.84-.75h0Z"/><path class="cls-29" d="m670.45,771.2l36.45,24.76c2.07,1.4-12.92,2.56-33.42,2.56h-75.37c-15.64,0-29.23-.88-30.28-1.96l-25.23-25.86c-.86-.88,9.86-1.59,23.88-1.59h67.57c18.38,0,34.71.93,36.41,2.09Zm-36.27-1.98-36.23,29.16"/><path class="cls-7" d="m673.29,798.38h-75.34c-14.54,0-27.18-.82-28.16-1.82l-25.41-25.86c-.81-.82,9.16-1.48,22.2-1.48h67.6c17.4,0,32.86.88,34.47,1.98l36.27,24.76c1.95,1.33-12.23,2.42-31.63,2.42Z"/><path class="cls-3" d="m186.84,753.77c9.97,0,17.83.47,17.58,1.06-.25.59-8.6,1.07-18.66,1.07-10.05,0-17.91-.48-17.57-1.07.34-.59,8.69-1.06,18.65-1.06Z"/><path class="cls-7" d="m203.36,754.83c-.24.55-8.12,1.01-17.57,1.01-9.45,0-16.86-.45-16.54-1.01s8.19-1,17.56-1c9.37,0,16.79.45,16.55,1Z"/><path class="cls-4" d="m202.27,754.83c-.23.52-7.6.94-16.44.94-8.84,0-15.79-.42-15.49-.94.3-.52,7.67-.94,16.44-.94,8.78,0,15.72.42,15.49.94Z"/><path class="cls-7" d="m201.21,754.83c-.22.48-7.1.88-15.36.88-8.26,0-14.74-.4-14.46-.88.27-.48,7.15-.88,15.35-.88,8.2,0,14.68.39,14.47.88Z"/><path class="cls-23" d="m155.68,753.47c-3.07,6.19-13.09,23.7-17.56,29.95,0,0-28.09,37.71-28.34,37.59l43.34-66.97c.14-.21,1.05-.4,2.56-.57Z"/><path class="cls-12" d="m201.55,839.06v5.42c0,.43-.19.83-.52,1.1l-2.74,2.23c-.25.21-.57.32-.89.32h-15.58c-.33,0-.65-.11-.9-.32l-2.69-2.22c-.33-.27-.51-.67-.51-1.09v-5.43c0-.71.58-1.29,1.29-1.29h21.27c.71,0,1.29.58,1.29,1.29Z"/><rect class="cls-12" x="218.67" y="833.04" width="10.35" height="19.82" rx="1.34" ry="1.34" transform="translate(-619.1 1066.79) rotate(-90)"/><rect class="cls-12" x="250.83" y="833.04" width="10.35" height="19.82" rx="1.34" ry="1.34" transform="translate(-586.94 1098.95) rotate(-90)"/><path class="cls-12" d="m282.66,843.79h0c0,1.46-1.18,2.65-2.65,2.65h0c-1.46,0-2.65-1.18-2.65-2.65h0c0-1.46,1.18-2.65,2.65-2.65h0c1.46,0,2.65,1.18,2.65,2.65Z"/><rect class="cls-12" x="129.01" y="835.13" width="31.34" height="15.64" rx="1.06" ry="1.06"/><rect class="cls-12" x="139.05" y="831.61" width="11.27" height="12.65" rx="1.06" ry="1.06"/></g><g id="Layer_11"><polygon class="cls-10" points="151.23 739.71 107.62 790.2 38.48 232.17 89.18 224.08 151.23 739.71"/><polygon class="cls-20" points="107.62 790.2 151.23 739.71 148.69 718.58 104.8 767.4 107.62 790.2"/><polygon class="cls-45" points="118.05 778.13 109.14 788.44 106.33 765.69 115.29 755.73 118.05 778.13"/><path class="cls-29" d="m138.09,745.95l-.19.22c-.05-.45-.1-.84-.13-1.19-.03-.35-.05-.65-.06-.92,0-.14-.01-.27-.02-.4,0-.13-.01-.27-.02-.42,0-.15-.02-.3-.03-.47-.01-.17-.03-.36-.06-.57-.01-.1-.03-.2-.04-.31-.01-.11-.03-.21-.04-.3-.01-.09-.03-.16-.04-.22-.01-.06-.03-.08-.04-.07,0,.01-.01.05,0,.13s0,.18.02.3c.01.13.03.27.04.44.02.17.04.34.06.53l-.05.05c-.04-.3-.07-.58-.09-.83s-.05-.49-.06-.68c-.01-.19-.02-.35-.02-.47,0-.12,0-.19.02-.2.02-.02.04.02.06.11.02.1.05.22.08.38s.05.33.08.52c.03.19.05.37.07.54.03.22.05.41.07.59.02.18.03.34.04.5.01.15.02.3.03.43s.01.26.02.37c0,.12,0,.23.01.33s0,.21.01.32c0,.11.01.21.02.32,0,.11.02.23.03.35l.14-.16.1.78Z"/><path class="cls-29" d="m137.82,742.67s.01-.02.02-.06c0-.04,0-.09,0-.16,0-.07,0-.16-.02-.28,0-.12-.03-.26-.04-.42-.03-.23-.05-.41-.08-.54-.02-.13-.04-.19-.06-.17,0,0-.01.05,0,.12s0,.16.02.27c0,.11.02.23.03.36.01.13.03.27.05.41l-.05.05c-.03-.26-.06-.51-.08-.73-.02-.23-.04-.43-.05-.6-.01-.17-.02-.31-.02-.42,0-.11,0-.17.02-.18.01-.01.03,0,.04.06s.04.13.06.24c.02.11.05.25.07.43.03.18.06.38.08.62.03.27.06.51.08.72.02.21.03.37.02.48v.02s.06.18.09.42c.04.23.08.52.12.87.03.26.06.49.08.7.02.21.03.39.04.54,0,.15.01.27,0,.36,0,.09-.01.14-.02.16-.02.02-.04,0-.06-.09-.02-.08-.05-.19-.08-.35-.03-.15-.06-.35-.09-.57s-.07-.48-.1-.76l.05-.05c.04.33.08.6.11.8.04.21.06.3.08.28.02-.02.02-.12,0-.29-.01-.18-.03-.42-.07-.73-.03-.21-.05-.37-.07-.49s-.04-.21-.05-.26c-.01-.06-.03-.09-.04-.09-.01,0-.02,0-.03.01l-.08-.65Z"/><path class="cls-29" d="m137.82,741.32c-.02-.16-.04-.31-.05-.45-.01-.14-.02-.27-.03-.38,0-.11-.01-.2-.01-.27,0-.07,0-.11.01-.12s.02.01.03.07c.01.05.03.13.05.22.02.1.04.21.06.35.02.14.04.29.06.44s.04.31.05.45c.01.15.02.27.03.38s.01.2.01.27c0,.07,0,.11-.01.12s-.02-.01-.03-.07c-.01-.05-.03-.13-.05-.22-.02-.1-.04-.21-.06-.35-.02-.14-.04-.28-.06-.44Zm.02-.03c.01.1.02.2.04.28.01.08.02.16.04.22.01.06.02.11.03.14,0,.03.02.05.02.04s0-.03,0-.07,0-.1,0-.17c0-.07-.01-.15-.02-.23,0-.09-.02-.19-.03-.29-.01-.1-.02-.19-.04-.28-.01-.09-.02-.16-.04-.22-.01-.06-.02-.11-.03-.14,0-.03-.02-.05-.02-.04s0,.03,0,.08c0,.04,0,.1,0,.17,0,.07.01.15.02.24,0,.09.02.19.03.28Z"/><path class="cls-29" d="m138.26,741.5c-.02-.16-.04-.3-.06-.43-.02-.13-.04-.24-.06-.33-.02-.09-.03-.16-.05-.2-.01-.05-.03-.06-.04-.05-.02.02-.02.09-.02.22,0,.13.01.3.03.5s.04.44.07.69c.03.25.06.51.09.77s.06.52.1.76.07.47.1.66c.03.19.06.34.08.44.03.11.05.15.06.13.01-.01.02-.06.02-.15s0-.19-.02-.33c0-.14-.02-.3-.04-.47-.02-.18-.04-.37-.06-.57l.05-.06c.04.33.07.63.1.91.03.28.05.52.06.73.01.21.02.38.02.5,0,.13-.01.2-.03.22-.02.02-.05-.03-.08-.16s-.07-.32-.12-.57c-.04-.25-.09-.54-.14-.89-.05-.34-.1-.71-.14-1.1-.05-.39-.09-.76-.12-1.12-.04-.36-.06-.67-.08-.94-.02-.27-.03-.5-.03-.67,0-.17,0-.27.03-.29.02-.02.04,0,.06.08.02.07.05.18.08.33.03.15.06.33.1.56.03.22.07.48.11.78l-.05.06Z"/><path class="cls-29" d="m138.95,742.89c.03.21.05.39.07.53.02.14.04.26.06.35.02.09.03.15.05.18.01.03.03.05.04.03.01-.01.02-.05.02-.11,0-.06,0-.13,0-.21s-.01-.17-.02-.28c-.01-.1-.02-.21-.03-.31-.03-.21-.05-.36-.06-.46-.02-.09-.03-.16-.04-.19-.02-.06-.04-.12-.06-.16-.02-.05-.05-.11-.08-.19-.02-.05-.04-.12-.06-.21-.02-.09-.04-.19-.06-.31s-.04-.24-.06-.38c-.02-.14-.04-.28-.05-.42-.03-.28-.06-.52-.08-.73-.02-.21-.03-.39-.04-.53,0-.14,0-.26,0-.33,0-.08.01-.12.03-.14.01-.02.03,0,.06.06s.05.16.08.29.06.31.09.52c.03.21.07.46.1.75l-.05.06c-.04-.35-.08-.59-.11-.73-.03-.13-.05-.19-.07-.17,0,0-.01.03-.01.05,0,.03,0,.07,0,.13,0,.06,0,.14.01.23,0,.1.02.21.04.35.02.19.05.34.06.45s.04.18.05.22c0,0,0,.02.02.05.01.03.03.06.04.1s.03.07.04.11c.01.03.02.06.03.07.02.05.03.11.05.2.02.09.04.19.06.31.02.12.04.25.06.39.02.14.04.28.06.43.04.31.07.57.09.8.02.22.03.41.04.56,0,.15,0,.27,0,.34,0,.08-.02.13-.03.14-.02.02-.04,0-.06-.06s-.05-.16-.08-.31c-.03-.15-.06-.34-.1-.58s-.08-.53-.12-.87l.05-.06Z"/><path class="cls-29" d="m139.57,744.26l-.04.05-.07-.55h0c.02.21.03.38.03.51,0,.13,0,.2-.01.22-.03.03-.06-.08-.11-.32-.04-.24-.1-.63-.16-1.15l-.31-2.52.05-.05.29,2.43c.04.35.08.59.1.72s.04.2.05.18c0-.01.01-.05.01-.11s0-.15-.01-.24c0-.1-.02-.22-.03-.35-.01-.13-.03-.28-.05-.43l-.28-2.3.05-.05.48,3.97Z"/><path class="cls-29" d="m139.14,740.24l.04-.05.07.58h0c-.02-.21-.03-.4-.04-.53,0-.14,0-.22.01-.23.02-.03.05.07.09.28.04.21.09.54.14.99l.33,2.72-.05.05-.3-2.49c-.04-.31-.07-.53-.09-.67-.02-.13-.04-.19-.06-.18,0,0-.01.04-.01.1,0,.06,0,.14.01.24,0,.1.02.21.03.34.01.13.03.27.05.41l.28,2.34-.05.05-.48-3.97Z"/><path class="cls-29" d="m139.36,739.98l.04-.05.07.58h0c-.02-.21-.03-.4-.04-.53,0-.14,0-.22.01-.23.02-.03.05.07.09.28.04.21.09.54.14.99l.33,2.72-.05.05-.3-2.49c-.04-.31-.07-.53-.09-.67s-.04-.19-.06-.18c0,0-.01.04-.01.1,0,.06,0,.14.01.24,0,.1.02.21.03.34.01.13.03.27.05.41l.28,2.34-.05.05-.48-3.96Z"/><path class="cls-29" d="m139.57,739.75l.05-.06.41,2.9h0s-.31-3.02-.31-3.02l.05-.05.43,4.27c.02.18.03.36.05.52.02.17.03.32.04.45,0,.13.02.24.02.32,0,.08,0,.13-.02.14-.01.01-.02,0-.04,0l-.09-.74s0,.01.01.02c0,0,0,.01.01,0,0,0,0-.02,0-.05,0-.03,0-.07,0-.12s0-.11-.02-.18c0-.07-.01-.15-.02-.24l-.03-.31-.56-3.86Z"/><path class="cls-29" d="m145.49,732.05l.16-.18.08.66-.12.14.14,1.14.11-.13.08.62-.11.13.15,1.28.12-.14.08.66-.16.19-.53-4.37Z"/><path class="cls-29" d="m145.69,731.83l.04-.05.49,3.1h0s-.39-3.22-.39-3.22l.04-.04.53,4.36-.04.05-.49-3.09h0s.39,3.21.39,3.21l-.04.04-.53-4.36Z"/><path class="cls-29" d="m146.64,735.72l-.02.03-.07-.51c.02.24.03.42.03.52,0,.1,0,.16-.02.18-.02.02-.04-.02-.07-.13-.03-.1-.06-.26-.09-.45-.03-.2-.07-.43-.11-.7-.04-.27-.08-.56-.11-.88-.04-.31-.07-.61-.1-.89-.03-.28-.05-.53-.07-.75s-.02-.4-.03-.53c0-.14,0-.22.02-.23.01-.01.03,0,.05.06.02.05.04.13.06.25.02.11.05.26.08.44.03.18.06.39.09.64l-.04.04c-.02-.14-.04-.26-.05-.37-.02-.1-.03-.19-.05-.26-.01-.07-.03-.11-.04-.14-.01-.03-.02-.04-.03-.03-.01.01-.02.07-.01.17,0,.1.01.24.02.4s.03.35.05.55c.02.2.04.41.07.62.03.21.05.41.08.61.03.2.05.37.08.52.02.15.05.27.07.35.02.09.04.12.05.11.01,0,.02-.04.02-.11,0-.06,0-.15,0-.26,0-.11-.02-.24-.03-.39-.02-.15-.03-.32-.06-.51l-.06.07-.07-.58.09-.11.28,2.3Z"/><path class="cls-29" d="m146.18,726.85s.01-.03.02-.06c0-.03,0-.08,0-.14,0-.06,0-.14-.01-.24s-.02-.21-.03-.34l.03-.03.52,4.27-.04.04-.36-3.02-.05.06-.07-.55Z"/><path class="cls-29" d="m146.33,725.79s.04.04.06.17c.03.13.06.3.09.51.03.21.06.45.1.7.03.26.06.51.09.75.03.24.06.5.09.76.03.26.05.51.08.73.02.23.03.41.04.56,0,.15,0,.24-.01.25s-.04-.04-.06-.17c-.03-.13-.06-.3-.09-.51-.03-.21-.06-.45-.1-.7-.03-.26-.06-.51-.09-.75-.03-.24-.06-.5-.09-.76-.03-.26-.05-.5-.08-.73-.02-.22-.03-.41-.04-.56,0-.15,0-.23.01-.25Zm.47,3.86s0-.06,0-.15c0-.09-.02-.22-.03-.37-.01-.15-.03-.33-.06-.53-.02-.2-.05-.41-.07-.64-.03-.22-.05-.43-.08-.63-.03-.2-.05-.37-.07-.51-.02-.15-.04-.26-.06-.34-.02-.08-.03-.12-.04-.11s0,.06,0,.15c0,.09.02.22.03.37.02.15.03.33.06.53.02.2.05.41.07.63s.05.43.08.63c.03.2.05.37.07.51s.04.26.05.34c.02.08.03.12.04.11Z"/><path class="cls-29" d="m146.59,726.93l.04-.05.1.82-.04.05-.1-.82Zm.27,2.26l.04-.05.1.82-.04.05-.1-.82Z"/><path class="cls-29" d="m147.07,728.75l-.03.03.12,1.01-.03.04-.12-1.01-.09.11-.08-.69-.22-2.67.03-.04.33,2.71.03-.03.07.55Zm-.19-.41l.07-.07-.23-1.88h0s.16,1.95.16,1.95Z"/><path class="cls-29" d="m146.7,725.47l.15-.17.07.58c.02.27.04.54.06.82.02.28.05.58.08.89.03.31.06.64.1.98.04.34.08.71.12,1.1l-.04.04c-.04-.34-.08-.68-.11-1.01-.03-.33-.07-.66-.1-.98s-.06-.62-.08-.92c-.02-.3-.05-.57-.06-.83l-.11.13-.08-.62Z"/><path class="cls-29" d="m147.02,725.02l.04-.05.61,4.26-.04.05-.16-1.13-.09.1.12,1.18-.04.05-.44-4.45Zm.3,2.64l.07-.08-.26-1.83h0s.19,1.91.19,1.91Z"/><path class="cls-29" d="m147.17,724.85l.05-.06.47,3.34h0s-.35-3.47-.35-3.47l.05-.06.52,4.35-.04.04-.4-3.36h0s.34,3.43.34,3.43l-.03.04-.47-3.29h0s.4,3.36.4,3.36l-.04.04-.52-4.35Z"/><path class="cls-29" d="m147.2,736.75s.01-.03.02-.06c0-.03,0-.08,0-.14,0-.06,0-.14-.01-.24,0-.09-.02-.21-.03-.34l.03-.03.51,4.27-.04.04-.36-3.01-.05.06-.07-.55Z"/><path class="cls-29" d="m147.35,735.68s.04.04.06.17c.03.13.06.3.09.51.03.21.06.45.1.7.03.26.06.51.09.75.03.24.06.5.09.76.03.26.05.51.08.73.02.22.03.41.04.56,0,.15,0,.24-.01.25s-.04-.04-.06-.17c-.03-.13-.06-.3-.09-.51-.03-.21-.06-.45-.1-.7-.03-.26-.06-.51-.09-.75-.03-.24-.06-.5-.09-.76-.03-.26-.05-.5-.08-.73-.02-.22-.03-.41-.04-.56,0-.15,0-.24.01-.25Zm.47,3.86s0-.06,0-.15c0-.09-.02-.22-.03-.37s-.03-.33-.06-.53c-.02-.2-.05-.41-.07-.64-.03-.22-.05-.43-.08-.63-.03-.2-.05-.37-.07-.51-.02-.15-.04-.26-.06-.34-.02-.08-.03-.12-.04-.11s0,.06,0,.15c0,.09.02.22.03.37.02.15.03.33.06.53.02.2.05.41.07.63s.05.43.08.63c.03.2.05.37.07.51s.04.26.05.34c.02.08.03.12.04.11Z"/><path class="cls-29" d="m147.5,735.38l.03-.04.46,4.66-.03.04-.46-4.66Z"/><path class="cls-29" d="m147.65,736.23s.01-.03.02-.06c0-.03,0-.08,0-.14,0-.06,0-.14-.01-.24s-.02-.21-.03-.34l.03-.03.51,4.27-.04.04-.36-3.01-.05.06-.07-.55Z"/><path class="cls-29" d="m147.8,735.16s.04.04.06.17c.03.13.06.3.09.51.03.21.06.45.1.7.03.26.06.51.09.75.03.24.06.5.09.76.03.26.05.51.08.73.02.22.03.41.04.56,0,.15,0,.24-.01.25s-.04-.04-.06-.17c-.03-.13-.06-.3-.09-.51-.03-.21-.06-.44-.1-.7-.03-.26-.06-.51-.09-.75-.03-.24-.06-.5-.09-.76-.03-.26-.05-.5-.08-.73-.02-.22-.03-.41-.04-.56,0-.15,0-.23.01-.25Zm.46,3.86s0-.06,0-.15c0-.09-.02-.22-.03-.37-.01-.15-.03-.33-.06-.53-.02-.2-.05-.41-.07-.64s-.05-.43-.08-.63c-.02-.2-.05-.37-.07-.51-.02-.15-.04-.26-.06-.34-.02-.08-.03-.12-.04-.11s0,.06,0,.15c0,.09.02.22.03.37.02.15.03.33.06.53.02.2.05.41.07.63.03.22.05.43.08.63.03.2.05.37.07.51.02.15.04.26.05.34.02.08.03.12.04.11Z"/><path class="cls-29" d="m147.96,734.87l.03-.04.46,4.66-.03.04-.46-4.66Z"/><path class="cls-29" d="m148.68,739.1l-.15.17c-.04-.35-.08-.67-.1-.94-.02-.27-.04-.52-.05-.73,0-.11,0-.22-.01-.32,0-.1,0-.21-.02-.33,0-.12-.02-.24-.03-.37-.01-.13-.03-.28-.05-.45,0-.08-.02-.16-.03-.25-.01-.09-.02-.16-.03-.24-.01-.07-.02-.13-.03-.18-.01-.04-.02-.06-.03-.05,0,0,0,.04,0,.1,0,.06,0,.14.02.24,0,.1.02.21.03.34.01.13.03.27.05.42l-.04.04c-.03-.24-.05-.46-.07-.66-.02-.21-.04-.38-.05-.54-.01-.15-.02-.28-.02-.37,0-.09,0-.15.02-.16.01-.02.03.01.05.09.02.08.04.18.06.3.02.12.04.26.06.41.02.15.04.29.06.43.02.17.04.33.05.47s.03.27.04.39c0,.12.02.23.02.34,0,.1.01.2.02.29,0,.09,0,.18.01.26,0,.08,0,.17.01.25,0,.08,0,.17.02.26,0,.09.01.18.02.27l.11-.12.07.62Z"/><path class="cls-29" d="m148.25,734.64s.04.04.06.17c.03.13.06.3.09.51.03.21.06.45.1.7.03.26.06.51.09.75.03.24.06.5.09.76.03.26.05.5.08.73.02.22.03.41.04.56,0,.15,0,.24-.01.25s-.04-.04-.06-.17c-.03-.13-.06-.3-.09-.51-.03-.21-.06-.44-.1-.7-.03-.26-.06-.51-.09-.75-.03-.24-.06-.5-.09-.76-.03-.26-.05-.5-.08-.73-.02-.22-.03-.41-.04-.56,0-.15,0-.23.01-.25Zm.46,3.85s0-.06,0-.15c0-.09-.02-.21-.03-.37-.01-.15-.03-.33-.06-.53-.02-.2-.05-.41-.07-.64-.03-.22-.05-.43-.08-.63-.02-.2-.05-.37-.07-.51s-.04-.26-.06-.34c-.02-.08-.03-.12-.04-.11s0,.06,0,.15c0,.09.02.22.03.37s.03.33.06.53c.02.2.05.41.07.63.03.22.05.43.08.63.03.2.05.37.07.51s.04.26.05.34c.02.08.03.12.04.11Z"/><path class="cls-29" d="m149.02,738.71l-.15.17c-.04-.35-.08-.67-.1-.94-.02-.27-.04-.52-.05-.73,0-.11,0-.22-.01-.32,0-.1,0-.21-.02-.33,0-.12-.02-.24-.03-.37-.01-.13-.03-.28-.05-.45,0-.08-.02-.16-.03-.25-.01-.09-.02-.16-.03-.24-.01-.07-.02-.13-.03-.18-.01-.04-.02-.06-.03-.05,0,0,0,.04,0,.1,0,.06,0,.14.02.24,0,.1.02.21.03.34s.03.27.05.42l-.04.04c-.03-.24-.05-.46-.07-.66-.02-.2-.04-.38-.05-.54-.01-.15-.02-.28-.02-.37,0-.09,0-.15.02-.16.01-.02.03.01.05.09.02.08.04.18.06.3.02.12.04.26.06.41.02.15.04.29.06.43.02.17.04.33.05.47s.03.27.04.39c0,.12.02.23.02.34,0,.1.01.2.02.29,0,.09,0,.18.01.26,0,.08,0,.17.01.25,0,.08,0,.17.02.26s.01.18.02.27l.11-.12.07.62Z"/><path class="cls-29" d="m148.81,736.12s.01-.02.01-.04c0-.03,0-.07,0-.12,0-.05,0-.13-.01-.22,0-.09-.02-.2-.04-.33-.02-.18-.04-.32-.06-.43-.02-.1-.03-.15-.04-.14,0,0,0,.04,0,.09,0,.05,0,.12.01.21s.02.18.03.29c.01.11.02.21.04.32l-.04.04c-.02-.21-.05-.4-.06-.58-.02-.18-.03-.34-.04-.48,0-.14-.01-.25-.01-.33,0-.08,0-.13.02-.14,0,0,.02,0,.03.04.01.04.03.1.05.19.02.09.04.2.06.34.02.14.04.3.07.49.03.22.05.41.06.57.01.17.02.29.02.38h0s.04.16.07.34c.03.19.06.42.1.69.02.2.04.39.06.55.02.16.03.31.03.43,0,.12,0,.22,0,.29s0,.11-.02.13c-.01.01-.03,0-.05-.07-.02-.06-.04-.15-.06-.27-.02-.12-.05-.27-.07-.45-.03-.18-.05-.38-.08-.6l.04-.04c.03.26.06.47.09.64.03.17.05.24.06.22.01-.01.01-.09,0-.23,0-.14-.03-.33-.06-.58-.02-.17-.04-.3-.05-.39-.01-.09-.03-.16-.04-.21s-.02-.07-.03-.07-.02,0-.02.01l-.06-.52Z"/><path class="cls-32" d="m137,741.91c.25,2.06.37,3.82.26,3.95s-.4-1.45-.65-3.51c-.25-2.06-.37-3.83-.26-3.95s.4,1.45.65,3.51Z"/><path class="cls-29" d="m137.56,746.19c.22,1.84.33,3.42.23,3.53l-.48.55c-.07.08-.27-.98-.44-2.37-.17-1.4-.25-2.6-.18-2.68,0-.01.02,0,.03.03-.27-2.32-.38-4.22-.26-4.36.09-.1.29.78.5,2.18,0-.02,0-.02,0-.03.1-.11.36,1.3.58,3.15Z"/><path class="cls-7" d="m108.89,773.77l-.11.12-.09-.71.26-.3.09.71-.11.12.7,5.65-.04.05-.7-5.65Z"/><path class="cls-7" d="m109.93,780.78s0,0-.01-.01l-.08-.63s0,0,0,.01c0,0,0,0,0,0,.01-.02.02-.07.02-.16,0-.1-.02-.27-.04-.54l-.03-.27-.66-4.48.04-.05.57,3.91-.03-.17h.01s.01.17.01.17l-.42-4.07.04-.05.5,4.98c.03.3.05.54.07.74.02.19.02.34.02.44,0,.1,0,.16-.02.18,0,0,0,0-.01,0Z"/><path class="cls-7" d="m109.4,774.41l.04-.05.1.78h0c-.02-.19-.03-.35-.04-.48s-.01-.25,0-.33c0-.08,0-.13.02-.14.02-.02.05.05.09.23s.09.44.14.79c.05.35.11.76.17,1.24h0c.06.49.11.91.14,1.27.03.36.06.65.06.87s0,.33-.02.36c-.01.01-.03,0-.05-.06-.02-.06-.04-.14-.06-.27-.02-.12-.05-.26-.08-.43h0s.29,2.31.29,2.31l-.04.05-.76-6.12Zm.62,3.61c0-.15-.02-.36-.05-.62-.03-.26-.06-.56-.1-.91h0c-.04-.36-.08-.66-.12-.9-.04-.25-.07-.43-.1-.56-.03-.12-.05-.18-.06-.16s-.02.1-.01.25c0,.15.02.36.05.62.03.26.06.56.1.91h0c.04.34.08.64.12.89.04.25.07.44.1.56.03.13.05.19.06.17s.02-.1.01-.25Z"/><path class="cls-7" d="m110.25,778.43c-.04-.17-.09-.43-.14-.78-.05-.34-.11-.75-.17-1.23h0c-.06-.48-.11-.9-.14-1.27-.04-.37-.06-.67-.06-.89,0-.22,0-.34.02-.37s.05.05.09.22c.04.17.09.43.14.76.05.34.11.73.16,1.19l.03.28-.2.23-.07-.6.18-.21.05.58-.04-.29c-.04-.35-.08-.65-.12-.87-.03-.23-.06-.39-.09-.49-.02-.1-.04-.15-.06-.13s-.02.09-.01.22c0,.13.02.32.04.56.02.24.06.53.1.87l.04.29c.04.32.08.6.11.82.03.22.06.39.09.5.03.11.05.16.06.14.01-.01.02-.05.02-.12,0-.07,0-.16,0-.27,0-.11-.02-.23-.03-.37v-.04s.04-.05.04-.05v.05c.03.19.04.37.06.54.01.17.02.32.03.46,0,.14,0,.24,0,.33,0,.08-.01.13-.03.15-.02.03-.06-.05-.1-.22Z"/><path class="cls-7" d="m109.81,771.92l.04-.05.31,2.5h0c-.03-.27-.04-.48-.04-.64,0-.16,0-.25.02-.27s.04.04.08.18c.03.14.07.35.11.62.04.27.09.59.13.96l.35,2.8-.04.05-.33-2.67c-.05-.41-.1-.73-.14-.95-.04-.22-.07-.32-.09-.3-.01.01-.02.08-.01.21,0,.12.02.29.03.49.02.2.04.43.08.7l.33,2.67-.04.05-.78-6.35Z"/><path class="cls-7" d="m110.87,777.72c-.04-.17-.09-.43-.14-.77-.05-.34-.11-.75-.17-1.23h0c-.06-.48-.11-.9-.14-1.27-.04-.37-.06-.67-.06-.88,0-.22,0-.34.02-.37s.05.05.09.22c.04.17.09.43.14.76.05.34.11.73.16,1.19l.03.28-.2.23-.07-.6.18-.21.05.58-.04-.29c-.04-.35-.08-.64-.12-.87-.03-.22-.06-.39-.09-.49-.02-.1-.04-.15-.06-.13s-.02.09-.01.22.02.32.04.56c.02.24.06.53.1.87l.04.29c.04.32.08.6.11.82.03.22.06.39.09.5.03.11.05.16.06.14.01-.01.02-.05.02-.12,0-.07,0-.16,0-.27,0-.11-.02-.23-.03-.37v-.04s.04-.05.04-.05v.05c.03.19.04.37.06.54.01.17.02.32.03.46,0,.14,0,.24,0,.33,0,.08-.01.13-.03.15-.02.03-.06-.05-.1-.22Z"/><path class="cls-7" d="m110.54,773.11l.04-.05.1.77h0c-.03-.27-.05-.49-.06-.65,0-.17,0-.26,0-.27,0,0,0,0,.01,0,0,0,0,0,0,.01l.09.74s0-.02-.01-.02c0,0-.01,0-.02,0-.01.01-.01.07-.01.16s.01.23.03.4c.02.17.04.37.07.6l.35,2.82-.04.05-.56-4.57Z"/><path class="cls-7" d="m111.26,777.28c-.04-.17-.09-.43-.14-.77-.05-.34-.11-.75-.17-1.23h0c-.06-.48-.1-.9-.14-1.27-.04-.37-.06-.66-.06-.88,0-.22,0-.34.02-.37s.05.05.09.22c.04.17.09.43.14.76.05.34.11.73.16,1.19l.03.28-.2.23-.07-.6.18-.21.05.58-.04-.29c-.04-.35-.08-.64-.12-.87-.03-.22-.06-.39-.09-.49-.02-.1-.04-.15-.06-.13s-.02.09-.01.22.02.32.04.56c.02.24.05.53.1.87l.04.29c.04.32.08.59.11.82.03.22.06.39.09.5.03.11.05.16.06.14.01-.01.02-.05.02-.12,0-.07,0-.16,0-.26,0-.11-.02-.23-.03-.37v-.04s.04-.05.04-.05v.05c.03.19.04.37.06.54.01.17.02.32.03.46,0,.14,0,.24,0,.33,0,.08-.01.13-.03.15-.02.03-.06-.05-.1-.22Z"/><path class="cls-7" d="m111.6,776.88c-.04-.19-.08-.5-.13-.93l-.34-2.77-.04.04-.08-.63.04-.04-.15-1.23.04-.05.15,1.23.05-.05.08.63-.05.05.34,2.77c.03.24.05.4.07.48.02.08.03.11.04.1,0,0,0,0,0-.01,0,0,0-.01,0-.02l.08.62s0,.02,0,.03c0,.01,0,.02-.01.02-.02.03-.05-.05-.09-.24Z"/><path class="cls-7" d="m111.76,776.71c-.04-.17-.09-.43-.14-.78-.05-.34-.11-.76-.17-1.24h0c-.06-.5-.11-.92-.14-1.28-.03-.36-.05-.65-.06-.86,0-.21,0-.33.02-.36s.06.05.1.22c.04.17.09.43.14.77.05.34.11.75.17,1.24h0c.06.49.11.92.14,1.28.03.37.05.66.06.87s0,.33-.02.36-.05-.05-.1-.22Zm.03-.7c0-.15-.02-.35-.05-.61-.03-.26-.06-.57-.1-.93h0c-.04-.37-.08-.67-.12-.91-.04-.24-.07-.43-.1-.55s-.05-.17-.06-.15-.02.1-.01.24c0,.15.02.35.05.61.02.26.06.56.1.92h0c.04.36.08.67.12.91.04.25.07.43.1.55.03.12.05.17.06.16s.02-.1.01-.24Z"/><path class="cls-7" d="m112.13,776.42c-.03-.1-.06-.24-.09-.44-.03-.2-.07-.43-.1-.7v-.04s.04-.05.04-.05v.04c.04.22.06.4.09.51.03.12.05.17.06.15.01-.01.02-.05.02-.12,0-.06,0-.15-.01-.25,0-.11-.02-.23-.04-.36h0c-.02-.17-.04-.3-.06-.39-.02-.09-.04-.16-.06-.21l-.06-.13c-.04-.08-.07-.21-.11-.4-.04-.19-.08-.45-.12-.78h0c-.03-.27-.06-.5-.07-.71-.02-.21-.03-.38-.03-.51,0-.13,0-.2.03-.22s.04.02.07.12c.03.1.06.25.09.45.03.19.07.42.1.67v.06s-.03.05-.03.05v-.03c-.03-.22-.06-.39-.09-.52-.03-.13-.05-.18-.06-.16-.01.01-.02.05-.02.11,0,.06,0,.15.01.25,0,.11.02.23.04.36h0c.02.16.04.29.06.39.02.1.04.17.06.22l.06.13c.04.08.08.22.11.4.03.18.07.44.11.76h0c.03.27.06.51.07.73s.03.39.02.52c0,.13,0,.21-.03.23-.02.02-.04-.01-.07-.11Z"/><path class="cls-7" d="m112.34,776.04c-.04-.17-.09-.43-.14-.77-.05-.34-.11-.75-.17-1.23h0c-.06-.48-.1-.9-.14-1.26-.03-.37-.06-.66-.06-.88,0-.22,0-.34.02-.37s.05.05.09.22c.04.17.09.43.14.76.05.33.11.73.16,1.19l.03.28-.2.23-.07-.6.18-.2.05.58-.04-.29c-.04-.35-.08-.64-.12-.87-.03-.22-.06-.39-.09-.49-.02-.1-.04-.15-.06-.13s-.02.09-.01.22.02.31.04.55.05.53.1.87l.04.29c.04.32.08.59.11.81.03.22.06.39.09.5.03.11.05.16.06.14.01-.01.02-.05.02-.12,0-.07,0-.16,0-.26,0-.11-.02-.23-.03-.36v-.04s.04-.05.04-.05v.05c.03.19.04.37.06.54.01.17.02.32.03.46,0,.14,0,.24,0,.33,0,.08-.01.13-.03.15-.02.03-.06-.05-.1-.22Z"/><path class="cls-7" d="m112.6,775.89c-.03-.1-.06-.25-.09-.45s-.07-.44-.1-.71h0c-.05-.4-.08-.72-.09-.97-.01-.25,0-.41.02-.47l.08-.2.07.59-.08.2s-.02.12-.01.26.02.31.05.53h0c.03.23.05.4.08.52.02.12.04.17.06.15.01-.01.02-.08.02-.19s-.01-.26-.03-.44c-.02-.18-.04-.38-.06-.6l-.17-1.35c-.03-.28-.07-.49-.1-.64-.03-.15-.05-.21-.07-.19-.02.02-.02.1-.01.24s.02.31.04.52v.04s-.04.05-.04.05v-.05c-.04-.25-.06-.49-.08-.7-.02-.21-.03-.39-.03-.53,0-.14,0-.22.03-.24s.04.02.07.13c.03.11.06.27.1.48.04.21.07.47.11.78l.39,3.15-.04.05-.09-.74h0c.02.17.03.33.03.46,0,.13.01.24,0,.32,0,.08,0,.13-.02.14-.02.02-.04-.02-.06-.12Z"/><path class="cls-7" d="m112.26,771.17l.04-.05.1.77h0c-.03-.27-.05-.49-.06-.65,0-.17,0-.26,0-.27,0,0,0,0,.01,0,0,0,0,0,0,.01l.09.74s0-.02-.01-.02c0,0-.01,0-.02,0-.01.01-.01.07-.01.16s.01.23.03.4c.02.17.04.37.07.6l.35,2.81-.04.05-.56-4.56Z"/><path class="cls-7" d="m112.98,775.31c-.04-.17-.09-.43-.14-.78-.05-.34-.11-.76-.17-1.24h0c-.06-.48-.11-.91-.14-1.27-.03-.37-.05-.65-.06-.87s0-.33.02-.36c.02-.02.05.03.08.16.03.13.07.31.11.53.04.22.07.47.11.72v.03s-.04.05-.04.05v-.03c-.04-.23-.07-.42-.1-.58-.03-.16-.06-.23-.07-.21-.01.02-.02.1-.01.25,0,.15.02.36.05.62s.06.56.1.91h0c.04.36.08.66.12.9.04.25.07.43.1.55.03.12.05.18.06.16.02-.02.02-.12.01-.29,0-.17-.03-.39-.06-.64v-.04s.04-.05.04-.05v.03c.04.29.06.56.08.8.02.24.03.44.03.59,0,.15,0,.24-.03.26-.02.03-.06-.05-.1-.22Z"/><path class="cls-7" d="m112.43,768.96l.04-.05.31,2.49h0c-.03-.27-.04-.48-.04-.63,0-.16,0-.25.02-.27s.04.04.08.18c.03.14.07.35.11.62s.09.59.13.96l.34,2.79-.04.05-.33-2.66c-.05-.41-.1-.73-.14-.95-.04-.22-.07-.32-.09-.29-.01.01-.02.08-.01.2,0,.12.02.28.03.49.02.2.04.43.08.69l.33,2.66-.04.05-.78-6.32Z"/><path class="cls-42" d="m108.74,778.53c-.11.12-.4-1.39-.64-3.37-.25-1.99-.36-3.7-.25-3.82s.4,1.39.64,3.37c.25,1.98.36,3.69.25,3.82Z"/><line class="cls-38" x1="108.6" y1="780.55" x2="108.44" y2="777.48"/><path class="cls-22" d="m118.73,763.26l-.3.33-.32-2.58c-.13-1.03-.18-1.91-.13-1.98l.09-.11c.06-.06.2.72.33,1.75l.32,2.58Z"/><path class="cls-31" d="m118.09,760.74l.61-.68s.09.32.15.78l.86,6.97c.06.52.09.97.07,1.01l-.55.63s-.1-.37-.17-.89l-.96-7.81Z"/><path class="cls-17" d="m123.46,761.33l-.86-5.42c.1,1.18.24,2.49.41,3.81.16,1.32.34,2.59.51,3.69.17,1.1.34,1.99.48,2.57.14.59.25.85.32.77l-.51-5.81h0c.05.59.08,1.09.09,1.45.02.74-.06.83-.2.23-.07-.29-.15-.74-.24-1.29h0Z"/><path class="cls-8" d="m123.81,760.94l.51,5.81c.07-.08.1-.5.08-1.23s-.09-1.73-.19-2.91c-.1-1.18-.24-2.49-.4-3.8-.16-1.31-.34-2.58-.51-3.68l-.35.39h0s.09.09.16.39c.07.29.15.74.24,1.29.18,1.12.35,2.55.46,3.74h0Z"/><path class="cls-15" d="m123.77,762.22c.09-.1,0-1.51-.21-3.14-.2-1.64-.43-2.88-.52-2.79s0,1.51.21,3.14c.2,1.64.43,2.88.52,2.78Z"/><path class="cls-21" d="m122.95,755.51l.35-.39c-.17-1.1-.34-1.99-.48-2.58-.14-.59-.25-.86-.32-.78-.07.08-.1.5-.08,1.23.02.73.09,1.73.19,2.91l.86,5.42h0c-.18-1.12-.35-2.55-.46-3.75-.05-.59-.08-1.09-.09-1.45,0-.36,0-.58.04-.61h0Z"/><path class="cls-34" d="m119.2,765.68l-.24.27c-.05.05,0,.82.11,1.71l.21,1.71.41-.47-.21-1.71c-.11-.89-.24-1.56-.28-1.51Z"/><path class="cls-16" d="m125.49,760.87c0,.11,0,.22,0,.31,0,.29-.03.46-.06.5-.14.17-.5-1.56-.79-3.97-.08-.66-.13-1.28-.14-1.63-.12.25.16,2.86.35,4.36.52,4.25.78,4.44.83,4.39.02-.03.04-.2.05-.36v-.03c.02-.64-.04-1.8-.17-3.27,0-.11-.03-.25-.04-.31,0-.04-.01-.04-.01,0h0Z"/><path class="cls-18" d="m125.46,764.24c-.07-.29-.14-.68-.22-1.15-.33-1.98-.67-4.91-.74-6.55,0-.17-.01-.32-.01-.46,0-.1,0-.27.02-.28.03-.03.09.21.17.66.05.3.1.66.15,1.05,0-.01-.49-4.67-.81-4.31-.13.15.05,2.68.31,4.78.14,1.11.28,2.2.43,3.18.5,3.29.91,4.71.95,3.31-.02.46-.11.37-.25-.24h0Z"/><path class="cls-24" d="m124.95,758.75c0,.06,0,.16.03.34.02.15.04.29.07.4.11.53.19.35.19.35.03-.04.04-.24.03-.59-.02-.7-.13-1.89-.28-3.15-.16-1.29-.29-2.12-.34-2.49-.36-2.31-.67-3.53-.82-3.36-.21.24,0,3.68.5,7.71-.26-2.11-.35-3.93-.22-4.08.01-.01.07-.06.2.43.11.44.21,1,.3,1.58.09.59.19,1.36.23,1.67.04.31.09.78.12,1.17Z"/><path class="cls-5" d="m126.07,759.12c0,.06,0,.16.03.34.02.15.04.29.07.4.11.52.19.35.19.35.03-.04.04-.24.03-.58-.02-.7-.13-1.89-.28-3.14-.16-1.29-.29-2.12-.34-2.48-.36-2.31-.66-3.52-.82-3.35-.21.24,0,3.67.5,7.7-.26-2.1-.35-3.93-.22-4.08.01-.01.07-.06.2.43.11.44.21,1,.3,1.57.09.59.19,1.36.23,1.67.04.31.09.78.12,1.17Z"/><polygon class="cls-29" points="106.3 774.92 106.42 773.99 106.88 777.65 106.67 777.88 106.3 774.92"/><polygon class="cls-29" points="106.91 777.92 106.7 778.15 107.13 781.63 107.41 781.93 106.91 777.92"/><polygon class="cls-29" points="106.92 777.9 107.43 781.99 107.78 782.22 107.21 777.58 106.92 777.9"/><polygon class="cls-29" points="106.44 773.98 106.89 777.63 107.18 777.31 106.63 772.92 106.44 773.98"/><polygon class="cls-36" points="117.62 767.59 117.32 767.93 116.91 764.61 117.21 764.27 117.62 767.59"/><polyline class="cls-36" points="116.91 761.79 117.08 763.18 116.78 763.53 116.6 762.11"/><polyline class="cls-36" points="117.62 770.41 117.45 769.01 117.75 768.67 117.93 770.08"/><path class="cls-29" d="m117.46,764.69c.06.47.08.88.06.91s-.09-.33-.15-.8c-.06-.47-.08-.88-.06-.91s.09.33.15.8Z"/><line class="cls-36" x1="117.62" y1="766.44" x2="118.07" y2="770.09"/><line class="cls-36" x1="117.03" y1="761.64" x2="117.2" y2="763.05"/><path class="cls-29" d="m119.74,760.9l-.04-3.54c0-.15.02-.17.05-.05l.72,2.77-.72.82Z"/><path class="cls-29" d="m121.39,767.63l-.72.83-.93-7.56,1.33,5.33-.49-2.62c-.03-.16-.06-.45-.07-.58l-.05-2.95.93,7.55Z"/><path class="cls-41" d="m121.01,754.28h0c-.07.08,0,1.21.17,2.54l.2,1.65.26-.29-.2-1.65c-.16-1.32-.35-2.33-.42-2.25Z"/><path class="cls-41" d="m121.15,754.96h0c-.07.08,0,1.21.17,2.54l.2,1.65.26-.29-.2-1.65c-.16-1.32-.35-2.33-.42-2.25Z"/><path class="cls-29" d="m122.85,766.49l-.6.69s-.1-.35-.16-.86l-1.01-8.27.7-.79,1.01,8.26c.06.51.09.94.06.97Z"/><polygon class="cls-28" points="121.96 762.1 121.82 762.25 121.51 759.73 121.65 759.58 121.96 762.1"/><polygon class="cls-27" points="122.1 761.93 121.97 762.08 121.66 759.57 121.8 759.41 122.1 761.93"/><polygon class="cls-33" points="122.3 764.9 122.17 765.05 121.86 762.53 121.99 762.38 122.3 764.9"/><polygon class="cls-30" points="122.45 764.73 122.31 764.88 122 762.37 122.14 762.22 122.45 764.73"/><polyline class="cls-40" points="140.68 741.47 140.46 737.96 141.03 741.08"/><path class="cls-40" d="m141.78,740.22l-.12.13s-.08-.28-.12-.68l-.25-2.05c-.05-.4-.07-.74-.05-.76l.12-.13s.08.28.12.68l.25,2.05c.05.4.07.74.05.76Z"/><path class="cls-40" d="m141.58,737.8s-.02-.55-.03-.65c0-.1,0-.07.02.09.02.16.28,2.29.29,2.43.02.15.02.21,0,.14-.02-.09-.12-.55-.12-.55l-.18-1.45Z"/><path class="cls-40" d="m141.07,735.71c-.03-.5-.02-.83.02-.88s.11.19.2.61"/><path class="cls-40" d="m142.05,741.68c.03.5.02.83-.02.88s-.11-.18-.2-.61"/><polygon class="cls-40" points="142.54 740.34 142.93 739.9 142.4 735.55 142.01 735.99 142.54 740.34"/><polygon class="cls-29" points="142.5 739.64 142.81 739.28 142.44 736.25 142.13 736.6 142.5 739.64"/><polygon class="cls-40" points="142.76 738.32 142.74 738.35 142.59 737.09 142.61 737.07 142.76 738.32"/><path class="cls-29" d="m143.88,739.38c.05.43.08.8.05.83s-.08-.3-.13-.74c-.05-.43-.08-.8-.05-.83s.08.31.13.74Z"/><path class="cls-40" d="m143.65,740.41c-.05-.35-.09-.71-.14-1.08-.35-2.88-.51-5.33-.36-5.5.02-.02.03,0,.05.03"/><path class="cls-40" d="m143.74,740.3c-.05-.35-.09-.69-.14-1.08-.23-1.94-.34-3.59-.24-3.71.02-.02.03,0,.06.08"/><path class="cls-40" d="m143.83,740.19c-.05-.29-.1-.65-.15-1.07-.12-.99-.18-1.85-.13-1.91.02-.02.04.04.07.19"/><path class="cls-40" d="m143.91,732.1c.03.15.07.34.11.55.29,1.66.61,4.37.72,6.07.01.18.02.33.02.48"/><path class="cls-40" d="m143.97,733.13c.03.14.07.3.1.52.2,1.11.41,2.94.48,4.09.01.18.02.33.02.45"/><path class="cls-40" d="m144.04,734.25s.06.17.1.41c.1.57.21,1.51.25,2.11.01.19.01.32,0,.38"/><polygon class="cls-40" points="143.84 734.52 144.17 737.2 144.23 737.13 144.51 738.67 143.81 732.91 143.92 734.47 143.84 734.52"/><path class="cls-13" d="m145.58,736.64c.12.98.17,1.81.12,1.87s-.19-.69-.3-1.67c-.12-.98-.17-1.82-.12-1.87s.19.69.3,1.67Z"/><polyline class="cls-40" points="145.36 734.89 144.8 730.21 144.52 731.88 145.24 737.83 145.53 738.26"/><polyline class="cls-40" points="144.93 732.64 145.1 734.02 145.03 734.1"/><polyline class="cls-40" points="145.12 735.15 145.05 735.23 145.22 736.64"/><path class="cls-40" d="m145.07,733.87c-.09-.67-.18-1.14-.21-1.1-.04.05,0,.74.11,1.56"/><path class="cls-40" d="m145.12,735.63c.09.63.17,1,.19.84"/><polygon class="cls-29" points="148.34 726.09 149.15 732.88 149.29 732.72 149.6 734.67 149.44 732.51 149.59 732.35 148.77 725.6 148.34 726.09"/><line class="cls-37" x1="148.63" y1="727.79" x2="148.9" y2="727.48"/><line class="cls-37" x1="148.84" y1="729.52" x2="149.11" y2="729.22"/><line class="cls-37" x1="149.05" y1="731.26" x2="149.32" y2="730.95"/><path class="cls-46" d="m149.9,733.33c.28,2.33.41,4.32.29,4.46s-.44-1.64-.72-3.97c-.28-2.33-.41-4.33-.29-4.46s.44,1.65.72,3.97Z"/><path class="cls-29" d="m150.03,735.64l-.16.18c-.04-.37-.08-.7-.1-.99-.02-.29-.04-.54-.05-.77,0-.12-.01-.23-.01-.34,0-.11,0-.23-.02-.35,0-.12-.02-.26-.03-.39-.01-.14-.03-.3-.05-.47,0-.08-.02-.17-.03-.26-.01-.09-.02-.17-.04-.25-.01-.08-.02-.14-.04-.19-.01-.05-.02-.07-.03-.06,0,0-.01.04,0,.11,0,.06,0,.15.02.25,0,.1.02.23.04.36s.03.29.05.45l-.04.04c-.03-.25-.06-.48-.08-.7-.02-.22-.04-.41-.05-.57-.01-.16-.02-.29-.02-.39,0-.1,0-.16.02-.17.01-.02.03.02.05.1.02.08.04.18.06.31.02.13.04.28.07.43.02.16.04.31.06.45.02.18.04.35.05.49.01.15.03.29.04.41,0,.13.02.25.02.36,0,.11.01.21.02.31s0,.19.01.28c0,.09,0,.18.01.26,0,.09,0,.18.02.27,0,.09.01.19.03.29l.11-.13.08.66Z"/><path class="cls-12" d="m95.25,565.33l2.55,22.51-.02-2.78s0-.03,0-.04c0-.11.05.08.1.42l1.11,7.96.11-1.56-1.11-7.96s0-.07-.01-.1c-.05-.35-.07-.68-.05-.72l.27-.74-2.94-16.99h0Z"/><path class="cls-29" d="m98.36,582.73c-.02-.13-.03-.24-.05-.34l-3.3-19.03c-.03-.18-.05-.25-.06-.2h0c0,.07,0,.29.04.56l2.85,25.18c.04.35.09.67.12.72.01.02.02,0,.01-.08l-.02-2.98,1.09,7.82c.05.34.09.53.1.43,0,0,0,0,0,0l.14-1.93c0-.11-.03-.47-.07-.8l-1.09-7.84.29-.8s0-.37-.05-.72Zm-.43.33s0,.37.05.72c0,.03,0,.07.01.1l1.11,7.96-.11,1.56-1.11-7.96c-.05-.34-.09-.53-.1-.42,0,.01,0,.02,0,.04l.02,2.78-2.55-22.51h0s2.94,16.99,2.94,16.99l-.27.74Z"/><polygon class="cls-11" points="56.07 347.19 58.43 346.36 51.29 288.54 48.89 289.15 56.07 347.19"/><g class="cls-1"><path class="cls-26" d="m51.33,298.05c-.26-2.06-.56-3.71-.68-3.68l-1.22.32c-.12.03-.01,1.74.24,3.81.26,2.07.56,3.72.68,3.69l1.22-.33c.12-.03.01-1.73-.24-3.8"/><path class="cls-35" d="m51.19,297.3c-.26-2.07-.56-3.71-.68-3.68l-1.22.32c-.12.03-.01,1.74.24,3.81.26,2.07.56,3.72.68,3.69l1.22-.33c.12-.03.01-1.73-.24-3.8Z"/></g><polygon class="cls-35" points="50.58 301.33 51.08 301.19 50.15 293.71 49.65 293.84 50.58 301.33"/><g class="cls-43"><path class="cls-25" d="m50.55,295.89s0-.16-.02-.35-.05-.34-.06-.34,0,.16.02.35.05.34.06.34"/><path class="cls-25" d="m50.78,297.76s0-.16-.02-.35-.05-.34-.06-.34,0,.16.02.35.05.34.06.34"/><path class="cls-25" d="m51.01,299.63s0-.16-.02-.35-.05-.34-.06-.34,0,.16.02.35.05.34.06.34"/><path class="cls-25" d="m50.67,295.85s0-.16-.02-.35-.05-.34-.06-.34,0,.16.02.35.05.34.06.34"/><path class="cls-25" d="m50.91,297.73s0-.16-.02-.35-.05-.34-.06-.34,0,.16.02.35.05.34.06.34"/><path class="cls-25" d="m51.14,299.6s0-.16-.02-.35-.05-.34-.06-.34,0,.16.02.35.05.34.06.34"/><path class="cls-25" d="m50.8,295.82s0-.16-.02-.35-.05-.34-.06-.34,0,.16.02.35.05.34.06.34"/><path class="cls-25" d="m51.03,297.69s0-.16-.02-.35-.05-.34-.06-.34,0,.16.02.35.05.34.06.34"/><path class="cls-25" d="m51.26,299.57s0-.16-.02-.35-.05-.34-.06-.34,0,.16.02.35c.02.19.05.34.06.34"/><path class="cls-25" d="m49.8,296.09s0-.16-.02-.35-.05-.34-.06-.34,0,.16.02.35.05.34.06.34"/><path class="cls-25" d="m50.03,297.96s0-.16-.02-.35-.05-.34-.06-.34,0,.16.02.35.05.34.06.34"/><path class="cls-25" d="m50.27,299.84s0-.16-.02-.35-.05-.34-.06-.34,0,.16.02.35.05.34.06.34"/><path class="cls-26" d="m58.27,339.32c-.25-2.05-.55-3.68-.67-3.64l-1.2.4c-.12.04,0,1.74.24,3.79.25,2.05.56,3.68.67,3.64l1.2-.41c.12-.04,0-1.73-.24-3.78"/><path class="cls-35" d="m58.13,338.58c-.25-2.05-.55-3.68-.67-3.64l-1.2.4c-.12.04-.01,1.74.24,3.79.25,2.05.56,3.68.67,3.64l1.2-.41c.12-.04,0-1.73-.24-3.78Z"/><polygon class="cls-35" points="57.53 342.65 58.02 342.48 57.11 335.06 56.61 335.22 57.53 342.65"/><path class="cls-25" d="m56.51,337.54s0-.16-.02-.35-.05-.34-.06-.33,0,.16.02.35.05.34.06.33"/><path class="cls-25" d="m56.74,339.4s0-.16-.02-.35-.05-.34-.06-.33,0,.16.02.35.05.34.06.33"/><path class="cls-25" d="m56.97,341.26s0-.16-.02-.35-.05-.34-.06-.33,0,.16.02.35.05.34.06.33"/><path class="cls-25" d="m56.64,337.5s0-.16-.02-.35-.05-.34-.06-.33,0,.16.02.35.05.34.06.33"/><path class="cls-25" d="m56.87,339.36s0-.16-.02-.35-.05-.34-.06-.33,0,.16.02.35.05.34.06.33"/><path class="cls-25" d="m57.1,341.22s0-.16-.02-.35c-.02-.19-.05-.34-.06-.33s0,.16.02.35c.02.19.05.34.06.33"/><path class="cls-25" d="m56.76,337.46s0-.16-.02-.35-.05-.34-.06-.33,0,.16.02.35c.02.19.05.34.06.33"/><path class="cls-25" d="m56.99,339.31s0-.16-.02-.35-.05-.34-.06-.33,0,.16.02.35.05.34.06.33"/><path class="cls-25" d="m57.22,341.17s0-.16-.02-.35-.05-.34-.06-.33,0,.16.02.35.05.34.06.33"/></g><path class="cls-29" d="m54.16,326.09h.03s.03.02.05.11c.02.08.04.21.06.38.01.12.02.21.03.29,0,.08,0,.13,0,.16h0s.03.08.04.15c.01.08.03.18.05.32.02.19.04.33.04.43,0,.1,0,.16-.01.16h-.04s-.25-2-.25-2Zm.12.89h.03s.02-.05.01-.11c0-.06-.01-.16-.03-.3s-.03-.23-.04-.29c-.01-.06-.03-.09-.04-.08h-.02s.1.78.1.78Zm.02.12l.11.87h.03s.01-.17-.02-.47c-.03-.28-.06-.41-.09-.4h-.03Zm.25.98s-.03-.06-.05-.19c-.02-.13-.05-.32-.08-.56s-.05-.43-.06-.58c-.01-.15-.01-.22,0-.22.01,0,.03.06.05.18.02.12.04.29.07.5v.11s-.05.02-.05.02c.03.21.05.36.07.47.02.11.03.16.04.15,0,0,0,0,.01-.02,0-.01,0-.04,0-.08l.02.12s0,.06,0,.08,0,.02-.01.02Zm-.18-1.43s0,.05,0,.15c0,.1.02.23.04.41l.05-.02c-.02-.17-.04-.31-.06-.4-.02-.1-.03-.14-.04-.14Zm.33,1.36l-.03-.24h0c0,.1.01.17.01.21,0,.04,0,.06,0,.07,0,0-.02-.03-.03-.11-.01-.07-.03-.18-.05-.31-.02-.15-.03-.26-.03-.34,0-.08,0-.13.01-.14h.02s-.01-.11-.01-.11c-.02-.14-.03-.25-.04-.32-.01-.07-.02-.11-.03-.1,0,0-.01.04-.01.12l-.02-.12c0-.08,0-.12.01-.12s.02.04.04.12.03.22.06.4l.12.99h0Zm-.04-.09s.01-.05,0-.14c0-.09-.02-.22-.04-.38l-.02-.15v.02s-.03.05-.03.11c0,.06,0,.14.02.26.01.09.02.17.03.22,0,.05.02.08.02.07Zm-.02-1.33h-.02s.17,1.38.17,1.38h0s-.17-1.37-.17-1.37h-.02s0-.07,0-.07v-.06s0-.12,0-.12c-.02-.18-.04-.32-.04-.41,0-.09,0-.13,0-.13,0,0,.01,0,.02.03v.12s0-.03,0-.03c0,0,0,.03,0,.1,0,.06.02.17.03.31l.02.14h.02s.01.11.01.11Zm.19,1.37h0s-.26-2.14-.26-2.14h0s.26,2.14.26,2.14Zm-.15-1.51l.12.97c.02.15.03.26.05.33.01.07.02.1.03.1.01,0,.01-.05,0-.14,0-.09-.02-.24-.05-.44l-.1-.83h0s.18,1.49.18,1.49h0s-.03-.2-.03-.2h0c.01.16.01.24,0,.24-.02,0-.05-.17-.1-.54l-.12-.98h0Zm.18.07h-.02s.17,1.38.17,1.38h0s-.17-1.37-.17-1.37h-.02s0-.07,0-.07v-.06s0-.12,0-.12c-.02-.18-.04-.32-.04-.41,0-.09,0-.13,0-.13,0,0,.01,0,.02.03v.12s0-.03,0-.03c0,0,0,.03,0,.1,0,.06.02.17.03.31l.02.14h.02s.01.11.01.11Zm-.03-.41s-.01-.04-.02-.13-.01-.13-.01-.13c0,0,0,.01,0,.03,0,.02,0,.06.01.1s0,.07.01.1c0,.02,0,.04,0,.04h0Zm.22,1.78h0s-.18-1.49-.18-1.49h0s.18,1.49.18,1.49Zm-.09-1.53v.09s0,.02,0,.02c.02.1.03.21.05.34.02.14.03.26.03.35,0,.09,0,.14,0,.14,0,0,0,0,0,0,0,.03,0,.06,0,.1,0,.04,0,.08.01.12,0,.05.01.08.02.1,0,.02,0,.03.01.03h.02s.02.02.03.09c.01.06.03.16.04.29.02.16.03.28.03.37,0,.09,0,.13-.02.14-.01,0-.02-.03-.04-.1-.01-.07-.03-.17-.05-.3-.01-.1-.02-.19-.03-.26,0-.07,0-.12,0-.14,0-.02-.01-.05-.02-.08,0-.03-.01-.08-.02-.12-.01-.1-.02-.19-.02-.27,0-.03-.02-.09-.03-.16-.01-.08-.02-.16-.04-.26-.02-.15-.03-.27-.04-.36,0-.09,0-.14,0-.14,0,0,.01,0,.02.02h.03Zm.13,1.44s-.01.12.02.33.05.31.06.3c.02,0,.02-.14-.01-.39-.01-.09-.02-.15-.03-.19,0-.04-.02-.06-.02-.06h-.01Zm-.14-.95c.01.12.03.2.04.27.01.06.02.09.03.09,0,0,0-.04,0-.1,0-.06-.01-.16-.03-.28-.02-.13-.03-.22-.04-.28-.01-.06-.02-.09-.03-.09s0,.04,0,.11.01.17.03.29Zm.27.98l-.12-.97c-.02-.15-.03-.26-.05-.33-.01-.07-.02-.1-.03-.1-.01,0-.01.05,0,.14,0,.09.02.24.05.44l.1.83h0s-.26-2.14-.26-2.14h0s.08.68.08.68l.02.19h0c0-.09-.01-.16-.01-.2,0-.04,0-.06.01-.07.02,0,.05.17.1.54l.12.98h0Zm.05-.11s0-.01.01-.03v.11s0,.04,0,.04c0,0-.02-.03-.03-.1-.01-.07-.03-.18-.05-.33l-.12-.97h-.01s0-.08,0-.08v-.07s-.03-.34-.03-.34h0s.04.36.04.36h.03s.01.11.01.11h-.03s.12.95.12.95c.01.11.03.2.03.25,0,.05.02.08.02.08Zm.08.1s-.03-.06-.05-.19c-.02-.13-.05-.32-.08-.56s-.05-.43-.06-.58c-.01-.15-.01-.22,0-.22.01,0,.03.06.05.18.02.12.04.29.07.5v.11s-.05.02-.05.02c.03.21.05.36.07.47.02.11.03.16.04.15,0,0,0,0,.01-.02,0-.01,0-.04,0-.08l.02.12s0,.06,0,.08,0,.02-.01.02Zm-.18-1.43s0,.05,0,.15c0,.1.02.23.04.41l.05-.02c-.02-.17-.04-.31-.06-.4-.02-.1-.03-.14-.04-.14Zm.08-.15s0,0,.01.02v.13s0-.02,0-.02c0,0,0,.06,0,.17,0,.11.02.25.04.41l.1.82h0s-.18-1.49-.18-1.49h0s.03.27.03.27h0c-.01-.11-.02-.19-.02-.24,0-.05,0-.07,0-.07Z"/><path class="cls-29" d="m54.87,331.48l-.14-.99c0-.07-.02-.17-.04-.3h0s.01.1.01.1l.02.2.1,1h0s-.21-1.49-.21-1.49h0s.12.86.12.86c.03.21.05.37.06.47h0c-.02-.22-.04-.36-.05-.43l-.09-.92h0s.13.9.13.9c.03.21.05.36.06.43h0c0-.06-.02-.22-.05-.48l-.09-.86h0s.16,1.5.16,1.5h0Z"/><path class="cls-29" d="m54.68,329.55c-.01-.09-.01-.13-.01-.13,0,0,0,.01,0,.03,0,.02,0,.06.01.1s0,.07.01.1c0,.02,0,.04,0,.04,0,0-.01-.04-.02-.13Zm.25,1.91h0s-.18-1.49-.18-1.49h0s.18,1.49.18,1.49Z"/><path class="cls-29" d="m54.97,331.35s0-.01.01-.03v.11s0,.04,0,.04c0,0-.02-.03-.03-.1-.01-.07-.03-.18-.05-.33l-.12-.97h-.01s0-.08,0-.08v-.07s-.03-.34-.03-.34h0s.04.36.04.36h.03s.01.11.01.11h-.03s.12.95.12.95c.01.11.03.2.03.25,0,.05.02.08.02.08Z"/><path class="cls-29" d="m55.07,331.41l-.12-.97c-.02-.15-.03-.26-.05-.33-.01-.07-.02-.1-.03-.1-.01,0-.01.05,0,.14,0,.09.02.24.05.44l.1.83h0s-.26-2.14-.26-2.14h0s.08.68.08.68l.02.19h0c0-.09-.01-.16-.01-.2,0-.04,0-.06.01-.07.02,0,.05.17.1.54l.12.98h0Z"/><path class="cls-29" d="m55.2,331.37l-.22-1.57h0c.04.32.07.53.08.64l.12.94h-.02s-.25-2-.25-2h.03s.22,1.52.22,1.52h0s-.16-1.55-.16-1.55h.03s.25,2,.25,2h-.02s-.12-.94-.12-.94c0-.04-.01-.1-.02-.16,0-.06-.03-.21-.06-.47h0s.16,1.58.16,1.58h-.02Z"/><path class="cls-29" d="m55.35,331.35s-.03-.06-.06-.19c-.02-.13-.05-.33-.08-.58s-.05-.46-.06-.6c0-.14,0-.22,0-.22s.03.05.05.18.05.29.07.51l.03.2-.06.02c.01.12.03.21.04.28.01.07.02.1.03.1,0,0,0-.01.01-.03s0-.05,0-.1l.04.32s0,.07,0,.09c0,.02,0,.03-.01.03Zm-.16-1.29s0,.03,0,.09c0,.06.01.14.02.24h.03c-.01-.11-.02-.19-.03-.25-.01-.06-.02-.08-.02-.08Z"/><path class="cls-29" d="m55.43,331.32s-.03-.06-.05-.2c-.02-.14-.05-.33-.08-.58-.03-.25-.05-.45-.06-.59-.01-.14-.01-.22,0-.22.01,0,.03.07.05.22h0c-.02-.11-.03-.22-.04-.31l-.06-.49h.02s.26,2.13.26,2.13h-.02s-.03-.19-.03-.19h0c.01.15.01.23,0,.24Zm-.03-.34s0-.03,0-.1c0-.06-.02-.17-.03-.32v-.05c-.03-.16-.04-.28-.05-.35-.01-.07-.02-.1-.03-.1,0,0,0,.04,0,.12,0,.08.02.2.04.35s.03.26.05.34c.01.07.02.11.03.11Z"/><path class="cls-29" d="m55.26,329.34c-.02-.14-.02-.21-.01-.21s.02.06.04.2c0,.07.01.12.02.15,0,.04,0,.06,0,.06,0,0-.02-.06-.04-.2Zm.26,1.93h-.02s-.19-1.53-.19-1.53h.02s.19,1.53.19,1.53Z"/><path class="cls-29" d="m55.59,331.27s-.07-.25-.14-.77c-.03-.26-.05-.46-.06-.6,0-.14,0-.21,0-.22.01,0,.02.03.04.1l.03.33s-.01-.05-.02-.06c0-.02,0-.02-.01-.02-.01,0,0,.16.04.47s.06.45.07.44c0,0,0-.01,0-.04s0-.06,0-.1l.04.36s0,.08,0,.09,0,.03-.01.03Z"/><path class="cls-29" d="m55.69,331.21l-.03-.21h0c0,.09.01.15.01.19,0,.04,0,.05-.01.06,0,0-.02-.04-.04-.12-.02-.08-.03-.2-.05-.36s-.03-.28-.03-.36c0-.08,0-.13.01-.14h.01s0-.08,0-.08c-.02-.16-.03-.23-.04-.23,0,0-.01.04-.01.12l-.04-.28c0-.1,0-.15.02-.15s.03.04.04.13c.02.09.04.22.06.41l.13,1.02h-.02Zm-.1-.71h0s0,.04,0,.08c0,.04,0,.1.02.19.01.12.03.18.03.17,0,0,0-.03,0-.09,0-.06-.01-.13-.02-.22l-.02-.13Z"/><path class="cls-29" d="m55.59,329.61s0,0,0,0l.05.39s0-.01,0-.01c0,0,0,.04,0,.11,0,.07.01.17.03.29l.1.78h-.02s-.19-1.53-.19-1.53h.02s.04.25.04.25h0c0-.09-.01-.16-.01-.21,0-.05,0-.08,0-.08Z"/><path class="cls-29" d="m55.85,331.19s-.03-.06-.06-.19c-.02-.13-.05-.33-.08-.58-.03-.26-.05-.46-.06-.6,0-.14,0-.22,0-.22s.03.05.05.18.05.29.07.51l.03.2-.06.02c.01.12.03.21.04.28.01.07.02.1.03.1,0,0,0-.01.01-.03s0-.05,0-.1l.04.32s0,.07,0,.09c0,.02,0,.03-.01.03Zm-.16-1.29s0,.03,0,.09c0,.06.01.14.02.24h.03c-.01-.11-.02-.19-.03-.25,0-.06-.02-.08-.02-.08Z"/><polygon class="cls-25" points="52.31 312.84 53.74 312.42 52.87 305.38 51.44 305.78 52.31 312.84"/><path class="cls-29" d="m52.32,311.17l.02-.11-.43-3.52-.04-.09-.07-.59.23-.06.17,1.34h-.04s-.07-.57-.07-.57l-.09.03.17,1.35.1-.03.09.76-.1.03.17,1.35.04.09.07.59-.12.03-.07-.59Z"/><path class="cls-29" d="m52.17,306.75s.07.11.12.36c.05.25.1.6.16,1.05.03.25.05.46.07.65.01.18.02.33.02.45.03.08.06.22.09.42.03.2.07.44.1.74l.03.25c.01.11.02.19.03.25,0,.06.02.09.03.1h0s.07.61.07.61h-.03s-.04-.07-.07-.24c-.03-.17-.06-.39-.09-.67l-.03-.28c-.03-.24-.06-.42-.08-.56-.02-.13-.04-.2-.06-.2h-.05s.16,1.31.16,1.31l.04.09.07.59-.12.03-.07-.59.02-.11-.43-3.52-.04-.09-.07-.59h.03s.1-.04.1-.04Zm.23,2.17h.04s.02-.08.01-.2c0-.12-.02-.29-.05-.51s-.05-.39-.08-.52c-.02-.13-.04-.19-.06-.19h-.04s.17,1.41.17,1.41Z"/><path class="cls-29" d="m52.84,309.4l-.1.03.17,1.4.09-.03-.07-.59h.04s.17,1.33.17,1.33l-.23.07-.07-.59.02-.11-.43-3.52-.04-.09-.07-.59h.03s.2-.06.2-.06l.17,1.34h-.04s-.07-.57-.07-.57l-.09.03.15,1.23.1-.03.09.76Z"/><path class="cls-29" d="m53.1,309.32l-.1.03.17,1.4.09-.03-.07-.59h.04s.17,1.32.17,1.32l-.23.07-.07-.59.02-.11-.43-3.51-.04-.09-.07-.59h.03s.19-.06.19-.06l.17,1.34h-.04s-.07-.57-.07-.57l-.09.03.15,1.23.1-.03.09.76Z"/><path class="cls-29" d="m52.76,318.61l.02-.11-.43-3.52-.04-.09-.07-.59.23-.07.17,1.34h-.04s-.07-.57-.07-.57l-.09.03.17,1.35.1-.03.09.76-.1.03.17,1.35.04.09.07.59-.12.04-.07-.59Z"/><path class="cls-29" d="m53.08,319.12l-.07-.59.02-.11-.43-3.52-.04-.09-.07-.59h.03s.06-.03.06-.03h.03s.07.58.07.58l-.02.11.43,3.45.08-.02-.07-.62h.04s.17,1.36.17,1.36l-.21.06Z"/><path class="cls-29" d="m52.81,314.13l.07.59-.02.11.32,2.56c.04.32.07.56.1.72.03.16.05.23.07.23s.02-.09.01-.25c0-.16-.03-.41-.07-.73l-.32-2.56-.04-.09-.07-.59.12-.03.07.59-.02.11.32,2.56c.07.55.11.98.13,1.28.02.3,0,.46-.03.47s-.08-.13-.14-.42c-.06-.29-.12-.71-.19-1.26l-.32-2.56-.04-.09-.07-.59h.03s.06-.03.06-.03h.03Z"/><path class="cls-29" d="m53.5,315.54h-.04s-.09-.66-.09-.66c-.01-.05-.02-.1-.04-.13-.01-.04-.03-.05-.04-.05-.02,0-.02.06-.02.18,0,.12.02.26.04.44.02.17.04.3.06.4.02.1.05.21.09.32.05.14.1.33.14.57.05.24.09.56.14.96.05.42.08.75.09,1,.01.25,0,.38-.03.39-.02,0-.05-.05-.08-.17s-.07-.28-.11-.5l-.13-1.02h.04s.09.68.09.68c.02.08.03.14.05.19.02.05.03.07.04.07.02,0,.02-.06.02-.18,0-.11-.02-.26-.04-.44-.02-.19-.05-.34-.07-.45s-.05-.22-.08-.31c-.05-.16-.1-.35-.15-.58-.05-.23-.09-.54-.14-.94-.05-.4-.08-.72-.09-.98s0-.39.03-.41c.02,0,.05.04.08.15s.07.26.1.44l.12,1Z"/><path class="cls-29" d="m53.41,314.56l-.07-.59.12-.03.07.59-.02.11.17,1.41.12-.03-.17-1.41-.04-.09-.07-.59h.03s.06-.03.06-.03h.03s.07.58.07.58l-.02.11.43,3.51.04.09.07.59-.12.04-.07-.59.02-.11-.17-1.34-.12.03.17,1.34.04.09.07.59-.12.04-.07-.59.02-.11-.43-3.51-.04-.09Z"/><path class="cls-29" d="m54.22,316.28c.09.72.15,1.31.18,1.79.03.47.03.72,0,.73s-.1-.21-.18-.67c-.08-.46-.17-1.05-.25-1.77v-.07c-.1-.71-.16-1.31-.19-1.78-.03-.48-.03-.72,0-.73s.1.21.18.68c.08.46.17,1.05.25,1.76v.07Zm-.07-.06c-.06-.51-.12-.91-.17-1.23-.05-.31-.09-.46-.11-.46s-.02.17,0,.49c.03.32.07.73.14,1.24v.08c.07.51.13.93.18,1.24.05.31.09.46.11.46s.02-.17,0-.49c-.03-.32-.07-.73-.14-1.25v-.08Z"/><path class="cls-29" d="m54.18,313.72l.16,1.3h-.04s-.07-.53-.07-.53l-.05.02.43,3.44.04.09.07.59-.12.04-.07-.59.02-.11-.43-3.44-.05.02.07.55h-.04s-.16-1.29-.16-1.29l.25-.07Z"/><line class="cls-39" x1="54.02" y1="322.53" x2="54.47" y2="322.39"/><g class="cls-44"><path class="cls-9" d="m54.96,334.69c-.19-1.05-.29-1.01-.22.07-.19-1.05-.29-1.01-.22.07.07,1.09.28,2.82.48,3.87l.7,3.79-.25-3.94c-.07-1.09-.28-2.82-.48-3.86"/><path class="cls-26" d="m55.98,341.45c-.09-.51-.14-.49-.11.04-.09-.51-.14-.49-.11.04.03.53.14,1.37.23,1.88l.34,1.85-.12-1.92c-.03-.53-.14-1.37-.23-1.88"/><path class="cls-26" d="m54.39,330.72c-.06-.33-.09-.32-.07.02-.06-.33-.09-.32-.07.02.02.34.09.88.15,1.21l.22,1.19-.08-1.24c-.02-.34-.09-.88-.15-1.21"/><path class="cls-9" d="m51.19,291.54c-.15-.81-.23-.79-.17.04-.15-.81-.23-.79-.17.05s.22,2.18.37,2.99l.54,2.95-.2-3.04c-.05-.84-.22-2.18-.37-2.99"/><path class="cls-26" d="m51.77,293.51c-.1-.54-.15-.53-.12.03-.1-.54-.15-.53-.12.03.04.56.15,1.45.25,1.99l.36,1.95-.13-2.02c-.04-.56-.15-1.45-.25-1.99"/><path class="cls-9" d="m52.38,299.36c-.06-.34-.09-.33-.07.02-.06-.34-.09-.33-.07.02.02.35.09.9.15,1.24l.23,1.22-.08-1.26c-.02-.35-.09-.9-.15-1.24"/></g><path class="cls-47" d="m55.29,334.05s.05.05.08.16c.03.11.06.27.1.46.03.19.07.41.11.66.04.25.07.51.1.78.03.26.06.52.09.78.03.26.05.48.06.68.01.2.02.36.02.49,0,.13-.01.19-.04.2l-.09.03.29,2.35-.08.03-.81-6.56.17-.06Zm.36,3.1s.02-.02.02-.05c0-.03,0-.08,0-.15,0-.07,0-.17-.02-.3-.01-.13-.03-.3-.06-.51s-.05-.38-.07-.5c-.02-.13-.04-.23-.05-.29-.02-.07-.03-.11-.04-.13-.01-.02-.02-.03-.03-.03l-.07.02.24,1.97.07-.02Z"/><path class="cls-47" d="m55.66,333.93s.06.05.09.18c.04.13.08.32.13.59.05.26.1.6.16,1,.06.4.12.87.19,1.42.06.48.11.92.15,1.33s.08.76.1,1.06c.02.3.03.54.03.71,0,.18-.02.27-.04.28l-.16.06-.81-6.56.16-.05Zm.65,5.35s.02-.04.02-.11c0-.07,0-.19-.01-.35-.01-.16-.03-.36-.05-.62-.03-.25-.06-.56-.11-.92-.04-.33-.08-.63-.12-.89-.04-.27-.07-.49-.1-.68-.03-.19-.06-.33-.09-.43-.03-.1-.05-.14-.07-.13l-.06.02.51,4.13.07-.03Z"/><path class="cls-47" d="m56.18,333.76l.15,1.21-.18.06.19,1.52.16-.05.14,1.12-.16.05.33,2.71-.08.03-.81-6.56.27-.09Z"/><g class="cls-48"><path class="cls-29" d="m56.86,352.34l.88,6.02-.62-6.11.08-.03.89,7.22-.05.02-.74-6h0s.61,6.05.61,6.05l-.05.02-.87-5.96h0s.74,6.01.74,6.01l-.05.02-.89-7.22.08-.03Z"/><path class="cls-29" d="m58.35,358.99c.01.31,0,.46-.03.48-.02,0-.05-.05-.09-.18-.03-.13-.07-.31-.11-.55s-.09-.52-.13-.86c-.05-.33-.1-.7-.15-1.1-.05-.4-.09-.76-.12-1.1-.03-.33-.06-.62-.08-.87-.02-.25-.03-.44-.02-.58,0-.14.01-.22.03-.22.03,0,.06.08.1.26.04.19.09.42.13.72.05.29.09.61.14.96.05.35.09.68.13,1l-.23.08c.03.23.06.45.09.65s.06.38.08.54c.03.16.05.28.08.37.02.09.04.13.06.13.02,0,.03-.1.02-.27,0-.17-.03-.43-.07-.78l.05-.02c.07.59.11,1.03.12,1.34Zm-.43-3.35c-.03-.18-.05-.33-.08-.46s-.05-.23-.07-.3-.04-.11-.05-.1-.02.05-.02.13,0,.19.01.33c0,.14.02.3.04.48.02.18.04.37.06.57l.17-.06c-.03-.2-.05-.39-.08-.57Z"/><path class="cls-29" d="m58.71,359.2l-.09-.71h0c.03.29.04.51.04.64s-.01.21-.03.21c-.02,0-.05-.06-.09-.2-.04-.14-.07-.33-.12-.58-.04-.25-.09-.53-.13-.86s-.09-.68-.14-1.05c-.05-.37-.09-.72-.12-1.05-.04-.33-.06-.62-.08-.87s-.03-.45-.03-.6.01-.23.03-.24c0,0,.02,0,.03.03.01.02.03.07.04.13.02.06.04.14.06.24s.04.23.07.38h0s-.33-2.69-.33-2.69l.05-.02.89,7.21-.05.02Zm-.41-1.79c.03.23.06.44.09.61.03.18.06.32.08.42.03.1.05.15.06.15.02,0,.02-.07.02-.19s-.01-.27-.03-.46c-.02-.19-.04-.4-.06-.64-.03-.24-.05-.48-.08-.72-.03-.26-.06-.5-.1-.74-.03-.24-.06-.45-.09-.62-.03-.18-.06-.32-.08-.43-.03-.11-.05-.16-.06-.15s-.02.07-.02.19.01.27.03.47c.02.19.04.41.06.65s.06.49.09.75c.03.24.06.48.09.71Z"/><path class="cls-29" d="m58.08,353l-.13-1.05.05-.02.13,1.05-.05.02Zm.17.92l.64,5.22-.05.02-.64-5.22.05-.02Z"/><path class="cls-29" d="m58.62,354.73c-.03-.18-.06-.26-.08-.25-.02,0-.03.07-.02.19s.01.27.03.47c.02.19.04.41.06.66.03.25.06.5.09.76.03.24.06.48.09.7.03.23.06.43.09.6s.06.32.08.42c.02.1.04.15.06.15.02,0,.03-.13.02-.35-.01-.23-.04-.54-.09-.95l.05-.02c.07.65.12,1.15.14,1.51.02.36.01.54-.03.56-.02,0-.05-.05-.08-.17s-.07-.3-.11-.53-.08-.51-.13-.83-.09-.68-.14-1.07c-.05-.39-.09-.76-.13-1.1-.04-.34-.06-.64-.08-.9-.02-.26-.03-.46-.03-.61,0-.15.01-.23.04-.24.02,0,.04.02.06.09.02.06.05.17.08.31.03.14.06.33.1.55s.07.49.11.8l-.05.02c-.04-.33-.08-.58-.12-.76Z"/><path class="cls-29" d="m59.55,358.87c0,.09,0,.14-.02.14-.01,0-.03-.05-.05-.18-.02-.12-.05-.32-.09-.61.02.29.03.5.03.63,0,.13-.01.2-.04.21-.01,0-.03-.02-.05-.07-.02-.05-.04-.13-.06-.24s-.05-.26-.08-.44c-.03-.18-.06-.41-.09-.67-.04-.3-.06-.54-.08-.73-.02-.19-.03-.35-.03-.47s0-.21,0-.28c0-.06.01-.12.02-.16,0-.05.02-.09.03-.12,0-.03.02-.07.02-.11s0-.11,0-.2c0-.09-.02-.21-.04-.37-.02-.19-.04-.34-.06-.45-.02-.11-.03-.2-.05-.26-.01-.06-.03-.1-.04-.11s-.02-.02-.03-.02c-.02,0-.03.08-.03.23,0,.14.03.41.07.79l-.05.02c-.04-.32-.07-.6-.09-.82s-.03-.41-.04-.55,0-.25,0-.31.02-.1.04-.11c.01,0,.03,0,.05.04.02.03.04.09.06.19.02.1.05.24.08.43.03.19.06.43.1.73l.33,2.68c.02.2.04.35.06.44s.02.14.03.14c0,0,0-.02.01-.05l.08.67Zm-.41-2.64c0,.08,0,.14,0,.19,0,.04-.01.07-.02.1,0,.03-.02.06-.02.09,0,.03-.01.09-.01.16s0,.17.01.29.03.3.05.51c.02.14.03.26.05.35.02.1.03.17.04.23.01.06.02.1.03.12.01.02.02.04.03.03.02,0,.03-.05.03-.13,0-.08,0-.18,0-.3,0-.12-.02-.25-.03-.39-.01-.14-.03-.27-.04-.39l-.11-.87Z"/><path class="cls-29" d="m59,353.65l.14,1.1h0c-.04-.43-.06-.75-.07-.95s0-.31.03-.31l.11.91s-.03.06-.03.16,0,.24.02.43.03.41.06.67.06.56.1.89l.29,2.32-.05.02-.64-5.21.05-.02Z"/><path class="cls-29" d="m59.95,358.4c.01.3,0,.46-.03.48-.02,0-.05-.05-.09-.18-.03-.13-.07-.31-.11-.55s-.09-.52-.13-.86c-.05-.33-.1-.7-.15-1.09-.05-.4-.09-.76-.12-1.09-.03-.33-.06-.62-.08-.87-.02-.25-.03-.44-.02-.58,0-.14.01-.21.03-.22.03,0,.06.08.1.26.04.18.09.42.13.72.05.29.09.61.14.96.05.35.09.68.13,1l-.23.08c.03.23.06.44.08.65.03.2.06.38.08.54.03.15.05.28.08.37.02.09.04.13.06.13.02,0,.03-.1.02-.27,0-.17-.03-.43-.07-.78l.05-.02c.07.59.11,1.03.12,1.34Zm-.42-3.34c-.03-.18-.05-.33-.08-.46s-.05-.23-.07-.3-.04-.11-.05-.1-.02.05-.02.13,0,.19.01.33c0,.14.02.3.04.48.02.18.04.37.06.57l.17-.06c-.03-.2-.05-.39-.08-.57Z"/><path class="cls-29" d="m57.92,364.63s.1.16.17.53c.07.37.14.88.23,1.56.08.67.14,1.2.16,1.59.03.39.02.58-.03.59l-.13.05.36,2.95-.06.02-.89-7.22.18-.07Zm.41,3.46s.04-.13.03-.36c-.01-.23-.05-.57-.1-1s-.1-.76-.14-.98c-.04-.22-.08-.32-.11-.31l-.11.04.33,2.65.11-.04Z"/><path class="cls-29" d="m59.26,371.65c0,.09,0,.14-.02.15-.01,0-.03-.05-.05-.17-.02-.12-.05-.32-.09-.61.02.29.03.5.03.63,0,.13-.01.2-.04.21-.01,0-.03-.02-.05-.07-.02-.05-.04-.13-.06-.24s-.05-.26-.08-.44c-.03-.18-.06-.41-.09-.67-.04-.3-.06-.54-.08-.73-.02-.19-.03-.35-.03-.47s0-.22,0-.28c0-.07.01-.12.02-.17,0-.05.02-.09.03-.12,0-.03.02-.07.02-.11s0-.11,0-.2c0-.09-.02-.21-.04-.37-.02-.19-.04-.34-.06-.45-.02-.11-.03-.2-.05-.26-.01-.06-.03-.1-.04-.11s-.02-.02-.03-.02c-.02,0-.03.08-.03.23,0,.14.03.41.07.79l-.05.02c-.04-.32-.07-.6-.09-.82s-.03-.41-.04-.55,0-.25,0-.31.02-.1.04-.11c.01,0,.03,0,.05.03.02.03.04.09.06.19.02.1.05.24.08.43.03.19.06.43.1.73l.33,2.68c.02.2.04.35.06.44s.02.14.03.14c0,0,0-.02.01-.05l.08.67Zm-.41-2.64c0,.08,0,.15,0,.19,0,.04-.01.07-.02.1,0,.03-.02.06-.02.09,0,.04-.01.09-.01.16s0,.17.01.29.03.3.05.51c.02.14.03.26.05.35.02.1.03.17.04.23.01.06.02.1.03.12.01.02.02.03.03.03.02,0,.03-.05.03-.13,0-.08,0-.18,0-.3,0-.12-.02-.25-.03-.39-.01-.14-.03-.27-.04-.39l-.11-.87Z"/><path class="cls-29" d="m58.71,366.42l.09.77h0c-.05-.6-.05-.91-.01-.93.02,0,.04.05.08.18s.07.35.12.67c-.02-.29-.04-.51-.04-.67,0-.16,0-.24.03-.25.02,0,.03.02.05.07s.04.14.06.25c.02.12.05.27.08.46.03.19.06.42.09.69l.47,3.82-.05.02-.42-3.42c-.02-.16-.04-.31-.06-.45-.02-.14-.04-.26-.05-.37-.02-.1-.03-.18-.05-.24-.02-.06-.03-.08-.04-.08-.02,0-.03.14-.01.39s.05.57.1.98l.4,3.25-.05.02-.42-3.42c-.02-.17-.04-.32-.06-.46-.02-.14-.04-.26-.05-.37-.02-.1-.03-.18-.05-.24s-.03-.08-.04-.08c-.01,0-.02.06-.02.17,0,.1,0,.23.02.37.01.14.02.29.04.44.02.15.03.28.04.38l.4,3.25-.05.02-.65-5.22.05-.02Z"/><path class="cls-29" d="m59.22,366.22l.09.71h0c-.03-.29-.04-.51-.04-.65,0-.14.01-.21.03-.22.02,0,.05.06.09.2.04.14.07.34.12.58.04.25.09.54.13.86.05.33.09.68.14,1.05s.09.72.12,1.05c.04.33.06.62.08.87s.03.45.03.6-.01.23-.03.24c0,0-.02,0-.03-.03-.01-.02-.03-.06-.04-.12-.02-.06-.04-.14-.06-.24s-.04-.23-.07-.38h0s.33,2.68.33,2.68l-.05.02-.89-7.2.05-.02Zm.41,1.78c-.03-.23-.06-.43-.09-.61-.03-.18-.06-.32-.08-.42-.03-.1-.05-.15-.06-.15-.02,0-.02.07-.02.19s.01.27.03.46c.02.19.04.4.06.64.03.24.05.48.08.72.03.26.06.5.1.74.03.24.06.44.09.62.03.18.06.32.08.43.03.11.05.16.06.15s.02-.07.02-.19c0-.12-.01-.27-.03-.46-.02-.19-.04-.41-.06-.65-.03-.24-.06-.49-.09-.75-.03-.24-.06-.48-.09-.71Z"/><path class="cls-29" d="m59.32,364.11l.34,2.75h0c-.02-.16-.03-.3-.03-.42,0-.11-.01-.21-.01-.28,0-.07,0-.13,0-.17,0-.04.01-.06.02-.06.02,0,.04.03.07.12s.05.22.08.38c.03.17.06.36.09.59.03.23.07.49.1.77l.42,3.42-.05.02-.44-3.53c-.04-.32-.08-.58-.11-.76s-.06-.27-.08-.27c-.02,0-.02.05-.02.14,0,.08,0,.2.01.35.01.15.03.33.05.53s.05.42.07.65l.36,2.94-.05.02-.89-7.2.05-.02Z"/><path class="cls-29" d="m59.64,363.98l.89,7.19-.05.02-.89-7.19.05-.02Z"/><path class="cls-29" d="m60.78,370.73c.01.3,0,.46-.03.48-.02,0-.05-.05-.09-.18-.03-.13-.07-.31-.11-.55s-.09-.52-.13-.86c-.05-.33-.1-.7-.15-1.09-.05-.4-.09-.76-.12-1.09-.03-.33-.06-.62-.08-.87s-.03-.44-.02-.58c0-.14.01-.22.03-.22.03-.01.06.08.1.26.04.18.09.42.13.71.05.29.09.61.14.96.05.35.09.68.13.99l-.23.09c.03.23.06.44.08.65s.06.38.08.54c.03.15.05.28.08.37.02.09.04.13.06.12.02,0,.03-.1.02-.27,0-.17-.03-.43-.07-.78l.05-.02c.07.59.11,1.03.12,1.34Zm-.42-3.34c-.03-.18-.05-.33-.08-.46s-.05-.23-.07-.3-.04-.11-.05-.1-.02.05-.02.13,0,.19.01.33c0,.14.02.3.04.48.02.18.04.37.06.57l.17-.07c-.03-.2-.05-.39-.08-.57Z"/><path class="cls-29" d="m60.41,365.77l.09.76-.06.02.4,3.23c.01.1.02.18.03.24s.02.11.02.14c0,.03.01.05.02.06,0,0,.01.01.02,0h.02s.09.75.09.75h-.04s-.03,0-.04-.02c-.01-.03-.03-.08-.04-.16s-.03-.19-.05-.34c-.02-.15-.05-.34-.08-.58l-.41-3.31-.05.02-.09-.76.05-.02-.19-1.56.05-.02.19,1.56.06-.02Z"/><path class="cls-29" d="m61.04,369.81l.14,1.12-.06.03-.14-1.12.06-.03Z"/><path class="cls-29" d="m60.67,365.67l.09.7h0c-.03-.29-.04-.51-.04-.64,0-.14.01-.21.03-.22.02,0,.05.06.09.2.04.14.07.34.12.58.04.25.09.53.13.86.05.33.09.67.14,1.04.05.37.09.72.12,1.05.04.33.06.62.08.87.02.25.03.45.03.59s-.01.23-.03.24c0,0-.02,0-.03-.03-.01-.02-.03-.06-.04-.12-.02-.06-.03-.14-.06-.24s-.04-.23-.07-.38h0s.33,2.68.33,2.68l-.05.02-.89-7.18.05-.02Zm.41,1.78c-.03-.23-.06-.43-.09-.61-.03-.18-.06-.32-.08-.42-.03-.1-.05-.15-.06-.15-.02,0-.02.07-.02.19s.01.27.03.46c.02.19.04.4.06.64.03.24.05.47.08.72.03.26.06.5.1.74.03.24.06.44.09.62.03.18.06.32.08.43.03.11.05.15.06.15s.02-.07.02-.19c0-.12-.01-.27-.03-.46-.02-.19-.04-.41-.06-.65s-.06-.49-.09-.75c-.03-.24-.06-.48-.09-.71Z"/><path class="cls-29" d="m61.83,370.67l-.09-.7h0c.03.29.04.5.04.64,0,.13-.01.21-.03.21-.02,0-.05-.06-.09-.2-.04-.14-.07-.33-.12-.58s-.09-.53-.13-.85c-.05-.33-.09-.67-.14-1.04s-.09-.72-.12-1.05c-.04-.33-.06-.62-.08-.87-.02-.25-.03-.45-.03-.6s.01-.23.03-.24c0,0,.02,0,.03.03.01.02.03.06.04.13.02.06.04.14.06.24s.04.23.07.38h0s-.33-2.68-.33-2.68l.05-.02.89,7.18-.05.02Zm-.4-1.78c.03.23.06.43.09.61.03.18.06.32.08.42.03.1.05.15.06.14.02,0,.02-.07.02-.19s-.01-.27-.03-.46c-.02-.19-.04-.4-.06-.63-.03-.24-.05-.47-.08-.72-.03-.26-.06-.5-.1-.74-.03-.24-.06-.44-.09-.62-.03-.18-.06-.32-.08-.43-.03-.11-.05-.16-.06-.15s-.02.07-.02.19.01.27.03.46c.02.19.04.41.06.65.03.24.06.49.09.75.03.24.06.48.09.71Z"/><path class="cls-29" d="m61.37,366.19l-.09-.75.05-.02-.1-.77c-.05-.42-.08-.74-.1-.97s0-.34.02-.35c0,0,.01,0,.02.01,0,.01.02.03.02.05l.09.74s-.01-.04-.02-.05c0,0-.01-.01-.02,0-.01,0-.02.05-.01.13,0,.08.02.24.05.47l.09.72.06-.02.09.75-.06.02.55,4.44-.05.02-.55-4.44-.05.02Z"/></g></g></svg>