<?xml version="1.0" encoding="UTF-8"?>
<svg xmlns="http://www.w3.org/2000/svg"
    xmlns:xlink="http://www.w3.org/1999/xlink" viewBox="0 0 800 1080">
    <defs>
        <style>.cls-1,.cls-2,.cls-3,.cls-4,.cls-5,.cls-6,.cls-7{fill:none;}.cls-8{clip-path:url(#clippath);}.cls-9{fill:#f2e714;}.cls-10{fill:#f4cab3;}.cls-11{fill:#e9bd8f;}.cls-12{fill:#fff;}.cls-13{fill:#a3238e;}.cls-14{fill:#666;}.cls-15{fill:#d1d1d1;}.cls-16{fill:#c3e4f6;}.cls-17{fill:#d9b09e;}.cls-18{fill:#afafaf;}.cls-19{fill:#dfb186;}.cls-20{fill:#111541;}.cls-21{fill:#231f20;}.cls-22{fill:#3e3e3e;}.cls-23{fill:#703b18;}.cls-24{fill:#898989;}.cls-25{fill:#635150;}.cls-26{fill:#2d2a2b;}.cls-27{fill:#37a7de;}.cls-28{fill:#5f3515;}.cls-29,.cls-30{fill:#5e58a6;}.cls-31{fill:#5e58a2;}.cls-2,.cls-4,.cls-5,.cls-6,.cls-7{stroke-miterlimit:10;}.cls-2,.cls-4,.cls-6{stroke-linecap:round;}.cls-2,.cls-7{stroke:#703b18;stroke-width:14.35px;}.cls-3{clip-rule:evenodd;}.cls-32{clip-path:url(#clippath-1);}.cls-33{clip-path:url(#clippath-2);}.cls-30{mix-blend-mode:multiply;opacity:.5;}.cls-4{stroke:#e05556;stroke-width:10.69px;}.cls-5{stroke:#a3238e;stroke-width:31.02px;}.cls-34{fill:#36bca8;}.cls-34,.cls-35,.cls-36{fill-rule:evenodd;}.cls-35{fill:#a6a5a0;}.cls-6{stroke:#5e58a6;stroke-width:80.4px;}.cls-37{isolation:isolate;}</style>
        <clipPath id="clippath">
            <path class="cls-3" d="m624.72,104.77c0-13.39-5.41-26.23-15.04-35.71-9.62-9.47-22.69-14.78-36.31-14.78h-89.65c-2.8,0-5.16,2.22-5.16,5.02,0,2.54-.05,7.03-.11,12-.17,13.34-11.03,24.07-24.37,24.07h-120.23c-13.28,0-24.13-10.64-24.37-23.93-.12-6.77-.22-12.56-.22-13.46,0-2.34-1.67-3.7-3.72-3.7h-79.94c-13.62,0-26.68,5.32-36.31,14.78-9.64,9.47-15.04,22.31-15.04,35.71v870.06c0,13.39,5.41,26.23,15.04,35.7,9.64,9.47,22.69,14.78,36.31,14.78h347.77c13.62,0,26.68-5.32,36.31-14.78,9.64-9.47,15.04-22.31,15.04-35.7V104.77h0Z"/>
        </clipPath>
        <clipPath id="clippath-1">
            <rect class="cls-1" x="454.24" y="114.43" width="145.51" height="209.65" rx="25.68" ry="25.68"/>
        </clipPath>
        <clipPath id="clippath-2">
            <rect class="cls-1" x="427.57" y="100.98" width="190.63" height="253.77" rx="1.24" ry="1.24"/>
        </clipPath>
    </defs>
    <g class="cls-37">
        <g id="Layer_1">
            <g id="Layer_2">
                <g>
                    <path class="cls-36" d="m152.08,393.48v61.01c0,.91-.36,1.8-1.02,2.45-.65.65-1.52,1.01-2.45,1.01s-1.8-.36-2.45-1.01c-.5-.52-.84-1.16-.89-1.88l-.12-.58v-61.01c0-.78.26-1.51.78-2.09l.24-.36c.66-.66,1.54-1.02,2.45-1.02s1.81.36,2.45,1.02c.66.65,1.02,1.52,1.02,2.45h-.01Z"/>
                    <path class="cls-36" d="m152.08,306.36v59.62c0,1.92-1.56,3.47-3.48,3.47-1.36,0-2.54-.78-3.07-1.93-.26-.46-.38-.97-.38-1.52v-59.62c0-.56.13-1.08.38-1.52.54-1.16,1.72-1.94,3.07-1.94,1.92,0,3.48,1.56,3.48,3.47h0Z"/>
                    <path class="cls-36" d="m152.08,241.05v26.34c0,1.92-1.56,3.47-3.48,3.47-1.15,0-2.17-.56-2.75-1.46-.47-.54-.71-1.24-.71-2v-26.34c0-.77.25-1.48.71-2,.58-.9,1.61-1.48,2.75-1.48,1.92,0,3.48,1.56,3.48,3.47h0Z"/>
                    <path class="cls-36" d="m653.58,328.29v103.99c0,.98-.4,1.86-1.06,2.48-.62.61-1.48.98-2.41.98-1.92,0-3.47-1.55-3.47-3.47v-103.99c0-1.92,1.55-3.47,3.47-3.47.94,0,1.79.37,2.41.98.66.64,1.06,1.51,1.06,2.48Z"/>
                    <path class="cls-35" d="m148.85,104.61c0-20.7,8.24-40.56,22.91-55.2,14.66-14.65,34.55-22.87,55.3-22.87h344.87c20.74,0,40.63,8.22,55.3,22.86,14.66,14.64,22.91,34.5,22.91,55.2v871.56c0,20.7-8.24,40.56-22.91,55.2-14.66,14.64-34.56,22.86-55.3,22.86H227.05c-20.74,0-40.63-8.22-55.3-22.86-14.66-14.64-22.91-34.5-22.91-55.2V104.61Z"/>
                    <path class="cls-35" d="m150.07,106.55c0-20.7,8.24-40.56,22.91-55.2,14.66-14.65,34.56-22.87,55.3-22.87h342.41c20.74,0,40.63,8.22,55.3,22.86,14.66,14.64,22.91,34.5,22.91,55.2v868.26c0,20.7-8.24,40.56-22.91,55.2-14.66,14.64-34.56,22.86-55.3,22.86H228.28c-20.74,0-40.63-8.22-55.3-22.86-14.66-14.64-22.91-34.5-22.91-55.2V106.55Z"/>
                    <path class="cls-36" d="m153.63,111.02c0-20.7,8.24-40.56,22.91-55.2,14.66-14.64,34.56-22.87,55.3-22.87h335.3c20.74,0,40.63,8.22,55.3,22.87,14.66,14.64,22.91,34.5,22.91,55.2v859.31c0,20.7-8.24,40.56-22.91,55.2-14.66,14.64-34.56,22.86-55.3,22.86H231.83c-20.74,0-40.63-8.22-55.3-22.86-14.66-14.64-22.91-34.5-22.91-55.2V111.02Z"/>
                    <path class="cls-36" d="m158.22,114.74c0-20.74,8.24-40.63,22.91-55.3,14.66-14.66,34.56-22.91,55.3-22.91h326.11c20.74,0,40.63,8.24,55.3,22.91,14.66,14.66,22.91,34.56,22.91,55.3v850.12c0,20.74-8.24,40.63-22.91,55.3-14.66,14.66-34.56,22.91-55.3,22.91H236.43c-20.74,0-40.63-8.24-55.3-22.91-14.66-14.66-22.91-34.56-22.91-55.3V114.74Z"/>
                </g>
            </g>
            <g>
                <path class="cls-24" d="m333.06,80.61c-4.33,0-7.85-3.52-7.85-7.85s3.52-7.85,7.85-7.85,7.85,3.52,7.85,7.85-3.52,7.85-7.85,7.85Z"/>
                <path class="cls-22" d="m333.06,67.65c-2.82,0-5.12,2.3-5.12,5.12s2.3,5.12,5.12,5.12,5.12-2.3,5.12-5.12-2.3-5.12-5.12-5.12Z"/>
            </g>
            <g id="Layer_3">
                <path class="cls-34" d="m624.72,104.77c0-13.39-5.41-26.23-15.04-35.71-9.62-9.47-22.69-14.78-36.31-14.78h-89.65c-2.8,0-5.16,2.22-5.16,5.02,0,2.54-.05,7.03-.11,12-.17,13.34-11.03,24.07-24.37,24.07h-120.23c-13.28,0-24.13-10.64-24.37-23.93-.12-6.77-.22-12.56-.22-13.46,0-2.34-1.67-3.7-3.72-3.7h-79.94c-13.62,0-26.68,5.32-36.31,14.78-9.64,9.47-15.04,22.31-15.04,35.71v870.06c0,13.39,5.41,26.23,15.04,35.7,9.64,9.47,22.69,14.78,36.31,14.78h347.77c13.62,0,26.68-5.32,36.31-14.78,9.64-9.47,15.04-22.31,15.04-35.7V104.77h0Z"/>
            </g>
        </g>
        <g id="Layer_2-2">
            <circle class="cls-5" cx="333.06" cy="72.77" r="53.58"/>
            <g class="cls-8">
                <g>
                    <path class="cls-25" d="m242.48,572.78c.04.14.28.11.25-.05-2.19-13.26,1-26.89,8.76-37.43,1.78-2.42,3.79-4.61,5.98-6.55-2.61,3.58-4.77,7.53-6.24,11.93-5.61,16.77-3.04,36.99,8.29,50.54,3.12,3.73,6.79,6.62,10.56,9.39l134.35-5.92c3.03-18.17,4.22-36.8,5.15-55.15,1.33-25.86,2.57-51.79,2.65-77.72,2.36,25.82,5.87,51.54,9.47,77.19,2.55,18.2,5.36,36.65,9.98,54.49l125.85,14.31c3.51-3.09,15.41-26.52,18.2-30.51,10.1-14.49,10.88-34.86,3.82-51.07-1.85-4.25-4.35-7.99-7.26-11.33,2.35,1.74,4.54,3.74,6.53,6,8.66,9.81,13.04,23.11,12.02,36.51-.01.16.23.17.26.03,5.16-24.44-7.82-46.83-28.38-56.85-1.45-.71-2.77-1.44-3.96-2.22-.32-14.22,11.02-27.95,13.3-41.82,1.97-11.98.64-24.64-4.24-35.71-7.02-15.94-20.97-26.15-32.62-38.44.58-1.09,1.1-2.31,1.56-3.88,1.28-4.34,2.16-8.92,3.02-13.35,1.67-8.63,2.66-17.5,2.76-26.29.3-25.16-10.31-62.06-32.74-76.28-14.29-9.06-31.25-13.76-47.7-17.02-40.34-7.98-87.21-11.3-125.86,5.03-17.11,7.23-28.73,22.51-40.74,36.2-12.27,13.98-24.26,29.53-29.05,47.84-5.72,21.9,1.69,44.33,11.1,65.05-9.4,10.65-19.08,20.82-23.88,34.97-3.89,11.45-4.09,24.19-1.08,35.94,3.49,13.62,15.98,26.3,16.92,40.49-1.12.88-2.37,1.73-3.75,2.56-19.6,11.79-30.57,35.23-23.27,59.12Zm309.95-90.92c.04-.18.08-.35.12-.53,2.74-4.72,6.32-9.32,8.02-13.04,4.16-9.13,5.58-18.97,4.39-29.09-1.11-9.57-4.86-18.69-10.6-26.14-1.17-1.51-2.46-2.86-3.8-4.14,3.08,2.58,5.91,5.45,8.29,8.87,8.88,12.76,12.44,30.15,8.49,45.54-2.95,11.48-10.74,22.46-9.48,34.41-4.8-3.49-6.99-8.04-5.43-15.86Zm-282.07,28.53c.2-12.01-8.53-22.27-12.47-33.44-5.29-14.98-3.27-32.61,4.45-46.11,2.07-3.61,4.64-6.72,7.48-9.56-1.23,1.39-2.4,2.85-3.42,4.46-5.05,7.93-7.99,17.35-8.26,26.97-.29,10.18,1.99,19.86,6.93,28.59,2.02,3.56,5.98,7.82,9.13,12.29.05.17.12.34.17.52,2.24,7.66.46,12.39-4.01,16.28Z"/>
                    <path class="cls-18" d="m491.74,539.57l-.04.03c-1.25,4.3-4.61,30.45-6.2,34.63-3.62-4.9-31.17-19.6-33.27-25.35,4.48,1.06,35.49-10.57,39.5-9.31Z"/>
                    <path class="cls-18" d="m334.58,539.57l.04.03c1.25,4.3,4.61,30.45,6.2,34.63,3.62-4.9,31.17-19.6,33.27-25.35-4.48,1.06-35.49-10.57-39.5-9.31Z"/>
                    <path class="cls-19" d="m496.97,568.61c-11.02-3.58-20.68-9.24-27.8-17.15-14.44-16.03-15.58-37.91-13.55-57.1.09-1.01.22-2.02.36-3.02h-85.86c.15,1,.27,2.01.37,3.02,2.02,19.19.89,41.07-13.56,57.1-7.13,7.91-16.76,13.58-27.8,17.15-9.93,3.21,83.92,78.28,83.92,78.28,0,0,93.85-75.07,83.92-78.28Z"/>
                    <path class="cls-17" d="m299.21,385.21c-1.21-7.02,1.87-17.98,13.06-11.15,1.03,11.48,2.84,22.95,5.6,34.3-10.26-5.51-17.1-14.14-18.66-23.15Z"/>
                    <path class="cls-9" d="m310.66,407.56c0-2.47,2.01-4.48,4.48-4.48,2.47,0,4.48,2.01,4.48,4.48,0,2.47-2.01,4.48-4.48,4.48s-4.48-2.01-4.48-4.48Z"/>
                    <path class="cls-15" d="m431.85,596.66c-.22-.07-5.64-.98-5.64-.98l-6.62,35.87s-13.06-2.7-13.28-3.06-6.41-32.8-6.41-32.8l-27.67,17.11s6.65,17.21,8.26,17.21,57.75,6.24,59.22,5.32c1.47-.92,24.77-14.68,24.77-15.41s-32.62-23.25-32.62-23.25Z"/>
                    <path class="cls-29" d="m511.6,735.83c33.73-80.26,66.72-20.69,68.25-75.93,1.57-57.03-49.94-83.82-68.83-87.44-10.37-1.98-4.11-.65-14.05-3.86-.7-.23-1.38-.48-2.06-.73-9.18,30.7-42.34,53.45-81.85,53.45-39.51,0-72.68-22.74-81.85-53.45-.69.24-1.36.5-2.06.73-9.93,3.21-20.27,5.34-30.64,7.32-18.89,3.62,3.61,118.51,2.35,161.99"/>
                    <path class="cls-29" d="m298.96,727.54c-33.73-80.26-70.58-12.39-72.1-67.63-1.57-57.03,49.94-83.82,68.83-87.44,10.37-1.98,4.11-.65,14.05-3.86.7-.23,1.38-.48,2.06-.73,9.18,30.7,42.68,48.27,81.85,53.45,116.9,15.45,104.19-47.38,114.56-45.39,18.89,3.62-1.89,126.18-.63,169.65"/>
                    <path class="cls-12" d="m462.89,585.81c15.74-9.62,23.48-27.9,28.81-46.21l.07-.05c.49-.39,14.91,17.62,22.54,27.44l.16.2c-4.99,30.09-11.47,48.73-38.81,63.15-4.36,2.3-8.84,4.45-13.41,6.44,0,0-23.36-26.1-36.04-41.1,13.2-1,26.26-3.78,36.68-9.87Z"/>
                    <path class="cls-12" d="m311.8,566.99c3.48-4.48,8.36-10.65,12.7-16.01,5.18-6.4,9.58-11.65,9.84-11.44l.07.05c3.86,13.27,9.01,26.5,17.53,36.46,3.24,3.78,6.95,7.1,11.28,9.75,10.43,6.08,23.48,8.87,36.68,9.87-12.68,15-36.04,41.1-36.04,41.1-4.56-1.98-9.05-4.14-13.41-6.44-27.34-14.42-33.82-33.06-38.81-63.15l.16-.2Z"/>
                    <path class="cls-11" d="m422.54,283.78c-42.05-.37-86.09,17.45-109.79,53.33.74,36.51,5.63,73.82,19.3,107.89,7.48,18.67,17.67,36.45,31.44,51.21,10.51,11.27,22.85,20.48,36.49,27.36,9.29,4.68,20.13,5.03,29.7.95,14.06-5.99,26.96-14.4,38.17-24.97,14.69-13.84,26-30.93,34.66-49.09,15.82-33.13,23.1-70.05,26.18-106.43-21.35-37.33-64.15-57.93-106.15-60.26Z"/>
                    <path class="cls-29" d="m429.49,386.71c4.09.11,11.4,1.63,12.38,6.16.58,2.61-.77,5.27-3.19,6.29.35,3.06.9,6.09,1.65,9.07,2.82,11.07,12.49,41.06,40.67,38.84,28.18-2.22,32.86-28.18,34.16-32.17.6-2.16,2.49-3.68,4.67-3.77,1.24-.07,2.49.02,3.71.27,1.13.39,2.35-.24,2.74-1.4.08-.24.12-.5.11-.76l.61-4.94c-.38-1.82-3.44-2.42-5.17-2.74-3.42-1.16-6.21-3.72-7.71-7.08-5.35-10.47-12.34-17.26-27.2-19.99-15.48-2.84-32.17,5.48-34.52,7.1-2.35,1.63-6.45-.35-6.45-.35-5.1-1.94-10.43-3.18-15.85-3.69-5.44-.27-10.89.2-16.22,1.38,0,0-4.33,1.34-6.43-.58-2.09-1.92-17.51-12.58-33.14-11.98-15.12.56-22.99,6.26-29.79,15.88-1.95,3.15-5.08,5.33-8.65,6.01-1.75,0-4.87.17-5.51,1.97v4.87c-.19,1.21.61,2.34,1.78,2.53.21.03.42.04.63,0,1.27-.08,2.55.01,3.8.27,2.22.38,3.92,2.23,4.16,4.53.69,4.14,1.68,30.41,29.24,36.74,27.56,6.33,41.45-22.05,45.82-32.6,1.17-2.84,2.15-5.76,2.93-8.74-2.25-1.35-3.21-4.18-2.26-6.68,1.5-4.48,8.94-4.91,13.01-4.45Zm76.48,36.46c-6.79,16.52-26.22,25.21-41.76,15.89-15.54-9.32-21.12-33.72-11.03-47.57,10.09-13.85,31.98-10.45,31.98-10.45,25.54,4.02,27.6,25.64,20.79,42.13h.02Zm-130.76-50.06s22.2-.31,30.2,14.84c8,15.15-1.02,38.39-17.74,45.5-16.72,7.11-34.69-4.3-39.05-21.72-4.36-17.42.74-38.31,26.59-38.62Z"/>
                    <path class="cls-25" d="m270.2,402.87c2.56,7.61,6.53,14.38,10.95,21.17,5.64,8.66,9.93,17.34,5.08,27.28l.13.09c9.12-7.5,4.87-18.47-.38-28.14-2.44-4.46-5.08-8.65-6.73-12.09-15.15-31.66-6.93-67.16,6.15-97.93,1.83-4.31,3.69-8.7,5.62-13.1-2.64,6.56-4.86,13.28-6.6,20.12-10.46,24.46-14.03,51.26-7.91,77.46,2.07,8.87,5.27,17.43,9.58,25.48,3.58,6.74,7.94,13.11,13.03,19.01,6.72,7.78,15.08,15.43,16.21,25.91.6,5.63-1.15,11.61-6.75,14.4-4.12,2.05-9.17,2.06-12.61-1.14-1.4-1.3-4.53-.18-3.71,1.88,6.81,17.05,31.42,17.48,42.04,3.74,13.75-17.77.26-33.12-6.73-50.06-.84-2.05-1.52-4.13-1.99-6.3-.54-2.51-.81-5.13-.64-7.87.32-5.7,2.17-11.06,4.91-16.03.55-.99,1.13-1.95,1.73-2.92.91-1.42,1.88-2.8,2.91-4.15.83-1.1,1.69-2.17,2.58-3.22.43-.51.89-.99,1.32-1.49,3.25-1.25,6.53-2.43,9.72-3.8,5.59-2.42,10.59-5.6,15.4-9.2,7.06-5.3,13.93-11.08,20.5-17.07.72-.66,1.44-1.31,2.15-1.97,2.27-2.1,4.5-4.23,6.69-6.38,9.71-9.51,43.53-47.87,43.11-52.25,14.54-2.02,95.07,50.15,83.89,96.41.96.04,1.47.02,2,.04,8.55,1.44,15.23-7.93,10.38,14.36,15.52-19.13,26.44-42.41,25.24-66.89-1.06-21.36-8.9-42.3-21.63-60.02-12.67-17.65-29.68-33.18-50.3-42.37-15.06-6.72-33.4-11.31-50.19-8.44-3.61-5.14-10.57-9.26-16.56-11.47-14.42-5.31-27.44-2.18-42.24-.78-.14.01-.11.17.03.17,12.04.03,24.32.28,34.99,5.29,4.04,1.89,8.6,4.03,11.6,7.02-8.78-5.79-19.42-9.07-30.07-10.13-52.5-5.2-89.89,33.56-108.83,74.86-7.58,16.52-14.12,33.57-17.1,51.43-2.71,16.26-2.3,33.3,3.03,49.1Zm70.16-10.1c10.45-11.29,22.99-20.74,35.74-29.93.95-.68,1.89-1.37,2.84-2.04,3.76-2.7,7.52-5.38,11.24-8.09-1.01,1.03-2.03,2.04-3.05,3.06-1.91,1.87-3.82,3.77-5.73,5.65-.71.71-1.43,1.42-2.16,2.13-6.15,6.09-12.38,12.13-19.06,17.67-4.95,4.12-9.89,7.48-15.98,9.97-1.29.53-2.58,1.05-3.86,1.58Zm-40.15-111.52c2.62-4.77,5.48-9.38,8.66-13.73,1.43-1.96,2.99-3.85,4.67-5.63-1.55,1.84-3.03,3.73-4.46,5.68-3.21,4.38-6.15,8.96-8.86,13.68Z"/>
                    <path class="cls-10" d="m528.38,414.24c1.44-6.97-.77-13.35-12.17-6.89-1.4,11.44-4.09,18.17-7.22,29.42,10.43-5.18,17.55-13.58,19.39-22.54Z"/>
                    <path class="cls-31" d="m507.26,435.92c.08-2.47,2.15-4.41,4.62-4.33s4.41,2.15,4.33,4.62c-.08,2.47-2.15,4.41-4.62,4.33s-4.41-2.15-4.33-4.62Z"/>
                    <path class="cls-4" d="m407.66,488.37c18.44,8,35.12-1.4,42.01-14.06"/>
                    <path class="cls-29" d="m527.01,1045.35c-84.96,4.15-272.24,5.2-261.86-7.4,13.73-16.68,16.6-309.73,4.46-343.1,0,0,189.98-9.29,255.13,4.9,17.12,3.71,25.62,9.06,19.79,16.62-37.26,48.26,5.74,317.69,22.64,324.36,4.13,1.63-12.65,3.3-40.16,4.63Z"/>
                    <path class="cls-30" d="m527.01,1045.35c-3.02-5.16-4.92-11.09-5.36-17.45l-9.61-139.06c-2.12-30.74-2.54-61.94-1.25-92.75l2.98-70.42c.43-10.09,4.54-19.15,10.98-25.94,17.12,3.71,25.62,9.06,19.79,16.62-37.26,48.26,5.74,317.69,22.64,324.36,4.13,1.63-12.65,3.3-40.16,4.63Z"/>
                    <path class="cls-30" d="m261.69,946.08h0c-24.23,0-43.88-19.64-43.88-43.88l11.38-261.15,72.67.86,3.64,262.59c-1.22,23.31-20.48,41.58-43.82,41.58Z"/>
                    <polyline class="cls-6" points="538.89 635.41 600.97 828.29 671.06 1010.95"/>
                    <path class="cls-29" d="m250.55,946.08c-1.02,0-2.05-.04-3.08-.11-23.55-1.68-41.29-22.13-39.61-45.69l-.11-229.58c1.68-23.55,87.08-22.7,85.4.86v234.81c-1.61,22.52-20.37,39.72-42.6,39.72Z"/>
                    <path class="cls-11" d="m174.08,459.85l15.43,42.73c.35.71.61,1.29.6,1.28-.01,0,.26.57.6,1.28l10.23,21.11s.53,1.35,1.41,3.57c2.74,6.94,8.82,22.36,12.54,31.56,3.35,8.3,6.58,11.59,8.28,12.84.65.47,1.01,2.93.82,3.69l-10.71,261.89c-.2.77.28,1.55,1.06,1.76l47.07,12.43c.79.21,1.58-.25,1.78-1.01,0,0,11.94-283.11,12.16-283.88,1.16-4.05,3.12-5.57,6.27-9.48,4.9-6.07,6.49-20.34,6.49-20.34,0,0,11.22-46.8,13.95-60.43.33-1.63.92-3.55-3.92-5.33-8.47-3.1-12.66,6.09-13.72,9.44-.99,3.12-5.87,18-8.12,25.83-.68,2.37-2.35,3.85-4.27,4.07-3.36.38-4.64-6.95-5.13-12.07l-3.03-69.36c.01-4.74-3.55-8.68-7.96-8.79-4.41-.11-8.25,3.64-8.59,8.37l.85,55.65c-.05.79-.29,2.2-1.07,2.45-.66.21-1.45-.36-2-2.58l-12.83-64.4c-1.11-5.42-6.03-9.01-10.98-8.02-4.95.99-8.06,6.19-6.94,11.61l13.33,66.85c.51,3.31-1.5,4.44-2.74.37l-14.35-60.54c-1.19-4.59-5.72-7.35-10.12-6.15-4.4,1.2-7.03,5.9-5.87,10.5,0,0,14.81,63.74,14.81,63.74l.19.77c.69,3.39-1.42,4.65-3.39,1.32l-19.45-48.94c-1.82-3.52-6.09-5.01-9.55-3.33-3.46,1.69-4.86,5.95-3.13,9.52Z"/>
                    <rect class="cls-29" x="207.75" y="641.49" width="85.51" height="268.2"/>
                </g>
            </g>
        </g>
        <g id="Layer_4">
            <g class="cls-32">
                <g>
                    <rect class="cls-16" x="446.7" y="99.45" width="159.83" height="239.06"/>
                    <g class="cls-33">
                        <g>
                            <line class="cls-2" x1="570.41" y1="302.74" x2="572.68" y2="333.46"/>
                            <line class="cls-7" x1="458.99" y1="302.74" x2="455.94" y2="356.75"/>
                            <g>
                                <path class="cls-21" d="m492.69,209.69c1.34,4.63,1.21,4.16,3.67,4.78.6.15,5.34,2.68,9.06-1.81,4.5-5.42,15.26-.75,23.8-1.54,6.41,4.19,12.94.15,13.52-.41,1.58-1.52-5.32-23.29-5.32-23.29l-44.33,14.05-.41,8.22Z"/>
                                <path class="cls-26" d="m525.43,127.7c.41,6.52,9.7,5.64,10.55,11.81.24,1.74-.28,3.58.3,5.25.57,1.62,2.06,2.72,3.34,3.88,2.01,1.83,3.73,4.32,3.47,7-.12,1.27-.69,2.46-.86,3.73-.54,3.97,2.5,7.35,2.55,11.21.02,1.56-.11,3.19-.9,4.53-1.18,2.01-3.74,3.25-4.08,5.56-.27,1.79.95,3.43,1.6,5.12.83,2.16.88,5.5-.67,7.4-1.33,1.62-3.64,2.22-3.75,4.71-.13,3.09,3.69,5.16,3.96,8.23.12,1.32-.45,2.62-1.2,3.72-.66.98-2.32,1.82-2.86.76-1.49,3.85,7.48,5.25,9.74,4.52,2.73-.89,4.86-3.33,5.35-6.1.26-1.49.3-3.37,1.71-3.96.51-.21,1.08-.18,1.63-.24,2.49-.28,4.5-2.74,4.21-5.18-.18-1.51-1.1-2.91-1.04-4.44.09-2.46,2.58-4.08,3.81-6.22,1.07-1.88,1.12-4.28.13-6.2-.72-1.39-1.98-2.72-1.7-4.25.27-1.51,1.92-2.37,2.68-3.71.94-1.64.41-3.7-.37-5.42-.86-1.89-1.84-3.71-2.73-5.6-.34-.71-.66-1.47-.61-2.25.03-.55-7.54-.73-7.33-1.25,1.24-3.02,5.18-5.28,3.18-8.35-1.26-2.07-1.94-1.85-2.49-4.32-.26-1.16-1.86-.51-1.98-1.69-.49-4.65-4.63-3.29-6.64-7.54-.7-1.49-1.73-3.49-2.74-4.83-.93-1.23-1.54.45-2.78-.48-2.37-1.78-.64,1.25-3.59.81-5.69-.84-10.28-12.14-9.91-6.19Z"/>
                                <path class="cls-26" d="m509.51,127.64c-.41,6.52-9.7,5.64-10.55,11.81-.24,1.74.28,3.58-.3,5.25-.57,1.62-2.06,2.72-3.34,3.88-2.01,1.83-3.73,4.32-3.47,7,.12,1.27.69,2.46.86,3.73.54,3.97-2.5,7.35-2.55,11.21-.02,1.56.11,3.19.9,4.53,1.18,2.01,3.74,3.25,4.08,5.56.27,1.79-.95,3.43-1.6,5.12-.83,2.16-.88,5.5.67,7.4,1.33,1.62,3.64,2.22,3.75,4.71.13,3.09-3.69,5.16-3.96,8.23-.12,1.32.45,2.62,1.2,3.72.66.98,2.32,1.82,2.86.76,1.49,3.85-7.48,5.25-9.74,4.52-2.73-.89-4.86-3.33-5.35-6.1-.26-1.49-.3-3.37-1.71-3.96-.51-.21-1.08-.18-1.63-.24-2.49-.28-4.5-2.74-4.21-5.18.18-1.51,1.1-2.91,1.04-4.44-.09-2.46-2.58-4.08-3.81-6.22-1.07-1.88-1.12-4.28-.13-6.2.72-1.39,1.98-2.72,1.7-4.25-.27-1.51-1.92-2.37-2.68-3.71-.94-1.64-.41-3.7.37-5.42.86-1.89,2.49-5.53,1.72-7.48-4.28-10.87,4.8-11.93,4.75-12.71-.03-.55,4.41,11.61,4.2,11.1-1.24-3.02-5.18-5.28-3.18-8.35,1.26-2.07,4.74.05,5.28-2.41.26-1.16-.12-1.68,0-2.87.49-4.65,3.82-4.03,5.82-8.27.7-1.49,1.73-3.49,2.74-4.83.93-1.23,1.54.45,2.78-.48,2.37-1.78.64,1.25,3.59.81,5.69-.84,10.28-12.14,9.91-6.19Z"/>
                                <g>
                                    <g>
                                        <path class="cls-28" d="m480.82,178.38c-1.32-4.89-.21-9.4,2.48-10.06,2.69-.67,5.94,2.76,7.26,7.65,1.32,4.89.21,9.4-2.48,10.06-2.69.67-5.94-2.76-7.26-7.65Z"/>
                                        <path class="cls-28" d="m553.54,178.38c1.32-4.89.21-9.4-2.48-10.06-2.69-.67-5.94,2.76-7.26,7.65-1.32,4.89-.21,9.4,2.48,10.06,2.69.67,5.94-2.76,7.26-7.65Z"/>
                                    </g>
                                    <path class="cls-13" d="m487.49,321.51s0,.06-.01.09c.01-.09.02-.18.04-.27,0,.06-.02.12-.02.18Zm.1-.75c-.01.1-.02.19-.04.29.02-.14.03-.27.05-.4,0,.04,0,.08-.01.12Zm.17-1.38c0,.05-.01.1-.02.16.01-.12.03-.23.04-.35,0-.01,0-.03,0-.04.01-.1.02-.21.04-.31.02-.17.04-.35.06-.52.01-.11.02-.21.03-.32-.05.46-.1.92-.15,1.39Zm.25-2.39c0,.08-.01.16-.02.24,0-.08.01-.15.02-.23,0-.02,0-.04,0-.06,0,.02,0,.03,0,.05Zm.09-1c0,.07-.01.13-.02.2-.01.15-.03.3-.04.45,0,.08-.01.16-.02.25.01-.12.02-.25.03-.37,0-.01,0-.03,0-.04,0-.03,0-.05,0-.08,0-.05,0-.1.01-.14.01-.15.03-.3.04-.44,0,.06,0,.12-.01.18Zm84.4-5.96c0-.06.02-.07.06-.01h-.06Zm9.82,19.22s-1.7-67.55-4.68-76.23c-6.7-19.56-13.78-18.15-37.02-28.45-.14-.06-.3-.09-.45-.09-.34-.15-.68-.3-1.03-.45-.3-.13-.64-.12-.93.03-.29.15-.49.43-.55.75l-.05.26c-.06.32-.12.64-.17.97-3.59,19.95-7.98,43.94-16.47,63.35h-2.92s-.01.01-.01.01h-2.99c-8.42-18.87-12.97-42.14-16.65-61.76-.09-.48-.18-.96-.27-1.44-.06-.33-.12-.66-.19-.99l-.05-.26c-.06-.32-.26-.6-.55-.75-.1-.05-.2-.09-.31-.1-.21-.04-.42-.01-.62.08-.35.15-.69.31-1.02.46-.15,0-.31.03-.45.09-23.17,10.47-32.28,10.95-38.85,30.56-2.92,8.71-10.19,78.79-10.19,78.79l23.99,1.97s5.45-27.73,10.89-50.6c.12-.51.24-1.02.36-1.55.5,1.29,1.16,2.56,1.97,3.83.44.44.73.74.82.88,3.27,4.72,4.77,12.85,4.44,22.88,0,.11,0,.22-.01.34,0,.22-.02.45-.03.67-.02.51-.05,1.02-.08,1.54-.01.17-.02.35-.03.52,0,.02,0,.03,0,.05,0,.1-.01.19-.02.29,0,.1-.01.19-.02.29,0,0,0,0,0,.02-.01.19-.03.37-.04.56.01-.13.02-.26.03-.39,0,.06,0,.12-.01.18,0,.05,0,.09-.01.14-.01.17-.03.33-.04.5-.01.17-.03.33-.05.5,0,0,0,0,0,0-.01.15-.03.29-.04.44,0,.02,0,.05,0,.07,0,0,0,0,0,0,0,0,0,.01,0,.02,0,.05,0,.09-.01.14,0,.03,0,.06,0,.09,0,.09-.02.17-.03.26,0,0,0,.02,0,.03-.01.12-.03.24-.04.36,0,.04,0,.08-.01.12-.01.12-.03.24-.04.36,0,.09-.02.17-.03.26-.01.12-.03.24-.04.36,0,.02,0,.03,0,.05-.02.15-.04.31-.06.46,0,.02,0,.04,0,.06-.01.09-.02.17-.03.26-.01.09-.02.17-.03.26,0,.06-.02.12-.02.19,0,.04-.01.09-.02.13,0,.02,0,.04,0,.06-.01.09-.02.18-.04.27,0,.03,0,.05-.01.08-.02.15-.04.3-.06.46,0,.01,0,.02,0,.03-.02.14-.04.28-.06.42-.01.09-.03.19-.04.28-.02.12-.04.24-.06.36,0,.05-.02.1-.02.16-.02.1-.03.19-.05.29-.01.09-.03.18-.04.27,0,.06-.02.11-.03.17-.01.09-.03.17-.04.26-.02.15-.05.3-.08.45,0,0,0,0,0,.01,0,0,0,.01,0,.02,0,.02,0,.03,0,.05,0,.02,0,.04-.01.06-.02.1-.03.2-.05.29-.02.11-.04.21-.06.32-.01.08-.03.15-.04.23-.03.14-.05.29-.08.43-.03.14-.05.28-.08.42,0,.03-.01.06-.02.08,0,.05-.02.09-.03.14,0,0,0,.02,0,.03,0,0,0,.02,0,.03-.01.06-.02.12-.04.18-.03.16-.06.32-.1.49,0,0,0,.02,0,.03,0,.01,0,.03,0,.04,0,.04-.02.08-.02.12,0,.03-.01.07-.02.1-.02.11-.05.23-.07.34,0,.04-.02.08-.02.12,0,.03-.01.05-.02.08-.02.08-.03.17-.05.25-.02.08-.04.17-.05.25,0,.04-.01.07-.02.11-.03.12-.05.24-.08.36-.02.11-.05.22-.07.34l-.04.18s0,0,0,0c0,.03-.01.07-.02.1-.03.14-.06.27-.09.41,0,.05-.02.09-.03.14-.08.35-.16.7-.25,1.05-.05.19-.09.38-.14.57-.02.08-.04.15-.06.23-.03.11-.06.23-.08.34-1.05,4.2-2.82,8.74-4.88,13.99l-3.48,8.42,78.82,2.22c-1.98-4.93-4.38-21.73-5.1-24.84-.77-3.34-1.39-6.6-1.86-9.75-.39-2.58-.67-5.09-.86-7.51,0-.01,0-.02,0-.03,0-.12-.02-.24-.03-.36-.07-.94-.12-1.87-.16-2.78,0-.13,0-.25-.01-.38-.38-9.96,1.07-18.04,4.28-22.75.1-.14.38-.45.82-.89.8-1.28,1.44-2.56,1.94-3.84.13.53.24,1.05.36,1.56,3.56,16.08,6.4,44.4,6.4,44.4l20.72-.34Zm-95.71-2.06c.06-.34.12-.67.18-1-.06.33-.12.67-.18,1Zm.59-3.51c-.01.09-.03.18-.04.27-.03.18-.06.36-.08.54-.06.36-.12.72-.18,1.08.06-.36.12-.72.18-1.08.06-.36.11-.71.17-1.07-.01.09-.03.18-.04.27Zm.12-.8s-.01.08-.02.12c0-.06.02-.13.03-.19,0,.02,0,.05,0,.07Z"/>
                                    <path class="cls-23" d="m537.43,226.02c-3.59,19.95-7.98,43.94-16.47,63.35h-2.92s-.01.01-.01.01h-2.99c-8.42-18.87-12.97-42.14-16.65-61.76-.09-.48-.18-.96-.27-1.44.05-.02.1-.04.15-.06.13-.06.26-.12.39-.19.04-.02.09-.04.13-.07,1.03-.54,1.92-1.29,2.64-2.17,0,0,.01,0,.02.01,1.22-1.5,1.93-3.4,1.93-5.43l-.09-24.29h.06l14.33-.05h.01l14.21-.05h.18s.09,24.29.09,24.29c0,2.02.73,3.92,1.96,5.41,0,0,0,0,.01,0,.48.58,1.03,1.09,1.64,1.53.04.03.07.05.11.08.11.07.22.15.33.22.08.05.16.09.23.14.04.02.08.05.13.07.04.03.09.05.13.07.23.12.47.24.72.34Z"/>
                                    <path class="cls-23" d="m548.07,173.36c0,29.56-19.04,41.11-30.75,41.11-10.23,0-30.75-8.89-30.75-41.11,0-23.2,13.77-42,30.75-42s30.75,18.8,30.75,42Z"/>
                                    <path class="cls-20" d="m544.15,132.32c2.35,2.34,3.55,5.52,4.48,8.65,2.76,9.28,3.68,19.44.11,28.47-.98-.12-1.57-1.09-1.92-1.98-1.33-3.36-1.48-7.04-2.43-10.52-.95-3.48-3.07-7.04-6.63-8.13-1.48-.46-3.17-.47-4.42-1.36-1.88-1.33-1.97-3.95-1.89-6.19.12-3.28.22-8.24,3.03-10.64,2.81-2.39,7.31-.64,9.66,1.7Z"/>
                                    <g>
                                        <path class="cls-27" d="m508.89,184.33h-14.39c-1.87,0-3.5-1.31-3.89-3.1l-1.5-6.98c-.24-1.11.02-2.27.72-3.17.76-.98,1.91-1.55,3.17-1.55h17.38c1.26,0,2.41.56,3.17,1.55.7.9.96,2.06.72,3.17l-1.5,6.98c-.39,1.8-2.02,3.1-3.89,3.1Zm-15.88-12.82c-.67,0-1.28.29-1.68.8-.34.44-.46.97-.35,1.5l1.5,6.98c.19.9,1.04,1.55,2.02,1.55h14.39c.98,0,1.83-.65,2.02-1.55l1.5-6.98c.11-.53-.01-1.06-.35-1.5-.39-.51-1-.8-1.68-.8h-17.38Z"/>
                                        <path class="cls-27" d="m539.19,184.33h-14.38c-1.87,0-3.5-1.31-3.89-3.1l-1.5-6.98c-.24-1.11.02-2.27.72-3.17.76-.98,1.91-1.55,3.17-1.55h17.38c1.26,0,2.41.56,3.17,1.55.7.9.96,2.06.72,3.17l-1.5,6.98c-.39,1.8-2.02,3.1-3.89,3.1Zm-15.88-12.82c-.67,0-1.28.29-1.68.8-.34.44-.46.97-.35,1.5l1.5,6.98c.19.9,1.04,1.55,2.02,1.55h14.38c.98,0,1.83-.65,2.02-1.55l1.5-6.98c.11-.53-.01-1.06-.35-1.5-.39-.51-1-.8-1.68-.8h-17.38Z"/>
                                        <path class="cls-27" d="m519.75,172.73c-3-2.12-5.73-.05-5.76-.03l-1.14-1.59c1.32-1.03,4.69-2.35,7.98-.03l-1.08,1.64Z"/>
                                        <path class="cls-27" d="m490.44,172.91c-.2,0-.41-.07-.58-.21l-4.82-3.87c-.42-.34-.49-.96-.17-1.39.32-.43.92-.51,1.34-.18l4.82,3.87c.42.34.49.96.17,1.39-.19.25-.47.39-.76.39Z"/>
                                        <path class="cls-27" d="m543.09,172.62c-.29,0-.57-.13-.76-.39-.32-.43-.25-1.06.17-1.39l4.82-3.87c.42-.34,1.02-.26,1.34.18.32.43.25,1.06-.17,1.39l-4.82,3.87c-.17.14-.38.21-.58.21Z"/>
                                    </g>
                                </g>
                                <path class="cls-21" d="m502.93,146.25c.34-.09.68-.17,1.02-.24,1.44-.29,3.14-.22,4.1.9.66.76.8,1.82,1.22,2.74.87,1.92,3.09,3.13,5.17,2.83,1.84-.27,3.35-1.53,4.97-2.45,1.62-.92,3.77-1.46,5.25-.34,2.1,1.58,1.36,5.25,3.35,6.96,2.95,2.53,8.5-1.67,11.08,1.23,1.43,1.61.65,4.12,1.04,6.23.89,4.77,4.88,4.66,8.56,6.21.38.16.79.33,1.2.25.38-.07.69-.35.97-.62,2.52-2.35,5.98-3.36,7.92-6.31,1.05-1.71,1.43-3.81,1.05-5.78-.11-.57-.29-1.14-.63-1.62-.41-.56-1.01-.95-1.49-1.45-1.73-1.76,1.02-4.2.83-6.35-.19-2.09-2.39-3.32-4.32-4.14-5.41-2.31-3.61-5.4-4.85-10.3-1.32-5.21-6.91-8.96-12.23-8.19-1.54.22-3.09.77-4.61.45-1.44-.3-2.59-1.32-3.75-2.22-3.77-2.93-8.27-4.91-12.98-5.71-3.46-.59-7.54-.32-9.75,2.42-.73.91-1.18,2.02-1.9,2.94-2.42,3.09-6.93,3.22-10.75,4.15-3.82.93-7.97,4.54-6.31,8.1,1.07,2.3,3.6,4.18,5.52,5.72,1.64,1.31,4.94,4.91,7.03,5.08,1.12.09,2.21-.22,3.3-.51Z"/>
                                <path class="cls-14" d="m501.83,140.61c-1.53,1.45-3.68,2.01-5.51,3.07-1.83,1.05-3.48,3.09-2.83,5.09.26.79.85,1.46.98,2.28.35,2.15-2.46,3.58-2.84,5.73-.18,1.04.24,2.09.45,3.12.84,4.07-2.08,8.54-6.16,9.43-.96.21-1.98.25-2.88.66-.66.3-1.33.8-2.03.61-.37-.1-.66-.38-.91-.67-1.78-2-2.63-4.78-2.29-7.43.29-2.25,1.4-4.48.88-6.68-.51-2.15-2.46-3.73-2.99-5.87-.6-2.41.83-4.98,2.9-6.38.58-.39,1.23-.74,1.59-1.34.52-.88.24-1.98.22-3-.08-3.88,3.63-6.64,6.94-8.71,3.23-2.02,7.32-4.07,10.63-2.19,3.07,1.75,6.87,9.39,3.86,12.26Z"/>
                                <path class="cls-14" d="m479.41,155.51c-.5,4.64-2.29,5.09-2.57,10-.31,5.53,2.07,11.22,8.85,10.85-4.18-2.32-3.92-8.42-1.57-10.42,2.36-2,2.46-12.29,2.46-12.29l-7.17,1.86Z"/>
                                <path class="cls-21" d="m542.75,162.7c3.08,3.19,5.29,14.21,2.75,17.96,7.71-4.96,5.25-22.81,2.57-25.89-2.68-3.08-5.32,7.93-5.32,7.93Z"/>
                            </g>
                        </g>
                    </g>
                    <path class="cls-23" d="m603.86,216.05l-1.83,14.56c-.06.25-.1.45-.1.45,0,0-.04.2-.1.45l-1.73,7.38s-.07.46-.19,1.23c-.37,2.38-1.2,7.67-1.71,10.84-.47,2.85-1.25,4.12-1.7,4.64-.17.2-.34.52-.34.78l-15.08,76.95c-.72,3.69-3.9,6.39-7.66,6.49-.08,0-.16,0-.25,0-5.14.14-9.1-4.51-8.12-9.57l14.41-74.65c0-.26-.15-.62-.32-.81-.46-.48-1.51-1.4-2.82-2.36-1.9-1.39-2.77-3.27-2.77-3.27,0,0-6.85-13.96-8.68-18.06-.22-.49-.54-1.06.86-1.96,2.45-1.58,4.42,1.02,5,2,.53.91,3.13,5.26,4.39,7.57.38.7,1.01,1.05,1.64.98,1.09-.12.97-2.52.76-4.17l-3.96-22.08c-.34-1.49.5-2.99,1.89-3.33,1.38-.35,2.86.56,3.3,2.03l3.68,17.6c.07.25.25.67.51.7.22.02.43-.22.45-.95l-.52-21.21c-.03-1.79,1.26-3.27,2.89-3.31,1.63-.04,2.98,1.38,3.01,3.17l.54,22.02c.08,1.08.79,1.29.89-.08l.23-20.1c.05-1.53,1.28-2.72,2.75-2.66,1.47.07,2.63,1.36,2.59,2.89,0,0-.15,21.14-.15,21.14v.26c.02,1.12.77,1.37,1.15.18l2.66-16.81c.32-1.24,1.56-2.01,2.77-1.73,1.21.29,1.95,1.53,1.66,2.78Z"/>
                </g>
            </g>
        </g>
    </g>
</svg>