<?xml version="1.0" encoding="UTF-8"?><svg xmlns="http://www.w3.org/2000/svg" xmlns:xlink="http://www.w3.org/1999/xlink" viewBox="0 0 800 1080"><defs><style>.cls-1,.cls-2,.cls-3,.cls-4,.cls-5{fill:none;}.cls-6,.cls-7,.cls-2,.cls-8,.cls-9,.cls-10,.cls-11{isolation:isolate;}.cls-6,.cls-7,.cls-8,.cls-12,.cls-9,.cls-10,.cls-11{fill:#fff;}.cls-6,.cls-13{letter-spacing:-.02em;}.cls-6,.cls-11{font-family:SFProText-Medium, 'SF Pro Text';font-size:15.43px;font-weight:500;}.cls-7{font-size:18.99px;}.cls-7,.cls-10{font-family:Helvetica, Helvetica;}.cls-8{font-family:SFProText-Regular, 'SF Pro Text';font-size:16.62px;}.cls-14{fill:#b8bec0;}.cls-15,.cls-16{fill:#3e3e3e;}.cls-17{fill:#888;}.cls-9{opacity:.2;}.cls-18{letter-spacing:-.02em;}.cls-19{letter-spacing:-.02em;}.cls-3{stroke-linejoin:round;stroke-width:.89px;}.cls-3,.cls-4{stroke:#fff;stroke-linecap:round;}.cls-10{font-size:87.83px;letter-spacing:-.05em;}.cls-16,.cls-20,.cls-21{fill-rule:evenodd;}.cls-20{fill:#a5a49f;}.cls-22{letter-spacing:0em;}.cls-23{letter-spacing:0em;}.cls-24{letter-spacing:-.02em;}.cls-4{stroke-miterlimit:10;stroke-width:1.19px;}.cls-25{letter-spacing:-.02em;}.cls-5{clip-path:url(#clippath);}</style><clipPath id="clippath"><rect class="cls-1" x="175.44" y="58.49" width="445.1" height="963.78"/></clipPath></defs><g id="android"><g id="Layer_2"><path class="cls-21" d="m643.14,223.07v122.09c0,.9-.36,1.7-.97,2.28-.57.56-1.35.9-2.21.9,0,0-2.8,0-2.8,0-1.76,0-3.17-1.42-3.17-3.18v-122.09c0-1.73,1.38-3.14,3.1-3.18.03,0,2.84,0,2.87,0,.86,0,1.64.34,2.21.9.6.58.97,1.39.97,2.28Z"/><path class="cls-21" d="m643.14,414.72v59.46c0,.9-.36,1.7-.97,2.28-.57.56-1.35.9-2.21.9,0,0-2.8,0-2.8,0-1.76,0-3.17-1.42-3.17-3.18v-59.46c0-1.73,1.38-3.14,3.1-3.18.03,0,2.84,0,2.87,0,.86,0,1.64.34,2.21.9.6.58.97,1.39.97,2.28Z"/><path class="cls-20" d="m161.52,94.85c0-14.13,5.63-27.68,15.63-37.67,10.01-10,23.58-15.61,37.74-15.61h369c14.15,0,27.73,5.61,37.74,15.6,10.01,9.99,15.63,23.55,15.63,37.67v890.32c0,14.13-5.63,27.68-15.63,37.67-10.01,9.99-23.59,15.6-37.74,15.6H214.89c-14.15,0-27.73-5.61-37.74-15.6-10.01-9.99-15.63-23.55-15.63-37.67V94.85Z"/><path class="cls-20" d="m162.36,96.17c0-14.13,5.63-27.68,15.63-37.67,10.01-10,23.59-15.61,37.74-15.61h367.32c14.15,0,27.73,5.61,37.74,15.6,10.01,9.99,15.63,23.55,15.63,37.67v888.06c0,14.13-5.63,27.68-15.63,37.67-10.01,9.99-23.59,15.6-37.74,15.6H215.73c-14.15,0-27.73-5.61-37.74-15.6-10.01-9.99-15.63-23.55-15.63-37.67V96.17Z"/><path class="cls-21" d="m164.78,99.22c0-14.13,5.63-27.68,15.63-37.67,10.01-9.99,23.59-15.61,37.74-15.61h362.47c14.15,0,27.73,5.61,37.74,15.61,10.01,9.99,15.63,23.55,15.63,37.67v881.96c0,14.13-5.63,27.68-15.63,37.67-10.01,9.99-23.59,15.6-37.74,15.6H218.15c-14.15,0-27.73-5.61-37.74-15.6-10.01-9.99-15.63-23.55-15.63-37.67V99.22Z"/><path class="cls-21" d="m167.92,101.76c0-14.15,5.63-27.73,15.63-37.74,10.01-10.01,23.59-15.63,37.74-15.63h356.2c14.15,0,27.73,5.63,37.74,15.63,10.01,10.01,15.63,23.59,15.63,37.74v875.68c0,14.15-5.63,27.73-15.63,37.74-10.01,10.01-23.59,15.63-37.74,15.63H221.29c-14.15,0-27.73-5.63-37.74-15.63-10.01-10.01-15.63-23.59-15.63-37.74V101.76Z"/></g></g><g id="screen"><g id="Layer_3"><path class="cls-16" d="m619.92,94.96c0-9.14-3.69-17.9-10.26-24.37-6.57-6.46-15.49-10.09-24.78-10.09H213.9c-9.3,0-18.21,3.63-24.78,10.09-6.58,6.46-10.26,15.22-10.26,24.37v889.29c0,9.14,3.69,17.9,10.26,24.36,6.58,6.46,15.49,10.09,24.78,10.09h370.98c9.3,0,18.21-3.63,24.78-10.09,6.58-6.46,10.26-15.22,10.26-24.36V94.96h0Z"/></g></g><g id="camera"><path class="cls-17" d="m400,86.91c-4.33,0-7.85-3.52-7.85-7.85s3.52-7.85,7.85-7.85,7.85,3.52,7.85,7.85-3.52,7.85-7.85,7.85Z"/><path class="cls-15" d="m400,73.94c-2.82,0-5.12,2.3-5.12,5.12s2.3,5.12,5.12,5.12,5.12-2.3,5.12-5.12-2.3-5.12-5.12-5.12Z"/></g><g id="Layer_4"><g class="cls-5"><g id="Android_01_Lockscreen"><g id="Group_48"><g id="_1:20" class="cls-2"><text class="cls-11" transform="translate(192.9 90.54)"><tspan class="cls-13" x="0" y="0">Op</tspan><tspan class="cls-24" x="21.11" y="0">s</tspan><tspan class="cls-13" x="29.12" y="0">t</tspan><tspan class="cls-18" x="34.75" y="0">r</tspan><tspan class="cls-19" x="40.63" y="0">a</tspan></text></g><g id="_1:20-2" class="cls-2"><text class="cls-6" transform="translate(552.32 90.54)"><tspan x="0" y="0">57%</tspan></text></g><g id="Group_46"><g id="Group_40"><path id="Path_8" class="cls-12" d="m501.97,80.94c-3.91-3.9-10.23-3.9-14.13,0-.32.32-.32.83,0,1.14.32.32.83.32,1.14,0,3.27-3.27,8.57-3.27,11.85,0,.33.31.84.29,1.14-.04.29-.31.29-.8,0-1.11Z"/><path id="Path_9" class="cls-12" d="m494.9,81.25c-1.8,0-3.53.71-4.79,1.99-.32.32-.32.83,0,1.14s.83.32,1.14,0c2.01-2.02,5.28-2.02,7.3,0,0,0,0,0,0,0,.32.32.83.32,1.14,0s.32-.83,0-1.14c-1.27-1.28-2.99-1.99-4.79-1.99Z"/><path id="Path_10" class="cls-12" d="m492.22,85.56c-.32.31-.33.82-.01,1.14s.82.33,1.14.01c0,0,0,0,.01-.01.85-.85,2.22-.85,3.07,0,.32.31.83.31,1.14-.01.31-.31.31-.81,0-1.13-1.48-1.48-3.88-1.48-5.36,0Z"/><path id="Path_11" class="cls-12" d="m494.9,87.55c-.56,0-1,.45-1,1.01,0,.56.45,1,1.01,1,.56,0,1-.45,1-1.01,0-.27-.11-.52-.29-.71-.19-.19-.45-.29-.71-.29Z"/></g><g id="Group_43"><g id="Group_41"><line id="Line_4" class="cls-3" x1="499.36" y1="86.94" x2="499.36" y2="90.92"/><path id="Path_12" class="cls-3" d="m500.91,89.38l-1.54,1.54-1.54-1.54"/></g><g id="Group_42"><line id="Line_5" class="cls-3" x1="503.41" y1="89.86" x2="503.41" y2="85.87"/><path id="Path_13" class="cls-3" d="m501.87,87.42l1.54-1.54,1.54,1.54"/></g></g><g id="Group_44"><line id="Line_6" class="cls-4" x1="547.09" y1="79.33" x2="547.09" y2="90.15"/><line id="Line_7" class="cls-4" x1="543.94" y1="82.58" x2="543.94" y2="90.15"/><line id="Line_8" class="cls-4" x1="540.79" y1="85.7" x2="540.79" y2="90.15"/><line id="Line_9" class="cls-4" x1="537.64" y1="88.55" x2="537.64" y2="90.15"/></g><g id="Group_45"><path id="Path_14" class="cls-14" d="m593.2,79.59h-.47v-.5c0-.62-.5-1.12-1.12-1.12h-1.85c-.62,0-1.12.5-1.12,1.12h0v.5h-.48c-.88,0-1.59.71-1.59,1.59h0v8.47c0,.88.71,1.59,1.59,1.59h5.06c.88,0,1.59-.71,1.59-1.59h0v-8.47c0-.88-.71-1.59-1.59-1.59,0,0,0,0,0,0Z"/><path id="Path_15" class="cls-12" d="m586.55,85.42v4.24c0,.88.71,1.59,1.59,1.59h5.06c.88,0,1.59-.71,1.59-1.59h0v-4.24h-8.24Z"/></g></g><g id="Time"><g id="_1:20-3" class="cls-2"><text class="cls-6" transform="translate(510.07 90.54)"><tspan x="0" y="0">4G</tspan></text></g></g></g><g id="Group_58"><g id="Date" class="cls-2"><text class="cls-7" transform="translate(326.92 380.15)"><tspan x="0" y="0">Fri, 30 September</tspan></text></g><g id="Time-2" class="cls-2"><text class="cls-10" transform="translate(326.22 335.05)"><tspan x="0" y="0">9:41</tspan></text></g><path id="Path_20" class="cls-12" d="m389.96,422.52c.05-.36.08-.72.09-1.08,0-.36-.03-.72-.09-1.08l2.5-1.86c-.47-1.59-1.31-3.04-2.46-4.24l-2.86,1.23c-.57-.45-1.2-.81-1.87-1.08l-.36-3.09c-.8-.2-1.63-.3-2.45-.3-.83,0-1.65.1-2.45.3l-.36,3.09c-.67.27-1.3.63-1.87,1.08l-2.86-1.23c-1.14,1.2-1.99,2.65-2.46,4.24l2.5,1.86c-.05.36-.08.72-.09,1.08,0,.36.03.72.09,1.08l-2.5,1.86c.47,1.59,1.31,3.04,2.46,4.24l2.86-1.23c.57.45,1.2.81,1.87,1.08l.36,3.09c.8.2,1.62.3,2.45.3.83,0,1.65-.1,2.45-.3l.36-3.09c.67-.27,1.3-.63,1.87-1.08l2.86,1.23c1.14-1.2,1.99-2.65,2.46-4.24l-2.5-1.86Zm-7.49,2.33c-1.88,0-3.41-1.53-3.41-3.41s1.53-3.41,3.41-3.41,3.41,1.53,3.41,3.41-1.53,3.41-3.41,3.41Z"/><path id="Path_21" class="cls-12" d="m421.12,422.72h-.02c0-.06.02-.12.02-.18,0-2.11-1.71-3.83-3.83-3.83h0c-.54,0-1.08.12-1.58.35-.63-2.68-3.02-4.58-5.77-4.58-3.28,0-5.94,2.66-5.94,5.94h0s-.05,0-.07,0c-1.64,0-2.97,1.33-2.97,2.97s1.33,2.97,2.97,2.97h17.19c1.01,0,1.83-.82,1.83-1.83,0-1-.82-1.81-1.82-1.81Z"/></g><path id="Path_22" class="cls-12" d="m405.46,128.51h-.52v-4.66c0-3.98-3.23-7.2-7.2-7.2-3.98,0-7.2,3.23-7.2,7.2v4.66h-.52c-1.82,0-3.3,1.48-3.3,3.3h0v12.02c0,1.82,1.48,3.3,3.3,3.3h15.45c1.82,0,3.3-1.48,3.3-3.3h0v-12.02c0-1.82-1.48-3.3-3.3-3.3Zm-6.4,9.21v3.3c0,.73-.59,1.32-1.32,1.32h0c-.73,0-1.32-.59-1.32-1.32h0v-3.3c-.53-.41-.85-1.04-.85-1.71,0-1.2.97-2.17,2.17-2.17h0c1.2,0,2.17.97,2.17,2.17h0c0,.67-.32,1.3-.85,1.71Zm3.51-9.21h-9.66v-4.66c0-2.67,2.16-4.83,4.83-4.83,2.67,0,4.83,2.16,4.83,4.83v4.66Z"/><g id="Clock" class="cls-2"><text class="cls-8" transform="translate(342.16 946.31)"><tspan class="cls-23" x="0" y="0">Swipe </tspan><tspan class="cls-25" x="50.87" y="0">t</tspan><tspan class="cls-22" x="56.62" y="0">o unlock</tspan></text></g><g id="Group_62"><g id="Group_60"><g id="Group_59"><rect id="Rectangle_33" class="cls-9" x="206.3" y="953.43" width="44.17" height="44.17" rx="16.37" ry="16.37"/><path id="Path_23" class="cls-12" d="m230.69,980.17h-2.76c-1.23,0-2.23-1-2.23-2.23h0v-4.84c0-1.23,1-2.23,2.23-2.23h2.77c1.93,0,2.85-1.73,2.85-3.87s-.92-3.87-2.85-3.87h-.35c-5.24,0-9.5,4.25-9.5,9.5v5.78c0,5.24,4.25,9.5,9.5,9.5h.35c1.93,0,2.85-1.73,2.85-3.87s-.92-3.87-2.85-3.87Z"/></g></g><g id="Group_61"><rect id="Rectangle_34" class="cls-9" x="545.76" y="953.43" width="44.17" height="44.17" rx="16.37" ry="16.37"/><path id="Path_24" class="cls-12" d="m576.24,965.46h-16.79c-2.6,0-4.7,2.11-4.7,4.7h0v10.71c0,2.6,2.11,4.7,4.7,4.7h16.79c2.6,0,4.7-2.11,4.7-4.7h0v-10.72c0-2.6-2.11-4.7-4.7-4.7Zm-8.4,14.72c-2.57,0-4.66-2.08-4.66-4.66s2.08-4.66,4.66-4.66,4.66,2.08,4.66,4.66h0c0,2.57-2.08,4.65-4.66,4.65h0Zm7.57-7.32c-1.32,0-2.39-1.07-2.39-2.39,0-1.32,1.07-2.39,2.39-2.39,1.32,0,2.39,1.07,2.39,2.39,0,1.32-1.07,2.39-2.39,2.39h0Z"/></g></g></g></g></g></svg>