<?xml version="1.0" encoding="utf-8"?>
<!-- Generator: Adobe Illustrator 28.0.0, SVG Export Plug-In . SVG Version: 6.00 Build 0)  -->
<svg version="1.1" id="Layer_1" xmlns="http://www.w3.org/2000/svg" xmlns:xlink="http://www.w3.org/1999/xlink" x="0px" y="0px"
	 viewBox="0 0 800 1080" style="enable-background:new 0 0 800 1080;" xml:space="preserve">
<style type="text/css">
	.st0{fill-rule:evenodd;clip-rule:evenodd;}
	.st1{fill-rule:evenodd;clip-rule:evenodd;fill:#A5A49F;}
	.st2{fill-rule:evenodd;clip-rule:evenodd;fill:#3E3E3E;}
	.st3{fill:#888888;}
	.st4{fill:#3E3E3E;}
	.st5{clip-path:url(#SVGID_00000102523716992882920640000008693936162943371415_);}
	.st6{enable-background:new    ;}
	.st7{fill:#FFFFFF;}
	.st8{fill:none;stroke:#FFFFFF;stroke-width:0.89;stroke-linecap:round;stroke-linejoin:round;}
	.st9{fill:none;stroke:#FFFFFF;stroke-width:1.19;stroke-linecap:round;stroke-miterlimit:10;}
	.st10{fill:#B8BEC0;}
	.st11{opacity:0.2;fill:#FFFFFF;enable-background:new    ;}
</style>
<g id="android">
	<g id="Layer_2_00000097462215390327739070000017427736867598199446_">
		<path class="st0" d="M643.1,223.1v122.1c0,0.9-0.4,1.7-1,2.3c-0.6,0.6-1.3,0.9-2.2,0.9h-2.8c-1.8,0-3.2-1.4-3.2-3.2V223.1
			c0-1.7,1.4-3.1,3.1-3.2c0,0,2.8,0,2.9,0c0.9,0,1.6,0.3,2.2,0.9C642.8,221.4,643.1,222.2,643.1,223.1z"/>
		<path class="st0" d="M643.1,414.7v59.5c0,0.9-0.4,1.7-1,2.3c-0.6,0.6-1.3,0.9-2.2,0.9h-2.8c-1.8,0-3.2-1.4-3.2-3.2v-59.5
			c0-1.7,1.4-3.1,3.1-3.2c0,0,2.8,0,2.9,0c0.9,0,1.6,0.3,2.2,0.9C642.8,413,643.1,413.8,643.1,414.7z"/>
		<path class="st1" d="M161.5,94.8c0-14.1,5.6-27.7,15.6-37.7c10-10,23.6-15.6,37.7-15.6h369c14.2,0,27.7,5.6,37.7,15.6
			s15.6,23.6,15.6,37.7v890.3c0,14.1-5.6,27.7-15.6,37.7c-10,10-23.6,15.6-37.7,15.6h-369c-14.1,0-27.7-5.6-37.7-15.6
			c-10-10-15.6-23.5-15.6-37.7L161.5,94.8L161.5,94.8z"/>
		<path class="st1" d="M162.4,96.2c0-14.1,5.6-27.7,15.6-37.7c10-10,23.6-15.6,37.7-15.6h367.3c14.2,0,27.7,5.6,37.7,15.6
			s15.6,23.5,15.6,37.7v888.1c0,14.1-5.6,27.7-15.6,37.7c-10,10-23.6,15.6-37.7,15.6H215.7c-14.1,0-27.7-5.6-37.7-15.6
			c-10-10-15.6-23.5-15.6-37.7L162.4,96.2L162.4,96.2z"/>
		<path class="st0" d="M164.8,99.2c0-14.1,5.6-27.7,15.6-37.7c10-10,23.6-15.6,37.7-15.6h362.5c14.2,0,27.7,5.6,37.7,15.6
			c10,10,15.6,23.6,15.6,37.7v882c0,14.1-5.6,27.7-15.6,37.7c-10,10-23.6,15.6-37.7,15.6H218.1c-14.1,0-27.7-5.6-37.7-15.6
			c-10-10-15.6-23.5-15.6-37.7L164.8,99.2L164.8,99.2z"/>
		<path class="st0" d="M167.9,101.8c0-14.2,5.6-27.7,15.6-37.7c10-10,23.6-15.6,37.7-15.6h356.2c14.2,0,27.7,5.6,37.7,15.6
			c10,10,15.6,23.6,15.6,37.7v875.7c0,14.2-5.6,27.7-15.6,37.7c-10,10-23.6,15.6-37.7,15.6H221.3c-14.1,0-27.7-5.6-37.7-15.6
			c-10-10-15.6-23.6-15.6-37.7L167.9,101.8L167.9,101.8z"/>
	</g>
</g>
<g id="screen">
	<g id="Layer_3">
		<path class="st2" d="M619.9,95c0-9.1-3.7-17.9-10.3-24.4c-6.6-6.5-15.5-10.1-24.8-10.1h-371c-9.3,0-18.2,3.6-24.8,10.1
			c-6.6,6.5-10.3,15.2-10.3,24.4v889.3c0,9.1,3.7,17.9,10.3,24.4c6.6,6.5,15.5,10.1,24.8,10.1h371c9.3,0,18.2-3.6,24.8-10.1
			c6.6-6.5,10.3-15.2,10.3-24.4L619.9,95L619.9,95L619.9,95z"/>
	</g>
</g>
<g id="camera">
	<path class="st3" d="M400,86.9c-4.3,0-7.9-3.5-7.9-7.8s3.5-7.8,7.9-7.8s7.9,3.5,7.9,7.8S404.3,86.9,400,86.9z"/>
	<path class="st4" d="M400,73.9c-2.8,0-5.1,2.3-5.1,5.1s2.3,5.1,5.1,5.1s5.1-2.3,5.1-5.1S402.8,73.9,400,73.9z"/>
</g>
<g id="Layer_4">
	<g>
		<defs>
			<rect id="SVGID_1_" x="175.4" y="58.5" width="445.1" height="963.8"/>
		</defs>
		<clipPath id="SVGID_00000052802665679860225220000013667719347734333360_">
			<use xlink:href="#SVGID_1_"  style="overflow:visible;"/>
		</clipPath>
		<g style="clip-path:url(#SVGID_00000052802665679860225220000013667719347734333360_);">
			<g id="Android_01_Lockscreen">
				<g id="Group_48">
					<g id="_1:20">
						<g class="st6">
							<path class="st7" d="M193.8,85.1L193.8,85.1c0-3.5,2-5.7,5.1-5.7c3.1,0,5.1,2.2,5.1,5.7v0c0,3.5-1.9,5.7-5.1,5.7
								C195.7,90.8,193.8,88.6,193.8,85.1z M202.2,85.1L202.2,85.1c0-2.6-1.3-4.2-3.3-4.2c-2.1,0-3.4,1.6-3.4,4.2v0
								c0,2.5,1.3,4.2,3.4,4.2C201,89.3,202.2,87.7,202.2,85.1z"/>
							<path class="st7" d="M205.8,82.4h1.6v1.3h0.1c0.5-0.9,1.4-1.4,2.5-1.4c2.1,0,3.4,1.7,3.4,4.2v0c0,2.6-1.3,4.2-3.4,4.2
								c-1.1,0-2.1-0.6-2.5-1.4h-0.1v4h-1.6V82.4z M211.8,86.5L211.8,86.5c0-1.8-0.8-2.8-2.2-2.8c-1.4,0-2.2,1.1-2.2,2.8v0
								c0,1.7,0.8,2.8,2.2,2.8C210.9,89.3,211.8,88.2,211.8,86.5z"/>
						</g>
						<g class="st6">
							<path class="st7" d="M214.8,88.4L214.8,88.4l1.6,0l0,0c0.2,0.6,0.8,1,1.8,1c1,0,1.7-0.5,1.7-1.1v0c0-0.5-0.4-0.9-1.3-1.1
								l-1.3-0.3c-1.5-0.4-2.3-1.1-2.3-2.3v0c0-1.4,1.3-2.5,3.2-2.5c1.9,0,3.1,0.9,3.2,2.3v0h-1.6v0c-0.2-0.6-0.7-1-1.7-1
								c-0.9,0-1.5,0.4-1.5,1.1v0c0,0.5,0.4,0.8,1.3,1l1.3,0.3c1.6,0.4,2.3,1,2.3,2.2v0c0,1.5-1.4,2.5-3.4,2.5
								C216.2,90.7,214.9,89.8,214.8,88.4z"/>
						</g>
						<g class="st6">
							<path class="st7" d="M223.7,88.4v-4.7h-1.3v-1.3h1.3v-2.1h1.7v2.1h1.8v1.3h-1.8V88c0,0.9,0.3,1.2,1.1,1.2c0.2,0,0.4,0,0.6,0
								v1.3c-0.3,0-0.6,0.1-0.9,0.1C224.5,90.6,223.7,90,223.7,88.4z"/>
						</g>
						<g class="st6">
							<path class="st7" d="M228.8,82.4h1.6v1.2h0.1c0.3-0.9,1.1-1.4,2.1-1.4c0.3,0,0.6,0,0.7,0.1v1.5c-0.3-0.1-0.6-0.1-0.9-0.1
								c-1.3,0-2.1,0.8-2.1,2v4.9h-1.6V82.4z"/>
						</g>
						<g class="st6">
							<path class="st7" d="M234.2,88.2L234.2,88.2c0-1.5,1.1-2.3,3.1-2.5l2.2-0.1v-0.7c0-0.9-0.6-1.4-1.7-1.4
								c-0.9,0-1.5,0.3-1.7,0.9l0,0h-1.6l0-0.1c0.2-1.3,1.5-2.2,3.3-2.2c2.1,0,3.2,1,3.2,2.7v5.6h-1.6v-1.2h-0.1
								c-0.5,0.8-1.3,1.3-2.4,1.3C235.4,90.7,234.2,89.7,234.2,88.2z M237.4,89.4c1.2,0,2.1-0.8,2.1-1.9v-0.7l-2,0.1
								c-1.1,0.1-1.6,0.5-1.6,1.2v0C235.9,88.9,236.5,89.4,237.4,89.4z"/>
						</g>
					</g>
					<g id="_1:20-2">
						<g class="st6">
							<path class="st7" d="M553.5,87.7L553.5,87.7l1.6-0.1l0,0.1c0.1,1,1,1.7,2.2,1.7c1.3,0,2.3-1,2.3-2.3v0c0-1.3-1-2.3-2.3-2.3
								c-0.7,0-1.2,0.2-1.7,0.6c-0.2,0.2-0.4,0.4-0.5,0.6h-1.5l0.5-6.3h6.3v1.4h-5l-0.3,3.5h0.1c0.5-0.7,1.3-1.2,2.3-1.2
								c2,0,3.5,1.5,3.5,3.6v0c0,2.2-1.6,3.8-3.9,3.8C555.1,90.8,553.6,89.5,553.5,87.7z"/>
							<path class="st7" d="M568.2,81.2v-0.1h-5.7v-1.4h7.4v1.5l-4.7,9.4h-1.8L568.2,81.2z"/>
							<path class="st7" d="M571.5,82.5L571.5,82.5c0-1.8,0.9-3,2.4-3c1.5,0,2.4,1.1,2.4,3v0c0,1.8-0.9,3-2.4,3
								C572.4,85.5,571.5,84.3,571.5,82.5z M574.9,82.5L574.9,82.5c0-1.2-0.4-2-1.1-2s-1.1,0.7-1.1,2v0c0,1.2,0.4,2,1.1,2
								S574.9,83.7,574.9,82.5z M573.5,90.5l7.4-10.9h1.4l-7.4,10.9H573.5z M579.7,87.7L579.7,87.7c0-1.8,0.9-3,2.4-3
								c1.5,0,2.4,1.1,2.4,3v0c0,1.8-0.9,3-2.4,3C580.6,90.7,579.7,89.5,579.7,87.7z M583.1,87.7L583.1,87.7c0-1.3-0.4-2-1.1-2
								s-1.1,0.7-1.1,2v0c0,1.2,0.4,2,1.1,2S583.1,88.9,583.1,87.7z"/>
						</g>
					</g>
					<g id="Group_46">
						<g id="Group_40">
							<path id="Path_8" class="st7" d="M502,80.9c-3.9-3.9-10.2-3.9-14.1,0c-0.3,0.3-0.3,0.8,0,1.1c0.3,0.3,0.8,0.3,1.1,0
								c3.3-3.3,8.6-3.3,11.9,0c0.3,0.3,0.8,0.3,1.1,0C502.3,81.7,502.3,81.2,502,80.9L502,80.9z"/>
							<path id="Path_9" class="st7" d="M494.9,81.2c-1.8,0-3.5,0.7-4.8,2c-0.3,0.3-0.3,0.8,0,1.1s0.8,0.3,1.1,0c2-2,5.3-2,7.3,0
								l0,0c0.3,0.3,0.8,0.3,1.1,0s0.3-0.8,0-1.1C498.4,82,496.7,81.2,494.9,81.2z"/>
							<path id="Path_10" class="st7" d="M492.2,85.6c-0.3,0.3-0.3,0.8,0,1.1s0.8,0.3,1.1,0c0,0,0,0,0,0c0.9-0.8,2.2-0.8,3.1,0
								c0.3,0.3,0.8,0.3,1.1,0c0.3-0.3,0.3-0.8,0-1.1C496.1,84.1,493.7,84.1,492.2,85.6L492.2,85.6z"/>
							<path id="Path_11" class="st7" d="M494.9,87.6c-0.6,0-1,0.4-1,1c0,0.6,0.5,1,1,1s1-0.4,1-1c0-0.3-0.1-0.5-0.3-0.7
								C495.4,87.7,495.2,87.6,494.9,87.6L494.9,87.6z"/>
						</g>
						<g id="Group_43">
							<g id="Group_41">
								<line id="Line_4" class="st8" x1="499.4" y1="86.9" x2="499.4" y2="90.9"/>
								<path id="Path_12" class="st8" d="M500.9,89.4l-1.5,1.5l-1.5-1.5"/>
							</g>
							<g id="Group_42">
								<line id="Line_5" class="st8" x1="503.4" y1="89.9" x2="503.4" y2="85.9"/>
								<path id="Path_13" class="st8" d="M501.9,87.4l1.5-1.5l1.5,1.5"/>
							</g>
						</g>
						<g id="Group_44">
							<line id="Line_6" class="st9" x1="547.1" y1="79.3" x2="547.1" y2="90.2"/>
							<line id="Line_7" class="st9" x1="543.9" y1="82.6" x2="543.9" y2="90.2"/>
							<line id="Line_8" class="st9" x1="540.8" y1="85.7" x2="540.8" y2="90.2"/>
							<line id="Line_9" class="st9" x1="537.6" y1="88.6" x2="537.6" y2="90.2"/>
						</g>
						<g id="Group_45">
							<path id="Path_14" class="st10" d="M593.2,79.6h-0.5v-0.5c0-0.6-0.5-1.1-1.1-1.1h-1.8c-0.6,0-1.1,0.5-1.1,1.1l0,0v0.5h-0.5
								c-0.9,0-1.6,0.7-1.6,1.6l0,0v8.5c0,0.9,0.7,1.6,1.6,1.6h5.1c0.9,0,1.6-0.7,1.6-1.6l0,0v-8.5
								C594.8,80.3,594.1,79.6,593.2,79.6L593.2,79.6L593.2,79.6z"/>
							<path id="Path_15" class="st7" d="M586.5,85.4v4.2c0,0.9,0.7,1.6,1.6,1.6h5.1c0.9,0,1.6-0.7,1.6-1.6l0,0v-4.2H586.5
								L586.5,85.4z"/>
						</g>
					</g>
					<g id="Time">
						<g id="_1:20-3">
							<g class="st6">
								<path class="st7" d="M516.2,88.4h-5.3v-1.4c1.4-2.5,3-5,4.5-7.3h2.4v7.3h1.5v1.4h-1.5v2.2h-1.6V88.4z M516.3,87v-5.9h-0.1
									c-1.2,1.8-2.5,3.9-3.6,5.8V87H516.3z"/>
								<path class="st7" d="M520.9,85.1L520.9,85.1c0-3.5,2-5.7,5-5.7c2.5,0,4.2,1.4,4.6,3.5l0,0.1h-1.7l0-0.1
									c-0.4-1.3-1.4-2-2.9-2c-2,0-3.3,1.6-3.3,4.2v0c0,2.6,1.3,4.2,3.3,4.2c1.8,0,3-1.1,3-2.8v-0.2h-2.8v-1.4h4.5v1.3
									c0,2.8-1.8,4.5-4.7,4.5C522.8,90.8,520.9,88.6,520.9,85.1z"/>
							</g>
						</g>
					</g>
				</g>
				<g id="Group_58">
					<g id="Date">
						<g class="st6">
							<path class="st7" d="M328.5,366.5h9.4v1.7h-7.6v4.1h6.7v1.6h-6.7v6.2h-1.8V366.5z"/>
							<path class="st7" d="M339.8,370.2h1.6v1.7c0.1-0.3,0.4-0.7,1-1.2c0.5-0.5,1.1-0.7,1.8-0.7c0,0,0.1,0,0.2,0c0.1,0,0.2,0,0.4,0
								v1.8c-0.1,0-0.2,0-0.3,0c-0.1,0-0.2,0-0.3,0c-0.8,0-1.5,0.3-1.9,0.8s-0.7,1.2-0.7,1.9v5.7h-1.7V370.2z"/>
							<path class="st7" d="M346.1,366.5h1.7v1.9h-1.7V366.5z M346.1,370.3h1.7v9.9h-1.7V370.3z"/>
							<path class="st7" d="M350.6,382.1c0.4-0.1,0.7-0.4,0.9-0.9c0.1-0.3,0.1-0.5,0.1-0.8c0,0,0-0.1,0-0.1c0,0,0-0.1,0-0.1h-1v-2h2
								v1.9c0,0.7-0.1,1.4-0.4,1.9c-0.3,0.6-0.8,0.9-1.5,1V382.1z"/>
							<path class="st7" d="M361.1,379.2c-0.7-0.9-1.1-1.9-1.1-3.1h1.7c0.1,0.9,0.2,1.5,0.5,1.9c0.4,0.7,1.2,1,2.3,1
								c0.9,0,1.6-0.2,2.1-0.7s0.8-1.1,0.8-1.8c0-0.9-0.3-1.6-0.8-1.9c-0.6-0.4-1.3-0.5-2.3-0.5c-0.1,0-0.2,0-0.3,0
								c-0.1,0-0.2,0-0.3,0v-1.5c0.2,0,0.3,0,0.4,0c0.1,0,0.2,0,0.4,0c0.6,0,1.1-0.1,1.5-0.3c0.7-0.3,1.1-1,1.1-1.9
								c0-0.7-0.2-1.2-0.7-1.5c-0.5-0.4-1-0.5-1.6-0.5c-1.1,0-1.9,0.4-2.3,1.1c-0.2,0.4-0.4,1-0.4,1.7h-1.7c0-1,0.2-1.8,0.6-2.5
								c0.7-1.2,1.9-1.9,3.6-1.9c1.4,0,2.4,0.3,3.1,0.9s1.1,1.5,1.1,2.6c0,0.8-0.2,1.5-0.7,2c-0.3,0.3-0.6,0.6-1.1,0.7
								c0.7,0.2,1.2,0.6,1.6,1.1c0.4,0.5,0.6,1.2,0.6,2c0,1.3-0.4,2.3-1.3,3.1c-0.8,0.8-2,1.2-3.6,1.2
								C363,380.5,361.8,380.1,361.1,379.2z"/>
							<path class="st7" d="M379,369c0.6,1.1,0.9,2.6,0.9,4.5c0,1.8-0.3,3.3-0.8,4.5c-0.8,1.7-2.1,2.5-3.8,2.5
								c-1.6,0-2.8-0.7-3.6-2.1c-0.6-1.2-1-2.7-1-4.7c0-1.5,0.2-2.8,0.6-3.9c0.7-2,2-3,4-3C377,366.9,378.3,367.6,379,369z
								 M377.4,377.8c0.5-0.8,0.8-2.2,0.8-4.3c0-1.5-0.2-2.7-0.6-3.7s-1.1-1.5-2.2-1.5c-1,0-1.7,0.5-2.2,1.4
								c-0.5,0.9-0.7,2.3-0.7,4.1c0,1.4,0.1,2.4,0.4,3.3c0.4,1.3,1.2,1.9,2.3,1.9C376.2,379,376.8,378.6,377.4,377.8z"/>
							<path class="st7" d="M388.7,375.8c0,0.8,0.2,1.4,0.5,1.9c0.6,0.9,1.6,1.4,3.1,1.4c0.7,0,1.3-0.1,1.8-0.3
								c1.1-0.4,1.6-1.1,1.6-2.1c0-0.7-0.2-1.3-0.7-1.6c-0.5-0.3-1.2-0.6-2.1-0.8l-1.8-0.4c-1.2-0.3-2-0.6-2.5-0.9
								c-0.8-0.6-1.3-1.4-1.3-2.5c0-1.2,0.4-2.2,1.2-3c0.8-0.8,2-1.2,3.5-1.2c1.4,0,2.6,0.3,3.5,1c1,0.7,1.5,1.8,1.5,3.3h-1.7
								c-0.1-0.7-0.3-1.3-0.6-1.7c-0.5-0.7-1.5-1.1-2.7-1.1c-1,0-1.8,0.2-2.2,0.7c-0.5,0.5-0.7,1-0.7,1.6c0,0.7,0.3,1.2,0.8,1.5
								c0.4,0.2,1.2,0.4,2.4,0.7l1.9,0.4c0.9,0.2,1.6,0.5,2.1,0.9c0.8,0.6,1.3,1.6,1.3,2.8c0,1.5-0.5,2.6-1.6,3.2
								c-1.1,0.6-2.3,1-3.7,1c-1.7,0-2.9-0.4-3.9-1.3c-0.9-0.9-1.4-2-1.4-3.5H388.7z"/>
							<path class="st7" d="M406,370.5c0.7,0.3,1.2,0.8,1.5,1.3c0.3,0.5,0.6,1.1,0.7,1.8c0.1,0.5,0.1,1.2,0.1,2.2h-7.2
								c0,1,0.3,1.8,0.7,2.4c0.4,0.6,1.1,0.9,2.1,0.9c0.9,0,1.6-0.3,2.1-0.9c0.3-0.3,0.5-0.7,0.6-1.2h1.6c0,0.4-0.2,0.8-0.4,1.2
								c-0.2,0.4-0.5,0.8-0.8,1.1c-0.5,0.5-1.1,0.8-1.9,1c-0.4,0.1-0.8,0.1-1.4,0.1c-1.2,0-2.3-0.5-3.1-1.3s-1.3-2.2-1.3-3.8
								c0-1.6,0.4-2.9,1.3-3.9c0.9-1,2-1.5,3.4-1.5C404.7,370,405.4,370.2,406,370.5z M406.6,374.4c-0.1-0.7-0.2-1.3-0.5-1.7
								c-0.5-0.8-1.2-1.2-2.3-1.2c-0.8,0-1.4,0.3-1.9,0.8c-0.5,0.6-0.8,1.3-0.8,2.1H406.6z"/>
							<path class="st7" d="M410.3,370.3h1.6v1.3c0.3-0.5,0.7-0.8,1.1-1c0.6-0.4,1.2-0.6,2-0.6c1.1,0,2.1,0.4,2.9,1.3
								s1.2,2.1,1.2,3.7c0,2.2-0.6,3.7-1.7,4.6c-0.7,0.6-1.6,0.9-2.5,0.9c-0.8,0-1.4-0.2-1.9-0.5c-0.3-0.2-0.6-0.5-1-1v5.1h-1.7
								V370.3z M416.6,378c0.5-0.7,0.8-1.6,0.8-2.9c0-0.8-0.1-1.5-0.3-2c-0.4-1.1-1.2-1.6-2.4-1.6c-1.2,0-2,0.6-2.4,1.7
								c-0.2,0.6-0.3,1.4-0.3,2.4c0,0.8,0.1,1.4,0.3,2c0.4,1,1.2,1.5,2.4,1.5C415.4,379,416.1,378.7,416.6,378z"/>
							<path class="st7" d="M421.4,367.4h1.7v2.8h1.6v1.4H423v6.5c0,0.3,0.1,0.6,0.4,0.7c0.1,0.1,0.3,0.1,0.6,0.1c0.1,0,0.2,0,0.3,0
								s0.2,0,0.3,0v1.3c-0.2,0.1-0.4,0.1-0.6,0.1c-0.2,0-0.4,0-0.7,0c-0.8,0-1.3-0.2-1.6-0.6s-0.4-0.9-0.4-1.6v-6.6H420v-1.4h1.3
								V367.4z"/>
							<path class="st7" d="M432.4,370.5c0.7,0.3,1.2,0.8,1.5,1.3c0.3,0.5,0.6,1.1,0.7,1.8c0.1,0.5,0.1,1.2,0.1,2.2h-7.2
								c0,1,0.3,1.8,0.7,2.4c0.4,0.6,1.1,0.9,2.1,0.9c0.9,0,1.6-0.3,2.1-0.9c0.3-0.3,0.5-0.7,0.6-1.2h1.6c0,0.4-0.2,0.8-0.4,1.2
								c-0.2,0.4-0.5,0.8-0.8,1.1c-0.5,0.5-1.1,0.8-1.9,1c-0.4,0.1-0.8,0.1-1.4,0.1c-1.2,0-2.3-0.5-3.1-1.3
								c-0.9-0.9-1.3-2.2-1.3-3.8c0-1.6,0.4-2.9,1.3-3.9c0.9-1,2-1.5,3.4-1.5C431.1,370,431.8,370.2,432.4,370.5z M433,374.4
								c-0.1-0.7-0.2-1.3-0.5-1.7c-0.5-0.8-1.2-1.2-2.3-1.2c-0.8,0-1.4,0.3-1.9,0.8c-0.5,0.6-0.8,1.3-0.8,2.1H433z"/>
							<path class="st7" d="M436.9,370.2h1.7v1.4c0.4-0.5,0.8-0.8,1.1-1.1c0.5-0.4,1.2-0.6,1.9-0.6c0.8,0,1.4,0.2,1.9,0.6
								c0.3,0.2,0.5,0.6,0.7,1c0.4-0.5,0.8-0.9,1.3-1.2c0.5-0.3,1.1-0.4,1.7-0.4c1.3,0,2.2,0.5,2.7,1.4c0.3,0.5,0.4,1.2,0.4,2.1v6.6
								h-1.7v-6.9c0-0.7-0.2-1.1-0.5-1.4c-0.3-0.2-0.7-0.4-1.2-0.4c-0.7,0-1.2,0.2-1.7,0.7c-0.5,0.4-0.7,1.2-0.7,2.2v5.8h-1.7v-6.5
								c0-0.7-0.1-1.2-0.2-1.5c-0.3-0.5-0.7-0.7-1.4-0.7c-0.6,0-1.2,0.2-1.7,0.7c-0.5,0.5-0.8,1.4-0.8,2.7v5.3h-1.7V370.2z"/>
							<path class="st7" d="M452.5,366.5h1.6v4.9c0.4-0.5,0.8-0.8,1.3-1.1c0.5-0.3,1.1-0.4,1.7-0.4c1.2,0,2.2,0.4,3,1.3
								c0.8,0.8,1.2,2.1,1.2,3.8c0,1.6-0.4,2.9-1.1,3.9c-0.8,1-1.8,1.6-3.2,1.6c-0.8,0-1.4-0.2-1.9-0.5c-0.3-0.2-0.6-0.6-1-1v1.3
								h-1.5V366.5z M458.9,377.9c0.4-0.7,0.7-1.7,0.7-2.8c0-1-0.2-1.9-0.7-2.6c-0.5-0.7-1.1-1-2-1c-0.8,0-1.4,0.3-2,0.8
								c-0.6,0.6-0.9,1.5-0.9,2.8c0,0.9,0.1,1.7,0.4,2.3c0.4,1.1,1.3,1.6,2.5,1.6C457.8,379,458.5,378.6,458.9,377.9z"/>
							<path class="st7" d="M469.4,370.5c0.7,0.3,1.2,0.8,1.5,1.3c0.3,0.5,0.6,1.1,0.7,1.8c0.1,0.5,0.1,1.2,0.1,2.2h-7.2
								c0,1,0.3,1.8,0.7,2.4c0.4,0.6,1.1,0.9,2.1,0.9c0.9,0,1.6-0.3,2.1-0.9c0.3-0.3,0.5-0.7,0.6-1.2h1.6c0,0.4-0.2,0.8-0.4,1.2
								c-0.2,0.4-0.5,0.8-0.8,1.1c-0.5,0.5-1.1,0.8-1.9,1c-0.4,0.1-0.8,0.1-1.4,0.1c-1.2,0-2.3-0.5-3.1-1.3
								c-0.9-0.9-1.3-2.2-1.3-3.8c0-1.6,0.4-2.9,1.3-3.9c0.9-1,2-1.5,3.4-1.5C468,370,468.7,370.2,469.4,370.5z M470,374.4
								c-0.1-0.7-0.2-1.3-0.5-1.7c-0.5-0.8-1.2-1.2-2.3-1.2c-0.8,0-1.4,0.3-1.9,0.8c-0.5,0.6-0.8,1.3-0.8,2.1H470z"/>
							<path class="st7" d="M473.9,370.2h1.6v1.7c0.1-0.3,0.4-0.7,1-1.2c0.5-0.5,1.1-0.7,1.8-0.7c0,0,0.1,0,0.2,0c0.1,0,0.2,0,0.4,0
								v1.8c-0.1,0-0.2,0-0.3,0c-0.1,0-0.2,0-0.3,0c-0.8,0-1.5,0.3-1.9,0.8s-0.7,1.2-0.7,1.9v5.7h-1.7V370.2z"/>
						</g>
					</g>
					<g id="Time-2">
						<g class="st6">
							<path class="st7" d="M337.9,320.2c0.2,4.3,1.9,7.2,4.9,8.8c1.6,0.9,3.3,1.3,5.3,1.3c3.7,0,6.8-1.5,9.4-4.6s4.4-9.3,5.5-18.7
								c-1.7,2.7-3.8,4.6-6.4,5.7c-2.5,1.1-5.3,1.7-8.2,1.7c-5.9,0-10.6-1.8-14-5.5c-3.4-3.7-5.2-8.4-5.2-14.2
								c0-5.6,1.7-10.5,5.1-14.7c3.4-4.2,8.4-6.3,15.1-6.3c8.9,0,15.1,4,18.5,12.1c1.9,4.4,2.8,10,2.8,16.6c0,7.5-1.1,14.2-3.4,20
								c-3.7,9.7-10.1,14.5-19,14.5c-6,0-10.6-1.6-13.7-4.7s-4.7-7.1-4.7-11.8H337.9z M358,304.5c2.5-2,3.8-5.5,3.8-10.6
								c0-4.5-1.1-7.9-3.4-10.1c-2.3-2.2-5.2-3.3-8.7-3.3c-3.8,0-6.8,1.3-9,3.8c-2.2,2.5-3.3,5.9-3.3,10.1c0,4,1,7.2,2.9,9.5
								c1.9,2.4,5,3.5,9.3,3.5C352.7,307.6,355.4,306.6,358,304.5z"/>
							<path class="st7" d="M380.4,289.7h9v9.3h-9V289.7z M380.4,325.7h9v9.3h-9V325.7z"/>
							<path class="st7" d="M419.8,335v-15h-26.9v-7.5l28.1-39h6.5v39.8h9v6.7h-9v15H419.8z M419.7,313.3v-27.9L400,313.3H419.7z"/>
							<path class="st7" d="M443.5,291.6v-5.9c5.6-0.5,9.5-1.5,11.7-2.7c2.2-1.3,3.8-4.3,4.9-9h6.1V335H458v-43.5H443.5z"/>
						</g>
					</g>
					<path id="Path_20" class="st7" d="M390,422.5c0-0.4,0.1-0.7,0.1-1.1c0-0.4,0-0.7-0.1-1.1l2.5-1.9c-0.5-1.6-1.3-3-2.5-4.2
						l-2.9,1.2c-0.6-0.5-1.2-0.8-1.9-1.1l-0.4-3.1c-0.8-0.2-1.6-0.3-2.5-0.3c-0.8,0-1.6,0.1-2.5,0.3l-0.4,3.1
						c-0.7,0.3-1.3,0.6-1.9,1.1l-2.9-1.2c-1.1,1.2-2,2.6-2.5,4.2l2.5,1.9c0,0.4-0.1,0.7-0.1,1.1c0,0.4,0,0.7,0.1,1.1l-2.5,1.9
						c0.5,1.6,1.3,3,2.5,4.2l2.9-1.2c0.6,0.5,1.2,0.8,1.9,1.1l0.4,3.1c0.8,0.2,1.6,0.3,2.5,0.3c0.8,0,1.6-0.1,2.5-0.3l0.4-3.1
						c0.7-0.3,1.3-0.6,1.9-1.1l2.9,1.2c1.1-1.2,2-2.6,2.5-4.2L390,422.5z M382.5,424.8c-1.9,0-3.4-1.5-3.4-3.4s1.5-3.4,3.4-3.4
						s3.4,1.5,3.4,3.4S384.4,424.8,382.5,424.8z"/>
					<path id="Path_21" class="st7" d="M421.1,422.7L421.1,422.7c0-0.1,0-0.1,0-0.2c0-2.1-1.7-3.8-3.8-3.8l0,0
						c-0.5,0-1.1,0.1-1.6,0.4c-0.6-2.7-3-4.6-5.8-4.6c-3.3,0-5.9,2.7-5.9,5.9l0,0c0,0,0,0-0.1,0c-1.6,0-3,1.3-3,3s1.3,3,3,3h17.2
						c1,0,1.8-0.8,1.8-1.8C423,423.5,422.1,422.7,421.1,422.7L421.1,422.7z"/>
				</g>
				<path id="Path_22" class="st7" d="M405.5,128.5h-0.5v-4.7c0-4-3.2-7.2-7.2-7.2c-4,0-7.2,3.2-7.2,7.2v4.7H390
					c-1.8,0-3.3,1.5-3.3,3.3l0,0v12c0,1.8,1.5,3.3,3.3,3.3h15.5c1.8,0,3.3-1.5,3.3-3.3l0,0v-12C408.8,130,407.3,128.5,405.5,128.5
					L405.5,128.5z M399.1,137.7v3.3c0,0.7-0.6,1.3-1.3,1.3l0,0c-0.7,0-1.3-0.6-1.3-1.3l0,0v-3.3c-0.5-0.4-0.9-1-0.9-1.7
					c0-1.2,1-2.2,2.2-2.2l0,0c1.2,0,2.2,1,2.2,2.2l0,0C399.9,136.7,399.6,137.3,399.1,137.7z M402.6,128.5h-9.7v-4.7
					c0-2.7,2.2-4.8,4.8-4.8c2.7,0,4.8,2.2,4.8,4.8L402.6,128.5L402.6,128.5z"/>
				<g id="Clock">
					<g class="st6">
						<path class="st7" d="M343.1,943.3L343.1,943.3l1.5-0.1l0,0.1c0.1,1.2,1.3,1.9,3,1.9c1.6,0,2.8-0.8,2.8-2v0c0-1-0.7-1.6-2.3-2
							l-1.3-0.3c-2.3-0.5-3.4-1.6-3.4-3.3v0c0-1.9,1.7-3.3,4.1-3.3c2.3,0,4,1.4,4.1,3.1l0,0.1h-1.5l0-0.1c-0.2-1-1.1-1.8-2.7-1.8
							c-1.5,0-2.6,0.7-2.6,1.9v0c0,0.9,0.6,1.6,2.2,1.9l1.3,0.3c2.4,0.5,3.4,1.5,3.4,3.2v0c0,2.2-1.7,3.6-4.3,3.6
							C344.9,946.6,343.3,945.2,343.1,943.3z"/>
						<path class="st7" d="M353.3,937.6h1.4l1.7,7h0.1l2-7h1.3l2,7h0.1l1.7-7h1.4l-2.5,8.8h-1.4l-2-6.8h-0.1l-1.9,6.8h-1.4
							L353.3,937.6z"/>
						<path class="st7" d="M366.7,934.9c0-0.5,0.4-1,1-1s1,0.4,1,1c0,0.5-0.4,1-1,1S366.7,935.4,366.7,934.9z M367,937.6h1.4v8.8
							H367V937.6z"/>
						<path class="st7" d="M371,937.6h1.4v1.4h0.1c0.5-1,1.5-1.6,2.7-1.6c2.2,0,3.7,1.8,3.7,4.5v0c0,2.7-1.4,4.5-3.7,4.5
							c-1.2,0-2.2-0.6-2.7-1.5h-0.1v4.3H371V937.6z M377.5,941.9L377.5,941.9c0-2.1-0.9-3.3-2.5-3.3c-1.6,0-2.6,1.2-2.6,3.3v0
							c0,2,1,3.3,2.6,3.3C376.6,945.2,377.5,944,377.5,941.9z"/>
						<path class="st7" d="M380.7,942L380.7,942c0-2.7,1.5-4.6,3.9-4.6c2.4,0,3.8,1.8,3.8,4.4v0.6h-6.3c0,1.8,1,2.9,2.6,2.9
							c1.2,0,1.9-0.6,2.2-1.1l0-0.1h1.4l0,0.1c-0.3,1.2-1.6,2.4-3.6,2.4C382.3,946.5,380.7,944.7,380.7,942z M382.2,941.2h4.8
							c-0.1-1.7-1.1-2.5-2.4-2.5C383.4,938.7,382.4,939.5,382.2,941.2z"/>
					</g>
					<g class="st6">
						<path class="st7" d="M394.9,944v-5.3h-1.4v-1.2h1.4v-2.3h1.5v2.3h1.9v1.2h-1.9v5c0,1,0.4,1.4,1.3,1.4c0.3,0,0.4,0,0.6,0v1.2
							c-0.3,0-0.5,0.1-0.8,0.1C395.7,946.4,394.9,945.7,394.9,944z"/>
					</g>
					<g class="st6">
						<path class="st7" d="M399.7,941.9L399.7,941.9c0-2.8,1.5-4.5,4-4.5s4,1.7,4,4.5v0c0,2.8-1.5,4.5-4,4.5
							S399.7,944.7,399.7,941.9z M406.3,941.9L406.3,941.9c0-2.1-0.9-3.3-2.6-3.3s-2.6,1.2-2.6,3.3v0c0,2.1,0.9,3.3,2.6,3.3
							S406.3,944,406.3,941.9z"/>
						<path class="st7" d="M414.5,943.2v-5.7h1.4v5.3c0,1.6,0.6,2.3,2,2.3c1.5,0,2.4-0.9,2.4-2.5v-5.2h1.4v8.8h-1.4V945h-0.1
							c-0.4,0.9-1.3,1.5-2.6,1.5C415.5,946.5,414.5,945.3,414.5,943.2z"/>
						<path class="st7" d="M424.3,937.6h1.4v1.3h0.1c0.4-0.9,1.3-1.5,2.5-1.5c2,0,3.1,1.2,3.1,3.2v5.7H430V941c0-1.6-0.6-2.3-2-2.3
							c-1.4,0-2.3,0.9-2.3,2.5v5.2h-1.4V937.6z"/>
						<path class="st7" d="M434.1,934.1h1.4v12.2h-1.4V934.1z"/>
						<path class="st7" d="M437.8,941.9L437.8,941.9c0-2.8,1.5-4.5,4-4.5s4,1.7,4,4.5v0c0,2.8-1.5,4.5-4,4.5
							S437.8,944.7,437.8,941.9z M444.4,941.9L444.4,941.9c0-2.1-0.9-3.3-2.6-3.3s-2.6,1.2-2.6,3.3v0c0,2.1,0.9,3.3,2.6,3.3
							S444.4,944,444.4,941.9z"/>
						<path class="st7" d="M447.6,941.9L447.6,941.9c0-2.7,1.6-4.5,4-4.5c2.1,0,3.4,1.2,3.7,2.8l0,0h-1.4l0,0
							c-0.2-0.9-1-1.6-2.3-1.6c-1.6,0-2.6,1.3-2.6,3.2v0c0,2,1,3.3,2.6,3.3c1.2,0,1.9-0.5,2.2-1.5l0,0l1.4,0l0,0.1
							c-0.4,1.6-1.5,2.7-3.6,2.7C449.1,946.5,447.6,944.7,447.6,941.9z"/>
						<path class="st7" d="M457.4,934.1h1.4v7.3h0.1l3.8-3.8h1.7l-3.8,3.7l4.1,5.1h-1.8l-3.3-4.1l-0.8,0.8v3.3h-1.4V934.1z"/>
					</g>
				</g>
				<g id="Group_62">
					<g id="Group_60">
						<g id="Group_59">
							<path id="Rectangle_33" class="st11" d="M222.7,953.4h11.4c9,0,16.4,7.3,16.4,16.4v11.4c0,9-7.3,16.4-16.4,16.4h-11.4
								c-9,0-16.4-7.3-16.4-16.4v-11.4C206.3,960.8,213.6,953.4,222.7,953.4z"/>
							<path id="Path_23" class="st7" d="M230.7,980.2h-2.8c-1.2,0-2.2-1-2.2-2.2l0,0v-4.8c0-1.2,1-2.2,2.2-2.2h2.8
								c1.9,0,2.9-1.7,2.9-3.9s-0.9-3.9-2.9-3.9h-0.4c-5.2,0-9.5,4.2-9.5,9.5v5.8c0,5.2,4.2,9.5,9.5,9.5h0.4c1.9,0,2.9-1.7,2.9-3.9
								S232.6,980.2,230.7,980.2L230.7,980.2z"/>
						</g>
					</g>
					<g id="Group_61">
						<path id="Rectangle_34" class="st11" d="M562.1,953.4h11.4c9,0,16.4,7.3,16.4,16.4v11.4c0,9-7.3,16.4-16.4,16.4h-11.4
							c-9,0-16.4-7.3-16.4-16.4v-11.4C545.8,960.8,553.1,953.4,562.1,953.4z"/>
						<path id="Path_24" class="st7" d="M576.2,965.5h-16.8c-2.6,0-4.7,2.1-4.7,4.7l0,0v10.7c0,2.6,2.1,4.7,4.7,4.7h16.8
							c2.6,0,4.7-2.1,4.7-4.7l0,0v-10.7C580.9,967.6,578.8,965.5,576.2,965.5L576.2,965.5z M567.8,980.2c-2.6,0-4.7-2.1-4.7-4.7
							s2.1-4.7,4.7-4.7s4.7,2.1,4.7,4.7l0,0C572.5,978.1,570.4,980.2,567.8,980.2L567.8,980.2L567.8,980.2z M575.4,972.9
							c-1.3,0-2.4-1.1-2.4-2.4s1.1-2.4,2.4-2.4s2.4,1.1,2.4,2.4S576.7,972.9,575.4,972.9L575.4,972.9z"/>
					</g>
				</g>
			</g>
		</g>
	</g>
</g>
</svg>
