<?xml version="1.0" encoding="UTF-8"?><svg id="Layer_1" xmlns="http://www.w3.org/2000/svg" viewBox="0 0 800 1080"><defs><style>.cls-1{fill:#f9f6f6;}.cls-2{fill:#b5b5b4;}.cls-3{fill:#a19792;}.cls-4{fill:#181616;}.cls-5{fill:#1b363b;}.cls-6{fill:#898886;}.cls-7{fill:#212121;}.cls-7,.cls-8,.cls-9{fill-rule:evenodd;}.cls-8{fill:#a6a5a0;}</style></defs><g id="Layer_2"><path class="cls-9" d="m636.27,291.99v41.64c0,.62.25,1.23.7,1.67.44.44,1.04.69,1.67.69s1.23-.25,1.67-.69c.34-.35.57-.79.61-1.29l.08-.39v-41.64c0-.53-.18-1.03-.53-1.42l-.16-.25c-.45-.45-1.05-.7-1.67-.7s-1.24.25-1.67.7c-.45.44-.7,1.04-.7,1.67h0Z"/><path class="cls-9" d="m636.27,232.53v40.69c0,1.31,1.06,2.37,2.37,2.37.93,0,1.74-.53,2.1-1.32.18-.31.26-.66.26-1.04v-40.69c0-.38-.09-.74-.26-1.04-.37-.79-1.17-1.33-2.1-1.33-1.31,0-2.37,1.06-2.37,2.37h0Z"/><path class="cls-9" d="m636.27,187.97v17.98c0,1.31,1.06,2.37,2.37,2.37.79,0,1.48-.38,1.88-1,.32-.37.48-.84.48-1.37v-17.98c0-.52-.17-1.01-.48-1.37-.39-.61-1.1-1.01-1.88-1.01-1.31,0-2.37,1.06-2.37,2.37h0Z"/><path class="cls-9" d="m158.99,223.07v122.09c0,.9.36,1.7.97,2.28.57.56,1.35.9,2.21.9,1.76,0,3.18-1.42,3.18-3.18v-122.09c0-1.76-1.42-3.18-3.18-3.18-.86,0-1.64.34-2.21.9-.6.58-.97,1.39-.97,2.28Z"/><path class="cls-9" d="m158.99,415.81v56.77c0,.9.36,1.7.97,2.28.57.56,1.35.9,2.21.9,1.76,0,3.18-1.42,3.18-3.18v-56.77c0-1.76-1.42-3.18-3.18-3.18-.86,0-1.64.34-2.21.9-.6.58-.97,1.39-.97,2.28Z"/><path class="cls-8" d="m638.48,94.85c0-14.13-5.63-27.68-15.63-37.67-10.01-10-23.58-15.61-37.74-15.61H216.11c-14.15,0-27.73,5.61-37.74,15.6-10.01,9.99-15.63,23.55-15.63,37.67v890.32c0,14.13,5.63,27.68,15.63,37.67,10.01,9.99,23.59,15.6,37.74,15.6h369c14.15,0,27.73-5.61,37.74-15.6,10.01-9.99,15.63-23.55,15.63-37.67V94.85Z"/><path class="cls-8" d="m637.64,96.17c0-14.13-5.63-27.68-15.63-37.67-10.01-10-23.59-15.61-37.74-15.61H216.95c-14.15,0-27.73,5.61-37.74,15.6-10.01,9.99-15.63,23.55-15.63,37.67v888.06c0,14.13,5.63,27.68,15.63,37.67,10.01,9.99,23.59,15.6,37.74,15.6h367.32c14.15,0,27.73-5.61,37.74-15.6,10.01-9.99,15.63-23.55,15.63-37.67V96.17Z"/><path class="cls-9" d="m635.22,99.22c0-14.13-5.63-27.68-15.63-37.67-10.01-9.99-23.59-15.61-37.74-15.61H219.38c-14.15,0-27.73,5.61-37.74,15.61-10.01,9.99-15.63,23.55-15.63,37.67v881.96c0,14.13,5.63,27.68,15.63,37.67,10.01,9.99,23.59,15.6,37.74,15.6h362.47c14.15,0,27.73-5.61,37.74-15.6,10.01-9.99,15.63-23.55,15.63-37.67V99.22Z"/><path class="cls-9" d="m632.08,101.76c0-14.15-5.63-27.73-15.63-37.74-10.01-10.01-23.59-15.63-37.74-15.63H222.51c-14.15,0-27.73,5.63-37.74,15.63-10.01,10.01-15.63,23.59-15.63,37.74v875.68c0,14.15,5.63,27.73,15.63,37.74,10.01,10.01,23.59,15.63,37.74,15.63h356.2c14.15,0,27.73-5.63,37.74-15.63,10.01-10.01,15.63-23.59,15.63-37.74V101.76Z"/></g><path class="cls-7" d="m309.32,48.39h-86.81c-14.15,0-27.73,5.63-37.74,15.63-10.01,10.01-15.63,23.59-15.63,37.74v257.98s112.16-.26,112.16-.26c15.43-.04,27.92-12.55,27.92-27.98l.1-283.11Z"/><path class="cls-9" d="m306.22,56.12l-81.12.38c-11.96,0-23.43,4.75-31.89,13.21-8.46,8.46-13.21,19.93-13.21,31.89v245.95s102.54-.22,102.54-.22c13.04-.03,23.59-10.61,23.6-23.64l.08-267.57Z"/><circle class="cls-4" cx="243.28" cy="116.4" r="32.36"/><path class="cls-5" d="m243.28,127.51c-6.13,0-11.12-4.99-11.12-11.12s4.99-11.12,11.12-11.12,11.12,4.99,11.12,11.12-4.99,11.12-11.12,11.12Z"/><path class="cls-3" d="m244.09,78.79c-20.96,0-38.01,17.05-38.01,38.01s17.05,38.01,38.01,38.01,38.01-17.05,38.01-38.01-17.05-38.01-38.01-38.01Zm0,68.19c-16.67,0-30.18-13.51-30.18-30.18s13.51-30.18,30.18-30.18,30.18,13.51,30.18,30.18-13.51,30.18-30.18,30.18Z"/><path class="cls-2" d="m244.09,76.24c-20.96,0-38.01,17.05-38.01,38.01s17.05,38.01,38.01,38.01,38.01-17.05,38.01-38.01-17.05-38.01-38.01-38.01Zm0,68.19c-16.67,0-30.18-13.51-30.18-30.18s13.51-30.18,30.18-30.18,30.18,13.51,30.18,30.18-13.51,30.18-30.18,30.18Z"/><path class="cls-6" d="m244.09,77.99c-20.96,0-38.01,17.05-38.01,38.01s17.05,38.01,38.01,38.01,38.01-17.05,38.01-38.01-17.05-38.01-38.01-38.01Zm0,68.19c-16.67,0-30.18-13.51-30.18-30.18s13.51-30.18,30.18-30.18,30.18,13.51,30.18,30.18-13.51,30.18-30.18,30.18Z"/><circle class="cls-4" cx="243.28" cy="204.94" r="32.36"/><path class="cls-5" d="m243.28,216.06c-6.13,0-11.12-4.99-11.12-11.12s4.99-11.12,11.12-11.12,11.12,4.99,11.12,11.12-4.99,11.12-11.12,11.12Z"/><path class="cls-3" d="m244.09,167.33c-20.96,0-38.01,17.05-38.01,38.01s17.05,38.01,38.01,38.01,38.01-17.05,38.01-38.01-17.05-38.01-38.01-38.01Zm0,68.19c-16.67,0-30.18-13.51-30.18-30.18s13.51-30.18,30.18-30.18,30.18,13.51,30.18,30.18-13.51,30.18-30.18,30.18Z"/><path class="cls-2" d="m244.09,164.78c-20.96,0-38.01,17.05-38.01,38.01s17.05,38.01,38.01,38.01,38.01-17.05,38.01-38.01-17.05-38.01-38.01-38.01Zm0,68.19c-16.67,0-30.18-13.51-30.18-30.18s13.51-30.18,30.18-30.18,30.18,13.51,30.18,30.18-13.51,30.18-30.18,30.18Z"/><path class="cls-6" d="m244.09,166.54c-20.96,0-38.01,17.05-38.01,38.01s17.05,38.01,38.01,38.01,38.01-17.05,38.01-38.01-17.05-38.01-38.01-38.01Zm0,68.19c-16.67,0-30.18-13.51-30.18-30.18s13.51-30.18,30.18-30.18,30.18,13.51,30.18,30.18-13.51,30.18-30.18,30.18Z"/><circle class="cls-4" cx="243.28" cy="293.49" r="32.36"/><path class="cls-5" d="m243.28,304.6c-6.13,0-11.12-4.99-11.12-11.12s4.99-11.12,11.12-11.12,11.12,4.99,11.12,11.12-4.99,11.12-11.12,11.12Z"/><path class="cls-3" d="m244.09,255.88c-20.96,0-38.01,17.05-38.01,38.01s17.05,38.01,38.01,38.01,38.01-17.05,38.01-38.01-17.05-38.01-38.01-38.01Zm0,68.19c-16.67,0-30.18-13.51-30.18-30.18s13.51-30.18,30.18-30.18,30.18,13.51,30.18,30.18-13.51,30.18-30.18,30.18Z"/><path class="cls-2" d="m244.09,253.32c-20.96,0-38.01,17.05-38.01,38.01s17.05,38.01,38.01,38.01,38.01-17.05,38.01-38.01-17.05-38.01-38.01-38.01Zm0,68.19c-16.67,0-30.18-13.51-30.18-30.18s13.51-30.18,30.18-30.18,30.18,13.51,30.18,30.18-13.51,30.18-30.18,30.18Z"/><path class="cls-6" d="m244.09,255.08c-20.96,0-38.01,17.05-38.01,38.01s17.05,38.01,38.01,38.01,38.01-17.05,38.01-38.01-17.05-38.01-38.01-38.01Zm0,68.19c-16.67,0-30.18-13.51-30.18-30.18s13.51-30.18,30.18-30.18,30.18,13.51,30.18,30.18-13.51,30.18-30.18,30.18Z"/><path class="cls-1" d="m355.05,115.52c0,6.84-5.55,12.39-12.39,12.39s-12.39-5.55-12.39-12.39,5.55-12.39,12.39-12.39,12.39,5.55,12.39,12.39Z"/></svg>