<?xml version="1.0" encoding="UTF-8"?><svg xmlns="http://www.w3.org/2000/svg" xmlns:xlink="http://www.w3.org/1999/xlink" viewBox="0 0 800 1080"><defs><style>.cls-1,.cls-2{stroke-width:.77px;}.cls-1,.cls-2,.cls-3,.cls-4,.cls-5,.cls-6,.cls-7,.cls-8,.cls-9{fill:none;}.cls-1,.cls-2,.cls-3,.cls-4,.cls-9,.cls-10,.cls-11{stroke-miterlimit:10;}.cls-1,.cls-3,.cls-4,.cls-6,.cls-9,.cls-10,.cls-11{stroke:#fff;}.cls-1,.cls-3,.cls-7{stroke-linecap:round;}.cls-2{stroke:#a9a29a;}.cls-3{stroke-width:1.07px;}.cls-4,.cls-10{stroke-width:.55px;}.cls-12{clip-path:url(#clippath);}.cls-5,.cls-13,.cls-14,.cls-15,.cls-16,.cls-17,.cls-18,.cls-19,.cls-20,.cls-21,.cls-22,.cls-23,.cls-24,.cls-25,.cls-26,.cls-27,.cls-28,.cls-29,.cls-30,.cls-31,.cls-32,.cls-33,.cls-34,.cls-35,.cls-36,.cls-37,.cls-38,.cls-39,.cls-40,.cls-41,.cls-42,.cls-43,.cls-44,.cls-45,.cls-46,.cls-47,.cls-48,.cls-49,.cls-50,.cls-51,.cls-52,.cls-53,.cls-54,.cls-55,.cls-56,.cls-57,.cls-58,.cls-59,.cls-60,.cls-61,.cls-62,.cls-63,.cls-64,.cls-65,.cls-66,.cls-67,.cls-68,.cls-69,.cls-70,.cls-71,.cls-72,.cls-73,.cls-74,.cls-75,.cls-76,.cls-77,.cls-78,.cls-79,.cls-80,.cls-81,.cls-82,.cls-83,.cls-84,.cls-85,.cls-86,.cls-87,.cls-88,.cls-89,.cls-90,.cls-91,.cls-92,.cls-93,.cls-94,.cls-95,.cls-96,.cls-97{stroke-width:0px;}.cls-13{opacity:.24;}.cls-13,.cls-30,.cls-98{isolation:isolate;}.cls-99{mask:url(#mask);}.cls-14{fill:url(#linear-gradient);}.cls-15{fill:url(#radial-gradient);}.cls-16{opacity:.2;}.cls-16,.cls-25,.cls-29,.cls-10,.cls-86{fill:#fff;}.cls-17{fill:url(#linear-gradient-11);}.cls-18{fill:url(#linear-gradient-12);}.cls-19{fill:url(#linear-gradient-13);}.cls-20{fill:url(#linear-gradient-10);}.cls-21{fill:url(#linear-gradient-17);}.cls-22{fill:url(#linear-gradient-15);}.cls-23{fill:url(#linear-gradient-18);}.cls-24{fill:url(#linear-gradient-14);}.cls-6{stroke-width:.25px;}.cls-100{clip-path:url(#clippath-1);}.cls-101{clip-path:url(#clippath-3);}.cls-102{clip-path:url(#clippath-2);}.cls-103{mix-blend-mode:hard-light;opacity:.85;}.cls-104{filter:url(#drop-shadow-2);}.cls-7{stroke:#000;stroke-width:1.26px;}.cls-8{stroke:#a2248e;stroke-width:.46px;}.cls-25{opacity:.5;}.cls-9{stroke-width:.81px;}.cls-26{fill:url(#linear-gradient-16);}.cls-26,.cls-27,.cls-28,.cls-29{fill-rule:evenodd;}.cls-27{fill:#3c3c3c;}.cls-28{fill:#ff1414;}.cls-30{opacity:.12;}.cls-31{fill:url(#linear-gradient-4);}.cls-32{fill:url(#linear-gradient-2);}.cls-33{fill:url(#linear-gradient-3);}.cls-34{fill:url(#linear-gradient-8);}.cls-35{fill:url(#linear-gradient-9);}.cls-36{fill:url(#linear-gradient-7);}.cls-37{fill:url(#linear-gradient-5);}.cls-38{fill:url(#linear-gradient-6);}.cls-40{fill:#f7a61a;}.cls-41{fill:#f8f7f7;}.cls-42{fill:#5fa0ea;}.cls-43{fill:#60b7e3;}.cls-44{fill:#76357f;}.cls-45{fill:#76152b;}.cls-46{fill:#7a7b80;}.cls-47{fill:#2d2278;}.cls-48{fill:#58bc98;}.cls-49{fill:#646569;}.cls-50{fill:#38a5dd;}.cls-51{fill:#338fde;}.cls-52{fill:#5ac4f6;}.cls-53{fill:#3d9701;}.cls-54{fill:#3ea9e3;}.cls-55{fill:#177013;}.cls-56{fill:#3ca515;}.cls-57{fill:#40b454;}.cls-58{fill:#1e1e1e;}.cls-59{fill:#1f7788;}.cls-60{fill:#13386b;}.cls-61{fill:#c72d37;}.cls-62{fill:#c61f06;}.cls-63{fill:#d1f2ff;}.cls-64{fill:#d179a8;}.cls-65{fill:#dfdcd5;}.cls-66{fill:#d4d2c8;}.cls-67{fill:#bbbaba;}.cls-68{fill:#bd40de;}.cls-69{fill:#c0beb6;}.cls-70{fill:#afc902;}.cls-71{fill:#ae8203;}.cls-72{fill:#a9a29a;}.cls-73{fill:#b7e824;}.cls-74{fill:#8e7ac0;}.cls-75{fill:#333;}.cls-76{fill:#8bbe6c;}.cls-77{fill:#98da7b;}.cls-78{fill:#a2248e;}.cls-79{fill:#a09f9f;}.cls-80{fill:#86c8ec;}.cls-81{fill:#ff6355;}.cls-82{fill:#ff9000;}.cls-83{fill:#7d7d7d;}.cls-84{fill:#72cef9;}.cls-85{fill:#ffa122;}.cls-87{fill:#ffe21c;}.cls-88{fill:#e3e2e3;}.cls-89{fill:#e6534b;}.cls-90{fill:#efeae6;}.cls-91{fill:#ee8c03;}.cls-92{fill:#ffd134;}.cls-93{fill:#ffc7d0;}.cls-94{fill:#ed3900;}.cls-95{fill:#ee3900;}.cls-96{fill:#f68e00;}.cls-97{fill:#0179d5;}.cls-11{fill:#5b5b5b;stroke-width:.32px;}</style><linearGradient id="linear-gradient" x1="-4220.19" y1="-725.76" x2="-4220.19" y2="-762.68" gradientTransform="translate(-128.84 -3465.37) rotate(-90) scale(1 -1)" gradientUnits="userSpaceOnUse"><stop offset="0" stop-color="#abafb3"/><stop offset=".05" stop-color="#a6aaaf"/><stop offset=".3" stop-color="#939aa1"/><stop offset=".56" stop-color="#889198"/><stop offset=".84" stop-color="#858e96"/></linearGradient><radialGradient id="radial-gradient" cx="-33192.03" cy="-1525" fx="-33192.03" fy="-1525" r="9.57" gradientTransform="translate(-2013.72 -2613.56) rotate(-90) scale(.1 -1.74) skewX(-.02)" gradientUnits="userSpaceOnUse"><stop offset=".3" stop-color="#cccbcd"/><stop offset=".47" stop-color="#c4c3c5"/><stop offset=".73" stop-color="#aeaeb2"/><stop offset=".96" stop-color="#96989c"/></radialGradient><filter id="drop-shadow-2" filterUnits="userSpaceOnUse"><feOffset dx="6.13" dy="6.13"/><feGaussianBlur result="blur" stdDeviation="7.66"/><feFlood flood-color="#000" flood-opacity=".75"/><feComposite in2="blur" operator="in"/><feComposite in="SourceGraphic"/></filter><clipPath id="clippath"><path class="cls-5" d="m675.4,725.13l-2.61,21.26c-.31,2.52-.66,4.44-.8,4.29l-1.1-1.24c-.13-.15.02-2.3.32-4.81l2.6-21.2c.31-2.51.66-4.43.79-4.29l1.11,1.18c.13.14-.01,2.29-.32,4.81Z"/></clipPath><linearGradient id="linear-gradient-2" x1="4151.07" y1="1248.32" x2="4151.07" y2="1248.38" gradientTransform="translate(-2124687.3 639874.63) scale(512 -512)" gradientUnits="userSpaceOnUse"><stop offset="0" stop-color="#1e73ed"/><stop offset="1" stop-color="#19cef8"/></linearGradient><linearGradient id="linear-gradient-3" x1="4145.47" y1="1248.32" x2="4145.47" y2="1248.37" gradientTransform="translate(-1236354.82 639874.63) scale(298.4 -512)" gradientUnits="userSpaceOnUse"><stop offset="0" stop-color="#d6e4ef"/><stop offset="1" stop-color="#f2f1f1"/></linearGradient><linearGradient id="linear-gradient-4" x1="667.26" y1="743.86" x2="667.26" y2="712.67" gradientUnits="userSpaceOnUse"><stop offset="0" stop-color="#2cc7ff"/><stop offset="1" stop-color="#0042ff"/></linearGradient><linearGradient id="linear-gradient-5" x1="669.27" y1="746.14" x2="669.27" y2="714.82" gradientUnits="userSpaceOnUse"><stop offset="0" stop-color="#01ae1f"/><stop offset="1" stop-color="#67ff80"/></linearGradient><linearGradient id="linear-gradient-6" x1="671.28" y1="748.41" x2="671.28" y2="716.97" xlink:href="#linear-gradient-5"/><linearGradient id="linear-gradient-7" x1="663.73" y1="719.42" x2="663.73" y2="713.81" gradientUnits="userSpaceOnUse"><stop offset="0" stop-color="#00c000"/><stop offset="1" stop-color="#9bff86"/></linearGradient><linearGradient id="linear-gradient-8" x1="664.1" y1="719.82" x2="664.1" y2="714.2" gradientUnits="userSpaceOnUse"><stop offset="0" stop-color="#e99700"/><stop offset="1" stop-color="#ffe045"/></linearGradient><linearGradient id="linear-gradient-9" x1="664.47" y1="720.22" x2="664.47" y2="714.6" gradientUnits="userSpaceOnUse"><stop offset="0" stop-color="#d95c0d"/><stop offset="1" stop-color="#ffb522"/></linearGradient><linearGradient id="linear-gradient-10" x1="662.86" y1="726.58" x2="662.86" y2="720.97" gradientUnits="userSpaceOnUse"><stop offset="0" stop-color="#a80002"/><stop offset="1" stop-color="#ff5449"/></linearGradient><linearGradient id="linear-gradient-11" x1="663.23" y1="726.98" x2="663.23" y2="721.37" gradientUnits="userSpaceOnUse"><stop offset="0" stop-color="#686867"/><stop offset="1" stop-color="#daeff5"/></linearGradient><linearGradient id="linear-gradient-12" x1="663.59" y1="727.39" x2="663.59" y2="721.77" gradientUnits="userSpaceOnUse"><stop offset="0" stop-color="#e64354"/><stop offset="1" stop-color="#ff5449"/></linearGradient><linearGradient id="linear-gradient-13" x1="661.98" y1="733.74" x2="661.98" y2="728.13" gradientUnits="userSpaceOnUse"><stop offset="0" stop-color="#611b95"/><stop offset="1" stop-color="#d174f7"/></linearGradient><linearGradient id="linear-gradient-14" x1="662.35" y1="734.15" x2="662.35" y2="728.53" gradientUnits="userSpaceOnUse"><stop offset="0" stop-color="#1148d9"/><stop offset="1" stop-color="#36edff"/></linearGradient><linearGradient id="linear-gradient-15" x1="662.72" y1="734.56" x2="662.72" y2="728.94" gradientUnits="userSpaceOnUse"><stop offset="0" stop-color="#0a6"/><stop offset="1" stop-color="#74efec"/></linearGradient><linearGradient id="linear-gradient-16" x1="4153.89" y1="1248.89" x2="4153.89" y2="1248.86" gradientTransform="translate(-3687989.99 1109726.14) scale(888 -888)" gradientUnits="userSpaceOnUse"><stop offset="0" stop-color="#23d4f8"/><stop offset="1" stop-color="#1f63eb"/></linearGradient><mask id="mask" x="663.66" y="715.91" width="3.27" height="18.71" maskUnits="userSpaceOnUse"><g id="mask-3"><polygon id="path-2-2" class="cls-29" points="665.33 724.76 663.66 734.62 665.15 727.37 665.33 724.76 666.84 717.3 665.15 727.37 665.33 724.76"/></g></mask><linearGradient id="linear-gradient-17" x1="683.79" y1="762.52" x2="683.79" y2="730.34" gradientUnits="userSpaceOnUse"><stop offset="0" stop-color="#125ed9"/><stop offset="1" stop-color="#17b3f0"/></linearGradient><clipPath id="clippath-1"><polygon class="cls-5" points="701.51 348.46 704.01 349.36 712.05 283.44 709.51 282.82 701.51 348.46"/></clipPath><clipPath id="clippath-2"><polygon class="cls-5" points="701.51 348.46 704.01 349.36 712.05 283.44 709.51 282.82 701.51 348.46"/></clipPath><clipPath id="clippath-3"><polygon class="cls-5" points="701.51 348.46 704.01 349.36 712.05 283.44 709.51 282.82 701.51 348.46"/></clipPath><linearGradient id="linear-gradient-18" x1="686.96" y1="761.27" x2="686.96" y2="734.81" gradientUnits="userSpaceOnUse"><stop offset=".79" stop-color="#40a8e4"/><stop offset="1" stop-color="#0082ca"/></linearGradient></defs><g class="cls-98"><g id="Layer_14"><path class="cls-83" d="m691.24,836.83c23.29-18.57,20.06-157.83,83.23-605.44.78-5.54-3.51-13.25-10.03-14.49s-119.19,594.94-119.19,594.94"/><path class="cls-58" d="m691.24,836.83l-.21-1.23-44.12-63.8c-.77-1.06.55-.31-1.23-1.77,0,0,61.39-514.68,66.09-555.39.26-2.3,1.62-3.3,4.58-2.74,2.95.56,48.08,5.01,48.08,5.01,2.03.35,1.96,1.28,1.78,3.36l-71.03,601.68c-.91,8.01-2.93,13.34-3.95,14.89Z"/><polygon class="cls-86" points="650.02 739.81 712.8 224.6 762.6 232.56 694.22 791.33 650.02 739.81"/><path class="cls-39" d="m713.19,225.13l48.89,7.81-68.2,557.29-43.39-50.58,62.7-514.53m-.8-1.06l-62.86,515.88,45.01,52.47,68.56-560.24-50.71-8.1h0Z"/></g><g id="Layer_15"><path class="cls-83" d="m691.8,821.02l-.51,16.1c-.19,6.18-5.26,11.08-11.44,11.08H51.27c-32.93,0-24.99-27.89-24.99-27.89l7.42-2.03,611.56-6.43,46.55,9.17"/><path class="cls-67" d="m26.28,820.31c0,1.52,12.98,2.93,34.69,2.93h611.02c14.25,0,19.59-2.13,19.8-2.23l-43.34-66.97c-.14-.21-1.05-.4-2.56-.57-3.97-.46-12.1-.77-21.27-.77H163.35c-16.77,0-31.61.79-33.17,1.78l-103.9,65.82Z"/><path class="cls-27" d="m511.48,815.3l-.05-5.64c0-.26-2.93-.47-6.52-.47h-42.98c-3.58,0-6.55.21-6.6.47l-1.02,5.64c-.05.27,2.91.49,6.57.49h43.95c3.66,0,6.66-.22,6.65-.49h0Z"/><path class="cls-27" d="m446.08,815.26l1.43-6.86c.05-.26-2.82-.47-6.39-.47h-42.8c-3.57,0-6.57.21-6.67.47l-2.74,6.86c-.11.27,2.8.49,6.46.49h43.94c3.66,0,6.71-.22,6.76-.49h0Z"/><path class="cls-27" d="m381.1,815.34l3.91-9.21c.11-.25-2.7-.46-6.24-.46h-42.47c-3.54,0-6.56.21-6.72.46l-5.66,9.21c-.17.27,2.7.49,6.36.49h43.95c3.66,0,6.75-.22,6.87-.49h0Z"/><path class="cls-27" d="m327.56,795.58l14.35-22.23c.15-.22-2.64-.41-6.19-.41h-42.61c-3.55,0-6.61.18-6.81.41l-19.12,22.23c-.23.27,2.75.48,6.62.48h46.42c3.87,0,7.17-.22,7.34-.48h0Z"/><path class="cls-27" d="m348.56,762.35l2.46-3.81c.13-.2-2.5-.36-5.85-.36h-40.17c-3.35,0-6.23.16-6.4.36l-3.28,3.81c-.18.21,2.47.38,5.88.38h40.92c3.41,0,6.31-.17,6.44-.38h0Z"/><path class="cls-27" d="m323.6,802.2l3.21-4.98c.17-.27-2.86-.49-6.74-.49h-46.53c-3.88,0-7.24.22-7.47.49l-4.28,4.98c-.24.28,2.8.51,6.76.51h47.51c3.96,0,7.35-.23,7.53-.51h0Z"/><path class="cls-27" d="m319.37,808.03l2.71-4.2c.18-.28-2.92-.51-6.88-.51h-47.62c-3.97,0-7.41.23-7.66.51l-3.61,4.2c-.25.29,2.85.53,6.89.53h48.48c4.04,0,7.5-.24,7.68-.53h0Z"/><path class="cls-27" d="m343.05,771.97l2.64-4.1c.14-.22-2.59-.39-6.07-.39h-41.71c-3.48,0-6.47.18-6.65.39l-3.52,4.1c-.19.22,2.55.41,6.09.41h42.51c3.54,0,6.56-.18,6.7-.41h0Z"/><path class="cls-27" d="m345.97,766.61l1.95-3.02c.13-.21-2.55-.38-5.97-.38h-41c-3.42,0-6.36.17-6.54.38l-2.6,3.02c-.18.21,2.5.39,5.97.39h41.63c3.47,0,6.42-.17,6.56-.39h0Z"/><path class="cls-27" d="m315.42,815.34l3.58-5.57c.19-.29-2.97-.53-7.02-.53h-48.59c-4.05,0-7.57.24-7.82.53l-4.78,5.57c-.26.3,2.91.55,7.05.55h49.69c4.14,0,7.69-.25,7.88-.55h0Z"/><path class="cls-27" d="m577.13,815.24l-.74-3.27c-.06-.26-3.06-.48-6.67-.48h-43.32c-3.61,0-6.56.21-6.55.48l.12,3.27c0,.27,3.01.49,6.68.49h43.94c3.66,0,6.61-.22,6.55-.49h0Z"/><path class="cls-27" d="m576.56,810.39l-.72-3.16c-.06-.25-3.01-.46-6.56-.46h-42.63c-3.56,0-6.45.21-6.44.46l.12,3.16c.01.26,2.97.47,6.57.47h43.23c3.6,0,6.5-.21,6.44-.47h0Z"/><path class="cls-27" d="m575.74,805.72l-.7-3.06c-.06-.25-2.96-.45-6.46-.45h-41.96c-3.5,0-6.35.2-6.34.45l.12,3.06c0,.25,2.92.46,6.46.46h42.54c3.55,0,6.4-.21,6.34-.46h0Z"/><path class="cls-27" d="m573.87,801.16l-.67-2.97c-.05-.24-2.91-.43-6.36-.43h-41.31c-3.44,0-6.25.2-6.24.43l.11,2.97c0,.24,2.87.44,6.36.44h41.88c3.49,0,6.3-.2,6.24-.44h0Z"/><path class="cls-27" d="m573.37,796.76l-.66-2.88c-.05-.23-2.87-.42-6.26-.42h-40.69c-3.39,0-6.16.19-6.15.42l.11,2.88c0,.24,2.83.43,6.27.43h41.23c3.44,0,6.2-.19,6.15-.43h0Z"/><path class="cls-27" d="m572.65,792.5l-.64-2.79c-.05-.22-2.83-.41-6.17-.41h-40.08c-3.34,0-6.07.18-6.06.41l.11,2.79c0,.23,2.78.42,6.17.42h40.61c3.38,0,6.11-.19,6.06-.42h0Z"/><path class="cls-27" d="m571.39,788.3l-.62-2.71c-.05-.22-2.78-.4-6.07-.4h-39.48c-3.29,0-5.98.18-5.97.4l.1,2.71c0,.22,2.74.41,6.08.41h40c3.33,0,6.02-.18,5.97-.41h0Z"/><path class="cls-27" d="m570.95,784.28l-.61-2.63c-.05-.21-2.74-.38-5.98-.38h-38.91c-3.24,0-5.89.17-5.88.38l.11,2.63c0,.22,2.7.39,5.99.39h39.41c3.28,0,5.93-.18,5.88-.39h0Z"/><path class="cls-27" d="m570.29,780.39l-.59-2.56c-.05-.21-2.7-.37-5.9-.37h-38.36c-3.2,0-5.8.17-5.8.37l.1,2.56c0,.21,2.66.38,5.9.38h38.84c3.24,0,5.84-.17,5.8-.38h0Z"/><path class="cls-27" d="m568.71,776.58l-.57-2.48c-.05-.2-2.66-.36-5.81-.36h-37.81c-3.15,0-5.73.16-5.72.36l.09,2.48c0,.2,2.62.37,5.82.37h38.28c3.19,0,5.76-.17,5.72-.37h0Z"/><path class="cls-27" d="m568.33,772.9l-.56-2.42c-.04-.19-2.62-.35-5.73-.35h-37.29c-3.11,0-5.64.16-5.64.35l.1,2.42c0,.2,2.59.36,5.73.36h37.74c3.15,0,5.68-.16,5.64-.36h0Z"/><path class="cls-27" d="m567.73,769.32l-.54-2.35c-.04-.19-2.59-.34-5.65-.34h-36.77c-3.07,0-5.57.15-5.56.34l.1,2.35c0,.19,2.55.35,5.65.35h37.22c3.1,0,5.6-.16,5.56-.35h0Z"/><path class="cls-27" d="m566.7,765.83l-.53-2.29c-.04-.18-2.55-.33-5.57-.33h-36.28c-3.02,0-5.49.15-5.48.33l.09,2.29c0,.19,2.52.34,5.58.34h36.71c3.06,0,5.53-.15,5.48-.34h0Z"/><path class="cls-27" d="m565.86,762.44l-.9-3.94c-.04-.18-2.5-.32-5.46-.32h-35.54c-2.96,0-5.38.14-5.38.32l.16,3.94c0,.18,2.48.33,5.5.33h36.21c3.02,0,5.45-.15,5.41-.33h0Z"/><path class="cls-27" d="m511.01,808.04l-.02-3.11c0-.25-2.89-.45-6.41-.45h-42.3c-3.53,0-6.45.2-6.49.45l-.57,3.11c-.05.26,2.84.47,6.41.47h42.89c3.57,0,6.5-.21,6.49-.47h0Z"/><path class="cls-27" d="m511.49,803.43l-.03-3.02c0-.24-2.84-.44-6.31-.44h-41.64c-3.47,0-6.35.2-6.39.44l-.55,3.02c-.04.25,2.8.45,6.31.45h42.21c3.52,0,6.39-.2,6.39-.45h0Z"/><path class="cls-27" d="m511.7,798.97l-.03-2.93c0-.24-2.8-.43-6.22-.43h-41c-3.42,0-6.25.19-6.29.43l-.53,2.93c-.04.24,2.76.44,6.22.44h41.55c3.46,0,6.29-.2,6.29-.44h0Z"/><path class="cls-27" d="m510.85,794.62l-.02-2.84c0-.23-2.76-.41-6.12-.41h-40.38c-3.37,0-6.15.19-6.19.41l-.52,2.84c-.04.23,2.71.42,6.12.42h40.92c3.41,0,6.2-.19,6.2-.42h0Z"/><path class="cls-27" d="m511.31,790.41l-.02-2.75c0-.22-2.72-.4-6.03-.4h-39.78c-3.32,0-6.06.18-6.1.4l-.5,2.75c-.04.23,2.67.41,6.03.41h40.3c3.36,0,6.1-.19,6.1-.41h0Z"/><path class="cls-27" d="m511.51,786.34l-.03-2.67c0-.22-2.68-.39-5.94-.39h-39.2c-3.26,0-5.97.18-6.01.39l-.48,2.67c-.04.22,2.64.4,5.94.4h39.71c3.31,0,6.01-.18,6.01-.4h0Z"/><path class="cls-27" d="m511.19,782.33l-.02-2.59c0-.21-2.64-.38-5.86-.38h-38.63c-3.22,0-5.88.17-5.92.38l-.47,2.59c-.04.21,2.6.39,5.86.39h39.12c3.26,0,5.93-.17,5.93-.39h0Z"/><path class="cls-27" d="m511.62,778.48l-.03-2.52c0-.2-2.6-.37-5.77-.37h-38.08c-3.17,0-5.8.17-5.84.37l-.45,2.52c-.04.21,2.56.38,5.77.38h38.56c3.21,0,5.84-.17,5.84-.38h0Z"/><path class="cls-27" d="m511.81,774.75l-.03-2.45c0-.2-2.56-.36-5.7-.36h-37.55c-3.13,0-5.72.16-5.75.36l-.44,2.45c-.04.2,2.53.37,5.69.37h38.01c3.17,0,5.76-.16,5.76-.37h0Z"/><path class="cls-27" d="m511.08,771.1l-.02-2.38c0-.19-2.53-.35-5.61-.35h-37.03c-3.09,0-5.64.16-5.67.35l-.43,2.38c-.04.2,2.49.36,5.61.36h37.48c3.12,0,5.68-.16,5.68-.36h0Z"/><path class="cls-27" d="m511.5,767.57l-.02-2.32c0-.19-2.49-.34-5.54-.34h-36.52c-3.04,0-5.56.15-5.6.34l-.42,2.32c-.03.19,2.46.35,5.54.35h36.96c3.08,0,5.6-.16,5.6-.35h0Z"/><path class="cls-27" d="m511.69,764.14l-.03-2.26c0-.18-2.46-.33-5.46-.33h-36.04c-3,0-5.49.15-5.52.33l-.4,2.26c-.03.19,2.43.34,5.46.34h36.46c3.04,0,5.52-.15,5.52-.34h0Z"/><path class="cls-27" d="m448.93,806.91l.63-3.09c.05-.25-2.78-.45-6.29-.45h-42.13c-3.51,0-6.46.2-6.56.45l-1.22,3.09c-.1.25,2.73.46,6.29.46h42.72c3.56,0,6.52-.21,6.57-.46h0Z"/><path class="cls-27" d="m450.38,802.33l.61-2.99c.05-.24-2.74-.44-6.2-.44h-41.48c-3.46,0-6.36.2-6.46.44l-1.18,2.99c-.1.25,2.69.45,6.19.45h42.05c3.5,0,6.41-.2,6.46-.45h0Z"/><path class="cls-27" d="m451.53,797.91l.59-2.9c.05-.23-2.7-.42-6.11-.42h-40.85c-3.4,0-6.26.19-6.36.42l-1.14,2.9c-.09.24,2.65.43,6.1.43h41.4c3.45,0,6.32-.2,6.36-.43h0Z"/><path class="cls-27" d="m451.6,793.59l.58-2.82c.05-.23-2.66-.41-6.01-.41h-40.24c-3.35,0-6.17.19-6.26.41l-1.11,2.82c-.09.23,2.61.42,6.01.42h40.77c3.4,0,6.22-.19,6.26-.42h0Z"/><path class="cls-27" d="m452.94,789.41l.56-2.73c.04-.22-2.62-.4-5.92-.4h-39.64c-3.3,0-6.08.18-6.17.4l-1.08,2.73c-.09.22,2.58.41,5.93.41h40.16c3.35,0,6.12-.18,6.17-.41h0Z"/><path class="cls-27" d="m454.01,785.37l.54-2.65c.04-.21-2.59-.39-5.84-.39h-39.07c-3.26,0-5.99.17-6.07.39l-1.04,2.65c-.09.22,2.54.4,5.84.4h39.57c3.3,0,6.03-.18,6.08-.4h0Z"/><path class="cls-27" d="m454.53,781.39l.53-2.58c.04-.21-2.55-.38-5.76-.38h-38.5c-3.21,0-5.9.17-5.98.38l-1.01,2.58c-.08.21,2.51.39,5.75.39h38.98c3.25,0,5.94-.17,5.98-.39h0Z"/><path class="cls-27" d="m455.78,777.56l.51-2.5c.04-.2-2.51-.37-5.68-.37h-37.95c-3.16,0-5.81.16-5.89.37l-.98,2.5c-.08.21,2.47.37,5.67.37h38.43c3.2,0,5.86-.17,5.9-.37h0Z"/><path class="cls-27" d="m456.75,773.86l.49-2.43c.04-.2-2.48-.36-5.6-.36h-37.42c-3.12,0-5.73.16-5.81.36l-.95,2.43c-.08.2,2.44.36,5.6.36h37.88c3.16,0,5.77-.16,5.81-.36h0Z"/><path class="cls-27" d="m456.8,770.24l.48-2.37c.04-.19-2.45-.35-5.52-.35h-36.9c-3.08,0-5.66.16-5.73.35l-.93,2.37c-.08.19,2.41.35,5.52.35h37.35c3.11,0,5.69-.16,5.73-.35h0Z"/><path class="cls-27" d="m457.96,766.73l.47-2.3c.04-.19-2.41-.34-5.45-.34h-36.4c-3.03,0-5.58.15-5.65.34l-.9,2.3c-.07.19,2.38.34,5.45.34h36.84c3.07,0,5.61-.15,5.65-.34h0Z"/><path class="cls-27" d="m458.86,763.32l.97-4.81c.04-.18-2.36-.32-5.32-.32h-35.54c-2.96,0-5.44.14-5.51.32l-1.88,4.81c-.07.18,2.35.33,5.38.33h36.34c3.03,0,5.54-.15,5.57-.33h0Z"/><path class="cls-27" d="m511.46,760.7l-.02-2.19c0-.18-2.43-.32-5.39-.32h-35.54c-2.96,0-5.41.14-5.44.32l-.39,2.19c-.03.18,2.39.33,5.39.33h35.96c3,0,5.45-.15,5.45-.33h0Z"/><path class="cls-27" d="m385.55,804.56l1.29-3.04c.1-.24-2.66-.44-6.14-.44h-41.8c-3.48,0-6.46.2-6.61.44l-1.87,3.04c-.15.25,2.61.46,6.14.46h42.38c3.53,0,6.51-.2,6.61-.46h0Z"/><path class="cls-27" d="m387.98,800.05l1.25-2.95c.1-.24-2.62-.43-6.05-.43h-41.16c-3.43,0-6.35.19-6.5.43l-1.81,2.95c-.15.24,2.57.44,6.05.44h41.72c3.48,0,6.4-.2,6.51-.44h0Z"/><path class="cls-27" d="m390.07,795.69l1.21-2.86c.1-.23-2.59-.42-5.97-.42h-40.53c-3.38,0-6.26.19-6.4.42l-1.75,2.86c-.14.24,2.54.43,5.96.43h41.08c3.42,0,6.31-.19,6.4-.43h0Z"/><path class="cls-27" d="m391.06,791.44l1.18-2.77c.09-.22-2.55-.41-5.88-.41h-39.93c-3.33,0-6.16.18-6.3.41l-1.71,2.77c-.14.23,2.5.41,5.87.41h40.46c3.37,0,6.21-.19,6.31-.41h0Z"/><path class="cls-27" d="m393.3,787.33l1.14-2.69c.09-.22-2.52-.39-5.79-.39h-39.35c-3.28,0-6.07.18-6.2.39l-1.65,2.69c-.14.22,2.47.4,5.79.4h39.85c3.32,0,6.12-.18,6.21-.4h0Z"/><path class="cls-27" d="m395.22,783.35l1.11-2.61c.09-.21-2.48-.38-5.71-.38h-38.78c-3.23,0-5.98.17-6.11.38l-1.6,2.61c-.13.21,2.44.39,5.71.39h39.27c3.27,0,6.02-.18,6.12-.39h0Z"/><path class="cls-27" d="m396.61,779.42l1.08-2.54c.09-.2-2.45-.37-5.63-.37h-38.22c-3.19,0-5.89.17-6.02.37l-1.56,2.54c-.13.21,2.4.38,5.63.38h38.7c3.23,0,5.94-.17,6.02-.38h0Z"/><path class="cls-27" d="m398.66,775.66l1.04-2.47c.08-.2-2.42-.36-5.56-.36h-37.68c-3.14,0-5.81.16-5.93.36l-1.51,2.47c-.12.2,2.37.37,5.55.37h38.15c3.18,0,5.85-.17,5.94-.37h0Z"/><path class="cls-27" d="m400.43,772.01l1.01-2.4c.08-.19-2.39-.35-5.48-.35h-37.16c-3.1,0-5.73.16-5.84.35l-1.47,2.4c-.12.2,2.34.36,5.48.36h37.61c3.13,0,5.77-.16,5.85-.36h0Z"/><path class="cls-27" d="m401.33,768.38l.99-2.33c.08-.19-2.35-.34-5.41-.34h-36.64c-3.05,0-5.65.15-5.76.34l-1.43,2.33c-.12.19,2.32.35,5.41.35h37.08c3.09,0,5.69-.16,5.77-.35h0Z"/><path class="cls-27" d="m403.25,764.89l2.68-6.35c.07-.18-2.29-.32-5.25-.32h-35.55c-2.96,0-5.47.14-5.58.32l-3.89,6.35c-.11.19,2.29.34,5.33.34h36.57c3.05,0,5.61-.15,5.68-.34h0Z"/><path class="cls-27" d="m623.63,809.64l-1.28-2.9c-.17-.39-4.74-.7-10.15-.7h-15.5c-5.41,0-9.74.32-9.62.7l.93,2.9c.13.4,4.72.72,10.22.72h15.73c5.49,0,9.84-.32,9.67-.72h0Z"/><path class="cls-27" d="m621.32,804.4l-1.23-2.8c-.16-.37-4.65-.68-9.97-.68h-15.23c-5.32,0-9.57.3-9.45.68l.9,2.8c.12.38,4.63.69,10.03.69h15.45c5.4,0,9.67-.31,9.5-.69h0Z"/><path class="cls-27" d="m619.39,799.35l-1.2-2.7c-.16-.36-4.56-.66-9.79-.66h-14.97c-5.23,0-9.41.29-9.29.66l.87,2.7c.12.37,4.55.67,9.85.67h15.18c5.3,0,9.5-.3,9.34-.67h0Z"/><path class="cls-27" d="m617.24,794.46l-1.15-2.61c-.15-.35-4.48-.63-9.62-.63h-14.71c-5.14,0-9.25.28-9.14.63l.84,2.61c.11.36,4.47.65,9.68.65h14.92c5.21,0,9.34-.29,9.18-.65h0Z"/><path class="cls-27" d="m615.15,789.74l-1.12-2.52c-.15-.34-4.4-.61-9.45-.61h-14.47c-5.05,0-9.1.28-8.99.61l.81,2.52c.11.34,4.39.63,9.51.63h14.67c5.12,0,9.18-.28,9.03-.63h0Z"/><path class="cls-27" d="m612.65,785.18l-1.08-2.44c-.14-.33-4.32-.59-9.29-.59h-14.23c-4.97,0-8.95.27-8.85.59l.78,2.44c.11.33,4.31.61,9.35.61h14.42c5.04,0,9.03-.27,8.89-.61h0Z"/><path class="cls-27" d="m610.71,780.77l-1.04-2.36c-.14-.32-4.25-.57-9.14-.57h-14c-4.89,0-8.81.26-8.71.57l.76,2.36c.1.32,4.24.59,9.19.59h14.19c4.95,0,8.89-.26,8.75-.59h0Z"/><path class="cls-27" d="m608.83,776.49l-1.01-2.29c-.13-.31-4.18-.56-8.99-.56h-13.78c-4.81,0-8.67.25-8.57.56l.73,2.29c.1.31,4.17.57,9.04.57h13.96c4.87,0,8.75-.26,8.61-.57h0Z"/><path class="cls-27" d="m606.9,772.36l-.98-2.22c-.13-.3-4.11-.54-8.85-.54h-13.56c-4.73,0-8.53.24-8.44.54l.71,2.22c.1.3,4.1.55,8.9.55h13.74c4.8,0,8.61-.25,8.48-.55h0Z"/><path class="cls-27" d="m605.14,768.35l-.95-2.15c-.13-.29-4.04-.52-8.71-.52h-13.35c-4.66,0-8.4.23-8.31.52l.69,2.15c.09.29,4.04.53,8.76.53h13.52c4.72,0,8.48-.24,8.35-.53h0Z"/><path class="cls-27" d="m603.43,764.46l-.92-2.08c-.12-.28-3.98-.51-8.57-.51h-13.15c-4.59,0-8.28.23-8.19.51l.67,2.08c.09.28,3.97.52,8.62.52h13.32c4.65,0,8.35-.23,8.23-.52h0Z"/><path class="cls-27" d="m601.79,760.69l-.89-2.02c-.12-.27-3.92-.49-8.44-.49h-12.96c-4.52,0-8.15.22-8.07.49l.65,2.02c.09.28,3.91.5,8.49.5h13.12c4.58,0,8.23-.23,8.11-.5h0Z"/><path class="cls-27" d="m626.02,815.08l-1.33-3.01c-.18-.4-4.83-.73-10.34-.73h-15.78c-5.51,0-9.91.33-9.79.73l.96,3.01c.13.41,4.81.75,10.41.75h16.02c5.6,0,10.02-.34,9.84-.75h0Z"/><path class="cls-83" d="m167.55,769.11h67.57c14.02,0,24.74.71,23.88,1.59l-25.23,25.86c-1.05,1.08-14.64,1.96-30.28,1.96h-75.37c-20.51,0-35.49-1.15-33.42-2.56l36.45-24.76c1.7-1.16,18.03-2.09,36.41-2.09Zm-.15.11,36.23,29.16"/><path class="cls-79" d="m203.63,798.38c14.54,0,27.18-.82,28.16-1.82l25.42-25.86c.8-.82-9.16-1.48-22.21-1.48h-67.59"/><path class="cls-79" d="m167.4,769.22c-17.41,0-32.86.88-34.47,1.98l-36.28,24.76c-1.95,1.33,12.24,2.42,31.64,2.42h75.34"/><path class="cls-14" d="m614.74,753.77c-9.97,0-17.83.47-17.58,1.06.25.59,8.6,1.07,18.66,1.07,10.05,0,17.91-.48,17.57-1.07-.34-.59-8.69-1.06-18.65-1.06Z"/><path class="cls-39" d="m598.22,754.83c.24.55,8.12,1.01,17.57,1.01,9.45,0,16.86-.45,16.54-1.01s-8.19-1-17.56-1c-9.37,0-16.79.45-16.55,1Z"/><path class="cls-15" d="m599.31,754.83c.23.52,7.6.94,16.44.94,8.84,0,15.79-.42,15.49-.94-.3-.52-7.67-.94-16.44-.94-8.78,0-15.72.42-15.49.94Z"/><path class="cls-39" d="m600.37,754.83c.22.48,7.1.88,15.36.88,8.26,0,14.74-.4,14.46-.88-.27-.48-7.15-.88-15.35-.88-8.2,0-14.68.39-14.47.88Z"/><g class="cls-103"><path class="cls-88" d="m608.16,754.83c.1.21,3.15.39,6.8.39,1.68,0,3.25-.04,4.44-.1.39-.02.4-.06.01-.08-.39-.02-1.04-.03-1.43,0-.83.05-1.92.07-3.08.07-2.53,0-4.64-.12-4.71-.27s1.92-.27,4.44-.27c1.12,0,2.21.02,3.07.07.43.02,1.07.02,1.42,0,.36-.02.3-.06-.13-.08-1.24-.06-2.81-.1-4.43-.1-3.63,0-6.51.17-6.4.39Z"/><path class="cls-88" d="m614.17,754.76c-.55,0-.99.03-.97.06h0s.48.07,1.03.07h7.18c.56,0,1-.03.99-.06h0s-.49-.07-1.05-.07h-7.17Z"/></g><path class="cls-75" d="m645.9,753.47c3.07,6.19,13.09,23.7,17.56,29.95,0,0,28.09,37.71,28.34,37.59l-43.34-66.97c-.14-.21-1.05-.4-2.56-.57Z"/><rect class="cls-58" x="600.48" y="824.51" width="8.58" height="24.64" rx="4.29" ry="4.29" transform="translate(-232.06 1441.6) rotate(-90)"/><rect class="cls-58" x="542.67" y="804.42" width="8.58" height="64.82" rx="4.29" ry="4.29" transform="translate(-289.87 1383.79) rotate(-90)"/><path class="cls-58" d="m630.17,836.83h0c0,2.37,1.92,4.29,4.29,4.29h35.23c2.37,0,4.29-1.92,4.29-4.29h0v-3.82c0-.26-.21-.47-.47-.47h-42.87c-.26,0-.47.21-.47.47v3.82Z"/></g><g id="Layer_5"><polygon class="cls-46" points="694.05 790.28 650.53 739.91 713.2 225.1 763.1 232.17 694.05 790.28"/><path class="cls-16" d="m686.43,778.23l-28.51-32.83c-.34-.39.05-6.19.88-12.95l2.54-20.82c.83-6.78,1.78-11.98,2.12-11.61l28.87,30.41c.38.4-.02,6.54-.9,13.69l-2.71,21.98c-.88,7.14-1.9,12.56-2.28,12.13Z"/><polygon class="cls-49" points="761.18 247.7 711.52 239.4 713.26 225.11 763.11 232.17 761.18 247.7"/><g class="cls-104"><path id="path5" class="cls-86" d="m713.44,231.83c.09-.77.18-1.37.27-1.8.05-.56.06-.88.02-.96-.01-.03-.04.03-.08.18-.04.16-.07.24-.07.24,0,0-.01-.07-.01-.21,0-.14,0-.21-.02-.22-.02,0-.06.11-.1.32-.04.21-.09.5-.15.86-.07.45-.14,1-.22,1.63-.07.57-.13,1.14-.19,1.71-.06.55-.1,1.03-.14,1.44-.03.38-.05.65-.06.82-.02.27-.02.4,0,.39.01,0,.03-.07.06-.19.03-.12.05-.18.07-.17.01,0,.02.06.02.19,0,.13,0,.19.02.2.02,0,.05-.13.09-.36.01-.08.03-.18.05-.31.02-.13.05-.29.08-.47.02-.13.04-.27.07-.43.02-.15.05-.31.07-.48.01-.07.02-.14.03-.21.01-.07.02-.15.03-.22,0-.1,0-.25.02-.43.03-.41.08-.91.15-1.51h0Z"/><path id="path9" class="cls-86" d="m713.81,228.3c.07-.41.13-.85.19-1.33v-.1s.02-.06.02-.1c-.01.01-.04.08-.07.21-.03.13-.06.3-.1.5-.07.4-.13.82-.18,1.28v.09s-.02.06-.02.09c.02.06.07-.16.15-.65Z"/></g><path class="cls-86" d="m713.94,234.54h-.06s.67-5.49.67-5.49l.17.03-.12.95-.11-.02-.17,1.42.1.02-.12.95-.1-.02-.26,2.17Z"/><path class="cls-86" d="m714.74,229.28c.05-.37.08-.56.1-.55s.01.19-.03.56c-.02.18-.04.32-.06.41s-.03.15-.04.14c-.02,0-.01-.19.03-.57Zm-.58,5.29h-.06s.51-4.21.51-4.21h.06s-.51,4.21-.51,4.21Z"/><path class="cls-86" d="m714.44,234.62h-.06s.3-2.46.3-2.46c.04-.3.06-.53.07-.68.01-.15.01-.23,0-.23-.02,0-.04.1-.08.32s-.08.57-.14,1.06l-.24,1.97h-.06s.51-4.21.51-4.21h.05s-.06.55-.06.55h0c.03-.2.06-.35.08-.46s.05-.15.06-.15c.03,0,.03.14.01.41-.02.27-.06.65-.12,1.15l-.33,2.74Z"/><path class="cls-86" d="m714.57,234.71s-.02-.2,0-.58c.03-.39.09-.92.17-1.6s.16-1.22.22-1.61.11-.57.14-.57c.03,0,.03.21,0,.63h0c.03-.31.07-.59.1-.84l.16-1.35h.06s-.71,5.86-.71,5.86h-.05s.05-.55.05-.55h0c-.06.41-.11.61-.14.61Zm.13-.91s.04-.08.07-.25c.03-.17.07-.46.12-.87l.02-.12c.05-.45.09-.77.11-.97.02-.2.02-.3,0-.3-.01,0-.04.1-.07.32-.03.21-.08.53-.13.94-.05.41-.08.72-.1.93-.02.21-.02.31,0,.32Z"/><path class="cls-86" d="m714.87,234.76s-.04-.2-.02-.57c.02-.38.08-.91.16-1.59.09-.7.16-1.25.23-1.63.07-.38.12-.57.15-.57s.04.18.01.52c-.02.34-.07.81-.14,1.41l-.07.56-.15-.02c-.04.33-.06.58-.08.77-.01.18,0,.28,0,.28.01,0,.03-.02.05-.07.02-.05.04-.13.07-.25l-.11.89c-.02.1-.04.17-.06.22-.02.05-.04.07-.05.07Zm.42-3.54s-.03.07-.06.23c-.03.15-.06.37-.09.65h.09c.03-.27.06-.49.07-.64s0-.23,0-.24Z"/><path class="cls-86" d="m715.67,230.45s.01.01.02.04l-.14,1.08s0-.04-.01-.04c-.02,0-.05.09-.08.27-.03.19-.07.45-.11.79l-.26,2.14h-.06s.51-4.21.51-4.21h.05s-.08.72-.08.72h0c.04-.23.07-.42.1-.56.03-.14.05-.21.07-.21Z"/><path class="cls-86" d="m715.92,234.85h-.04s.67-5.51.67-5.51l.17.02-.07.57-.13-.02-.25,2.01.13.02-.07.57-.13-.02-.29,2.35Z"/><path class="cls-86" d="m716.73,229.63c.02-.14.03-.25.04-.31s.02-.1.03-.1,0,.04,0,.1-.01.17-.03.31-.03.25-.04.31c-.01.07-.02.1-.03.1,0,0,0-.04,0-.11,0-.07.02-.18.03-.32Zm-.6,5.25h-.03s.5-4.13.5-4.13h.03s-.5,4.13-.5,4.13Z"/><path class="cls-86" d="m716.24,234.9h-.03s.71-5.87.71-5.87h.03s-.71,5.87-.71,5.87Z"/><path class="cls-86" d="m716.4,235s-.04-.2-.01-.57c.03-.37.08-.89.16-1.55.08-.67.15-1.19.22-1.58.07-.39.11-.58.14-.58.03,0,.03.18,0,.52-.02.34-.07.79-.14,1.35l-.05.4-.16-.02c-.06.48-.1.85-.11,1.11-.02.25-.02.38,0,.39.02,0,.06-.09.11-.27l-.07.56c-.02.09-.04.16-.06.2-.02.04-.03.06-.05.06Zm.45-3.76s-.05.1-.08.32-.08.51-.13.89l.12.02c.05-.39.08-.7.1-.91s.01-.32,0-.32Z"/><path class="cls-86" d="m717.4,235.08l-.17-.03.67-5.52.17.03-.07.57-.13-.02-.22,1.78.13.02-.07.57-.13-.02-.25,2.03.13.02-.07.57Z"/><path class="cls-86" d="m717.69,234.56h0c-.07.42-.12.62-.15.62-.03,0-.03-.19,0-.57.03-.37.08-.9.17-1.58s.16-1.21.22-1.59.11-.56.14-.56.03.21,0,.62h0s.03-.3.03-.3l.03-.29.21-1.68h.03s-.72,5.88-.72,5.88h-.03s.06-.56.06-.56Zm-.08.09s.05-.11.09-.34.09-.61.15-1.12l.02-.13c.07-.59.12-1.01.14-1.26.02-.25.02-.38,0-.38-.02,0-.05.14-.1.42-.05.28-.1.69-.16,1.21-.06.53-.11.93-.13,1.2-.02.27-.02.41,0,.41Z"/><path class="cls-86" d="m718.36,229.87c.02-.14.03-.25.04-.31s.02-.1.03-.1,0,.04,0,.1-.02.17-.03.31-.03.25-.04.32c-.01.07-.02.1-.03.1,0,0,0-.04,0-.11,0-.07.02-.18.03-.32Zm-.6,5.27h-.03s.5-4.14.5-4.14h.03s-.5,4.14-.5,4.14Z"/><path class="cls-86" d="m717.96,234.72s.01,0,.02-.02.01-.03.02-.05l-.06.48s-.02.06-.03.08c0,.02-.02.03-.02.03-.04,0-.01-.43.09-1.28l.3-2.46h-.03s.04-.31.04-.31l.06-.26.12-.88h.02s-.12.96-.12.96h.07s-.06.5-.06.5h-.07s-.3,2.43-.3,2.43c-.03.25-.05.44-.06.58,0,.13,0,.2,0,.2Z"/><path class="cls-86" d="m719.47,229.77h.04s-.78,5.52-.78,5.52h-.04s.57-5.55.57-5.55h.04s-.37,3.59-.37,3.59c-.04.41-.08.81-.13,1.2.05-.41.11-.81.17-1.22l.5-3.55Z"/><path class="cls-86" d="m719.51,230.04c.02-.14.03-.25.04-.32s.02-.1.03-.1,0,.04,0,.1-.02.17-.03.31-.03.25-.04.32c-.01.07-.02.1-.03.1,0,0,0-.04,0-.11,0-.07.02-.18.03-.32Zm-.61,5.28h-.03s.51-4.15.51-4.15h.03s-.51,4.15-.51,4.15Z"/><path class="cls-86" d="m719.06,235.42s-.04-.2-.01-.57c.03-.38.08-.9.16-1.56.08-.67.16-1.2.22-1.59.07-.39.11-.58.15-.58.03,0,.03.18,0,.52-.02.34-.07.8-.14,1.36l-.05.4-.16-.02c-.06.49-.1.86-.11,1.11-.02.25-.02.38,0,.39.02,0,.06-.09.11-.27l-.07.56c-.02.09-.04.16-.06.2-.02.04-.03.06-.05.06Zm.45-3.77s-.05.1-.08.32-.08.51-.13.9l.12.02c.05-.4.08-.7.1-.91s.01-.32,0-.32Z"/><path class="cls-86" d="m719.4,235.4l.26-2.44c.02-.15.05-.49.11-1.02h0c-.06.44-.11.78-.14,1.02l-.34,2.42h-.04s.44-4.17.44-4.17h.04c-.11,1.05-.2,1.85-.26,2.39-.06.55-.1.91-.12,1.1h0c.02-.14.04-.33.08-.56.03-.23.06-.41.08-.54l.33-2.38h.04s-.25,2.39-.25,2.39c-.05.44-.08.8-.12,1.1h0c.01-.09.03-.23.06-.42.03-.19.16-1.21.42-3.05h.04s-.57,4.15-.57,4.15h-.04Z"/><path class="cls-86" d="m720.78,232.66l.1.02-.33,2.7c-.03.09-.05.16-.08.2-.02.05-.05.07-.07.06-.05,0-.05-.26-.02-.77.04-.5.11-1.21.22-2.11.07-.58.14-1.08.2-1.51.07-.43.12-.76.18-.99.05-.23.09-.34.13-.33s.05.12.05.34l-.08.57c0-.22-.02-.33-.04-.33-.04,0-.09.19-.16.59-.07.4-.15.96-.24,1.67-.09.75-.15,1.32-.18,1.71-.03.39-.02.59.02.59.02,0,.05-.04.08-.12l.21-1.71h-.07s.07-.59.07-.59Z"/><path class="cls-86" d="m721.05,233.54c-.08.68-.16,1.21-.22,1.58-.07.38-.11.56-.15.56-.02,0-.03-.09-.02-.27,0-.18.02-.43.05-.76.03-.33.07-.71.13-1.15.08-.68.16-1.2.22-1.58.06-.38.11-.56.15-.56s.03.2,0,.59c-.03.39-.08.92-.16,1.58Zm-.18-.03c-.06.53-.11.94-.13,1.22-.02.28-.02.42,0,.43s.06-.13.1-.41c.05-.28.1-.68.17-1.21.06-.53.11-.93.13-1.21s.02-.42,0-.42-.06.13-.1.4c-.04.27-.1.67-.17,1.21Z"/><path class="cls-86" d="m721.76,235.77h-.04s.39-3.74.39-3.74c.02-.17.04-.37.07-.63s.04-.4.05-.45c-.04.33-.09.7-.15,1.1l-.51,3.69h-.04s.6-5.58.6-5.58h.04s-.37,3.45-.37,3.45c-.05.48-.1.92-.14,1.31.06-.46.12-.92.18-1.36l.47-3.37h.04s-.36,3.43-.36,3.43c-.04.39-.09.84-.15,1.33.05-.36.11-.8.18-1.31l.47-3.42h.04s-.76,5.55-.76,5.55Z"/><path class="cls-86" d="m722.53,230.49c.02-.14.03-.25.04-.32s.02-.1.03-.1,0,.04,0,.11c0,.07-.02.17-.03.32s-.03.25-.04.32c-.01.07-.02.1-.03.1,0,0,0-.04,0-.11,0-.07.02-.18.03-.32Zm-.61,5.3h-.03s.51-4.17.51-4.17h.04s-.51,4.17-.51,4.17Z"/><path class="cls-86" d="m722.16,235.84l.33-2.7c.04-.34.07-.59.08-.76.01-.17,0-.25,0-.26-.02,0-.06.11-.1.35-.04.23-.09.62-.16,1.17l-.27,2.19h-.04s.51-4.17.51-4.17h.03s-.06.58-.06.58h0c.03-.2.06-.36.09-.47.03-.11.05-.16.06-.16.03,0,.03.13.02.37-.02.24-.06.63-.12,1.17l-.33,2.72h-.04Z"/><path class="cls-86" d="m722.49,235.32h0c-.07.42-.12.63-.15.62-.03,0-.03-.19,0-.57.03-.38.09-.91.17-1.59.08-.69.16-1.22.22-1.6s.11-.56.14-.56.03.21,0,.63h0s.04-.3.04-.3l.03-.29.21-1.7h.04s-.72,5.93-.72,5.93h-.03s.06-.56.06-.56Zm-.08.1s.06-.11.1-.34.09-.61.15-1.13l.02-.13c.07-.59.12-1.01.14-1.27.02-.25.02-.38,0-.39-.02,0-.05.14-.1.43-.05.29-.1.69-.17,1.22s-.11.94-.13,1.21c-.02.27-.02.41,0,.41Z"/><path class="cls-86" d="m722.98,233.84c-.08.68-.16,1.21-.22,1.59s-.12.57-.15.56c-.02,0-.03-.09-.02-.27,0-.18.02-.43.05-.76.03-.33.07-.71.13-1.15.08-.68.16-1.21.22-1.59s.11-.56.15-.56.03.2,0,.59c-.03.39-.08.92-.16,1.58Zm-.18-.03c-.07.53-.11.94-.13,1.22-.02.28-.02.42,0,.43s.06-.13.1-.41c.05-.28.1-.68.17-1.22.06-.53.11-.93.13-1.21s.02-.42,0-.42-.06.13-.1.4c-.04.27-.1.67-.17,1.21Z"/><path class="cls-86" d="m722.98,235.97l.26-2.46c.02-.15.05-.49.11-1.02h0c-.06.44-.11.79-.14,1.03l-.34,2.44h-.04s.45-4.19.45-4.19h.04c-.11,1.06-.2,1.86-.26,2.41s-.1.92-.12,1.11h0c.02-.14.04-.33.08-.56.03-.23.06-.41.08-.55l.34-2.39h.04s-.25,2.41-.25,2.41c-.05.44-.08.81-.12,1.1h0c.01-.09.03-.23.06-.42s.17-1.21.42-3.07h.04s-.57,4.17-.57,4.17h-.04Z"/><path class="cls-86" d="m724.02,236.13h-.04s.32-2.63.32-2.63l-.16-.03-.32,2.63h-.04s.68-5.58.68-5.58h.04s-.29,2.38-.29,2.38l.16.02.29-2.37h.04s-.68,5.59-.68,5.59Z"/><path class="cls-86" d="m724.19,236.23s-.04-.2-.01-.58.08-.9.16-1.57.16-1.21.22-1.6c.07-.39.12-.59.15-.58.03,0,.03.18,0,.53-.03.35-.07.8-.14,1.37l-.05.4-.16-.02c-.06.49-.1.87-.12,1.12-.02.26-.02.39,0,.39.03,0,.06-.09.11-.27l-.07.57c-.02.09-.04.16-.06.2-.02.04-.03.06-.05.06Zm.46-3.81s-.05.1-.08.32c-.04.22-.08.52-.13.91l.12.02c.05-.4.08-.71.1-.92.02-.21.01-.32,0-.33Z"/><path class="cls-86" d="m724.38,236.19h-.04s.73-5.95.73-5.95h.04s-.73,5.95-.73,5.95Z"/><path class="cls-86" d="m724.56,236.29s-.02-.05-.02-.16c0-.1,0-.26.03-.47h0c-.03.24-.06.48-.08.7l-.21,1.72h-.04s.74-6.07.74-6.07h.03s-.07.58-.07.58h0c.04-.23.07-.39.09-.49.02-.1.04-.15.06-.15.03,0,.03.2,0,.58-.03.38-.09.92-.17,1.6s-.16,1.22-.22,1.6c-.06.38-.11.56-.14.56Zm.46-3.8s-.06.11-.1.35c-.04.24-.09.61-.15,1.13l-.02.14c-.07.59-.12,1.01-.14,1.26-.02.26-.02.38,0,.39.02,0,.05-.14.1-.43.05-.29.1-.69.17-1.21s.11-.92.13-1.2c.02-.28.02-.42,0-.43Z"/><path class="cls-86" d="m757,241.34h-.04s.42-3.96.42-3.96c.02-.18.04-.4.07-.66.03-.27.05-.43.05-.48-.05.35-.1.74-.16,1.16l-.55,3.91h-.04s.64-5.91.64-5.91h.04s-.39,3.65-.39,3.65c-.06.51-.11.97-.15,1.39.06-.49.13-.97.2-1.44l.5-3.57h.04s-.38,3.63-.38,3.63c-.04.42-.1.89-.15,1.41.05-.38.11-.84.19-1.39l.5-3.62h.04s-.82,5.88-.82,5.88Z"/><path class="cls-86" d="m757.24,241.46s-.04-.21-.02-.61c.03-.4.08-.95.17-1.66s.17-1.28.24-1.69c.07-.42.13-.62.16-.62.03,0,.04.19,0,.56-.03.37-.08.85-.15,1.45l-.05.42-.18-.03c-.06.52-.1.91-.12,1.18-.02.27-.01.41.01.41.03,0,.07-.09.12-.29l-.07.6c-.03.1-.05.17-.07.21-.02.04-.04.06-.05.06Zm.49-4.02s-.05.11-.09.34c-.04.23-.09.55-.14.96l.14.02c.05-.42.09-.75.1-.97s.01-.34,0-.34Z"/><path class="cls-86" d="m757.66,240.84h0c-.07.45-.13.67-.16.66-.03,0-.04-.21,0-.61.03-.4.09-.96.18-1.69.09-.73.17-1.29.24-1.69s.12-.6.15-.59.04.23,0,.67h0s.04-.32.04-.32l.04-.31.22-1.8h.04s-.78,6.28-.78,6.28h-.03s.07-.6.07-.6Zm-.09.1s.06-.12.1-.36c.04-.25.1-.65.17-1.2l.02-.14c.08-.63.13-1.07.15-1.34.02-.27.02-.41,0-.41-.02,0-.06.15-.11.45-.05.3-.11.73-.18,1.29s-.12.99-.14,1.28c-.02.29-.02.44,0,.44Z"/><path class="cls-86" d="m757.86,241.47l.8-5.26-.19-.03.08-.62.23.03-.07.54-.8,5.34h-.04Z"/><path class="cls-86" d="m758,243.08s-.02-.04-.02-.11l.07-.59c0,.06.01.08.03.09.02,0,.04-.08.07-.24.03-.16.06-.39.1-.7l.73-5.9h.04s-.72,5.85-.72,5.85c-.06.51-.12.91-.17,1.18s-.09.42-.12.41Z"/><path class="cls-86" d="m758.96,237.13l-.35,2.87c-.04.36-.07.63-.09.81-.01.18,0,.27.01.27.03,0,.06-.12.11-.37s.1-.66.17-1.24l.29-2.33h.04s-.55,4.43-.55,4.43h-.03s.07-.6.07-.6h0c-.04.22-.07.38-.1.5-.03.11-.05.17-.07.17-.03,0-.04-.14-.02-.39.02-.26.06-.67.13-1.23l.36-2.9h.04Z"/><path class="cls-86" d="m758.85,241.63l.35-2.87c.04-.36.07-.63.09-.81.01-.18,0-.27-.01-.27-.03,0-.06.12-.11.37-.04.25-.1.66-.17,1.24l-.29,2.32h-.04s.55-4.43.55-4.43h.03s-.07.61-.07.61h0c.04-.22.07-.38.1-.5.03-.12.05-.17.07-.17.03,0,.04.14.02.4-.02.26-.06.67-.13,1.24l-.36,2.89h-.04Z"/><path class="cls-86" d="m759.98,238.35c-.29,2.31-.48,3.46-.59,3.45-.02,0-.03-.03-.03-.09l.07-.58c0,.07.01.11.03.11.04,0,.09-.19.16-.59.07-.4.16-1.01.26-1.84h0c-.04.22-.07.39-.1.51-.03.11-.05.17-.07.17-.03,0-.04-.16-.02-.48.02-.32.07-.75.13-1.31.08-.62.15-1.1.21-1.45s.11-.53.15-.52c.02,0,.03.11.02.32,0,.21-.03.51-.07.91-.04.4-.09.86-.16,1.4Zm.13-2.05s-.06.12-.1.36c-.04.25-.09.59-.15,1.03-.05.39-.08.69-.1.92-.02.22-.01.34.01.34.01,0,.03-.05.06-.14s.05-.23.08-.4.05-.35.08-.54c.03-.28.06-.55.09-.79.02-.24.04-.43.04-.57,0-.14,0-.21-.01-.21Z"/><path class="cls-86" d="m760.12,237.75c.04-.36.08-.54.1-.54s0,.19-.04.55c-.02.18-.04.31-.06.4s-.03.14-.04.14c0,0,0-.04,0-.13,0-.09.02-.23.04-.42Zm-.44,3.57c.02-.18.04-.32.06-.41.02-.09.03-.14.04-.14s.01.05,0,.14c0,.09-.02.23-.04.41s-.04.31-.06.4-.03.14-.04.14c0,0,0-.04,0-.13,0-.09.02-.23.04-.42Z"/><path class="cls-86" d="m760.16,240.45h-.05s-.17,1.35-.17,1.35h-.04s.17-1.37.17-1.37l-.17-.03.07-.59.66-3.98h.04s-.49,3.99-.49,3.99h.05s-.08.62-.08.62Zm-.01-.63l.24-1.97c.05-.39.1-.82.16-1.31h0c-.04.26-.07.47-.1.64l-.43,2.62.13.02Z"/><path class="cls-86" d="m760.17,241.84h-.04s.52-4.23.52-4.23c.04-.35.09-.68.13-1-.01.06-.02.11-.03.18s-.06.32-.15.78l.04-.46.24-1.2h.03s-.73,5.93-.73,5.93Z"/><path class="cls-86" d="m760.61,241.91l.07-.63h0c-.05.28-.08.46-.11.56-.03.1-.05.14-.07.14-.03,0-.03-.12-.02-.35.01-.23.05-.55.1-.97.11-.9.21-1.36.3-1.39l.05-.02.03-.28c.04-.35.07-.61.08-.77.01-.17,0-.25-.01-.26-.02,0-.06.11-.12.33l.05-.52c.03-.12.05-.21.08-.27.02-.06.04-.1.06-.09.03,0,.04.13.03.36-.01.24-.05.62-.12,1.13l-.37,3.03h-.03Zm-.03-.49s.06-.11.1-.34c.04-.23.09-.55.14-.96l.05-.4-.04.02s-.07.09-.1.24c-.03.15-.07.37-.11.68-.03.24-.05.43-.06.56,0,.13,0,.19.01.2Z"/><path class="cls-86" d="m761.06,241.98l.36-2.89c.04-.35.07-.62.09-.8.01-.18,0-.27,0-.27-.02,0-.06.11-.1.35-.04.24-.09.61-.16,1.11l-.31,2.48h-.04s.36-2.9.36-2.9c.04-.35.07-.62.09-.8.01-.18,0-.27,0-.27-.02,0-.06.12-.1.37-.04.25-.1.66-.17,1.24l-.29,2.33h-.04s.55-4.45.55-4.45h.03s-.07.61-.07.61h0c.03-.22.07-.38.09-.5.03-.12.05-.18.07-.18.04,0,.04.26-.01.77h0c.04-.23.07-.41.1-.55.03-.13.06-.2.08-.2.03,0,.04.14.02.4-.02.26-.06.67-.13,1.24l-.36,2.9h-.04Z"/><path class="cls-86" d="m751.07,236.96l.06-.99.02-.19c.28-1.47.51-2.28.64-2.26s.15.85.07,2.35l-.02.19-.18.97h-.01c.07-1.19.05-1.85-.06-1.87s-.29.62-.51,1.8h0Zm-.14,2.17l.06-.99.02-.19c.18-.91.32-1.4.4-1.39s.1.52.05,1.45l-.02.19-.18.98h-.01c.03-.62.02-.96-.04-.97s-.16.32-.28.94h0Zm-.18,2.83l.11-1.65c0-.06.02-.15.03-.2.07-.35.13-.53.17-.53s.05.2.03.55c0,.05-.01.14-.02.2l-.3,1.63h-.01Z"/><path class="cls-9" d="m752.76,238.35c-.3,2.42-.65,4.36-.8,4.34s-.01-2,.28-4.42c.3-2.42.65-4.36.8-4.34s.01,2-.28,4.42Z"/><path class="cls-4" d="m753.91,237.78c-.2,1.63-.44,2.94-.54,2.92s0-1.35.19-2.98c.2-1.63.44-2.94.54-2.92s0,1.35-.19,2.98Z"/><path class="cls-86" d="m752.72,237.36c-.11.89-.24,1.61-.29,1.6s0-.74.1-1.63c.11-.89.24-1.61.29-1.6s0,.74-.1,1.63Z"/><path class="cls-86" d="m751.96,242.69c-.12-.02-.11-.78-.02-1.32.17-1.04.32-1.73.4-1.72s.06.66-.02,1.63c-.05.58-.24,1.43-.35,1.42Z"/><line class="cls-3" x1="753.43" y1="242.22" x2="753.56" y2="240.18"/><path class="cls-4" d="m755.15,237.95l-.3-.05c-.05,0,0-.75.11-1.65h0c.11-.9.24-1.63.3-1.62l.3.04c.05,0,0,.75-.11,1.65h0c-.11.9-.24,1.63-.3,1.62Z"/><path class="cls-86" d="m755.13,236.28c-.07.59-.16,1.07-.2,1.07s0-.49.07-1.08.16-1.07.2-1.07,0,.49-.07,1.08Z"/><path class="cls-10" d="m754.57,242.62l-.3-.05c-.05,0,0-.75.11-1.65h0c.11-.9.24-1.63.3-1.62l.3.05c.05,0,0,.75-.11,1.65h0c-.11.9-.24,1.63-.3,1.62Z"/><path class="cls-49" d="m754.84,241c-.07.59-.16,1.07-.2,1.07s0-.49.07-1.09c.07-.59.16-1.07.2-1.07s0,.49-.07,1.09Z"/><g class="cls-12"><g id="layer1"><g id="g7423"><path id="path1466" class="cls-65" d="m672.49,739.31l-1.36,11.07.69.78s.08-.02.14-.17l.53-11.67Z"/><path id="path1468" class="cls-93" d="m672.87,730.83l-1.47,12.02c-.37,3-.58,5.64-.56,6.74l1.87-15.28.16-3.49Z"/><path id="path1486" class="cls-65" d="m674.57,719.13c-.03-1.33-.29.31-.73,3.94l-.14,3.18.87-7.12Z"/><path id="path1506" class="cls-77" d="m674.96,719.09l-1.49,12.15-.69,15.24c.08-.58.16-1.19.24-1.82l.85-6.91c-.19-.22-.21-1.43-.18-2.7.02-.63.05-1.28.08-1.81.03-.53.06-.97.06-1.13.05-.98.2-2.84.43-5.12.22-2.28.51-4.98.84-7.61,0-.04.01-.09.02-.13l-.15-.16Z"/><path id="path1294" class="cls-40" d="m673.91,722.63c-.12.82-.25,1.74-.37,2.73l-.74,6.03-.9,19.7c.21-.39.58-2.4.94-5.09l1.06-23.37Z"/><path id="path1292" class="cls-92" d="m673.85,723.07c-.1.71-.2,1.48-.3,2.29l-.67,5.47-.92,20.15c.07,1.6.64-2.47.83-4.5l1.07-23.41Z"/><path id="path1288" class="cls-30" d="m674.74,718.85c-.05-.06-.13.11-.22.45l-3.68,30.05c0,.44.02.71.07.77l.24.28,3.84-31.28-.25-.26Z"/><path id="path1290" class="cls-86" d="m674.74,718.85s-.1.05-.17.27l-3.73,30.47c0,.3.03.49.07.53l.22.25,3.84-31.28-.22-.23Z"/><path id="path1300" class="cls-76" d="m675.11,719.24s-.01.09-.02.13c-.32,2.63-.61,5.33-.84,7.61-.22,2.28-.38,4.14-.43,5.12,0,.15-.03.59-.06,1.13-.03.53-.06,1.18-.08,1.81-.04,1.26-.02,2.48.18,2.7l.12-.96c-.19-.21-.2-1.35-.17-2.54.02-.6.05-1.2.08-1.71s.05-.91.07-1.16c.04-.78.18-2.54.39-4.71.21-2.17.49-4.76.79-7.23,0-.04.01-.09.02-.13l-.05-.05Z"/><path id="path1302" class="cls-90" d="m675.14,719.27s-.01.09-.02.13c-.63,5.1-1.14,10.57-1.22,12.33-.04.8-.35,5.09.03,5.52l1.24-10.14c.47-3.83.69-7.08.49-7.29l-.52-.56Z"/><path id="path1304" class="cls-76" d="m675.48,719.64c-.4,3.27-.63,5.57-.76,7.57-.06.96-.11,1.79-.1,2.4,0,.47.04.8.12.99l.14-1.11c-.07-.19-.11-.49-.11-.89,0-.53.03-1.22.09-2.15.11-1.79.3-3.67.68-6.75l-.06-.06Z"/><path id="path1306" class="cls-77" d="m675.51,719.67c-.38,3.17-.6,5.26-.72,7.16-.11,1.67-.16,2.78.02,3.22l.74-5.65c.47-3.83.31-4.36.11-4.57l-.15-.16Z"/><path id="path1308" class="cls-51" d="m674.74,718.85s-.04-.01-.06.01l-1.64,13.39c.06-.2.11-.28.14-.24.03.04.05.18.06.43l1.65-13.43-.15-.16Z"/><path id="circle1296" class="cls-97" d="m673.19,732.01c.16.17-.02,2.81-.39,5.89s-.81,5.43-.97,5.25.02-2.81.39-5.89.81-5.43.97-5.25Z"/><path id="path1298" class="cls-86" d="m672.93,734.13s0,0,0,0c0,0,0,0,0,0,0,0,0,0,0,0,0,0,0,0,0,0,0,0,0,0,0,0,0,0,0,.01,0,.02,0,0,0,0,0,.01,0,0,0,.01,0,.02,0,0,0,.02,0,.02,0,0,0,.01,0,.02,0,0,0,.02,0,.03,0,0,0,.02,0,.02,0,.01,0,.03,0,.04,0,0,0,0,0,.01l-.21,1.44s0,0,0,0l-.15,1.08-.1.73h0s-.4,2.79-.4,2.79c-.02.13-.04.28-.04.4,0,.06,0,.1,0,.12,0,0,0,0,0,0,0,0,0,0,0,0,0,0,0,0,0,0,0,0,0,0,0,0,0,0,0,0,0,0,0,0,0,0,0-.01,0,0,0-.01,0-.02,0,0,0,0,0-.01,0,0,0-.02,0-.03,0,0,0,0,0,0v-.02s0,0,0,0l.32-1.7-.12,1.91s0,0,0,0v.02s0,0,0,0c0,.01,0,.03,0,.04,0,0,0,0,0,.01,0,0,0,.01,0,.02,0,0,0,.01,0,.01,0,0,0,0,0,0,0,0,0,0,0,0,0,0,0,0,0,0,0,0,0,0,0,0,0,0,0,0,0,0,0,0,.01-.04.02-.09.02-.1.04-.26.05-.39l.49-4.79s0,0,0,0l.15-1.5s0-.01,0-.02c0-.01,0-.03,0-.04,0,0,0-.02,0-.03,0-.01,0-.02,0-.03,0,0,0-.02,0-.03,0,0,0-.02,0-.02,0,0,0-.02,0-.02,0,0,0-.01,0-.02,0,0,0-.02,0-.02,0,0,0,0,0,0,0,0,0,0,0,0,0,0,0,0,0-.01,0,0,0,0,0,0,0,0,0,0,0,0,0,0,0,0,0,0h0Z"/><path id="path1504" class="cls-13" d="m672.78,746.48s0,.06-.01.09c0-.03,0-.06.01-.09h0Z"/><path id="path1502" class="cls-13" d="m672.77,746.57s0,.06-.01.09c0-.03,0-.06.01-.09Z"/><path id="path1500" class="cls-13" d="m672.75,746.66c-.01.08-.02.16-.03.24.01-.08.02-.16.03-.24Z"/><path id="path1496" class="cls-13" d="m674.73,718.84s0,0,0,0c0,0,0,0,0,0Z"/><path id="path1494" class="cls-13" d="m674.71,718.85s0,0,0,0c0,0,0,0,0,0Z"/><path id="path1492" class="cls-13" d="m674.69,718.87s0,0-.01.01c0,0,0-.01.01-.01Z"/><path id="path1490" class="cls-13" d="m674.66,718.9s0,.01-.01.02c0,0,0-.02.01-.02Z"/><path id="path1488" class="cls-13" d="m674.64,718.95s0,.02-.01.03c0-.01,0-.02.01-.03Z"/><path id="path1484" class="cls-13" d="m673.85,723.08c-.01.08-.02.17-.04.25.01-.09.02-.17.04-.25Z"/><path id="path1482" class="cls-13" d="m673.81,723.35c-.01.08-.02.17-.03.25.01-.08.02-.17.03-.25Z"/><path id="path1480" class="cls-13" d="m673.77,723.63c-.01.08-.02.16-.03.23.01-.08.02-.16.03-.23Z"/><path id="path1478" class="cls-13" d="m673.73,723.91c0,.07-.02.15-.03.22,0-.07.02-.15.03-.22Z"/><path id="path1476" class="cls-13" d="m673.69,724.2c0,.07-.02.15-.03.23,0-.08.02-.15.03-.23Z"/><path id="path1474" class="cls-13" d="m673.65,724.48c0,.08-.02.15-.03.23,0-.08.02-.15.03-.23Z"/><path id="path1472" class="cls-13" d="m673.62,724.77c0,.07-.02.14-.03.22,0-.07.02-.14.03-.22Z"/><path id="path1470" class="cls-13" d="m673.58,725.07c-.01.1-.02.19-.04.29.01-.1.02-.2.04-.29Z"/><path id="path1464" class="cls-13" d="m671.95,750.98h0s.01-.03.02-.05c0,.02-.01.03-.02.05h0Z"/><path id="path1462" class="cls-13" d="m672.22,749.92c-.02.08-.03.15-.05.22.02-.07.03-.15.05-.22Z"/><path id="path1460" class="cls-13" d="m672.17,750.15s-.01.07-.02.1c0-.03.01-.07.02-.1Z"/><path id="path1458" class="cls-13" d="m672.14,750.27c-.01.06-.03.13-.04.18.01-.06.03-.12.04-.18Z"/><path id="path1456" class="cls-13" d="m672.1,750.46s-.01.06-.02.09c0-.03.01-.06.02-.09Z"/><path id="path1454" class="cls-13" d="m672.08,750.56c-.01.05-.03.1-.04.15.01-.05.03-.1.04-.15Z"/><path id="path1452" class="cls-13" d="m670.85,749.8s0,.03,0,.05c0-.02,0-.03,0-.05Z"/><path id="path1450" class="cls-13" d="m670.85,749.89s0,.03,0,.04c0-.01,0-.03,0-.04Z"/><path id="path1448" class="cls-13" d="m670.86,749.97s0,.02,0,.03c0-.01,0-.02,0-.03Z"/><path id="path1446" class="cls-13" d="m670.88,750.03s0,.02,0,.02c0,0,0-.02,0-.02Z"/><path id="rect1328" class="cls-13" d="m670.89,750.08s0,0,0,.01c0,0,0,0,0-.01Z"/></g></g></g><path class="cls-32" d="m662.6,706.32l1.06,1.13c.13.13-.02,2.24-.32,4.7l-2.54,20.8c-.3,2.46-.64,4.34-.77,4.2l-1.05-1.19c-.12-.14.02-2.24.32-4.69l2.53-20.74c.3-2.46.64-4.34.77-4.21Z"/><path class="cls-33" d="m663.66,707.45l-.47-.51c-.41,2.79-1.09,7.33-2.18,16.24-.04.32-.06.59-.04.62,0,0,0,0,0,0l.17.19s0,.29-.04.61c0,0,0,.01,0,.02-.5,4.05-.97,8.12-1.42,12.13l.36.41c.12.14.47-1.74.77-4.2h0l2.54-20.8c.3-2.46.44-4.57.32-4.7Z"/><path class="cls-86" d="m665.3,714.26l-2.55,20.87c-.3,2.47-.65,4.36-.77,4.22l-1.06-1.19c-.12-.14.02-2.25.32-4.72l2.54-20.81c.3-2.47.65-4.35.77-4.22l1.06,1.14c.13.13-.01,2.24-.32,4.71Z"/><path class="cls-86" d="m667.27,716.38l-2.56,20.95c-.3,2.48-.65,4.38-.78,4.23l-1.06-1.2c-.13-.14.02-2.26.32-4.74l2.55-20.89c.3-2.48.65-4.36.78-4.23l1.07,1.14c.13.14-.01,2.25-.32,4.73Z"/><path class="cls-31" d="m669.31,718.58l-2.57,21.03c-.3,2.49-.66,4.39-.78,4.25l-1.07-1.21c-.13-.14.02-2.27.32-4.75l2.56-20.97c.3-2.49.65-4.38.78-4.24l1.08,1.15c.13.14-.01,2.26-.32,4.75Z"/><path class="cls-37" d="m671.34,720.76l-2.58,21.1c-.31,2.5-.66,4.41-.79,4.26l-1.08-1.22c-.13-.14.02-2.28.32-4.77l2.58-21.04c.31-2.5.66-4.4.78-4.26l1.09,1.16c.13.14-.01,2.27-.32,4.77Z"/><path class="cls-38" d="m673.36,722.94l-2.6,21.18c-.31,2.51-.66,4.42-.79,4.28l-1.09-1.23c-.13-.15.02-2.29.32-4.79l2.59-21.12c.31-2.5.66-4.41.79-4.27l1.1,1.17c.13.14-.01,2.28-.32,4.79Z"/><path class="cls-86" d="m677.45,727.34l-2.62,21.34c-.31,2.53-.67,4.45-.8,4.31l-1.1-1.25c-.13-.15.01-2.31.32-4.83l2.61-21.28c.31-2.52.67-4.44.8-4.3l1.11,1.19c.13.14-.01,2.3-.32,4.83Z"/><path class="cls-86" d="m681.67,731.89l-2.64,21.5c-.31,2.55-.67,4.49-.81,4.34l-1.12-1.27c-.13-.15.01-2.33.33-4.87l2.63-21.44c.31-2.54.67-4.48.81-4.33l1.13,1.21c.13.14,0,2.31-.32,4.86Z"/><path class="cls-89" d="m681.67,731.89l-.61,4.97-1.65-1.43.65-5.28c.31-2.54.67-4.48.81-4.33l1.13,1.21c.13.14,0,2.31-.32,4.86Z"/><path class="cls-7" d="m662.41,715.89l-.24,1.97m-.43-2.7l-.24,1.97m-.27,9.38c-.81,4.39-1.2,3.96-.88-.97"/><path class="cls-86" d="m672.45,723.06c-.33-.36-1.1,3.43-1.71,8.45-.36,2.94-.59,5.65-.65,7.47-.11.81-.3,2.28-.49,3.42,0,0,.22-.6.47-2.16.01.57.06.93.14,1.02.33.37,1.1-3.41,1.71-8.44s.85-9.4.52-9.76Z"/><path class="cls-36" d="m663.48,719.42l-.15-.17s0-.6.09-1.27l.37-3.04c.08-.66.17-1.17.21-1.14l.15.17s0,.6-.09,1.27l-.37,3.04c-.08.66-.17,1.17-.21,1.14Z"/><path class="cls-34" d="m663.85,719.82l-.15-.17s0-.61.09-1.27l.37-3.04c.08-.66.17-1.17.21-1.14l.15.17s0,.6-.09,1.27l-.37,3.04c-.08.66-.17,1.17-.21,1.14Z"/><path class="cls-35" d="m664.21,720.22l-.15-.17s0-.61.09-1.27l.37-3.04c.08-.66.17-1.17.21-1.14l.16.17s0,.61-.09,1.27l-.37,3.04c-.08.66-.17,1.17-.21,1.14Z"/><path class="cls-20" d="m662.6,726.58l-.15-.17s0-.61.09-1.27l.37-3.03c.08-.66.17-1.17.21-1.13l.15.17s0,.6-.09,1.27l-.37,3.03c-.08.66-.17,1.17-.21,1.13Z"/><path class="cls-17" d="m662.97,726.98l-.15-.17s0-.61.09-1.27l.37-3.04c.08-.66.17-1.17.21-1.14l.15.17s0,.61-.09,1.27l-.37,3.04c-.08.66-.17,1.17-.21,1.13Z"/><path class="cls-18" d="m663.34,727.39l-.15-.17s0-.61.09-1.27l.37-3.04c.08-.66.17-1.17.21-1.14l.15.17s0,.61-.09,1.27l-.37,3.04c-.08.66-.17,1.17-.21,1.14Z"/><path class="cls-19" d="m661.73,733.73l-.15-.17s0-.61.09-1.27l.37-3.03c.08-.66.17-1.17.21-1.13l.15.17s0,.61-.09,1.27l-.37,3.03c-.08.66-.17,1.17-.21,1.13Z"/><path class="cls-24" d="m662.1,734.14l-.15-.17s0-.61.09-1.27l.37-3.03c.08-.66.17-1.17.21-1.13l.15.17s0,.61-.09,1.27l-.37,3.04c-.08.66-.17,1.17-.21,1.13Z"/><path class="cls-22" d="m662.46,734.56l-.15-.17s0-.61.09-1.27l.37-3.04c.08-.66.17-1.17.21-1.13l.15.17s0,.61-.09,1.27l-.37,3.04c-.08.66-.17,1.17-.21,1.13Z"/><g id="App-Icon-_-Apple-_-Safari-_"><g id="Safari-Icon"><path id="Oval" class="cls-26" d="m666.83,713.08c.37.39-.05,6.54-.92,13.71s-1.88,12.65-2.25,12.24.05-6.54.92-13.7,1.88-12.65,2.25-12.26Z"/><path id="Scale" class="cls-29" d="m666.69,714.07h.01s-.27,2.26-.27,2.26h-.01s.27-2.26.27-2.26h0Zm.09.27v.06s-.28,2.19-.28,2.19v-.06s.28-2.19.28-2.19h0Zm.04.63v.1s-.3,2.07-.3,2.07v-.1s.3-2.07.3-2.07h0Zm0,.97v.14s-.3,1.88-.3,1.88v-.14s.3-1.88.3-1.88h0Zm-.06,1.28v.17s-.29,1.64-.29,1.64v-.17s.29-1.64.29-1.64h0Zm-.1,1.55l-.02.2-.26,1.35.02-.2.26-1.35h0Zm-.15,1.77l-.02.22-.24,1.02.02-.22.24-1.02h0Zm-.18,1.94l-.02.24-.2.65.02-.24.2-.65h0Zm-.22,2.04l-.03.25-.16.27.03-.25.16-.27h0Zm-.24,2.09l-.03.25-.11-.13.03-.25.11.13h0Zm-.26,2.07l-.03.24-.07-.51.03-.24.07.51h0Zm-.27,1.99l-.03.23v-.89s.02-.23.02-.23v.89h.01Zm-.28,1.85l-.03.21.04-1.23.03-.21-.04,1.23h0Zm-.27,1.66l-.03.18.09-1.54.03-.18-.09,1.54h0Zm-.26,1.41l-.03.15.14-1.8.03-.15-.14,1.8h0Zm-.24,1.12l-.03.11.18-2.01.03-.11-.18,2.01h0Zm-.21.79l-.02.07.22-2.15.02-.07-.22,2.15h0Zm-.17.45l-.02.03.25-2.23.02-.03-.25,2.23h0Zm-.13.08h-.01s.27-2.26.27-2.26h.01s-.27,2.26-.27,2.26h0Zm-.09-.28v-.06s.28-2.19.28-2.19v.06s-.28,2.19-.28,2.19h0Zm-.04-.63v-.1s.3-2.06.3-2.06v.1s-.3,2.06-.3,2.06h0Zm0-.97v-.14s.3-1.88.3-1.88v.14s-.3,1.88-.3,1.88h0Zm.06-1.28v-.17s.29-1.64.29-1.64v.17s-.29,1.64-.29,1.64h0Zm.1-1.54l.02-.2.26-1.34-.02.2-.26,1.34h0Zm.15-1.76l.02-.22.24-1.01-.02.22-.24,1.01h0Zm.18-1.93l.02-.24.2-.65-.02.24-.2.65h0Zm.22-2.04l.03-.25.16-.27-.03.25-.16.27h0Zm.24-2.09l.03-.25.11.13-.03.25-.11-.13h0Zm.26-2.07l.03-.24.07.51-.03.24-.07-.51h0Zm.27-1.99l.03-.23v.88s-.02.23-.02.23v-.88h-.01Zm.28-1.85l.03-.21-.04,1.23-.03.21.04-1.23h0Zm.27-1.66l.03-.18-.09,1.54-.03.18.09-1.54h0Zm.26-1.41l.03-.15-.14,1.8-.03.15.14-1.8h0Zm.24-1.12l.03-.11-.18,2.01-.03.11.18-2.01h0Zm.21-.8l.02-.07-.22,2.15-.02.07.22-2.15h0Zm.17-.45l.02-.03-.25,2.23-.02.03.25-2.23h0Z"/><path id="Scale-2" class="cls-29" d="m663.89,736.7l-.16,1.23v-.04s.15-1.23.15-1.23v.04Zm.1.09l-.15,1.25h-.02s.15-1.24.15-1.24h.02Zm-.16-.57v.08s-.16,1.18-.16,1.18v-.08s.16-1.18.16-1.18Zm.29.33l-.13,1.22-.02.05.13-1.22.02-.05Zm-.3-1.09v.12s-.17,1.1-.17,1.1v-.12s.17-1.1.17-1.1Zm.47.53l-.11,1.16-.02.09.11-1.16.02-.09Zm-.44-1.57v.15s-.17.98-.17.98v-.15s.17-.98.17-.98Zm.64.71l-.09,1.06-.03.13.09-1.06.03-.13Zm-.56-2.01v.19s-.17.83-.17.83v-.19s.17-.83.17-.83Zm.78.87l-.06.93-.03.17.06-.93.03-.17Zm-.67-2.38l-.02.21-.14.66.02-.21.14-.66Zm.9,1l-.04.77-.03.2.04-.77.03-.2Zm-.75-2.68l-.02.23-.12.46.02-.23.12-.46Zm1,1.11v.59s-.04.22-.04.22v-.59s.04-.22.04-.22Zm-.81-2.9l-.03.24-.1.25.03-.24.1-.25Zm1.06,1.17l.02.39-.03.24-.02-.39.03-.24Zm-.85-3.03l-.03.25-.08.04.03-.25.08-.04Zm1.14,1.38l-.03.25-.05-.18.03-.25.05.18Zm-.91-3.25l-.03.25-.05-.18.03-.25.05.18Zm1.17,1.16l-.03.25-.08.04.03-.25.08-.04Zm-.95-3.36l.02.39-.03.24-.02-.39.03-.24Zm1.18,1.29l-.03.24-.1.26.03-.24.1-.26Zm-.9-3.2v.59s-.04.22-.04.22v-.59s.04-.22.04-.22Zm1.1,1.2l-.02.23-.12.46.02-.23.12-.46Zm-.83-2.94l-.04.77-.03.2.04-.77.03-.2Zm1,1.08l-.02.21-.14.66.02-.21.14-.66Zm-.73-2.59l-.06.93-.03.17.06-.93.03-.17Zm.86.93v.19s-.17.83-.17.83v-.19s.17-.83.17-.83Zm-.61-2.16l-.09,1.06-.03.13.09-1.06.03-.13Zm.69.75v.15s-.17.98-.17.98v-.15s.17-.98.17-.98Zm-.47-1.67l-.11,1.16-.02.09.11-1.16.02-.09Zm.51.55v.12s-.17,1.1-.17,1.1v-.12s.17-1.1.17-1.1Zm-.32-1.13l-.13,1.22-.02.05.13-1.22.02-.05Zm.31.33v.08s-.16,1.19-.16,1.19v-.08s.16-1.19.16-1.19Zm-.16-.56l-.15,1.25h-.02s.15-1.24.15-1.24h.02Zm.1.14l-.16,1.24v-.04s.15-1.24.15-1.24v.04Z"/><g id="Compass"><g id="Arrow"><polygon id="path-2" class="cls-29" points="665.33 724.76 663.66 734.62 665.15 727.37 665.33 724.76 666.84 717.3 665.15 727.37 665.33 724.76"/></g><g class="cls-99"><polygon id="Arrow-2" class="cls-28" points="666.93 715.91 666.73 718.89 665.14 727.55 665.34 724.57 666.93 715.91"/></g></g></g></g><path class="cls-86" d="m667.39,728.25l-.16.82c-.05.26-.09.39-.12.37s-.03-.21-.01-.51l.06-1-1.19,6.18c0,.09,0,.15.01.16l.95,1.06s.02-.03.04-.09l.42-6.98Z"/><path class="cls-86" d="m667.52,721.18c-.04.19-.08.48-.12.8l-1.36,11.1c-.03.21-.05.4-.06.58l1.18-6.15.35-6.32Z"/><path class="cls-86" d="m667.04,734.84c.03-.17.05-.36.08-.57l1.36-11.12c.04-.3.06-.57.08-.79l-1.1,5.53-.42,6.96Z"/><path class="cls-86" d="m667.26,728.57l1.31-6.58s0-.03,0-.04l-.97-1.05h0s-.42,7.57-.42,7.57c-.02.41.02.46.09.1Z"/><path id="Combined-Shape" class="cls-29" d="m670.08,724c.07.07.08.24.07.52s-.03.68-.08,1.17-.1.97-.26,2.28l-.69,5.62c-.16,1.31-.23,1.77-.3,2.24s-.14.82-.19,1.04-.1.34-.16.26l-.36-.4c-.07-.07-.07-.24-.07-.52s.03-.68.08-1.17c.05-.49.1-.97.26-2.28l.69-5.61c.16-1.31.22-1.77.3-2.23.07-.46.14-.82.19-1.05s.1-.34.16-.27l.36.4Zm.37,1.63c-.02.22-.04.5-.08.78l-1.16,9.46c-.08.65-.17,1.14-.2,1.11-.01-.02-.02-.13,0-.32l.16-2.82c.01-.22.02-.31.03-.42,0-.11.02-.22.03-.35.01-.12.03-.24.06-.55l.41-3.36c.04-.32.05-.44.07-.56.02-.12.03-.23.05-.33h0c.02-.11.03-.19.07-.38l.48-2.47c.08-.39.11-.29.07.22Z"/><path class="cls-5" d="m675.37,737.28c0-.06,0-.11.01-.17,0-.06,0-.12.01-.18,0,0,0,0-.01,0s0-.02-.01-.03c0,.06-.02.11-.03.17,0,.05-.02.1-.03.15,0,.08-.02.16-.03.24s-.02.16-.03.24c0,.06,0,.11-.01.17,0,.06,0,.12-.01.18,0,0,0,0,.01,0s0,.02.01.03c0-.06.02-.11.03-.17,0-.05.02-.1.03-.15,0-.08.02-.16.03-.24s.02-.16.03-.23Z"/><path class="cls-85" d="m675.39,736.93c0-.1.02-.21.02-.31-.02.1-.03.19-.05.29,0,0,0,.02.01.03s0,0,.01,0Z"/><path class="cls-85" d="m675.96,732.05c-.01.16-.02.32-.04.5.03-.16.05-.31.08-.45l.47-2.51c.02-.13.05-.25.07-.35.19-1.7.27-3.07.18-3.17s-.33,1.11-.55,2.78c0,.12-.01.25-.02.4l-.19,2.81Z"/><path class="cls-42" d="m674.67,742.92c.01-.16.02-.32.04-.5-.03.16-.05.31-.08.45l-.46,2.5c-.02.13-.05.25-.07.35-.19,1.7-.27,3.07-.18,3.17s.33-1.1.55-2.77c0-.12.01-.25.02-.4l.19-2.81Z"/><path class="cls-42" d="m675.23,738.04c0,.1-.02.2-.02.31.02-.1.03-.19.05-.28,0,0,0-.02-.01-.03s0,0-.01,0Z"/><path class="cls-73" d="m675.34,737.52c0,.08-.02.16-.03.24.02-.08.03-.15.04-.22,0-.08,0-.16.01-.25,0,.08-.02.16-.03.23Z"/><path class="cls-73" d="m675.91,738.14c.22-1.77.33-3.3.27-3.67-.03.15-.05.29-.07.43l-.47,2.51c-.03.14-.05.26-.07.37,0,.13-.01.26-.02.42l-.19,2.81c0,.15-.02.31-.04.47.12-.18.37-1.57.58-3.33Z"/><path class="cls-64" d="m674.98,737.57c.03-.14.05-.26.07-.37,0-.13.01-.26.02-.42l.19-2.81c0-.15.02-.31.04-.47-.12.18-.37,1.57-.58,3.33s-.33,3.29-.27,3.67c.02-.15.05-.29.07-.43l.46-2.5Z"/><path class="cls-64" d="m675.31,737.22c-.02.08-.03.15-.04.22,0,.08,0,.16-.01.25,0-.08.02-.16.03-.24s.02-.16.03-.24Z"/><path class="cls-87" d="m676,733.58c-.03.21-.05.41-.08.61.01-.02.03-.03.04-.02l.2.21s.02.04.02.08c.22-1.33.45-3.28.54-4.6.09-1.32,0-1.55-.19-.63-.02.19-.04.39-.07.58l-.46,3.76Z"/><path class="cls-87" d="m675.37,737.28c.02-.13.03-.25.05-.38,0,.01-.02.02-.03.02,0,.06,0,.12-.01.18,0,.06,0,.11-.01.17Z"/><path class="cls-91" d="m676,732.09c-.03.14-.05.29-.08.45-.11,1.27-.31,2.91-.5,4.08,0,.11-.02.21-.02.31,0,0,.02,0,.03-.02.19-1.45.4-2.55.5-2.72.03-.2.05-.4.08-.61l.46-3.76c.02-.2.05-.39.07-.58-.02.1-.04.22-.07.35l-.47,2.51Z"/><path class="cls-70" d="m675.96,734.17s-.02,0-.04.02c-.19,1.45-.4,2.55-.5,2.72-.02.12-.03.25-.05.38,0,.09,0,.17-.01.25.17-.79.25-.69.21.23.02-.11.05-.23.07-.37l.47-2.51c.02-.13.05-.28.07-.43,0-.04-.01-.07-.02-.08l-.2-.21Z"/><path class="cls-71" d="m675.92,734.19c-.11.17-.31,1.26-.5,2.72.11-.17.31-1.26.5-2.72Z"/><path class="cls-74" d="m675.25,737.69c-.02.13-.03.25-.05.38,0-.01.02-.02.03-.02,0-.06,0-.12.01-.18,0-.06,0-.11.01-.17Z"/><path class="cls-74" d="m674.62,741.39c.03-.21.05-.41.08-.61-.01.02-.03.03-.04.02l-.2-.22s-.02-.04-.02-.08c-.22,1.33-.45,3.27-.54,4.59-.09,1.32,0,1.55.19.64.02-.19.04-.38.07-.58l.46-3.76Z"/><path class="cls-74" d="m674.63,742.88c.03-.14.05-.29.08-.45.11-1.27.31-2.9.5-4.07,0-.11.02-.21.02-.31,0,0-.02,0-.03.02-.19,1.45-.4,2.54-.5,2.71-.03.2-.05.4-.08.61l-.46,3.76c-.02.2-.05.39-.07.58.02-.1.04-.22.07-.35l.46-2.5Z"/><path class="cls-44" d="m674.66,740.8s.02,0,.04-.02c.19-1.45.4-2.54.5-2.71.02-.12.03-.25.05-.38,0-.09,0-.17.01-.25-.17.79-.25.69-.21-.23-.02.11-.05.23-.07.37l-.46,2.5c-.02.13-.05.28-.07.43,0,.04.01.07.02.08l.2.22Z"/><path class="cls-47" d="m674.7,740.78c.11-.17.31-1.26.5-2.71-.11.17-.31,1.26-.5,2.71Z"/><path class="cls-48" d="m675.09,741.27s-.02-.05-.02-.09c-.02.2-.05.41-.07.62l-.46,3.76c-.02.2-.05.39-.07.58-.05,1.08.07,1.07.28-.11.22-1.17.46-3.11.58-4.56-.01.02-.03.03-.04.02l-.2-.22Z"/><path class="cls-48" d="m675.25,738.07s.01.04.01.07c.01-.13.03-.25.04-.38,0,.05-.02.1-.03.15,0,.05-.02.11-.03.17Z"/><path class="cls-59" d="m674.99,741.8c.03-.21.05-.42.07-.62-.04-.34.04-1.56.2-3.05,0-.03,0-.05-.01-.07-.02.09-.03.19-.05.28-.11,1.27-.31,2.9-.5,4.07-.01.17-.03.34-.04.5l-.19,2.81c0,.15-.02.28-.02.4.02-.19.05-.38.07-.58l.46-3.76Z"/><path class="cls-56" d="m675.55,738.19c.01-.16.02-.3.02-.42-.17.79-.25.69-.21-.23-.01.07-.03.14-.04.22-.02.13-.03.26-.04.38.05.34-.04,1.56-.2,3.05,0,.05.01.08.02.09l.2.22s.02,0,.04-.02c.01-.16.03-.32.04-.47l.19-2.81Z"/><path class="cls-55" d="m675.07,741.18c.17-1.48.25-2.71.2-3.05-.17,1.48-.25,2.71-.2,3.05Z"/><path class="cls-53" d="m675.36,737.54c-.04.93.04,1.02.21.23.04-.93-.04-1.02-.21-.23Z"/><path class="cls-60" d="m674.71,742.43c.19-1.17.39-2.81.5-4.07-.19,1.17-.39,2.81-.5,4.07Z"/><path class="cls-81" d="m675.37,736.9s-.01-.04-.01-.07c-.01.13-.03.25-.04.38,0-.05.02-.1.03-.15,0-.05.02-.11.03-.17Z"/><path class="cls-81" d="m675.53,733.7s.02.05.03.09c.02-.2.05-.41.07-.62l.46-3.76c.02-.2.05-.39.07-.58.05-1.07-.07-1.06-.28.12-.22,1.18-.46,3.11-.58,4.55.01-.02.03-.03.04-.02l.2.21Z"/><path class="cls-95" d="m675.63,733.17c-.03.21-.05.42-.07.62.05.34-.04,1.56-.2,3.05,0,.03,0,.05.01.07.02-.09.03-.19.05-.29.11-1.27.31-2.9.5-4.08.01-.17.03-.34.04-.5l.19-2.81c0-.15.02-.28.02-.4-.02.19-.05.38-.07.58l-.46,3.76Z"/><path class="cls-61" d="m675.08,736.78c-.01.16-.02.3-.02.42.17-.79.25-.69.21.23.01-.07.03-.14.04-.22.02-.13.03-.26.04-.38-.05-.34.04-1.56.2-3.05,0-.05-.01-.08-.03-.09l-.2-.21s-.02,0-.04.02c-.01.16-.03.32-.04.47l-.19,2.81Z"/><path class="cls-62" d="m675.56,733.79c-.17,1.48-.25,2.71-.2,3.05.17-1.48.25-2.71.2-3.05Z"/><path class="cls-94" d="m675.92,732.54c-.19,1.17-.4,2.81-.5,4.08.19-1.17.4-2.81.5-4.08Z"/><path class="cls-45" d="m675.06,737.2c-.04.93.04,1.02.21.23.04-.93-.04-1.02-.21-.23Z"/><path class="cls-66" d="m679.61,729.67l-2.63,21.42c-.31,2.54-.67,4.47-.8,4.32l-1.11-1.26c-.13-.15.01-2.32.32-4.85l2.62-21.36c.31-2.53.67-4.46.8-4.32l1.12,1.2c.13.14,0,2.31-.32,4.85Z"/><path class="cls-68" d="m683.82,734.2l-2.66,21.58c-.31,2.55-.68,4.5-.81,4.35l-1.13-1.28c-.13-.15.01-2.34.33-4.89l2.65-21.52c.31-2.55.68-4.49.81-4.35l1.14,1.22c.14.14,0,2.32-.32,4.88Z"/><path class="cls-21" d="m685.94,736.48l-2.67,21.66c-.32,2.56-.68,4.52-.82,4.37l-1.14-1.29c-.13-.15.01-2.35.33-4.91l2.66-21.6c.32-2.56.68-4.51.81-4.36l1.15,1.23c.14.15,0,2.33-.32,4.9Z"/><path class="cls-52" d="m679.61,729.67l-1.24,10.08-1.39,11.34c-.27,2.22-.58,3.98-.74,4.28l1.94-15.84,1.79-14.58c.06.52-.08,2.47-.36,4.72Z"/><path class="cls-52" d="m679.61,729.67l-1.24,10.08-1.39,11.34c-.27,2.22-.58,3.98-.74,4.28l1.94-15.84,1.79-14.58c.06.52-.08,2.47-.36,4.72Z"/><path class="cls-96" d="m678.37,739.75l-1.39,11.34c-.27,2.22-.58,3.98-.74,4.28l1.94-15.84.19.21Z"/><path class="cls-57" d="m677.36,747.96l-.39,3.14c-.27,2.22-.58,3.98-.74,4.28l.94-7.63.19.21Z"/><line class="cls-82" x1="676.24" y1="755.37" x2="679.97" y2="724.95"/><path class="cls-69" d="m679.61,729.68l-.37,3.01-.19-.21.92-7.51c.06.52-.08,2.47-.36,4.72Z"/><path class="cls-2" d="m677.95,740.01c-.67,5.42-1.43,9.55-1.72,9.23s.03-4.95.69-10.36c.66-5.41,1.43-9.55,1.72-9.24s-.03,4.95-.69,10.37Z"/><path class="cls-72" d="m677.89,737.51c-.24,1.99-.53,3.52-.63,3.4s0-1.82.25-3.82.53-3.52.63-3.4,0,1.82-.25,3.82Z"/><path class="cls-72" d="m676.23,749.25c-.23-.26-.08-2.27,0-3.3.36-2.26.69-3.68.84-3.51s.1,1.73-.09,3.98c-.11,1-.51,3.1-.75,2.84Z"/><path class="cls-41" d="m680.15,734.01c0-.14.01-.33.04-.57.02-.24.05-.51.09-.82v-.03s.06.06.06.06v.02c-.02.13-.03.24-.04.34,0,.1-.01.18-.02.24s0,.09,0,.1c.01.01.03-.04.05-.17.02-.12.05-.31.08-.56l.41-3.37.05.06-.42,3.38c-.06.52-.12.92-.17,1.19-.05.27-.09.39-.12.36-.02-.02-.03-.1-.02-.24Z"/><path class="cls-41" d="m680.39,734.23c0-.17.02-.4.04-.68s.06-.61.1-.98l.39-3.2.05.06-.38,3.1c-.04.32-.07.58-.08.78s-.01.31,0,.33.04-.06.08-.24c.03-.18.07-.43.11-.75l.38-3.11.05.06-.39,3.2c-.04.37-.09.68-.13.95-.04.27-.08.47-.12.6-.04.14-.06.19-.09.17s-.03-.12-.03-.29Z"/><path class="cls-41" d="m681.19,729.65l.05.05-.33,4.02.03-.7.02.02.4-3.22.05.06-.61,4.95-.05-.05.34-4.04-.03.7-.02-.02-.4,3.24-.05-.06.61-4.95Z"/><path class="cls-39" d="m679.79,741.33v-.04s-.38-.42-.38-.42l.18-1.51.47.52-.19,1.57-1.79,11.65-.09-.1,1.8-11.67Z"/><path class="cls-86" d="m680.83,753.1s0-.16.02-.4c.03-.33.09-.7.12-.83.37-1.35.9-4.61,1.35-8.3.64-5.24.94-9.75.67-10.05s-1.02,3.72-1.67,8.95c-.45,3.64-.75,7.13-.77,8.89,0,.17-.04.56-.09.87-.05.31-.08.42-.08.25.02-1.99.36-5.95.87-10.08.73-5.93,1.58-10.49,1.89-10.15s-.03,5.45-.76,11.4c-.52,4.19-1.12,7.88-1.53,9.42,0,.03-.02.05-.02.04Z"/><path class="cls-86" d="m681.41,748.56s0-.08,0-.21c.02-.26.07-.67.11-.9.2-1.05.41-2.5.61-4.09.4-3.27.59-6.07.42-6.26s-.64,2.32-1.04,5.58c-.19,1.52-.33,2.99-.41,4.15-.02.27-.07.67-.11.9s-.06.19-.04-.08c.1-1.41.28-3.2.5-5.04.49-3.96,1.05-7.01,1.26-6.78s-.02,3.64-.51,7.61c-.24,1.92-.5,3.69-.74,4.97-.02.12-.04.17-.05.16Z"/><path class="cls-86" d="m682.06,742.3c-.18,1.43-.38,2.53-.46,2.45s0-1.31.18-2.74.38-2.53.46-2.45,0,1.31-.18,2.75Z"/><path class="cls-86" d="m681.09,747.6c-.16,1.28-.65,5.45-.8,6.84s-.12,1.47-.07,1.52.14-.31.27-1.3.67-5.11.89-6.86c.19-1.59.18-2.09.11-2.16s-.2.41-.4,1.96Z"/><line class="cls-1" x1="687.17" y1="732.8" x2="682.99" y2="766.67"/><path class="cls-86" d="m684.8,738.35l.15-.88c.1-.61.16-.78.15-.37v.06c-.01.38-.1,1.14-.19,1.71l-1.58,9.99.24.27s0,.95-.28,2.9l-.63-.7s0-.72.1-1.51h0c.1-.79.21-1.39.25-1.34l.15.19,1.22-7.66.22-2.44c.06-.63.16-1.4.24-1.79h0c.09-.43.12-.22.06.45l-.1,1.12Z"/><path class="cls-86" d="m684.47,742.03c-.11.46-.31,1.95-.4,2.78-.04.3-.07.59-.09.86-.17,1.79-.88,9.52-.96,10.49-.1,1.25.17.11.31-1.43l.22-2.41.1.11s.15-.55.25-1.33h0c.1-.78.14-1.45.1-1.5l-.18-.2s.59-6.48.66-7.35Z"/><path class="cls-86" d="m682.68,752.93s-.25,1.58-.36,2.26-.27.78.04-1.48l.28-1.82s.06-.12.08.08-.04.94-.04.94Z"/><polygon class="cls-50" points="701.51 348.46 704.01 349.36 712.05 283.44 709.51 282.82 701.51 348.46"/><g class="cls-100"><path class="cls-80" d="m709.6,293.63c.29-2.34.41-4.27.29-4.3l-1.28-.33c-.13-.03-.46,1.84-.75,4.17-.28,2.34-.41,4.26-.29,4.29l1.28.34c.13.03.46-1.84.75-4.18"/><path class="cls-8" d="m709.66,292.75c.29-2.34.41-4.27.29-4.3l-1.28-.32c-.13-.03-.46,1.84-.75,4.17-.28,2.34-.41,4.26-.29,4.29l1.28.34c.13.03.46-1.84.75-4.18Z"/></g><polygon class="cls-8" points="708.01 296.68 708.54 296.82 709.57 288.35 709.04 288.21 708.01 296.68"/><g class="cls-102"><path class="cls-78" d="m709.39,290.89s.04-.17.07-.38.04-.39.03-.39-.04.17-.07.38-.04.39-.03.39"/><path class="cls-78" d="m709.14,293.01s.04-.17.07-.38.04-.39.03-.39-.04.17-.07.38-.04.39-.03.39"/><path class="cls-78" d="m708.88,295.13s.04-.17.07-.38.04-.39.03-.39-.04.17-.07.38-.04.39-.03.39"/><path class="cls-78" d="m709.53,290.92s.04-.17.07-.38.04-.39.03-.39-.04.17-.07.38-.04.39-.03.39"/><path class="cls-78" d="m709.27,293.04s.04-.17.07-.38.04-.39.03-.39-.04.17-.07.38-.04.39-.03.39"/><path class="cls-78" d="m709.01,295.17s.04-.17.07-.38.04-.39.03-.39-.04.17-.07.38-.04.39-.03.39"/><path class="cls-78" d="m709.66,290.96s.04-.17.07-.38.04-.39.03-.39-.04.17-.07.38-.04.39-.03.39"/><path class="cls-78" d="m709.4,293.08s.04-.17.07-.38.04-.39.03-.39-.04.17-.07.38-.04.39-.03.39"/><path class="cls-78" d="m709.14,295.2s.04-.17.07-.38.04-.39.03-.39-.04.17-.07.38-.04.39-.03.39"/><path class="cls-78" d="m708.61,290.68s.04-.17.07-.38.04-.39.03-.39-.04.17-.07.38-.04.39-.03.39"/><path class="cls-78" d="m708.35,292.8s.04-.17.07-.38.04-.39.03-.39-.04.17-.07.38-.04.39-.03.39"/><path class="cls-78" d="m708.09,294.92s.04-.17.07-.38.04-.39.03-.39-.04.17-.07.38-.04.39-.03.39"/><path class="cls-80" d="m705.68,341.84c.29-2.34.41-4.28.29-4.32l-1.28-.43c-.13-.04-.46,1.82-.74,4.15s-.41,4.26-.29,4.31l1.27.45c.13.05.46-1.82.75-4.16"/><path class="cls-8" d="m705.74,340.95c.29-2.34.41-4.28.29-4.32l-1.28-.43c-.13-.04-.46,1.82-.74,4.15-.28,2.33-.41,4.26-.29,4.31l1.27.45c.13.04.46-1.82.75-4.16Z"/><polygon class="cls-8" points="704.09 344.79 704.62 344.98 705.65 336.51 705.12 336.33 704.09 344.79"/><path class="cls-78" d="m704.43,338.7s.04-.17.07-.38.04-.39.03-.39-.04.17-.07.38-.04.39-.03.39"/><path class="cls-78" d="m704.17,340.81s.04-.17.07-.38.04-.39.03-.39-.04.17-.07.38-.04.39-.03.39"/><path class="cls-78" d="m703.91,342.93s.04-.17.07-.38.04-.39.03-.39-.04.17-.07.38-.04.39-.03.39"/><path class="cls-78" d="m704.56,338.74s.04-.17.07-.38.04-.39.03-.39-.04.17-.07.38-.04.39-.03.39"/><path class="cls-78" d="m704.3,340.86s.04-.17.07-.38.04-.39.03-.39-.04.17-.07.38-.04.39-.03.39"/><path class="cls-78" d="m704.04,342.98s.04-.17.07-.38.04-.39.03-.39-.04.17-.07.38-.04.39-.03.39"/><path class="cls-78" d="m704.69,338.79s.04-.17.07-.38.04-.39.03-.39-.04.17-.07.38-.04.39-.03.39"/><path class="cls-78" d="m704.43,340.91s.04-.17.07-.38.04-.39.03-.39-.04.17-.07.38-.04.39-.03.39"/><path class="cls-78" d="m704.18,343.02s.04-.17.07-.38.04-.39.03-.39-.04.17-.07.38-.04.39-.03.39"/></g><path class="cls-86" d="m705.1,325.05h.03s.02.07.02.17c0,.1-.02.24-.04.44-.02.13-.03.24-.05.33-.02.09-.03.14-.04.16h0s0,.1,0,.19c0,.09-.02.21-.04.37-.03.21-.05.37-.07.48-.02.11-.04.16-.05.16h-.04s.28-2.3.28-2.3Zm-.12,1.02h.03s.02-.02.04-.09c.01-.07.03-.18.05-.33s.03-.26.03-.33c0-.07,0-.11-.01-.11h-.02s-.11.87-.11.87Zm-.02.14l-.12.99h.03s.06-.15.1-.49c.04-.31.05-.47.02-.48h-.03Zm0,1.2s-.01-.08,0-.24c.01-.15.03-.37.07-.64s.06-.49.09-.65c.03-.16.05-.24.06-.24.01,0,.01.08,0,.22-.01.14-.03.33-.06.57l-.02.12-.07-.02c-.03.23-.05.41-.06.54,0,.12,0,.19,0,.19,0,0,.01,0,.02-.02,0-.01.01-.04.03-.08l-.02.14s-.02.07-.02.08-.01.02-.02.02Zm.2-1.63s-.02.05-.04.15c-.02.11-.04.26-.07.46l.06.02c.02-.2.04-.35.05-.46,0-.11,0-.17,0-.17Zm-.03,1.65l.03-.27h0c-.02.11-.03.18-.04.23-.01.04-.02.06-.03.06,0,0-.01-.05,0-.13,0-.09.02-.21.04-.36.02-.17.04-.29.06-.38.02-.09.04-.13.05-.13h.02s.01-.12.01-.12c.02-.16.03-.28.04-.37,0-.08,0-.13,0-.13,0,0-.02.04-.04.12v-.14c.03-.08.05-.12.06-.12s.01.05,0,.15-.02.25-.05.46l-.14,1.13h0Zm-.02-.12s.02-.05.04-.15c.02-.1.04-.24.06-.43l.02-.17h-.02s-.03.05-.04.11c-.01.06-.03.16-.04.29-.01.11-.02.19-.02.25,0,.06,0,.09,0,.09Zm.33-1.41h-.02s-.19,1.56-.19,1.56h0s.19-1.57.19-1.57h-.02s.01-.1.01-.1l.02-.05.02-.13c.03-.21.05-.36.06-.46.02-.1.03-.14.04-.14,0,0,0,.02.01.05l-.02.13s0-.04,0-.04c0,0-.02.03-.03.1-.01.07-.03.19-.05.35l-.02.16h.02s-.02.14-.02.14Zm-.16,1.57h0s.3-2.43.3-2.43h0s-.3,2.43-.3,2.43Zm.25-1.69l-.13,1.1c-.02.17-.03.3-.04.37,0,.08,0,.12,0,.12.01,0,.03-.04.04-.15.02-.1.04-.27.07-.5l.11-.94h0s-.21,1.7-.21,1.7h0s.03-.24.03-.24h0c-.03.18-.05.26-.06.26-.02,0,0-.22.04-.63l.14-1.11h0Zm.16.19h-.02s-.19,1.56-.19,1.56h0s.19-1.57.19-1.57h-.02s.01-.1.01-.1l.02-.05.02-.13c.03-.21.05-.36.06-.46.02-.1.03-.14.04-.14,0,0,0,.02.01.05l-.02.13s0-.04,0-.04c0,0-.02.03-.03.1-.01.07-.03.19-.05.35l-.02.16h.02s-.02.14-.02.14Zm.08-.45s0-.05.01-.15.02-.15.02-.15c0,0,0,.01,0,.04,0,.03,0,.06-.01.11s-.01.08-.02.11c0,.03,0,.04,0,.04h0Zm-.24,2.02h0s.21-1.7.21-1.7h0s-.21,1.7-.21,1.7Zm.31-1.67v.11s-.03.02-.03.02c0,.12-.02.25-.04.39-.02.16-.04.3-.06.4-.02.1-.03.15-.04.14,0,0,0,0,0-.01,0,.03-.01.07-.02.11,0,.04-.01.09-.02.14,0,.05-.01.09-.01.12,0,.03,0,.04,0,.04h.02s.01.05,0,.12c0,.08-.01.19-.03.33-.02.18-.04.32-.06.41-.02.09-.04.14-.05.14-.01,0-.02-.05-.01-.13,0-.08.01-.2.03-.35.01-.12.03-.21.04-.29.01-.08.03-.13.04-.15,0-.02,0-.05,0-.1,0-.04,0-.09.01-.14.01-.11.03-.21.05-.3,0-.04,0-.11.01-.2,0-.09.02-.19.03-.3.02-.17.04-.31.06-.41.02-.1.03-.15.04-.15,0,0,0,.01.01.04h.03Zm-.25,1.6s-.04.11-.07.36-.03.35-.01.36c.02,0,.05-.13.09-.42.01-.1.02-.18.02-.22,0-.05,0-.07,0-.07h-.02Zm.11-1.1c-.02.13-.03.23-.03.31,0,.07,0,.11,0,.11,0,0,.02-.03.03-.1.01-.07.03-.17.04-.31.02-.14.03-.25.03-.33,0-.07,0-.11,0-.11s-.02.03-.03.11-.03.18-.05.32Zm0,1.22l.13-1.1c.02-.17.03-.3.04-.37,0-.08,0-.12,0-.12-.01,0-.03.05-.04.15-.02.1-.04.27-.07.5l-.11.94h0s.3-2.44.3-2.44h0s-.09.78-.09.78l-.03.22h0c.02-.1.03-.17.04-.22.01-.04.02-.07.03-.06.02,0,0,.22-.04.63l-.14,1.11h0Zm.08-.09s.01,0,.02-.02l-.02.13s-.01.03-.02.03c0,0,0-.04,0-.13,0-.08.02-.21.04-.38l.13-1.1h-.01s.01-.1.01-.1l.02-.07.05-.38h0s-.05.41-.05.41h.03s-.02.14-.02.14h-.03s-.13,1.07-.13,1.07c-.02.13-.03.23-.03.29,0,.06,0,.1,0,.1Zm.05.16s-.01-.08,0-.24c.01-.15.03-.37.07-.64s.06-.49.09-.65c.03-.16.05-.24.06-.24.01,0,.01.08,0,.22-.01.14-.03.33-.06.57l-.02.13-.07-.02c-.03.23-.05.41-.06.54,0,.12,0,.19,0,.19,0,0,.01,0,.02-.02,0-.01.01-.04.03-.08l-.02.14s-.02.07-.02.08-.01.02-.02.02Zm.2-1.63s-.02.05-.04.16c-.02.11-.04.26-.07.46l.06.02c.02-.2.04-.35.05-.46,0-.11,0-.17,0-.17Zm.11-.11s0,0,0,.03l-.02.15s0-.03,0-.03c0,0-.02.06-.04.18-.02.12-.04.28-.06.46l-.11.94h0s.21-1.7.21-1.7h0s-.04.31-.04.31h0c.02-.12.03-.21.04-.26.01-.05.02-.07.02-.07Z"/><path class="cls-86" d="m704.4,331.18l.12-1.14c0-.08.02-.19.04-.34h0s-.02.11-.02.11l-.03.23-.16,1.12h0s.18-1.71.18-1.71h0s-.11.99-.11.99c-.03.24-.05.42-.06.54h0c.03-.24.06-.4.07-.48l.15-1.03h0s-.11,1.04-.11,1.04c-.03.25-.04.41-.05.49h0c0-.07.03-.25.07-.54l.13-.97h0s-.23,1.69-.23,1.69h0Z"/><path class="cls-86" d="m704.72,329.03c.01-.1.02-.15.02-.15,0,0,0,.01,0,.04,0,.03,0,.06-.01.11s-.01.08-.01.11c0,.03,0,.04,0,.04,0,0,0-.05.01-.15Zm-.25,2.17h0s.21-1.7.21-1.7h0s-.21,1.7-.21,1.7Z"/><path class="cls-86" d="m704.53,331.11s.01,0,.02-.02l-.02.12s-.01.03-.02.03c0,0,0-.04,0-.13,0-.08.02-.21.04-.38l.13-1.1h-.01s.01-.1.01-.1l.02-.07.05-.38h0s-.05.41-.05.41h.03s-.02.14-.02.14h-.03s-.13,1.07-.13,1.07c-.02.13-.03.23-.03.29,0,.06,0,.1,0,.1Z"/><path class="cls-86" d="m704.61,331.25l.13-1.1c.02-.17.03-.3.04-.37,0-.08,0-.12,0-.12-.01,0-.03.05-.04.15-.02.1-.04.27-.07.5l-.11.94h0s.3-2.43.3-2.43h0s-.09.78-.09.78l-.03.22h0c.02-.1.03-.17.04-.22.01-.04.02-.06.03-.06.02,0,0,.22-.04.63l-.14,1.11h0Z"/><path class="cls-86" d="m704.75,331.3l.19-1.8h0c-.04.36-.07.61-.09.73l-.13,1.06h-.02s.28-2.29.28-2.29h.04s-.18,1.77-.18,1.77h0s.24-1.74.24-1.74h.04s-.28,2.3-.28,2.3h-.02s.13-1.09.13-1.09c0-.05.01-.11.02-.18,0-.07.03-.24.07-.53h0s-.25,1.78-.25,1.78h-.02Z"/><path class="cls-86" d="m704.9,331.38s-.02-.09,0-.24c.01-.16.03-.38.07-.66s.07-.52.09-.67c.03-.16.05-.23.06-.23s.02.08,0,.22-.03.34-.06.59l-.03.23-.06-.02c-.02.14-.03.24-.03.32,0,.08,0,.12,0,.12,0,0,.01,0,.02-.03s.02-.05.03-.1l-.04.37s-.02.07-.03.09c0,.02-.02.03-.02.02Zm.18-1.47s-.01.03-.02.09c-.01.06-.02.15-.04.27h.04c.01-.11.02-.2.03-.26,0-.07,0-.1,0-.1Z"/><path class="cls-86" d="m704.99,331.41s-.01-.09,0-.25c.01-.16.04-.38.07-.67s.07-.51.09-.67c.03-.16.04-.23.06-.23.01,0,.01.09,0,.27h0c.01-.13.03-.25.04-.35l.07-.56h.03s-.3,2.44-.3,2.44h-.02s.02-.23.02-.23h0c-.03.17-.05.25-.06.25Zm.06-.38s.02-.03.03-.1c.01-.07.03-.19.05-.36v-.05c.03-.19.04-.32.05-.4,0-.08,0-.12,0-.13,0,0-.02.04-.03.13-.01.09-.03.22-.05.39s-.04.3-.04.39c0,.09,0,.13,0,.13Z"/><path class="cls-86" d="m705.34,329.2c.02-.16.03-.23.04-.23s0,.08-.01.24c0,.07-.02.13-.02.17,0,.04-.01.06-.02.06,0,0,0-.08.01-.24Zm-.24,2.21h-.03s.21-1.76.21-1.76h.03s-.21,1.76-.21,1.76Z"/><path class="cls-86" d="m705.16,331.46s0-.31.07-.91c.04-.3.07-.52.1-.68.03-.15.05-.23.06-.22.01,0,.02.05.01.13l-.05.37s0-.06,0-.08c0-.02,0-.03,0-.03-.01,0-.04.17-.08.52s-.06.51-.04.52c0,0,.01,0,.02-.03s.02-.06.03-.11l-.05.41s-.02.08-.03.1-.01.02-.02.02Z"/><path class="cls-86" d="m705.27,331.47l.02-.24h0c-.02.1-.03.17-.04.21,0,.04-.02.06-.03.05,0,0-.01-.05,0-.15,0-.1.02-.23.04-.41s.04-.32.06-.41c.02-.09.03-.13.05-.14h.02s0-.08,0-.08c.02-.18.03-.27.02-.27,0,0-.02.04-.04.12l.03-.32c.02-.1.04-.15.06-.15s.02.06.01.16c0,.1-.02.26-.05.47l-.14,1.16h-.02Zm.09-.81h-.01s-.02.03-.03.07c0,.04-.02.11-.03.21-.02.13-.02.2-.01.21,0,0,.01-.03.03-.09.01-.06.02-.15.04-.25l.02-.14Z"/><path class="cls-86" d="m705.59,329.72s0,0,0,.02l-.06.45s0-.02,0-.02c0,0-.02.03-.03.11-.01.08-.03.19-.05.33l-.11.89h-.03s.21-1.76.21-1.76h.02s-.03.3-.03.3h0c.01-.1.03-.17.04-.23.01-.06.02-.09.03-.08Z"/><path class="cls-86" d="m705.43,331.56s-.02-.09,0-.24c.01-.16.03-.38.07-.66s.07-.52.09-.68c.03-.16.05-.23.06-.23s.02.08,0,.22-.03.34-.06.59l-.03.23-.06-.02c-.02.14-.03.24-.03.32,0,.08,0,.12,0,.12,0,0,.01,0,.02-.03s.02-.05.03-.1l-.05.37s-.02.07-.03.09c0,.02-.02.03-.02.02Zm.18-1.47s-.01.03-.02.09c-.01.06-.02.15-.04.27h.04c.01-.11.02-.2.03-.26,0-.07,0-.1,0-.1Z"/><polygon class="cls-78" points="706.73 309.89 708.24 310.33 709.22 302.32 707.7 301.9 706.73 309.89"/><path class="cls-86" d="m707.17,308.13l.05-.11.49-3.99-.02-.12.08-.67.24.07-.19,1.52h-.05s.08-.68.08-.68l-.1-.03-.19,1.53.11.03-.1.86-.11-.03-.19,1.53.02.12-.08.67-.12-.04.08-.67Z"/><path class="cls-86" d="m708.17,303.35s.04.16.03.46c-.02.29-.05.7-.12,1.21-.03.28-.07.52-.1.73-.03.2-.07.37-.1.49,0,.1,0,.27-.02.49-.02.23-.05.51-.09.84l-.03.28c-.01.12-.03.22-.03.29,0,.07,0,.11,0,.12v.02s-.08.67-.08.67h-.03s-.02-.12,0-.32c.02-.2.04-.45.08-.76l.04-.32c.03-.27.05-.48.07-.64.01-.16,0-.24,0-.25h-.05s-.18,1.45-.18,1.45l.02.12-.08.67-.12-.04.08-.67.05-.11.49-3.99-.02-.12.08-.67h.03s.1.04.1.04Zm-.34,2.44h.04s.04-.05.06-.18c.02-.13.05-.32.08-.57s.05-.45.06-.6c0-.15,0-.23,0-.23h-.04s-.19,1.58-.19,1.58Z"/><path class="cls-86" d="m708.14,306.57l-.1-.03-.19,1.59.1.03.08-.66h.05s-.19,1.53-.19,1.53l-.24-.07.08-.67.05-.11.49-3.99-.02-.12.08-.67h.03s.21.07.21.07l-.19,1.52h-.05s.08-.68.08-.68l-.1-.03-.17,1.4.1.03-.1.86Z"/><path class="cls-86" d="m708.41,306.65l-.1-.03-.19,1.59.1.03.08-.66h.05s-.19,1.53-.19,1.53l-.24-.07.08-.67.05-.11.49-3.99-.02-.12.08-.67h.03s.21.07.21.07l-.19,1.53h-.05s.08-.68.08-.68l-.1-.03-.17,1.4.1.03-.1.86Z"/><path class="cls-86" d="m705.67,316.26l.05-.1.49-3.98-.02-.12.08-.67.24.07-.19,1.52h-.05s.08-.68.08-.68l-.1-.03-.19,1.53.11.03-.1.86-.11-.03-.19,1.52.02.12-.08.67-.12-.04.08-.67Z"/><path class="cls-86" d="m705.85,317l.08-.67.05-.1.49-3.98-.02-.12.08-.67h.03s.06.03.06.03h.03s-.08.68-.08.68l-.05.1-.48,3.91.08.03.09-.7h.05s-.19,1.57-.19,1.57l-.23-.07Z"/><path class="cls-86" d="m706.88,311.56l-.08.67-.05.1-.35,2.9c-.04.37-.07.64-.08.83-.01.19,0,.28.01.29s.04-.08.08-.26c.03-.18.07-.45.12-.82l.35-2.9-.02-.12.08-.67.12.04-.08.67-.05.1-.35,2.9c-.08.62-.15,1.1-.21,1.43-.06.33-.11.49-.15.48s-.04-.19-.03-.53c.02-.34.07-.83.14-1.45l.35-2.9-.02-.12.08-.67h.03s.06.03.06.03h.03Z"/><path class="cls-86" d="m707.2,313.49h-.05s.09-.78.09-.78c0-.06,0-.12,0-.17,0-.05-.01-.07-.02-.08-.02,0-.04.06-.06.18-.02.13-.05.29-.07.49-.02.19-.04.34-.04.47,0,.12,0,.26,0,.4.01.18.01.41,0,.7-.02.29-.05.66-.11,1.11s-.11.85-.17,1.12c-.05.27-.1.4-.13.39-.02,0-.04-.08-.04-.23s0-.34.02-.59l.14-1.16h.05s-.09.81-.09.81c0,.09,0,.17,0,.23,0,.06.01.1.02.1.02,0,.04-.05.06-.18.02-.12.05-.29.07-.5s.04-.39.05-.52,0-.26,0-.38c-.01-.2-.01-.44,0-.7.01-.27.05-.63.1-1.08s.11-.82.17-1.1.1-.42.13-.42c.02,0,.04.08.04.21s0,.31-.02.53l-.14,1.14Z"/><path class="cls-86" d="m707.36,312.4l.08-.67.12.04-.08.67-.05.1-.2,1.6.12.04.2-1.6-.02-.12.08-.67h.03s.06.03.06.03h.03s-.08.68-.08.68l-.05.11-.49,3.99.02.12-.08.67-.12-.04.08-.67.05-.1.19-1.53-.12-.04-.19,1.53.02.12-.08.67-.12-.04.08-.67.05-.1.49-3.99-.02-.12Z"/><path class="cls-86" d="m707.7,314.73c-.1.82-.19,1.48-.28,2.01-.09.52-.16.78-.2.77s-.04-.29,0-.83c.04-.54.11-1.22.21-2.03v-.08c.11-.81.2-1.48.29-2.01.09-.53.16-.79.2-.77s.04.29,0,.83c-.04.54-.11,1.22-.21,2.03v.08Zm-.05-.11c.07-.58.12-1.04.15-1.41.03-.36.03-.55,0-.56s-.07.17-.12.52c-.06.35-.12.82-.19,1.4v.09c-.08.59-.13,1.06-.16,1.42-.03.36-.03.55,0,.55s.07-.17.12-.52c.06-.35.12-.82.19-1.41v-.09Z"/><path class="cls-86" d="m708.33,311.99l-.18,1.48h-.05s.07-.64.07-.64l-.06-.02-.48,3.92.02.12-.08.67-.13-.04.08-.67.05-.1.48-3.92-.06-.02-.08.62h-.05s.18-1.5.18-1.5l.27.08Z"/><line class="cls-6" x1="705.89" y1="321.2" x2="706.36" y2="321.35"/><g class="cls-101"><path class="cls-43" d="m703.66,334.62c.08-1.23-.02-1.27-.24-.08.08-1.23-.02-1.27-.24-.08-.21,1.19-.45,3.15-.53,4.38l-.3,4.46.77-4.3c.21-1.19.45-3.15.53-4.38"/><path class="cls-80" d="m702.9,342.41c.04-.6-.01-.62-.12-.04.04-.6-.01-.62-.12-.04-.1.58-.22,1.53-.26,2.14l-.15,2.18.38-2.1c.1-.58.22-1.54.26-2.14"/><path class="cls-80" d="m704.13,330.06c.03-.39,0-.4-.07-.02.03-.39,0-.4-.07-.02-.07.37-.14.99-.17,1.37l-.09,1.4.24-1.35c.07-.37.14-.99.17-1.37"/><path class="cls-43" d="m711.16,286.6c.06-.95-.02-.97-.19-.05.06-.95-.02-.97-.19-.05-.17.93-.35,2.45-.41,3.4l-.23,3.45.6-3.35c.17-.93.35-2.45.41-3.4"/><path class="cls-80" d="m711.23,289.03c.04-.63-.01-.65-.12-.03.04-.63-.01-.65-.12-.03-.11.62-.23,1.63-.28,2.26l-.15,2.29.4-2.23c.11-.62.23-1.63.28-2.26"/><path class="cls-43" d="m710.3,295.62c.03-.4,0-.41-.08-.02.03-.4,0-.4-.08-.02-.07.38-.15,1.02-.17,1.41l-.1,1.43.25-1.39c.07-.38.15-1.02.17-1.41"/></g><path class="cls-23" d="m686.38,761.27l-1.58-1.77c-.08-.09,0-1.38.19-2.88l2.37-19.23c.19-1.5.4-2.65.48-2.57l.4.43s.04.28.02.68l-.07,1.29c-.03.5-.02.79.02.83l.91.98c.08.09,0,1.38-.19,2.89l-2.07,16.78c-.19,1.51-.4,2.65-.48,2.56Z"/><path class="cls-84" d="m685.77,766.26l-1.58-1.78c-.08-.09,0-1.38.19-2.88l2.37-19.23c.19-1.5.4-2.65.48-2.57l1.59,1.72c.08.09,0,1.38-.19,2.89l-2.38,19.29c-.19,1.51-.4,2.65-.48,2.56Z"/><path class="cls-54" d="m686.86,753.41c-.45,3.68-.98,6.49-1.18,6.27s.01-3.38.47-7.06.98-6.49,1.18-6.28-.01,3.38-.47,7.06Z"/><path class="cls-63" d="m686.24,755.16h0s0-.27.04-.57l.56-4.53c.04-.3.08-.52.1-.51h0s0,.27-.04.57l-.56,4.53c-.04.3-.08.52-.1.51Z"/><path class="cls-63" d="m686.09,756.35h0c.01-.21.05-.55.09-.76l.39-2.21c.04-.21.06-.22.05,0h0c-.01.21-.05.55-.09.76l-.39,2.21c-.04.21-.06.22-.05,0Z"/><path class="cls-63" d="m686.13,756.34h0c-.04.21-.06.22-.05,0l.12-2.15c.01-.21.05-.55.09-.76h0c.04-.21.06-.22.05,0l-.12,2.15c-.01.21-.05.55-.09.76Z"/><path class="cls-86" d="m700.4,357.97l.06.02-.09.75h0c.02-.13.04-.25.06-.36.02-.11.04-.2.05-.27.02-.07.03-.13.05-.17.01-.04.03-.06.04-.06.02,0,.02.09.02.24s-.02.38-.05.69c.04-.27.08-.49.12-.64.03-.15.06-.23.08-.22.03.01.04.16.02.44-.02.28-.07.75-.14,1.4l-.45,3.72-.06-.02.38-3.14c.03-.21.05-.41.07-.59.02-.18.04-.33.05-.46.01-.13.02-.23.02-.3,0-.07,0-.11-.02-.12-.02,0-.05.11-.09.36-.04.25-.09.6-.14,1.06l-.38,3.15-.06-.02.42-3.45c.05-.37.08-.66.09-.85.02-.19.01-.29,0-.3,0,0-.02.03-.04.08-.02.06-.03.15-.05.26-.02.12-.04.26-.07.43-.02.17-.05.37-.08.59l-.39,3.19-.06-.02.66-5.38Z"/><path class="cls-86" d="m700.57,361.17c-.03.21-.05.41-.07.61-.02.2-.04.37-.05.52-.01.15-.02.27-.02.36,0,.09,0,.14.02.14.02,0,.04-.06.07-.21.03-.14.07-.37.11-.66l.06.02c-.04.29-.08.55-.11.77-.04.23-.07.41-.1.57-.03.15-.06.26-.08.34-.02.07-.04.11-.06.1-.02,0-.03-.09-.03-.23,0-.15,0-.35.03-.6.02-.25.05-.56.08-.91s.08-.73.13-1.15c.05-.38.09-.74.14-1.08s.09-.64.14-.9.08-.46.12-.6c.04-.15.06-.22.09-.21.02,0,.03.1.03.29,0,.18-.02.42-.04.72-.02.3-.06.63-.1,1.01-.04.38-.09.77-.14,1.17l-.21-.08Zm.24-.72c.02-.19.04-.37.06-.54.02-.17.03-.33.04-.46,0-.13.01-.24.02-.32,0-.08,0-.13-.01-.13s-.03.03-.04.1c-.02.07-.04.17-.06.29-.02.13-.05.28-.07.45-.03.17-.05.36-.07.56l.15.06Z"/><path class="cls-86" d="m700.81,363.76l-.06-.02.09-.73h0c-.05.31-.09.53-.12.66-.03.13-.06.19-.08.18-.02,0-.03-.09-.03-.25,0-.16.01-.36.03-.63.02-.26.05-.57.09-.92.04-.35.08-.73.13-1.13.06-.49.11-.9.16-1.26.05-.35.1-.64.13-.86.04-.22.07-.39.1-.49.03-.1.05-.15.07-.14,0,0,.02.02.02.06,0,.03,0,.09,0,.16,0,.07,0,.16,0,.27,0,.11-.02.24-.03.39h0s.34-2.75.34-2.75l.06.02-.91,7.44Zm.1-2.72c-.03.23-.05.46-.08.68-.02.22-.04.42-.06.6-.01.18-.02.32-.03.43s0,.16.02.17.03-.05.06-.15c.02-.11.05-.25.08-.43.03-.18.06-.38.09-.6.03-.22.06-.45.09-.69.07-.6.12-1.07.15-1.4.03-.34.03-.51,0-.52-.01,0-.03.05-.06.16-.02.11-.05.26-.08.44-.03.18-.06.39-.09.62-.03.23-.06.47-.09.71Z"/><path class="cls-86" d="m701.79,356.35l.06.02-.14,1.13-.06-.02.14-1.13Zm-.25,2.05l.06.02-.66,5.39-.06-.02.66-5.39Z"/><path class="cls-86" d="m701.65,360.33c.04-.33.06-.59.07-.76s0-.27-.01-.27c0,0-.02.02-.04.07-.02.05-.04.14-.06.28s-.06.34-.09.59c-.04.25-.08.58-.13.99-.03.22-.05.45-.08.67-.02.22-.04.42-.06.6-.02.18-.02.32-.03.43,0,.11,0,.17.02.18.02,0,.05-.09.09-.31.04-.21.08-.51.13-.9l.06.02c-.09.7-.17,1.23-.24,1.59-.07.36-.12.54-.16.52-.02,0-.03-.09-.03-.24,0-.15,0-.35.03-.6.02-.25.04-.55.08-.89s.08-.71.13-1.11c.05-.4.1-.78.15-1.13s.1-.66.14-.91c.04-.26.08-.46.12-.6.04-.14.07-.21.09-.2.02,0,.03.05.03.14,0,.09,0,.21,0,.38,0,.16-.02.37-.04.62-.02.25-.05.54-.09.87l-.06-.02Z"/><path class="cls-86" d="m701.72,362.86c-.02.15-.03.25-.04.31,0,.06,0,.1,0,.1h0s0,0,.01-.02l-.1.82s0,.03-.01.04-.01.03-.02.04c0,.01-.01.02-.02.03,0,0,0,0-.01,0-.01,0-.02-.06-.01-.16,0-.1.02-.27.05-.52-.04.22-.08.39-.11.48-.03.1-.06.14-.07.14-.01,0-.02-.04-.03-.11s0-.17,0-.3c0-.13.02-.3.04-.5.02-.2.04-.43.08-.7.04-.33.08-.6.11-.81s.06-.37.09-.48c.03-.11.05-.19.07-.24.02-.05.04-.08.05-.1.02-.04.03-.06.04-.08.01-.01.03-.04.04-.08s.03-.1.04-.19.03-.21.05-.39c.02-.15.03-.28.04-.38,0-.1.01-.18.01-.23,0-.05,0-.09,0-.11,0-.02-.01-.03-.02-.03-.02,0-.04.06-.07.19-.03.13-.06.35-.1.64l-.06-.02c.04-.35.08-.63.12-.86.04-.23.07-.41.1-.54.03-.13.05-.23.08-.28.02-.05.04-.07.06-.07.01,0,.02.04.03.1,0,.06,0,.16,0,.29,0,.13-.02.29-.03.5-.02.2-.04.44-.08.73l-.34,2.78Zm.12-1.53c-.02.11-.04.18-.06.2-.02.02-.04.05-.06.09,0,.02-.02.05-.03.08-.01.04-.02.09-.04.15-.01.06-.03.15-.04.26-.02.11-.03.24-.05.39-.02.13-.03.24-.03.34,0,.09-.01.17-.01.22,0,.05,0,.09,0,.12,0,.02,0,.04.01.04,0,0,.02-.01.03-.04.01-.03.03-.09.04-.17.02-.08.04-.18.06-.31.02-.13.04-.28.07-.47l.11-.89Z"/><path class="cls-86" d="m702.3,358.69l.06.02-.13,1.04h0c.02-.14.04-.29.06-.42.02-.14.04-.26.07-.37.02-.11.04-.2.06-.27.02-.07.03-.1.04-.09,0,0,.01,0,.01.02,0,0,0,.02,0,.02l-.14,1.15s0-.03,0-.04c0-.01,0-.02-.01-.02-.01,0-.03.03-.05.11-.02.08-.04.19-.07.35-.03.15-.06.34-.09.57-.03.23-.07.49-.1.79l-.31,2.57-.06-.02.66-5.39Z"/><path class="cls-86" d="m702.17,361.78c-.03.21-.05.41-.07.61-.02.2-.04.37-.05.52-.01.15-.02.27-.02.36,0,.09,0,.14.02.14.02,0,.04-.06.07-.21.03-.15.07-.37.11-.66l.06.02c-.04.29-.08.55-.11.78-.04.23-.07.42-.1.57-.03.15-.06.27-.08.34-.02.07-.04.11-.06.1-.02,0-.03-.09-.04-.23,0-.15,0-.35.03-.6.02-.26.05-.56.08-.91s.08-.73.13-1.15c.05-.38.09-.75.14-1.09s.09-.64.14-.9.08-.46.12-.6c.04-.15.06-.22.09-.21.02,0,.03.11.03.29,0,.18-.02.43-.04.72-.02.3-.06.64-.1,1.02-.04.38-.09.77-.14,1.18l-.21-.08Zm.25-.73c.02-.19.04-.37.06-.55.02-.18.03-.33.04-.46,0-.13.01-.24.02-.32,0-.08,0-.13-.01-.13s-.03.03-.04.1c-.02.07-.04.17-.06.29-.02.13-.05.28-.07.45-.03.17-.05.36-.08.56l.15.06Z"/><path class="cls-86" d="m698.36,370.23l.06.02-.09.73h0c.05-.31.09-.53.12-.65s.06-.19.08-.18c.02,0,.03.09.03.25,0,.16-.01.37-.03.63-.02.26-.05.57-.09.92-.04.35-.08.72-.13,1.11-.04.36-.09.71-.14,1.05-.05.34-.09.63-.13.89-.04.26-.08.46-.11.61-.03.15-.06.22-.08.21,0,0-.02-.02-.02-.06,0-.03,0-.09,0-.16,0-.07,0-.16,0-.27,0-.11.02-.24.03-.39h0s-.33,2.68-.33,2.68l-.06-.03.9-7.35Zm-.11,2.78c.03-.24.06-.48.08-.71.02-.23.04-.43.06-.61.01-.18.02-.32.03-.44,0-.11,0-.17-.01-.17-.03-.01-.07.15-.12.49-.06.34-.12.8-.19,1.37-.03.27-.06.52-.09.75-.02.23-.04.43-.06.6-.01.17-.02.3-.02.4,0,.1,0,.15.02.16.01,0,.03-.04.06-.15s.05-.25.08-.42c.03-.17.06-.37.09-.6.03-.22.06-.45.09-.69Z"/><path class="cls-86" d="m698.43,374.64c-.02.15-.03.25-.03.31,0,.06,0,.1,0,.1h0s0,0,.01-.01l-.1.82s0,.03-.01.04-.01.03-.02.04c0,.01-.01.02-.01.03,0,0,0,0-.01,0-.01,0-.02-.06-.01-.16,0-.1.02-.27.05-.52-.04.22-.08.38-.11.48-.03.1-.05.14-.07.13-.01,0-.02-.04-.03-.11s0-.17,0-.3c0-.13.02-.3.04-.5.02-.2.04-.43.08-.69.04-.33.08-.6.11-.81s.06-.36.09-.48c.02-.11.05-.19.07-.24.02-.05.04-.08.05-.1.02-.04.03-.06.04-.08.01-.01.03-.04.04-.08.01-.04.03-.1.04-.18.02-.08.03-.21.05-.39.02-.15.03-.28.04-.38s.01-.18.01-.23c0-.05,0-.09,0-.11,0-.02-.01-.03-.02-.03-.02,0-.04.06-.07.19-.03.13-.06.35-.1.64l-.06-.03c.04-.35.08-.63.12-.86s.07-.4.1-.54c.03-.13.05-.23.08-.27.02-.05.04-.07.06-.06.01,0,.02.04.03.1,0,.06,0,.16,0,.29,0,.13-.02.29-.03.49-.02.2-.04.44-.08.73l-.34,2.76Zm.12-1.52c-.02.11-.04.18-.06.2-.02.02-.04.05-.06.09,0,.02-.02.04-.03.08-.01.04-.02.09-.04.15-.01.06-.03.15-.04.25-.02.11-.03.24-.05.39-.02.13-.03.24-.03.34,0,.09-.01.16-.01.22,0,.05,0,.09,0,.12,0,.02,0,.04.01.04,0,0,.02-.01.03-.04s.03-.09.04-.17.04-.18.06-.31c.02-.13.04-.28.06-.47l.11-.88Z"/><path class="cls-86" d="m699,370.49l.06.02-.09.75h0c.02-.13.04-.25.06-.36s.04-.2.05-.27c.02-.07.03-.13.05-.17.01-.04.03-.06.04-.06.02,0,.02.09.02.24s-.02.38-.05.69c.04-.27.08-.49.12-.64.03-.15.06-.23.08-.22.03.01.04.16.02.44-.02.28-.07.75-.14,1.4l-.45,3.71-.06-.03.38-3.14c.03-.21.05-.41.07-.59.02-.18.04-.33.05-.46s.02-.23.02-.3c0-.07,0-.11-.02-.12-.02,0-.05.11-.09.36-.04.25-.09.6-.14,1.05l-.38,3.15-.06-.03.42-3.45c.05-.37.08-.66.09-.85s.01-.29,0-.3c0,0-.02.02-.04.08-.02.06-.03.15-.05.26-.02.12-.04.26-.07.43-.02.17-.05.37-.08.59l-.39,3.19-.06-.03.65-5.37Z"/><path class="cls-86" d="m699.49,370.69l.06.02-.09.73h0c.05-.31.09-.53.12-.66s.06-.19.08-.18c.02,0,.03.09.03.25,0,.16-.01.37-.03.63-.02.26-.05.57-.09.92-.04.35-.08.72-.13,1.12-.04.36-.09.71-.14,1.05-.05.34-.09.63-.13.89-.04.26-.08.46-.11.61-.03.15-.06.22-.08.21,0,0-.02-.02-.02-.06,0-.04,0-.09,0-.16,0-.07,0-.16,0-.27,0-.11.02-.24.03-.39h0s-.33,2.68-.33,2.68l-.06-.03.9-7.36Zm-.11,2.78c.03-.24.06-.48.08-.71.02-.23.04-.44.06-.62.01-.18.02-.33.03-.44,0-.11,0-.17-.01-.18-.03-.01-.07.15-.12.5-.06.34-.12.8-.19,1.38-.03.27-.06.52-.09.76-.02.23-.04.44-.06.6-.01.17-.02.3-.02.41,0,.1,0,.15.02.16.01,0,.03-.04.06-.15s.05-.25.08-.42c.03-.17.06-.37.09-.6.03-.22.06-.45.09-.69Z"/><path class="cls-86" d="m700.08,368.78l.06.03-.34,2.76h0c.04-.24.07-.44.11-.59.04-.16.06-.23.08-.22.03.01.04.18.02.49-.02.31-.07.77-.14,1.39l-.45,3.7-.06-.03.41-3.38c.05-.42.08-.73.1-.93s.01-.3,0-.3c-.01,0-.02.03-.04.1-.02.07-.04.17-.06.29-.02.13-.04.28-.07.45-.02.17-.05.36-.07.55l-.39,3.17-.06-.03.91-7.43Z"/><path class="cls-86" d="m700.4,368.9l.06.03-.91,7.44-.06-.03.91-7.44Z"/><path class="cls-86" d="m699.97,374.03c-.03.21-.05.41-.07.61-.02.2-.04.37-.05.52-.01.15-.02.27-.02.36s0,.14.02.14c.02,0,.04-.06.07-.21.03-.14.07-.37.11-.66l.06.02c-.04.29-.08.55-.11.77-.04.23-.07.41-.1.57-.03.15-.06.26-.08.34-.02.07-.04.11-.06.1-.02,0-.03-.09-.03-.23s0-.35.03-.6c.02-.26.05-.56.08-.91.04-.35.08-.73.13-1.15.05-.38.09-.74.14-1.08s.09-.64.14-.89.08-.46.12-.6c.04-.15.06-.21.09-.21.02,0,.03.11.03.29,0,.18-.02.43-.04.72-.02.3-.06.64-.1,1.02-.04.38-.09.77-.14,1.17l-.21-.09Zm.24-.72c.02-.19.04-.37.06-.54.02-.18.03-.33.04-.46,0-.13.01-.24.02-.32,0-.08,0-.13-.01-.13s-.03.03-.04.1c-.02.07-.04.17-.06.29-.02.13-.05.27-.07.45-.03.17-.05.36-.08.56l.15.06Z"/><path class="cls-86" d="m700.57,371.12l.05.02.2-1.62.06.03-.2,1.62.06.02-.11.89-.06-.02-.35,2.88c-.02.13-.03.23-.04.32-.01.09-.02.17-.02.23,0,.06,0,.11,0,.14,0,.03,0,.05.01.05,0,0,0,0,.01,0s.01-.01.02-.03l-.11.92s-.02.02-.03.03c0,.01-.02.02-.02.01-.02,0-.03-.04-.03-.11,0-.06,0-.15,0-.27,0-.12.02-.26.04-.44.02-.17.04-.37.07-.6l.39-3.18-.05-.02.11-.89Z"/><path class="cls-86" d="m700.3,375.2l.08.03-.17,1.41-.08-.03.17-1.41Z"/><path class="cls-86" d="m700.94,371.27l.06.02-.09.73h0c.05-.31.09-.53.12-.66s.06-.19.08-.18c.02,0,.03.09.03.25,0,.16-.01.37-.03.63-.02.27-.05.57-.09.92-.04.35-.08.72-.13,1.12-.04.36-.09.71-.14,1.05-.05.34-.09.64-.13.89-.04.26-.08.46-.12.61-.03.15-.06.22-.08.21,0,0-.02-.02-.02-.06,0-.04,0-.09,0-.16,0-.07,0-.16,0-.28,0-.11.02-.24.03-.39h0s-.33,2.69-.33,2.69l-.06-.03.9-7.38Zm-.11,2.79c.03-.24.06-.48.08-.71.02-.23.04-.44.06-.62.01-.18.02-.33.03-.44,0-.11,0-.17-.02-.18-.03-.01-.07.15-.12.5-.06.34-.12.8-.19,1.38-.03.27-.06.52-.09.76-.02.23-.04.44-.06.61-.01.17-.02.31-.02.41,0,.1,0,.15.02.16.01,0,.03-.04.06-.15s.05-.25.08-.42c.03-.17.06-.37.09-.6.03-.22.06-.46.09-.69Z"/><path class="cls-86" d="m700.9,376.92l-.06-.03.09-.73h0c-.05.31-.09.53-.12.66-.03.13-.06.19-.08.18-.02,0-.03-.09-.03-.25,0-.16.01-.37.03-.63.02-.26.05-.57.09-.92s.08-.73.13-1.14c.06-.49.11-.91.16-1.26.05-.35.1-.64.14-.87s.07-.39.1-.49c.03-.1.05-.15.07-.14,0,0,.02.02.02.06,0,.04,0,.09,0,.16,0,.07,0,.17,0,.28,0,.11-.02.24-.03.39h0s.34-2.76.34-2.76l.06.03-.91,7.45Zm.1-2.73c-.03.23-.05.46-.08.68-.02.22-.04.42-.06.6-.01.18-.02.32-.03.43,0,.11,0,.17.02.17s.03-.04.06-.15c.02-.11.05-.25.08-.43.03-.18.06-.38.09-.6.03-.22.06-.46.09-.69.07-.6.12-1.07.15-1.41.03-.34.03-.51,0-.52-.01,0-.03.05-.06.16-.02.11-.05.26-.08.44-.03.18-.06.39-.09.62-.03.23-.06.47-.09.71Z"/><path class="cls-86" d="m701.6,371.54l.05.02.05-.45c.04-.34.08-.62.11-.83.03-.21.06-.37.08-.48.02-.11.04-.19.05-.22.01-.03.03-.05.04-.05.02,0,.03.04.04.09l-.11.93s0-.04,0-.05c0-.01,0-.02-.01-.02,0,0-.02.03-.04.11-.02.07-.04.22-.06.45l-.07.55.05.02-.11.89-.05-.02-.55,4.51-.06-.03.55-4.51-.05-.02.11-.89Z"/><path class="cls-11" d="m704.14,334.17s.04.08.04.23c0,.14,0,.33-.02.55-.02.23-.04.48-.07.77-.03.29-.06.58-.1.89s-.07.59-.12.88c-.04.29-.08.54-.12.76-.04.22-.07.39-.11.52-.03.13-.06.19-.09.18l-.09-.03-.33,2.67-.09-.03.91-7.45.18.06Zm-.45,3.5s.02,0,.03-.03c.01-.02.03-.08.04-.15.02-.08.04-.19.06-.33.02-.14.05-.34.08-.57s.05-.43.06-.58c.01-.15.02-.26.02-.35,0-.08,0-.14,0-.17,0-.03-.01-.05-.02-.05l-.07-.02-.27,2.23.07.02Z"/><path class="cls-11" d="m704.53,334.3s.04.09.04.25c0,.16,0,.4-.03.71-.02.31-.05.7-.1,1.16-.05.46-.11,1-.18,1.62-.07.54-.13,1.04-.19,1.5s-.12.85-.18,1.18c-.06.33-.11.59-.15.77-.05.18-.08.27-.12.26l-.17-.06.91-7.45.17.06Zm-.75,6.07s.03-.03.05-.1c.02-.07.05-.2.08-.37.03-.17.07-.4.11-.69.04-.28.09-.63.14-1.04.05-.38.09-.72.12-1.02.03-.3.06-.57.08-.78.02-.22.03-.39.02-.51,0-.12-.01-.18-.03-.19l-.06-.02-.57,4.7.08.03Z"/><path class="cls-11" d="m705.08,334.49l-.17,1.38-.19-.07-.21,1.72.17.06-.16,1.27-.17-.06-.38,3.08-.09-.03.91-7.46.28.1Z"/><path class="cls-86" d="m749.6,239.21h.05c-.05.35-.1.74-.16,1.1l-.23-.04s0-.09.01-.19l.52-4.22c.01-.1.03-.19.03-.18l.26.04c-.03.15-.05.29-.08.44-.24,1.41-.29,1.67-.31,1.78-.04.27-.08.59-.11.85-.02.26-.03.41,0,.42h0s0,0,0,0Z"/><path class="cls-86" d="m750.44,235.97l-.52,4.22c-.01.1-.03.19-.03.18l-.26-.04c.03-.18.06-.38.1-.57.13-.76.27-1.61.29-1.7.04-.23.08-.52.1-.78.05-.49,0-.5,0-.5h-.04s.15-1.04.15-1.04l.23.03s0,.09-.01.19Z"/><path class="cls-86" d="m750.04,237.69c-.02.12-.27,1.61-.45,2.65-.07.42-.13.77-.16.93-.05.3-.08.42-.09.42,0,0,0-.09.02-.23.02-.12.09-.6.16-1.13.11-.79.24-1.68.24-1.68,0,0-.04-.01-.06-.02-.01,0-.03,0-.03,0h0s0-.21.03-.37c.02-.11.25-1.44.43-2.52.08-.48.16-.92.2-1.18.02-.11.03-.16.04-.16,0,0,0,.09-.03.27-.02.12-.08.58-.16,1.08-.11.76-.23,1.63-.23,1.63h.09s.02.15,0,.31Z"/><path class="cls-25" d="m749.34,241.37l-.22-.03s0-.5.07-1.1l.56-4.51c.07-.6.16-1.09.2-1.08l.31.05-.1.59-.28-.04s-.06.22-.09.49l-.56,4.51c-.03.27-.05.5-.03.5l.23.04-.09.59Z"/><path class="cls-25" d="m749.77,241.43l-.31-.05.1-.59.28.04s.06-.22.09-.49l.56-4.51c.03-.28.05-.5.03-.5l-.23-.03.08-.59.22.03s0,.5-.07,1.1l-.56,4.51c-.07.6-.16,1.09-.2,1.08Z"/><path class="cls-25" d="m750.14,239.27h0s.3-2.4.3-2.4h0s0,.54-.08,1.18v.05c-.09.65-.18,1.17-.22,1.16Z"/></g></g></svg>