<?xml version="1.0" encoding="UTF-8"?><svg xmlns="http://www.w3.org/2000/svg" xmlns:xlink="http://www.w3.org/1999/xlink" viewBox="0 0 800 1080"><defs><style>.cls-1,.cls-2,.cls-3,.cls-4{fill:none;}.cls-5{fill:url(#linear-gradient);}.cls-2{mix-blend-mode:hard-light;opacity:.85;}.cls-3{isolation:isolate;}.cls-6{fill:#e9e9e9;}.cls-7{fill:#333;}.cls-8{fill:url(#radial-gradient-3);}.cls-9{fill:url(#radial-gradient-2);}.cls-10{fill:url(#linear-gradient-8);}.cls-11{fill:url(#linear-gradient-9);}.cls-12{fill:url(#linear-gradient-3);}.cls-13{fill:url(#linear-gradient-4);}.cls-14{fill:url(#linear-gradient-2);}.cls-15{fill:url(#linear-gradient-6);}.cls-16{fill:url(#linear-gradient-5);}.cls-17{fill:url(#radial-gradient);}.cls-18{fill:url(#linear-gradient-7);stroke:#4d4d4d;stroke-miterlimit:10;stroke-width:1.1px;}.cls-19{fill:url(#linear-gradient-13);}.cls-20{fill:url(#linear-gradient-12);}.cls-21{fill:url(#linear-gradient-10);}.cls-22{fill:url(#linear-gradient-11);}.cls-4{clip-path:url(#clippath);}</style><linearGradient id="linear-gradient" x1="400" y1="730.09" x2="400" y2="274.5" gradientUnits="userSpaceOnUse"><stop offset="0" stop-color="#032140"/><stop offset="1" stop-color="#284a71"/></linearGradient><linearGradient id="linear-gradient-2" x1="401.11" y1="805.5" x2="401.11" y2="593.6" gradientUnits="userSpaceOnUse"><stop offset="0" stop-color="#949699"/><stop offset=".38" stop-color="#b8babb"/><stop offset=".76" stop-color="#bdbebf"/><stop offset=".99" stop-color="#808284"/></linearGradient><linearGradient id="linear-gradient-3" x1="363.6" y1="449.82" x2="442.68" y2="449.82" gradientUnits="userSpaceOnUse"><stop offset="0" stop-color="#e3e3e4"/><stop offset=".23" stop-color="#cacbcc"/><stop offset=".61" stop-color="#c4c5c6"/><stop offset="1" stop-color="#dcdcdd"/></linearGradient><linearGradient id="linear-gradient-4" x1="402.95" y1="398.88" x2="422.58" y2="398.88" xlink:href="#linear-gradient-3"/><linearGradient id="linear-gradient-5" x1="400" y1="708.71" x2="400" y2="651.81" gradientUnits="userSpaceOnUse"><stop offset="0" stop-color="#032140"/><stop offset="1" stop-color="#17375a"/></linearGradient><linearGradient id="linear-gradient-6" x1="-3558.94" y1="-3282.81" x2="-3538.43" y2="-3282.81" gradientTransform="translate(3682.81 -2879.67) rotate(-90)" gradientUnits="userSpaceOnUse"><stop offset="0" stop-color="#d5dadf"/><stop offset="1" stop-color="#000"/></linearGradient><linearGradient id="linear-gradient-7" x1="399.99" y1="678.14" x2="399.99" y2="659.88" gradientUnits="userSpaceOnUse"><stop offset="0" stop-color="#333"/><stop offset="1" stop-color="#e9e9e9"/></linearGradient><linearGradient id="linear-gradient-8" x1="-3552.36" y1="-3282.81" x2="-3545" y2="-3282.81" xlink:href="#linear-gradient-6"/><radialGradient id="radial-gradient" cx="405.5" cy="673.6" fx="405.5" fy="673.6" r="2.94" gradientTransform="translate(-6.04 1.38)" gradientUnits="userSpaceOnUse"><stop offset=".3" stop-color="#a7aaae"/><stop offset=".52" stop-color="#9fa3a7"/><stop offset=".85" stop-color="#899097"/><stop offset=".96" stop-color="#808890"/></radialGradient><radialGradient id="radial-gradient-2" cx="399.99" cy="669.01" fx="399.99" fy="669.01" r="7.78" gradientUnits="userSpaceOnUse"><stop offset=".75" stop-color="#1a1a1a"/><stop offset=".93" stop-color="#666"/><stop offset="1" stop-color="#1a1a1a"/></radialGradient><clipPath id="clippath"><path class="cls-1" d="m399.99,672.35c-1.85,0-3.35-1.5-3.35-3.34s1.51-3.34,3.35-3.34,3.35,1.5,3.35,3.34-1.51,3.34-3.35,3.34Z"/></clipPath><radialGradient id="radial-gradient-3" cx="399.44" cy="667.69" fx="399.44" fy="667.69" r="5.33" gradientUnits="userSpaceOnUse"><stop offset="0" stop-color="#afb3b7"/><stop offset=".14" stop-color="#9da0a4"/><stop offset=".42" stop-color="#6f7174"/><stop offset=".81" stop-color="#262627"/><stop offset="1" stop-color="#000"/></radialGradient><linearGradient id="linear-gradient-9" x1="688.93" y1="722.03" x2="688.93" y2="701.67" gradientUnits="userSpaceOnUse"><stop offset="0" stop-color="#284a71"/><stop offset="1" stop-color="#032140"/></linearGradient><linearGradient id="linear-gradient-10" x1="131.64" y1="704.37" x2="136.32" y2="704.37" xlink:href="#linear-gradient-2"/><linearGradient id="linear-gradient-11" x1="152.56" y1="704.37" x2="157.25" y2="704.37" xlink:href="#linear-gradient-2"/><linearGradient id="linear-gradient-12" x1="173.68" y1="704.37" x2="178.36" y2="704.37" xlink:href="#linear-gradient-2"/><linearGradient id="linear-gradient-13" x1="194.6" y1="704.37" x2="199.29" y2="704.37" xlink:href="#linear-gradient-2"/></defs><g class="cls-3"><g id="Layer_7"><path class="cls-5" d="m706.64,668.42v-381.72c0-6.75-5.48-12.22-12.23-12.21l-588.87,1.15c-6.73.01-12.18,5.47-12.18,12.21v381.3h0v50.67c0,5.54,4.49,10.04,10.04,10.04l593.19.23c5.55,0,10.05-4.5,10.05-10.05v-51.62h0Z"/><path class="cls-14" d="m474.68,593.6h-147.15c-3.56,0-6.45,2.89-6.44,6.46l.57,199.03c.01,3.55,2.89,6.42,6.44,6.42h146.38c3.55,0,6.43-2.88,6.44-6.43l.2-199.03c0-3.56-2.88-6.44-6.44-6.44Z"/><path id="path5" class="cls-12" d="m429.67,440.8c-.13-8.23,3.37-14.63,10.49-19.21-4.01-5.93-9.94-9.27-17.78-10.01-2.79-.27-6.35.4-10.69,2.02-4.67,1.75-7.29,2.62-7.88,2.62-1.23,0-3.6-.74-7.1-2.22-3.49-1.48-6.47-2.22-8.94-2.22-4.14.06-8,1.23-11.56,3.49-3.57,2.26-6.41,5.34-8.55,9.25-2.72,4.85-4.08,10.65-4.08,17.38,0,6.06,1,12.13,3.01,18.2,1.88,5.8,4.27,10.89,7.19,15.26,2.59,3.98,4.86,6.88,6.8,8.7,2.79,2.82,5.63,4.18,8.55,4.04,1.88-.07,4.33-.77,7.38-2.12,2.85-1.28,5.7-1.91,8.55-1.91,2.66,0,5.41.64,8.26,1.91,3.17,1.35,5.77,2.02,7.77,2.02,2.98-.13,5.77-1.45,8.36-3.93.91-.81,1.9-1.92,2.96-3.34,1.07-1.41,2.25-3.1,3.55-5.06.91-1.41,1.8-2.93,2.67-4.54.88-1.62,1.67-3.34,2.38-5.16.32-.74.61-1.5.87-2.27.26-.78.52-1.56.78-2.37-2.4-1.08-4.57-2.59-6.51-4.55-4.27-4.32-6.44-9.65-6.5-15.98h0Z"/><path id="path9" class="cls-13" d="m417.43,403.39c3.44-4.38,5.15-9.1,5.15-14.15v-1.01c0-.33-.03-.67-.1-1.01-2.4.13-4.94.91-7.63,2.32-2.69,1.42-4.91,3.21-6.65,5.36-3.5,4.25-5.25,8.8-5.25,13.65v.96c0,.3.03.63.1.96,5.38.55,10.17-1.82,14.38-7.07Z"/><rect class="cls-16" x="384.19" y="651.81" width="31.62" height="56.9" rx="15.81" ry="15.81"/><path class="cls-15" d="m410.22,669.02c0,5.65-4.58,10.25-10.23,10.25-5.63,0-10.22-4.6-10.22-10.25,0-5.66,4.58-10.26,10.22-10.26,5.65,0,10.23,4.61,10.23,10.26Z"/><path d="m399.99,678.94c-5.48,0-9.95-4.45-9.95-9.93s4.46-9.92,9.95-9.92,9.96,4.45,9.96,9.92-4.47,9.93-9.96,9.93Z"/><path class="cls-18" d="m399.99,678.14c-5.05,0-9.16-4.09-9.16-9.13s4.12-9.13,9.16-9.13,9.17,4.09,9.17,9.13-4.12,9.13-9.17,9.13Z"/><path class="cls-7" d="m399.99,676.12c-3.93,0-7.13-3.19-7.13-7.11s3.2-7.11,7.13-7.11,7.13,3.19,7.13,7.11-3.2,7.11-7.13,7.11Z"/><path class="cls-10" d="m403.67,669.02c0,2.03-1.65,3.68-3.67,3.68s-3.67-1.65-3.67-3.68c0-2.03,1.65-3.68,3.67-3.68,2.03,0,3.67,1.65,3.67,3.68Z"/><path d="m400,672.58c-1.97,0-3.57-1.6-3.57-3.56s1.6-3.56,3.57-3.56,3.57,1.6,3.57,3.56-1.6,3.56-3.57,3.56Z"/><path class="cls-17" d="m400,672.42c-1.88,0-3.41-1.53-3.41-3.4s1.53-3.4,3.41-3.4,3.42,1.53,3.42,3.4-1.53,3.4-3.42,3.4Z"/><path class="cls-7" d="m400,672.29c-1.81,0-3.29-1.47-3.29-3.28s1.48-3.28,3.29-3.28,3.29,1.47,3.29,3.28-1.48,3.28-3.29,3.28Z"/><path class="cls-9" d="m399.99,676.78c-4.29,0-7.79-3.48-7.79-7.76s3.49-7.76,7.79-7.76,7.79,3.48,7.79,7.76-3.49,7.76-7.79,7.76Zm0-13.94c-3.42,0-6.2,2.77-6.2,6.17s2.78,6.17,6.2,6.17,6.2-2.77,6.2-6.17-2.78-6.17-6.2-6.17Z"/><g class="cls-4"><path class="cls-8" d="m399.43,673.01c-2.94,0-5.34-2.38-5.34-5.32s2.4-5.32,5.34-5.32,5.34,2.38,5.34,5.32-2.4,5.32-5.34,5.32Z"/></g><circle class="cls-11" cx="688.93" cy="711.85" r="10.18"/><g class="cls-2"><path class="cls-6" d="m688.93,717.74c-3.02,0-5.48-2.45-5.48-5.46,0-1.39.52-2.7,1.47-3.71.31-.33.84-.36,1.18-.05.34.31.36.85.05,1.18-.66.71-1.01,1.62-1.01,2.58,0,2.09,1.7,3.78,3.8,3.78s3.8-1.7,3.8-3.78c0-.93-.34-1.82-.96-2.52-.31-.35-.28-.88.07-1.18.34-.31.88-.28,1.19.07.89,1,1.38,2.29,1.38,3.63,0,3.01-2.46,5.46-5.48,5.46Z"/><rect class="cls-6" x="688.01" y="705.96" width="1.84" height="7.61" rx=".84" ry=".84"/></g><rect class="cls-21" x="131.64" y="697.64" width="4.69" height="13.46" rx="2.34" ry="2.34"/><rect class="cls-22" x="152.56" y="697.64" width="4.69" height="13.46" rx="2.34" ry="2.34"/><rect class="cls-20" x="173.68" y="697.64" width="4.69" height="13.46" rx="2.34" ry="2.34"/><rect class="cls-19" x="194.6" y="697.64" width="4.69" height="13.46" rx="2.34" ry="2.34"/></g></g></svg>