<?xml version="1.0" encoding="UTF-8"?><svg id="Layer_5" xmlns="http://www.w3.org/2000/svg" viewBox="0 0 800 1080"><defs><style>.cls-1{fill:#a09691;}.cls-2{fill:#b4b4b3;}.cls-3{fill:#302e2e;}.cls-4{fill:#1e1d1d;}.cls-5{fill:#222;}.cls-6{fill:#181616;}.cls-7{fill:#1b363b;}.cls-8{fill:#888785;}.cls-9{fill-rule:evenodd;}</style></defs><path class="cls-9" d="m716.26,830.85v50.93c0,.96-.38,1.89-1.07,2.57-.68.68-1.6,1.06-2.57,1.06s-1.89-.38-2.57-1.06c-.53-.54-.88-1.22-.94-1.98l-.12-.6v-50.93c0-.81.27-1.59.81-2.19l.25-.38c.69-.69,1.61-1.07,2.57-1.07s1.9.38,2.57,1.07c.69.68,1.07,1.6,1.07,2.57Z"/><path class="cls-9" d="m716.26,689.73v76.4c0,.96-.38,1.89-1.07,2.57-.68.68-1.6,1.06-2.57,1.06s-1.89-.38-2.57-1.06c-.53-.54-.88-1.22-.94-1.98l-.12-.6v-76.4c0-.81.27-1.59.81-2.19l.25-.38c.69-.69,1.61-1.07,2.57-1.07s1.9.38,2.57,1.07c.69.68,1.07,1.6,1.07,2.57Z"/><rect class="cls-3" x="83.74" y="59.97" width="628.88" height="963.01" rx="39.1" ry="39.1"/><rect x="631.18" y="289.34" width="41.3" height="690.82" rx="20.65" ry="20.65"/><rect class="cls-5" x="634.65" y="874.77" width="34.36" height="101.58" rx="17.18" ry="17.18"/><path class="cls-4" d="m712.62,116.12h-9.22c-6.91,0-12.53-5.62-12.53-12.53v-11.84c0-6.22-5.06-11.27-11.27-11.27H116.98c-6.22,0-11.27,5.06-11.27,11.27v11.84c0,6.91-5.62,12.53-12.53,12.53h-9.44v-7.77h9.44c2.62,0,4.76-2.13,4.76-4.76v-11.84c0-10.5,8.54-19.04,19.04-19.04h562.62c10.5,0,19.04,8.54,19.04,19.04v11.84c0,2.62,2.13,4.76,4.76,4.76h9.22v7.77Z"/><rect class="cls-4" x="544.39" y="59.97" width="7.77" height="18.9"/><rect class="cls-4" x="245.1" y="59.97" width="7.77" height="18.9"/><path class="cls-4" d="m679.38,1010.24H116.76c-10.5,0-19.05-8.54-19.05-19.05v-11.84c0-2.62-2.13-4.76-4.76-4.76h-9.22v-7.77h9.22c6.91,0,12.53,5.62,12.53,12.53v11.84c0,6.22,5.06,11.27,11.27,11.27h562.62c6.22,0,11.27-5.06,11.27-11.27v-11.84c0-6.91,5.62-12.53,12.53-12.53h9.44v7.77h-9.44c-2.62,0-4.76,2.13-4.76,4.76v11.84c0,10.5-8.54,19.05-19.04,19.05Z"/><rect class="cls-4" x="244.2" y="1004.09" width="7.77" height="18.9"/><rect class="cls-4" x="543.48" y="1004.09" width="7.77" height="18.9"/><circle class="cls-6" cx="651.56" cy="953.61" r="10.47"/><path class="cls-7" d="m651.56,957.2c-1.98,0-3.6-1.61-3.6-3.6s1.61-3.6,3.6-3.6,3.6,1.61,3.6,3.6-1.61,3.6-3.6,3.6Z"/><path class="cls-1" d="m651.83,941.44c-6.78,0-12.3,5.52-12.3,12.3s5.52,12.3,12.3,12.3,12.3-5.52,12.3-12.3-5.52-12.3-12.3-12.3Zm0,22.06c-5.39,0-9.76-4.37-9.76-9.76s4.37-9.76,9.76-9.76,9.76,4.37,9.76,9.76-4.37,9.76-9.76,9.76Z"/><path class="cls-2" d="m651.83,940.61c-6.78,0-12.3,5.52-12.3,12.3s5.52,12.3,12.3,12.3,12.3-5.52,12.3-12.3-5.52-12.3-12.3-12.3Zm0,22.06c-5.39,0-9.76-4.37-9.76-9.76s4.37-9.76,9.76-9.76,9.76,4.37,9.76,9.76-4.37,9.76-9.76,9.76Z"/><path class="cls-8" d="m651.83,941.18c-6.78,0-12.3,5.52-12.3,12.3s5.52,12.3,12.3,12.3,12.3-5.52,12.3-12.3-5.52-12.3-12.3-12.3Zm0,22.06c-5.39,0-9.76-4.37-9.76-9.76s4.37-9.76,9.76-9.76,9.76,4.37,9.76,9.76-4.37,9.76-9.76,9.76Z"/><circle class="cls-6" cx="651.56" cy="920.27" r="10.47"/><path class="cls-7" d="m651.56,923.86c-1.98,0-3.6-1.61-3.6-3.6s1.61-3.6,3.6-3.6,3.6,1.61,3.6,3.6-1.61,3.6-3.6,3.6Z"/><path class="cls-1" d="m651.83,908.1c-6.78,0-12.3,5.52-12.3,12.3s5.52,12.3,12.3,12.3,12.3-5.52,12.3-12.3-5.52-12.3-12.3-12.3Zm0,22.06c-5.39,0-9.76-4.37-9.76-9.76s4.37-9.76,9.76-9.76,9.76,4.37,9.76,9.76-4.37,9.76-9.76,9.76Z"/><path class="cls-2" d="m651.83,907.27c-6.78,0-12.3,5.52-12.3,12.3s5.52,12.3,12.3,12.3,12.3-5.52,12.3-12.3-5.52-12.3-12.3-12.3Zm0,22.06c-5.39,0-9.76-4.37-9.76-9.76s4.37-9.76,9.76-9.76,9.76,4.37,9.76,9.76-4.37,9.76-9.76,9.76Z"/><path class="cls-8" d="m651.83,907.84c-6.78,0-12.3,5.52-12.3,12.3s5.52,12.3,12.3,12.3,12.3-5.52,12.3-12.3-5.52-12.3-12.3-12.3Zm0,22.06c-5.39,0-9.76-4.37-9.76-9.76s4.37-9.76,9.76-9.76,9.76,4.37,9.76,9.76-4.37,9.76-9.76,9.76Z"/><path class="cls-8" d="m651.56,885.09c-3.84,0-6.97,3.13-6.97,6.97s3.13,6.97,6.97,6.97,6.97-3.13,6.97-6.97-3.13-6.97-6.97-6.97Z"/><path class="cls-2" d="m651.56,885.42c-3.84,0-6.97,3.13-6.97,6.97s3.13,6.97,6.97,6.97,6.97-3.13,6.97-6.97-3.13-6.97-6.97-6.97Z"/></svg>