<?xml version="1.0" encoding="UTF-8"?><svg xmlns="http://www.w3.org/2000/svg" viewBox="0 0 800 1080"><defs><style>.cls-1{stroke-width:.77px;}.cls-1,.cls-2,.cls-3,.cls-4{fill:none;}.cls-1,.cls-3{stroke:#fff;stroke-linecap:round;}.cls-1,.cls-4{stroke-miterlimit:10;}.cls-2{isolation:isolate;}.cls-5{fill:#fff;}.cls-6{fill:#686868;}.cls-7{fill:#b9bfc1;}.cls-8{fill:#b0b0b0;}.cls-9{fill:#3e3e3e;}.cls-10{fill:#a2a19c;}.cls-3{stroke-linejoin:round;stroke-width:.58px;}.cls-4{stroke:#a2a19c;stroke-width:.67px;}.cls-11{fill-rule:evenodd;}</style></defs><g id="Layer_2"><path class="cls-11" d="m716.09,253.03v-50.93c0-.96-.38-1.89-1.07-2.57-.68-.68-1.6-1.06-2.57-1.06s-1.89.38-2.57,1.06c-.53.54-.88,1.22-.94,1.98l-.12.6v50.93c0,.81.27,1.59.81,2.19l.25.38c.69.69,1.61,1.07,2.57,1.07s1.9-.38,2.57-1.07c.69-.68,1.07-1.6,1.07-2.57Z"/><path class="cls-11" d="m716.09,394.15v-76.4c0-.96-.38-1.89-1.07-2.57-.68-.68-1.6-1.06-2.57-1.06s-1.89.38-2.57,1.06c-.53.54-.88,1.22-.94,1.98l-.12.6v76.4c0,.81.27,1.59.81,2.19l.25.38c.69.69,1.61,1.07,2.57,1.07s1.9-.38,2.57-1.07c.69-.68,1.07-1.6,1.07-2.57Z"/><rect class="cls-10" x="83.91" y="59.98" width="628.87" height="963" rx="39.1" ry="39.1"/><rect x="88.9" y="64.97" width="618.88" height="953.01" rx="34.1" ry="34.1"/><circle class="cls-4" cx="695.18" cy="541.48" r="3.06"/><rect class="cls-9" x="115.27" y="89.91" width="566.15" height="903.14" rx="12.83" ry="12.83"/></g><g id="Layer_6"><g id="Android_01_Lockscreen"><g id="Clock" class="cls-2"><g class="cls-2"><path class="cls-5" d="m361.13,939.15v-.06s.93,0,.93,0v.06c.07.75.85,1.22,1.92,1.22,1.01,0,1.75-.52,1.75-1.28h0c0-.62-.43-1.05-1.45-1.28l-.83-.18c-1.49-.33-2.14-1.02-2.14-2.1h0c0-1.24,1.09-2.12,2.63-2.12s2.53.88,2.61,1.99v.07s-.93,0-.93,0v-.07c-.11-.66-.73-1.14-1.71-1.14-.93,0-1.65.45-1.65,1.23h0c0,.6.41,1,1.42,1.23l.83.19c1.56.35,2.17.97,2.17,2.05h0c0,1.4-1.09,2.27-2.76,2.27s-2.69-.86-2.8-2.07Z"/><path class="cls-5" d="m367.53,935.48h.9l1.1,4.46h.08l1.25-4.46h.85l1.25,4.46h.08l1.1-4.46h.9l-1.56,5.58h-.91l-1.25-4.31h-.08l-1.24,4.31h-.9l-1.56-5.58Z"/><path class="cls-5" d="m375.98,933.78c0-.34.28-.62.62-.62s.62.28.62.62-.28.62-.62.62-.62-.28-.62-.62Zm.17,1.7h.9v5.58h-.9v-5.58Z"/><path class="cls-5" d="m378.64,935.48h.9v.89h.08c.34-.62.96-.99,1.74-.99,1.41,0,2.34,1.14,2.34,2.88h0c0,1.76-.92,2.89-2.34,2.89-.77,0-1.43-.38-1.74-.98h-.08v2.74h-.9v-7.44Zm4.14,2.79h0c0-1.31-.61-2.1-1.62-2.1s-1.63.8-1.63,2.08h0c0,1.3.62,2.09,1.63,2.09s1.62-.79,1.62-2.08Z"/><path class="cls-5" d="m384.72,938.29h0c0-1.73.98-2.91,2.5-2.91s2.44,1.13,2.44,2.79v.35h-4.01c.03,1.15.66,1.83,1.66,1.83.76,0,1.22-.36,1.37-.69l.02-.05h.9v.04c-.2.75-1,1.5-2.31,1.5-1.59,0-2.56-1.12-2.56-2.87Zm.94-.48h3.08c-.09-1.1-.7-1.62-1.53-1.62s-1.46.56-1.56,1.62Z"/><path class="cls-5" d="m394.18,939.6v-3.38h-.88v-.75h.88v-1.44h.93v1.44h1.22v.75h-1.22v3.16c0,.66.23.92.81.92.16,0,.25,0,.41-.02v.77c-.18.03-.35.05-.52.05-1.15,0-1.63-.42-1.63-1.49Z"/><path class="cls-5" d="m397.21,938.27h0c0-1.8.98-2.89,2.57-2.89s2.57,1.09,2.57,2.88h0c0,1.79-.98,2.89-2.57,2.89s-2.57-1.1-2.57-2.88Zm4.22,0h0c0-1.33-.59-2.1-1.65-2.1s-1.65.77-1.65,2.08h0c0,1.32.59,2.09,1.65,2.09s1.65-.77,1.65-2.08Z"/><path class="cls-5" d="m406.47,939.09v-3.61h.9v3.39c0,1,.36,1.48,1.25,1.48.98,0,1.51-.6,1.51-1.58v-3.3h.9v5.58h-.9v-.83h-.08c-.27.6-.84.93-1.66.93-1.27,0-1.92-.75-1.92-2.06Z"/><path class="cls-5" d="m412.6,935.48h.9v.84h.08c.28-.59.8-.94,1.62-.94,1.25,0,1.95.74,1.95,2.06v3.61h-.9v-3.39c0-1-.41-1.48-1.3-1.48s-1.45.6-1.45,1.58v3.3h-.9v-5.58Z"/><path class="cls-5" d="m418.73,933.26h.9v7.79h-.9v-7.79Z"/><path class="cls-5" d="m420.98,938.27h0c0-1.8.98-2.89,2.57-2.89s2.57,1.09,2.57,2.88h0c0,1.79-.98,2.89-2.57,2.89s-2.57-1.1-2.57-2.88Zm4.22,0h0c0-1.33-.59-2.1-1.65-2.1s-1.65.77-1.65,2.08h0c0,1.32.59,2.09,1.65,2.09s1.65-.77,1.65-2.08Z"/><path class="cls-5" d="m427.13,938.25h0c0-1.74.99-2.87,2.56-2.87,1.36,0,2.17.78,2.33,1.77v.03s-.89,0-.89,0v-.02c-.14-.55-.64-.99-1.44-.99-1,0-1.63.81-1.63,2.06h0c0,1.29.64,2.12,1.63,2.12.75,0,1.23-.33,1.43-.95v-.03s.9,0,.9,0v.06c-.24,1.01-.99,1.73-2.33,1.73-1.56,0-2.56-1.13-2.56-2.9Z"/><path class="cls-5" d="m433.29,933.26h.9v4.65h.08l2.41-2.44h1.09l-2.43,2.34,2.59,3.23h-1.13l-2.09-2.62-.52.51v2.12h-.9v-7.79Z"/></g></g><g id="Group_62"><g id="Group_61"><rect id="Rectangle_34" class="cls-6" x="610.73" y="942.05" width="28.17" height="28.17" rx="10.45" ry="10.45"/><path id="Path_24" class="cls-5" d="m630.17,949.72h-10.71c-1.66,0-3,1.34-3,3h0v6.83c0,1.66,1.34,3,3,3h10.71c1.66,0,3-1.34,3-3h0v-6.84c0-1.66-1.34-3-3-3Zm-5.36,9.39c-1.64,0-2.97-1.33-2.97-2.97s1.33-2.97,2.97-2.97,2.97,1.33,2.97,2.97h0c0,1.64-1.33,2.97-2.97,2.97h0Zm4.83-4.67c-.84,0-1.53-.68-1.53-1.53,0-.84.68-1.53,1.53-1.53.84,0,1.53.68,1.53,1.52,0,.84-.68,1.52-1.53,1.53h0Z"/></g></g></g><rect id="Rectangle_33" class="cls-6" x="158.68" y="942.59" width="28.17" height="28.17" rx="10.45" ry="10.45"/><path class="cls-5" d="m166.22,949.15h1.28v2.55h-1.28c-.7,0-1.28-.57-1.28-1.28h0c0-.7.57-1.28,1.28-1.28Z"/><path class="cls-5" d="m166.22,953.32h1.28v2.55h-1.28c-.7,0-1.28-.57-1.28-1.28h0c0-.7.57-1.28,1.28-1.28Z"/><path class="cls-5" d="m166.22,957.48h1.28v2.55h-1.28c-.7,0-1.28-.57-1.28-1.28h0c0-.7.57-1.28,1.28-1.28Z"/><path class="cls-5" d="m166.22,961.64h1.28v2.55h-1.28c-.7,0-1.28-.57-1.28-1.28h0c0-.7.57-1.28,1.28-1.28Z"/><path class="cls-5" d="m180.6,952.23v5.68l-5.74,6.1-.18.19h-8.32v-15.05h11.16c1.7,0,3.08,1.38,3.08,3.08Z"/><path class="cls-8" d="m180.6,957.68v.23l-5.74,6.1v-3.01c0-1.84,1.48-3.32,3.32-3.32h2.42Z"/></g><g id="Layer_8"><g id="Android_01_Lockscreen-2"><g id="Group_48"><g id="_1:20" class="cls-2"><g class="cls-2"><path class="cls-5" d="m126.65,105.72h0c0-2.27,1.27-3.69,3.28-3.69s3.28,1.42,3.28,3.68h0c0,2.26-1.25,3.69-3.28,3.69s-3.28-1.43-3.28-3.68Zm5.45,0h0c0-1.67-.83-2.72-2.16-2.72s-2.17,1.05-2.17,2.71h0c0,1.66.81,2.73,2.17,2.73s2.16-1.07,2.16-2.72Z"/><path class="cls-5" d="m134.41,103.94h1.06v.83h.08c.31-.58.89-.93,1.63-.93,1.34,0,2.19,1.07,2.19,2.73h0c0,1.69-.85,2.74-2.19,2.74-.73,0-1.35-.36-1.63-.93h-.08v2.6h-1.06v-7.06Zm3.88,2.65h0c0-1.15-.53-1.84-1.41-1.84s-1.43.7-1.43,1.83h0c0,1.14.55,1.84,1.43,1.84s1.41-.69,1.41-1.83Z"/><path class="cls-5" d="m140.21,107.85h0s1.06,0,1.06,0h0c.13.4.52.67,1.15.67s1.11-.3,1.11-.73h0c0-.34-.25-.57-.86-.71l-.84-.19c-1-.23-1.46-.68-1.46-1.46h0c0-.93.86-1.59,2.06-1.59s1.98.6,2.08,1.47h0s-1.01,0-1.01,0h0c-.1-.38-.48-.66-1.07-.66s-1,.29-1,.71h0c0,.34.24.55.84.69l.84.19c1.02.24,1.51.67,1.51,1.44h0c0,.99-.94,1.66-2.19,1.66s-2.09-.6-2.19-1.49Z"/><path class="cls-5" d="m146.01,107.84v-3.07h-.83v-.83h.83v-1.34h1.08v1.34h1.14v.83h-1.14v2.81c0,.57.21.8.74.8.16,0,.25,0,.4-.02v.84c-.17.03-.37.05-.57.05-1.16,0-1.64-.41-1.64-1.43Z"/><path class="cls-5" d="m149.29,103.94h1.06v.8h.08c.19-.56.68-.89,1.39-.89.17,0,.36.02.46.05v.97c-.19-.04-.37-.06-.57-.06-.81,0-1.36.5-1.36,1.26v3.16h-1.06v-5.29Z"/><path class="cls-5" d="m152.79,107.75h0c0-.96.71-1.51,1.97-1.58l1.43-.08v-.47c0-.58-.37-.9-1.08-.9-.58,0-.97.21-1.1.59v.02h-1.02v-.03c.13-.87.96-1.45,2.17-1.45,1.33,0,2.08.66,2.08,1.77v3.62h-1.05v-.75h-.08c-.31.54-.87.84-1.57.84-1.01,0-1.75-.61-1.75-1.57Zm2.04.73c.79,0,1.37-.52,1.37-1.2v-.45l-1.29.08c-.73.04-1.06.31-1.06.78h0c0,.5.41.78.98.78Z"/></g></g><g id="_1:20-2" class="cls-2"><g class="cls-2"><path class="cls-5" d="m642.39,107.4v-.06s1.02,0,1.02,0v.04c.1.62.66,1.11,1.43,1.11.87,0,1.47-.62,1.47-1.5h0c0-.88-.61-1.49-1.46-1.49-.43,0-.79.13-1.07.38-.13.11-.24.25-.32.41h-.94l.35-4.08h4.09v.93h-3.23l-.21,2.24h.08c.3-.47.85-.75,1.5-.75,1.32,0,2.27.98,2.27,2.33h0c0,1.45-1.04,2.45-2.52,2.45-1.38,0-2.34-.86-2.44-2Z"/><path class="cls-5" d="m651.96,103.2v-.08h-3.68v-.92h4.79v.95l-3.06,6.09h-1.15l3.1-6.03Z"/><path class="cls-5" d="m654.1,104.03h0c0-1.19.58-1.93,1.52-1.93s1.52.74,1.52,1.92h0c0,1.19-.58,1.93-1.52,1.93s-1.52-.75-1.52-1.93Zm2.25,0h0c0-.8-.27-1.27-.73-1.27s-.73.47-.73,1.27h0c0,.81.26,1.28.73,1.28s.73-.47.73-1.28Zm-.92,5.2l4.77-7.03h.91l-4.77,7.03h-.91Zm3.97-1.83h0c0-1.19.58-1.93,1.52-1.93s1.52.74,1.52,1.93h0c0,1.19-.58,1.93-1.52,1.93s-1.52-.74-1.52-1.93Zm2.25,0h0c0-.81-.26-1.28-.73-1.28s-.73.47-.73,1.27h0c0,.8.26,1.28.73,1.28s.73-.47.73-1.27Z"/></g></g><g id="Group_46"><g id="Group_40"><path id="Path_8" class="cls-5" d="m609.06,103.02c-2.53-2.52-6.62-2.52-9.14,0-.2.2-.2.54,0,.74.2.2.54.2.74,0,2.12-2.11,5.55-2.11,7.66,0,.21.2.54.19.74-.02.19-.2.19-.51,0-.72Z"/><path id="Path_9" class="cls-5" d="m604.49,103.22c-1.16,0-2.28.46-3.1,1.29-.2.2-.2.54,0,.74s.54.2.74,0c1.3-1.3,3.41-1.31,4.72,0,0,0,0,0,0,0,.2.2.54.2.74,0s.2-.54,0-.74c-.82-.83-1.94-1.29-3.1-1.29Z"/><path id="Path_10" class="cls-5" d="m602.76,106.01c-.21.2-.21.53,0,.74s.53.21.74,0c0,0,0,0,0,0,.55-.55,1.44-.55,1.99,0,.21.2.54.2.74,0,.2-.2.2-.53,0-.73-.96-.95-2.51-.95-3.47,0Z"/><path id="Path_11" class="cls-5" d="m604.49,107.29c-.36,0-.65.29-.65.65,0,.36.29.65.65.65.36,0,.65-.29.65-.65,0-.17-.07-.34-.19-.46-.12-.12-.29-.19-.46-.19Z"/></g><g id="Group_43"><g id="Group_41"><line id="Line_4" class="cls-3" x1="607.38" y1="106.9" x2="607.38" y2="109.48"/><path id="Path_12" class="cls-3" d="m608.38,108.48l-1,1-1-1"/></g><g id="Group_42"><line id="Line_5" class="cls-3" x1="610" y1="108.79" x2="610" y2="106.21"/><path id="Path_13" class="cls-3" d="m609,107.21l1-1,1,1"/></g></g><g id="Group_44"><line id="Line_6" class="cls-1" x1="638.25" y1="101.98" x2="638.25" y2="108.98"/><line id="Line_7" class="cls-1" x1="636.21" y1="104.08" x2="636.21" y2="108.98"/><line id="Line_8" class="cls-1" x1="634.17" y1="106.1" x2="634.17" y2="108.98"/><line id="Line_9" class="cls-1" x1="632.14" y1="107.94" x2="632.14" y2="108.98"/></g><g id="Group_45"><path id="Path_14" class="cls-7" d="m668.08,102.15h-.31v-.32c0-.4-.33-.73-.73-.73h-1.2c-.4,0-.73.33-.73.73h0v.32h-.31c-.57,0-1.03.46-1.03,1.03h0v5.48c0,.57.46,1.03,1.03,1.03h3.27c.57,0,1.03-.46,1.03-1.03h0v-5.48c0-.57-.46-1.03-1.03-1.03,0,0,0,0,0,0Z"/><path id="Path_15" class="cls-5" d="m663.78,105.92v2.74c0,.57.46,1.03,1.03,1.03h3.27c.57,0,1.03-.46,1.03-1.03h0v-2.74h-5.33Z"/></g></g><g id="Time"><g id="_1:20-3" class="cls-2"><g class="cls-2"><path class="cls-5" d="m618.29,107.83h-3.43v-.93c.93-1.59,1.96-3.25,2.93-4.71h1.55v4.71h.97v.93h-.97v1.4h-1.05v-1.4Zm.01-.91v-3.81h-.06c-.76,1.14-1.61,2.5-2.33,3.74v.07h2.4Z"/><path class="cls-5" d="m621.32,105.72h0c0-2.24,1.27-3.69,3.24-3.69,1.6,0,2.73.91,2.99,2.27v.05s-1.08,0-1.08,0v-.05c-.27-.83-.94-1.3-1.91-1.3-1.3,0-2.12,1.05-2.12,2.71h0c0,1.69.83,2.73,2.15,2.73,1.15,0,1.93-.73,1.94-1.81v-.16h-1.81v-.88h2.88v.87c0,1.78-1.19,2.94-3.04,2.94-1.99,0-3.25-1.42-3.25-3.68Z"/></g></g></g></g><g id="Group_58"><g id="Date" class="cls-2"><g class="cls-2"><path class="cls-5" d="m352.36,313.69h6.11v1.08h-4.92v2.68h4.32v1.05h-4.32v4.01h-1.19v-8.81Z"/><path class="cls-5" d="m359.64,316.08h1.03v1.11c.08-.22.29-.48.62-.79.33-.31.71-.46,1.13-.46.02,0,.05,0,.1,0s.13.01.25.02v1.14c-.06-.01-.12-.02-.18-.02-.05,0-.11,0-.18,0-.54,0-.96.17-1.25.52-.29.35-.44.75-.44,1.21v3.69h-1.08v-6.42Z"/><path class="cls-5" d="m363.7,313.69h1.1v1.22h-1.1v-1.22Zm0,2.42h1.1v6.39h-1.1v-6.39Z"/><path class="cls-5" d="m366.65,323.76c.28-.05.47-.24.58-.58.06-.18.09-.36.09-.52,0-.03,0-.05,0-.08,0-.02,0-.05-.01-.07h-.65v-1.31h1.28v1.21c0,.48-.1.89-.29,1.25s-.52.58-1,.67v-.56Z"/><path class="cls-5" d="m373.44,321.9c-.46-.56-.69-1.24-.69-2.04h1.13c.05.56.15.96.31,1.21.28.45.79.68,1.52.68.57,0,1.02-.15,1.37-.46.34-.3.52-.7.52-1.18,0-.59-.18-1.01-.54-1.24-.36-.24-.86-.35-1.51-.35-.07,0-.15,0-.22,0-.07,0-.15,0-.22,0v-.95c.11.01.21.02.28.02.08,0,.16,0,.25,0,.4,0,.74-.06,1-.19.46-.22.68-.62.68-1.2,0-.43-.15-.76-.46-.99-.3-.23-.66-.35-1.06-.35-.72,0-1.22.24-1.49.72-.15.26-.24.64-.26,1.13h-1.07c0-.64.13-1.18.38-1.63.44-.8,1.21-1.2,2.32-1.2.88,0,1.55.19,2.03.58s.72.95.72,1.69c0,.53-.14.96-.43,1.28-.18.2-.4.36-.68.48.45.12.8.36,1.06.72.25.35.38.79.38,1.3,0,.82-.27,1.49-.81,2s-1.31.77-2.3.77-1.75-.28-2.21-.84Z"/><path class="cls-5" d="m385.03,315.29c.38.71.58,1.68.58,2.91,0,1.17-.17,2.13-.52,2.9-.5,1.1-1.33,1.64-2.47,1.64-1.03,0-1.8-.45-2.3-1.34-.42-.75-.63-1.75-.63-3.01,0-.98.13-1.81.38-2.51.47-1.3,1.33-1.96,2.56-1.96,1.11,0,1.92.46,2.41,1.37Zm-1.09,5.72c.33-.5.5-1.42.5-2.77,0-.98-.12-1.78-.36-2.41s-.71-.94-1.4-.94c-.64,0-1.1.3-1.4.9-.29.6-.44,1.48-.44,2.64,0,.88.09,1.58.28,2.11.29.81.78,1.22,1.48,1.22.56,0,1.01-.25,1.34-.74Z"/><path class="cls-5" d="m391.25,319.66c.03.5.14.91.34,1.22.38.58,1.05.88,2.02.88.43,0,.82-.06,1.18-.19.69-.25,1.03-.69,1.03-1.33,0-.48-.15-.82-.44-1.03-.29-.2-.76-.37-1.38-.52l-1.16-.27c-.76-.18-1.29-.37-1.6-.58-.54-.37-.81-.92-.81-1.65,0-.79.27-1.44.8-1.95s1.29-.76,2.26-.76c.9,0,1.66.22,2.29.67.63.45.94,1.16.94,2.14h-1.12c-.06-.47-.18-.83-.37-1.09-.35-.46-.94-.69-1.78-.69-.67,0-1.16.15-1.45.44s-.44.64-.44,1.03c0,.43.17.75.52.95.23.13.75.29,1.55.48l1.2.28c.58.14,1.02.32,1.34.56.54.41.81,1.01.81,1.79,0,.98-.35,1.67-1.04,2.09-.69.42-1.5.63-2.41.63-1.07,0-1.91-.28-2.51-.84-.61-.56-.9-1.31-.89-2.26h1.12Z"/><path class="cls-5" d="m402.49,316.26c.43.21.75.49.97.83.21.32.36.7.43,1.13.06.3.1.77.1,1.42h-4.67c.02.65.17,1.18.46,1.57s.73.59,1.33.59c.56,0,1.01-.19,1.34-.56.19-.22.32-.47.4-.75h1.06c-.03.24-.12.5-.28.79-.16.29-.33.53-.53.71-.33.32-.73.54-1.21.65-.26.06-.55.1-.87.1-.79,0-1.47-.29-2.02-.87s-.83-1.4-.83-2.44.28-1.87.83-2.51,1.28-.97,2.18-.97c.45,0,.89.11,1.32.32Zm.39,2.52c-.04-.47-.14-.84-.3-1.12-.29-.52-.78-.78-1.47-.78-.49,0-.9.18-1.24.54s-.51.81-.53,1.36h3.54Z"/><path class="cls-5" d="m405.26,316.11h1.06v.85c.22-.29.45-.52.71-.68.36-.24.79-.36,1.29-.36.73,0,1.35.28,1.86.84.51.56.76,1.35.76,2.39,0,1.4-.37,2.4-1.1,3-.47.38-1.01.57-1.63.57-.49,0-.89-.11-1.22-.32-.19-.12-.41-.33-.64-.62v3.28h-1.08v-8.95Zm4.06,5.04c.33-.42.5-1.05.5-1.89,0-.51-.07-.95-.22-1.32-.28-.71-.79-1.06-1.54-1.06s-1.26.37-1.54,1.12c-.15.4-.22.91-.22,1.52,0,.5.07.92.22,1.27.28.66.79,1,1.54,1,.51,0,.93-.21,1.26-.63Z"/><path class="cls-5" d="m412.4,314.29h1.09v1.79h1.03v.88h-1.03v4.19c0,.22.08.37.23.45.08.04.22.07.42.07.05,0,.11,0,.17,0,.06,0,.13,0,.21-.02v.86c-.12.04-.25.06-.39.08-.13.02-.28.02-.43.02-.5,0-.85-.13-1.03-.39s-.27-.59-.27-1v-4.25h-.87v-.88h.87v-1.79Z"/><path class="cls-5" d="m419.56,316.26c.43.21.75.49.97.83.21.32.36.7.43,1.13.06.3.1.77.1,1.42h-4.67c.02.65.17,1.18.46,1.57s.73.59,1.33.59c.56,0,1.01-.19,1.34-.56.19-.22.32-.47.4-.75h1.06c-.03.24-.12.5-.28.79-.16.29-.33.53-.53.71-.33.32-.73.54-1.21.65-.26.06-.55.1-.87.1-.79,0-1.47-.29-2.02-.87s-.83-1.4-.83-2.44.28-1.87.83-2.51,1.28-.97,2.18-.97c.45,0,.89.11,1.32.32Zm.39,2.52c-.04-.47-.14-.84-.3-1.12-.29-.52-.78-.78-1.47-.78-.49,0-.9.18-1.24.54s-.51.81-.53,1.36h3.54Z"/><path class="cls-5" d="m422.43,316.08h1.07v.91c.26-.32.49-.55.7-.69.36-.24.76-.37,1.21-.37.51,0,.92.13,1.24.38.18.14.34.36.48.64.24-.34.52-.6.85-.76s.69-.25,1.09-.25c.86,0,1.45.31,1.76.94.17.34.25.79.25,1.36v4.28h-1.12v-4.46c0-.43-.11-.72-.32-.88-.21-.16-.47-.24-.78-.24-.42,0-.79.14-1.09.43s-.46.76-.46,1.42v3.74h-1.1v-4.19c0-.44-.05-.75-.16-.95-.16-.3-.47-.45-.92-.45-.41,0-.78.16-1.11.47-.33.32-.5.89-.5,1.72v3.41h-1.08v-6.42Z"/><path class="cls-5" d="m432.57,313.66h1.05v3.2c.24-.31.52-.54.85-.7s.69-.24,1.07-.24c.8,0,1.45.28,1.95.82s.75,1.36.75,2.43c0,1.02-.25,1.86-.74,2.53s-1.18,1.01-2.05,1.01c-.49,0-.9-.12-1.24-.35-.2-.14-.42-.36-.64-.67v.82h-1v-8.84Zm4.13,7.4c.29-.46.44-1.08.44-1.84,0-.68-.15-1.24-.44-1.68s-.72-.67-1.29-.67c-.49,0-.93.18-1.3.55s-.56.96-.56,1.8c0,.6.08,1.09.23,1.47.28.71.82,1.06,1.59,1.06.59,0,1.02-.23,1.32-.7Z"/><path class="cls-5" d="m443.46,316.26c.43.21.75.49.97.83.21.32.36.7.43,1.13.06.3.1.77.1,1.42h-4.67c.02.65.17,1.18.46,1.57s.73.59,1.33.59c.56,0,1.01-.19,1.34-.56.19-.22.32-.47.4-.75h1.06c-.03.24-.12.5-.28.79-.16.29-.33.53-.53.71-.33.32-.73.54-1.21.65-.26.06-.55.1-.87.1-.79,0-1.47-.29-2.02-.87s-.83-1.4-.83-2.44.28-1.87.83-2.51,1.28-.97,2.18-.97c.45,0,.89.11,1.32.32Zm.39,2.52c-.04-.47-.14-.84-.3-1.12-.29-.52-.78-.78-1.47-.78-.49,0-.9.18-1.24.54s-.51.81-.53,1.36h3.54Z"/><path class="cls-5" d="m446.35,316.08h1.03v1.11c.08-.22.29-.48.62-.79.33-.31.71-.46,1.13-.46.02,0,.05,0,.1,0s.13.01.25.02v1.14c-.06-.01-.12-.02-.18-.02-.05,0-.11,0-.18,0-.54,0-.96.17-1.25.52-.29.35-.44.75-.44,1.21v3.69h-1.08v-6.42Z"/></g></g><g id="Time-2" class="cls-2"><g class="cls-2"><path class="cls-5" d="m358.41,283.71c.15,2.76,1.21,4.66,3.19,5.71,1.02.55,2.16.83,3.44.83,2.39,0,4.42-.99,6.1-2.98,1.68-1.99,2.88-6.02,3.58-12.11-1.11,1.76-2.48,2.99-4.12,3.7-1.64.71-3.4,1.07-5.28,1.07-3.83,0-6.86-1.19-9.08-3.57-2.23-2.38-3.34-5.45-3.34-9.2s1.1-6.77,3.3-9.51c2.2-2.73,5.45-4.1,9.74-4.1,5.79,0,9.78,2.61,11.98,7.82,1.22,2.86,1.83,6.45,1.83,10.76,0,4.86-.73,9.17-2.19,12.92-2.42,6.25-6.53,9.37-12.32,9.37-3.88,0-6.83-1.02-8.85-3.05-2.02-2.03-3.02-4.59-3.02-7.66h5.05Zm13-10.11c1.64-1.3,2.45-3.58,2.45-6.83,0-2.92-.74-5.09-2.21-6.52s-3.34-2.15-5.62-2.15c-2.44,0-4.38.82-5.81,2.45-1.43,1.63-2.15,3.82-2.15,6.55,0,2.59.63,4.64,1.89,6.16,1.26,1.52,3.26,2.28,6.02,2.28,1.98,0,3.79-.65,5.42-1.95Z"/><path class="cls-5" d="m385.91,264.01h5.8v6.05h-5.8v-6.05Zm0,23.27h5.8v6.05h-5.8v-6.05Z"/><path class="cls-5" d="m411.42,293.33v-9.71h-17.42v-4.88l18.2-25.24h4.22v25.77h5.85v4.36h-5.85v9.71h-4.99Zm-.08-14.06v-18.04l-12.73,18.04h12.73Z"/><path class="cls-5" d="m426.75,265.2v-3.83c3.61-.35,6.12-.94,7.55-1.76,1.42-.82,2.49-2.77,3.19-5.84h3.94v39.56h-5.33v-28.13h-9.35Z"/></g></g><path id="Path_20" class="cls-5" d="m392.09,346.91c.04-.23.05-.46.06-.7,0-.23-.02-.47-.06-.7l1.62-1.21c-.3-1.03-.85-1.97-1.59-2.74l-1.85.8c-.37-.29-.78-.53-1.21-.7l-.23-2c-.52-.13-1.05-.19-1.59-.19-.53,0-1.07.07-1.59.19l-.23,2c-.44.17-.84.41-1.21.7l-1.85-.8c-.74.78-1.28,1.72-1.59,2.74l1.62,1.21c-.03.23-.05.46-.06.7,0,.23.02.47.06.7l-1.62,1.21c.3,1.03.85,1.97,1.59,2.74l1.85-.8c.37.29.78.53,1.21.7l.23,2c.52.13,1.05.19,1.59.2.53,0,1.07-.07,1.59-.2l.23-2c.44-.17.84-.41,1.21-.7l1.85.8c.74-.77,1.29-1.72,1.59-2.74l-1.62-1.21Zm-4.85,1.51c-1.22,0-2.21-.99-2.21-2.21s.99-2.21,2.21-2.21,2.21.99,2.21,2.21-.99,2.21-2.21,2.21Z"/><path id="Path_21" class="cls-5" d="m412.24,347.04h-.01s.01-.08.01-.12c0-1.37-1.11-2.48-2.48-2.48h0c-.35,0-.7.08-1.02.22-.41-1.73-1.95-2.96-3.73-2.96-2.12,0-3.84,1.72-3.84,3.84h0s-.03,0-.05,0c-1.06,0-1.92.86-1.92,1.92s.86,1.92,1.92,1.92h11.12c.65,0,1.18-.53,1.18-1.18,0-.65-.53-1.17-1.18-1.17Z"/></g><path id="Path_22" class="cls-5" d="m402.11,213.29h-.34v-3.01c0-2.57-2.09-4.66-4.66-4.66-2.57,0-4.66,2.09-4.66,4.66v3.01h-.34c-1.18,0-2.14.96-2.14,2.14h0v7.77c0,1.18.96,2.14,2.13,2.14h9.99c1.18,0,2.14-.96,2.14-2.14h0v-7.77c0-1.18-.96-2.14-2.14-2.14Zm-4.14,5.96v2.13c0,.47-.38.85-.85.85h0c-.47,0-.85-.38-.85-.85h0v-2.13c-.35-.26-.55-.67-.55-1.11,0-.78.63-1.4,1.4-1.4h0c.78,0,1.4.63,1.4,1.4h0c0,.43-.2.84-.55,1.11Zm2.27-5.96h-6.25v-3.01c0-1.72,1.4-3.12,3.12-3.12,1.72,0,3.12,1.4,3.12,3.12v3.01Z"/></g></g></svg>