<?xml version="1.0" encoding="UTF-8"?><svg xmlns="http://www.w3.org/2000/svg" xmlns:xlink="http://www.w3.org/1999/xlink" viewBox="0 0 800 1080"><defs><style>.cls-1,.cls-2,.cls-3,.cls-4,.cls-5,.cls-6,.cls-7,.cls-8,.cls-9,.cls-10,.cls-11,.cls-12,.cls-13{stroke-width:0px;}.cls-1,.cls-14,.cls-15{fill:none;}.cls-2{fill:url(#linear-gradient);}.cls-14{stroke:#bcbcbc;stroke-width:1.83px;}.cls-14,.cls-15{stroke-miterlimit:10;}.cls-16{mix-blend-mode:hard-light;opacity:.85;}.cls-15{stroke:#878787;stroke-width:1.77px;}.cls-17{isolation:isolate;}.cls-4{fill:#4b5055;}.cls-5{fill:#4d4d4d;}.cls-6{fill:#5b5b5b;}.cls-7{fill:#1a1a1a;}.cls-8{fill:#0a0a0a;}.cls-9{fill:#bfc0bc;}.cls-10{fill:#333;}.cls-11{fill:#999;}.cls-12{fill:#fff;}.cls-13{fill:#e9e9ea;}</style><linearGradient id="linear-gradient" x1="409.65" y1="605.92" x2="409.65" y2="538.79" gradientUnits="userSpaceOnUse"><stop offset="0" stop-color="#b2b6ba"/><stop offset=".05" stop-color="#adb1b6"/><stop offset=".3" stop-color="#9aa1a8"/><stop offset=".56" stop-color="#8f989f"/><stop offset=".84" stop-color="#8c959d"/></linearGradient></defs><g class="cls-17"><g id="Layer_3"><path class="cls-7" d="m562.38,972.03c1.47-.25,10.97-1.33,24.55-14.82s33.76-34.27,38.68-42.58,6.85-18.23,6.85-29.76V128.46c0-19.72-5.79-46.8-36.11-46.8h-283.14c-12.98,0-22.25,5.48-32.68,12.89s-34.77,25.15-40.04,32.34-6.66,29.52-6.66,29.52c0,0,47.31,386.08,49.99,383.16s236.57,354.71,236.57,354.71l41.98,77.75Z"/></g><g id="Layer_14"><path class="cls-7" d="m555.77,124.54h-289.61c-19.5,0-35.32,15.81-35.32,35.32v777.48c0,19.5,15.82,35.32,35.32,35.32h289.61c19.5,0,35.32-15.82,35.32-35.32V159.85c0-19.51-15.82-35.32-35.32-35.32Z"/><path class="cls-5" d="m555.77,115.84h-289.61c-19.5,0-35.32,15.81-35.32,35.32v777.48c0,19.5,15.82,35.32,35.32,35.32h289.61c19.5,0,35.32-15.82,35.32-35.32V151.16c0-19.51-15.82-35.32-35.32-35.32Z"/><rect class="cls-10" x="244.17" y="177.99" width="328.87" height="94.83" rx="9.97" ry="9.97"/><rect class="cls-10" x="244.17" y="280.85" width="328.87" height="94.83" rx="9.97" ry="9.97"/><rect class="cls-10" x="244.17" y="383.7" width="328.87" height="65.86" rx="9.97" ry="9.97"/><rect class="cls-10" x="244.17" y="177.99" width="328.87" height="94.83" rx="9.97" ry="9.97"/><rect class="cls-10" x="244.17" y="280.85" width="328.87" height="94.83" rx="9.97" ry="9.97"/><path class="cls-2" d="m442.7,572.52c0,18.21-14.8,32.96-33.07,32.96s-33.04-14.74-33.04-32.96,14.8-32.95,33.04-32.95,33.07,14.75,33.07,32.95Z"/><path class="cls-3" d="m409.64,602.84c-16.76,0-30.41-13.6-30.41-30.33s13.65-30.32,30.41-30.32,30.41,13.59,30.41,30.32-13.63,30.33-30.41,30.33Z"/><path class="cls-13" d="m409.64,598.88c-14.57,0-26.43-11.82-26.43-26.37s11.87-26.37,26.43-26.37,26.44,11.83,26.44,26.37-11.86,26.37-26.44,26.37Z"/><path class="cls-3" d="m409.64,594.93c-12.39,0-22.47-10.05-22.47-22.41s10.08-22.41,22.47-22.41,22.48,10.04,22.48,22.41-10.09,22.41-22.48,22.41Z"/><path class="cls-6" d="m409.64,588.34c-8.74,0-15.85-7.1-15.85-15.82s7.11-15.82,15.85-15.82,15.86,7.09,15.86,15.82-7.1,15.82-15.86,15.82Z"/><g class="cls-16"><path class="cls-13" d="m409.65,584.39c-6.09,0-11.05-4.94-11.05-11.01,0-2.79,1.05-5.44,2.96-7.48.63-.67,1.7-.72,2.38-.09.68.63.73,1.71.1,2.38-1.32,1.42-2.04,3.26-2.04,5.2,0,4.21,3.43,7.63,7.66,7.63s7.66-3.42,7.66-7.63c0-1.87-.69-3.67-1.93-5.07-.62-.7-.56-1.77.13-2.38.69-.62,1.77-.56,2.39.14,1.79,2.02,2.78,4.61,2.78,7.31,0,6.07-4.95,11.01-11.04,11.01Z"/><path class="cls-13" d="m411.5,574.31c0,.92-.76,1.68-1.7,1.68h-.32c-.94,0-1.7-.75-1.7-1.68v-11.97c0-.94.76-1.7,1.7-1.7h.32c.94,0,1.7.76,1.7,1.7v11.97Z"/></g><path class="cls-11" d="m547.4,340.91v11.18c0,.88-.4,1.71-1.08,2.27l-5.64,4.59c-.52.42-1.17.66-1.85.66h-32.14c-.68,0-1.34-.24-1.86-.67l-5.54-4.58c-.67-.56-1.06-1.38-1.06-2.25v-11.19c0-1.46,1.19-2.65,2.65-2.65h43.87c1.46,0,2.65,1.19,2.65,2.65Z"/><path class="cls-15" d="m543.7,342.89v6.89c0,.71-.32,1.37-.86,1.82l-4.52,3.68c-.42.34-.94.53-1.48.53h-27.78c-.54,0-1.07-.19-1.49-.54l-4.44-3.67c-.54-.45-.85-1.11-.85-1.81v-6.9"/><rect class="cls-8" x="432.47" y="306.74" width="7.23" height="77.16" rx="2.75" ry="2.75" transform="translate(90.77 781.4) rotate(-90)"/><circle class="cls-3" cx="571.25" cy="922.17" r="4.24"/><path class="cls-3" d="m571.25,925.57c-1.86,0-3.39-1.52-3.39-3.4s1.52-3.39,3.39-3.39,3.4,1.53,3.4,3.39-1.52,3.4-3.4,3.4Z"/><path class="cls-3" d="m558.54,922.17c0,2.34-1.91,4.24-4.23,4.24s-4.23-1.9-4.23-4.24,1.88-4.24,4.23-4.24,4.23,1.9,4.23,4.24Z"/><path class="cls-3" d="m554.3,925.57c-1.87,0-3.4-1.52-3.4-3.4s1.52-3.39,3.4-3.39,3.39,1.53,3.39,3.39-1.52,3.4-3.39,3.4Z"/><path class="cls-3" d="m541.58,922.17c0,2.34-1.89,4.24-4.23,4.24s-4.23-1.9-4.23-4.24,1.89-4.24,4.23-4.24,4.23,1.9,4.23,4.24Z"/><path class="cls-3" d="m537.35,925.57c-1.87,0-3.39-1.52-3.39-3.4s1.51-3.39,3.39-3.39,3.39,1.53,3.39,3.39-1.52,3.4-3.39,3.4Z"/><path class="cls-3" d="m524.63,922.17c0,2.34-1.89,4.24-4.24,4.24s-4.23-1.9-4.23-4.24,1.89-4.24,4.23-4.24,4.24,1.9,4.24,4.24Z"/><path class="cls-3" d="m520.39,925.57c-1.87,0-3.39-1.52-3.39-3.4s1.51-3.39,3.39-3.39,3.4,1.53,3.4,3.39-1.52,3.4-3.4,3.4Z"/><circle class="cls-3" cx="503.44" cy="922.17" r="4.24"/><path class="cls-3" d="m503.44,925.57c-1.87,0-3.39-1.52-3.39-3.4s1.51-3.39,3.39-3.39,3.39,1.53,3.39,3.39-1.51,3.4-3.39,3.4Z"/><path class="cls-3" d="m490.73,922.17c0,2.34-1.9,4.24-4.24,4.24s-4.23-1.9-4.23-4.24,1.89-4.24,4.23-4.24,4.24,1.9,4.24,4.24Z"/><path class="cls-3" d="m486.48,925.57c-1.86,0-3.39-1.52-3.39-3.4s1.52-3.39,3.39-3.39,3.4,1.53,3.4,3.39-1.52,3.4-3.4,3.4Z"/><path class="cls-3" d="m473.77,922.17c0,2.34-1.89,4.24-4.23,4.24s-4.23-1.9-4.23-4.24,1.88-4.24,4.23-4.24,4.23,1.9,4.23,4.24Z"/><path class="cls-3" d="m469.54,925.57c-1.87,0-3.39-1.52-3.39-3.4s1.51-3.39,3.39-3.39,3.39,1.53,3.39,3.39-1.52,3.4-3.39,3.4Z"/><path class="cls-3" d="m456.81,922.17c0,2.34-1.88,4.24-4.23,4.24s-4.23-1.9-4.23-4.24,1.89-4.24,4.23-4.24,4.23,1.9,4.23,4.24Z"/><path class="cls-3" d="m452.58,925.57c-1.87,0-3.39-1.52-3.39-3.4s1.51-3.39,3.39-3.39,3.4,1.53,3.4,3.39-1.52,3.4-3.4,3.4Z"/><path class="cls-3" d="m439.87,922.17c0,2.34-1.9,4.24-4.25,4.24s-4.23-1.9-4.23-4.24,1.89-4.24,4.23-4.24,4.25,1.9,4.25,4.24Z"/><path class="cls-3" d="m435.62,925.57c-1.87,0-3.39-1.52-3.39-3.4s1.51-3.39,3.39-3.39,3.4,1.53,3.4,3.39-1.52,3.4-3.4,3.4Z"/><circle class="cls-3" cx="418.67" cy="922.17" r="4.24"/><path class="cls-3" d="m418.67,925.57c-1.86,0-3.39-1.52-3.39-3.4s1.53-3.39,3.39-3.39,3.4,1.53,3.4,3.39-1.52,3.4-3.4,3.4Z"/><path class="cls-3" d="m405.96,922.17c0,2.34-1.9,4.24-4.25,4.24s-4.22-1.9-4.22-4.24,1.89-4.24,4.22-4.24,4.25,1.9,4.25,4.24Z"/><path class="cls-3" d="m401.71,925.57c-1.86,0-3.39-1.52-3.39-3.4s1.52-3.39,3.39-3.39,3.4,1.53,3.4,3.39-1.52,3.4-3.4,3.4Z"/><path class="cls-3" d="m389,922.17c0,2.34-1.89,4.24-4.23,4.24s-4.24-1.9-4.24-4.24,1.89-4.24,4.24-4.24,4.23,1.9,4.23,4.24Z"/><path class="cls-3" d="m384.77,925.57c-1.87,0-3.39-1.52-3.39-3.4s1.51-3.39,3.39-3.39,3.39,1.53,3.39,3.39-1.51,3.4-3.39,3.4Z"/><path class="cls-3" d="m372.05,922.17c0,2.34-1.89,4.24-4.24,4.24s-4.23-1.9-4.23-4.24,1.89-4.24,4.23-4.24,4.24,1.9,4.24,4.24Z"/><path class="cls-3" d="m367.81,925.57c-1.86,0-3.39-1.52-3.39-3.4s1.52-3.39,3.39-3.39,3.4,1.53,3.4,3.39-1.52,3.4-3.4,3.4Z"/><path class="cls-3" d="m355.1,922.17c0,2.34-1.9,4.24-4.24,4.24s-4.24-1.9-4.24-4.24,1.89-4.24,4.24-4.24,4.24,1.9,4.24,4.24Z"/><path class="cls-3" d="m350.86,925.57c-1.87,0-3.39-1.52-3.39-3.4s1.52-3.39,3.39-3.39,3.39,1.53,3.39,3.39-1.52,3.4-3.39,3.4Z"/><path class="cls-3" d="m338.14,922.17c0,2.34-1.89,4.24-4.24,4.24s-4.23-1.9-4.23-4.24,1.89-4.24,4.23-4.24,4.24,1.9,4.24,4.24Z"/><path class="cls-3" d="m333.91,925.57c-1.87,0-3.39-1.52-3.39-3.4s1.52-3.39,3.39-3.39,3.39,1.53,3.39,3.39-1.52,3.4-3.39,3.4Z"/><circle class="cls-3" cx="316.96" cy="922.17" r="4.24"/><path class="cls-3" d="m316.96,925.57c-1.87,0-3.39-1.52-3.39-3.4s1.52-3.39,3.39-3.39,3.39,1.53,3.39,3.39-1.52,3.4-3.39,3.4Z"/><circle class="cls-3" cx="300" cy="922.17" r="4.24"/><path class="cls-3" d="m300,925.57c-1.87,0-3.39-1.52-3.39-3.4s1.52-3.39,3.39-3.39,3.39,1.53,3.39,3.39-1.52,3.4-3.39,3.4Z"/><path class="cls-3" d="m287.29,922.17c0,2.34-1.89,4.24-4.24,4.24s-4.23-1.9-4.23-4.24,1.89-4.24,4.23-4.24,4.24,1.9,4.24,4.24Z"/><path class="cls-3" d="m283.05,925.57c-1.87,0-3.39-1.52-3.39-3.4s1.52-3.39,3.39-3.39,3.39,1.53,3.39,3.39-1.52,3.4-3.39,3.4Z"/><path class="cls-3" d="m270.33,922.17c0,2.34-1.89,4.24-4.23,4.24s-4.24-1.9-4.24-4.24,1.89-4.24,4.24-4.24,4.23,1.9,4.23,4.24Z"/><path class="cls-3" d="m266.1,925.57c-1.87,0-3.39-1.52-3.39-3.4s1.52-3.39,3.39-3.39,3.39,1.53,3.39,3.39-1.52,3.4-3.39,3.4Z"/><path class="cls-3" d="m253.38,922.17c0,2.34-1.9,4.24-4.24,4.24s-4.23-1.9-4.23-4.24,1.89-4.24,4.23-4.24,4.24,1.9,4.24,4.24Z"/><path class="cls-3" d="m249.14,925.57c-1.86,0-3.39-1.52-3.39-3.4s1.52-3.39,3.39-3.39,3.4,1.53,3.4,3.39-1.52,3.4-3.4,3.4Z"/><circle class="cls-3" cx="571.25" cy="905.22" r="4.24"/><path class="cls-3" d="m571.25,908.61c-1.86,0-3.39-1.52-3.39-3.39s1.52-3.4,3.39-3.4,3.4,1.53,3.4,3.4-1.52,3.39-3.4,3.39Z"/><path class="cls-3" d="m558.54,905.22c0,2.34-1.91,4.24-4.23,4.24s-4.23-1.9-4.23-4.24,1.88-4.24,4.23-4.24,4.23,1.9,4.23,4.24Z"/><path class="cls-3" d="m554.3,908.61c-1.87,0-3.4-1.52-3.4-3.39s1.52-3.4,3.4-3.4,3.39,1.53,3.39,3.4-1.52,3.39-3.39,3.39Z"/><path class="cls-3" d="m541.58,905.22c0,2.34-1.89,4.24-4.23,4.24s-4.23-1.9-4.23-4.24,1.89-4.24,4.23-4.24,4.23,1.9,4.23,4.24Z"/><path class="cls-3" d="m537.35,908.61c-1.87,0-3.39-1.52-3.39-3.39s1.51-3.4,3.39-3.4,3.39,1.53,3.39,3.4-1.52,3.39-3.39,3.39Z"/><path class="cls-3" d="m524.63,905.22c0,2.34-1.89,4.24-4.24,4.24s-4.23-1.9-4.23-4.24,1.89-4.24,4.23-4.24,4.24,1.9,4.24,4.24Z"/><path class="cls-3" d="m520.39,908.61c-1.87,0-3.39-1.52-3.39-3.39s1.51-3.4,3.39-3.4,3.4,1.53,3.4,3.4-1.52,3.39-3.4,3.39Z"/><circle class="cls-3" cx="503.44" cy="905.22" r="4.24"/><path class="cls-3" d="m503.44,908.61c-1.87,0-3.39-1.52-3.39-3.39s1.51-3.4,3.39-3.4,3.39,1.53,3.39,3.4-1.51,3.39-3.39,3.39Z"/><path class="cls-3" d="m490.73,905.22c0,2.34-1.9,4.24-4.24,4.24s-4.23-1.9-4.23-4.24,1.89-4.24,4.23-4.24,4.24,1.9,4.24,4.24Z"/><path class="cls-3" d="m486.48,908.61c-1.86,0-3.39-1.52-3.39-3.39s1.52-3.4,3.39-3.4,3.4,1.53,3.4,3.4-1.52,3.39-3.4,3.39Z"/><path class="cls-3" d="m473.77,905.22c0,2.34-1.89,4.24-4.23,4.24s-4.23-1.9-4.23-4.24,1.88-4.24,4.23-4.24,4.23,1.9,4.23,4.24Z"/><path class="cls-3" d="m469.54,908.61c-1.87,0-3.39-1.52-3.39-3.39s1.51-3.4,3.39-3.4,3.39,1.53,3.39,3.4-1.52,3.39-3.39,3.39Z"/><path class="cls-3" d="m456.81,905.22c0,2.34-1.88,4.24-4.23,4.24s-4.23-1.9-4.23-4.24,1.89-4.24,4.23-4.24,4.23,1.9,4.23,4.24Z"/><path class="cls-3" d="m452.58,908.61c-1.87,0-3.39-1.52-3.39-3.39s1.51-3.4,3.39-3.4,3.4,1.53,3.4,3.4-1.52,3.39-3.4,3.39Z"/><path class="cls-3" d="m439.87,905.22c0,2.34-1.9,4.24-4.25,4.24s-4.23-1.9-4.23-4.24,1.89-4.24,4.23-4.24,4.25,1.9,4.25,4.24Z"/><path class="cls-3" d="m435.62,908.61c-1.87,0-3.39-1.52-3.39-3.39s1.51-3.4,3.39-3.4,3.4,1.53,3.4,3.4-1.52,3.39-3.4,3.39Z"/><circle class="cls-3" cx="418.67" cy="905.22" r="4.24"/><path class="cls-3" d="m418.67,908.61c-1.86,0-3.39-1.52-3.39-3.39s1.53-3.4,3.39-3.4,3.4,1.53,3.4,3.4-1.52,3.39-3.4,3.39Z"/><path class="cls-3" d="m405.96,905.22c0,2.34-1.9,4.24-4.25,4.24s-4.22-1.9-4.22-4.24,1.89-4.24,4.22-4.24,4.25,1.9,4.25,4.24Z"/><path class="cls-3" d="m401.71,908.61c-1.86,0-3.39-1.52-3.39-3.39s1.52-3.4,3.39-3.4,3.4,1.53,3.4,3.4-1.52,3.39-3.4,3.39Z"/><path class="cls-3" d="m389,905.22c0,2.34-1.89,4.24-4.23,4.24s-4.24-1.9-4.24-4.24,1.89-4.24,4.24-4.24,4.23,1.9,4.23,4.24Z"/><path class="cls-3" d="m384.77,908.61c-1.87,0-3.39-1.52-3.39-3.39s1.51-3.4,3.39-3.4,3.39,1.53,3.39,3.4-1.51,3.39-3.39,3.39Z"/><path class="cls-3" d="m372.05,905.22c0,2.34-1.89,4.24-4.24,4.24s-4.23-1.9-4.23-4.24,1.89-4.24,4.23-4.24,4.24,1.9,4.24,4.24Z"/><path class="cls-3" d="m367.81,908.61c-1.86,0-3.39-1.52-3.39-3.39s1.52-3.4,3.39-3.4,3.4,1.53,3.4,3.4-1.52,3.39-3.4,3.39Z"/><path class="cls-3" d="m355.1,905.22c0,2.34-1.9,4.24-4.24,4.24s-4.24-1.9-4.24-4.24,1.89-4.24,4.24-4.24,4.24,1.9,4.24,4.24Z"/><path class="cls-3" d="m350.86,908.61c-1.87,0-3.39-1.52-3.39-3.39s1.52-3.4,3.39-3.4,3.39,1.53,3.39,3.4-1.52,3.39-3.39,3.39Z"/><path class="cls-3" d="m338.14,905.22c0,2.34-1.89,4.24-4.24,4.24s-4.23-1.9-4.23-4.24,1.89-4.24,4.23-4.24,4.24,1.9,4.24,4.24Z"/><path class="cls-3" d="m333.91,908.61c-1.87,0-3.39-1.52-3.39-3.39s1.52-3.4,3.39-3.4,3.39,1.53,3.39,3.4-1.52,3.39-3.39,3.39Z"/><circle class="cls-3" cx="316.96" cy="905.22" r="4.24"/><path class="cls-3" d="m316.96,908.61c-1.87,0-3.39-1.52-3.39-3.39s1.52-3.4,3.39-3.4,3.39,1.53,3.39,3.4-1.52,3.39-3.39,3.39Z"/><circle class="cls-3" cx="300" cy="905.22" r="4.24"/><path class="cls-3" d="m300,908.61c-1.87,0-3.39-1.52-3.39-3.39s1.52-3.4,3.39-3.4,3.39,1.53,3.39,3.4-1.52,3.39-3.39,3.39Z"/><path class="cls-3" d="m287.29,905.22c0,2.34-1.89,4.24-4.24,4.24s-4.23-1.9-4.23-4.24,1.89-4.24,4.23-4.24,4.24,1.9,4.24,4.24Z"/><path class="cls-3" d="m283.05,908.61c-1.87,0-3.39-1.52-3.39-3.39s1.52-3.4,3.39-3.4,3.39,1.53,3.39,3.4-1.52,3.39-3.39,3.39Z"/><path class="cls-3" d="m270.33,905.22c0,2.34-1.89,4.24-4.23,4.24s-4.24-1.9-4.24-4.24,1.89-4.24,4.24-4.24,4.23,1.9,4.23,4.24Z"/><path class="cls-3" d="m266.1,908.61c-1.87,0-3.39-1.52-3.39-3.39s1.52-3.4,3.39-3.4,3.39,1.53,3.39,3.4-1.52,3.39-3.39,3.39Z"/><path class="cls-3" d="m253.38,905.22c0,2.34-1.9,4.24-4.24,4.24s-4.23-1.9-4.23-4.24,1.89-4.24,4.23-4.24,4.24,1.9,4.24,4.24Z"/><path class="cls-3" d="m249.14,908.61c-1.86,0-3.39-1.52-3.39-3.39s1.52-3.4,3.39-3.4,3.4,1.53,3.4,3.4-1.52,3.39-3.4,3.39Z"/><circle class="cls-3" cx="571.25" cy="888.26" r="4.24"/><path class="cls-3" d="m571.25,891.66c-1.86,0-3.39-1.52-3.39-3.4s1.52-3.39,3.39-3.39,3.4,1.53,3.4,3.39-1.52,3.4-3.4,3.4Z"/><path class="cls-3" d="m558.54,888.26c0,2.34-1.91,4.24-4.23,4.24s-4.23-1.9-4.23-4.24,1.88-4.24,4.23-4.24,4.23,1.9,4.23,4.24Z"/><path class="cls-3" d="m554.3,891.66c-1.87,0-3.4-1.52-3.4-3.4s1.52-3.39,3.4-3.39,3.39,1.53,3.39,3.39-1.52,3.4-3.39,3.4Z"/><path class="cls-3" d="m541.58,888.26c0,2.34-1.89,4.24-4.23,4.24s-4.23-1.9-4.23-4.24,1.89-4.24,4.23-4.24,4.23,1.9,4.23,4.24Z"/><path class="cls-3" d="m537.35,891.66c-1.87,0-3.39-1.52-3.39-3.4s1.51-3.39,3.39-3.39,3.39,1.53,3.39,3.39-1.52,3.4-3.39,3.4Z"/><path class="cls-3" d="m524.63,888.26c0,2.34-1.89,4.24-4.24,4.24s-4.23-1.9-4.23-4.24,1.89-4.24,4.23-4.24,4.24,1.9,4.24,4.24Z"/><path class="cls-3" d="m520.39,891.66c-1.87,0-3.39-1.52-3.39-3.4s1.51-3.39,3.39-3.39,3.4,1.53,3.4,3.39-1.52,3.4-3.4,3.4Z"/><circle class="cls-3" cx="503.44" cy="888.26" r="4.24"/><path class="cls-3" d="m503.44,891.66c-1.87,0-3.39-1.52-3.39-3.4s1.51-3.39,3.39-3.39,3.39,1.53,3.39,3.39-1.51,3.4-3.39,3.4Z"/><path class="cls-3" d="m490.73,888.26c0,2.34-1.9,4.24-4.24,4.24s-4.23-1.9-4.23-4.24,1.89-4.24,4.23-4.24,4.24,1.9,4.24,4.24Z"/><path class="cls-3" d="m486.48,891.66c-1.86,0-3.39-1.52-3.39-3.4s1.52-3.39,3.39-3.39,3.4,1.53,3.4,3.39-1.52,3.4-3.4,3.4Z"/><path class="cls-3" d="m473.77,888.26c0,2.34-1.89,4.24-4.23,4.24s-4.23-1.9-4.23-4.24,1.88-4.24,4.23-4.24,4.23,1.9,4.23,4.24Z"/><path class="cls-3" d="m469.54,891.66c-1.87,0-3.39-1.52-3.39-3.4s1.51-3.39,3.39-3.39,3.39,1.53,3.39,3.39-1.52,3.4-3.39,3.4Z"/><path class="cls-3" d="m456.81,888.26c0,2.34-1.88,4.24-4.23,4.24s-4.23-1.9-4.23-4.24,1.89-4.24,4.23-4.24,4.23,1.9,4.23,4.24Z"/><path class="cls-3" d="m452.58,891.66c-1.87,0-3.39-1.52-3.39-3.4s1.51-3.39,3.39-3.39,3.4,1.53,3.4,3.39-1.52,3.4-3.4,3.4Z"/><path class="cls-3" d="m439.87,888.26c0,2.34-1.9,4.24-4.25,4.24s-4.23-1.9-4.23-4.24,1.89-4.24,4.23-4.24,4.25,1.9,4.25,4.24Z"/><path class="cls-3" d="m435.62,891.66c-1.87,0-3.39-1.52-3.39-3.4s1.51-3.39,3.39-3.39,3.4,1.53,3.4,3.39-1.52,3.4-3.4,3.4Z"/><circle class="cls-3" cx="418.67" cy="888.26" r="4.24"/><path class="cls-3" d="m418.67,891.66c-1.86,0-3.39-1.52-3.39-3.4s1.53-3.39,3.39-3.39,3.4,1.53,3.4,3.39-1.52,3.4-3.4,3.4Z"/><path class="cls-3" d="m405.96,888.26c0,2.34-1.9,4.24-4.25,4.24s-4.22-1.9-4.22-4.24,1.89-4.24,4.22-4.24,4.25,1.9,4.25,4.24Z"/><path class="cls-3" d="m401.71,891.66c-1.86,0-3.39-1.52-3.39-3.4s1.52-3.39,3.39-3.39,3.4,1.53,3.4,3.39-1.52,3.4-3.4,3.4Z"/><path class="cls-3" d="m389,888.26c0,2.34-1.89,4.24-4.23,4.24s-4.24-1.9-4.24-4.24,1.89-4.24,4.24-4.24,4.23,1.9,4.23,4.24Z"/><path class="cls-3" d="m384.77,891.66c-1.87,0-3.39-1.52-3.39-3.4s1.51-3.39,3.39-3.39,3.39,1.53,3.39,3.39-1.51,3.4-3.39,3.4Z"/><path class="cls-3" d="m372.05,888.26c0,2.34-1.89,4.24-4.24,4.24s-4.23-1.9-4.23-4.24,1.89-4.24,4.23-4.24,4.24,1.9,4.24,4.24Z"/><path class="cls-3" d="m367.81,891.66c-1.86,0-3.39-1.52-3.39-3.4s1.52-3.39,3.39-3.39,3.4,1.53,3.4,3.39-1.52,3.4-3.4,3.4Z"/><path class="cls-3" d="m355.1,888.26c0,2.34-1.9,4.24-4.24,4.24s-4.24-1.9-4.24-4.24,1.89-4.24,4.24-4.24,4.24,1.9,4.24,4.24Z"/><path class="cls-3" d="m350.86,891.66c-1.87,0-3.39-1.52-3.39-3.4s1.52-3.39,3.39-3.39,3.39,1.53,3.39,3.39-1.52,3.4-3.39,3.4Z"/><path class="cls-3" d="m338.14,888.26c0,2.34-1.89,4.24-4.24,4.24s-4.23-1.9-4.23-4.24,1.89-4.24,4.23-4.24,4.24,1.9,4.24,4.24Z"/><path class="cls-3" d="m333.91,891.66c-1.87,0-3.39-1.52-3.39-3.4s1.52-3.39,3.39-3.39,3.39,1.53,3.39,3.39-1.52,3.4-3.39,3.4Z"/><circle class="cls-3" cx="316.96" cy="888.26" r="4.24"/><path class="cls-3" d="m316.96,891.66c-1.87,0-3.39-1.52-3.39-3.4s1.52-3.39,3.39-3.39,3.39,1.53,3.39,3.39-1.52,3.4-3.39,3.4Z"/><circle class="cls-3" cx="300" cy="888.26" r="4.24"/><path class="cls-3" d="m300,891.66c-1.87,0-3.39-1.52-3.39-3.4s1.52-3.39,3.39-3.39,3.39,1.53,3.39,3.39-1.52,3.4-3.39,3.4Z"/><path class="cls-3" d="m287.29,888.26c0,2.34-1.89,4.24-4.24,4.24s-4.23-1.9-4.23-4.24,1.89-4.24,4.23-4.24,4.24,1.9,4.24,4.24Z"/><path class="cls-3" d="m283.05,891.66c-1.87,0-3.39-1.52-3.39-3.4s1.52-3.39,3.39-3.39,3.39,1.53,3.39,3.39-1.52,3.4-3.39,3.4Z"/><path class="cls-3" d="m270.33,888.26c0,2.34-1.89,4.24-4.23,4.24s-4.24-1.9-4.24-4.24,1.89-4.24,4.24-4.24,4.23,1.9,4.23,4.24Z"/><path class="cls-3" d="m266.1,891.66c-1.87,0-3.39-1.52-3.39-3.4s1.52-3.39,3.39-3.39,3.39,1.53,3.39,3.39-1.52,3.4-3.39,3.4Z"/><path class="cls-3" d="m253.38,888.26c0,2.34-1.9,4.24-4.24,4.24s-4.23-1.9-4.23-4.24,1.89-4.24,4.23-4.24,4.24,1.9,4.24,4.24Z"/><path class="cls-3" d="m249.14,891.66c-1.86,0-3.39-1.52-3.39-3.4s1.52-3.39,3.39-3.39,3.4,1.53,3.4,3.39-1.52,3.4-3.4,3.4Z"/><path class="cls-3" d="m575.49,871.31c0,2.34-1.91,4.24-4.24,4.24s-4.24-1.89-4.24-4.24,1.9-4.24,4.24-4.24,4.24,1.9,4.24,4.24Z"/><path class="cls-3" d="m571.25,874.71c-1.86,0-3.39-1.52-3.39-3.39s1.52-3.4,3.39-3.4,3.4,1.53,3.4,3.4-1.52,3.39-3.4,3.39Z"/><path class="cls-3" d="m558.54,871.31c0,2.34-1.91,4.24-4.23,4.24s-4.23-1.89-4.23-4.24,1.88-4.24,4.23-4.24,4.23,1.9,4.23,4.24Z"/><path class="cls-3" d="m554.3,874.71c-1.87,0-3.4-1.52-3.4-3.39s1.52-3.4,3.4-3.4,3.39,1.53,3.39,3.4-1.52,3.39-3.39,3.39Z"/><path class="cls-3" d="m541.58,871.31c0,2.34-1.89,4.24-4.23,4.24s-4.23-1.89-4.23-4.24,1.89-4.24,4.23-4.24,4.23,1.9,4.23,4.24Z"/><path class="cls-3" d="m537.35,874.71c-1.87,0-3.39-1.52-3.39-3.39s1.51-3.4,3.39-3.4,3.39,1.53,3.39,3.4-1.52,3.39-3.39,3.39Z"/><path class="cls-3" d="m524.63,871.31c0,2.34-1.89,4.24-4.24,4.24s-4.23-1.89-4.23-4.24,1.89-4.24,4.23-4.24,4.24,1.9,4.24,4.24Z"/><path class="cls-3" d="m520.39,874.71c-1.87,0-3.39-1.52-3.39-3.39s1.51-3.4,3.39-3.4,3.4,1.53,3.4,3.4-1.52,3.39-3.4,3.39Z"/><path class="cls-3" d="m507.68,871.31c0,2.34-1.9,4.24-4.24,4.24s-4.24-1.89-4.24-4.24,1.89-4.24,4.24-4.24,4.24,1.9,4.24,4.24Z"/><path class="cls-3" d="m503.44,874.71c-1.87,0-3.39-1.52-3.39-3.39s1.51-3.4,3.39-3.4,3.39,1.53,3.39,3.4-1.51,3.39-3.39,3.39Z"/><path class="cls-3" d="m490.73,871.31c0,2.34-1.9,4.24-4.24,4.24s-4.23-1.89-4.23-4.24,1.89-4.24,4.23-4.24,4.24,1.9,4.24,4.24Z"/><path class="cls-3" d="m486.48,874.71c-1.86,0-3.39-1.52-3.39-3.39s1.52-3.4,3.39-3.4,3.4,1.53,3.4,3.4-1.52,3.39-3.4,3.39Z"/><path class="cls-3" d="m473.77,871.31c0,2.34-1.89,4.24-4.23,4.24s-4.23-1.89-4.23-4.24,1.88-4.24,4.23-4.24,4.23,1.9,4.23,4.24Z"/><path class="cls-3" d="m469.54,874.71c-1.87,0-3.39-1.52-3.39-3.39s1.51-3.4,3.39-3.4,3.39,1.53,3.39,3.4-1.52,3.39-3.39,3.39Z"/><path class="cls-3" d="m456.81,871.31c0,2.34-1.88,4.24-4.23,4.24s-4.23-1.89-4.23-4.24,1.89-4.24,4.23-4.24,4.23,1.9,4.23,4.24Z"/><path class="cls-3" d="m452.58,874.71c-1.87,0-3.39-1.52-3.39-3.39s1.51-3.4,3.39-3.4,3.4,1.53,3.4,3.4-1.52,3.39-3.4,3.39Z"/><path class="cls-3" d="m439.87,871.31c0,2.34-1.9,4.24-4.25,4.24s-4.23-1.89-4.23-4.24,1.89-4.24,4.23-4.24,4.25,1.9,4.25,4.24Z"/><path class="cls-3" d="m435.62,874.71c-1.87,0-3.39-1.52-3.39-3.39s1.51-3.4,3.39-3.4,3.4,1.53,3.4,3.4-1.52,3.39-3.4,3.39Z"/><path class="cls-3" d="m422.92,871.31c0,2.34-1.9,4.24-4.24,4.24s-4.24-1.89-4.24-4.24,1.91-4.24,4.24-4.24,4.24,1.9,4.24,4.24Z"/><path class="cls-3" d="m418.67,874.71c-1.86,0-3.39-1.52-3.39-3.39s1.53-3.4,3.39-3.4,3.4,1.53,3.4,3.4-1.52,3.39-3.4,3.39Z"/><path class="cls-3" d="m405.96,871.31c0,2.34-1.9,4.24-4.25,4.24s-4.22-1.89-4.22-4.24,1.89-4.24,4.22-4.24,4.25,1.9,4.25,4.24Z"/><path class="cls-3" d="m401.71,874.71c-1.86,0-3.39-1.52-3.39-3.39s1.52-3.4,3.39-3.4,3.4,1.53,3.4,3.4-1.52,3.39-3.4,3.39Z"/><path class="cls-3" d="m389,871.31c0,2.34-1.89,4.24-4.23,4.24s-4.24-1.89-4.24-4.24,1.89-4.24,4.24-4.24,4.23,1.9,4.23,4.24Z"/><path class="cls-3" d="m384.77,874.71c-1.87,0-3.39-1.52-3.39-3.39s1.51-3.4,3.39-3.4,3.39,1.53,3.39,3.4-1.51,3.39-3.39,3.39Z"/><path class="cls-3" d="m372.05,871.31c0,2.34-1.89,4.24-4.24,4.24s-4.23-1.89-4.23-4.24,1.89-4.24,4.23-4.24,4.24,1.9,4.24,4.24Z"/><path class="cls-3" d="m367.81,874.71c-1.86,0-3.39-1.52-3.39-3.39s1.52-3.4,3.39-3.4,3.4,1.53,3.4,3.4-1.52,3.39-3.4,3.39Z"/><path class="cls-3" d="m355.1,871.31c0,2.34-1.9,4.24-4.24,4.24s-4.24-1.89-4.24-4.24,1.89-4.24,4.24-4.24,4.24,1.9,4.24,4.24Z"/><path class="cls-3" d="m350.86,874.71c-1.87,0-3.39-1.52-3.39-3.39s1.52-3.4,3.39-3.4,3.39,1.53,3.39,3.4-1.52,3.39-3.39,3.39Z"/><path class="cls-3" d="m338.14,871.31c0,2.34-1.89,4.24-4.24,4.24s-4.23-1.89-4.23-4.24,1.89-4.24,4.23-4.24,4.24,1.9,4.24,4.24Z"/><path class="cls-3" d="m333.91,874.71c-1.87,0-3.39-1.52-3.39-3.39s1.52-3.4,3.39-3.4,3.39,1.53,3.39,3.4-1.52,3.39-3.39,3.39Z"/><path class="cls-3" d="m321.19,871.31c0,2.34-1.89,4.24-4.24,4.24s-4.24-1.89-4.24-4.24,1.89-4.24,4.24-4.24,4.24,1.9,4.24,4.24Z"/><path class="cls-3" d="m316.96,874.71c-1.87,0-3.39-1.52-3.39-3.39s1.52-3.4,3.39-3.4,3.39,1.53,3.39,3.4-1.52,3.39-3.39,3.39Z"/><path class="cls-3" d="m304.24,871.31c0,2.34-1.89,4.24-4.24,4.24s-4.24-1.89-4.24-4.24,1.9-4.24,4.24-4.24,4.24,1.9,4.24,4.24Z"/><path class="cls-3" d="m300,874.71c-1.87,0-3.39-1.52-3.39-3.39s1.52-3.4,3.39-3.4,3.39,1.53,3.39,3.4-1.52,3.39-3.39,3.39Z"/><path class="cls-3" d="m287.29,871.31c0,2.34-1.89,4.24-4.24,4.24s-4.23-1.89-4.23-4.24,1.89-4.24,4.23-4.24,4.24,1.9,4.24,4.24Z"/><path class="cls-3" d="m283.05,874.71c-1.87,0-3.39-1.52-3.39-3.39s1.52-3.4,3.39-3.4,3.39,1.53,3.39,3.4-1.52,3.39-3.39,3.39Z"/><path class="cls-3" d="m270.33,871.31c0,2.34-1.89,4.24-4.23,4.24s-4.24-1.89-4.24-4.24,1.89-4.24,4.24-4.24,4.23,1.9,4.23,4.24Z"/><path class="cls-3" d="m266.1,874.71c-1.87,0-3.39-1.52-3.39-3.39s1.52-3.4,3.39-3.4,3.39,1.53,3.39,3.4-1.52,3.39-3.39,3.39Z"/><path class="cls-3" d="m253.38,871.31c0,2.34-1.9,4.24-4.24,4.24s-4.23-1.89-4.23-4.24,1.89-4.24,4.23-4.24,4.24,1.9,4.24,4.24Z"/><path class="cls-3" d="m249.14,874.71c-1.86,0-3.39-1.52-3.39-3.39s1.52-3.4,3.39-3.4,3.4,1.53,3.4,3.4-1.52,3.39-3.4,3.39Z"/><circle class="cls-3" cx="571.25" cy="854.36" r="4.24"/><path class="cls-3" d="m571.25,857.75c-1.86,0-3.39-1.53-3.39-3.39s1.52-3.39,3.39-3.39,3.4,1.52,3.4,3.39-1.52,3.39-3.4,3.39Z"/><path class="cls-3" d="m558.54,854.36c0,2.34-1.91,4.24-4.23,4.24s-4.23-1.9-4.23-4.24,1.88-4.24,4.23-4.24,4.23,1.9,4.23,4.24Z"/><path class="cls-3" d="m554.3,857.75c-1.87,0-3.4-1.53-3.4-3.39s1.52-3.39,3.4-3.39,3.39,1.52,3.39,3.39-1.52,3.39-3.39,3.39Z"/><path class="cls-3" d="m541.58,854.36c0,2.34-1.89,4.24-4.23,4.24s-4.23-1.9-4.23-4.24,1.89-4.24,4.23-4.24,4.23,1.9,4.23,4.24Z"/><path class="cls-3" d="m537.35,857.75c-1.87,0-3.39-1.53-3.39-3.39s1.51-3.39,3.39-3.39,3.39,1.52,3.39,3.39-1.52,3.39-3.39,3.39Z"/><path class="cls-3" d="m524.63,854.36c0,2.34-1.89,4.24-4.24,4.24s-4.23-1.9-4.23-4.24,1.89-4.24,4.23-4.24,4.24,1.9,4.24,4.24Z"/><path class="cls-3" d="m520.39,857.75c-1.87,0-3.39-1.53-3.39-3.39s1.51-3.39,3.39-3.39,3.4,1.52,3.4,3.39-1.52,3.39-3.4,3.39Z"/><circle class="cls-3" cx="503.44" cy="854.36" r="4.24"/><path class="cls-3" d="m503.44,857.75c-1.87,0-3.39-1.53-3.39-3.39s1.51-3.39,3.39-3.39,3.39,1.52,3.39,3.39-1.51,3.39-3.39,3.39Z"/><path class="cls-3" d="m490.73,854.36c0,2.34-1.9,4.24-4.24,4.24s-4.23-1.9-4.23-4.24,1.89-4.24,4.23-4.24,4.24,1.9,4.24,4.24Z"/><path class="cls-3" d="m486.48,857.75c-1.86,0-3.39-1.53-3.39-3.39s1.52-3.39,3.39-3.39,3.4,1.52,3.4,3.39-1.52,3.39-3.4,3.39Z"/><path class="cls-3" d="m473.77,854.36c0,2.34-1.89,4.24-4.23,4.24s-4.23-1.9-4.23-4.24,1.88-4.24,4.23-4.24,4.23,1.9,4.23,4.24Z"/><path class="cls-3" d="m469.54,857.75c-1.87,0-3.39-1.53-3.39-3.39s1.51-3.39,3.39-3.39,3.39,1.52,3.39,3.39-1.52,3.39-3.39,3.39Z"/><path class="cls-3" d="m456.81,854.36c0,2.34-1.88,4.24-4.23,4.24s-4.23-1.9-4.23-4.24,1.89-4.24,4.23-4.24,4.23,1.9,4.23,4.24Z"/><path class="cls-3" d="m452.58,857.75c-1.87,0-3.39-1.53-3.39-3.39s1.51-3.39,3.39-3.39,3.4,1.52,3.4,3.39-1.52,3.39-3.4,3.39Z"/><path class="cls-3" d="m439.87,854.36c0,2.34-1.9,4.24-4.25,4.24s-4.23-1.9-4.23-4.24,1.89-4.24,4.23-4.24,4.25,1.9,4.25,4.24Z"/><path class="cls-3" d="m435.62,857.75c-1.87,0-3.39-1.53-3.39-3.39s1.51-3.39,3.39-3.39,3.4,1.52,3.4,3.39-1.52,3.39-3.4,3.39Z"/><circle class="cls-3" cx="418.67" cy="854.36" r="4.24"/><path class="cls-3" d="m418.67,857.75c-1.86,0-3.39-1.53-3.39-3.39s1.53-3.39,3.39-3.39,3.4,1.52,3.4,3.39-1.52,3.39-3.4,3.39Z"/><path class="cls-3" d="m405.96,854.36c0,2.34-1.9,4.24-4.25,4.24s-4.22-1.9-4.22-4.24,1.89-4.24,4.22-4.24,4.25,1.9,4.25,4.24Z"/><path class="cls-3" d="m401.71,857.75c-1.86,0-3.39-1.53-3.39-3.39s1.52-3.39,3.39-3.39,3.4,1.52,3.4,3.39-1.52,3.39-3.4,3.39Z"/><path class="cls-3" d="m389,854.36c0,2.34-1.89,4.24-4.23,4.24s-4.24-1.9-4.24-4.24,1.89-4.24,4.24-4.24,4.23,1.9,4.23,4.24Z"/><path class="cls-3" d="m384.77,857.75c-1.87,0-3.39-1.53-3.39-3.39s1.51-3.39,3.39-3.39,3.39,1.52,3.39,3.39-1.51,3.39-3.39,3.39Z"/><path class="cls-3" d="m372.05,854.36c0,2.34-1.89,4.24-4.24,4.24s-4.23-1.9-4.23-4.24,1.89-4.24,4.23-4.24,4.24,1.9,4.24,4.24Z"/><path class="cls-3" d="m367.81,857.75c-1.86,0-3.39-1.53-3.39-3.39s1.52-3.39,3.39-3.39,3.4,1.52,3.4,3.39-1.52,3.39-3.4,3.39Z"/><path class="cls-3" d="m355.1,854.36c0,2.34-1.9,4.24-4.24,4.24s-4.24-1.9-4.24-4.24,1.89-4.24,4.24-4.24,4.24,1.9,4.24,4.24Z"/><path class="cls-3" d="m350.86,857.75c-1.87,0-3.39-1.53-3.39-3.39s1.52-3.39,3.39-3.39,3.39,1.52,3.39,3.39-1.52,3.39-3.39,3.39Z"/><path class="cls-3" d="m338.14,854.36c0,2.34-1.89,4.24-4.24,4.24s-4.23-1.9-4.23-4.24,1.89-4.24,4.23-4.24,4.24,1.9,4.24,4.24Z"/><path class="cls-3" d="m333.91,857.75c-1.87,0-3.39-1.53-3.39-3.39s1.52-3.39,3.39-3.39,3.39,1.52,3.39,3.39-1.52,3.39-3.39,3.39Z"/><circle class="cls-3" cx="316.96" cy="854.36" r="4.24"/><path class="cls-3" d="m316.96,857.75c-1.87,0-3.39-1.53-3.39-3.39s1.52-3.39,3.39-3.39,3.39,1.52,3.39,3.39-1.52,3.39-3.39,3.39Z"/><circle class="cls-3" cx="300" cy="854.36" r="4.24"/><path class="cls-3" d="m300,857.75c-1.87,0-3.39-1.53-3.39-3.39s1.52-3.39,3.39-3.39,3.39,1.52,3.39,3.39-1.52,3.39-3.39,3.39Z"/><path class="cls-3" d="m287.29,854.36c0,2.34-1.89,4.24-4.24,4.24s-4.23-1.9-4.23-4.24,1.89-4.24,4.23-4.24,4.24,1.9,4.24,4.24Z"/><path class="cls-3" d="m283.05,857.75c-1.87,0-3.39-1.53-3.39-3.39s1.52-3.39,3.39-3.39,3.39,1.52,3.39,3.39-1.52,3.39-3.39,3.39Z"/><path class="cls-3" d="m270.33,854.36c0,2.34-1.89,4.24-4.23,4.24s-4.24-1.9-4.24-4.24,1.89-4.24,4.24-4.24,4.23,1.9,4.23,4.24Z"/><path class="cls-3" d="m266.1,857.75c-1.87,0-3.39-1.53-3.39-3.39s1.52-3.39,3.39-3.39,3.39,1.52,3.39,3.39-1.52,3.39-3.39,3.39Z"/><path class="cls-3" d="m253.38,854.36c0,2.34-1.9,4.24-4.24,4.24s-4.23-1.9-4.23-4.24,1.89-4.24,4.23-4.24,4.24,1.9,4.24,4.24Z"/><path class="cls-3" d="m249.14,857.75c-1.86,0-3.39-1.53-3.39-3.39s1.52-3.39,3.39-3.39,3.4,1.52,3.4,3.39-1.52,3.39-3.4,3.39Z"/><path class="cls-3" d="m575.49,837.41c0,2.34-1.91,4.23-4.24,4.23s-4.24-1.89-4.24-4.23,1.9-4.24,4.24-4.24,4.24,1.9,4.24,4.24Z"/><path class="cls-3" d="m571.25,840.8c-1.86,0-3.39-1.52-3.39-3.39s1.52-3.4,3.39-3.4,3.4,1.53,3.4,3.4-1.52,3.39-3.4,3.39Z"/><path class="cls-3" d="m558.54,837.41c0,2.34-1.91,4.23-4.23,4.23s-4.23-1.89-4.23-4.23,1.88-4.24,4.23-4.24,4.23,1.9,4.23,4.24Z"/><path class="cls-3" d="m554.3,840.8c-1.87,0-3.4-1.52-3.4-3.39s1.52-3.4,3.4-3.4,3.39,1.53,3.39,3.4-1.52,3.39-3.39,3.39Z"/><path class="cls-3" d="m541.58,837.41c0,2.34-1.89,4.23-4.23,4.23s-4.23-1.89-4.23-4.23,1.89-4.24,4.23-4.24,4.23,1.9,4.23,4.24Z"/><path class="cls-3" d="m537.35,840.8c-1.87,0-3.39-1.52-3.39-3.39s1.51-3.4,3.39-3.4,3.39,1.53,3.39,3.4-1.52,3.39-3.39,3.39Z"/><path class="cls-3" d="m524.63,837.41c0,2.34-1.89,4.23-4.24,4.23s-4.23-1.89-4.23-4.23,1.89-4.24,4.23-4.24,4.24,1.9,4.24,4.24Z"/><path class="cls-3" d="m520.39,840.8c-1.87,0-3.39-1.52-3.39-3.39s1.51-3.4,3.39-3.4,3.4,1.53,3.4,3.4-1.52,3.39-3.4,3.39Z"/><path class="cls-3" d="m507.68,837.41c0,2.34-1.9,4.23-4.24,4.23s-4.24-1.89-4.24-4.23,1.89-4.24,4.24-4.24,4.24,1.9,4.24,4.24Z"/><path class="cls-3" d="m503.44,840.8c-1.87,0-3.39-1.52-3.39-3.39s1.51-3.4,3.39-3.4,3.39,1.53,3.39,3.4-1.51,3.39-3.39,3.39Z"/><path class="cls-3" d="m490.73,837.41c0,2.34-1.9,4.23-4.24,4.23s-4.23-1.89-4.23-4.23,1.89-4.24,4.23-4.24,4.24,1.9,4.24,4.24Z"/><path class="cls-3" d="m486.48,840.8c-1.86,0-3.39-1.52-3.39-3.39s1.52-3.4,3.39-3.4,3.4,1.53,3.4,3.4-1.52,3.39-3.4,3.39Z"/><path class="cls-3" d="m473.77,837.41c0,2.34-1.89,4.23-4.23,4.23s-4.23-1.89-4.23-4.23,1.88-4.24,4.23-4.24,4.23,1.9,4.23,4.24Z"/><path class="cls-3" d="m469.54,840.8c-1.87,0-3.39-1.52-3.39-3.39s1.51-3.4,3.39-3.4,3.39,1.53,3.39,3.4-1.52,3.39-3.39,3.39Z"/><path class="cls-3" d="m456.81,837.41c0,2.34-1.88,4.23-4.23,4.23s-4.23-1.89-4.23-4.23,1.89-4.24,4.23-4.24,4.23,1.9,4.23,4.24Z"/><path class="cls-3" d="m452.58,840.8c-1.87,0-3.39-1.52-3.39-3.39s1.51-3.4,3.39-3.4,3.4,1.53,3.4,3.4-1.52,3.39-3.4,3.39Z"/><path class="cls-3" d="m439.87,837.41c0,2.34-1.9,4.23-4.25,4.23s-4.23-1.89-4.23-4.23,1.89-4.24,4.23-4.24,4.25,1.9,4.25,4.24Z"/><path class="cls-3" d="m435.62,840.8c-1.87,0-3.39-1.52-3.39-3.39s1.51-3.4,3.39-3.4,3.4,1.53,3.4,3.4-1.52,3.39-3.4,3.39Z"/><path class="cls-3" d="m422.92,837.41c0,2.34-1.9,4.23-4.24,4.23s-4.24-1.89-4.24-4.23,1.91-4.24,4.24-4.24,4.24,1.9,4.24,4.24Z"/><path class="cls-3" d="m418.67,840.8c-1.86,0-3.39-1.52-3.39-3.39s1.53-3.4,3.39-3.4,3.4,1.53,3.4,3.4-1.52,3.39-3.4,3.39Z"/><path class="cls-3" d="m405.96,837.41c0,2.34-1.9,4.23-4.25,4.23s-4.22-1.89-4.22-4.23,1.89-4.24,4.22-4.24,4.25,1.9,4.25,4.24Z"/><path class="cls-3" d="m401.71,840.8c-1.86,0-3.39-1.52-3.39-3.39s1.52-3.4,3.39-3.4,3.4,1.53,3.4,3.4-1.52,3.39-3.4,3.39Z"/><path class="cls-3" d="m389,837.41c0,2.34-1.89,4.23-4.23,4.23s-4.24-1.89-4.24-4.23,1.89-4.24,4.24-4.24,4.23,1.9,4.23,4.24Z"/><path class="cls-3" d="m384.77,840.8c-1.87,0-3.39-1.52-3.39-3.39s1.51-3.4,3.39-3.4,3.39,1.53,3.39,3.4-1.51,3.39-3.39,3.39Z"/><path class="cls-3" d="m372.05,837.41c0,2.34-1.89,4.23-4.24,4.23s-4.23-1.89-4.23-4.23,1.89-4.24,4.23-4.24,4.24,1.9,4.24,4.24Z"/><path class="cls-3" d="m367.81,840.8c-1.86,0-3.39-1.52-3.39-3.39s1.52-3.4,3.39-3.4,3.4,1.53,3.4,3.4-1.52,3.39-3.4,3.39Z"/><path class="cls-3" d="m355.1,837.41c0,2.34-1.9,4.23-4.24,4.23s-4.24-1.89-4.24-4.23,1.89-4.24,4.24-4.24,4.24,1.9,4.24,4.24Z"/><path class="cls-3" d="m350.86,840.8c-1.87,0-3.39-1.52-3.39-3.39s1.52-3.4,3.39-3.4,3.39,1.53,3.39,3.4-1.52,3.39-3.39,3.39Z"/><path class="cls-3" d="m338.14,837.41c0,2.34-1.89,4.23-4.24,4.23s-4.23-1.89-4.23-4.23,1.89-4.24,4.23-4.24,4.24,1.9,4.24,4.24Z"/><path class="cls-3" d="m333.91,840.8c-1.87,0-3.39-1.52-3.39-3.39s1.52-3.4,3.39-3.4,3.39,1.53,3.39,3.4-1.52,3.39-3.39,3.39Z"/><path class="cls-3" d="m321.19,837.41c0,2.34-1.89,4.23-4.24,4.23s-4.24-1.89-4.24-4.23,1.89-4.24,4.24-4.24,4.24,1.9,4.24,4.24Z"/><path class="cls-3" d="m316.96,840.8c-1.87,0-3.39-1.52-3.39-3.39s1.52-3.4,3.39-3.4,3.39,1.53,3.39,3.4-1.52,3.39-3.39,3.39Z"/><path class="cls-3" d="m304.24,837.41c0,2.34-1.89,4.23-4.24,4.23s-4.24-1.89-4.24-4.23,1.9-4.24,4.24-4.24,4.24,1.9,4.24,4.24Z"/><path class="cls-3" d="m300,840.8c-1.87,0-3.39-1.52-3.39-3.39s1.52-3.4,3.39-3.4,3.39,1.53,3.39,3.4-1.52,3.39-3.39,3.39Z"/><path class="cls-3" d="m287.29,837.41c0,2.34-1.89,4.23-4.24,4.23s-4.23-1.89-4.23-4.23,1.89-4.24,4.23-4.24,4.24,1.9,4.24,4.24Z"/><path class="cls-3" d="m283.05,840.8c-1.87,0-3.39-1.52-3.39-3.39s1.52-3.4,3.39-3.4,3.39,1.53,3.39,3.4-1.52,3.39-3.39,3.39Z"/><path class="cls-3" d="m270.33,837.41c0,2.34-1.89,4.23-4.23,4.23s-4.24-1.89-4.24-4.23,1.89-4.24,4.24-4.24,4.23,1.9,4.23,4.24Z"/><path class="cls-3" d="m266.1,840.8c-1.87,0-3.39-1.52-3.39-3.39s1.52-3.4,3.39-3.4,3.39,1.53,3.39,3.4-1.52,3.39-3.39,3.39Z"/><path class="cls-3" d="m253.38,837.41c0,2.34-1.9,4.23-4.24,4.23s-4.23-1.89-4.23-4.23,1.89-4.24,4.23-4.24,4.24,1.9,4.24,4.24Z"/><path class="cls-3" d="m249.14,840.8c-1.86,0-3.39-1.52-3.39-3.39s1.52-3.4,3.39-3.4,3.4,1.53,3.4,3.4-1.52,3.39-3.4,3.39Z"/><path class="cls-3" d="m575.49,820.45c0,2.34-1.91,4.24-4.24,4.24s-4.24-1.9-4.24-4.24,1.9-4.24,4.24-4.24,4.24,1.9,4.24,4.24Z"/><path class="cls-3" d="m571.25,823.84c-1.86,0-3.39-1.52-3.39-3.39s1.52-3.39,3.39-3.39,3.4,1.52,3.4,3.39-1.52,3.39-3.4,3.39Z"/><path class="cls-3" d="m558.54,820.45c0,2.34-1.91,4.24-4.23,4.24s-4.23-1.9-4.23-4.24,1.88-4.24,4.23-4.24,4.23,1.9,4.23,4.24Z"/><path class="cls-3" d="m554.3,823.84c-1.87,0-3.4-1.52-3.4-3.39s1.52-3.39,3.4-3.39,3.39,1.52,3.39,3.39-1.52,3.39-3.39,3.39Z"/><path class="cls-3" d="m541.58,820.45c0,2.34-1.89,4.24-4.23,4.24s-4.23-1.9-4.23-4.24,1.89-4.24,4.23-4.24,4.23,1.9,4.23,4.24Z"/><path class="cls-3" d="m537.35,823.84c-1.87,0-3.39-1.52-3.39-3.39s1.51-3.39,3.39-3.39,3.39,1.52,3.39,3.39-1.52,3.39-3.39,3.39Z"/><path class="cls-3" d="m524.63,820.45c0,2.34-1.89,4.24-4.24,4.24s-4.23-1.9-4.23-4.24,1.89-4.24,4.23-4.24,4.24,1.9,4.24,4.24Z"/><path class="cls-3" d="m520.39,823.84c-1.87,0-3.39-1.52-3.39-3.39s1.51-3.39,3.39-3.39,3.4,1.52,3.4,3.39-1.52,3.39-3.4,3.39Z"/><path class="cls-3" d="m507.68,820.45c0,2.34-1.9,4.24-4.24,4.24s-4.24-1.9-4.24-4.24,1.89-4.24,4.24-4.24,4.24,1.9,4.24,4.24Z"/><path class="cls-3" d="m503.44,823.84c-1.87,0-3.39-1.52-3.39-3.39s1.51-3.39,3.39-3.39,3.39,1.52,3.39,3.39-1.51,3.39-3.39,3.39Z"/><path class="cls-3" d="m490.73,820.45c0,2.34-1.9,4.24-4.24,4.24s-4.23-1.9-4.23-4.24,1.89-4.24,4.23-4.24,4.24,1.9,4.24,4.24Z"/><path class="cls-3" d="m486.48,823.84c-1.86,0-3.39-1.52-3.39-3.39s1.52-3.39,3.39-3.39,3.4,1.52,3.4,3.39-1.52,3.39-3.4,3.39Z"/><path class="cls-3" d="m473.77,820.45c0,2.34-1.89,4.24-4.23,4.24s-4.23-1.9-4.23-4.24,1.88-4.24,4.23-4.24,4.23,1.9,4.23,4.24Z"/><path class="cls-3" d="m469.54,823.84c-1.87,0-3.39-1.52-3.39-3.39s1.51-3.39,3.39-3.39,3.39,1.52,3.39,3.39-1.52,3.39-3.39,3.39Z"/><path class="cls-3" d="m456.81,820.45c0,2.34-1.88,4.24-4.23,4.24s-4.23-1.9-4.23-4.24,1.89-4.24,4.23-4.24,4.23,1.9,4.23,4.24Z"/><path class="cls-3" d="m452.58,823.84c-1.87,0-3.39-1.52-3.39-3.39s1.51-3.39,3.39-3.39,3.4,1.52,3.4,3.39-1.52,3.39-3.4,3.39Z"/><path class="cls-3" d="m439.87,820.45c0,2.34-1.9,4.24-4.25,4.24s-4.23-1.9-4.23-4.24,1.89-4.24,4.23-4.24,4.25,1.9,4.25,4.24Z"/><path class="cls-3" d="m435.62,823.84c-1.87,0-3.39-1.52-3.39-3.39s1.51-3.39,3.39-3.39,3.4,1.52,3.4,3.39-1.52,3.39-3.4,3.39Z"/><path class="cls-3" d="m422.92,820.45c0,2.34-1.9,4.24-4.24,4.24s-4.24-1.9-4.24-4.24,1.91-4.24,4.24-4.24,4.24,1.9,4.24,4.24Z"/><path class="cls-3" d="m418.67,823.84c-1.86,0-3.39-1.52-3.39-3.39s1.53-3.39,3.39-3.39,3.4,1.52,3.4,3.39-1.52,3.39-3.4,3.39Z"/><path class="cls-3" d="m405.96,820.45c0,2.34-1.9,4.24-4.25,4.24s-4.22-1.9-4.22-4.24,1.89-4.24,4.22-4.24,4.25,1.9,4.25,4.24Z"/><path class="cls-3" d="m401.71,823.84c-1.86,0-3.39-1.52-3.39-3.39s1.52-3.39,3.39-3.39,3.4,1.52,3.4,3.39-1.52,3.39-3.4,3.39Z"/><path class="cls-3" d="m389,820.45c0,2.34-1.89,4.24-4.23,4.24s-4.24-1.9-4.24-4.24,1.89-4.24,4.24-4.24,4.23,1.9,4.23,4.24Z"/><path class="cls-3" d="m384.77,823.84c-1.87,0-3.39-1.52-3.39-3.39s1.51-3.39,3.39-3.39,3.39,1.52,3.39,3.39-1.51,3.39-3.39,3.39Z"/><path class="cls-3" d="m372.05,820.45c0,2.34-1.89,4.24-4.24,4.24s-4.23-1.9-4.23-4.24,1.89-4.24,4.23-4.24,4.24,1.9,4.24,4.24Z"/><path class="cls-3" d="m367.81,823.84c-1.86,0-3.39-1.52-3.39-3.39s1.52-3.39,3.39-3.39,3.4,1.52,3.4,3.39-1.52,3.39-3.4,3.39Z"/><path class="cls-3" d="m355.1,820.45c0,2.34-1.9,4.24-4.24,4.24s-4.24-1.9-4.24-4.24,1.89-4.24,4.24-4.24,4.24,1.9,4.24,4.24Z"/><path class="cls-3" d="m350.86,823.84c-1.87,0-3.39-1.52-3.39-3.39s1.52-3.39,3.39-3.39,3.39,1.52,3.39,3.39-1.52,3.39-3.39,3.39Z"/><path class="cls-3" d="m338.14,820.45c0,2.34-1.89,4.24-4.24,4.24s-4.23-1.9-4.23-4.24,1.89-4.24,4.23-4.24,4.24,1.9,4.24,4.24Z"/><path class="cls-3" d="m333.91,823.84c-1.87,0-3.39-1.52-3.39-3.39s1.52-3.39,3.39-3.39,3.39,1.52,3.39,3.39-1.52,3.39-3.39,3.39Z"/><path class="cls-3" d="m321.19,820.45c0,2.34-1.89,4.24-4.24,4.24s-4.24-1.9-4.24-4.24,1.89-4.24,4.24-4.24,4.24,1.9,4.24,4.24Z"/><path class="cls-3" d="m316.96,823.84c-1.87,0-3.39-1.52-3.39-3.39s1.52-3.39,3.39-3.39,3.39,1.52,3.39,3.39-1.52,3.39-3.39,3.39Z"/><path class="cls-3" d="m304.24,820.45c0,2.34-1.89,4.24-4.24,4.24s-4.24-1.9-4.24-4.24,1.9-4.24,4.24-4.24,4.24,1.9,4.24,4.24Z"/><path class="cls-3" d="m300,823.84c-1.87,0-3.39-1.52-3.39-3.39s1.52-3.39,3.39-3.39,3.39,1.52,3.39,3.39-1.52,3.39-3.39,3.39Z"/><path class="cls-3" d="m287.29,820.45c0,2.34-1.89,4.24-4.24,4.24s-4.23-1.9-4.23-4.24,1.89-4.24,4.23-4.24,4.24,1.9,4.24,4.24Z"/><path class="cls-3" d="m283.05,823.84c-1.87,0-3.39-1.52-3.39-3.39s1.52-3.39,3.39-3.39,3.39,1.52,3.39,3.39-1.52,3.39-3.39,3.39Z"/><path class="cls-3" d="m270.33,820.45c0,2.34-1.89,4.24-4.23,4.24s-4.24-1.9-4.24-4.24,1.89-4.24,4.24-4.24,4.23,1.9,4.23,4.24Z"/><path class="cls-3" d="m266.1,823.84c-1.87,0-3.39-1.52-3.39-3.39s1.52-3.39,3.39-3.39,3.39,1.52,3.39,3.39-1.52,3.39-3.39,3.39Z"/><path class="cls-3" d="m253.38,820.45c0,2.34-1.9,4.24-4.24,4.24s-4.23-1.9-4.23-4.24,1.89-4.24,4.23-4.24,4.24,1.9,4.24,4.24Z"/><path class="cls-3" d="m249.14,823.84c-1.86,0-3.39-1.52-3.39-3.39s1.52-3.39,3.39-3.39,3.4,1.52,3.4,3.39-1.52,3.39-3.4,3.39Z"/><path class="cls-3" d="m575.49,803.5c0,2.34-1.91,4.24-4.24,4.24s-4.24-1.89-4.24-4.24,1.9-4.24,4.24-4.24,4.24,1.9,4.24,4.24Z"/><path class="cls-3" d="m571.25,806.89c-1.86,0-3.39-1.52-3.39-3.4s1.52-3.39,3.39-3.39,3.4,1.53,3.4,3.39-1.52,3.4-3.4,3.4Z"/><path class="cls-3" d="m558.54,803.5c0,2.34-1.91,4.24-4.23,4.24s-4.23-1.89-4.23-4.24,1.88-4.24,4.23-4.24,4.23,1.9,4.23,4.24Z"/><path class="cls-3" d="m554.3,806.89c-1.87,0-3.4-1.52-3.4-3.4s1.52-3.39,3.4-3.39,3.39,1.53,3.39,3.39-1.52,3.4-3.39,3.4Z"/><path class="cls-3" d="m541.58,803.5c0,2.34-1.89,4.24-4.23,4.24s-4.23-1.89-4.23-4.24,1.89-4.24,4.23-4.24,4.23,1.9,4.23,4.24Z"/><path class="cls-3" d="m537.35,806.89c-1.87,0-3.39-1.52-3.39-3.4s1.51-3.39,3.39-3.39,3.39,1.53,3.39,3.39-1.52,3.4-3.39,3.4Z"/><path class="cls-3" d="m524.63,803.5c0,2.34-1.89,4.24-4.24,4.24s-4.23-1.89-4.23-4.24,1.89-4.24,4.23-4.24,4.24,1.9,4.24,4.24Z"/><path class="cls-3" d="m520.39,806.89c-1.87,0-3.39-1.52-3.39-3.4s1.51-3.39,3.39-3.39,3.4,1.53,3.4,3.39-1.52,3.4-3.4,3.4Z"/><path class="cls-3" d="m507.68,803.5c0,2.34-1.9,4.24-4.24,4.24s-4.24-1.89-4.24-4.24,1.89-4.24,4.24-4.24,4.24,1.9,4.24,4.24Z"/><path class="cls-3" d="m503.44,806.89c-1.87,0-3.39-1.52-3.39-3.4s1.51-3.39,3.39-3.39,3.39,1.53,3.39,3.39-1.51,3.4-3.39,3.4Z"/><path class="cls-3" d="m490.73,803.5c0,2.34-1.9,4.24-4.24,4.24s-4.23-1.89-4.23-4.24,1.89-4.24,4.23-4.24,4.24,1.9,4.24,4.24Z"/><path class="cls-3" d="m486.48,806.89c-1.86,0-3.39-1.52-3.39-3.4s1.52-3.39,3.39-3.39,3.4,1.53,3.4,3.39-1.52,3.4-3.4,3.4Z"/><path class="cls-3" d="m473.77,803.5c0,2.34-1.89,4.24-4.23,4.24s-4.23-1.89-4.23-4.24,1.88-4.24,4.23-4.24,4.23,1.9,4.23,4.24Z"/><path class="cls-3" d="m469.54,806.89c-1.87,0-3.39-1.52-3.39-3.4s1.51-3.39,3.39-3.39,3.39,1.53,3.39,3.39-1.52,3.4-3.39,3.4Z"/><path class="cls-3" d="m456.81,803.5c0,2.34-1.88,4.24-4.23,4.24s-4.23-1.89-4.23-4.24,1.89-4.24,4.23-4.24,4.23,1.9,4.23,4.24Z"/><path class="cls-3" d="m452.58,806.89c-1.87,0-3.39-1.52-3.39-3.4s1.51-3.39,3.39-3.39,3.4,1.53,3.4,3.39-1.52,3.4-3.4,3.4Z"/><path class="cls-3" d="m439.87,803.5c0,2.34-1.9,4.24-4.25,4.24s-4.23-1.89-4.23-4.24,1.89-4.24,4.23-4.24,4.25,1.9,4.25,4.24Z"/><path class="cls-3" d="m435.62,806.89c-1.87,0-3.39-1.52-3.39-3.4s1.51-3.39,3.39-3.39,3.4,1.53,3.4,3.39-1.52,3.4-3.4,3.4Z"/><path class="cls-3" d="m422.92,803.5c0,2.34-1.9,4.24-4.24,4.24s-4.24-1.89-4.24-4.24,1.91-4.24,4.24-4.24,4.24,1.9,4.24,4.24Z"/><path class="cls-3" d="m418.67,806.89c-1.86,0-3.39-1.52-3.39-3.4s1.53-3.39,3.39-3.39,3.4,1.53,3.4,3.39-1.52,3.4-3.4,3.4Z"/><path class="cls-3" d="m405.96,803.5c0,2.34-1.9,4.24-4.25,4.24s-4.22-1.89-4.22-4.24,1.89-4.24,4.22-4.24,4.25,1.9,4.25,4.24Z"/><path class="cls-3" d="m401.71,806.89c-1.86,0-3.39-1.52-3.39-3.4s1.52-3.39,3.39-3.39,3.4,1.53,3.4,3.39-1.52,3.4-3.4,3.4Z"/><path class="cls-3" d="m389,803.5c0,2.34-1.89,4.24-4.23,4.24s-4.24-1.89-4.24-4.24,1.89-4.24,4.24-4.24,4.23,1.9,4.23,4.24Z"/><path class="cls-3" d="m384.77,806.89c-1.87,0-3.39-1.52-3.39-3.4s1.51-3.39,3.39-3.39,3.39,1.53,3.39,3.39-1.51,3.4-3.39,3.4Z"/><path class="cls-3" d="m372.05,803.5c0,2.34-1.89,4.24-4.24,4.24s-4.23-1.89-4.23-4.24,1.89-4.24,4.23-4.24,4.24,1.9,4.24,4.24Z"/><path class="cls-3" d="m367.81,806.89c-1.86,0-3.39-1.52-3.39-3.4s1.52-3.39,3.39-3.39,3.4,1.53,3.4,3.39-1.52,3.4-3.4,3.4Z"/><path class="cls-3" d="m355.1,803.5c0,2.34-1.9,4.24-4.24,4.24s-4.24-1.89-4.24-4.24,1.89-4.24,4.24-4.24,4.24,1.9,4.24,4.24Z"/><path class="cls-3" d="m350.86,806.89c-1.87,0-3.39-1.52-3.39-3.4s1.52-3.39,3.39-3.39,3.39,1.53,3.39,3.39-1.52,3.4-3.39,3.4Z"/><path class="cls-3" d="m338.14,803.5c0,2.34-1.89,4.24-4.24,4.24s-4.23-1.89-4.23-4.24,1.89-4.24,4.23-4.24,4.24,1.9,4.24,4.24Z"/><path class="cls-3" d="m333.91,806.89c-1.87,0-3.39-1.52-3.39-3.4s1.52-3.39,3.39-3.39,3.39,1.53,3.39,3.39-1.52,3.4-3.39,3.4Z"/><path class="cls-3" d="m321.19,803.5c0,2.34-1.89,4.24-4.24,4.24s-4.24-1.89-4.24-4.24,1.89-4.24,4.24-4.24,4.24,1.9,4.24,4.24Z"/><path class="cls-3" d="m316.96,806.89c-1.87,0-3.39-1.52-3.39-3.4s1.52-3.39,3.39-3.39,3.39,1.53,3.39,3.39-1.52,3.4-3.39,3.4Z"/><path class="cls-3" d="m304.24,803.5c0,2.34-1.89,4.24-4.24,4.24s-4.24-1.89-4.24-4.24,1.9-4.24,4.24-4.24,4.24,1.9,4.24,4.24Z"/><path class="cls-3" d="m300,806.89c-1.87,0-3.39-1.52-3.39-3.4s1.52-3.39,3.39-3.39,3.39,1.53,3.39,3.39-1.52,3.4-3.39,3.4Z"/><path class="cls-3" d="m287.29,803.5c0,2.34-1.89,4.24-4.24,4.24s-4.23-1.89-4.23-4.24,1.89-4.24,4.23-4.24,4.24,1.9,4.24,4.24Z"/><path class="cls-3" d="m283.05,806.89c-1.87,0-3.39-1.52-3.39-3.4s1.52-3.39,3.39-3.39,3.39,1.53,3.39,3.39-1.52,3.4-3.39,3.4Z"/><path class="cls-3" d="m270.33,803.5c0,2.34-1.89,4.24-4.23,4.24s-4.24-1.89-4.24-4.24,1.89-4.24,4.24-4.24,4.23,1.9,4.23,4.24Z"/><path class="cls-3" d="m266.1,806.89c-1.87,0-3.39-1.52-3.39-3.4s1.52-3.39,3.39-3.39,3.39,1.53,3.39,3.39-1.52,3.4-3.39,3.4Z"/><path class="cls-3" d="m253.38,803.5c0,2.34-1.9,4.24-4.24,4.24s-4.23-1.89-4.23-4.24,1.89-4.24,4.23-4.24,4.24,1.9,4.24,4.24Z"/><path class="cls-3" d="m249.14,806.89c-1.86,0-3.39-1.52-3.39-3.4s1.52-3.39,3.39-3.39,3.4,1.53,3.4,3.39-1.52,3.4-3.4,3.4Z"/><path class="cls-3" d="m575.49,786.55c0,2.34-1.91,4.24-4.24,4.24s-4.24-1.9-4.24-4.24,1.9-4.24,4.24-4.24,4.24,1.89,4.24,4.24Z"/><path class="cls-3" d="m571.25,789.94c-1.86,0-3.39-1.52-3.39-3.39s1.52-3.39,3.39-3.39,3.4,1.53,3.4,3.39-1.52,3.39-3.4,3.39Z"/><path class="cls-3" d="m558.54,786.55c0,2.34-1.91,4.24-4.23,4.24s-4.23-1.9-4.23-4.24,1.88-4.24,4.23-4.24,4.23,1.89,4.23,4.24Z"/><path class="cls-3" d="m554.3,789.94c-1.87,0-3.4-1.52-3.4-3.39s1.52-3.39,3.4-3.39,3.39,1.53,3.39,3.39-1.52,3.39-3.39,3.39Z"/><path class="cls-3" d="m541.58,786.55c0,2.34-1.89,4.24-4.23,4.24s-4.23-1.9-4.23-4.24,1.89-4.24,4.23-4.24,4.23,1.89,4.23,4.24Z"/><path class="cls-3" d="m537.35,789.94c-1.87,0-3.39-1.52-3.39-3.39s1.51-3.39,3.39-3.39,3.39,1.53,3.39,3.39-1.52,3.39-3.39,3.39Z"/><path class="cls-3" d="m524.63,786.55c0,2.34-1.89,4.24-4.24,4.24s-4.23-1.9-4.23-4.24,1.89-4.24,4.23-4.24,4.24,1.89,4.24,4.24Z"/><path class="cls-3" d="m520.39,789.94c-1.87,0-3.39-1.52-3.39-3.39s1.51-3.39,3.39-3.39,3.4,1.53,3.4,3.39-1.52,3.39-3.4,3.39Z"/><path class="cls-3" d="m507.68,786.55c0,2.34-1.9,4.24-4.24,4.24s-4.24-1.9-4.24-4.24,1.89-4.24,4.24-4.24,4.24,1.89,4.24,4.24Z"/><path class="cls-3" d="m503.44,789.94c-1.87,0-3.39-1.52-3.39-3.39s1.51-3.39,3.39-3.39,3.39,1.53,3.39,3.39-1.51,3.39-3.39,3.39Z"/><path class="cls-3" d="m490.73,786.55c0,2.34-1.9,4.24-4.24,4.24s-4.23-1.9-4.23-4.24,1.89-4.24,4.23-4.24,4.24,1.89,4.24,4.24Z"/><path class="cls-3" d="m486.48,789.94c-1.86,0-3.39-1.52-3.39-3.39s1.52-3.39,3.39-3.39,3.4,1.53,3.4,3.39-1.52,3.39-3.4,3.39Z"/><path class="cls-3" d="m473.77,786.55c0,2.34-1.89,4.24-4.23,4.24s-4.23-1.9-4.23-4.24,1.88-4.24,4.23-4.24,4.23,1.89,4.23,4.24Z"/><path class="cls-3" d="m469.54,789.94c-1.87,0-3.39-1.52-3.39-3.39s1.51-3.39,3.39-3.39,3.39,1.53,3.39,3.39-1.52,3.39-3.39,3.39Z"/><path class="cls-3" d="m456.81,786.55c0,2.34-1.88,4.24-4.23,4.24s-4.23-1.9-4.23-4.24,1.89-4.24,4.23-4.24,4.23,1.89,4.23,4.24Z"/><path class="cls-3" d="m452.58,789.94c-1.87,0-3.39-1.52-3.39-3.39s1.51-3.39,3.39-3.39,3.4,1.53,3.4,3.39-1.52,3.39-3.4,3.39Z"/><path class="cls-3" d="m439.87,786.55c0,2.34-1.9,4.24-4.25,4.24s-4.23-1.9-4.23-4.24,1.89-4.24,4.23-4.24,4.25,1.89,4.25,4.24Z"/><path class="cls-3" d="m435.62,789.94c-1.87,0-3.39-1.52-3.39-3.39s1.51-3.39,3.39-3.39,3.4,1.53,3.4,3.39-1.52,3.39-3.4,3.39Z"/><path class="cls-3" d="m422.92,786.55c0,2.34-1.9,4.24-4.24,4.24s-4.24-1.9-4.24-4.24,1.91-4.24,4.24-4.24,4.24,1.89,4.24,4.24Z"/><path class="cls-3" d="m418.67,789.94c-1.86,0-3.39-1.52-3.39-3.39s1.53-3.39,3.39-3.39,3.4,1.53,3.4,3.39-1.52,3.39-3.4,3.39Z"/><path class="cls-3" d="m405.96,786.55c0,2.34-1.9,4.24-4.25,4.24s-4.22-1.9-4.22-4.24,1.89-4.24,4.22-4.24,4.25,1.89,4.25,4.24Z"/><path class="cls-3" d="m401.71,789.94c-1.86,0-3.39-1.52-3.39-3.39s1.52-3.39,3.39-3.39,3.4,1.53,3.4,3.39-1.52,3.39-3.4,3.39Z"/><path class="cls-3" d="m389,786.55c0,2.34-1.89,4.24-4.23,4.24s-4.24-1.9-4.24-4.24,1.89-4.24,4.24-4.24,4.23,1.89,4.23,4.24Z"/><path class="cls-3" d="m384.77,789.94c-1.87,0-3.39-1.52-3.39-3.39s1.51-3.39,3.39-3.39,3.39,1.53,3.39,3.39-1.51,3.39-3.39,3.39Z"/><path class="cls-3" d="m372.05,786.55c0,2.34-1.89,4.24-4.24,4.24s-4.23-1.9-4.23-4.24,1.89-4.24,4.23-4.24,4.24,1.89,4.24,4.24Z"/><path class="cls-3" d="m367.81,789.94c-1.86,0-3.39-1.52-3.39-3.39s1.52-3.39,3.39-3.39,3.4,1.53,3.4,3.39-1.52,3.39-3.4,3.39Z"/><path class="cls-3" d="m355.1,786.55c0,2.34-1.9,4.24-4.24,4.24s-4.24-1.9-4.24-4.24,1.89-4.24,4.24-4.24,4.24,1.89,4.24,4.24Z"/><path class="cls-3" d="m350.86,789.94c-1.87,0-3.39-1.52-3.39-3.39s1.52-3.39,3.39-3.39,3.39,1.53,3.39,3.39-1.52,3.39-3.39,3.39Z"/><path class="cls-3" d="m338.14,786.55c0,2.34-1.89,4.24-4.24,4.24s-4.23-1.9-4.23-4.24,1.89-4.24,4.23-4.24,4.24,1.89,4.24,4.24Z"/><path class="cls-3" d="m333.91,789.94c-1.87,0-3.39-1.52-3.39-3.39s1.52-3.39,3.39-3.39,3.39,1.53,3.39,3.39-1.52,3.39-3.39,3.39Z"/><path class="cls-3" d="m321.19,786.55c0,2.34-1.89,4.24-4.24,4.24s-4.24-1.9-4.24-4.24,1.89-4.24,4.24-4.24,4.24,1.89,4.24,4.24Z"/><path class="cls-3" d="m316.96,789.94c-1.87,0-3.39-1.52-3.39-3.39s1.52-3.39,3.39-3.39,3.39,1.53,3.39,3.39-1.52,3.39-3.39,3.39Z"/><path class="cls-3" d="m304.24,786.55c0,2.34-1.89,4.24-4.24,4.24s-4.24-1.9-4.24-4.24,1.9-4.24,4.24-4.24,4.24,1.89,4.24,4.24Z"/><path class="cls-3" d="m300,789.94c-1.87,0-3.39-1.52-3.39-3.39s1.52-3.39,3.39-3.39,3.39,1.53,3.39,3.39-1.52,3.39-3.39,3.39Z"/><path class="cls-3" d="m287.29,786.55c0,2.34-1.89,4.24-4.24,4.24s-4.23-1.9-4.23-4.24,1.89-4.24,4.23-4.24,4.24,1.89,4.24,4.24Z"/><path class="cls-3" d="m283.05,789.94c-1.87,0-3.39-1.52-3.39-3.39s1.52-3.39,3.39-3.39,3.39,1.53,3.39,3.39-1.52,3.39-3.39,3.39Z"/><path class="cls-3" d="m270.33,786.55c0,2.34-1.89,4.24-4.23,4.24s-4.24-1.9-4.24-4.24,1.89-4.24,4.24-4.24,4.23,1.89,4.23,4.24Z"/><path class="cls-3" d="m266.1,789.94c-1.87,0-3.39-1.52-3.39-3.39s1.52-3.39,3.39-3.39,3.39,1.53,3.39,3.39-1.52,3.39-3.39,3.39Z"/><path class="cls-3" d="m253.38,786.55c0,2.34-1.9,4.24-4.24,4.24s-4.23-1.9-4.23-4.24,1.89-4.24,4.23-4.24,4.24,1.89,4.24,4.24Z"/><path class="cls-3" d="m249.14,789.94c-1.86,0-3.39-1.52-3.39-3.39s1.52-3.39,3.39-3.39,3.4,1.53,3.4,3.39-1.52,3.39-3.4,3.39Z"/><circle class="cls-3" cx="571.25" cy="769.59" r="4.24"/><path class="cls-3" d="m571.25,772.99c-1.86,0-3.39-1.52-3.39-3.4s1.52-3.39,3.39-3.39,3.4,1.53,3.4,3.39-1.52,3.4-3.4,3.4Z"/><path class="cls-3" d="m558.54,769.59c0,2.34-1.91,4.24-4.23,4.24s-4.23-1.9-4.23-4.24,1.88-4.24,4.23-4.24,4.23,1.9,4.23,4.24Z"/><path class="cls-3" d="m554.3,772.99c-1.87,0-3.4-1.52-3.4-3.4s1.52-3.39,3.4-3.39,3.39,1.53,3.39,3.39-1.52,3.4-3.39,3.4Z"/><path class="cls-3" d="m541.58,769.59c0,2.34-1.89,4.24-4.23,4.24s-4.23-1.9-4.23-4.24,1.89-4.24,4.23-4.24,4.23,1.9,4.23,4.24Z"/><path class="cls-3" d="m537.35,772.99c-1.87,0-3.39-1.52-3.39-3.4s1.51-3.39,3.39-3.39,3.39,1.53,3.39,3.39-1.52,3.4-3.39,3.4Z"/><path class="cls-3" d="m524.63,769.59c0,2.34-1.89,4.24-4.24,4.24s-4.23-1.9-4.23-4.24,1.89-4.24,4.23-4.24,4.24,1.9,4.24,4.24Z"/><path class="cls-3" d="m520.39,772.99c-1.87,0-3.39-1.52-3.39-3.4s1.51-3.39,3.39-3.39,3.4,1.53,3.4,3.39-1.52,3.4-3.4,3.4Z"/><circle class="cls-3" cx="503.44" cy="769.59" r="4.24"/><path class="cls-3" d="m503.44,772.99c-1.87,0-3.39-1.52-3.39-3.4s1.51-3.39,3.39-3.39,3.39,1.53,3.39,3.39-1.51,3.4-3.39,3.4Z"/><path class="cls-3" d="m490.73,769.59c0,2.34-1.9,4.24-4.24,4.24s-4.23-1.9-4.23-4.24,1.89-4.24,4.23-4.24,4.24,1.9,4.24,4.24Z"/><path class="cls-3" d="m486.48,772.99c-1.86,0-3.39-1.52-3.39-3.4s1.52-3.39,3.39-3.39,3.4,1.53,3.4,3.39-1.52,3.4-3.4,3.4Z"/><path class="cls-3" d="m473.77,769.59c0,2.34-1.89,4.24-4.23,4.24s-4.23-1.9-4.23-4.24,1.88-4.24,4.23-4.24,4.23,1.9,4.23,4.24Z"/><path class="cls-3" d="m469.54,772.99c-1.87,0-3.39-1.52-3.39-3.4s1.51-3.39,3.39-3.39,3.39,1.53,3.39,3.39-1.52,3.4-3.39,3.4Z"/><path class="cls-3" d="m456.81,769.59c0,2.34-1.88,4.24-4.23,4.24s-4.23-1.9-4.23-4.24,1.89-4.24,4.23-4.24,4.23,1.9,4.23,4.24Z"/><path class="cls-3" d="m452.58,772.99c-1.87,0-3.39-1.52-3.39-3.4s1.51-3.39,3.39-3.39,3.4,1.53,3.4,3.39-1.52,3.4-3.4,3.4Z"/><path class="cls-3" d="m439.87,769.59c0,2.34-1.9,4.24-4.25,4.24s-4.23-1.9-4.23-4.24,1.89-4.24,4.23-4.24,4.25,1.9,4.25,4.24Z"/><path class="cls-3" d="m435.62,772.99c-1.87,0-3.39-1.52-3.39-3.4s1.51-3.39,3.39-3.39,3.4,1.53,3.4,3.39-1.52,3.4-3.4,3.4Z"/><circle class="cls-3" cx="418.67" cy="769.59" r="4.24"/><path class="cls-3" d="m418.67,772.99c-1.86,0-3.39-1.52-3.39-3.4s1.53-3.39,3.39-3.39,3.4,1.53,3.4,3.39-1.52,3.4-3.4,3.4Z"/><path class="cls-3" d="m405.96,769.59c0,2.34-1.9,4.24-4.25,4.24s-4.22-1.9-4.22-4.24,1.89-4.24,4.22-4.24,4.25,1.9,4.25,4.24Z"/><path class="cls-3" d="m401.71,772.99c-1.86,0-3.39-1.52-3.39-3.4s1.52-3.39,3.39-3.39,3.4,1.53,3.4,3.39-1.52,3.4-3.4,3.4Z"/><path class="cls-3" d="m389,769.59c0,2.34-1.89,4.24-4.23,4.24s-4.24-1.9-4.24-4.24,1.89-4.24,4.24-4.24,4.23,1.9,4.23,4.24Z"/><path class="cls-3" d="m384.77,772.99c-1.87,0-3.39-1.52-3.39-3.4s1.51-3.39,3.39-3.39,3.39,1.53,3.39,3.39-1.51,3.4-3.39,3.4Z"/><path class="cls-3" d="m372.05,769.59c0,2.34-1.89,4.24-4.24,4.24s-4.23-1.9-4.23-4.24,1.89-4.24,4.23-4.24,4.24,1.9,4.24,4.24Z"/><path class="cls-3" d="m367.81,772.99c-1.86,0-3.39-1.52-3.39-3.4s1.52-3.39,3.39-3.39,3.4,1.53,3.4,3.39-1.52,3.4-3.4,3.4Z"/><path class="cls-3" d="m355.1,769.59c0,2.34-1.9,4.24-4.24,4.24s-4.24-1.9-4.24-4.24,1.89-4.24,4.24-4.24,4.24,1.9,4.24,4.24Z"/><path class="cls-3" d="m350.86,772.99c-1.87,0-3.39-1.52-3.39-3.4s1.52-3.39,3.39-3.39,3.39,1.53,3.39,3.39-1.52,3.4-3.39,3.4Z"/><path class="cls-3" d="m338.14,769.59c0,2.34-1.89,4.24-4.24,4.24s-4.23-1.9-4.23-4.24,1.89-4.24,4.23-4.24,4.24,1.9,4.24,4.24Z"/><path class="cls-3" d="m333.91,772.99c-1.87,0-3.39-1.52-3.39-3.4s1.52-3.39,3.39-3.39,3.39,1.53,3.39,3.39-1.52,3.4-3.39,3.4Z"/><circle class="cls-3" cx="316.96" cy="769.59" r="4.24"/><path class="cls-3" d="m316.96,772.99c-1.87,0-3.39-1.52-3.39-3.4s1.52-3.39,3.39-3.39,3.39,1.53,3.39,3.39-1.52,3.4-3.39,3.4Z"/><circle class="cls-3" cx="300" cy="769.59" r="4.24"/><path class="cls-3" d="m300,772.99c-1.87,0-3.39-1.52-3.39-3.4s1.52-3.39,3.39-3.39,3.39,1.53,3.39,3.39-1.52,3.4-3.39,3.4Z"/><path class="cls-3" d="m287.29,769.59c0,2.34-1.89,4.24-4.24,4.24s-4.23-1.9-4.23-4.24,1.89-4.24,4.23-4.24,4.24,1.9,4.24,4.24Z"/><path class="cls-3" d="m283.05,772.99c-1.87,0-3.39-1.52-3.39-3.4s1.52-3.39,3.39-3.39,3.39,1.53,3.39,3.39-1.52,3.4-3.39,3.4Z"/><path class="cls-3" d="m270.33,769.59c0,2.34-1.89,4.24-4.23,4.24s-4.24-1.9-4.24-4.24,1.89-4.24,4.24-4.24,4.23,1.9,4.23,4.24Z"/><path class="cls-3" d="m266.1,772.99c-1.87,0-3.39-1.52-3.39-3.4s1.52-3.39,3.39-3.39,3.39,1.53,3.39,3.39-1.52,3.4-3.39,3.4Z"/><path class="cls-3" d="m253.38,769.59c0,2.34-1.9,4.24-4.24,4.24s-4.23-1.9-4.23-4.24,1.89-4.24,4.23-4.24,4.24,1.9,4.24,4.24Z"/><path class="cls-3" d="m249.14,772.99c-1.86,0-3.39-1.52-3.39-3.4s1.52-3.39,3.39-3.39,3.4,1.53,3.4,3.39-1.52,3.4-3.4,3.4Z"/><circle class="cls-3" cx="571.25" cy="752.64" r="4.24"/><path class="cls-3" d="m571.25,756.03c-1.86,0-3.39-1.52-3.39-3.39s1.52-3.4,3.39-3.4,3.4,1.53,3.4,3.4-1.52,3.39-3.4,3.39Z"/><path class="cls-3" d="m558.54,752.64c0,2.34-1.91,4.24-4.23,4.24s-4.23-1.9-4.23-4.24,1.88-4.24,4.23-4.24,4.23,1.9,4.23,4.24Z"/><path class="cls-3" d="m554.3,756.03c-1.87,0-3.4-1.52-3.4-3.39s1.52-3.4,3.4-3.4,3.39,1.53,3.39,3.4-1.52,3.39-3.39,3.39Z"/><path class="cls-3" d="m541.58,752.64c0,2.34-1.89,4.24-4.23,4.24s-4.23-1.9-4.23-4.24,1.89-4.24,4.23-4.24,4.23,1.9,4.23,4.24Z"/><path class="cls-3" d="m537.35,756.03c-1.87,0-3.39-1.52-3.39-3.39s1.51-3.4,3.39-3.4,3.39,1.53,3.39,3.4-1.52,3.39-3.39,3.39Z"/><path class="cls-3" d="m524.63,752.64c0,2.34-1.89,4.24-4.24,4.24s-4.23-1.9-4.23-4.24,1.89-4.24,4.23-4.24,4.24,1.9,4.24,4.24Z"/><path class="cls-3" d="m520.39,756.03c-1.87,0-3.39-1.52-3.39-3.39s1.51-3.4,3.39-3.4,3.4,1.53,3.4,3.4-1.52,3.39-3.4,3.39Z"/><circle class="cls-3" cx="503.44" cy="752.64" r="4.24"/><path class="cls-3" d="m503.44,756.03c-1.87,0-3.39-1.52-3.39-3.39s1.51-3.4,3.39-3.4,3.39,1.53,3.39,3.4-1.51,3.39-3.39,3.39Z"/><path class="cls-3" d="m490.73,752.64c0,2.34-1.9,4.24-4.24,4.24s-4.23-1.9-4.23-4.24,1.89-4.24,4.23-4.24,4.24,1.9,4.24,4.24Z"/><path class="cls-3" d="m486.48,756.03c-1.86,0-3.39-1.52-3.39-3.39s1.52-3.4,3.39-3.4,3.4,1.53,3.4,3.4-1.52,3.39-3.4,3.39Z"/><path class="cls-3" d="m473.77,752.64c0,2.34-1.89,4.24-4.23,4.24s-4.23-1.9-4.23-4.24,1.88-4.24,4.23-4.24,4.23,1.9,4.23,4.24Z"/><path class="cls-3" d="m469.54,756.03c-1.87,0-3.39-1.52-3.39-3.39s1.51-3.4,3.39-3.4,3.39,1.53,3.39,3.4-1.52,3.39-3.39,3.39Z"/><path class="cls-3" d="m456.81,752.64c0,2.34-1.88,4.24-4.23,4.24s-4.23-1.9-4.23-4.24,1.89-4.24,4.23-4.24,4.23,1.9,4.23,4.24Z"/><path class="cls-3" d="m452.58,756.03c-1.87,0-3.39-1.52-3.39-3.39s1.51-3.4,3.39-3.4,3.4,1.53,3.4,3.4-1.52,3.39-3.4,3.39Z"/><path class="cls-3" d="m439.87,752.64c0,2.34-1.9,4.24-4.25,4.24s-4.23-1.9-4.23-4.24,1.89-4.24,4.23-4.24,4.25,1.9,4.25,4.24Z"/><path class="cls-3" d="m435.62,756.03c-1.87,0-3.39-1.52-3.39-3.39s1.51-3.4,3.39-3.4,3.4,1.53,3.4,3.4-1.52,3.39-3.4,3.39Z"/><circle class="cls-3" cx="418.67" cy="752.64" r="4.24"/><path class="cls-3" d="m418.67,756.03c-1.86,0-3.39-1.52-3.39-3.39s1.53-3.4,3.39-3.4,3.4,1.53,3.4,3.4-1.52,3.39-3.4,3.39Z"/><path class="cls-3" d="m405.96,752.64c0,2.34-1.9,4.24-4.25,4.24s-4.22-1.9-4.22-4.24,1.89-4.24,4.22-4.24,4.25,1.9,4.25,4.24Z"/><path class="cls-3" d="m401.71,756.03c-1.86,0-3.39-1.52-3.39-3.39s1.52-3.4,3.39-3.4,3.4,1.53,3.4,3.4-1.52,3.39-3.4,3.39Z"/><path class="cls-3" d="m389,752.64c0,2.34-1.89,4.24-4.23,4.24s-4.24-1.9-4.24-4.24,1.89-4.24,4.24-4.24,4.23,1.9,4.23,4.24Z"/><path class="cls-3" d="m384.77,756.03c-1.87,0-3.39-1.52-3.39-3.39s1.51-3.4,3.39-3.4,3.39,1.53,3.39,3.4-1.51,3.39-3.39,3.39Z"/><path class="cls-3" d="m372.05,752.64c0,2.34-1.89,4.24-4.24,4.24s-4.23-1.9-4.23-4.24,1.89-4.24,4.23-4.24,4.24,1.9,4.24,4.24Z"/><path class="cls-3" d="m367.81,756.03c-1.86,0-3.39-1.52-3.39-3.39s1.52-3.4,3.39-3.4,3.4,1.53,3.4,3.4-1.52,3.39-3.4,3.39Z"/><path class="cls-3" d="m355.1,752.64c0,2.34-1.9,4.24-4.24,4.24s-4.24-1.9-4.24-4.24,1.89-4.24,4.24-4.24,4.24,1.9,4.24,4.24Z"/><path class="cls-3" d="m350.86,756.03c-1.87,0-3.39-1.52-3.39-3.39s1.52-3.4,3.39-3.4,3.39,1.53,3.39,3.4-1.52,3.39-3.39,3.39Z"/><path class="cls-3" d="m338.14,752.64c0,2.34-1.89,4.24-4.24,4.24s-4.23-1.9-4.23-4.24,1.89-4.24,4.23-4.24,4.24,1.9,4.24,4.24Z"/><path class="cls-3" d="m333.91,756.03c-1.87,0-3.39-1.52-3.39-3.39s1.52-3.4,3.39-3.4,3.39,1.53,3.39,3.4-1.52,3.39-3.39,3.39Z"/><circle class="cls-3" cx="316.96" cy="752.64" r="4.24"/><path class="cls-3" d="m316.96,756.03c-1.87,0-3.39-1.52-3.39-3.39s1.52-3.4,3.39-3.4,3.39,1.53,3.39,3.4-1.52,3.39-3.39,3.39Z"/><circle class="cls-3" cx="300" cy="752.64" r="4.24"/><path class="cls-3" d="m300,756.03c-1.87,0-3.39-1.52-3.39-3.39s1.52-3.4,3.39-3.4,3.39,1.53,3.39,3.4-1.52,3.39-3.39,3.39Z"/><path class="cls-3" d="m287.29,752.64c0,2.34-1.89,4.24-4.24,4.24s-4.23-1.9-4.23-4.24,1.89-4.24,4.23-4.24,4.24,1.9,4.24,4.24Z"/><path class="cls-3" d="m283.05,756.03c-1.87,0-3.39-1.52-3.39-3.39s1.52-3.4,3.39-3.4,3.39,1.53,3.39,3.4-1.52,3.39-3.39,3.39Z"/><path class="cls-3" d="m270.33,752.64c0,2.34-1.89,4.24-4.23,4.24s-4.24-1.9-4.24-4.24,1.89-4.24,4.24-4.24,4.23,1.9,4.23,4.24Z"/><path class="cls-3" d="m266.1,756.03c-1.87,0-3.39-1.52-3.39-3.39s1.52-3.4,3.39-3.4,3.39,1.53,3.39,3.4-1.52,3.39-3.39,3.39Z"/><path class="cls-3" d="m253.38,752.64c0,2.34-1.9,4.24-4.24,4.24s-4.23-1.9-4.23-4.24,1.89-4.24,4.23-4.24,4.24,1.9,4.24,4.24Z"/><path class="cls-3" d="m249.14,756.03c-1.86,0-3.39-1.52-3.39-3.39s1.52-3.4,3.39-3.4,3.4,1.53,3.4,3.4-1.52,3.39-3.4,3.39Z"/><circle class="cls-3" cx="571.25" cy="735.69" r="4.24"/><path class="cls-3" d="m571.25,739.08c-1.86,0-3.39-1.52-3.39-3.39s1.52-3.39,3.39-3.39,3.4,1.53,3.4,3.39-1.52,3.39-3.4,3.39Z"/><path class="cls-3" d="m558.54,735.69c0,2.34-1.91,4.24-4.23,4.24s-4.23-1.9-4.23-4.24,1.88-4.24,4.23-4.24,4.23,1.9,4.23,4.24Z"/><path class="cls-3" d="m554.3,739.08c-1.87,0-3.4-1.52-3.4-3.39s1.52-3.39,3.4-3.39,3.39,1.53,3.39,3.39-1.52,3.39-3.39,3.39Z"/><path class="cls-3" d="m541.58,735.69c0,2.34-1.89,4.24-4.23,4.24s-4.23-1.9-4.23-4.24,1.89-4.24,4.23-4.24,4.23,1.9,4.23,4.24Z"/><path class="cls-3" d="m537.35,739.08c-1.87,0-3.39-1.52-3.39-3.39s1.51-3.39,3.39-3.39,3.39,1.53,3.39,3.39-1.52,3.39-3.39,3.39Z"/><path class="cls-3" d="m524.63,735.69c0,2.34-1.89,4.24-4.24,4.24s-4.23-1.9-4.23-4.24,1.89-4.24,4.23-4.24,4.24,1.9,4.24,4.24Z"/><path class="cls-3" d="m520.39,739.08c-1.87,0-3.39-1.52-3.39-3.39s1.51-3.39,3.39-3.39,3.4,1.53,3.4,3.39-1.52,3.39-3.4,3.39Z"/><circle class="cls-3" cx="503.44" cy="735.69" r="4.24"/><path class="cls-3" d="m503.44,739.08c-1.87,0-3.39-1.52-3.39-3.39s1.51-3.39,3.39-3.39,3.39,1.53,3.39,3.39-1.51,3.39-3.39,3.39Z"/><path class="cls-3" d="m490.73,735.69c0,2.34-1.9,4.24-4.24,4.24s-4.23-1.9-4.23-4.24,1.89-4.24,4.23-4.24,4.24,1.9,4.24,4.24Z"/><path class="cls-3" d="m486.48,739.08c-1.86,0-3.39-1.52-3.39-3.39s1.52-3.39,3.39-3.39,3.4,1.53,3.4,3.39-1.52,3.39-3.4,3.39Z"/><path class="cls-3" d="m473.77,735.69c0,2.34-1.89,4.24-4.23,4.24s-4.23-1.9-4.23-4.24,1.88-4.24,4.23-4.24,4.23,1.9,4.23,4.24Z"/><path class="cls-3" d="m469.54,739.08c-1.87,0-3.39-1.52-3.39-3.39s1.51-3.39,3.39-3.39,3.39,1.53,3.39,3.39-1.52,3.39-3.39,3.39Z"/><path class="cls-3" d="m456.81,735.69c0,2.34-1.88,4.24-4.23,4.24s-4.23-1.9-4.23-4.24,1.89-4.24,4.23-4.24,4.23,1.9,4.23,4.24Z"/><path class="cls-3" d="m452.58,739.08c-1.87,0-3.39-1.52-3.39-3.39s1.51-3.39,3.39-3.39,3.4,1.53,3.4,3.39-1.52,3.39-3.4,3.39Z"/><path class="cls-3" d="m439.87,735.69c0,2.34-1.9,4.24-4.25,4.24s-4.23-1.9-4.23-4.24,1.89-4.24,4.23-4.24,4.25,1.9,4.25,4.24Z"/><path class="cls-3" d="m435.62,739.08c-1.87,0-3.39-1.52-3.39-3.39s1.51-3.39,3.39-3.39,3.4,1.53,3.4,3.39-1.52,3.39-3.4,3.39Z"/><circle class="cls-3" cx="418.67" cy="735.69" r="4.24"/><path class="cls-3" d="m418.67,739.08c-1.86,0-3.39-1.52-3.39-3.39s1.53-3.39,3.39-3.39,3.4,1.53,3.4,3.39-1.52,3.39-3.4,3.39Z"/><path class="cls-3" d="m405.96,735.69c0,2.34-1.9,4.24-4.25,4.24s-4.22-1.9-4.22-4.24,1.89-4.24,4.22-4.24,4.25,1.9,4.25,4.24Z"/><path class="cls-3" d="m401.71,739.08c-1.86,0-3.39-1.52-3.39-3.39s1.52-3.39,3.39-3.39,3.4,1.53,3.4,3.39-1.52,3.39-3.4,3.39Z"/><path class="cls-3" d="m389,735.69c0,2.34-1.89,4.24-4.23,4.24s-4.24-1.9-4.24-4.24,1.89-4.24,4.24-4.24,4.23,1.9,4.23,4.24Z"/><path class="cls-3" d="m384.77,739.08c-1.87,0-3.39-1.52-3.39-3.39s1.51-3.39,3.39-3.39,3.39,1.53,3.39,3.39-1.51,3.39-3.39,3.39Z"/><path class="cls-3" d="m372.05,735.69c0,2.34-1.89,4.24-4.24,4.24s-4.23-1.9-4.23-4.24,1.89-4.24,4.23-4.24,4.24,1.9,4.24,4.24Z"/><path class="cls-3" d="m367.81,739.08c-1.86,0-3.39-1.52-3.39-3.39s1.52-3.39,3.39-3.39,3.4,1.53,3.4,3.39-1.52,3.39-3.4,3.39Z"/><path class="cls-3" d="m355.1,735.69c0,2.34-1.9,4.24-4.24,4.24s-4.24-1.9-4.24-4.24,1.89-4.24,4.24-4.24,4.24,1.9,4.24,4.24Z"/><path class="cls-3" d="m350.86,739.08c-1.87,0-3.39-1.52-3.39-3.39s1.52-3.39,3.39-3.39,3.39,1.53,3.39,3.39-1.52,3.39-3.39,3.39Z"/><path class="cls-3" d="m338.14,735.69c0,2.34-1.89,4.24-4.24,4.24s-4.23-1.9-4.23-4.24,1.89-4.24,4.23-4.24,4.24,1.9,4.24,4.24Z"/><path class="cls-3" d="m333.91,739.08c-1.87,0-3.39-1.52-3.39-3.39s1.52-3.39,3.39-3.39,3.39,1.53,3.39,3.39-1.52,3.39-3.39,3.39Z"/><circle class="cls-3" cx="316.96" cy="735.69" r="4.24"/><path class="cls-3" d="m316.96,739.08c-1.87,0-3.39-1.52-3.39-3.39s1.52-3.39,3.39-3.39,3.39,1.53,3.39,3.39-1.52,3.39-3.39,3.39Z"/><circle class="cls-3" cx="300" cy="735.69" r="4.24"/><path class="cls-3" d="m300,739.08c-1.87,0-3.39-1.52-3.39-3.39s1.52-3.39,3.39-3.39,3.39,1.53,3.39,3.39-1.52,3.39-3.39,3.39Z"/><path class="cls-3" d="m287.29,735.69c0,2.34-1.89,4.24-4.24,4.24s-4.23-1.9-4.23-4.24,1.89-4.24,4.23-4.24,4.24,1.9,4.24,4.24Z"/><path class="cls-3" d="m283.05,739.08c-1.87,0-3.39-1.52-3.39-3.39s1.52-3.39,3.39-3.39,3.39,1.53,3.39,3.39-1.52,3.39-3.39,3.39Z"/><path class="cls-3" d="m270.33,735.69c0,2.34-1.89,4.24-4.23,4.24s-4.24-1.9-4.24-4.24,1.89-4.24,4.24-4.24,4.23,1.9,4.23,4.24Z"/><path class="cls-3" d="m266.1,739.08c-1.87,0-3.39-1.52-3.39-3.39s1.52-3.39,3.39-3.39,3.39,1.53,3.39,3.39-1.52,3.39-3.39,3.39Z"/><path class="cls-3" d="m253.38,735.69c0,2.34-1.9,4.24-4.24,4.24s-4.23-1.9-4.23-4.24,1.89-4.24,4.23-4.24,4.24,1.9,4.24,4.24Z"/><path class="cls-3" d="m249.14,739.08c-1.86,0-3.39-1.52-3.39-3.39s1.52-3.39,3.39-3.39,3.4,1.53,3.4,3.39-1.52,3.39-3.4,3.39Z"/><path class="cls-3" d="m575.49,718.74c0,2.34-1.91,4.24-4.24,4.24s-4.24-1.89-4.24-4.24,1.9-4.24,4.24-4.24,4.24,1.9,4.24,4.24Z"/><path class="cls-3" d="m571.25,722.13c-1.86,0-3.39-1.52-3.39-3.39s1.52-3.4,3.39-3.4,3.4,1.53,3.4,3.4-1.52,3.39-3.4,3.39Z"/><path class="cls-3" d="m558.54,718.74c0,2.34-1.91,4.24-4.23,4.24s-4.23-1.89-4.23-4.24,1.88-4.24,4.23-4.24,4.23,1.9,4.23,4.24Z"/><path class="cls-3" d="m554.3,722.13c-1.87,0-3.4-1.52-3.4-3.39s1.52-3.4,3.4-3.4,3.39,1.53,3.39,3.4-1.52,3.39-3.39,3.39Z"/><path class="cls-3" d="m541.58,718.74c0,2.34-1.89,4.24-4.23,4.24s-4.23-1.89-4.23-4.24,1.89-4.24,4.23-4.24,4.23,1.9,4.23,4.24Z"/><path class="cls-3" d="m537.35,722.13c-1.87,0-3.39-1.52-3.39-3.39s1.51-3.4,3.39-3.4,3.39,1.53,3.39,3.4-1.52,3.39-3.39,3.39Z"/><path class="cls-3" d="m524.63,718.74c0,2.34-1.89,4.24-4.24,4.24s-4.23-1.89-4.23-4.24,1.89-4.24,4.23-4.24,4.24,1.9,4.24,4.24Z"/><path class="cls-3" d="m520.39,722.13c-1.87,0-3.39-1.52-3.39-3.39s1.51-3.4,3.39-3.4,3.4,1.53,3.4,3.4-1.52,3.39-3.4,3.39Z"/><path class="cls-3" d="m507.68,718.74c0,2.34-1.9,4.24-4.24,4.24s-4.24-1.89-4.24-4.24,1.89-4.24,4.24-4.24,4.24,1.9,4.24,4.24Z"/><path class="cls-3" d="m503.44,722.13c-1.87,0-3.39-1.52-3.39-3.39s1.51-3.4,3.39-3.4,3.39,1.53,3.39,3.4-1.51,3.39-3.39,3.39Z"/><path class="cls-3" d="m490.73,718.74c0,2.34-1.9,4.24-4.24,4.24s-4.23-1.89-4.23-4.24,1.89-4.24,4.23-4.24,4.24,1.9,4.24,4.24Z"/><path class="cls-3" d="m486.48,722.13c-1.86,0-3.39-1.52-3.39-3.39s1.52-3.4,3.39-3.4,3.4,1.53,3.4,3.4-1.52,3.39-3.4,3.39Z"/><path class="cls-3" d="m473.77,718.74c0,2.34-1.89,4.24-4.23,4.24s-4.23-1.89-4.23-4.24,1.88-4.24,4.23-4.24,4.23,1.9,4.23,4.24Z"/><path class="cls-3" d="m469.54,722.13c-1.87,0-3.39-1.52-3.39-3.39s1.51-3.4,3.39-3.4,3.39,1.53,3.39,3.4-1.52,3.39-3.39,3.39Z"/><path class="cls-3" d="m456.81,718.74c0,2.34-1.88,4.24-4.23,4.24s-4.23-1.89-4.23-4.24,1.89-4.24,4.23-4.24,4.23,1.9,4.23,4.24Z"/><path class="cls-3" d="m452.58,722.13c-1.87,0-3.39-1.52-3.39-3.39s1.51-3.4,3.39-3.4,3.4,1.53,3.4,3.4-1.52,3.39-3.4,3.39Z"/><path class="cls-3" d="m439.87,718.74c0,2.34-1.9,4.24-4.25,4.24s-4.23-1.89-4.23-4.24,1.89-4.24,4.23-4.24,4.25,1.9,4.25,4.24Z"/><path class="cls-3" d="m435.62,722.13c-1.87,0-3.39-1.52-3.39-3.39s1.51-3.4,3.39-3.4,3.4,1.53,3.4,3.4-1.52,3.39-3.4,3.39Z"/><path class="cls-3" d="m422.92,718.74c0,2.34-1.9,4.24-4.24,4.24s-4.24-1.89-4.24-4.24,1.91-4.24,4.24-4.24,4.24,1.9,4.24,4.24Z"/><path class="cls-3" d="m418.67,722.13c-1.86,0-3.39-1.52-3.39-3.39s1.53-3.4,3.39-3.4,3.4,1.53,3.4,3.4-1.52,3.39-3.4,3.39Z"/><path class="cls-3" d="m405.96,718.74c0,2.34-1.9,4.24-4.25,4.24s-4.22-1.89-4.22-4.24,1.89-4.24,4.22-4.24,4.25,1.9,4.25,4.24Z"/><path class="cls-3" d="m401.71,722.13c-1.86,0-3.39-1.52-3.39-3.39s1.52-3.4,3.39-3.4,3.4,1.53,3.4,3.4-1.52,3.39-3.4,3.39Z"/><path class="cls-3" d="m389,718.74c0,2.34-1.89,4.24-4.23,4.24s-4.24-1.89-4.24-4.24,1.89-4.24,4.24-4.24,4.23,1.9,4.23,4.24Z"/><path class="cls-3" d="m384.77,722.13c-1.87,0-3.39-1.52-3.39-3.39s1.51-3.4,3.39-3.4,3.39,1.53,3.39,3.4-1.51,3.39-3.39,3.39Z"/><path class="cls-3" d="m372.05,718.74c0,2.34-1.89,4.24-4.24,4.24s-4.23-1.89-4.23-4.24,1.89-4.24,4.23-4.24,4.24,1.9,4.24,4.24Z"/><path class="cls-3" d="m367.81,722.13c-1.86,0-3.39-1.52-3.39-3.39s1.52-3.4,3.39-3.4,3.4,1.53,3.4,3.4-1.52,3.39-3.4,3.39Z"/><path class="cls-3" d="m355.1,718.74c0,2.34-1.9,4.24-4.24,4.24s-4.24-1.89-4.24-4.24,1.89-4.24,4.24-4.24,4.24,1.9,4.24,4.24Z"/><path class="cls-3" d="m350.86,722.13c-1.87,0-3.39-1.52-3.39-3.39s1.52-3.4,3.39-3.4,3.39,1.53,3.39,3.4-1.52,3.39-3.39,3.39Z"/><path class="cls-3" d="m338.14,718.74c0,2.34-1.89,4.24-4.24,4.24s-4.23-1.89-4.23-4.24,1.89-4.24,4.23-4.24,4.24,1.9,4.24,4.24Z"/><path class="cls-3" d="m333.91,722.13c-1.87,0-3.39-1.52-3.39-3.39s1.52-3.4,3.39-3.4,3.39,1.53,3.39,3.4-1.52,3.39-3.39,3.39Z"/><path class="cls-3" d="m321.19,718.74c0,2.34-1.89,4.24-4.24,4.24s-4.24-1.89-4.24-4.24,1.89-4.24,4.24-4.24,4.24,1.9,4.24,4.24Z"/><path class="cls-3" d="m316.96,722.13c-1.87,0-3.39-1.52-3.39-3.39s1.52-3.4,3.39-3.4,3.39,1.53,3.39,3.4-1.52,3.39-3.39,3.39Z"/><path class="cls-3" d="m304.24,718.74c0,2.34-1.89,4.24-4.24,4.24s-4.24-1.89-4.24-4.24,1.9-4.24,4.24-4.24,4.24,1.9,4.24,4.24Z"/><path class="cls-3" d="m300,722.13c-1.87,0-3.39-1.52-3.39-3.39s1.52-3.4,3.39-3.4,3.39,1.53,3.39,3.4-1.52,3.39-3.39,3.39Z"/><path class="cls-3" d="m287.29,718.74c0,2.34-1.89,4.24-4.24,4.24s-4.23-1.89-4.23-4.24,1.89-4.24,4.23-4.24,4.24,1.9,4.24,4.24Z"/><path class="cls-3" d="m283.05,722.13c-1.87,0-3.39-1.52-3.39-3.39s1.52-3.4,3.39-3.4,3.39,1.53,3.39,3.4-1.52,3.39-3.39,3.39Z"/><path class="cls-3" d="m270.33,718.74c0,2.34-1.89,4.24-4.23,4.24s-4.24-1.89-4.24-4.24,1.89-4.24,4.24-4.24,4.23,1.9,4.23,4.24Z"/><path class="cls-3" d="m266.1,722.13c-1.87,0-3.39-1.52-3.39-3.39s1.52-3.4,3.39-3.4,3.39,1.53,3.39,3.4-1.52,3.39-3.39,3.39Z"/><path class="cls-3" d="m253.38,718.74c0,2.34-1.9,4.24-4.24,4.24s-4.23-1.89-4.23-4.24,1.89-4.24,4.23-4.24,4.24,1.9,4.24,4.24Z"/><path class="cls-3" d="m249.14,722.13c-1.86,0-3.39-1.52-3.39-3.39s1.52-3.4,3.39-3.4,3.4,1.53,3.4,3.4-1.52,3.39-3.4,3.39Z"/><circle class="cls-3" cx="571.25" cy="701.78" r="4.24"/><path class="cls-3" d="m571.25,705.18c-1.86,0-3.39-1.53-3.39-3.4s1.52-3.39,3.39-3.39,3.4,1.52,3.4,3.39-1.52,3.4-3.4,3.4Z"/><path class="cls-3" d="m558.54,701.78c0,2.34-1.91,4.24-4.23,4.24s-4.23-1.9-4.23-4.24,1.88-4.24,4.23-4.24,4.23,1.9,4.23,4.24Z"/><path class="cls-3" d="m554.3,705.18c-1.87,0-3.4-1.53-3.4-3.4s1.52-3.39,3.4-3.39,3.39,1.52,3.39,3.39-1.52,3.4-3.39,3.4Z"/><path class="cls-3" d="m541.58,701.78c0,2.34-1.89,4.24-4.23,4.24s-4.23-1.9-4.23-4.24,1.89-4.24,4.23-4.24,4.23,1.9,4.23,4.24Z"/><path class="cls-3" d="m537.35,705.18c-1.87,0-3.39-1.53-3.39-3.4s1.51-3.39,3.39-3.39,3.39,1.52,3.39,3.39-1.52,3.4-3.39,3.4Z"/><path class="cls-3" d="m524.63,701.78c0,2.34-1.89,4.24-4.24,4.24s-4.23-1.9-4.23-4.24,1.89-4.24,4.23-4.24,4.24,1.9,4.24,4.24Z"/><path class="cls-3" d="m520.39,705.18c-1.87,0-3.39-1.53-3.39-3.4s1.51-3.39,3.39-3.39,3.4,1.52,3.4,3.39-1.52,3.4-3.4,3.4Z"/><circle class="cls-3" cx="503.44" cy="701.78" r="4.24"/><path class="cls-3" d="m503.44,705.18c-1.87,0-3.39-1.53-3.39-3.4s1.51-3.39,3.39-3.39,3.39,1.52,3.39,3.39-1.51,3.4-3.39,3.4Z"/><path class="cls-3" d="m490.73,701.78c0,2.34-1.9,4.24-4.24,4.24s-4.23-1.9-4.23-4.24,1.89-4.24,4.23-4.24,4.24,1.9,4.24,4.24Z"/><path class="cls-3" d="m486.48,705.18c-1.86,0-3.39-1.53-3.39-3.4s1.52-3.39,3.39-3.39,3.4,1.52,3.4,3.39-1.52,3.4-3.4,3.4Z"/><path class="cls-3" d="m473.77,701.78c0,2.34-1.89,4.24-4.23,4.24s-4.23-1.9-4.23-4.24,1.88-4.24,4.23-4.24,4.23,1.9,4.23,4.24Z"/><path class="cls-3" d="m469.54,705.18c-1.87,0-3.39-1.53-3.39-3.4s1.51-3.39,3.39-3.39,3.39,1.52,3.39,3.39-1.52,3.4-3.39,3.4Z"/><path class="cls-3" d="m456.81,701.78c0,2.34-1.88,4.24-4.23,4.24s-4.23-1.9-4.23-4.24,1.89-4.24,4.23-4.24,4.23,1.9,4.23,4.24Z"/><path class="cls-3" d="m452.58,705.18c-1.87,0-3.39-1.53-3.39-3.4s1.51-3.39,3.39-3.39,3.4,1.52,3.4,3.39-1.52,3.4-3.4,3.4Z"/><path class="cls-3" d="m439.87,701.78c0,2.34-1.9,4.24-4.25,4.24s-4.23-1.9-4.23-4.24,1.89-4.24,4.23-4.24,4.25,1.9,4.25,4.24Z"/><path class="cls-3" d="m435.62,705.18c-1.87,0-3.39-1.53-3.39-3.4s1.51-3.39,3.39-3.39,3.4,1.52,3.4,3.39-1.52,3.4-3.4,3.4Z"/><circle class="cls-3" cx="418.67" cy="701.78" r="4.24"/><path class="cls-3" d="m418.67,705.18c-1.86,0-3.39-1.53-3.39-3.4s1.53-3.39,3.39-3.39,3.4,1.52,3.4,3.39-1.52,3.4-3.4,3.4Z"/><path class="cls-3" d="m405.96,701.78c0,2.34-1.9,4.24-4.25,4.24s-4.22-1.9-4.22-4.24,1.89-4.24,4.22-4.24,4.25,1.9,4.25,4.24Z"/><path class="cls-3" d="m401.71,705.18c-1.86,0-3.39-1.53-3.39-3.4s1.52-3.39,3.39-3.39,3.4,1.52,3.4,3.39-1.52,3.4-3.4,3.4Z"/><path class="cls-3" d="m389,701.78c0,2.34-1.89,4.24-4.23,4.24s-4.24-1.9-4.24-4.24,1.89-4.24,4.24-4.24,4.23,1.9,4.23,4.24Z"/><path class="cls-3" d="m384.77,705.18c-1.87,0-3.39-1.53-3.39-3.4s1.51-3.39,3.39-3.39,3.39,1.52,3.39,3.39-1.51,3.4-3.39,3.4Z"/><path class="cls-3" d="m372.05,701.78c0,2.34-1.89,4.24-4.24,4.24s-4.23-1.9-4.23-4.24,1.89-4.24,4.23-4.24,4.24,1.9,4.24,4.24Z"/><path class="cls-3" d="m367.81,705.18c-1.86,0-3.39-1.53-3.39-3.4s1.52-3.39,3.39-3.39,3.4,1.52,3.4,3.39-1.52,3.4-3.4,3.4Z"/><path class="cls-3" d="m355.1,701.78c0,2.34-1.9,4.24-4.24,4.24s-4.24-1.9-4.24-4.24,1.89-4.24,4.24-4.24,4.24,1.9,4.24,4.24Z"/><path class="cls-3" d="m350.86,705.18c-1.87,0-3.39-1.53-3.39-3.4s1.52-3.39,3.39-3.39,3.39,1.52,3.39,3.39-1.52,3.4-3.39,3.4Z"/><path class="cls-3" d="m338.14,701.78c0,2.34-1.89,4.24-4.24,4.24s-4.23-1.9-4.23-4.24,1.89-4.24,4.23-4.24,4.24,1.9,4.24,4.24Z"/><path class="cls-3" d="m333.91,705.18c-1.87,0-3.39-1.53-3.39-3.4s1.52-3.39,3.39-3.39,3.39,1.52,3.39,3.39-1.52,3.4-3.39,3.4Z"/><circle class="cls-3" cx="316.96" cy="701.78" r="4.24"/><path class="cls-3" d="m316.96,705.18c-1.87,0-3.39-1.53-3.39-3.4s1.52-3.39,3.39-3.39,3.39,1.52,3.39,3.39-1.52,3.4-3.39,3.4Z"/><circle class="cls-3" cx="300" cy="701.78" r="4.24"/><path class="cls-3" d="m300,705.18c-1.87,0-3.39-1.53-3.39-3.4s1.52-3.39,3.39-3.39,3.39,1.52,3.39,3.39-1.52,3.4-3.39,3.4Z"/><path class="cls-3" d="m287.29,701.78c0,2.34-1.89,4.24-4.24,4.24s-4.23-1.9-4.23-4.24,1.89-4.24,4.23-4.24,4.24,1.9,4.24,4.24Z"/><path class="cls-3" d="m283.05,705.18c-1.87,0-3.39-1.53-3.39-3.4s1.52-3.39,3.39-3.39,3.39,1.52,3.39,3.39-1.52,3.4-3.39,3.4Z"/><path class="cls-3" d="m270.33,701.78c0,2.34-1.89,4.24-4.23,4.24s-4.24-1.9-4.24-4.24,1.89-4.24,4.24-4.24,4.23,1.9,4.23,4.24Z"/><path class="cls-3" d="m266.1,705.18c-1.87,0-3.39-1.53-3.39-3.4s1.52-3.39,3.39-3.39,3.39,1.52,3.39,3.39-1.52,3.4-3.39,3.4Z"/><path class="cls-3" d="m253.38,701.78c0,2.34-1.9,4.24-4.24,4.24s-4.23-1.9-4.23-4.24,1.89-4.24,4.23-4.24,4.24,1.9,4.24,4.24Z"/><path class="cls-3" d="m249.14,705.18c-1.86,0-3.39-1.53-3.39-3.4s1.52-3.39,3.39-3.39,3.4,1.52,3.4,3.39-1.52,3.4-3.4,3.4Z"/><path class="cls-9" d="m280.74,416.63c0,3.9-3.16,7.06-7.06,7.06s-7.06-3.16-7.06-7.06,3.16-7.06,7.06-7.06,7.06,3.16,7.06,7.06Z"/><path class="cls-3" d="m273.68,421.5c-2.69,0-4.88-2.19-4.88-4.87s2.19-4.88,4.88-4.88,4.89,2.19,4.89,4.88-2.2,4.87-4.89,4.87Z"/><path class="cls-4" d="m273.68,420.24c-1.99,0-3.61-1.62-3.61-3.6s1.62-3.6,3.61-3.6,3.61,1.61,3.61,3.6-1.62,3.6-3.61,3.6Z"/><ellipse class="cls-3" cx="273.68" cy="416.63" rx="2.55" ry="2.54"/><path class="cls-9" d="m305.5,416.63c0,3.9-3.16,7.06-7.06,7.06s-7.06-3.16-7.06-7.06,3.16-7.06,7.06-7.06,7.06,3.16,7.06,7.06Z"/><path class="cls-3" d="m298.44,421.5c-2.69,0-4.88-2.19-4.88-4.87s2.19-4.88,4.88-4.88,4.89,2.19,4.89,4.88-2.2,4.87-4.89,4.87Z"/><path class="cls-4" d="m298.44,420.24c-1.99,0-3.61-1.62-3.61-3.6s1.62-3.6,3.61-3.6,3.61,1.61,3.61,3.6-1.62,3.6-3.61,3.6Z"/><ellipse class="cls-3" cx="298.44" cy="416.63" rx="2.55" ry="2.54"/><path class="cls-1" d="m558.71,243.13c-.2-.3-.46-.56-.76-.76.28.22.54.48.76.76Z"/><path class="cls-1" d="m522.81,242.38c-.3.2-.56.46-.76.76.22-.28.48-.54.76-.76Z"/><path class="cls-1" d="m522.05,255.96c.2.3.46.56.76.76-.28-.22-.54-.48-.76-.76Z"/><path class="cls-1" d="m557.95,256.71c.3-.2.56-.46.76-.76-.22.28-.48.54-.76.76Z"/><rect class="cls-12" x="355.15" y="396.19" width="21.34" height="40.88" rx="2.75" ry="2.75" transform="translate(-50.81 782.45) rotate(-90)"/><rect class="cls-14" x="358.14" y="399.19" width="15.35" height="34.89" rx=".54" ry=".54" transform="translate(-50.81 782.45) rotate(-90)"/><rect class="cls-5" x="356.48" y="415.38" width="6.23" height="2.49"/><rect class="cls-5" x="368.93" y="415.38" width="6.22" height="2.49"/><rect class="cls-12" x="408.47" y="396.19" width="21.34" height="40.88" rx="2.75" ry="2.75" transform="translate(2.51 835.77) rotate(-90)"/><rect class="cls-14" x="411.46" y="399.19" width="15.35" height="34.89" rx=".54" ry=".54" transform="translate(2.51 835.77) rotate(-90)"/><rect class="cls-5" x="409.8" y="415.38" width="6.23" height="2.49"/><rect class="cls-5" x="422.25" y="415.38" width="6.22" height="2.49"/><rect class="cls-12" x="461.79" y="396.19" width="21.34" height="40.88" rx="2.75" ry="2.75" transform="translate(55.83 889.09) rotate(-90)"/><rect class="cls-14" x="464.78" y="399.19" width="15.35" height="34.89" rx=".54" ry=".54" transform="translate(55.83 889.09) rotate(-90)"/><rect class="cls-5" x="463.13" y="415.38" width="6.23" height="2.49"/><rect class="cls-5" x="475.57" y="415.38" width="6.22" height="2.49"/><rect class="cls-12" x="515.11" y="396.19" width="21.34" height="40.88" rx="2.75" ry="2.75" transform="translate(109.15 942.41) rotate(-90)"/><rect class="cls-14" x="518.11" y="399.19" width="15.35" height="34.89" rx=".54" ry=".54" transform="translate(109.15 942.41) rotate(-90)"/><rect class="cls-5" x="516.45" y="415.38" width="6.23" height="2.49"/><rect class="cls-5" x="528.9" y="415.38" width="6.22" height="2.49"/><rect class="cls-8" x="261.75" y="328.92" width="9.73" height="27.94" rx="4.87" ry="4.87"/><rect class="cls-8" x="283.83" y="328.92" width="9.73" height="27.94" rx="4.87" ry="4.87"/><rect class="cls-8" x="305.91" y="328.92" width="9.73" height="27.94" rx="4.87" ry="4.87"/></g></g></svg>