<?xml version="1.0" encoding="UTF-8"?>
<svg id="Layer_2"
    xmlns="http://www.w3.org/2000/svg"
    xmlns:xlink="http://www.w3.org/1999/xlink" viewBox="0 0 800 1080">
    <defs>
        <style>.cls-1{fill:url(#linear-gradient);}.cls-2{fill:#fff;}.cls-3{fill:#a3238e;}.cls-4{fill:#8e1e81;}.cls-5{fill:#ac399a;}.cls-6{fill:#ca7fbe;}.cls-7{fill:#36bca8;}.cls-8{fill:none;stroke:#37a7de;stroke-linejoin:bevel;stroke-width:28.08px;}.cls-9{fill:url(#linear-gradient-3);}.cls-10{fill:url(#linear-gradient-2);}.cls-11{opacity:.48;}</style>
        <linearGradient id="linear-gradient" x1="1059.34" y1="4339.06" x2="1059.4" y2="4425.99" gradientTransform="translate(-453.97 4689.73) rotate(-.04) scale(1 -1)" gradientUnits="userSpaceOnUse">
            <stop offset="0" stop-color="#f7b261"/>
            <stop offset=".24" stop-color="#f9cc62"/>
            <stop offset=".5" stop-color="#fae163"/>
            <stop offset=".75" stop-color="#fbed64"/>
            <stop offset="1" stop-color="#fcf265"/>
        </linearGradient>
        <linearGradient id="linear-gradient-2" x1="992.8" y1="4378.12" x2="1120.56" y2="4341.1" xlink:href="#linear-gradient"/>
        <linearGradient id="linear-gradient-3" x1="1004.92" y1="4419.97" x2="1132.68" y2="4382.96" xlink:href="#linear-gradient"/>
    </defs>
    <g>
        <path class="cls-5" d="m28.1,190.28l.27,401.81c.01,18.1,14.69,27.14,32.79,27.13l677.92-.46c18.09-.01,32.76-9.07,32.74-27.17l-.27-401.81c-.01-18.1-14.69-32.76-32.79-32.74l-677.92.46c-18.09.01-32.76,14.69-32.74,32.79Z"/>
        <path class="cls-6" d="m61.18,619.23l677.92-.46c18.1-.01,32.76-9.07,32.75-27.17l-.27-398.47c0,.08.01.17.01.26l.27,401.81c.01,18.1-14.65,32.78-32.74,32.79l-677.92.46c-18.1.01-32.78-14.65-32.79-32.74v-3.34c.15,17.98,14.76,26.88,32.77,26.87Z"/>
        <path class="cls-3" d="m61.13,617.69l677.92-.46c18.08-.01,32.78-7.99,32.75-29.19h.01s0,3.54,0,3.54c.01,18.1-14.65,27.16-32.75,27.17l-677.92.46c-18.1.01-32.77-9.03-32.79-27.13v-3.35c-.51,20.64,14.76,28.96,32.77,28.95Z"/>
    </g>
    <g>
        <path class="cls-8" d="m512.67,256.19l157.94-.11c6.11,0,11.07,4.94,11.07,11.06l.02,26.36"/>
        <path class="cls-8" d="m681.74,353.39l.02,23.2c0,2-.52,3.87-1.45,5.49-1.08,4.96-5.51,8.67-10.8,8.68l-166.98.11c-.91,0-1.79-.35-2.44-.98l-40-38.37c-.69-.66-1.08-1.58-1.08-2.54l-.05-78.58c0-6.11,2.21-8.29,2.68-8.67h0c1.91-3.29,5.47-5.5,9.54-5.5h18.46"/>
    </g>
    <g>
        <path class="cls-4" d="m502.53,390.86l166.98-.11c6.11,0,11.06-4.96,11.05-11.07l-.07-109.45c0-6.11-4.96-11.06-11.07-11.05l-207.78,2.54c-.47.38-2.69,2.56-2.69,8.67l.05,78.58c0,.96.39,1.88,1.08,2.54l40,38.38c.65.63,1.53.98,2.44.98Z"/>
        <path class="cls-5" d="m503.72,387.76l166.98-.11c6.11,0,11.06-4.96,11.05-11.07l-.07-109.45c0-6.11-4.96-11.06-11.07-11.06l-199.42.14c-6.11,0-11.06,4.96-11.05,11.07l.05,78.58c0,.96.39,1.88,1.08,2.54l40,38.38c.66.63,1.53.98,2.44.98Z"/>
    </g>
    <path class="cls-7" d="m559.56,371.01l96.75-.07c3.84,0,6.96-3.12,6.96-6.96l-.06-91.03c0-3.84-3.12-6.96-6.96-6.96l-116.9.08c-3.84,0-6.96,3.12-6.96,6.96l.05,70.56c0,2.31.91,4.52,2.53,6.17l18.32,18.61c1.66,1.68,3.92,2.63,6.28,2.63Z"/>
    <path class="cls-2" d="m564.74,348.49l84.8-.06c3.54,0,6.4-2.87,6.4-6.41l-.04-64.9c0-3.54-2.87-6.4-6.41-6.4l-96.46.07c-3.54,0-6.4,2.87-6.4,6.41l.04,53.54c0,.96.39,1.88,1.07,2.55l14.5,14.18c.67.65,1.57,1.02,2.5,1.02Z"/>
    <g>
        <rect class="cls-1" x="556.12" y="275.18" width="92.61" height="66.8" rx="11.42" ry="11.42"/>
        <g class="cls-11">
            <path class="cls-10" d="m604.32,341.97l-37.15.03c-6.09,0-11.03-4.93-11.03-11.02l-.02-36.65.42,21,47.79,26.64Z"/>
            <polygon class="cls-9" points="616.42 275.17 648.72 293.17 648.72 293.32 648.73 311.9 582.89 275.19 616.42 275.17"/>
        </g>
    </g>
</svg>