<?xml version="1.0" encoding="UTF-8"?><svg xmlns="http://www.w3.org/2000/svg" viewBox="0 0 800 1080"><defs><style>.cls-1{fill:#f9f6f6;}.cls-2{fill:#b5b5b4;}.cls-3{fill:#a19792;}.cls-4{fill:#181616;}.cls-5{fill:#3e3e3e;}.cls-6{fill:#3f3f3f;}.cls-7{fill:#1b363b;}.cls-8{fill:#898886;}.cls-9{fill:#6d6d6d;}.cls-10{fill:#2b2b2b;}.cls-11{fill:#a6a5a0;}.cls-11,.cls-12{fill-rule:evenodd;}</style></defs><g id="Layer_1"><g id="Layer_2"><g><path class="cls-12" d="m647.27,392.57c0-.92.36-1.8,1.02-2.45.64-.66,1.54-1.02,2.45-1.02s1.79.36,2.45,1.02l.24.36c.52.58.78,1.31.78,2.09v61.01s-.12.58-.12.58c-.05.72-.38,1.37-.89,1.88-.65.65-1.52,1.01-2.45,1.01s-1.8-.36-2.45-1.01c-.66-.65-1.02-1.54-1.02-2.45v-61.01s-.01-.01-.01-.01Z"/><path class="cls-12" d="m647.28,305.47c0-1.91,1.56-3.47,3.48-3.47,1.36,0,2.53.78,3.07,1.94.25.44.38.96.38,1.52v59.62c0,.55-.12,1.07-.38,1.52-.53,1.15-1.72,1.93-3.07,1.93-1.92,0-3.48-1.55-3.48-3.47v-59.62s0,.01,0,.01Z"/><path class="cls-12" d="m647.28,240.14c0-1.91,1.56-3.47,3.48-3.47,1.14,0,2.17.58,2.75,1.48.46.53.71,1.24.71,2v26.34c0,.77-.24,1.46-.71,2-.58.9-1.6,1.46-2.75,1.46-1.92,0-3.48-1.55-3.48-3.47v-26.34s0-.01,0-.01Z"/><path class="cls-12" d="m146.84,324.91c.62-.61,1.48-.98,2.41-.98,1.92,0,3.47,1.55,3.47,3.47v103.99c0,1.92-1.55,3.47-3.47,3.47-.94,0-1.79-.37-2.41-.98-.66-.62-1.06-1.5-1.06-2.48v-103.99c0-.97.4-1.85,1.06-2.48Z"/><path class="cls-11" d="m650.51,975.26c0,20.7-8.24,40.56-22.91,55.2-14.66,14.64-34.56,22.86-55.3,22.86H227.44c-20.74,0-40.63-8.22-55.3-22.86-14.66-14.64-22.91-34.5-22.91-55.2V103.7c0-20.7,8.24-40.56,22.91-55.2,14.66-14.64,34.56-22.86,55.3-22.86h344.87c20.75,0,40.63,8.22,55.3,22.87,14.66,14.64,22.91,34.5,22.91,55.2v871.55Z"/><path class="cls-11" d="m649.29,973.9c0,20.7-8.24,40.56-22.91,55.2-14.66,14.64-34.56,22.86-55.3,22.86H228.68c-20.74,0-40.63-8.22-55.3-22.86-14.66-14.64-22.91-34.5-22.91-55.2V105.64c0-20.7,8.24-40.56,22.91-55.2,14.66-14.64,34.56-22.86,55.3-22.86h342.41c20.74,0,40.63,8.22,55.3,22.87,14.66,14.64,22.91,34.5,22.91,55.2,0,0,0,868.25,0,868.25Z"/><path class="cls-12" d="m645.74,969.43c0,20.7-8.24,40.56-22.91,55.2-14.66,14.64-34.56,22.86-55.3,22.86H232.23c-20.74,0-40.63-8.22-55.3-22.86-14.66-14.64-22.91-34.5-22.91-55.2V110.12c0-20.7,8.24-40.56,22.91-55.2,14.66-14.65,34.56-22.87,55.3-22.87h335.3c20.74,0,40.63,8.23,55.3,22.87,14.66,14.64,22.91,34.5,22.91,55.2,0,0,0,859.31,0,859.31Z"/></g></g></g><g id="Layer_2-2"><g><g><path class="cls-10" d="m324.25,262.72h-95.13c-33.65,0-60.94-27.28-60.94-60.94v-92.25c0-33.65,27.28-60.94,60.94-60.94h113.19c9.86,0,18.94,3.33,26.18,8.92,10.16,7.84,16.7,20.14,16.7,33.96v110.31c0,33.65-27.28,60.94-60.94,60.94Z"/><path class="cls-9" d="m324.07,258.54l-97.1-.36c-33.65,0-60.94-27.28-60.94-60.94v-92.25c0-33.65,27.28-60.94,60.94-60.94l115.16.36c7.12,0,11.87,1.38,17.78,4.45,13.75,7.14,25.11,21.87,25.11,38.43v110.31c0,33.65-27.28,60.94-60.94,60.94Z"/><path class="cls-6" d="m322.09,260.29h-95.13c-33.65,0-60.94-27.28-60.94-60.94v-92.25c0-33.65,27.28-60.94,60.94-60.94h113.19c9.86,0,18.94,3.33,26.18,8.92,10.16,7.84,16.7,20.14,16.7,33.96v110.31c0,33.65-27.28,60.94-60.94,60.94Z"/></g><g><g><circle class="cls-4" cx="319.85" cy="198.23" r="45.67"/><path class="cls-7" d="m319.85,213.91c-8.65,0-15.69-7.04-15.69-15.69s7.04-15.69,15.69-15.69,15.69,7.04,15.69,15.69-7.04,15.69-15.69,15.69Z"/></g><path class="cls-3" d="m321,145.15c-29.58,0-53.64,24.06-53.64,53.64s24.06,53.64,53.64,53.64,53.64-24.06,53.64-53.64-24.06-53.64-53.64-53.64Zm0,96.23c-23.52,0-42.59-19.07-42.59-42.59s19.07-42.59,42.59-42.59,42.59,19.07,42.59,42.59-19.07,42.59-42.59,42.59Z"/><path class="cls-2" d="m321,141.55c-29.58,0-53.64,24.06-53.64,53.64s24.06,53.64,53.64,53.64,53.64-24.06,53.64-53.64-24.06-53.64-53.64-53.64Zm0,96.23c-23.52,0-42.59-19.07-42.59-42.59s19.07-42.59,42.59-42.59,42.59,19.07,42.59,42.59-19.07,42.59-42.59,42.59Z"/><path class="cls-8" d="m321,144.03c-29.58,0-53.64,24.06-53.64,53.64s24.06,53.64,53.64,53.64,53.64-24.06,53.64-53.64-24.06-53.64-53.64-53.64Zm0,96.23c-23.52,0-42.59-19.07-42.59-42.59s19.07-42.59,42.59-42.59,42.59,19.07,42.59,42.59-19.07,42.59-42.59,42.59Z"/></g><g><g><circle class="cls-4" cx="227.66" cy="110.03" r="45.67"/><path class="cls-7" d="m227.66,125.72c-8.65,0-15.69-7.04-15.69-15.69s7.04-15.69,15.69-15.69,15.69,7.04,15.69,15.69-7.04,15.69-15.69,15.69Z"/></g><path class="cls-3" d="m228.81,56.95c-29.58,0-53.64,24.06-53.64,53.64s24.06,53.64,53.64,53.64,53.64-24.06,53.64-53.64-24.06-53.64-53.64-53.64Zm0,96.23c-23.52,0-42.59-19.07-42.59-42.59s19.07-42.59,42.59-42.59,42.59,19.07,42.59,42.59-19.07,42.59-42.59,42.59Z"/><path class="cls-2" d="m228.81,53.35c-29.58,0-53.64,24.06-53.64,53.64s24.06,53.64,53.64,53.64,53.64-24.06,53.64-53.64-24.06-53.64-53.64-53.64Zm0,96.23c-23.52,0-42.59-19.07-42.59-42.59s19.07-42.59,42.59-42.59,42.59,19.07,42.59,42.59-19.07,42.59-42.59,42.59Z"/><path class="cls-8" d="m228.81,55.83c-29.58,0-53.64,24.06-53.64,53.64s24.06,53.64,53.64,53.64,53.64-24.06,53.64-53.64-24.06-53.64-53.64-53.64Zm0,96.23c-23.52,0-42.59-19.07-42.59-42.59s19.07-42.59,42.59-42.59,42.59,19.07,42.59,42.59-19.07,42.59-42.59,42.59Z"/></g><path class="cls-1" d="m357.37,90.06c0,9.66-7.83,17.49-17.49,17.49s-17.49-7.83-17.49-17.49,7.83-17.49,17.49-17.49,17.49,7.83,17.49,17.49Z"/><path d="m227.66,213.91c0,6.32-5.12,11.45-11.45,11.45s-11.45-5.12-11.45-11.45,5.12-11.45,11.45-11.45,11.45,5.12,11.45,11.45Z"/></g><g><path id="path5" class="cls-5" d="m434.34,551.37c-.17-10.69,4.38-19.01,13.63-24.95-5.22-7.71-12.91-12.04-23.1-13-3.62-.35-8.25.52-13.88,2.63-6.07,2.28-9.48,3.41-10.23,3.41-1.6,0-4.67-.96-9.22-2.89-4.54-1.92-8.41-2.88-11.61-2.88-5.38.08-10.39,1.6-15.02,4.53-4.63,2.93-8.33,6.94-11.11,12.02-3.54,6.3-5.3,13.84-5.3,22.59,0,7.88,1.3,15.76,3.91,23.65,2.44,7.53,5.55,14.15,9.34,19.83,3.37,5.17,6.32,8.94,8.84,11.31,3.62,3.67,7.32,5.43,11.11,5.25,2.44-.09,5.63-1,9.59-2.76,3.7-1.66,7.4-2.48,11.11-2.48,3.45,0,7.03.83,10.73,2.48,4.12,1.76,7.49,2.63,10.09,2.63,3.87-.17,7.49-1.88,10.86-5.11,1.18-1.06,2.46-2.5,3.85-4.34,1.39-1.83,2.92-4.03,4.61-6.57,1.18-1.84,2.33-3.8,3.47-5.9,1.14-2.11,2.16-4.33,3.1-6.7.42-.96.79-1.94,1.13-2.95.34-1.01.68-2.03,1.01-3.08-3.11-1.4-5.94-3.37-8.46-5.91-5.55-5.62-8.37-12.53-8.45-20.76h0Z"/><path id="path9" class="cls-5" d="m418.43,502.77c4.47-5.68,6.69-11.82,6.69-18.39v-1.31c0-.43-.04-.88-.12-1.31-3.12.17-6.42,1.18-9.91,3.01-3.49,1.85-6.37,4.17-8.64,6.96-4.55,5.52-6.82,11.43-6.82,17.74v1.25c0,.39.04.81.13,1.24,6.99.71,13.22-2.36,18.68-9.19Z"/></g></g></svg>