<?xml version="1.0" encoding="UTF-8"?><svg xmlns="http://www.w3.org/2000/svg" xmlns:xlink="http://www.w3.org/1999/xlink" viewBox="0 0 800 1080"><defs><style>.cls-1{fill:#5b5b5b;stroke-width:.32px;}.cls-1,.cls-2,.cls-3,.cls-4,.cls-5,.cls-6,.cls-7{stroke-miterlimit:10;}.cls-1,.cls-2,.cls-8,.cls-4,.cls-5,.cls-6,.cls-7{stroke:#fff;}.cls-2,.cls-3{stroke-width:.76px;}.cls-2,.cls-3,.cls-8,.cls-4,.cls-9,.cls-10,.cls-11,.cls-5,.cls-6{fill:none;}.cls-2,.cls-11,.cls-6{stroke-linecap:round;}.cls-3{stroke:#a9a29a;}.cls-8{stroke-width:.25px;}.cls-4,.cls-7{stroke-width:.54px;}.cls-12{clip-path:url(#clippath);}.cls-9,.cls-13,.cls-14,.cls-15,.cls-16,.cls-17,.cls-18,.cls-19,.cls-20,.cls-21,.cls-22,.cls-23,.cls-24,.cls-25,.cls-26,.cls-27,.cls-28,.cls-29,.cls-30,.cls-31,.cls-32,.cls-33,.cls-34,.cls-35,.cls-36,.cls-37,.cls-38,.cls-39,.cls-40,.cls-41,.cls-42,.cls-43,.cls-44,.cls-45,.cls-46,.cls-47,.cls-48,.cls-49,.cls-50,.cls-51,.cls-52,.cls-53,.cls-54,.cls-55,.cls-56,.cls-57,.cls-58,.cls-59,.cls-60,.cls-61,.cls-62,.cls-63,.cls-64,.cls-65,.cls-66,.cls-67,.cls-68,.cls-69,.cls-70,.cls-71,.cls-72,.cls-73,.cls-74,.cls-75,.cls-76,.cls-77,.cls-78,.cls-79,.cls-80,.cls-81,.cls-82,.cls-83,.cls-84,.cls-85,.cls-86,.cls-87,.cls-88,.cls-89,.cls-90,.cls-91,.cls-92,.cls-93,.cls-94,.cls-95,.cls-96,.cls-97{stroke-width:0px;}.cls-13{opacity:.24;}.cls-13,.cls-30,.cls-98{isolation:isolate;}.cls-99{mask:url(#mask);}.cls-14{fill:url(#linear-gradient);}.cls-15{fill:url(#radial-gradient);}.cls-16{opacity:.2;}.cls-16,.cls-25,.cls-29,.cls-7,.cls-86{fill:#fff;}.cls-17{fill:url(#linear-gradient-11);}.cls-18{fill:url(#linear-gradient-12);}.cls-19{fill:url(#linear-gradient-13);}.cls-20{fill:url(#linear-gradient-10);}.cls-21{fill:url(#linear-gradient-17);}.cls-22{fill:url(#linear-gradient-15);}.cls-23{fill:url(#linear-gradient-18);}.cls-24{fill:url(#linear-gradient-14);}.cls-100{clip-path:url(#clippath-1);}.cls-101{clip-path:url(#clippath-3);}.cls-102{clip-path:url(#clippath-2);}.cls-103{mix-blend-mode:hard-light;opacity:.85;}.cls-104{filter:url(#drop-shadow-2);}.cls-10{stroke:#a2248e;stroke-width:.46px;}.cls-11{stroke:#000;stroke-width:1.25px;}.cls-5{stroke-width:.81px;}.cls-25{opacity:.5;}.cls-26{fill:url(#linear-gradient-16);}.cls-26,.cls-27,.cls-28,.cls-29{fill-rule:evenodd;}.cls-27{fill:#3c3c3c;}.cls-28{fill:#ff1414;}.cls-30{opacity:.12;}.cls-6{stroke-width:1.07px;}.cls-31{fill:url(#linear-gradient-4);}.cls-32{fill:url(#linear-gradient-2);}.cls-33{fill:url(#linear-gradient-3);}.cls-34{fill:url(#linear-gradient-8);}.cls-35{fill:url(#linear-gradient-9);}.cls-36{fill:url(#linear-gradient-7);}.cls-37{fill:url(#linear-gradient-5);}.cls-38{fill:url(#linear-gradient-6);}.cls-40{fill:#f7a61a;}.cls-41{fill:#f8f7f7;}.cls-42{fill:#5fa0ea;}.cls-43{fill:#60b7e3;}.cls-44{fill:#76357f;}.cls-45{fill:#76152b;}.cls-46{fill:#7a7b80;}.cls-47{fill:#2d2278;}.cls-48{fill:#58bc98;}.cls-49{fill:#646569;}.cls-50{fill:#38a5dd;}.cls-51{fill:#338fde;}.cls-52{fill:#5ac4f6;}.cls-53{fill:#3d9701;}.cls-54{fill:#3ea9e3;}.cls-55{fill:#177013;}.cls-56{fill:#3ca515;}.cls-57{fill:#40b454;}.cls-58{fill:#1e1e1e;}.cls-59{fill:#1f7788;}.cls-60{fill:#13386b;}.cls-61{fill:#c72d37;}.cls-62{fill:#c61f06;}.cls-63{fill:#d1f2ff;}.cls-64{fill:#d179a8;}.cls-65{fill:#dfdcd5;}.cls-66{fill:#d4d2c8;}.cls-67{fill:#bbbaba;}.cls-68{fill:#bd40de;}.cls-69{fill:#c0beb6;}.cls-70{fill:#afc902;}.cls-71{fill:#ae8203;}.cls-72{fill:#a9a29a;}.cls-73{fill:#b7e824;}.cls-74{fill:#8e7ac0;}.cls-75{fill:#333;}.cls-76{fill:#8bbe6c;}.cls-77{fill:#98da7b;}.cls-78{fill:#a2248e;}.cls-79{fill:#a09f9f;}.cls-80{fill:#86c8ec;}.cls-81{fill:#ff6355;}.cls-82{fill:#ff9000;}.cls-83{fill:#7d7d7d;}.cls-84{fill:#72cef9;}.cls-85{fill:#ffa122;}.cls-87{fill:#ffe21c;}.cls-88{fill:#e3e2e3;}.cls-89{fill:#e6534b;}.cls-90{fill:#efeae6;}.cls-91{fill:#ee8c03;}.cls-92{fill:#ffd134;}.cls-93{fill:#ffc7d0;}.cls-94{fill:#ed3900;}.cls-95{fill:#ee3900;}.cls-96{fill:#f68e00;}.cls-97{fill:#0179d5;}</style><linearGradient id="linear-gradient" x1="-3172.99" y1="-1771.38" x2="-3172.99" y2="-1808.31" gradientTransform="translate(1976.05 -2418.16) rotate(-90)" gradientUnits="userSpaceOnUse"><stop offset="0" stop-color="#abafb3"/><stop offset=".05" stop-color="#a6aaaf"/><stop offset=".3" stop-color="#939aa1"/><stop offset=".56" stop-color="#889198"/><stop offset=".84" stop-color="#858e96"/></linearGradient><radialGradient id="radial-gradient" cx="-32144.82" cy="-2126.57" fx="-32144.82" fy="-2126.57" r="9.57" gradientTransform="translate(3860.93 -2507.29) rotate(-90) scale(.1 1.74) skewX(-.02)" gradientUnits="userSpaceOnUse"><stop offset=".3" stop-color="#cccbcd"/><stop offset=".47" stop-color="#c4c3c5"/><stop offset=".73" stop-color="#aeaeb2"/><stop offset=".96" stop-color="#96989c"/></radialGradient><filter id="drop-shadow-2" filterUnits="userSpaceOnUse"><feOffset dx="6.09" dy="6.09"/><feGaussianBlur result="blur" stdDeviation="7.61"/><feFlood flood-color="#000" flood-opacity=".75"/><feComposite in2="blur" operator="in"/><feComposite in="SourceGraphic"/></filter><clipPath id="clippath"><path class="cls-9" d="m125.21,728.17l2.57,21.02c.3,2.49.44,4.62.31,4.77l-1.11,1.26c-.13.15-.48-1.75-.79-4.25l-2.58-21.08c-.31-2.5-.45-4.63-.31-4.78l1.12-1.2c.13-.14.48,1.75.79,4.25Z"/></clipPath><linearGradient id="linear-gradient-2" x1="5195.16" y1="1248.25" x2="5195.16" y2="1248.31" gradientTransform="translate(-2659807.95 639874.63) scale(512 -512)" gradientUnits="userSpaceOnUse"><stop offset="0" stop-color="#1e73ed"/><stop offset="1" stop-color="#19cef8"/></linearGradient><linearGradient id="linear-gradient-3" x1="5187.32" y1="1248.25" x2="5187.32" y2="1248.31" gradientTransform="translate(-1547795.15 639874.63) scale(298.4 -512)" gradientUnits="userSpaceOnUse"><stop offset="0" stop-color="#d6e4ef"/><stop offset="1" stop-color="#f2f1f1"/></linearGradient><linearGradient id="linear-gradient-4" x1="119.45" y1="762.34" x2="119.45" y2="730.66" gradientUnits="userSpaceOnUse"><stop offset="0" stop-color="#2cc7ff"/><stop offset="1" stop-color="#0042ff"/></linearGradient><linearGradient id="linear-gradient-5" x1="121.56" y1="759.94" x2="121.56" y2="728.38" gradientUnits="userSpaceOnUse"><stop offset="0" stop-color="#01ae1f"/><stop offset="1" stop-color="#67ff80"/></linearGradient><linearGradient id="linear-gradient-6" x1="123.64" y1="757.58" x2="123.64" y2="726.14" xlink:href="#linear-gradient-5"/><linearGradient id="linear-gradient-7" x1="113.91" y1="747.52" x2="113.91" y2="741.73" gradientUnits="userSpaceOnUse"><stop offset="0" stop-color="#00c000"/><stop offset="1" stop-color="#9bff86"/></linearGradient><linearGradient id="linear-gradient-8" x1="114.31" y1="747.08" x2="114.31" y2="741.29" gradientUnits="userSpaceOnUse"><stop offset="0" stop-color="#e99700"/><stop offset="1" stop-color="#ffe045"/></linearGradient><linearGradient id="linear-gradient-9" x1="114.71" y1="746.64" x2="114.71" y2="740.85" gradientUnits="userSpaceOnUse"><stop offset="0" stop-color="#d95c0d"/><stop offset="1" stop-color="#ffb522"/></linearGradient><linearGradient id="linear-gradient-10" x1="114.82" y1="754.9" x2="114.82" y2="749.11" gradientUnits="userSpaceOnUse"><stop offset="0" stop-color="#a80002"/><stop offset="1" stop-color="#ff5449"/></linearGradient><linearGradient id="linear-gradient-11" x1="115.22" y1="754.45" x2="115.22" y2="748.67" gradientUnits="userSpaceOnUse"><stop offset="0" stop-color="#686867"/><stop offset="1" stop-color="#daeff5"/></linearGradient><linearGradient id="linear-gradient-12" x1="115.61" y1="754.01" x2="115.61" y2="748.23" gradientUnits="userSpaceOnUse"><stop offset="0" stop-color="#e64354"/><stop offset="1" stop-color="#ff5449"/></linearGradient><linearGradient id="linear-gradient-13" x1="115.72" y1="762.27" x2="115.72" y2="756.48" gradientUnits="userSpaceOnUse"><stop offset="0" stop-color="#611b95"/><stop offset="1" stop-color="#d174f7"/></linearGradient><linearGradient id="linear-gradient-14" x1="116.12" y1="761.82" x2="116.12" y2="756.03" gradientUnits="userSpaceOnUse"><stop offset="0" stop-color="#1148d9"/><stop offset="1" stop-color="#36edff"/></linearGradient><linearGradient id="linear-gradient-15" x1="116.52" y1="761.37" x2="116.52" y2="755.59" gradientUnits="userSpaceOnUse"><stop offset="0" stop-color="#0a6"/><stop offset="1" stop-color="#74efec"/></linearGradient><linearGradient id="linear-gradient-16" x1="5199.3" y1="1248.86" x2="5199.3" y2="1248.83" gradientTransform="translate(-4616858.92 1109726.14) scale(888 -888)" gradientUnits="userSpaceOnUse"><stop offset="0" stop-color="#23d4f8"/><stop offset="1" stop-color="#1f63eb"/></linearGradient><mask id="mask" x="116.41" y="737.61" width="1.54" height="21.11" maskUnits="userSpaceOnUse"><g id="mask-3"><polygon id="path-2-2" class="cls-29" points="117.1 747.7 117.95 758.73 117.54 750.08 117.1 747.7 116.65 738.89 117.54 750.08 117.1 747.7"/></g></mask><linearGradient id="linear-gradient-17" x1="135.88" y1="743.65" x2="135.88" y2="712.92" gradientUnits="userSpaceOnUse"><stop offset="0" stop-color="#125ed9"/><stop offset="1" stop-color="#17b3f0"/></linearGradient><clipPath id="clippath-1"><polygon class="cls-9" points="59.01 365.35 61.89 364.27 53.1 293.09 50.15 293.83 59.01 365.35"/></clipPath><clipPath id="clippath-2"><polygon class="cls-9" points="59.01 365.35 61.89 364.27 53.1 293.09 50.15 293.83 59.01 365.35"/></clipPath><clipPath id="clippath-3"><polygon class="cls-9" points="59.01 365.35 61.89 364.27 53.1 293.09 50.15 293.83 59.01 365.35"/></clipPath><linearGradient id="linear-gradient-18" x1="138.54" y1="735.9" x2="138.54" y2="712.09" gradientUnits="userSpaceOnUse"><stop offset=".79" stop-color="#40a8e4"/><stop offset="1" stop-color="#0082ca"/></linearGradient></defs><g class="cls-98"><g id="Layer_14"><path class="cls-83" d="m110.34,836.83c-23.29-18.57-20.06-157.83-83.23-605.44-.78-5.54,3.51-13.25,10.03-14.49,6.52-1.23,119.19,594.94,119.19,594.94"/><path class="cls-58" d="m110.34,836.83l.21-1.23,44.12-63.8c.77-1.06-.55-.31,1.23-1.77,0,0-61.39-514.68-66.09-555.39-.26-2.3-1.62-3.3-4.58-2.74-2.95.56-48.08,5.01-48.08,5.01-2.03.35-1.96,1.28-1.78,3.36l71.03,601.68c.91,8.01,2.93,13.34,3.95,14.89Z"/><polygon class="cls-86" points="38.99 232.56 88.78 224.6 151.56 739.81 107.36 791.33 38.99 232.56"/><path class="cls-39" d="m88.39,225.13l62.7,514.53-43.39,50.58L39.5,232.94l48.89-7.81m.8-1.06l-50.71,8.1,68.56,560.24,45.01-52.47L89.18,224.08h0Z"/></g><g id="Layer_15"><path class="cls-83" d="m109.78,821.02l.51,16.1c.19,6.18,5.26,11.08,11.44,11.08h628.59c32.93,0,24.99-27.89,24.99-27.89l-7.42-2.03-611.56-6.43-46.55,9.17"/><path class="cls-67" d="m775.3,820.31c0,1.52-12.98,2.93-34.69,2.93H129.58c-14.25,0-19.59-2.13-19.8-2.23l43.34-66.97c.14-.21,1.05-.4,2.56-.57,3.97-.46,12.1-.77,21.27-.77h461.28c16.77,0,31.61.79,33.17,1.78l103.9,65.82Z"/><path class="cls-27" d="m290.1,815.3l.05-5.64c0-.26,2.93-.47,6.52-.47h42.98c3.58,0,6.55.21,6.6.47l1.02,5.64c.05.27-2.91.49-6.57.49h-43.95c-3.66,0-6.66-.22-6.65-.49h0Z"/><path class="cls-27" d="m355.5,815.26l-1.43-6.86c-.05-.26,2.82-.47,6.39-.47h42.8c3.57,0,6.57.21,6.67.47l2.74,6.86c.11.27-2.8.49-6.46.49h-43.94c-3.66,0-6.71-.22-6.76-.49h0Z"/><path class="cls-27" d="m420.48,815.34l-3.91-9.21c-.11-.25,2.7-.46,6.24-.46h42.47c3.54,0,6.56.21,6.72.46l5.66,9.21c.17.27-2.7.49-6.36.49h-43.95c-3.66,0-6.75-.22-6.87-.49h0Z"/><path class="cls-27" d="m474.02,795.58l-14.35-22.23c-.15-.22,2.64-.41,6.19-.41h42.61c3.55,0,6.61.18,6.81.41l19.12,22.23c.23.27-2.75.48-6.62.48h-46.42c-3.87,0-7.17-.22-7.34-.48h0Z"/><path class="cls-27" d="m453.02,762.35l-2.46-3.81c-.13-.2,2.5-.36,5.85-.36h40.17c3.35,0,6.23.16,6.4.36l3.28,3.81c.18.21-2.47.38-5.88.38h-40.92c-3.41,0-6.31-.17-6.44-.38h0Z"/><path class="cls-27" d="m477.98,802.2l-3.21-4.98c-.17-.27,2.86-.49,6.74-.49h46.53c3.88,0,7.24.22,7.47.49l4.28,4.98c.24.28-2.8.51-6.76.51h-47.51c-3.96,0-7.35-.23-7.53-.51h0Z"/><path class="cls-27" d="m482.21,808.03l-2.71-4.2c-.18-.28,2.92-.51,6.88-.51h47.62c3.97,0,7.41.23,7.66.51l3.61,4.2c.25.29-2.85.53-6.89.53h-48.48c-4.04,0-7.5-.24-7.68-.53h0Z"/><path class="cls-27" d="m458.53,771.97l-2.64-4.1c-.14-.22,2.59-.39,6.07-.39h41.71c3.48,0,6.47.18,6.65.39l3.52,4.1c.19.22-2.55.41-6.09.41h-42.51c-3.54,0-6.56-.18-6.7-.41h0Z"/><path class="cls-27" d="m455.61,766.61l-1.95-3.02c-.13-.21,2.55-.38,5.97-.38h41c3.42,0,6.36.17,6.54.38l2.6,3.02c.18.21-2.5.39-5.97.39h-41.63c-3.47,0-6.42-.17-6.56-.39h0Z"/><path class="cls-27" d="m486.16,815.34l-3.58-5.57c-.19-.29,2.97-.53,7.02-.53h48.59c4.05,0,7.57.24,7.82.53l4.78,5.57c.26.3-2.91.55-7.05.55h-49.69c-4.14,0-7.69-.25-7.88-.55h0Z"/><path class="cls-27" d="m224.45,815.24l.74-3.27c.06-.26,3.06-.48,6.67-.48h43.32c3.61,0,6.56.21,6.55.48l-.12,3.27c0,.27-3.01.49-6.68.49h-43.94c-3.66,0-6.61-.22-6.55-.49h0Z"/><path class="cls-27" d="m225.02,810.39l.72-3.16c.06-.25,3.01-.46,6.56-.46h42.63c3.56,0,6.45.21,6.44.46l-.12,3.16c-.01.26-2.97.47-6.57.47h-43.23c-3.6,0-6.5-.21-6.44-.47h0Z"/><path class="cls-27" d="m225.84,805.72l.7-3.06c.06-.25,2.96-.45,6.46-.45h41.96c3.5,0,6.35.2,6.34.45l-.12,3.06c0,.25-2.92.46-6.46.46h-42.54c-3.55,0-6.4-.21-6.34-.46h0Z"/><path class="cls-27" d="m227.71,801.16l.67-2.97c.05-.24,2.91-.43,6.36-.43h41.31c3.44,0,6.25.2,6.24.43l-.11,2.97c0,.24-2.87.44-6.36.44h-41.88c-3.49,0-6.3-.2-6.24-.44h0Z"/><path class="cls-27" d="m228.21,796.76l.66-2.88c.05-.23,2.87-.42,6.26-.42h40.69c3.39,0,6.16.19,6.15.42l-.11,2.88c0,.24-2.83.43-6.27.43h-41.23c-3.44,0-6.2-.19-6.15-.43h0Z"/><path class="cls-27" d="m228.93,792.5l.64-2.79c.05-.22,2.83-.41,6.17-.41h40.08c3.34,0,6.07.18,6.06.41l-.11,2.79c0,.23-2.78.42-6.17.42h-40.61c-3.38,0-6.11-.19-6.06-.42h0Z"/><path class="cls-27" d="m230.19,788.3l.62-2.71c.05-.22,2.78-.4,6.07-.4h39.48c3.29,0,5.98.18,5.97.4l-.1,2.71c0,.22-2.74.41-6.08.41h-40c-3.33,0-6.02-.18-5.97-.41h0Z"/><path class="cls-27" d="m230.63,784.28l.61-2.63c.05-.21,2.74-.38,5.98-.38h38.91c3.24,0,5.89.17,5.88.38l-.11,2.63c0,.22-2.7.39-5.99.39h-39.41c-3.28,0-5.93-.18-5.88-.39h0Z"/><path class="cls-27" d="m231.29,780.39l.59-2.56c.05-.21,2.7-.37,5.9-.37h38.36c3.2,0,5.8.17,5.8.37l-.1,2.56c0,.21-2.66.38-5.9.38h-38.84c-3.24,0-5.84-.17-5.8-.38h0Z"/><path class="cls-27" d="m232.87,776.58l.57-2.48c.05-.2,2.66-.36,5.81-.36h37.81c3.15,0,5.73.16,5.72.36l-.09,2.48c0,.2-2.62.37-5.82.37h-38.28c-3.19,0-5.76-.17-5.72-.37h0Z"/><path class="cls-27" d="m233.25,772.9l.56-2.42c.04-.19,2.62-.35,5.73-.35h37.29c3.11,0,5.64.16,5.64.35l-.1,2.42c0,.2-2.59.36-5.73.36h-37.74c-3.15,0-5.68-.16-5.64-.36h0Z"/><path class="cls-27" d="m233.85,769.32l.54-2.35c.04-.19,2.59-.34,5.65-.34h36.77c3.07,0,5.57.15,5.56.34l-.1,2.35c0,.19-2.55.35-5.65.35h-37.22c-3.1,0-5.6-.16-5.56-.35h0Z"/><path class="cls-27" d="m234.88,765.83l.53-2.29c.04-.18,2.55-.33,5.57-.33h36.28c3.02,0,5.49.15,5.48.33l-.09,2.29c0,.19-2.52.34-5.58.34h-36.71c-3.06,0-5.53-.15-5.48-.34h0Z"/><path class="cls-27" d="m235.72,762.44l.9-3.94c.04-.18,2.5-.32,5.46-.32h35.54c2.96,0,5.38.14,5.38.32l-.16,3.94c0,.18-2.48.33-5.5.33h-36.21c-3.02,0-5.45-.15-5.41-.33h0Z"/><path class="cls-27" d="m290.57,808.04l.02-3.11c0-.25,2.89-.45,6.41-.45h42.3c3.53,0,6.45.2,6.49.45l.57,3.11c.05.26-2.84.47-6.41.47h-42.89c-3.57,0-6.5-.21-6.49-.47h0Z"/><path class="cls-27" d="m290.09,803.43l.03-3.02c0-.24,2.84-.44,6.31-.44h41.64c3.47,0,6.35.2,6.39.44l.55,3.02c.04.25-2.8.45-6.31.45h-42.21c-3.52,0-6.39-.2-6.39-.45h0Z"/><path class="cls-27" d="m289.88,798.97l.03-2.93c0-.24,2.8-.43,6.22-.43h41c3.42,0,6.25.19,6.29.43l.53,2.93c.04.24-2.76.44-6.22.44h-41.55c-3.46,0-6.29-.2-6.29-.44h0Z"/><path class="cls-27" d="m290.73,794.62l.02-2.84c0-.23,2.76-.41,6.12-.41h40.38c3.37,0,6.15.19,6.19.41l.52,2.84c.04.23-2.71.42-6.12.42h-40.92c-3.41,0-6.2-.19-6.2-.42h0Z"/><path class="cls-27" d="m290.28,790.41l.02-2.75c0-.22,2.72-.4,6.03-.4h39.78c3.32,0,6.06.18,6.1.4l.5,2.75c.04.23-2.67.41-6.03.41h-40.3c-3.36,0-6.1-.19-6.1-.41h0Z"/><path class="cls-27" d="m290.07,786.34l.03-2.67c0-.22,2.68-.39,5.94-.39h39.2c3.26,0,5.97.18,6.01.39l.48,2.67c.04.22-2.64.4-5.94.4h-39.71c-3.31,0-6.01-.18-6.01-.4h0Z"/><path class="cls-27" d="m290.39,782.33l.02-2.59c0-.21,2.64-.38,5.86-.38h38.63c3.22,0,5.88.17,5.92.38l.47,2.59c.04.21-2.6.39-5.86.39h-39.12c-3.26,0-5.93-.17-5.93-.39h0Z"/><path class="cls-27" d="m289.96,778.48l.03-2.52c0-.2,2.6-.37,5.77-.37h38.08c3.17,0,5.8.17,5.84.37l.45,2.52c.04.21-2.56.38-5.77.38h-38.56c-3.21,0-5.84-.17-5.84-.38h0Z"/><path class="cls-27" d="m289.77,774.75l.03-2.45c0-.2,2.56-.36,5.7-.36h37.55c3.13,0,5.72.16,5.75.36l.44,2.45c.04.2-2.53.37-5.69.37h-38.01c-3.17,0-5.76-.16-5.76-.37h0Z"/><path class="cls-27" d="m290.5,771.1l.02-2.38c0-.19,2.53-.35,5.61-.35h37.03c3.09,0,5.64.16,5.67.35l.43,2.38c.04.2-2.49.36-5.61.36h-37.48c-3.12,0-5.68-.16-5.68-.36h0Z"/><path class="cls-27" d="m290.08,767.57l.02-2.32c0-.19,2.49-.34,5.54-.34h36.52c3.04,0,5.56.15,5.6.34l.42,2.32c.03.19-2.46.35-5.54.35h-36.96c-3.08,0-5.6-.16-5.6-.35h0Z"/><path class="cls-27" d="m289.89,764.14l.03-2.26c0-.18,2.46-.33,5.46-.33h36.04c3,0,5.49.15,5.52.33l.4,2.26c.03.19-2.43.34-5.46.34h-36.46c-3.04,0-5.52-.15-5.52-.34h0Z"/><path class="cls-27" d="m352.65,806.91l-.63-3.09c-.05-.25,2.78-.45,6.29-.45h42.13c3.51,0,6.46.2,6.56.45l1.22,3.09c.1.25-2.73.46-6.29.46h-42.72c-3.56,0-6.52-.21-6.57-.46h0Z"/><path class="cls-27" d="m351.2,802.33l-.61-2.99c-.05-.24,2.74-.44,6.2-.44h41.48c3.46,0,6.36.2,6.46.44l1.18,2.99c.1.25-2.69.45-6.19.45h-42.05c-3.5,0-6.41-.2-6.46-.45h0Z"/><path class="cls-27" d="m350.05,797.91l-.59-2.9c-.05-.23,2.7-.42,6.11-.42h40.85c3.4,0,6.26.19,6.36.42l1.14,2.9c.09.24-2.65.43-6.1.43h-41.4c-3.45,0-6.32-.2-6.36-.43h0Z"/><path class="cls-27" d="m349.98,793.59l-.58-2.82c-.05-.23,2.66-.41,6.01-.41h40.24c3.35,0,6.17.19,6.26.41l1.11,2.82c.09.23-2.61.42-6.01.42h-40.77c-3.4,0-6.22-.19-6.26-.42h0Z"/><path class="cls-27" d="m348.64,789.41l-.56-2.73c-.04-.22,2.62-.4,5.92-.4h39.64c3.3,0,6.08.18,6.17.4l1.08,2.73c.09.22-2.58.41-5.93.41h-40.16c-3.35,0-6.12-.18-6.17-.41h0Z"/><path class="cls-27" d="m347.57,785.37l-.54-2.65c-.04-.21,2.59-.39,5.84-.39h39.07c3.26,0,5.99.17,6.07.39l1.04,2.65c.09.22-2.54.4-5.84.4h-39.57c-3.3,0-6.03-.18-6.08-.4h0Z"/><path class="cls-27" d="m347.05,781.39l-.53-2.58c-.04-.21,2.55-.38,5.76-.38h38.5c3.21,0,5.9.17,5.98.38l1.01,2.58c.08.21-2.51.39-5.75.39h-38.98c-3.25,0-5.94-.17-5.98-.39h0Z"/><path class="cls-27" d="m345.8,777.56l-.51-2.5c-.04-.2,2.51-.37,5.68-.37h37.95c3.16,0,5.81.16,5.89.37l.98,2.5c.08.21-2.47.37-5.67.37h-38.43c-3.2,0-5.86-.17-5.9-.37h0Z"/><path class="cls-27" d="m344.83,773.86l-.49-2.43c-.04-.2,2.48-.36,5.6-.36h37.42c3.12,0,5.73.16,5.81.36l.95,2.43c.08.2-2.44.36-5.6.36h-37.88c-3.16,0-5.77-.16-5.81-.36h0Z"/><path class="cls-27" d="m344.78,770.24l-.48-2.37c-.04-.19,2.45-.35,5.52-.35h36.9c3.08,0,5.66.16,5.73.35l.93,2.37c.08.19-2.41.35-5.52.35h-37.35c-3.11,0-5.69-.16-5.73-.35h0Z"/><path class="cls-27" d="m343.62,766.73l-.47-2.3c-.04-.19,2.41-.34,5.45-.34h36.4c3.03,0,5.58.15,5.65.34l.9,2.3c.07.19-2.38.34-5.45.34h-36.84c-3.07,0-5.61-.15-5.65-.34h0Z"/><path class="cls-27" d="m342.72,763.32l-.97-4.81c-.04-.18,2.36-.32,5.32-.32h35.54c2.96,0,5.44.14,5.51.32l1.88,4.81c.07.18-2.35.33-5.38.33h-36.34c-3.03,0-5.54-.15-5.57-.33h0Z"/><path class="cls-27" d="m290.12,760.7l.02-2.19c0-.18,2.43-.32,5.39-.32h35.54c2.96,0,5.41.14,5.44.32l.39,2.19c.03.18-2.39.33-5.39.33h-35.96c-3,0-5.45-.15-5.45-.33h0Z"/><path class="cls-27" d="m416.03,804.56l-1.29-3.04c-.1-.24,2.66-.44,6.14-.44h41.8c3.48,0,6.46.2,6.61.44l1.87,3.04c.15.25-2.61.46-6.14.46h-42.38c-3.53,0-6.51-.2-6.61-.46h0Z"/><path class="cls-27" d="m413.6,800.05l-1.25-2.95c-.1-.24,2.62-.43,6.05-.43h41.16c3.43,0,6.35.19,6.5.43l1.81,2.95c.15.24-2.57.44-6.05.44h-41.72c-3.48,0-6.4-.2-6.51-.44h0Z"/><path class="cls-27" d="m411.51,795.69l-1.21-2.86c-.1-.23,2.59-.42,5.97-.42h40.53c3.38,0,6.26.19,6.4.42l1.75,2.86c.14.24-2.54.43-5.96.43h-41.08c-3.42,0-6.31-.19-6.4-.43h0Z"/><path class="cls-27" d="m410.52,791.44l-1.18-2.77c-.09-.22,2.55-.41,5.88-.41h39.93c3.33,0,6.16.18,6.3.41l1.71,2.77c.14.23-2.5.41-5.87.41h-40.46c-3.37,0-6.21-.19-6.31-.41h0Z"/><path class="cls-27" d="m408.28,787.33l-1.14-2.69c-.09-.22,2.52-.39,5.79-.39h39.35c3.28,0,6.07.18,6.2.39l1.65,2.69c.14.22-2.47.4-5.79.4h-39.85c-3.32,0-6.12-.18-6.21-.4h0Z"/><path class="cls-27" d="m406.36,783.35l-1.11-2.61c-.09-.21,2.48-.38,5.71-.38h38.78c3.23,0,5.98.17,6.11.38l1.6,2.61c.13.21-2.44.39-5.71.39h-39.27c-3.27,0-6.02-.18-6.12-.39h0Z"/><path class="cls-27" d="m404.98,779.42l-1.08-2.54c-.09-.2,2.45-.37,5.63-.37h38.22c3.19,0,5.89.17,6.02.37l1.56,2.54c.13.21-2.4.38-5.63.38h-38.7c-3.23,0-5.94-.17-6.02-.38h0Z"/><path class="cls-27" d="m402.92,775.66l-1.04-2.47c-.08-.2,2.42-.36,5.56-.36h37.68c3.14,0,5.81.16,5.93.36l1.51,2.47c.12.2-2.37.37-5.55.37h-38.15c-3.18,0-5.85-.17-5.94-.37h0Z"/><path class="cls-27" d="m401.15,772.01l-1.01-2.4c-.08-.19,2.39-.35,5.48-.35h37.16c3.1,0,5.73.16,5.84.35l1.47,2.4c.12.2-2.34.36-5.48.36h-37.61c-3.13,0-5.77-.16-5.85-.36h0Z"/><path class="cls-27" d="m400.25,768.38l-.99-2.33c-.08-.19,2.35-.34,5.41-.34h36.64c3.05,0,5.65.15,5.76.34l1.43,2.33c.12.19-2.32.35-5.41.35h-37.08c-3.09,0-5.69-.16-5.77-.35h0Z"/><path class="cls-27" d="m398.33,764.89l-2.68-6.35c-.07-.18,2.29-.32,5.25-.32h35.55c2.96,0,5.47.14,5.58.32l3.89,6.35c.11.19-2.29.34-5.33.34h-36.57c-3.05,0-5.61-.15-5.68-.34h0Z"/><path class="cls-27" d="m177.95,809.64l1.28-2.9c.17-.39,4.74-.7,10.15-.7h15.5c5.41,0,9.74.32,9.62.7l-.93,2.9c-.13.4-4.72.72-10.22.72h-15.73c-5.49,0-9.84-.32-9.67-.72h0Z"/><path class="cls-27" d="m180.26,804.4l1.23-2.8c.16-.37,4.65-.68,9.97-.68h15.23c5.32,0,9.57.3,9.45.68l-.9,2.8c-.12.38-4.63.69-10.03.69h-15.45c-5.4,0-9.67-.31-9.5-.69h0Z"/><path class="cls-27" d="m182.19,799.35l1.2-2.7c.16-.36,4.56-.66,9.79-.66h14.97c5.23,0,9.41.29,9.29.66l-.87,2.7c-.12.37-4.55.67-9.85.67h-15.18c-5.3,0-9.5-.3-9.34-.67h0Z"/><path class="cls-27" d="m184.34,794.46l1.15-2.61c.15-.35,4.48-.63,9.62-.63h14.71c5.14,0,9.25.28,9.14.63l-.84,2.61c-.11.36-4.47.65-9.68.65h-14.92c-5.21,0-9.34-.29-9.18-.65h0Z"/><path class="cls-27" d="m186.43,789.74l1.12-2.52c.15-.34,4.4-.61,9.45-.61h14.47c5.05,0,9.1.28,8.99.61l-.81,2.52c-.11.34-4.39.63-9.51.63h-14.67c-5.12,0-9.18-.28-9.03-.63h0Z"/><path class="cls-27" d="m188.93,785.18l1.08-2.44c.14-.33,4.32-.59,9.29-.59h14.23c4.97,0,8.95.27,8.85.59l-.78,2.44c-.11.33-4.31.61-9.35.61h-14.42c-5.04,0-9.03-.27-8.89-.61h0Z"/><path class="cls-27" d="m190.87,780.77l1.04-2.36c.14-.32,4.25-.57,9.14-.57h14c4.89,0,8.81.26,8.71.57l-.76,2.36c-.1.32-4.24.59-9.19.59h-14.19c-4.95,0-8.89-.26-8.75-.59h0Z"/><path class="cls-27" d="m192.75,776.49l1.01-2.29c.13-.31,4.18-.56,8.99-.56h13.78c4.81,0,8.67.25,8.57.56l-.73,2.29c-.1.31-4.17.57-9.04.57h-13.96c-4.87,0-8.75-.26-8.61-.57h0Z"/><path class="cls-27" d="m194.68,772.36l.98-2.22c.13-.3,4.11-.54,8.85-.54h13.56c4.73,0,8.53.24,8.44.54l-.71,2.22c-.1.3-4.1.55-8.9.55h-13.74c-4.8,0-8.61-.25-8.48-.55h0Z"/><path class="cls-27" d="m196.44,768.35l.95-2.15c.13-.29,4.04-.52,8.71-.52h13.35c4.66,0,8.4.23,8.31.52l-.69,2.15c-.09.29-4.04.53-8.76.53h-13.52c-4.72,0-8.48-.24-8.35-.53h0Z"/><path class="cls-27" d="m198.15,764.46l.92-2.08c.12-.28,3.98-.51,8.57-.51h13.15c4.59,0,8.28.23,8.19.51l-.67,2.08c-.09.28-3.97.52-8.62.52h-13.32c-4.65,0-8.35-.23-8.23-.52h0Z"/><path class="cls-27" d="m199.79,760.69l.89-2.02c.12-.27,3.92-.49,8.44-.49h12.96c4.52,0,8.15.22,8.07.49l-.65,2.02c-.09.28-3.91.5-8.49.5h-13.12c-4.58,0-8.23-.23-8.11-.5h0Z"/><path class="cls-27" d="m175.56,815.08l1.33-3.01c.18-.4,4.83-.73,10.34-.73h15.78c5.51,0,9.91.33,9.79.73l-.96,3.01c-.13.41-4.81.75-10.41.75h-16.02c-5.6,0-10.02-.34-9.84-.75h0Z"/><path class="cls-83" d="m670.45,771.2l36.45,24.76c2.07,1.4-12.92,2.56-33.42,2.56h-75.37c-15.64,0-29.23-.88-30.28-1.96l-25.23-25.86c-.86-.88,9.86-1.59,23.88-1.59h67.57c18.38,0,34.71.93,36.41,2.09Zm-36.27-1.98-36.23,29.16"/><path class="cls-79" d="m634.18,769.22h-67.59c-13.05,0-23.01.66-22.21,1.48l25.42,25.86c.98,1,13.62,1.82,28.16,1.82"/><path class="cls-79" d="m597.95,798.38h75.34c19.4,0,33.59-1.09,31.64-2.42l-36.28-24.76c-1.61-1.1-17.06-1.98-34.47-1.98"/><path class="cls-14" d="m186.84,753.77c9.97,0,17.83.47,17.58,1.06-.25.59-8.6,1.07-18.66,1.07-10.05,0-17.91-.48-17.57-1.07.34-.59,8.69-1.06,18.65-1.06Z"/><path class="cls-39" d="m203.36,754.83c-.24.55-8.12,1.01-17.57,1.01-9.45,0-16.86-.45-16.54-1.01s8.19-1,17.56-1c9.37,0,16.79.45,16.55,1Z"/><path class="cls-15" d="m202.27,754.83c-.23.52-7.6.94-16.44.94-8.84,0-15.79-.42-15.49-.94.3-.52,7.67-.94,16.44-.94,8.78,0,15.72.42,15.49.94Z"/><path class="cls-39" d="m201.21,754.83c-.22.48-7.1.88-15.36.88-8.26,0-14.74-.4-14.46-.88.27-.48,7.15-.88,15.35-.88,8.2,0,14.68.39,14.47.88Z"/><g class="cls-103"><path class="cls-88" d="m193.42,754.83c-.1.21-3.15.39-6.8.39-1.68,0-3.25-.04-4.44-.1-.39-.02-.4-.06-.01-.08.39-.02,1.04-.03,1.43,0,.83.05,1.92.07,3.08.07,2.53,0,4.64-.12,4.71-.27s-1.92-.27-4.44-.27c-1.12,0-2.21.02-3.07.07-.43.02-1.07.02-1.42,0-.36-.02-.3-.06.13-.08,1.24-.06,2.81-.1,4.43-.1,3.63,0,6.51.17,6.4.39Z"/><path class="cls-88" d="m187.41,754.76c.55,0,.99.03.97.06h0s-.48.07-1.03.07h-7.18c-.56,0-1-.03-.99-.06h0s.49-.07,1.05-.07h7.17Z"/></g><path class="cls-75" d="m155.68,753.47c-3.07,6.19-13.09,23.7-17.56,29.95,0,0-28.09,37.71-28.34,37.59l43.34-66.97c.14-.21,1.05-.4,2.56-.57Z"/><rect class="cls-58" x="192.91" y="823.94" width="8.58" height="24.64" rx="4.29" ry="4.29" transform="translate(-639.06 1033.46) rotate(-90)"/><rect class="cls-58" x="223.1" y="823.94" width="8.58" height="24.64" rx="4.29" ry="4.29" transform="translate(-608.87 1063.65) rotate(-90)"/><rect class="cls-58" x="153.13" y="814.35" width="8.58" height="43.81" rx="4.29" ry="4.29" transform="translate(-678.84 993.68) rotate(-90)"/><path class="cls-58" d="m253.84,836.26h0c0,2.37-1.92,4.29-4.29,4.29h0c-2.37,0-4.29-1.92-4.29-4.29h0c0-2.37,1.92-4.29,4.29-4.29h0c2.37,0,4.29,1.92,4.29,4.29Z"/></g><g id="Layer_5"><polygon class="cls-46" points="151.33 740.78 107.93 791.37 38.5 231.72 89.18 224.08 151.33 740.78"/><path class="cls-16" d="m142.84,739.42l-28.42,32.97c-.38.44-.17,1.93-1.03-5.09l-2.67-21.65c-.87-7.05-1.27-7.4-.88-7.81l28.82-30.66c.34-.37,1.28-.94,2.09,5.75l2.48,20.54c.9,4.7-.04,5.55-.38,5.95Z"/><polygon class="cls-49" points="90.94 238.68 40.54 247.58 38.57 231.71 89.18 224.08 90.94 238.68"/><g class="cls-104"><path id="path5" class="cls-86" d="m40.65,238.82c-.11-.86-.17-1.53-.18-2.01-.1-.61-.18-.95-.24-1.02-.02-.03-.03.05-.04.22,0,.19-.01.28-.01.28,0,0-.03-.07-.07-.22-.04-.15-.07-.22-.08-.22-.02.01-.03.14-.03.37,0,.24.03.56.07.97.05.51.11,1.11.2,1.81.08.63.16,1.26.25,1.89.09.6.17,1.13.24,1.58.07.41.12.71.15.9.05.29.09.43.1.41.01,0,.02-.08.02-.23,0-.14.01-.2.03-.21.02,0,.04.06.08.19.04.14.06.2.07.2.02-.02.02-.16,0-.42,0-.09-.01-.2-.02-.35-.01-.15-.03-.32-.04-.53-.01-.15-.03-.31-.04-.48-.02-.17-.03-.35-.05-.54,0-.08-.02-.16-.02-.24,0-.08-.02-.16-.03-.25-.03-.11-.06-.27-.1-.47-.08-.45-.16-1-.25-1.66h0Z"/><path id="path9" class="cls-86" d="m40.09,234.93c-.04-.46-.09-.95-.15-1.48v-.11s-.02-.07-.03-.11c-.01.02-.02.1-.02.25,0,.15.01.34.03.56.03.45.08.92.14,1.43v.1s.02.07.03.1c.04.05.04-.2,0-.75Z"/></g><path class="cls-86" d="m41.96,241.51h-.07s-.75-6.04-.75-6.04l.2-.03.13,1.05-.13.02.19,1.56.12-.02.13,1.05-.12.02.3,2.39Z"/><path class="cls-86" d="m41.43,235.65c-.05-.41-.06-.62-.04-.62s.07.2.12.61c.02.2.04.35.05.46s0,.17-.01.17c-.03,0-.07-.2-.12-.61Zm.8,5.81h-.07s-.57-4.61-.57-4.61h.07s.57,4.61.57,4.61Z"/><path class="cls-86" d="m42.56,241.41h-.07s-.33-2.69-.33-2.69c-.04-.33-.08-.58-.1-.75-.03-.17-.05-.25-.06-.24-.02,0-.02.12,0,.36s.06.63.13,1.17l.27,2.17h-.07s-.57-4.61-.57-4.61h.06s.08.58.08.58h0c-.02-.23-.03-.4-.03-.51s0-.18.03-.18c.03,0,.07.14.13.43.05.29.11.71.18,1.25l.37,3.01Z"/><path class="cls-86" d="m42.73,241.46s-.08-.2-.15-.62c-.07-.42-.15-1-.24-1.75-.09-.76-.16-1.35-.19-1.78-.03-.43-.03-.64,0-.65.03,0,.09.22.16.67h0c-.05-.34-.09-.65-.12-.92l-.18-1.48h.07s.8,6.42.8,6.42h-.06s-.09-.59-.09-.59h0c.04.46.04.69,0,.69Zm-.1-1.01s.02-.1,0-.29c-.01-.19-.05-.51-.1-.96l-.02-.14c-.06-.5-.11-.85-.15-1.06-.04-.21-.06-.32-.08-.32-.02,0-.01.12,0,.36.02.24.06.59.11,1.04.06.46.1.79.14,1.02.04.23.06.34.08.33Z"/><path class="cls-86" d="m43.08,241.4s-.1-.19-.18-.6c-.08-.41-.16-.99-.25-1.74-.1-.77-.16-1.37-.19-1.8-.03-.43-.02-.64.02-.65s.09.18.16.54c.07.37.14.88.22,1.54l.08.61-.17.03c.05.36.09.64.12.84.04.2.07.3.09.29.02,0,.03-.03.04-.09,0-.06.01-.15.01-.28l.12.97c0,.11,0,.2-.01.25,0,.06-.02.09-.04.09Zm-.49-3.89s-.02.09,0,.26c.01.17.04.41.07.72l.1-.02c-.04-.31-.07-.55-.1-.72s-.05-.25-.07-.25Z"/><path class="cls-86" d="m42.81,236.57s.02,0,.03.03l.14,1.18s-.02-.04-.03-.04c-.02,0-.03.11-.02.32.01.21.04.5.09.87l.29,2.35h-.07s-.57-4.6-.57-4.6h.06s.11.77.11.77h0c-.02-.26-.04-.47-.04-.63,0-.16,0-.24.02-.24Z"/><path class="cls-86" d="m44.29,241.12h-.04s-.75-6.02-.75-6.02l.2-.03.08.62-.16.02.27,2.21.15-.02.08.62-.15.02.32,2.58Z"/><path class="cls-86" d="m43.78,235.34c-.02-.16-.03-.27-.04-.35s0-.11,0-.11.02.04.03.11.03.19.05.34.03.27.04.35c0,.08,0,.11,0,.12,0,0-.02-.04-.03-.11-.01-.08-.03-.19-.05-.34Zm.75,5.73h-.04s-.56-4.51-.56-4.51h.04s.56,4.51.56,4.51Z"/><path class="cls-86" d="m44.66,241.06h-.04s-.79-6.4-.79-6.4h.04s.79,6.4.79,6.4Z"/><path class="cls-86" d="m44.87,241.1s-.09-.19-.17-.59-.15-.96-.24-1.69c-.09-.73-.15-1.31-.18-1.74-.03-.43-.03-.65,0-.66.03,0,.08.18.15.55.07.37.14.86.21,1.47l.05.43-.18.03c.07.53.12.93.17,1.2.05.27.09.41.11.4.03,0,.04-.11.05-.32l.08.61c0,.11,0,.18-.01.23,0,.05-.02.07-.04.07Zm-.52-4.1s-.02.12,0,.36.05.57.1.98l.14-.02c-.05-.43-.1-.76-.14-.99s-.07-.34-.09-.34Z"/><path class="cls-86" d="m46.01,240.83l-.2.03-.74-6.01.2-.03.08.62-.15.02.24,1.94.15-.02.08.62-.15.02.27,2.21.15-.03.08.63Z"/><path class="cls-86" d="m46.19,240.18h0c.04.46.04.69,0,.7-.03,0-.09-.19-.15-.59-.07-.4-.15-.97-.24-1.71-.09-.74-.15-1.32-.19-1.73-.03-.41-.03-.62,0-.63s.09.21.16.65h0s-.04-.33-.04-.33l-.04-.32-.23-1.83h.04s.79,6.39.79,6.39h-.03s-.08-.6-.08-.6Zm-.07.13s.03-.13.01-.39-.06-.66-.13-1.23l-.02-.14c-.08-.64-.14-1.09-.19-1.36-.05-.27-.08-.4-.11-.4-.02,0-.02.16,0,.48.03.31.07.75.14,1.32.07.57.13,1.01.18,1.3.05.29.08.43.11.43Z"/><path class="cls-86" d="m45.67,235.04c-.02-.16-.03-.27-.04-.34s0-.11,0-.11.02.04.03.11.03.19.05.34.03.27.04.34c0,.08,0,.11,0,.12,0,0-.02-.04-.03-.11-.01-.08-.03-.19-.05-.34Zm.75,5.72h-.04s-.56-4.5-.56-4.5h.04s.56,4.5.56,4.5Z"/><path class="cls-86" d="m46.53,240.25s.01-.01.02-.03,0-.04,0-.06l.06.52s0,.07,0,.09c0,.02-.01.04-.02.04-.05,0-.13-.45-.25-1.36l-.33-2.68h-.04s-.04-.32-.04-.32v-.29s-.1-.96-.1-.96h.02s.13,1.04.13,1.04h.08s.07.52.07.52h-.08s.33,2.66.33,2.66c.03.27.06.48.09.62.03.14.04.21.06.21Z"/><path class="cls-86" d="m46.87,234.57h.04s.61,6.01.61,6.01h-.04s-.87-5.97-.87-5.97h.04s.56,3.86.56,3.86c.06.44.13.88.18,1.3-.05-.44-.1-.89-.14-1.33l-.4-3.87Z"/><path class="cls-86" d="m46.98,234.84c-.02-.16-.03-.27-.04-.34s0-.11,0-.11.02.04.03.11.03.19.05.34.03.27.04.34c0,.08,0,.11,0,.12,0,0-.02-.04-.03-.11-.01-.07-.03-.19-.05-.34Zm.75,5.7h-.04s-.55-4.49-.55-4.49h.04s.55,4.49.55,4.49Z"/><path class="cls-86" d="m47.94,240.59s-.09-.19-.17-.59c-.07-.4-.15-.96-.24-1.68-.09-.72-.15-1.3-.18-1.73-.03-.43-.03-.65,0-.65.03,0,.08.18.15.54.06.37.13.85.21,1.46l.05.43-.18.03c.07.53.12.93.17,1.2.05.27.09.4.11.4.03,0,.04-.11.05-.32l.07.61c0,.11,0,.18-.01.23,0,.05-.02.07-.04.07Zm-.52-4.08s-.02.12,0,.36.05.56.1.98l.14-.02c-.05-.43-.1-.76-.14-.98s-.07-.34-.09-.33Z"/><path class="cls-86" d="m48.3,240.45l-.37-2.63c-.02-.16-.07-.53-.15-1.1h0c.05.48.09.85.12,1.11l.27,2.63h-.05s-.63-4.47-.63-4.47h.04c.16,1.12.27,1.98.36,2.56.08.59.14.98.16,1.19h0c-.02-.16-.04-.36-.07-.61-.03-.25-.05-.44-.06-.59l-.27-2.58h.04s.36,2.56.36,2.56c.07.47.12.86.16,1.18h0c-.01-.1-.03-.25-.05-.46-.02-.21-.14-1.31-.36-3.31h.04s.48,4.49.48,4.49h-.05Z"/><path class="cls-86" d="m49.07,237.12l.12-.02.36,2.91c0,.1-.02.18-.03.24-.01.06-.03.08-.06.09-.05,0-.13-.25-.22-.79-.1-.53-.2-1.29-.32-2.26-.08-.62-.14-1.17-.18-1.64-.04-.47-.07-.83-.07-1.08,0-.25.01-.38.05-.38s.09.11.15.34l.06.62c-.06-.22-.1-.33-.13-.33-.04,0-.05.23-.02.67.03.44.09,1.04.19,1.81.1.81.19,1.42.26,1.83.07.41.13.62.18.61.02,0,.04-.06.05-.15l-.23-1.84h-.08s-.08-.61-.08-.61Z"/><path class="cls-86" d="m49.6,237.94c.09.73.15,1.3.18,1.71s.03.62-.01.63c-.02,0-.06-.09-.1-.27-.04-.18-.09-.45-.14-.8-.05-.35-.11-.76-.17-1.23-.09-.73-.15-1.3-.18-1.71s-.02-.62.01-.63.09.2.16.61c.07.41.15.98.24,1.69Zm-.2.03c.07.57.13,1.01.18,1.3.05.3.09.44.11.44s.03-.16,0-.46c-.02-.3-.07-.74-.14-1.31-.07-.57-.13-1-.18-1.29-.05-.29-.09-.44-.11-.43s-.03.15,0,.45c.02.29.07.73.14,1.31Z"/><path class="cls-86" d="m50.97,240h-.04s-.56-3.97-.56-3.97c-.03-.18-.06-.4-.09-.67s-.06-.43-.07-.48c.04.36.08.75.13,1.18l.42,3.98h-.04s-.83-5.94-.83-5.94h.04s.51,3.67.51,3.67c.07.51.13.98.19,1.4-.06-.5-.11-.99-.16-1.46l-.39-3.64h.04s.52,3.64.52,3.64c.06.42.12.89.19,1.42-.04-.39-.1-.86-.16-1.41l-.4-3.68h.04s.64,5.97.64,5.97Z"/><path class="cls-86" d="m50.4,234.3c-.02-.15-.03-.27-.04-.34s0-.11,0-.11.02.03.03.11c.01.07.03.19.05.34s.03.27.04.34c0,.08,0,.11,0,.11,0,0-.02-.04-.03-.11-.01-.07-.03-.19-.05-.34Zm.74,5.67h-.04s-.55-4.46-.55-4.46h.04s.55,4.46.55,4.46Z"/><path class="cls-86" d="m51.41,239.93l-.36-2.89c-.04-.36-.08-.64-.11-.81-.03-.18-.06-.27-.08-.26-.03,0-.03.13-.01.39.02.25.06.67.14,1.25l.29,2.34h-.04s-.55-4.46-.55-4.46h.03s.08.61.08.61h0c-.02-.22-.03-.39-.03-.52,0-.12,0-.19.03-.19.03,0,.07.12.12.38.05.26.11.67.18,1.24l.36,2.91h-.04Z"/><path class="cls-86" d="m51.63,239.28h0c.04.46.04.69,0,.69-.03,0-.08-.19-.15-.59-.07-.4-.15-.96-.24-1.7-.09-.74-.15-1.31-.18-1.72-.03-.41-.03-.62,0-.62s.09.21.16.65h0s-.04-.32-.04-.32l-.04-.31-.22-1.82h.04s.78,6.33.78,6.33h-.03s-.08-.59-.08-.59Zm-.06.13s.03-.13.01-.39c-.02-.25-.06-.66-.13-1.22l-.02-.14c-.08-.63-.14-1.08-.19-1.35-.05-.27-.08-.4-.11-.4-.02,0-.02.16,0,.47.03.31.07.75.14,1.31.07.57.13,1,.18,1.29.05.29.08.43.11.43Z"/><path class="cls-86" d="m51.77,237.59c.09.73.15,1.3.18,1.71.03.41.03.62-.01.63-.02,0-.05-.09-.1-.27-.04-.18-.09-.45-.14-.8-.05-.35-.11-.76-.17-1.23-.09-.73-.15-1.3-.18-1.71-.03-.41-.02-.62.01-.62s.09.2.16.61c.07.41.15.97.24,1.68Zm-.2.03c.07.57.13,1,.18,1.3.05.3.09.44.11.44s.03-.16,0-.46c-.02-.3-.07-.74-.14-1.31s-.13-1-.18-1.29-.09-.44-.11-.43-.03.15,0,.45c.02.29.07.73.14,1.3Z"/><path class="cls-86" d="m52.32,239.77l-.37-2.61c-.02-.16-.07-.52-.15-1.09h0c.05.48.09.84.12,1.1l.27,2.62h-.05s-.62-4.44-.62-4.44h.04c.15,1.11.27,1.96.35,2.55s.13.98.16,1.18h0c-.02-.16-.04-.36-.07-.6-.03-.25-.05-.44-.06-.59l-.27-2.57h.04s.36,2.55.36,2.55c.07.47.12.86.16,1.17h0c-.01-.1-.03-.25-.05-.45s-.14-1.3-.36-3.29h.04s.48,4.46.48,4.46h-.05Z"/><path class="cls-86" d="m53.48,239.58h-.04s-.34-2.79-.34-2.79l-.18.03.34,2.8h-.04s-.73-5.93-.73-5.93h.04s.31,2.52.31,2.52l.18-.03-.31-2.53h.04s.73,5.93.73,5.93Z"/><path class="cls-86" d="m53.68,239.63s-.09-.19-.16-.59c-.07-.4-.15-.95-.24-1.66s-.15-1.29-.18-1.71c-.03-.43-.03-.64,0-.65.03,0,.08.17.14.54.06.36.13.85.21,1.45l.05.43-.18.03c.07.52.12.92.17,1.19.05.27.08.4.11.4.03,0,.04-.11.04-.31l.07.6c0,.11,0,.18-.01.23,0,.05-.02.07-.04.07Zm-.51-4.05s-.02.12,0,.36c.02.23.05.56.1.97l.13-.02c-.05-.43-.1-.75-.14-.97-.04-.22-.07-.33-.09-.33Z"/><path class="cls-86" d="m53.87,239.52h-.04s-.78-6.31-.78-6.31h.04s.78,6.31.78,6.31Z"/><path class="cls-86" d="m54.08,239.56s-.04-.05-.07-.15c-.03-.1-.06-.27-.1-.49h0c.03.26.06.51.09.74l.23,1.83h-.04s-.79-6.44-.79-6.44h.03s.08.6.08.6h0c-.02-.25-.03-.42-.03-.53,0-.11,0-.17.03-.17.03,0,.08.19.15.59.07.4.15.96.24,1.69.09.73.15,1.3.18,1.71.03.41.03.61,0,.62Zm-.5-4.04s-.03.13-.01.39c.02.25.06.66.13,1.2l.02.15c.08.62.14,1.07.18,1.34.05.27.08.4.11.39.02,0,.02-.16,0-.48-.03-.31-.07-.74-.14-1.29-.07-.55-.13-.98-.18-1.27-.05-.29-.08-.44-.11-.44Z"/><path class="cls-86" d="m86.05,234.13h-.04s-.52-3.75-.52-3.75c-.02-.17-.05-.38-.09-.63-.03-.25-.05-.41-.06-.46.04.34.08.71.12,1.11l.39,3.76h-.04s-.76-5.61-.76-5.61h.04s.47,3.46.47,3.46c.07.49.12.93.17,1.32-.05-.47-.1-.93-.15-1.38l-.36-3.43h.04s.47,3.44.47,3.44c.05.4.11.84.18,1.34-.04-.36-.09-.81-.15-1.33l-.37-3.48h.04s.6,5.63.6,5.63Z"/><path class="cls-86" d="m86.28,234.17s-.08-.18-.15-.56c-.07-.38-.14-.9-.22-1.58-.08-.68-.14-1.22-.17-1.62-.03-.4-.03-.61,0-.61.03,0,.07.17.13.51.06.34.12.8.19,1.37l.05.4-.16.03c.06.49.11.87.16,1.12.04.25.08.38.1.38.02,0,.04-.1.04-.3l.07.57c0,.1,0,.17,0,.22,0,.04-.02.07-.03.07Zm-.47-3.83s-.02.12,0,.34c.02.22.05.53.09.92l.12-.02c-.05-.4-.09-.71-.13-.92s-.06-.32-.08-.31Z"/><path class="cls-86" d="m86.51,233.48h0c.04.43.04.65,0,.65-.03,0-.08-.18-.14-.55-.06-.37-.14-.91-.22-1.6-.08-.69-.14-1.24-.17-1.62s-.03-.58,0-.59.08.2.15.61h0s-.04-.3-.04-.3l-.04-.3-.21-1.72h.03s.72,5.98.72,5.98h-.03s-.07-.56-.07-.56Zm-.06.12s.03-.13,0-.36c-.02-.24-.06-.62-.12-1.15l-.02-.13c-.07-.6-.13-1.02-.17-1.28-.04-.25-.07-.38-.1-.37-.02,0-.02.15,0,.44.02.29.07.7.13,1.24s.12.94.16,1.22c.04.27.08.41.1.4Z"/><path class="cls-86" d="m86.81,234.01l-.48-5.05-.17.03-.07-.59.2-.03.06.51.49,5.13h-.04Z"/><path class="cls-86" d="m87.29,235.44s-.03-.03-.04-.1l-.07-.56s.03.07.04.07c.01,0,.02-.08,0-.24-.01-.15-.03-.38-.07-.67l-.68-5.62h.04s.67,5.56.67,5.56c.06.49.1.86.12,1.13.02.27.02.41,0,.41Z"/><path class="cls-86" d="m86.79,229.72l.33,2.73c.04.34.08.6.11.77.03.17.05.25.07.25.02,0,.03-.13,0-.37s-.06-.64-.13-1.18l-.27-2.21h.03s.51,4.2.51,4.2h-.03s-.07-.56-.07-.56h0c.02.21.03.37.03.48,0,.11,0,.17-.02.17-.03,0-.06-.11-.11-.35-.04-.24-.1-.63-.16-1.16l-.33-2.75h.04Z"/><path class="cls-86" d="m87.68,233.86l-.33-2.72c-.04-.34-.08-.6-.11-.77-.03-.17-.05-.25-.07-.25-.02,0-.03.13,0,.37.02.24.06.63.13,1.18l.27,2.21h-.03s-.51-4.2-.51-4.2h.03s.08.57.08.57h0c-.02-.21-.03-.37-.03-.49,0-.12,0-.17.02-.18.03,0,.06.11.11.36.04.24.1.63.16,1.17l.33,2.74h-.03Z"/><path class="cls-86" d="m87.92,230.55c.26,2.19.35,3.3.26,3.31-.02,0-.03-.02-.05-.07l-.07-.55c.02.07.04.1.05.09.03,0,.04-.2,0-.58-.03-.38-.09-.97-.18-1.75h0c.02.21.03.38.03.49,0,.11,0,.17-.02.17-.03,0-.07-.14-.12-.43-.05-.29-.11-.71-.17-1.24-.07-.58-.12-1.05-.14-1.39s-.02-.51,0-.52c.02,0,.05.09.09.28.04.19.09.48.14.85.05.37.11.81.17,1.32Zm-.33-1.91s-.02.12,0,.36c.02.24.05.57.1.98.04.37.08.66.12.87.04.21.06.31.08.31.01,0,.02-.05.02-.15s0-.23-.02-.39-.03-.34-.05-.52c-.03-.27-.07-.52-.1-.74-.03-.23-.06-.4-.09-.53-.03-.13-.05-.19-.06-.19Z"/><path class="cls-86" d="m87.9,229.96c-.04-.34-.05-.52-.04-.52s.05.17.09.51c.02.17.03.29.04.38s0,.14,0,.14c0,0-.02-.04-.03-.12-.01-.08-.03-.21-.05-.4Zm.41,3.38c-.02-.17-.03-.3-.04-.39,0-.09,0-.13,0-.13s.02.04.03.13c.02.09.03.22.05.39.02.17.03.29.04.38s0,.14,0,.14c0,0-.02-.04-.03-.12-.01-.08-.03-.21-.05-.4Z"/><path class="cls-86" d="m88.52,232.41h-.05s.15,1.29.15,1.29h-.03s-.15-1.28-.15-1.28l-.15.02-.07-.56-.31-3.81h.04s.45,3.76.45,3.76h.05s.07.57.07.57Zm-.15-.57l-.22-1.86c-.04-.37-.09-.78-.15-1.24h0c.02.25.04.45.05.61l.2,2.51.11-.02Z"/><path class="cls-86" d="m88.83,233.67h-.03s-.48-3.99-.48-3.99c-.04-.33-.08-.65-.11-.94,0,.05,0,.11.01.17s.02.31.04.75l-.07-.43-.06-1.16h.03s.67,5.6.67,5.6Z"/><path class="cls-86" d="m89.21,233.61l-.08-.6h0c.02.26.03.45.03.54,0,.1,0,.14-.03.15-.02,0-.05-.1-.09-.31-.04-.21-.08-.52-.13-.91-.1-.85-.12-1.3-.05-1.35l.04-.03-.03-.26c-.04-.33-.07-.57-.1-.73-.03-.16-.05-.23-.07-.23-.02,0-.03.11-.03.33l-.07-.48c0-.11,0-.2,0-.27,0-.07.02-.1.03-.1.03,0,.06.1.1.32.04.22.09.57.15,1.06l.34,2.86h-.03Zm-.13-.43s.03-.12.01-.33c-.01-.22-.04-.52-.09-.91l-.05-.38-.03.03s-.04.1-.03.25c0,.14.02.36.06.65.03.23.05.4.07.52.02.12.04.18.05.17Z"/><path class="cls-86" d="m89.6,233.54l-.33-2.73c-.04-.33-.07-.58-.1-.75-.03-.17-.05-.25-.07-.24-.02,0-.02.12,0,.35.02.23.05.58.11,1.05l.28,2.34h-.03s-.33-2.72-.33-2.72c-.04-.33-.07-.58-.1-.75-.03-.17-.05-.25-.07-.24-.02,0-.02.13,0,.37.02.24.06.63.13,1.18l.26,2.2h-.03s-.5-4.19-.5-4.19h.03s.07.57.07.57h0c-.02-.21-.03-.37-.03-.48,0-.12,0-.18.02-.18.04,0,.09.23.16.7h0c-.02-.22-.03-.4-.03-.53,0-.13,0-.2.02-.2.03,0,.06.11.1.36.04.24.1.63.16,1.17l.33,2.73h-.03Z"/><path class="cls-86" d="m79.92,231.81l-.17-.95-.02-.18c-.09-1.46-.07-2.28.05-2.3s.33.76.59,2.19l.02.18.06.96h0c-.21-1.13-.38-1.75-.48-1.73s-.11.67-.04,1.83h-.01Zm.37,2.07l-.17-.95-.02-.19c-.05-.9-.04-1.41.04-1.42s.21.46.37,1.34l.02.19.06.97h0c-.11-.58-.2-.9-.26-.89s-.07.35-.03.96h-.01Zm.48,2.71l-.28-1.57c0-.06-.02-.15-.02-.19-.01-.35,0-.54.03-.55s.09.17.15.5c0,.04.02.14.02.19l.11,1.61h0Z"/><path class="cls-5" d="m81.72,232.61c.28,2.34.41,4.26.28,4.28s-.46-1.86-.75-4.2c-.28-2.34-.41-4.26-.28-4.28s.46,1.86.75,4.21Z"/><path class="cls-4" d="m82.6,231.75c.19,1.57.27,2.86.19,2.87s-.31-1.25-.5-2.82c-.19-1.57-.27-2.86-.19-2.88s.31,1.25.5,2.83Z"/><path class="cls-86" d="m81.46,231.7c.1.86.15,1.57.1,1.58s-.17-.69-.27-1.55c-.1-.86-.15-1.57-.1-1.58s.17.69.27,1.55Z"/><path class="cls-86" d="m82,236.89c-.11.02-.27-.69-.32-1.23-.09-1.02-.11-1.71-.04-1.72s.2.59.35,1.53c.09.56.12,1.41,0,1.43Z"/><line class="cls-6" x1="83.18" y1="236.01" x2="82.84" y2="234.08"/><path class="cls-4" d="m83.71,231.55l-.27.04s-.17-.69-.28-1.56h0c-.1-.87-.15-1.58-.1-1.59l.27-.04s.17.69.28,1.56h0c.1.87.15,1.58.1,1.59Z"/><path class="cls-86" d="m83.32,230.01c.07.57.1,1.04.07,1.04s-.11-.45-.18-1.03c-.07-.57-.1-1.04-.07-1.04s.11.45.18,1.03Z"/><path class="cls-7" d="m84.25,236.04l-.27.05s-.17-.69-.28-1.56h0c-.1-.87-.15-1.58-.1-1.59l.27-.04s.17.69.28,1.56h0c.1.87.15,1.58.1,1.59Z"/><path class="cls-49" d="m84.12,234.46c.07.57.1,1.04.07,1.04s-.11-.45-.18-1.02-.1-1.04-.07-1.04.11.45.18,1.02Z"/><g class="cls-12"><g id="layer1"><g id="g7423"><path id="path1466" class="cls-65" d="m126.02,744.49l1.34,10.97.69-.79s.06-.18.07-.4l-2.1-9.78Z"/><path id="path1468" class="cls-93" d="m124.48,737.34l1.46,11.95c.36,2.98.77,5.38,1.03,6.16l-1.86-15.17-.63-2.94Z"/><path id="path1486" class="cls-65" d="m123.27,725.18c-.32-.95-.16.8.29,4.39l.58,2.69-.87-7.08Z"/><path id="path1506" class="cls-77" d="m123.56,724.42l1.48,12.07,2.75,12.8c-.06-.59-.13-1.2-.21-1.83l-.83-6.83c-.2.21-.47-.66-.72-1.68-.12-.51-.24-1.06-.33-1.52-.09-.46-.17-.84-.19-.97-.18-.83-.46-2.53-.78-4.69-.32-2.15-.68-4.76-1-7.37,0-.04-.01-.09-.02-.13l-.15.16Z"/><path id="path1294" class="cls-40" d="m123.51,729.12c.08.86.19,1.8.31,2.78l.73,6,3.56,16.55c.07-.7-.07-2.94-.37-5.66l-4.22-19.67Z"/><path id="path1292" class="cls-92" d="m123.56,729.58c.07.73.16,1.52.26,2.33l.66,5.44,3.64,16.93c.4,1.05-.04-3.11-.33-4.99l-4.23-19.71Z"/><path id="path1288" class="cls-30" d="m123.34,724.65c-.05.06-.08.33-.08.76l3.65,29.86c.09.33.17.49.22.43l.25-.28-3.79-31.04-.25.27Z"/><path id="path1290" class="cls-86" d="m123.34,724.65s-.07.23-.07.53l3.7,30.27c.07.21.13.31.17.26l.22-.25-3.8-31.05-.22.24Z"/><path id="path1300" class="cls-76" d="m123.71,724.26s.01.09.02.13c.32,2.61.68,5.22,1,7.37.32,2.15.6,3.86.78,4.69.03.13.1.51.19.97.09.46.21,1.01.33,1.52.24,1.02.52,1.9.72,1.68l-.12-.95c-.19.2-.45-.62-.68-1.59-.12-.48-.22-1-.31-1.44s-.15-.79-.2-1c-.14-.66-.41-2.27-.71-4.32s-.65-4.55-.95-6.99c0-.04-.01-.09-.02-.13l-.05.05Z"/><path id="path1302" class="cls-90" d="m123.74,724.23s.01.09.02.13c.62,5.06,1.4,10.19,1.72,11.68.14.68.83,4.52,1.21,4.1l-1.23-10.03c-.46-3.79-1-6.66-1.2-6.45l-.53.57Z"/><path id="path1304" class="cls-76" d="m124.09,723.85c.4,3.23.72,5.42,1.05,7.18.16.84.3,1.56.44,2.01.1.34.2.52.31.52l-.13-1.09c-.1,0-.19-.17-.28-.46-.12-.39-.24-.99-.39-1.8-.3-1.57-.56-3.36-.93-6.4l-.06.06Z"/><path id="path1306" class="cls-77" d="m124.11,723.82c.39,3.14.68,5.13.99,6.79.28,1.46.48,2.4.71,2.4l-.65-5.68c-.46-3.79-.7-3.88-.9-3.66l-.15.16Z"/><path id="path1308" class="cls-51" d="m123.34,724.65s-.03.06-.04.12l1.63,13.31c0-.26.02-.42.06-.46.03-.03.08.04.14.22l-1.63-13.34-.15.16Z"/><path id="circle1296" class="cls-97" d="m124.99,737.62c.16-.18.6,2.15.97,5.21.37,3.05.55,5.67.38,5.85s-.59-2.15-.97-5.2-.55-5.68-.38-5.86Z"/><path id="path1298" class="cls-86" d="m125.24,739.72s0,0,0,0c0,0,0,0,0,0,0,0,0,0,0,.01,0,0,0,0,0,0,0,0,0,0,0,0,0,0,0,.01,0,.02,0,0,0,.01,0,.02,0,0,0,.01,0,.02,0,0,0,.02,0,.03,0,0,0,.02,0,.02,0,.01,0,.02,0,.03,0,0,0,.02,0,.02,0,.01,0,.03,0,.04,0,0,0,0,0,.01l.15,1.49s0,0,0,0l.11,1.11.08.75h0s.29,2.89.29,2.89c.01.13.03.29.05.39.01.06.02.09.02.09,0,0,0,0,0,0,0,0,0,0,0,0,0,0,0,0,0,0,0,0,0,0,0,0,0,0,0,0,0,0,0,0,0,0,0-.01,0,0,0-.01,0-.02,0,0,0,0,0-.01,0-.01,0-.02,0-.04,0,0,0,0,0,0v-.02s0,0,0,0l-.12-1.9.32,1.68s0,0,0,0h0s0,.02,0,.02c0,.01,0,.02,0,.03,0,0,0,0,0,.01,0,0,0,.01,0,.02,0,0,0,0,0,.01,0,0,0,0,0,0,0,0,0,0,0,0,0,0,0,0,0,0,0,0,0,0,0,0,0,0,0,0,0,0,0-.01,0-.05,0-.12,0-.11-.03-.27-.04-.4l-.65-4.56s0,0,0,0l-.21-1.43s0-.01,0-.02c0-.01,0-.02,0-.04,0,0,0-.02,0-.02,0-.01,0-.02,0-.03,0,0,0-.02,0-.02,0,0,0-.01,0-.02,0,0,0-.01,0-.02,0,0,0,0,0-.01,0,0,0-.01,0-.02,0,0,0,0,0,0,0,0,0,0,0,0,0,0,0,0,0,0,0,0,0,0,0,0,0,0,0,0,0,0,0,0,0,0,0,0h0Z"/><path id="path1504" class="cls-13" d="m127.79,749.28s0,.06,0,.09c0-.03,0-.06,0-.09h0Z"/><path id="path1502" class="cls-13" d="m127.8,749.37s0,.06,0,.09c0-.03,0-.06,0-.09Z"/><path id="path1500" class="cls-13" d="m127.81,749.47c0,.08.02.16.02.24,0-.08-.02-.16-.02-.24Z"/><path id="path1496" class="cls-13" d="m123.33,724.68s0,0,0,.01c0,0,0,0,0-.01Z"/><path id="path1494" class="cls-13" d="m123.31,724.72s0,.02,0,.02c0,0,0-.02,0-.02Z"/><path id="path1492" class="cls-13" d="m123.3,724.78s0,.02,0,.03c0-.01,0-.02,0-.03Z"/><path id="path1490" class="cls-13" d="m123.29,724.85s0,.03,0,.04c0-.01,0-.03,0-.04Z"/><path id="path1488" class="cls-13" d="m123.28,724.93s0,.03,0,.05c0-.02,0-.03,0-.05Z"/><path id="path1484" class="cls-13" d="m123.56,729.58c0,.09.02.17.03.26,0-.09-.02-.18-.03-.26Z"/><path id="path1482" class="cls-13" d="m123.59,729.86c0,.08.02.17.03.26,0-.09-.02-.17-.03-.26Z"/><path id="path1480" class="cls-13" d="m123.62,730.15c0,.08.02.16.03.24,0-.08-.02-.16-.03-.24Z"/><path id="path1478" class="cls-13" d="m123.65,730.44c0,.07.02.15.02.22,0-.07-.02-.15-.02-.22Z"/><path id="path1476" class="cls-13" d="m123.68,730.73c0,.08.02.15.03.23,0-.08-.02-.15-.03-.23Z"/><path id="path1474" class="cls-13" d="m123.71,731.02c0,.08.02.15.03.23,0-.08-.02-.15-.03-.23Z"/><path id="path1472" class="cls-13" d="m123.75,731.31c0,.07.02.14.03.22,0-.07-.02-.15-.03-.22Z"/><path id="path1470" class="cls-13" d="m123.78,731.61c.01.1.02.19.04.29-.01-.1-.02-.19-.04-.29Z"/><path id="path1464" class="cls-13" d="m128.12,754.27h0s0-.05,0-.07c0,.03,0,.05,0,.07h0Z"/><path id="path1462" class="cls-13" d="m128.1,752.96c0,.09,0,.18.01.26,0-.08,0-.17-.01-.26Z"/><path id="path1460" class="cls-13" d="m128.11,753.22s0,.08,0,.12c0-.04,0-.08,0-.12Z"/><path id="path1458" class="cls-13" d="m128.11,753.37c0,.08,0,.15,0,.22,0-.07,0-.14,0-.22Z"/><path id="path1456" class="cls-13" d="m128.12,753.6s0,.07,0,.11c0-.04,0-.07,0-.11Z"/><path id="path1454" class="cls-13" d="m128.12,753.72c0,.07,0,.13,0,.19,0-.06,0-.12,0-.19Z"/><path id="path1452" class="cls-13" d="m127.02,755.59s0,.02.01.03c0,0,0-.02-.01-.03Z"/><path id="path1450" class="cls-13" d="m127.05,755.65s0,.01.01.02c0,0,0-.01-.01-.02Z"/><path id="path1448" class="cls-13" d="m127.07,755.69s0,0,.01.01c0,0,0,0-.01-.01Z"/><path id="path1446" class="cls-13" d="m127.09,755.71s0,0,0,0c0,0,0,0,0,0Z"/><path id="rect1328" class="cls-13" d="m127.12,755.72s0,0,0,0c0,0,0,0,0,0Z"/></g></g></g><path class="cls-32" d="m110.56,738.85l1.17-1.26c.14-.15.5,1.8.82,4.35l2.65,21.49c.31,2.54.46,4.72.32,4.88l-1.16,1.32c-.14.16-.5-1.78-.82-4.33l-2.66-21.55c-.32-2.56-.46-4.75-.32-4.9Z"/><path class="cls-33" d="m111.73,737.59l-.52.56c.3,3.04.77,8.01,1.9,17.25.04.33.09.58.11.57,0,0,0,0,0,0l.19-.21s.06.23.11.56c0,0,0,.01,0,.02.51,4.2,1.05,8.37,1.6,12.42l.4-.46c.14-.16,0-2.34-.32-4.88h0l-2.65-21.49c-.31-2.55-.68-4.49-.82-4.35Z"/><path class="cls-86" d="m114.68,739.61l2.63,21.41c.31,2.53.45,4.71.32,4.87l-1.15,1.31c-.14.16-.5-1.78-.81-4.32l-2.64-21.47c-.31-2.55-.46-4.72-.32-4.87l1.16-1.25c.14-.15.5,1.78.81,4.32Z"/><path class="cls-86" d="m116.8,737.31l2.62,21.33c.31,2.52.45,4.69.32,4.85l-1.14,1.3c-.14.15-.5-1.77-.81-4.3l-2.63-21.39c-.31-2.54-.45-4.7-.32-4.85l1.15-1.24c.14-.15.5,1.78.81,4.31Z"/><path class="cls-31" d="m118.96,734.96l2.61,21.25c.31,2.51.45,4.68.32,4.83l-1.13,1.29c-.13.15-.49-1.77-.8-4.29l-2.62-21.31c-.31-2.53-.45-4.69-.32-4.83l1.14-1.23c.13-.15.49,1.77.8,4.29Z"/><path class="cls-37" d="m121.07,732.67l2.59,21.17c.31,2.5.45,4.66.32,4.81l-1.12,1.28c-.13.15-.49-1.76-.8-4.27l-2.6-21.23c-.31-2.52-.45-4.67-.32-4.81l1.13-1.22c.13-.14.49,1.76.8,4.28Z"/><path class="cls-38" d="m123.15,730.41l2.58,21.1c.31,2.5.45,4.64.31,4.79l-1.11,1.27c-.13.15-.49-1.76-.79-4.26l-2.59-21.16c-.31-2.51-.45-4.65-.31-4.79l1.12-1.21c.13-.14.49,1.76.79,4.26Z"/><path class="cls-86" d="m127.25,725.95l2.55,20.95c.3,2.48.44,4.61.31,4.75l-1.1,1.25c-.13.15-.48-1.75-.78-4.23l-2.56-21c-.3-2.49-.44-4.62-.31-4.76l1.11-1.19c.13-.14.48,1.75.78,4.23Z"/><path class="cls-86" d="m131.36,721.49l2.53,20.79c.3,2.46.44,4.57.31,4.72l-1.08,1.23c-.13.15-.48-1.74-.78-4.2l-2.54-20.85c-.3-2.47-.44-4.58-.31-4.72l1.09-1.18c.13-.14.48,1.74.78,4.21Z"/><path class="cls-89" d="m131.36,721.49l.59,4.81-1.52,2.02-.63-5.14c-.3-2.47-.44-4.58-.31-4.72l1.09-1.18c.13-.14.48,1.74.78,4.21Z"/><path class="cls-11" d="m112.62,746.77l.25,2.04m-1-1.23l.25,2.04m1.94,7.89c.32,5.12-.1,5.61-.97,1.08"/><path class="cls-86" d="m122.46,732.25c-.34.37-.11,4.75.5,9.78.36,2.95.77,5.45,1.12,6.95.1.83.26,2.32.37,3.55,0,0,.04-.89-.1-2.57.13.4.25.58.34.48.34-.38.11-4.75-.5-9.76-.61-5.02-1.39-8.79-1.72-8.42Z"/><path class="cls-36" d="m114.34,747.33l-.17.19s-.14-.48-.22-1.17l-.39-3.13c-.08-.68-.12-1.27-.09-1.31l.17-.18s.14.48.22,1.17l.39,3.13c.08.68.12,1.27.09,1.31Z"/><path class="cls-34" d="m114.74,746.89l-.17.19s-.13-.48-.22-1.16l-.39-3.13c-.08-.68-.12-1.27-.09-1.31l.17-.18s.13.48.22,1.17l.38,3.13c.08.68.12,1.27.09,1.31Z"/><path class="cls-35" d="m115.14,746.45l-.17.18s-.13-.48-.22-1.16l-.38-3.13c-.08-.68-.12-1.27-.09-1.31l.17-.18s.13.48.22,1.16l.38,3.12c.08.68.12,1.27.09,1.31Z"/><path class="cls-20" d="m115.24,754.71l-.17.19s-.13-.48-.22-1.16l-.39-3.13c-.08-.68-.12-1.27-.09-1.31l.17-.19s.13.48.22,1.16l.38,3.12c.08.68.12,1.27.09,1.31Z"/><path class="cls-17" d="m115.64,754.26l-.17.19s-.13-.48-.22-1.16l-.38-3.12c-.08-.68-.12-1.27-.09-1.31l.17-.19s.13.48.22,1.16l.38,3.12c.08.68.12,1.27.09,1.31Z"/><path class="cls-18" d="m116.04,753.82l-.17.19s-.13-.48-.22-1.16l-.38-3.12c-.08-.68-.12-1.27-.09-1.31l.17-.19s.13.48.22,1.16l.38,3.12c.08.68.12,1.27.09,1.31Z"/><path class="cls-19" d="m116.15,762.07l-.17.19s-.13-.48-.22-1.16l-.38-3.12c-.08-.68-.12-1.27-.09-1.31l.17-.19s.13.48.22,1.16l.38,3.12c.08.68.12,1.27.09,1.31Z"/><path class="cls-24" d="m116.55,761.62l-.17.19s-.13-.48-.22-1.16l-.38-3.12c-.08-.68-.12-1.27-.09-1.31l.17-.19s.13.48.22,1.16l.38,3.12c.08.68.12,1.27.09,1.31Z"/><path class="cls-22" d="m116.95,761.18l-.17.19s-.13-.48-.22-1.16l-.38-3.12c-.08-.68-.12-1.27-.09-1.31l.17-.19s.13.48.22,1.16l.38,3.12c.08.68.12,1.27.09,1.31Z"/><g id="App-Icon-_-Apple-_-Safari-_"><g id="Safari-Icon"><path id="Oval" class="cls-26" d="m115.69,735.63c.39-.43,1.44,5.16,2.34,12.48s1.31,13.58.92,14.02-1.44-5.13-2.34-12.45c-.9-7.33-1.31-13.63-.92-14.05Z"/><path id="Scale" class="cls-29" d="m115.8,736.67h.01s.28,2.28.28,2.28h-.01s-.28-2.28-.28-2.28h0Zm.13.04l.02.03.26,2.28-.02-.03-.26-2.28h0Zm.18.41l.02.07.22,2.2-.02-.07-.22-2.2h0Zm.21.77l.03.11.18,2.05-.03-.11-.18-2.05h0Zm.24,1.1l.03.15.14,1.84-.03-.15-.14-1.84h0Zm.27,1.4l.03.19.09,1.58-.03-.19-.09-1.58h0Zm.28,1.66l.03.21.03,1.26-.03-.21-.03-1.26h0Zm.29,1.87l.03.23-.02.91-.03-.23.02-.91h0Zm.28,2.02l.03.25-.07.53-.03-.25.07-.53h0Zm.27,2.11l.03.25-.12.14-.03-.25.12-.14h0Zm.25,2.13l.03.25-.17-.26-.03-.25.17.26h0Zm.22,2.09l.02.24-.21-.65-.02-.24.21.65h0Zm.19,1.99l.02.23-.25-1.03-.02-.23.25,1.03h0Zm.15,1.83l.02.2-.27-1.37-.02-.2.27,1.37h0Zm.11,1.61v.18s-.28-1.66-.28-1.66v-.18s.28,1.66.28,1.66h0Zm.06,1.34v.14s-.3-1.91-.3-1.91v-.14s.3,1.91.3,1.91h0Zm.01,1.03v.1s-.31-2.1-.31-2.1v-.1s.31,2.1.31,2.1h0Zm-.04.7v.06s-.31-2.23-.31-2.23v-.06s.31,2.23.31,2.23h0Zm-.09.34v.02s-.29-2.29-.29-2.29v-.02s.29,2.29.29,2.29h0Zm-.13-.03l-.02-.03-.26-2.28.02.03.26,2.28h0Zm-.18-.4l-.02-.07-.22-2.2.02.07.22,2.2h0Zm-.21-.76l-.03-.11-.18-2.05.03.11.18,2.05h0Zm-.24-1.1l-.03-.15-.14-1.84.03.15.14,1.84h0Zm-.26-1.4l-.03-.19-.09-1.58.03.19.09,1.58h0Zm-.28-1.66l-.03-.21-.03-1.27.03.21.03,1.27h0Zm-.29-1.87l-.03-.23.02-.91.03.23-.02.91h0Zm-.28-2.02l-.03-.25.07-.53.03.25-.07.53h0Zm-.27-2.11l-.03-.25.12-.14.03.25-.12.14h0Zm-.25-2.14l-.03-.25.17.26.03.25-.17-.26h0Zm-.23-2.1l-.02-.24.21.66.02.24-.21-.66h0Zm-.19-2l-.02-.23.25,1.03.02.23-.25-1.03h0Zm-.15-1.83l-.02-.21.28,1.37.02.21-.28-1.37h0Zm-.11-1.61v-.18s.29,1.67.29,1.67v.18s-.29-1.67-.29-1.67h0Zm-.06-1.34v-.14s.3,1.92.3,1.92v.14s-.3-1.92-.3-1.92h0Zm0-1.04v-.1s.31,2.11.31,2.11v.1s-.31-2.11-.31-2.11h0Zm.04-.69v-.06s.31,2.24.31,2.24v.06s-.31-2.24-.31-2.24h0Z"/><path id="Scale-2" class="cls-29" d="m118.61,759.86l.15,1.27h-.02s-.15-1.28-.15-1.28h.02Zm.1-.14l.16,1.26v.04s-.17-1.26-.17-1.26v-.04Zm-.26-.11l.02.05.13,1.25-.02-.05-.13-1.25Zm.32-.36l.17,1.21v.08s-.17-1.21-.17-1.21v-.08Zm-.49-.21l.03.09.11,1.19-.03-.09-.11-1.19Zm.51-.57l.17,1.12v.12s-.17-1.12-.17-1.12v-.12Zm-.71-.3l.03.13.09,1.09-.03-.13-.09-1.09Zm.68-.77l.17,1v.16s-.16-1-.16-1v-.16Zm-.91-.39l.03.17.06.95-.03-.17-.06-.95Zm.84-.94l.16.84v.19s-.15-.84-.15-.84v-.19Zm-1.08-.46l.03.2.03.79-.03-.2-.03-.79Zm.97-1.09l.15.67.02.22-.15-.67-.02-.22Zm-1.22-.52l.03.22v.61s-.03-.22-.03-.22v-.61Zm1.07-1.19l.13.47.02.24-.13-.47-.02-.24Zm-1.32-.57l.03.24-.03.4-.03-.24.03-.4Zm1.14-1.27l.11.26.03.25-.11-.26-.03-.25Zm-1.39-.6l.03.25-.05.19-.03-.25.05-.19Zm1.25-1.26l.03.25-.08-.04-.03-.25.08.04Zm-1.49-.65l.03.26-.08-.04-.03-.26.08.04Zm1.22-1.48l.03.25-.05.19-.03-.25.05-.19Zm-1.54-.68l.11.26.03.25-.11-.26-.03-.25Zm1.26-1.39l.03.24-.03.4-.03-.24.03-.4Zm-1.47-.65l.13.47.02.24-.13-.47-.02-.24Zm1.18-1.3l.03.22v.61s-.03-.22-.03-.22v-.61Zm-1.35-.6l.15.67.02.22-.15-.67-.02-.22Zm1.07-1.17l.03.2.03.79-.03-.2-.03-.79Zm-1.19-.53l.16.85v.19s-.15-.85-.15-.85v-.19Zm.92-1l.03.17.06.95-.03-.17-.06-.95Zm-1-.45l.17,1v.16s-.16-1-.16-1v-.16Zm.74-.81l.03.13.09,1.09-.03-.13-.09-1.09Zm-.77-.35l.17,1.12v.12s-.17-1.12-.17-1.12v-.12Zm.54-.59l.03.09.11,1.19-.03-.09-.11-1.19Zm-.52-.24l.17,1.21v.08s-.17-1.21-.17-1.21v-.08Zm.33-.35l.02.05.13,1.25-.02-.05-.13-1.25Zm-.26-.12l.16,1.26v.04s-.17-1.26-.17-1.26v-.04Zm.12-.1l.15,1.28h-.02s-.15-1.28-.15-1.28h.02Z"/><g id="Compass"><g id="Arrow"><polygon id="path-2" class="cls-29" points="117.1 747.7 117.95 758.73 117.54 750.08 117.1 747.7 116.65 738.89 117.54 750.08 117.1 747.7"/></g><g class="cls-99"><polygon id="Arrow-2" class="cls-28" points="116.41 737.61 116.92 740.33 117.57 750.24 117.06 747.53 116.41 737.61"/></g></g></g></g><path class="cls-86" d="m119.56,746.23l.05.96c.02.31.01.49-.01.52s-.07-.1-.12-.37l-.18-.88.42,7.15c.02.07.03.11.04.1l1.01-1.13s.01-.07.01-.15l-1.22-6.2Z"/><path class="cls-86" d="m118.09,740.51c.01.22.04.52.08.85l1.38,11.28c.03.21.05.4.08.57l-.42-7.12-1.13-5.58Z"/><path class="cls-86" d="m120.75,751.97c-.02-.18-.04-.38-.06-.6l-1.38-11.25c-.04-.3-.08-.57-.11-.76l.35,6.44,1.21,6.17Z"/><path class="cls-86" d="m119.53,746.72l-.41-7.67s-.01-.02-.02-.01l-1.02,1.12v.02s1.35,6.66,1.35,6.66c.07.36.12.31.1-.11Z"/><path id="Combined-Shape" class="cls-29" d="m120.78,737.62c.07-.08.11.03.17.26s.12.58.2,1.05.14.93.3,2.25l.69,5.65c.16,1.31.21,1.8.26,2.29s.07.89.08,1.18,0,.45-.07.53l-.38.42c-.07.08-.11-.03-.17-.26s-.12-.58-.2-1.05c-.07-.47-.14-.93-.3-2.25l-.69-5.66c-.16-1.32-.21-1.8-.26-2.3-.05-.5-.07-.9-.08-1.18s0-.45.07-.53l.38-.42Zm.66.51c.04.2.07.47.11.75l1.16,9.5c.08.65.12,1.21.08,1.25-.01.02-.04-.07-.08-.24l-.49-2.47c-.04-.2-.05-.28-.07-.38-.02-.1-.03-.21-.05-.33-.02-.12-.03-.23-.07-.55l-.41-3.38c-.04-.33-.05-.44-.07-.57-.01-.13-.02-.24-.03-.35h0c0-.12-.01-.21-.03-.43l-.16-2.84c-.03-.45.02-.44.1.03Z"/><path class="cls-9" d="m127.79,737.36s-.02-.09-.03-.15c0-.05-.02-.11-.03-.16,0,0,0,.02-.01.03s0,0-.01,0c0,.06,0,.12.01.18,0,.06,0,.11,0,.17,0,.08.02.15.03.23s.02.16.03.23c0,.05.02.09.03.15,0,.05.02.11.03.16,0,0,0-.02.01-.03s0,0,.01,0c0-.06,0-.12-.01-.18,0-.06,0-.11,0-.17,0-.08-.02-.15-.03-.23s-.02-.16-.03-.23Z"/><path class="cls-85" d="m127.74,737.05c-.02-.09-.03-.18-.05-.28,0,.11.02.21.02.31,0,0,0,0,.01,0s0-.02.01-.03Z"/><path class="cls-85" d="m127.12,732.31c.03.14.05.29.08.44-.01-.17-.03-.33-.04-.49l-.18-2.77c0-.15-.02-.28-.02-.39-.22-1.64-.45-2.83-.54-2.73s-.01,1.45.18,3.13c.02.1.04.21.07.34l.46,2.47Z"/><path class="cls-42" d="m128.46,742.93c-.03-.14-.05-.29-.08-.44.01.17.03.33.04.49l.18,2.77c0,.15.02.28.02.39.22,1.64.45,2.82.54,2.72s.01-1.45-.18-3.12c-.02-.1-.04-.21-.07-.34l-.46-2.46Z"/><path class="cls-42" d="m127.85,738.2c.02.09.03.18.05.28,0-.11-.02-.21-.02-.31,0,0,0,0-.01,0s0,.02-.01.03Z"/><path class="cls-73" d="m127.82,737.59c0,.08.02.15.03.23,0-.09,0-.17-.01-.25-.01-.07-.03-.14-.04-.21,0,.08.02.15.03.23Z"/><path class="cls-73" d="m128.38,736.97c-.21-1.73-.45-3.1-.57-3.27.01.16.02.32.03.46l.18,2.77c.01.15.02.29.02.42.02.11.05.22.07.36l.46,2.46c.02.13.05.27.07.42.05-.37-.05-1.88-.27-3.61Z"/><path class="cls-64" d="m127.56,738.33c-.01-.15-.02-.29-.02-.42-.02-.11-.05-.22-.07-.36l-.46-2.47c-.02-.13-.05-.27-.07-.42-.05.37.05,1.88.27,3.62s.45,3.1.57,3.28c-.01-.16-.02-.32-.03-.46l-.18-2.77Z"/><path class="cls-64" d="m127.73,737.43c0,.09,0,.17.01.25.01.07.03.14.04.21,0-.08-.02-.15-.03-.23s-.02-.15-.03-.23Z"/><path class="cls-87" d="m127.48,733.38c.03.21.05.41.07.61,0-.05.01-.08.02-.09l.19-.21s.02,0,.04.02c-.12-1.42-.35-3.33-.57-4.48-.21-1.16-.33-1.17-.28-.11.02.18.05.37.07.57l.45,3.7Z"/><path class="cls-87" d="m127.79,737.36c-.01-.13-.03-.25-.04-.37,0,.03,0,.05-.01.07,0,.05.02.11.03.16,0,.05.02.1.03.15Z"/><path class="cls-91" d="m127.16,732.27c.01.15.02.32.04.49.19,1.15.39,2.76.49,4.01.02.1.03.19.05.28,0-.02.01-.04.01-.07-.16-1.46-.24-2.67-.2-3-.02-.2-.05-.4-.07-.61l-.45-3.7c-.02-.2-.05-.38-.07-.57,0,.12.01.25.02.39l.18,2.77Z"/><path class="cls-70" d="m127.58,733.9s-.02.04-.02.09c.16,1.46.24,2.66.2,3,.01.12.03.25.04.37.02.08.03.15.04.21-.04-.91.04-1.01.21-.23,0-.12-.01-.26-.02-.42l-.18-2.77c0-.15-.02-.3-.03-.46-.01-.02-.03-.03-.04-.02l-.19.21Z"/><path class="cls-71" d="m127.55,733.99c-.05.34.03,1.54.2,3,.05-.34-.03-1.54-.2-3Z"/><path class="cls-74" d="m127.79,737.89c.01.13.03.25.04.38,0-.03,0-.05.01-.07,0-.06-.02-.11-.03-.16,0-.05-.02-.1-.03-.15Z"/><path class="cls-74" d="m128.1,741.88c-.03-.21-.05-.41-.07-.61,0,.05-.01.08-.02.09l-.19.22s-.02,0-.04-.02c.12,1.42.35,3.33.57,4.48.21,1.15.33,1.16.28.1-.02-.18-.05-.37-.07-.57l-.45-3.7Z"/><path class="cls-74" d="m128.42,742.98c-.01-.15-.02-.32-.04-.49-.19-1.15-.39-2.76-.49-4.01-.02-.1-.03-.19-.05-.28,0,.02-.01.04-.01.07.16,1.46.24,2.66.2,3,.02.2.05.4.07.61l.45,3.7c.02.19.05.38.07.57,0-.12-.01-.25-.02-.39l-.18-2.77Z"/><path class="cls-44" d="m128.01,741.36s.02-.05.02-.09c-.16-1.46-.24-2.67-.2-3-.01-.12-.03-.25-.04-.38-.02-.08-.03-.15-.04-.21.04.91-.04,1.01-.21.23,0,.12.01.26.02.42l.18,2.77c0,.15.02.3.03.46.01.02.03.03.04.02l.19-.22Z"/><path class="cls-47" d="m128.03,741.27c.05-.34-.03-1.54-.2-3-.05.34.03,1.54.2,3Z"/><path class="cls-48" d="m128.43,740.89s-.02,0-.04-.02c.03.19.05.39.08.6l.45,3.7c.02.19.05.39.07.57.19.9.28.66.19-.63-.09-1.3-.31-3.21-.53-4.52,0,.04-.01.07-.02.08l-.19.22Z"/><path class="cls-48" d="m127.87,738.17s.02,0,.02.02c-.02-.12-.03-.24-.05-.37,0,.05,0,.11,0,.17,0,.06,0,.12.01.18Z"/><path class="cls-59" d="m128.47,741.47c-.03-.21-.05-.41-.08-.6-.11-.17-.31-1.24-.49-2.67,0-.01-.02-.02-.02-.02,0,.1.02.2.02.31.19,1.15.39,2.76.49,4.01.03.16.05.31.08.44l.46,2.46c.02.13.05.24.07.34-.02-.19-.04-.38-.07-.57l-.45-3.7Z"/><path class="cls-56" d="m128.12,737.7c-.03-.14-.05-.26-.07-.36.04.91-.04,1.01-.21.23,0,.08,0,.16.01.25.02.13.03.25.05.37.11.17.31,1.24.49,2.67.01.02.03.03.04.02l.19-.22s.02-.04.02-.08c-.02-.15-.05-.29-.07-.42l-.46-2.46Z"/><path class="cls-55" d="m128.39,740.87c-.19-1.43-.39-2.5-.49-2.67.19,1.43.39,2.5.49,2.67Z"/><path class="cls-53" d="m127.84,737.58c.17.77.25.68.21-.23-.17-.77-.25-.68-.21.23Z"/><path class="cls-60" d="m128.39,742.49c-.1-1.25-.3-2.86-.49-4.01.1,1.25.3,2.86.49,4.01Z"/><path class="cls-81" d="m127.71,737.08s-.02,0-.02-.02c.02.12.03.24.05.37,0-.05,0-.11,0-.17,0-.06,0-.12-.01-.18Z"/><path class="cls-81" d="m127.15,734.36s.02,0,.04.02c-.03-.19-.05-.39-.08-.6l-.45-3.71c-.02-.2-.05-.39-.07-.58-.19-.9-.28-.67-.19.63.09,1.3.31,3.22.53,4.53,0-.04.01-.07.02-.08l.2-.21Z"/><path class="cls-95" d="m127.11,733.78c.03.21.05.41.08.6.11.17.31,1.24.5,2.67,0,.01.02.02.02.02,0-.1-.02-.2-.02-.31-.19-1.15-.39-2.76-.49-4.01-.03-.16-.05-.31-.08-.44l-.46-2.47c-.02-.13-.05-.24-.07-.34.02.19.04.38.07.58l.45,3.71Z"/><path class="cls-61" d="m127.46,737.55c.03.14.05.26.07.36-.04-.91.04-1.01.21-.23,0-.08,0-.16-.01-.25-.02-.13-.03-.25-.05-.37-.11-.17-.31-1.24-.5-2.67-.01-.02-.03-.03-.04-.02l-.2.21s-.02.04-.02.08c.02.15.05.29.07.42l.46,2.47Z"/><path class="cls-62" d="m127.19,734.39c.19,1.43.39,2.5.5,2.67-.19-1.43-.39-2.5-.5-2.67Z"/><path class="cls-94" d="m127.2,732.76c.1,1.25.3,2.86.49,4.01-.1-1.25-.3-2.86-.49-4.01Z"/><path class="cls-45" d="m127.54,737.91c.17.77.25.68.21-.23-.17-.77-.25-.68-.21.23Z"/><path class="cls-66" d="m129.37,723.65l2.54,20.87c.3,2.47.44,4.59.31,4.74l-1.09,1.24c-.13.15-.48-1.74-.78-4.22l-2.55-20.93c-.3-2.48-.44-4.6-.31-4.74l1.1-1.18c.13-.14.48,1.74.78,4.22Z"/><path class="cls-68" d="m133.4,719.26l2.52,20.72c.3,2.45.44,4.56.31,4.7l-1.07,1.22c-.13.15-.47-1.73-.77-4.19l-2.53-20.78c-.3-2.47-.44-4.57-.31-4.7l1.08-1.17c.13-.14.47,1.73.77,4.19Z"/><path class="cls-21" d="m135.39,717.1l2.5,20.65c.3,2.44.43,4.54.31,4.68l-1.06,1.21c-.13.14-.47-1.73-.77-4.17l-2.51-20.7c-.3-2.46-.44-4.55-.31-4.69l1.07-1.16c.13-.14.47,1.73.77,4.18Z"/><path class="cls-52" d="m129.37,723.65l1.2,9.82,1.35,11.04c.26,2.16.4,4.05.35,4.59l-1.88-15.43-1.73-14.22c.16.28.46,2,.73,4.19Z"/><path class="cls-52" d="m129.37,723.65l1.2,9.82,1.35,11.04c.26,2.16.4,4.05.35,4.59l-1.88-15.43-1.73-14.22c.16.28.46,2,.73,4.19Z"/><path class="cls-96" d="m130.57,733.47l1.35,11.04c.26,2.16.4,4.05.35,4.59l-1.88-15.43.19-.21Z"/><path class="cls-57" d="m131.54,741.47l.37,3.05c.26,2.16.4,4.05.35,4.59l-.91-7.43.19-.21Z"/><line class="cls-82" x1="132.26" y1="749.11" x2="128.65" y2="719.46"/><path class="cls-69" d="m129.37,723.66l.36,2.93-.19.21-.89-7.33c.16.28.46,2,.73,4.19Z"/><path class="cls-3" d="m130.31,734.47c.64,5.28.94,9.81.67,10.13s-1.02-3.72-1.67-9.01c-.65-5.3-.94-9.84-.67-10.14s1.02,3.74,1.67,9.03Z"/><path class="cls-72" d="m129.74,732.73c.24,1.95.35,3.62.25,3.73s-.38-1.37-.61-3.32c-.24-1.95-.35-3.62-.25-3.73s.38,1.38.61,3.32Z"/><path class="cls-72" d="m130.97,744.6c-.23.26-.53-1.53-.7-2.43-.21-2.38-.26-4.06-.11-4.23s.44,1.09.77,3.12c.13.95.27,3.28.04,3.54Z"/><path class="cls-41" d="m130.69,725.87c-.03-.11-.06-.27-.09-.49-.03-.22-.07-.47-.11-.77v-.03s.05-.06.05-.06v.02c.02.12.03.23.05.32.01.09.03.16.04.21s.02.07.03.06c.01-.01.01-.08,0-.22,0-.13-.03-.32-.06-.56l-.4-3.27.05-.06.4,3.28c.06.51.1.91.12,1.2.02.3.02.46-.01.49-.02.02-.04-.03-.07-.14Z"/><path class="cls-41" d="m130.91,725.59c-.03-.13-.07-.33-.11-.58s-.08-.57-.13-.92l-.38-3.1.05-.06.37,3.01c.04.31.07.55.1.73s.06.25.07.23.02-.12,0-.32c-.01-.19-.04-.45-.08-.76l-.37-3.01.05-.06.38,3.1c.04.35.08.67.1.95.02.28.04.5.04.66,0,.17,0,.26-.03.28s-.05-.03-.08-.16Z"/><path class="cls-41" d="m130.54,720.71l.05-.05.59,3.61-.12-.59.02-.02-.38-3.12.05-.06.58,4.8-.05.05-.6-3.62.12.59-.02.02.38,3.14-.05.06-.58-4.8Z"/><path class="cls-39" d="m131.94,731.98v-.04s-.37.41-.37.41l-.18-1.46.45-.5.19,1.52,1.11,11.97-.09.1-1.11-12.01Z"/><path class="cls-86" d="m135.13,738.67s-.04-.11-.07-.32c-.04-.3-.08-.67-.08-.83-.01-1.68-.3-5.05-.73-8.6-.61-5.04-1.32-8.91-1.59-8.62s.02,4.63.64,9.67c.43,3.51.93,6.64,1.28,7.96.03.13.08.49.11.8.03.31.03.47,0,.34-.39-1.5-.96-5.04-1.45-9.02-.7-5.72-1.02-10.65-.72-10.97s1.1,4.07,1.8,9.78c.49,4.02.81,7.85.83,9.75,0,.04,0,.07,0,.07Z"/><path class="cls-86" d="m134.62,734.26s-.02-.04-.04-.15c-.04-.23-.09-.61-.11-.87-.07-1.14-.22-2.6-.4-4.12-.38-3.14-.83-5.55-.99-5.37s.01,2.88.4,6.03c.18,1.46.37,2.82.56,3.82.04.23.09.62.1.87s0,.26-.05.03c-.22-1.22-.46-2.87-.68-4.64-.46-3.82-.68-7.11-.48-7.33s.74,2.71,1.2,6.53c.22,1.85.4,3.63.49,5.01,0,.13,0,.2,0,.2Z"/><path class="cls-86" d="m133.8,728.46c.17,1.38.25,2.56.17,2.64s-.27-.97-.43-2.35-.25-2.56-.17-2.64.27.98.43,2.36Z"/><path class="cls-86" d="m134.19,734.14c.15,1.23.65,5.22.83,6.5s.22,1.29.26,1.24.04-.48-.07-1.46-.56-5-.77-6.68c-.19-1.52-.3-1.87-.37-1.79s-.06.67.12,2.18Z"/><line class="cls-2" x1="135.51" y1="712.22" x2="139.18" y2="742.49"/><path class="cls-86" d="m134.96,720.53l-.07-.91c-.06-.62-.04-.86.03-.55v.05c.08.3.18,1,.23,1.59l.91,10.19.23-.25s.19.71.39,2.64l-.59.66s-.14-.53-.24-1.28h0c-.09-.76-.13-1.4-.09-1.44l.15-.14-.69-7.83-.34-2.18c-.09-.56-.17-1.32-.19-1.75h0c-.02-.48.04-.38.14.21l.16,1Z"/><path class="cls-86" d="m135.47,723.84c.02.53.18,1.98.28,2.77.04.28.07.55.11.79.25,1.61,1.31,8.55,1.45,9.39.19,1.09.14-.24-.07-1.61l-.33-2.16.09-.1s0-.68-.09-1.43h0c-.09-.75-.2-1.32-.23-1.27l-.17.19s-.9-5.8-1.02-6.57Z"/><path class="cls-86" d="m136.42,735.07s.15,1.61.21,2.31-.04,1.08-.27-1.14l-.17-1.85s.02-.2.07-.08.16.76.16.76Z"/><polygon class="cls-50" points="59.01 365.35 61.89 364.27 53.1 293.09 50.15 293.83 59.01 365.35"/><g class="cls-100"><path class="cls-80" d="m53.16,304.81c-.31-2.55-.69-4.58-.84-4.54l-1.49.4c-.15.04-.01,2.14.3,4.7.32,2.55.69,4.59.84,4.55l1.49-.42c.15-.04.01-2.14-.3-4.68"/><path class="cls-10" d="m52.98,303.88c-.31-2.55-.69-4.58-.84-4.54l-1.49.39c-.15.04-.01,2.14.3,4.7.32,2.55.69,4.59.84,4.55l1.49-.42c.15-.04.01-2.14-.3-4.68Z"/></g><polygon class="cls-10" points="52.24 308.86 52.85 308.69 51.71 299.46 51.09 299.62 52.24 308.86"/><g class="cls-102"><path class="cls-78" d="m52.2,302.14s0-.2-.03-.43c-.03-.23-.06-.42-.08-.42s0,.2.03.43.06.42.08.42"/><path class="cls-78" d="m52.48,304.45s0-.2-.03-.43c-.03-.23-.06-.42-.08-.42s0,.2.03.43c.03.23.06.42.08.42"/><path class="cls-78" d="m52.77,306.76s0-.2-.03-.43-.06-.42-.08-.42,0,.2.03.43.06.42.08.42"/><path class="cls-78" d="m52.35,302.1s0-.2-.03-.43c-.03-.23-.06-.42-.08-.42s0,.2.03.43.06.42.08.42"/><path class="cls-78" d="m52.64,304.41s0-.2-.03-.43c-.03-.23-.06-.42-.08-.42s0,.2.03.43.06.42.08.42"/><path class="cls-78" d="m52.92,306.72s0-.2-.03-.43c-.03-.23-.06-.42-.08-.42s0,.2.03.43c.03.23.06.42.08.42"/><path class="cls-78" d="m52.5,302.06s0-.2-.03-.43-.06-.42-.08-.42,0,.2.03.43c.03.23.06.42.08.42"/><path class="cls-78" d="m52.79,304.37s0-.2-.03-.43-.06-.42-.08-.42,0,.2.03.43.06.42.08.42"/><path class="cls-78" d="m53.08,306.68s0-.2-.03-.43-.06-.42-.08-.42,0,.2.03.43c.03.23.06.42.08.42"/><path class="cls-78" d="m51.28,302.39s0-.2-.03-.43-.06-.42-.08-.42,0,.2.03.43c.03.23.06.42.08.42"/><path class="cls-78" d="m51.57,304.7s0-.2-.03-.43c-.03-.23-.06-.42-.08-.42s0,.2.03.43.06.42.08.42"/><path class="cls-78" d="m51.85,307.02s0-.2-.03-.43-.06-.42-.08-.42,0,.2.03.43.06.42.08.42"/><path class="cls-80" d="m61.68,355.6c-.31-2.52-.68-4.52-.82-4.47l-1.46.51c-.15.05,0,2.14.3,4.67.31,2.52.68,4.53.83,4.47l1.46-.54c.14-.05,0-2.14-.3-4.65"/><path class="cls-10" d="m61.51,354.68c-.31-2.52-.68-4.52-.82-4.47l-1.46.51c-.15.05,0,2.14.3,4.67.31,2.53.68,4.53.83,4.48l1.46-.53c.14-.05,0-2.14-.3-4.65Z"/><polygon class="cls-10" points="60.78 359.71 61.39 359.49 60.26 350.37 59.65 350.58 60.78 359.71"/><path class="cls-78" d="m59.54,353.44s0-.2-.03-.43-.06-.41-.08-.41,0,.2.03.43c.03.23.06.41.08.41"/><path class="cls-78" d="m59.82,355.73s0-.2-.03-.43-.06-.41-.08-.41,0,.2.03.43.06.41.08.41"/><path class="cls-78" d="m60.1,358.02s0-.2-.03-.43-.06-.41-.08-.41,0,.2.03.43.06.41.08.41"/><path class="cls-78" d="m59.69,353.38s0-.2-.03-.43-.06-.41-.08-.41,0,.2.03.43.06.41.08.41"/><path class="cls-78" d="m59.97,355.67s0-.2-.03-.43c-.03-.23-.06-.41-.08-.41s0,.2.03.43c.03.23.06.41.08.41"/><path class="cls-78" d="m60.26,357.96s0-.2-.03-.43-.06-.41-.08-.41,0,.2.03.43c.03.23.06.41.08.41"/><path class="cls-78" d="m59.84,353.33s0-.2-.03-.43-.06-.41-.08-.41,0,.2.03.43.06.41.08.41"/><path class="cls-78" d="m60.12,355.62s0-.2-.03-.43-.06-.41-.08-.41,0,.2.03.43.06.41.08.41"/><path class="cls-78" d="m60.41,357.9s0-.2-.03-.43-.06-.41-.08-.41,0,.2.03.43.06.41.08.41"/></g><path class="cls-86" d="m56.65,339.37h.04s.04.03.06.13c.02.1.04.26.07.47.02.14.03.26.04.36,0,.1,0,.16,0,.19h0s.03.1.05.19c.02.09.04.23.06.4.03.23.05.41.05.53,0,.13,0,.19-.01.2h-.04s-.31-2.46-.31-2.46Zm.15,1.1h.03s.02-.06.01-.14c0-.08-.02-.2-.04-.37s-.04-.28-.05-.36c-.02-.07-.03-.11-.04-.1h-.03s.12.96.12.96Zm.02.15l.13,1.07h.03s.02-.21-.03-.58c-.04-.34-.08-.51-.1-.5h-.03Zm.31,1.2s-.04-.07-.07-.24c-.03-.16-.06-.39-.1-.69s-.06-.53-.07-.71c-.01-.18-.01-.27,0-.28.01,0,.03.07.06.22.03.15.06.35.09.61l.02.14-.08.03c.03.25.06.45.08.58.02.13.04.19.05.19,0,0,.01-.01.01-.03,0-.02,0-.05,0-.1l.02.15s0,.08,0,.1,0,.03-.01.03Zm-.22-1.76s-.01.06,0,.18c0,.12.03.29.05.51l.07-.02c-.03-.21-.05-.38-.07-.5-.02-.12-.04-.18-.04-.17Zm.4,1.67l-.04-.29h0c0,.12.01.21.01.26,0,.05,0,.08-.01.08-.01,0-.02-.04-.04-.13-.02-.09-.04-.22-.06-.38-.02-.18-.04-.32-.04-.42,0-.1,0-.16.02-.17l.02-.02-.02-.12c-.02-.18-.04-.31-.06-.39-.02-.09-.03-.13-.04-.13,0,0-.01.05-.01.15l-.02-.14c0-.1,0-.15.02-.15s.03.05.05.15.04.27.07.49l.15,1.23h0Zm-.05-.11s.01-.06,0-.18c0-.11-.02-.27-.05-.47l-.02-.18-.02.02s-.02.06-.02.13c0,.07.01.18.03.32.01.12.03.2.04.27.01.06.02.09.03.09Zm-.02-1.64h-.03s.21,1.7.21,1.7h0s-.21-1.69-.21-1.69h-.02s-.01-.09-.01-.09v-.07s0-.14,0-.14c-.03-.23-.05-.39-.05-.5,0-.11,0-.16,0-.17,0,0,.01.01.02.04l.02.15s-.02-.04-.02-.04c0,0,0,.04,0,.12,0,.08.02.2.04.38l.02.17h.03s.02.14.02.14Zm.24,1.69h0s-.33-2.63-.33-2.63h0s.33,2.63.33,2.63Zm-.18-1.86l.15,1.19c.02.19.04.32.06.4.01.08.03.12.04.12.01,0,.02-.06,0-.18,0-.11-.03-.29-.06-.54l-.13-1.02h0s.23,1.84.23,1.84h0s-.03-.25-.03-.25h0c.02.19.02.29,0,.3-.02,0-.06-.21-.12-.66l-.15-1.2h0Zm.22.08h-.02s.21,1.7.21,1.7h0s-.21-1.69-.21-1.69h-.02s-.01-.09-.01-.09v-.07s0-.14,0-.14c-.03-.23-.05-.39-.05-.5,0-.11,0-.16,0-.17,0,0,.01.01.02.04l.02.15s-.02-.04-.02-.04c0,0,0,.04,0,.12,0,.08.02.2.04.38l.02.17h.02s.02.14.02.14Zm-.04-.5s-.01-.05-.03-.16-.02-.16-.01-.16c0,0,0,.01,0,.04,0,.03.01.07.02.12s.01.09.01.12c0,.03,0,.04,0,.05h0Zm.28,2.19h0s-.23-1.84-.23-1.84h0s.23,1.84.23,1.84Zm-.11-1.88v.12s0,.03,0,.03c.02.12.04.26.06.41.02.18.04.32.04.43,0,.11,0,.17,0,.17,0,0,0,0-.01,0,0,.04,0,.08,0,.13,0,.05,0,.1.02.15,0,.06.01.1.02.13,0,.03.01.04.02.04h.02s.03.03.04.11c.02.08.03.2.05.35.02.19.04.35.04.45,0,.11,0,.17-.02.17-.01,0-.03-.04-.05-.12-.02-.09-.04-.21-.06-.37-.02-.13-.03-.23-.03-.32,0-.09,0-.14,0-.18,0-.02-.01-.06-.02-.1,0-.04-.01-.09-.02-.15-.02-.12-.02-.23-.03-.33-.01-.04-.02-.11-.04-.2-.02-.09-.03-.2-.05-.32-.02-.18-.04-.33-.04-.45,0-.11,0-.17,0-.18,0,0,.01,0,.02.03h.03Zm.16,1.77s-.01.14.02.41.06.38.08.37c.03,0,.02-.17-.02-.48-.01-.11-.03-.19-.04-.24-.01-.05-.02-.07-.03-.07h-.02Zm-.17-1.17c.02.14.03.25.05.33.01.08.03.11.03.11,0,0,.01-.04,0-.12,0-.08-.02-.19-.03-.34-.02-.16-.04-.27-.05-.35-.01-.08-.03-.11-.03-.11s0,.05,0,.13.02.2.04.35Zm.33,1.21l-.15-1.19c-.02-.19-.04-.32-.06-.4-.01-.08-.03-.12-.04-.12-.01,0-.02.06,0,.18,0,.11.03.29.06.54l.13,1.02h0s-.33-2.63-.33-2.63h0s.1.84.1.84l.03.24h0c0-.11-.01-.19-.01-.25,0-.05,0-.08.01-.08.02,0,.06.21.12.66l.15,1.2h0Zm.06-.14s.01-.01.01-.03l.02.14s0,.04-.01.05c0,0-.02-.04-.04-.12-.02-.09-.03-.22-.06-.41l-.15-1.19h-.02s-.01-.09-.01-.09v-.08s-.04-.42-.04-.42h0s.06.44.06.44h.03s.02.14.02.14h-.03s.14,1.17.14,1.17c.02.14.03.24.04.31.01.07.02.1.03.1Zm.1.12s-.04-.07-.07-.24c-.03-.16-.06-.39-.1-.69-.04-.29-.06-.53-.07-.71-.01-.18-.01-.27,0-.28.01,0,.03.07.06.22.03.15.05.35.09.61l.02.14-.08.03c.03.25.06.44.08.58.02.13.04.19.05.19,0,0,.01-.01.01-.03,0-.02,0-.05,0-.1l.02.15s0,.08,0,.1,0,.03-.01.03Zm-.22-1.76s-.01.06,0,.18c0,.12.03.29.05.51l.07-.02c-.03-.21-.05-.38-.07-.5-.02-.12-.03-.18-.04-.17Zm.09-.19s.01,0,.02.02l.02.16s-.01-.03-.02-.02c0,0,0,.07,0,.21.01.14.03.3.05.51l.13,1.02h0s-.23-1.84-.23-1.84h0s.04.33.04.33h0c-.01-.14-.02-.23-.02-.29,0-.06,0-.09,0-.09Z"/><path class="cls-86" d="m57.53,345.99l-.18-1.22c-.01-.08-.03-.2-.05-.37h0s.01.13.01.13l.03.25.13,1.24h0s-.26-1.83-.26-1.83h.01s.15,1.06.15,1.06c.04.26.06.46.08.58h0c-.03-.27-.05-.44-.06-.53l-.12-1.13h0s.16,1.11.16,1.11c.04.26.06.44.07.52h0c0-.07-.03-.27-.07-.59l-.11-1.06h0s.2,1.85.2,1.85h-.01Z"/><path class="cls-86" d="m57.29,343.62c-.01-.11-.02-.16-.01-.16,0,0,0,.01,0,.04,0,.03.01.07.02.12s.01.09.01.12c0,.03,0,.04,0,.05,0,0-.01-.05-.03-.16Zm.3,2.35h0s-.23-1.84-.23-1.84h0s.23,1.84.23,1.84Z"/><path class="cls-86" d="m57.65,345.83s.01-.01.01-.03l.02.14s0,.04-.01.05c0,0-.02-.04-.04-.12-.02-.09-.03-.22-.06-.41l-.15-1.19h-.02s-.01-.09-.01-.09v-.08s-.04-.42-.04-.42h0s.06.44.06.44h.03s.02.14.02.14h-.03s.14,1.18.14,1.18c.02.14.03.25.04.31.01.07.02.1.03.1Z"/><path class="cls-86" d="m57.77,345.91l-.15-1.19c-.02-.19-.04-.32-.06-.4-.01-.08-.03-.12-.04-.12-.01,0-.02.06,0,.18,0,.11.03.29.06.54l.13,1.02h0s-.33-2.63-.33-2.63h0s.1.84.1.84l.03.24h0c0-.11-.01-.19-.01-.25,0-.05,0-.08.01-.08.02,0,.06.21.12.66l.15,1.2h0Z"/><path class="cls-86" d="m57.93,345.86l-.27-1.93h0c.05.4.08.66.1.79l.14,1.15h-.03s-.31-2.47-.31-2.47h.04s.27,1.87.27,1.87h0s-.2-1.91-.2-1.91h.04s.31,2.46.31,2.46h-.03s-.14-1.16-.14-1.16c0-.06-.01-.12-.02-.19,0-.07-.03-.26-.07-.58h0s.2,1.95.2,1.95h-.03Z"/><path class="cls-86" d="m58.11,345.83s-.04-.07-.07-.24c-.03-.16-.07-.4-.1-.71-.04-.32-.06-.56-.08-.74-.01-.18-.01-.27,0-.27s.04.07.06.22c.03.15.06.36.09.63l.03.25-.07.02c.02.15.04.26.05.34.01.08.03.12.03.12,0,0,.01-.02.01-.04s0-.07,0-.12l.05.4s0,.08,0,.11c0,.02,0,.04-.02.04Zm-.2-1.59s0,.04,0,.11c0,.07.02.17.03.3h.04c-.02-.14-.03-.24-.04-.31-.01-.07-.02-.1-.03-.1Z"/><path class="cls-86" d="m58.21,345.8s-.03-.08-.06-.25c-.03-.17-.06-.41-.1-.71s-.06-.55-.08-.73c-.01-.18-.01-.27,0-.27.01,0,.04.08.07.27h0c-.02-.14-.04-.27-.05-.38l-.07-.61h.03s.33,2.62.33,2.62h-.02s-.04-.24-.04-.24h0c.02.19.02.29,0,.29Zm-.04-.41s0-.04,0-.12c0-.08-.02-.21-.04-.39v-.06c-.03-.2-.05-.35-.07-.43-.01-.09-.03-.13-.03-.13,0,0,0,.05,0,.15,0,.1.02.24.05.43s.04.33.06.42c.02.09.03.14.03.13Z"/><path class="cls-86" d="m58,343.35c-.02-.17-.03-.25-.01-.26s.03.08.05.25c0,.08.02.14.02.19,0,.05,0,.07,0,.07-.01,0-.03-.08-.05-.25Zm.33,2.37h-.03s-.23-1.88-.23-1.88h.03s.23,1.88.23,1.88Z"/><path class="cls-86" d="m58.41,345.73s-.09-.31-.17-.95c-.04-.32-.07-.57-.08-.74-.01-.17,0-.26,0-.27.01,0,.03.03.05.12l.04.4s-.02-.06-.02-.08c0-.02-.01-.03-.02-.03-.02,0,0,.2.05.58.05.37.08.55.09.55,0,0,0-.02.01-.05s0-.07,0-.13l.05.44c0,.05,0,.09,0,.11s0,.03-.01.04Z"/><path class="cls-86" d="m58.53,345.65l-.04-.26h0c0,.11.01.19.01.23,0,.04,0,.07-.01.07-.01,0-.03-.05-.04-.15-.02-.1-.04-.25-.06-.44s-.04-.35-.04-.45c0-.1,0-.15.02-.17l.02-.02v-.08c-.03-.19-.05-.29-.06-.28,0,0-.01.05-.01.15l-.05-.35c0-.12,0-.18.02-.18s.03.05.05.15c.02.11.05.27.07.5l.16,1.26h-.02Zm-.12-.87h-.01s-.01.05,0,.1c0,.05,0,.13.02.23.02.15.03.22.04.21,0,0,0-.04,0-.11,0-.07-.01-.16-.03-.28l-.02-.16Z"/><path class="cls-86" d="m58.41,343.69s0,0,.01.01l.06.48s0-.02-.01-.01c0,0-.01.05,0,.13,0,.09.02.21.04.36l.12.96h-.03s-.23-1.88-.23-1.88h.02s.04.31.04.31h0c0-.11-.02-.19-.02-.26,0-.07,0-.1,0-.1Z"/><path class="cls-86" d="m58.73,345.62s-.04-.07-.07-.24c-.03-.16-.06-.4-.1-.71-.04-.32-.06-.56-.08-.74-.01-.18-.01-.27,0-.27s.04.07.06.22c.03.15.06.36.09.63l.03.25-.07.02c.02.15.04.26.05.34.01.08.03.12.03.12,0,0,.01-.02.01-.04s0-.07,0-.12l.05.4s0,.08,0,.11c0,.02,0,.04-.02.04Zm-.2-1.59s0,.04,0,.11c0,.07.02.17.03.3h.04c-.02-.14-.03-.24-.04-.31-.01-.07-.02-.1-.03-.1Z"/><polygon class="cls-78" points="54.38 323.04 56.12 322.51 55.05 313.84 53.3 314.34 54.38 323.04"/><path class="cls-86" d="m54.39,320.98l.02-.14-.54-4.34-.05-.11-.09-.73.28-.08.2,1.66-.05.02-.09-.72-.11.03.21,1.66.12-.04.12.93-.12.04.21,1.66.05.11.09.73-.14.04-.09-.73Z"/><path class="cls-86" d="m54.19,315.53s.09.14.15.44c.06.31.13.74.19,1.29.04.3.07.57.08.8.02.23.03.41.03.56.03.1.07.27.11.51.04.24.08.54.13.91l.04.31c.02.13.03.24.04.31.01.07.02.11.03.13v.02s.1.73.1.73h-.04s-.05-.08-.09-.29c-.04-.21-.07-.48-.12-.82l-.04-.34c-.04-.29-.07-.52-.1-.69-.03-.16-.05-.25-.07-.25l-.06.02.2,1.59.05.11.09.73-.14.04-.09-.73.02-.14-.54-4.33-.05-.11-.09-.73h.04s.12-.05.12-.05Zm.28,2.68h.05s.03-.1.02-.24c0-.15-.03-.36-.06-.63s-.07-.49-.09-.64c-.03-.16-.05-.24-.07-.23h-.05s.21,1.74.21,1.74Z"/><path class="cls-86" d="m55.02,318.79l-.12.04.21,1.72.11-.03-.09-.72.05-.02.2,1.65-.28.08-.09-.73.02-.14-.54-4.33-.05-.11-.09-.73h.04s.24-.08.24-.08l.2,1.65-.05.02-.09-.72-.11.03.19,1.52.12-.03.12.93Z"/><path class="cls-86" d="m55.33,318.7l-.12.03.21,1.72.11-.03-.09-.72.05-.02.2,1.65-.28.08-.09-.72.02-.14-.54-4.33-.05-.11-.09-.73h.04s.24-.08.24-.08l.2,1.65-.05.02-.09-.72-.11.03.19,1.52.12-.03.12.93Z"/><path class="cls-86" d="m54.93,330.16l.02-.14-.54-4.33-.05-.11-.09-.73.28-.09.2,1.65-.05.02-.09-.72-.11.04.21,1.66.12-.04.12.93-.12.04.21,1.66.05.11.09.73-.14.05-.09-.73Z"/><path class="cls-86" d="m55.32,330.79l-.09-.73.02-.14-.54-4.33-.05-.11-.09-.73h.04s.07-.03.07-.03h.04s.09.72.09.72l-.02.14.53,4.25.1-.03-.09-.76.05-.02.21,1.69-.26.08Z"/><path class="cls-86" d="m54.98,324.63l.09.73-.02.14.39,3.15c.05.4.09.69.13.89.04.19.07.29.09.28s.03-.11.02-.31c-.01-.2-.04-.5-.09-.9l-.39-3.15-.05-.11-.09-.73.14-.04.09.73-.02.14.39,3.15c.08.68.14,1.2.15,1.58.02.38,0,.57-.03.58s-.1-.16-.17-.52c-.07-.36-.15-.88-.23-1.55l-.39-3.15-.05-.11-.09-.73h.04s.07-.03.07-.03h.04Z"/><path class="cls-86" d="m55.84,326.36l-.05.02-.11-.83c-.01-.06-.03-.12-.05-.17-.02-.05-.03-.07-.05-.06-.02,0-.03.08-.02.22,0,.14.02.32.05.55.03.2.05.37.08.5.03.13.06.26.11.4.06.17.12.41.18.71.06.3.12.69.18,1.19.06.52.1.93.12,1.23.01.31,0,.46-.04.48-.03,0-.06-.06-.1-.2-.04-.14-.09-.35-.13-.61l-.16-1.26.05-.02.11.85c.02.1.04.18.06.24.02.06.04.09.05.08.02,0,.03-.08.02-.22,0-.14-.02-.32-.05-.55s-.06-.42-.08-.55-.06-.27-.1-.38c-.07-.19-.13-.43-.18-.71-.06-.28-.12-.66-.18-1.16s-.1-.89-.11-1.21c-.01-.32,0-.49.03-.51.03,0,.06.05.1.19s.08.32.13.55l.15,1.23Z"/><path class="cls-86" d="m55.72,325.16l-.09-.73.14-.04.09.73-.02.14.21,1.74.14-.04-.21-1.74-.05-.11-.09-.73h.04s.07-.03.07-.03h.04s.09.72.09.72l-.02.14.53,4.32.05.11.09.72-.14.05-.09-.72.02-.14-.2-1.65-.14.04.2,1.65.05.11.09.72-.14.05-.09-.72.02-.14-.53-4.32-.05-.11Z"/><path class="cls-86" d="m56.71,327.27c.11.88.18,1.62.23,2.2.04.58.04.88,0,.9s-.12-.26-.22-.83c-.1-.57-.2-1.29-.31-2.17v-.09c-.12-.88-.2-1.61-.24-2.2-.04-.59-.04-.89,0-.9s.12.26.22.83c.1.57.21,1.29.31,2.17v.09Zm-.08-.08c-.08-.62-.15-1.13-.21-1.51-.06-.38-.11-.57-.14-.56s-.03.21,0,.6c.03.39.09.9.17,1.53v.1c.09.63.16,1.14.22,1.53.06.38.11.57.14.56s.03-.21,0-.6c-.03-.39-.09-.9-.17-1.54v-.1Z"/><path class="cls-86" d="m56.66,324.11l.2,1.6-.05.02-.09-.67-.06.02.52,4.24.05.11.09.72-.14.05-.09-.72.02-.14-.52-4.24-.06.02.08.67-.05.02-.2-1.6.31-.09Z"/><line class="cls-8" x1="56.47" y1="334.98" x2="57.03" y2="334.8"/><g class="cls-101"><path class="cls-43" d="m57.64,349.96c-.24-1.29-.36-1.25-.27.1-.24-1.29-.36-1.25-.27.1.09,1.34.35,3.47.59,4.76l.86,4.66-.31-4.85c-.09-1.34-.35-3.47-.59-4.76"/><path class="cls-80" d="m58.9,358.28c-.12-.63-.18-.61-.13.05-.12-.63-.18-.61-.13.05.04.65.17,1.69.29,2.32l.42,2.27-.15-2.37c-.04-.65-.17-1.69-.29-2.32"/><path class="cls-80" d="m56.93,345.07c-.07-.4-.11-.39-.09.03-.07-.4-.11-.39-.09.03.03.42.11,1.09.18,1.49l.27,1.46-.1-1.52c-.03-.42-.11-1.09-.18-1.49"/><path class="cls-43" d="m52.97,296.79c-.18-1-.28-.98-.21.06-.19-1-.28-.98-.21.06.07,1.03.27,2.69.46,3.69l.67,3.63-.24-3.74c-.07-1.03-.27-2.69-.46-3.69"/><path class="cls-80" d="m53.69,299.21c-.12-.67-.19-.65-.14.04-.12-.67-.19-.65-.14.04.04.69.18,1.78.3,2.45l.44,2.41-.16-2.48c-.04-.69-.18-1.78-.3-2.45"/><path class="cls-43" d="m54.44,306.42c-.08-.42-.12-.4-.09.02-.08-.42-.12-.4-.09.02.03.43.11,1.11.19,1.53l.28,1.51-.1-1.55c-.03-.43-.11-1.11-.19-1.53"/></g><path class="cls-23" d="m140.68,734.26l-1.44,1.63c-.07.08-.27-1-.44-2.43l-2.21-18.25c-.17-1.43-.25-2.65-.18-2.73l.37-.4s.08.13.15.47l.21,1.06c.08.41.15.61.18.57l.83-.9c.07-.08.27,1.01.44,2.43l1.91,15.82c.17,1.42.25,2.64.18,2.72Z"/><path class="cls-84" d="m141.25,738.96l-1.44,1.64c-.07.08-.27-1-.44-2.42l-2.21-18.23c-.17-1.43-.25-2.65-.18-2.73l1.45-1.58c.07-.08.27,1.01.44,2.43l2.2,18.18c.17,1.42.25,2.63.18,2.72Z"/><path class="cls-54" d="m139.45,727.75c.42,3.48.62,6.46.44,6.66s-.67-2.46-1.09-5.94-.62-6.47-.44-6.67.67,2.47,1.09,5.95Z"/><path class="cls-63" d="m139.37,730.13h0s-.05-.2-.09-.48l-.52-4.29c-.03-.28-.05-.52-.04-.54h0s.05.2.09.48l.52,4.29c.03.28.05.52.04.54Z"/><path class="cls-63" d="m139.5,731.27h0c-.03-.17-.07-.49-.09-.72l-.17-2.31c-.02-.22,0-.26.03-.09h0c.03.17.07.49.09.72l.17,2.31c.02.22,0,.26-.03.09Z"/><path class="cls-63" d="m139.52,731.18h0c.02.22,0,.26-.03.09l-.34-1.78c-.03-.17-.07-.49-.09-.72h0c-.02-.22,0-.26.03-.09l.34,1.78c.03.17.07.49.09.72Z"/><path class="cls-86" d="m60.34,375.64l.07-.03.1.81h0c-.01-.15-.02-.28-.03-.4,0-.12-.01-.23-.02-.31,0-.09,0-.16,0-.21,0-.05.01-.08.03-.09.02,0,.05.06.09.21s.08.39.13.72c-.02-.31-.04-.55-.04-.73,0-.18,0-.27.03-.28.04-.01.08.13.14.42.06.29.13.79.22,1.5l.5,4.03-.07.03-.42-3.41c-.03-.23-.06-.45-.08-.64-.02-.19-.05-.36-.07-.49-.02-.14-.04-.24-.06-.31-.02-.07-.03-.11-.05-.1-.03,0-.03.15,0,.43.02.28.06.66.13,1.16l.42,3.42-.07.03-.46-3.75c-.05-.41-.09-.71-.13-.91-.03-.2-.06-.3-.08-.29,0,0-.01.04-.02.11,0,.07,0,.17.01.3,0,.13.02.29.04.48.02.19.04.41.07.65l.43,3.46-.07.03-.72-5.84Z"/><path class="cls-86" d="m61.36,378.64c.03.23.06.44.09.65.03.21.06.39.08.55.03.15.05.28.07.37.02.09.04.13.06.12.02,0,.03-.1.02-.26,0-.17-.03-.41-.06-.74l.07-.03c.04.32.06.6.08.85.02.25.04.46.04.64,0,.17,0,.31,0,.4,0,.09-.02.14-.04.15-.03.01-.06-.06-.1-.2-.04-.14-.08-.35-.13-.61-.05-.26-.1-.58-.15-.96-.05-.37-.11-.79-.16-1.24-.05-.41-.1-.81-.13-1.18-.04-.38-.07-.71-.09-.99-.02-.29-.03-.52-.03-.69,0-.17.01-.26.04-.27.03-.01.06.08.11.26.04.18.09.43.15.74.05.31.11.67.16,1.08.06.41.11.83.16,1.27l-.25.1Zm.07-.91c-.03-.2-.05-.4-.08-.58-.03-.19-.05-.35-.08-.48-.02-.14-.05-.25-.07-.33-.02-.08-.04-.12-.05-.12s-.02.05-.02.13c0,.08,0,.2.01.34,0,.14.02.31.04.5.02.19.04.39.07.61l.17-.07Z"/><path class="cls-86" d="m62.3,380.98l-.07.03-.1-.79h0c.03.34.05.59.05.74,0,.15-.01.24-.03.24-.03.01-.06-.06-.1-.21-.04-.15-.08-.37-.13-.64-.05-.27-.1-.6-.15-.97-.05-.38-.11-.78-.16-1.22-.07-.53-.12-.98-.16-1.37-.04-.39-.07-.71-.08-.96-.02-.25-.02-.44-.02-.57,0-.12.01-.19.03-.2.01,0,.02,0,.04.04.01.03.03.08.05.15.02.07.04.16.06.28.02.11.05.25.07.4h0s-.37-2.98-.37-2.98l.07-.03.99,8.05Zm-.61-2.75c.03.25.06.49.1.73.03.24.07.45.1.64.03.19.06.33.08.44s.05.16.06.15.02-.07.02-.2c0-.12-.01-.29-.03-.49-.02-.2-.04-.42-.06-.67-.03-.25-.06-.5-.09-.75-.08-.65-.15-1.15-.21-1.5-.06-.35-.11-.53-.13-.51-.02,0-.02.07-.02.2,0,.13.01.29.03.5.02.2.04.43.07.68.03.25.06.51.09.77Z"/><path class="cls-86" d="m61.39,372.9l.07-.03.15,1.22-.07.03-.15-1.22Zm.27,2.22l.07-.03.72,5.82-.07.03-.72-5.82Z"/><path class="cls-86" d="m62.28,376.92c-.05-.36-.09-.63-.13-.81s-.06-.26-.09-.26c0,0-.02.04-.02.1,0,.06,0,.17,0,.33s.03.37.06.65c.03.28.07.64.12,1.08.03.24.06.48.09.72.03.24.06.45.09.64.03.18.06.33.08.44.03.11.05.16.06.16.02,0,.02-.13.01-.37-.01-.24-.05-.57-.09-.99l.07-.03c.09.76.14,1.35.17,1.76.02.41.01.63-.03.64-.03.01-.06-.06-.1-.2-.04-.15-.08-.35-.13-.61-.05-.26-.1-.57-.15-.94-.05-.36-.11-.76-.16-1.19s-.1-.85-.14-1.23-.07-.72-.09-1.01c-.02-.29-.03-.52-.03-.68,0-.17.01-.26.04-.27.02,0,.04.03.07.11.03.08.06.2.09.37.03.17.07.38.11.64.04.26.08.57.13.93l-.07.03Z"/><path class="cls-86" d="m63.01,379.33c.02.16.03.27.05.34.01.07.02.1.03.1h0s0-.01,0-.03l.11.89s0,.03,0,.05,0,.04,0,.06c0,.02,0,.03,0,.04,0,0,0,.01,0,.02-.02,0-.03-.04-.06-.14-.02-.1-.05-.28-.09-.54.02.25.02.44.01.56,0,.12-.02.19-.04.19-.02,0-.03-.02-.06-.09s-.05-.17-.08-.3c-.03-.13-.06-.31-.09-.52-.03-.21-.07-.46-.1-.74-.04-.36-.08-.65-.1-.88s-.03-.41-.04-.54c0-.13,0-.23,0-.29,0-.06.02-.11.03-.15,0-.05.02-.09.03-.11,0-.02.02-.06.02-.11s0-.12,0-.22-.02-.24-.04-.43c-.02-.16-.04-.3-.06-.4-.02-.1-.03-.18-.05-.24-.01-.05-.03-.09-.04-.1-.01-.02-.02-.02-.03-.02-.02,0-.03.09-.02.25,0,.16.03.39.06.71l-.07.03c-.05-.38-.08-.69-.1-.94-.02-.25-.03-.45-.04-.61,0-.16,0-.27,0-.33.01-.07.02-.1.04-.11.02,0,.04.02.06.07.02.05.05.15.08.28.03.13.06.3.1.51.03.21.07.47.11.78l.37,2.99Zm-.27-1.59c0,.13,0,.21-.01.25-.01.03-.02.08-.03.14,0,.03,0,.06-.01.1,0,.04,0,.1,0,.18,0,.07.01.17.02.29.01.12.03.26.05.42.02.14.03.26.05.36.02.1.03.17.05.22.01.05.03.09.04.11.01.02.02.03.03.03,0,0,.01-.03.02-.07,0-.04,0-.11,0-.2,0-.09,0-.21-.02-.35-.01-.14-.03-.31-.05-.52l-.12-.96Z"/><path class="cls-86" d="m62.53,374.78l.07-.03.14,1.13h0c-.02-.16-.03-.31-.04-.47-.01-.15-.02-.29-.03-.42,0-.13,0-.23,0-.31,0-.08,0-.12.02-.13,0,0,.01,0,.02,0,0,0,0,.01.01.02l.15,1.24s-.01-.02-.02-.03c0,0-.01-.01-.02-.01-.01,0-.02.05-.02.14,0,.09,0,.22.02.39.01.17.03.38.06.63.03.25.06.54.1.86l.34,2.77-.07.03-.72-5.82Z"/><path class="cls-86" d="m63.21,377.91c.03.22.06.44.09.65.03.21.06.39.08.54.03.15.05.28.07.37.02.09.04.13.06.12.02,0,.03-.1.02-.26,0-.17-.03-.41-.06-.74l.07-.03c.04.32.06.6.08.85.02.25.04.46.04.64,0,.17,0,.31,0,.4,0,.09-.02.14-.04.15-.03.01-.06-.06-.1-.2-.04-.14-.08-.34-.13-.61-.05-.26-.1-.58-.15-.95s-.11-.78-.16-1.23c-.05-.41-.1-.81-.13-1.18-.04-.37-.07-.7-.09-.99s-.03-.52-.03-.69c0-.17.01-.26.04-.27.03-.01.06.08.11.26.04.18.09.43.15.74.05.31.11.67.16,1.07.06.41.11.83.16,1.26l-.24.1Zm.07-.91c-.03-.2-.05-.4-.08-.58-.03-.19-.05-.35-.08-.48-.02-.14-.05-.24-.07-.33-.02-.08-.04-.12-.05-.12s-.02.05-.02.13c0,.08,0,.2.01.34,0,.14.02.31.04.5.02.19.04.39.07.61l.17-.07Z"/><path class="cls-86" d="m61.4,389.43l.07-.03.1.79h0c-.03-.34-.05-.59-.05-.75s.01-.24.03-.25c.03-.01.06.06.1.21.04.15.08.37.13.64.05.28.1.6.15.97.05.37.11.77.16,1.2.05.39.09.77.13,1.14.04.37.07.7.09.99.02.29.04.52.04.7,0,.18,0,.27-.03.28-.01,0-.02,0-.04-.04-.01-.03-.03-.08-.05-.15-.02-.07-.04-.16-.06-.28-.02-.11-.05-.25-.07-.4h0s.36,2.91.36,2.91l-.07.03-.99-7.98Zm.62,2.81c-.03-.26-.07-.52-.1-.76-.03-.25-.07-.46-.1-.65-.03-.19-.06-.34-.09-.45-.03-.11-.05-.16-.06-.16-.03.01-.03.21,0,.59.03.38.08.89.16,1.51.04.29.07.56.11.81.04.25.07.46.1.64.03.18.06.32.08.42.02.1.04.15.06.14.02,0,.02-.07.02-.2s-.01-.29-.03-.48c-.02-.19-.04-.42-.06-.66-.03-.25-.06-.5-.09-.75Z"/><path class="cls-86" d="m62.64,393.68c.02.16.03.27.05.34.01.07.02.1.03.1h0s0-.01,0-.03l.11.89s0,.03,0,.05,0,.04,0,.06c0,.02,0,.03,0,.04,0,0,0,.01,0,.02-.02,0-.03-.04-.06-.14-.02-.1-.05-.28-.09-.54.02.25.02.44.01.56,0,.12-.02.19-.04.2-.02,0-.03-.02-.06-.09s-.05-.17-.08-.3c-.03-.13-.06-.31-.09-.52-.03-.21-.07-.46-.1-.75-.04-.36-.08-.66-.1-.88s-.03-.41-.04-.54c0-.13,0-.23,0-.29,0-.06.02-.11.03-.15,0-.05.02-.09.03-.11,0-.02.02-.06.02-.11,0-.05,0-.12,0-.22,0-.1-.02-.24-.04-.43-.02-.17-.04-.3-.06-.4s-.03-.18-.05-.24c-.01-.05-.03-.09-.04-.1-.01-.02-.02-.02-.03-.02-.02,0-.03.09-.02.25,0,.16.03.39.06.71l-.07.03c-.05-.38-.08-.69-.1-.94s-.03-.46-.04-.61c0-.16,0-.27,0-.34.01-.07.02-.11.04-.11.02,0,.04.02.06.07.02.05.05.15.08.28.03.13.06.3.1.51.03.21.07.47.11.78l.37,3Zm-.27-1.59c0,.13,0,.22-.01.25-.01.03-.02.08-.03.14,0,.03,0,.06-.01.11,0,.04,0,.1,0,.18,0,.07.01.17.02.29.01.12.03.26.05.42.02.14.03.26.05.36.02.1.03.17.05.22.01.05.03.09.04.11.01.02.02.03.03.02,0,0,.01-.03.02-.07s0-.11,0-.2,0-.21-.02-.35c-.01-.14-.03-.31-.06-.52l-.12-.96Z"/><path class="cls-86" d="m62.16,389.12l.07-.03.1.81h0c-.01-.15-.02-.28-.03-.4s-.01-.23-.02-.31c0-.09,0-.16,0-.21,0-.05.01-.08.03-.09.02,0,.05.06.09.21s.08.39.13.72c-.02-.31-.04-.55-.04-.73,0-.18,0-.27.03-.28.04-.01.08.12.14.42.06.29.13.79.22,1.5l.5,4.02-.07.03-.42-3.4c-.03-.23-.06-.44-.08-.64-.02-.19-.05-.36-.07-.49s-.04-.24-.06-.31c-.02-.07-.03-.1-.05-.1-.02.01-.03.15,0,.43.02.28.06.66.13,1.16l.42,3.41-.07.03-.46-3.74c-.05-.41-.09-.71-.13-.91s-.06-.3-.08-.29c0,0-.01.04-.01.11,0,.07,0,.17.01.3,0,.13.02.29.04.48.02.19.04.4.07.64l.43,3.46-.07.03-.72-5.82Z"/><path class="cls-86" d="m62.72,388.88l.07-.03.1.79h0c-.03-.34-.05-.59-.05-.74s.01-.24.03-.24c.03-.01.06.06.1.21.04.15.08.37.13.64.05.28.1.6.15.97.05.37.11.77.16,1.2.05.39.09.77.13,1.14.04.37.07.7.09.98.02.29.04.52.04.69,0,.18,0,.27-.03.28-.01,0-.02,0-.04-.04-.01-.03-.03-.08-.05-.15-.02-.07-.04-.16-.06-.27-.02-.11-.05-.25-.07-.4h0s.36,2.9.36,2.9l-.07.03-.99-7.97Zm.62,2.81c-.03-.26-.07-.52-.1-.76-.03-.25-.07-.46-.1-.65-.03-.19-.06-.34-.09-.45-.03-.11-.05-.16-.06-.16-.03.01-.03.21,0,.59.03.38.08.88.16,1.51.04.29.07.56.11.81.04.25.07.46.1.64.03.18.06.31.08.42.02.1.04.15.06.14.02,0,.02-.07.02-.2s-.01-.28-.03-.48c-.02-.19-.04-.41-.06-.66-.03-.25-.06-.49-.09-.75Z"/><path class="cls-86" d="m62.84,386.5l.07-.03.37,2.98h0c-.02-.27-.04-.49-.04-.68,0-.18,0-.28.03-.29.04-.02.09.14.15.46.06.32.13.81.22,1.47l.49,3.99-.07.03-.45-3.65c-.06-.46-.1-.79-.14-.99s-.06-.3-.09-.29c-.01,0-.02.05-.02.13,0,.08,0,.19.02.34.01.14.03.31.04.5.02.19.04.39.07.6l.42,3.43-.07.03-.99-8.03Z"/><path class="cls-86" d="m63.21,386.35l.07-.03.99,8.03-.07.03-.99-8.03Z"/><path class="cls-86" d="m64.1,391.72c.03.22.06.44.09.65.03.21.06.39.08.54.03.15.05.28.07.36s.04.13.06.12c.02,0,.03-.1.02-.26,0-.17-.03-.41-.06-.74l.07-.03c.04.32.06.6.08.85.02.25.04.46.04.64,0,.17,0,.31,0,.4,0,.09-.02.14-.04.15-.03.01-.06-.05-.1-.19s-.08-.34-.13-.61c-.05-.26-.1-.58-.15-.95-.05-.37-.11-.78-.16-1.23-.05-.41-.1-.81-.13-1.18s-.07-.7-.09-.99-.03-.52-.03-.69c0-.17.01-.26.04-.28.03-.01.06.08.11.26.04.18.09.43.15.74.05.31.11.67.16,1.07.06.41.11.83.16,1.26l-.24.1Zm.07-.91c-.03-.2-.05-.4-.08-.58-.03-.19-.05-.35-.08-.48-.02-.14-.05-.24-.07-.33-.02-.08-.04-.12-.05-.11s-.02.05-.02.13c0,.08,0,.2.01.34,0,.14.02.31.04.5.02.19.04.39.07.61l.17-.07Z"/><path class="cls-86" d="m63.96,388.37l.06-.02-.22-1.74.07-.03.22,1.74.07-.03.12.95-.07.03.38,3.1c.02.13.03.25.04.35.01.1.02.18.04.25.01.07.02.12.03.15,0,.03.02.05.03.04,0,0,.01,0,.01-.01s0-.02.01-.05l.12.99s-.01.04-.02.05c0,.02-.01.03-.02.03-.02,0-.04-.02-.06-.08-.02-.06-.04-.15-.06-.27-.02-.12-.05-.27-.07-.46-.03-.19-.05-.4-.08-.64l-.42-3.43-.06.02-.12-.96Z"/><path class="cls-86" d="m64.75,392.55l.09-.04.19,1.51-.09.04-.19-1.51Z"/><path class="cls-86" d="m64.39,388.19l.07-.03.1.79h0c-.03-.34-.05-.59-.05-.74s.01-.23.03-.24c.03-.01.06.06.1.21.04.15.08.37.13.64.05.28.1.6.15.97.05.37.11.77.16,1.2.05.39.09.77.13,1.14.04.37.07.7.09.98.02.29.04.52.04.69,0,.18,0,.27-.03.28-.01,0-.02,0-.04-.04-.01-.03-.03-.08-.05-.15-.02-.07-.04-.16-.06-.27-.02-.11-.05-.25-.07-.4h0s.36,2.89.36,2.89l-.07.03-.98-7.94Zm.61,2.8c-.03-.26-.07-.52-.1-.76-.03-.25-.07-.46-.1-.65-.03-.19-.06-.34-.09-.45-.03-.11-.05-.16-.06-.16-.03.01-.03.21,0,.59.03.38.08.88.16,1.5.04.29.07.56.11.81.04.25.07.46.1.64.03.18.06.31.08.41.02.1.04.15.06.14.02,0,.02-.07.02-.2s-.01-.28-.03-.48c-.02-.19-.04-.41-.06-.66-.03-.24-.06-.49-.09-.75Z"/><path class="cls-86" d="m65.81,393.69l-.07.03-.1-.78h0c.03.34.05.59.05.74,0,.15-.01.23-.03.24-.03.01-.06-.06-.1-.21-.04-.15-.08-.36-.13-.64-.05-.27-.1-.59-.15-.97-.05-.37-.11-.78-.16-1.21-.06-.52-.12-.98-.16-1.36-.04-.38-.07-.7-.08-.96s-.02-.44-.02-.56c0-.12.01-.19.03-.2.01,0,.02,0,.04.04.01.03.03.08.05.15.02.07.04.16.06.27.02.11.05.25.07.4h0s-.37-2.96-.37-2.96l.07-.03.99,8.01Zm-.61-2.73c.03.25.06.49.1.73.03.24.07.45.1.63.03.18.06.33.08.44.03.11.05.16.06.15s.02-.07.02-.2c0-.12-.01-.29-.03-.48-.02-.2-.04-.42-.06-.66-.03-.24-.06-.49-.09-.75-.08-.64-.15-1.14-.21-1.49-.06-.35-.11-.52-.13-.51-.02,0-.02.07-.02.2,0,.13.01.29.03.49.02.2.04.43.07.68.03.25.06.51.09.77Z"/><path class="cls-86" d="m65.14,387.88l.05-.02-.06-.48c-.05-.37-.08-.66-.1-.89-.02-.23-.04-.41-.04-.54,0-.13,0-.21,0-.26,0-.05.01-.07.03-.08.02,0,.04,0,.06.06l.12,1s-.01-.03-.02-.04c0,0-.01-.01-.02,0,0,0-.01.05-.01.13,0,.09.02.25.05.49l.07.59.06-.03.12.95-.06.03.6,4.84-.07.03-.6-4.84-.05.02-.12-.95Z"/><path class="cls-1" d="m58.04,349.16s.06.05.1.19c.04.14.08.33.12.57.04.24.09.51.13.82.04.31.09.63.13.96s.08.64.11.96c.03.32.06.6.07.84.02.25.02.45.02.6,0,.15-.02.24-.05.25l-.11.04.36,2.9-.1.04-1-8.08.21-.07Zm.44,3.81s.02-.02.03-.06c0-.03,0-.1,0-.19,0-.09-.01-.21-.03-.37-.01-.16-.04-.37-.07-.62s-.06-.46-.08-.62c-.02-.16-.05-.28-.07-.36-.02-.08-.04-.14-.05-.17-.01-.03-.03-.04-.04-.03l-.08.03.3,2.42.08-.03Z"/><path class="cls-1" d="m58.49,349.01s.07.06.11.22c.05.16.1.4.16.72.06.33.13.73.2,1.23.07.49.15,1.08.23,1.75.07.59.14,1.13.19,1.63.05.5.09.93.12,1.3.03.37.04.66.04.88,0,.22-.02.33-.05.34l-.2.07-1-8.07.2-.07Zm.81,6.58s.02-.05.03-.14c0-.09,0-.23-.01-.43-.01-.2-.04-.45-.07-.76-.03-.31-.08-.69-.13-1.13-.05-.41-.1-.77-.14-1.1-.05-.33-.09-.6-.13-.83-.04-.23-.08-.4-.11-.52-.03-.12-.06-.17-.09-.16l-.07.03.63,5.09.09-.03Z"/><path class="cls-1" d="m59.12,348.79l.18,1.49-.22.08.23,1.86.19-.07.17,1.38-.19.07.41,3.33-.1.04-1-8.07.33-.11Z"/><path class="cls-86" d="m79.12,234.36h.04c.03.32.07.72.11,1.07l-.21.04s-.02-.08-.03-.18l-.5-4.13c-.01-.1-.02-.18-.01-.18l.24-.04c.01.15.02.29.03.43.1,1.39.12,1.66.13,1.77.02.26.06.58.1.83.04.25.07.4.09.39h0s0,0,0,0Z"/><path class="cls-86" d="m79.13,231.06l.5,4.12c.01.1.02.18.01.18l-.24.04c-.01-.18-.03-.37-.04-.57-.06-.75-.12-1.6-.13-1.68-.02-.23-.05-.51-.09-.76-.07-.47-.11-.47-.12-.47h-.04s-.1-1.01-.1-1.01l.21-.03s.02.08.03.18Z"/><path class="cls-86" d="m79.17,232.79c0,.12.12,1.59.2,2.62.03.42.06.76.07.93.02.3.03.42.02.42,0,0-.02-.09-.03-.23-.01-.12-.06-.59-.12-1.11-.08-.78-.17-1.66-.17-1.66,0,0-.03,0-.06,0-.01,0-.03,0-.03.01h0s-.04-.19-.06-.36c0-.11-.11-1.42-.19-2.5-.04-.48-.07-.91-.09-1.17,0-.11,0-.16,0-.17,0,0,.02.09.04.26.01.12.06.57.11,1.06.08.75.16,1.6.16,1.6h.09s.05.1.06.27Z"/><path class="cls-25" d="m79.38,236.46l-.2.03s-.12-.47-.19-1.06l-.53-4.41c-.07-.59-.1-1.07-.07-1.08l.28-.04.05.59-.26.04s0,.22.03.49l.53,4.41c.03.27.07.49.09.48l.21-.04.06.58Z"/><path class="cls-25" d="m79.78,236.39l-.28.05-.05-.59.26-.04s0-.22-.03-.49l-.53-4.41c-.03-.27-.07-.49-.09-.48l-.22.03-.06-.58.21-.03s.12.47.19,1.06l.53,4.41c.07.59.1,1.07.07,1.08Z"/><path class="cls-25" d="m79.62,234.25h0s-.28-2.34-.28-2.34h0s.13.5.2,1.13v.05c.08.63.12,1.15.08,1.15Z"/></g></g></svg>