<?xml version="1.0" encoding="UTF-8"?><svg id="Layer_1" xmlns="http://www.w3.org/2000/svg" viewBox="0 0 800 1080"><defs><style>.cls-1{letter-spacing:-.03em;}.cls-2{fill:#b5b5b4;}.cls-3{fill:#a19792;}.cls-4{fill:#181616;}.cls-5{fill:#1b363b;}.cls-6{fill:#a3a29d;}.cls-7{fill:#898886;}.cls-8,.cls-9{fill:#474747;}.cls-10{letter-spacing:0em;}.cls-9{font-family:SFPro-Bold, 'SF Pro';font-size:26.61px;font-variation-settings:'opsz' 28, 'wght' 700;font-weight:700;}.cls-11{fill-rule:evenodd;}</style></defs><path class="cls-11" d="m56.77,186.1v40.82c0,.86-.35,1.7-.97,2.32-.61.61-1.44.96-2.32.96s-1.7-.35-2.32-.96c-.48-.49-.79-1.1-.84-1.78l-.11-.54v-40.82c0-.73.24-1.43.73-1.97l.22-.35c.62-.62,1.45-.97,2.32-.97s1.71.35,2.32.97c.62.61.97,1.44.97,2.32Z"/><path class="cls-11" d="m56.77,131.89v40.82c0,.86-.35,1.7-.97,2.32-.61.61-1.44.96-2.32.96s-1.7-.35-2.32-.96c-.48-.49-.79-1.1-.84-1.78l-.11-.54v-40.82c0-.73.24-1.43.73-1.97l.22-.35c.62-.62,1.45-.97,2.32-.97s1.71.35,2.32.97c.62.61.97,1.44.97,2.32Z"/><path class="cls-11" d="m165.85,62.5h-60.41c-.86,0-1.7-.35-2.32-.97-.61-.61-.96-1.44-.96-2.32s.35-1.7.96-2.32c.49-.48,1.1-.79,1.78-.84l.54-.11h60.41c.73,0,1.43.24,1.97.73l.35.22c.62.62.97,1.45.97,2.32,0,.87-.35,1.71-.97,2.32-.61.62-1.44.97-2.32.97Z"/><rect class="cls-6" x="53.72" y="60.04" width="693.68" height="962.94" rx="49.32" ry="49.32" transform="translate(801.11 1083.02) rotate(-180)"/><rect x="58.24" y="66.31" width="684.64" height="950.39" rx="48.68" ry="48.68" transform="translate(801.11 1083.02) rotate(-180)"/><circle class="cls-4" cx="117.56" cy="132.05" r="20.56"/><path class="cls-5" d="m117.56,139.11c-3.89,0-7.06-3.17-7.06-7.06s3.17-7.06,7.06-7.06,7.06,3.17,7.06,7.06-3.17,7.06-7.06,7.06Z"/><path class="cls-3" d="m118.08,108.16c-13.31,0-24.14,10.83-24.14,24.14s10.83,24.14,24.14,24.14,24.14-10.83,24.14-24.14-10.83-24.14-24.14-24.14Zm0,43.31c-10.59,0-19.17-8.58-19.17-19.17s8.58-19.17,19.17-19.17,19.17,8.58,19.17,19.17-8.58,19.17-19.17,19.17Z"/><path class="cls-2" d="m118.08,106.54c-13.31,0-24.14,10.83-24.14,24.14s10.83,24.14,24.14,24.14,24.14-10.83,24.14-24.14-10.83-24.14-24.14-24.14Zm0,43.31c-10.59,0-19.17-8.58-19.17-19.17s8.58-19.17,19.17-19.17,19.17,8.58,19.17,19.17-8.58,19.17-19.17,19.17Z"/><path class="cls-7" d="m118.08,107.65c-13.31,0-24.14,10.83-24.14,24.14s10.83,24.14,24.14,24.14,24.14-10.83,24.14-24.14-10.83-24.14-24.14-24.14Zm0,43.31c-10.59,0-19.17-8.58-19.17-19.17s8.58-19.17,19.17-19.17,19.17,8.58,19.17,19.17-8.58,19.17-19.17,19.17Z"/><path class="cls-8" d="m122.71,188.89c0,2.85-2.31,5.15-5.15,5.15s-5.15-2.31-5.15-5.15,2.31-5.15,5.15-5.15,5.15,2.31,5.15,5.15Z"/><path id="path5" class="cls-8" d="m434.53,510.13c-.18-11.08,4.54-19.7,14.13-25.87-5.41-7.99-13.39-12.48-23.94-13.48-3.75-.36-8.55.54-14.39,2.72-6.29,2.36-9.82,3.53-10.61,3.53-1.66,0-4.84-.99-9.56-3-4.71-1.99-8.72-2.99-12.04-2.99-5.58.08-10.77,1.65-15.57,4.69-4.8,3.04-8.63,7.2-11.51,12.46-3.67,6.54-5.5,14.35-5.5,23.41,0,8.17,1.35,16.34,4.05,24.51,2.53,7.8,5.76,14.66,9.68,20.55,3.49,5.36,6.55,9.26,9.16,11.72,3.75,3.8,7.58,5.63,11.52,5.44,2.53-.09,5.83-1.04,9.94-2.86,3.84-1.73,7.68-2.57,11.51-2.57,3.58,0,7.29.86,11.12,2.57,4.27,1.82,7.77,2.72,10.46,2.72,4.01-.18,7.77-1.95,11.25-5.3,1.22-1.1,2.55-2.59,3.99-4.5,1.44-1.9,3.03-4.18,4.78-6.81,1.22-1.91,2.42-3.94,3.6-6.12,1.18-2.19,2.24-4.49,3.21-6.95.43-1,.82-2.02,1.17-3.06.35-1.04.7-2.11,1.05-3.2-3.23-1.45-6.15-3.49-8.76-6.13-5.75-5.82-8.67-12.99-8.76-21.52h0Z"/><path id="path9" class="cls-8" d="m418.04,459.75c4.63-5.89,6.94-12.25,6.94-19.06v-1.36c0-.45-.05-.91-.13-1.36-3.24.18-6.65,1.23-10.28,3.12-3.62,1.91-6.61,4.32-8.96,7.22-4.71,5.72-7.07,11.85-7.07,18.38v1.29c0,.41.05.84.13,1.29,7.24.74,13.7-2.44,19.36-9.52Z"/><text class="cls-9" transform="translate(372.64 917.11)"><tspan x="0" y="0">i</tspan><tspan class="cls-1" x="6.4" y="0">P</tspan><tspan class="cls-10" x="21.93" y="0">ad</tspan></text></svg>