<?xml version="1.0" encoding="UTF-8"?><svg id="Layer_1" xmlns="http://www.w3.org/2000/svg" viewBox="0 0 800 1080"><defs><style>.cls-1{fill:none;stroke:#a3a29d;stroke-miterlimit:10;stroke-width:.8px;}.cls-2{opacity:.38;}.cls-2,.cls-3,.cls-4,.cls-5,.cls-6,.cls-7{stroke-width:0px;}.cls-2,.cls-6{fill:#fff;}.cls-4{fill:#a3a29d;}.cls-5{fill:#3c3c3c;}.cls-7{fill-rule:evenodd;}</style></defs><path class="cls-7" d="m745.92,183.62v40.82c0,.86.35,1.7.97,2.32.61.61,1.44.96,2.32.96s1.7-.35,2.32-.96c.48-.49.79-1.1.84-1.78l.11-.54v-40.82c0-.73-.24-1.43-.73-1.97l-.22-.35c-.62-.62-1.45-.97-2.32-.97s-1.71.35-2.32.97c-.62.61-.97,1.44-.97,2.32Z"/><path class="cls-7" d="m745.92,129.41v40.82c0,.86.35,1.7.97,2.32.61.61,1.44.96,2.32.96s1.7-.35,2.32-.96c.48-.49.79-1.1.84-1.78l.11-.54v-40.82c0-.73-.24-1.43-.73-1.97l-.22-.35c-.62-.62-1.45-.97-2.32-.97s-1.71.35-2.32.97c-.62.61-.97,1.44-.97,2.32Z"/><path class="cls-7" d="m636.84,60.03h60.41c.86,0,1.7-.35,2.32-.97.61-.61.96-1.44.96-2.32,0-.86-.35-1.7-.96-2.32-.49-.48-1.1-.79-1.78-.84l-.54-.11h-60.41c-.73,0-1.43.24-1.97.73l-.35.22c-.62.62-.97,1.45-.97,2.32,0,.87.35,1.71.97,2.32.61.62,1.44.97,2.32.97Z"/><rect class="cls-4" x="55.29" y="57.57" width="693.68" height="962.94" rx="49.32" ry="49.32"/><rect class="cls-3" x="59.81" y="63.84" width="684.64" height="950.39" rx="48.68" ry="48.68"/><rect class="cls-5" x="96.51" y="97.69" width="612.51" height="881" rx="12.64" ry="12.64"/><path class="cls-6" d="m300.61,970.69c0-.34.07-.68.2-.99s.32-.6.56-.84.52-.43.84-.56c.32-.13.65-.2.99-.2h199.52c.34,0,.68.07.99.2.32.13.6.32.84.56.24.24.43.52.56.84s.2.65.2.99c0,.34-.07.68-.2.99s-.32.6-.56.84c-.24.24-.52.43-.84.56-.32.13-.65.2-.99.2h-199.52c-.34,0-.68-.07-.99-.2-.32-.13-.6-.32-.84-.56s-.43-.52-.56-.84-.2-.65-.2-.99Z"/><polygon class="cls-6" points="337.56 178.61 338.72 178.61 338.72 170.91 338.77 170.91 341.95 178.61 343 178.61 346.18 170.91 346.22 170.91 346.22 178.61 347.38 178.61 347.38 168.65 345.94 168.65 342.49 177.04 342.45 177.04 339 168.65 337.56 168.65 337.56 178.61"/><path class="cls-6" d="m352.33,177.68c-1.27,0-2.11-.97-2.11-2.66h0c0-1.69.84-2.66,2.09-2.66s2.1.97,2.1,2.65h0c0,1.7-.82,2.68-2.08,2.68Zm0,1.06c1.98,0,3.32-1.44,3.32-3.73h0c0-2.31-1.35-3.73-3.33-3.73s-3.32,1.43-3.32,3.71h0c0,2.3,1.33,3.74,3.33,3.74Z"/><path class="cls-6" d="m357.08,178.61h1.2v-4.22c0-1.22.74-2.03,1.87-2.03s1.65.64,1.65,1.81v4.45h1.2v-4.66c0-1.64-.91-2.66-2.48-2.66-1.09,0-1.82.49-2.21,1.16h-.03v-1.02h-1.2v7.18Z"/><path class="cls-6" d="m367.68,177.68c-1.27,0-2.06-1.01-2.06-2.66h0c0-1.64.79-2.66,2.06-2.66s2.08,1.06,2.08,2.66h0c0,1.62-.86,2.67-2.08,2.67Zm-.23,1.06c1.03,0,1.83-.52,2.28-1.35h.03v1.21h1.2v-9.96h-1.2v3.98h-.03c-.45-.83-1.28-1.34-2.3-1.34-1.8,0-3.03,1.46-3.03,3.72h0c0,2.27,1.21,3.73,3.05,3.73Z"/><path class="cls-6" d="m373.74,176.58h0c0-.68.55-1.11,1.51-1.17l1.92-.12v.59c0,1.04-.87,1.82-2,1.82-.86,0-1.43-.43-1.43-1.13Zm1.16,2.17c.96,0,1.82-.52,2.24-1.3h.03v1.17h1.2v-4.96c0-1.44-1.06-2.35-2.76-2.35s-2.72.95-2.82,2.13v.08s1.15,0,1.15,0v-.06c.15-.64.73-1.08,1.66-1.08,1,0,1.57.53,1.57,1.41v.6l-2.06.12c-1.65.1-2.6.86-2.6,2.08h0c0,1.32.96,2.18,2.39,2.18Z"/><path class="cls-6" d="m380.81,181.02c1.3,0,1.93-.59,2.44-1.97l2.8-7.63h-1.26l-1.99,5.98h-.03l-1.98-5.98h-1.28l2.66,7.19-.14.41c-.29.81-.71,1.01-1.47,1.01-.14,0-.28-.02-.39-.04v.98c.15.03.41.06.64.06Z"/><polygon class="cls-6" points="385.7 180.56 386.56 180.56 387.57 177.19 386.31 177.19 385.7 180.56"/><path class="cls-6" d="m393.31,177.49v-7.72h2.02c2.26,0,3.51,1.37,3.51,3.86h0c0,2.48-1.26,3.87-3.51,3.87h-2.02Zm-1.24,1.12h3.35c2.96,0,4.7-1.84,4.7-4.98h0c0-3.14-1.75-4.98-4.7-4.98h-3.35v9.96Z"/><path class="cls-6" d="m404.57,172.36c1.05,0,1.82.66,1.94,2.05h-3.93c.13-1.34.95-2.05,1.99-2.05Zm.08,6.39c1.57,0,2.74-.94,2.97-2.13v-.07s-1.17,0-1.17,0l-.02.06c-.21.61-.85,1.07-1.76,1.07-1.28,0-2.09-.86-2.12-2.34h5.17v-.44c0-2.15-1.19-3.61-3.15-3.61s-3.23,1.53-3.23,3.75h0c0,2.26,1.24,3.71,3.31,3.71Z"/><path class="cls-6" d="m412.14,178.75c1.62,0,2.8-1.06,3-2.42v-.05s-1.17,0-1.17,0v.06c-.21.8-.84,1.35-1.82,1.35-1.24,0-2.1-.99-2.1-2.66h0c0-1.64.84-2.67,2.08-2.67,1.06,0,1.64.64,1.82,1.35v.06h1.19v-.06c-.16-1.23-1.21-2.42-3-2.42-1.99,0-3.31,1.45-3.31,3.71h0c0,2.29,1.29,3.74,3.33,3.74Z"/><path class="cls-6" d="m419.35,172.36c1.05,0,1.82.66,1.94,2.05h-3.93c.13-1.34.95-2.05,1.99-2.05Zm.08,6.39c1.57,0,2.74-.94,2.97-2.13v-.07s-1.17,0-1.17,0l-.02.06c-.21.61-.85,1.07-1.76,1.07-1.28,0-2.09-.86-2.12-2.34h5.17v-.44c0-2.15-1.19-3.61-3.15-3.61s-3.23,1.53-3.23,3.75h0c0,2.26,1.24,3.71,3.31,3.71Z"/><path class="cls-6" d="m423.94,178.61h1.2v-4.5c0-1,.69-1.75,1.64-1.75.89,0,1.47.57,1.47,1.44v4.81h1.2v-4.56c0-.98.67-1.69,1.62-1.69s1.49.59,1.49,1.57v4.68h1.2v-4.96c0-1.43-.92-2.36-2.34-2.36-1.01,0-1.85.52-2.25,1.38h-.03c-.31-.88-1.04-1.38-2.02-1.38-.92,0-1.64.48-1.97,1.19h-.03v-1.05h-1.2v7.18Z"/><path class="cls-6" d="m438.85,177.68c-1.21,0-2.08-1.06-2.08-2.66h0c0-1.61.87-2.66,2.08-2.66,1.27,0,2.06,1.02,2.06,2.66h0c0,1.66-.79,2.67-2.06,2.67Zm.23,1.06c1.84,0,3.05-1.46,3.05-3.73h0c0-2.27-1.23-3.73-3.03-3.73-1.01,0-1.85.51-2.3,1.34h-.03v-3.98h-1.2v9.96h1.2v-1.21h.03c.45.84,1.25,1.35,2.28,1.35Z"/><path class="cls-6" d="m446.44,172.36c1.05,0,1.82.66,1.94,2.05h-3.93c.13-1.34.95-2.05,1.99-2.05Zm.08,6.39c1.57,0,2.74-.94,2.97-2.13v-.07s-1.17,0-1.17,0l-.02.06c-.21.61-.85,1.07-1.76,1.07-1.28,0-2.09-.86-2.12-2.34h5.17v-.44c0-2.15-1.19-3.61-3.15-3.61s-3.23,1.53-3.23,3.75h0c0,2.26,1.24,3.71,3.31,3.71Z"/><path class="cls-6" d="m451.04,178.61h1.2v-4.43c0-1.09.61-1.74,1.54-1.74.29,0,.55.03.64.07v-1.17c-.1-.01-.28-.05-.48-.05-.81,0-1.43.52-1.67,1.35h-.03v-1.21h-1.2v7.18Z"/><polygon class="cls-6" points="461.31 178.61 462.51 178.61 462.51 168.65 461.29 168.65 458.64 170.55 458.64 171.8 461.28 169.97 461.31 169.97 461.31 178.61"/><polygon class="cls-6" points="467.8 178.61 469 178.61 469 168.65 467.79 168.65 465.14 170.55 465.14 171.8 467.77 169.97 467.8 169.97 467.8 178.61"/><path class="cls-6" d="m404.17,131.92h-3.67v-2.23c0-1.55,1.26-2.81,2.81-2.81h.12c1.55,0,2.81,1.26,2.81,2.81v2.23h-2.08Zm3.67,0h0v-2.23c0-2.43-1.97-4.4-4.4-4.4h-.12c-2.43,0-4.4,1.97-4.4,4.4v2.23h0c-.68.15-1.16.74-1.16,1.44v6.73c0,.81.66,1.47,1.47,1.47h8.32c.81,0,1.47-.66,1.47-1.47v-6.73c0-.69-.48-1.29-1.16-1.44Z"/><path class="cls-6" d="m361.61,198.5c2.67,1.09,5.02,2.76,7.05,5.01,2.03,2.25,3.63,5.11,4.78,8.59,1.15,3.48,1.73,7.62,1.73,12.42v.08c0,6.02-.89,11.19-2.67,15.51s-4.34,7.64-7.66,9.94c-3.32,2.3-7.31,3.45-11.96,3.45-3.36,0-6.4-.61-9.12-1.82-2.72-1.21-4.97-2.88-6.75-4.99-1.78-2.11-2.96-4.54-3.55-7.3l-.08-.42h9.67l.15.34c.51,1.24,1.2,2.33,2.09,3.26.88.94,1.97,1.66,3.26,2.18,1.29.52,2.74.78,4.36.78,2.96,0,5.35-.85,7.19-2.56,1.83-1.71,3.21-3.98,4.13-6.83.92-2.84,1.43-5.99,1.54-9.42.02-.33.04-.66.06-.99.01-.33.02-.66.02-.99l-1.71-9.06c0-2.02-.48-3.85-1.44-5.48-.96-1.63-2.27-2.93-3.93-3.89-1.66-.96-3.51-1.44-5.56-1.44s-3.87.47-5.54,1.42c-1.67.95-2.99,2.23-3.96,3.83-.97,1.61-1.46,3.39-1.46,5.37v.08c0,2.07.47,3.91,1.4,5.52.94,1.61,2.22,2.86,3.87,3.77,1.64.91,3.5,1.37,5.57,1.37s3.98-.45,5.65-1.35c1.67-.9,2.98-2.14,3.94-3.72.96-1.58,1.44-3.39,1.44-5.44v-.04h2.31v9.29h-.8c-.73,1.67-1.81,3.16-3.22,4.48-1.42,1.31-3.12,2.36-5.12,3.15-2,.78-4.24,1.18-6.71,1.18-3.51,0-6.62-.77-9.33-2.31-2.71-1.54-4.82-3.67-6.35-6.37-1.53-2.71-2.29-5.76-2.29-9.18v-.08c0-3.69.89-6.96,2.67-9.8s4.21-5.08,7.28-6.71c3.07-1.63,6.58-2.45,10.52-2.45,3.01,0,5.85.54,8.51,1.63Z"/><path class="cls-6" d="m383.47,223.7c-1.06-1.05-1.59-2.34-1.59-3.89s.53-2.84,1.59-3.89c1.06-1.05,2.36-1.57,3.91-1.57s2.81.52,3.87,1.57c1.06,1.05,1.59,2.35,1.59,3.89s-.53,2.84-1.59,3.89c-1.06,1.05-2.35,1.57-3.87,1.57s-2.84-.52-3.91-1.57Zm0,27.85c-1.06-1.06-1.59-2.35-1.59-3.87s.53-2.84,1.59-3.91c1.06-1.06,2.36-1.59,3.91-1.59s2.81.53,3.87,1.59c1.06,1.06,1.59,2.36,1.59,3.91s-.53,2.81-1.59,3.87c-1.06,1.06-2.35,1.59-3.87,1.59s-2.84-.53-3.91-1.59Z"/><path class="cls-6" d="m423.37,242h-27.3v-8.31c1.52-2.38,3.03-4.77,4.55-7.17,1.52-2.4,3.03-4.8,4.55-7.19s3.03-4.78,4.53-7.17c1.5-2.39,3.01-4.78,4.53-7.17,1.52-2.39,3.03-4.78,4.55-7.19h13.92v36.22h7.4v7.96h-7.4v10.54h-9.33v-10.54Zm.15-7.77v-29.01h-.23c-1.24,1.92-2.47,3.84-3.7,5.75-1.23,1.91-2.45,3.82-3.68,5.75-1.23,1.92-2.46,3.84-3.7,5.76-1.24,1.92-2.47,3.84-3.7,5.75-1.23,1.91-2.45,3.82-3.66,5.75v.27h18.66Z"/><path class="cls-6" d="m459.97,207.11h-.23l-14.15,9.71v-8.95l14.3-10.05h9.67v54.72h-9.59v-45.43Z"/><path class="cls-6" d="m112.75,117.34c-1.59,0-2.57-1.29-2.57-3.26h0c0-2,1-3.27,2.57-3.27s2.56,1.27,2.56,3.26h0c0,2-.99,3.28-2.56,3.28Zm0,1.36c2.57,0,4.17-1.79,4.17-4.62h0c0-2.85-1.6-4.63-4.17-4.63s-4.17,1.78-4.17,4.62h0c0,2.85,1.59,4.64,4.17,4.64h0Z"/><path class="cls-6" d="m121.54,117.31c-1.04,0-1.68-.83-1.68-2.16h0c0-1.35.64-2.17,1.68-2.17s1.67.82,1.67,2.16h0c0,1.35-.63,2.17-1.67,2.17Zm-3.18,3.39h1.52v-3.28h.1c.35.72,1.11,1.18,2.03,1.18,1.69,0,2.75-1.31,2.75-3.44h0c0-2.13-1.07-3.46-2.75-3.46-.93,0-1.66.43-2.03,1.15h-.1v-1.04h-1.52v8.9Z"/><path class="cls-6" d="m128.62,118.62c1.64,0,2.84-.85,2.84-2.12h0c0-.99-.62-1.54-1.93-1.84l-1.09-.24c-.72-.17-1-.4-1-.79h0c0-.51.49-.83,1.17-.83.72,0,1.15.34,1.27.77v.02h1.44c-.1-1.09-1.07-1.9-2.7-1.9s-2.68.83-2.68,2.04h0c0,.99.61,1.59,1.88,1.87l1.09.24c.73.17,1.03.43,1.03.81h0c0,.52-.53.86-1.29.86s-1.2-.33-1.36-.78h-1.51c.13,1.14,1.15,1.92,2.85,1.92h0Z"/><path class="cls-6" d="m135.39,118.52c.29,0,.58-.03.79-.07v-1.18c-.18.02-.3.03-.52.03-.63,0-.9-.28-.9-.95v-3.37h1.41v-1.18h-1.41v-1.64h-1.54v1.64h-1.04v1.18h1.04v3.73c0,1.29.63,1.8,2.16,1.8h0Z"/><path class="cls-6" d="m137.49,118.48h1.52v-3.88c0-.95.67-1.56,1.68-1.56.26,0,.52.03.76.08v-1.36c-.15-.04-.38-.08-.62-.08-.88,0-1.49.43-1.72,1.14h-.1v-1.03h-1.52s0,6.69,0,6.69Z"/><path class="cls-6" d="m143.55,116.52h0c0-.56.4-.88,1.24-.93l1.5-.1v.53c0,.79-.68,1.39-1.59,1.39-.68,0-1.15-.33-1.15-.9Zm.69,2.07c.88,0,1.59-.38,1.95-1.03h.1v.92h1.5v-4.57c0-1.41-.97-2.25-2.69-2.25-1.59,0-2.66.74-2.81,1.87v.06h1.43v-.03c.16-.44.61-.69,1.31-.69.82,0,1.25.37,1.25,1.04v.58l-1.72.1c-1.63.1-2.54.79-2.54,1.99h0c0,1.23.93,2.01,2.2,2.01h.02Z"/><path class="cls-2" d="m701,115.35h0v-3.66c.65.38,1.06,1.08,1.06,1.83s-.4,1.45-1.05,1.83h0Zm-17.32-5.63c-.7,0-1.27.57-1.27,1.27v5.49c0,.7.57,1.27,1.27,1.27h14.36c.7,0,1.27-.57,1.27-1.27v-5.49c0-.7-.57-1.27-1.27-1.27h-14.36Zm14.36,8.87h-14.36c-1.16,0-2.11-.95-2.11-2.11v-5.49c0-1.16.95-2.11,2.11-2.11h14.36c1.16,0,2.11.95,2.11,2.11v5.49c0,1.16-.95,2.11-2.11,2.11Z"/><rect class="cls-6" x="683.26" y="110.57" width="15.21" height="6.34" rx=".84" ry=".84"/><path class="cls-6" d="m663.9,112.62l-1.03-1.03v-.2c1.75-1.57,3.99-2.43,6.34-2.43s4.58.86,6.32,2.42v.2s-1.02,1.03-1.02,1.03h-.19c-1.42-1.23-3.22-1.92-5.11-1.92s-3.71.69-5.13,1.93h-.19Zm2.26,2.26l-1.03-1.04v-.2c1.15-.97,2.58-1.5,4.09-1.5s2.93.52,4.07,1.49v.2s-1.03,1.04-1.03,1.04h-.18c-.81-.64-1.81-.99-2.86-.99s-2.06.36-2.88,1.01h-.18Zm2.95,2.95l-1.71-1.72c-.06-.06-.05-.16.02-.21.53-.37,1.15-.57,1.81-.57s1.27.2,1.79.56c.07.05.08.15.02.21l-1.72,1.73h-.19Z"/><path class="cls-6" d="m644.81,117.96c-.47,0-.84-.38-.84-.84v-1.48c0-.47.38-.84.84-.84h.84c.47,0,.84.38.84.84v1.48c0,.47-.38.84-.84.84h-.84Zm4.01,0c-.47,0-.84-.38-.84-.84v-3.17c0-.47.38-.84.84-.84h.84c.47,0,.84.38.84.84v3.17c0,.47-.38.84-.84.84h-.84Zm4.01,0c-.47,0-.84-.38-.84-.84v-5.28c0-.47.38-.84.84-.84h.84c.47,0,.84.38.84.84v5.28c0,.47-.38.84-.84.84h-.84Zm4.01,0c-.47,0-.84-.38-.84-.84v-7.18c0-.47.38-.84.84-.84h.85c.47,0,.84.38.84.84v7.18c0,.47-.38.84-.84.84h-.85Z"/><circle class="cls-1" cx="728.31" cy="540" r="3.63"/></svg>